M48
INCH,TZ
T1C0.006
T2C0.012
T3C0.022
T4C0.024
T5C0.028
T6C0.039
T7C0.040
%
G90
G05
T1
X50886Y-45866
X53937Y-51969
T2
X50294Y-51345
X50558Y-50020
X50567Y-50346
X50650Y-52677
X50689Y-40906
X50707Y-46462
X50740Y-50157
X50787Y-40217
X50866Y-44705
X50886Y-43661
X50886Y-45317
X50888Y-51746
X51024Y-40217
X51085Y-46476
X51126Y-47382
X51142Y-49114
X51274Y-46831
X51382Y-49421
X51386Y-48898
X51398Y-46043
X51417Y-51752
X51454Y-52672
X51495Y-49707
X51504Y-47374
X51587Y-45676
X51651Y-49340
X51681Y-51750
X51827Y-52808
X51908Y-43457
X51937Y-48818
X51949Y-52087
X52060Y-50089
X52075Y-49014
X52218Y-51718
X52447Y-49717
X52451Y-51464
X52461Y-52894
X52461Y-53898
X52520Y-50217
X52539Y-54606
X52638Y-43799
X52657Y-52185
X52697Y-43406
X52740Y-49717
X52888Y-52126
X52899Y-50841
X52933Y-43799
X52978Y-48654
X53012Y-54606
X53013Y-51250
X53091Y-54035
X53108Y-51778
X53110Y-48209
X53110Y-53209
X53138Y-43406
X53164Y-49717
X53257Y-47744
X53268Y-48652
X53327Y-42913
X53327Y-43622
X53337Y-47958
X53384Y-49775
X53396Y-48445
X53425Y-55335
X53543Y-50236
X53819Y-49252
X53898Y-48524
X54055Y-55335
X54212Y-50902
X54252Y-42303
X54272Y-49390
X54291Y-45728
X54418Y-50638
X54521Y-49072
X54560Y-46557
X54622Y-47773
X54654Y-50580
X54806Y-46523
X54841Y-47421
X54882Y-54567
X54941Y-48976
X54941Y-49272
X54961Y-48130
X54961Y-49540
X55000Y-45748
X55020Y-41831
X55039Y-51791
X55039Y-53563
X55049Y-50409
X55110Y-47424
T5
X51815Y-41108
X51815Y-41608
X52315Y-41108
X52315Y-41608
X52815Y-41108
X52815Y-41608
X53315Y-41108
X53315Y-41608
X53815Y-41108
X53815Y-41608
T6
X49823Y-39980
X55827Y-39980
T7
X49823Y-40980
X49823Y-41980
X49823Y-42980
X49823Y-43980
X49823Y-44980
X49823Y-45980
X49823Y-46980
X49823Y-47980
X49823Y-48980
X49823Y-49980
X49823Y-50980
X49823Y-51980
X49823Y-52980
X49823Y-53980
X51815Y-39980
X52815Y-39980
X53815Y-39980
X55827Y-40980
X55827Y-41980
X55827Y-42980
X55827Y-43980
X55827Y-44980
X55827Y-45980
X55827Y-46980
X55827Y-47980
X55827Y-48980
X55827Y-49980
X55827Y-50980
X55827Y-51980
X55827Y-52980
X55827Y-53980
T3
X51772Y-55689G85X51890Y-55689
G05
X53740Y-55689G85X53858Y-55689
G05
T4
X51437Y-56644G85X51437Y-56860
G05
X54193Y-56644G85X54193Y-56860
G05
T0
M30
