M48
;DRILL file {KiCad 4.0.6-e0-6349~53~ubuntu16.04.1} date Sat Mar  4 16:01:48 2017
;FORMAT={-:-/ absolute / metric / decimal}
FMAT,2
METRIC,TZ
T1C0.150
T2C0.300
T3C0.550
T4C0.600
T5C0.700
T6C1.000
T7C1.016
%
G90
G05
M71
T1
X129.25Y-116.5
X137.Y-132.
X139.65Y-102.9
T2
X127.746Y-130.416
X128.416Y-127.05
X128.439Y-127.879
X128.65Y-133.8
X128.75Y-103.9
X128.796Y-118.015
X128.879Y-127.4
X129.Y-102.15
X129.2Y-113.55
X129.25Y-110.9
X129.25Y-115.105
X129.256Y-131.434
X129.6Y-102.15
X129.756Y-118.05
X129.861Y-120.35
X129.9Y-124.75
X130.235Y-118.95
X130.51Y-125.53
X130.521Y-124.201
X130.55Y-116.95
X130.6Y-131.45
X130.694Y-133.786
X130.798Y-126.255
X130.821Y-120.329
X131.03Y-116.016
X131.194Y-125.324
X131.27Y-131.444
X131.64Y-134.133
X131.847Y-110.38
X131.919Y-123.998
X131.95Y-132.3
X132.233Y-127.225
X132.27Y-124.496
X132.634Y-131.364
X133.215Y-126.28
X133.226Y-130.718
X133.25Y-134.35
X133.25Y-136.9
X133.402Y-127.552
X133.45Y-138.7
X133.7Y-111.25
X133.75Y-132.55
X133.85Y-110.25
X133.96Y-126.28
X134.336Y-132.401
X134.363Y-129.137
X134.45Y-111.25
X134.564Y-123.581
X134.65Y-138.7
X134.653Y-130.175
X134.85Y-137.25
X134.894Y-131.515
X134.9Y-122.45
X134.9Y-135.15
X134.97Y-110.25
X135.036Y-126.28
X135.272Y-121.27
X135.3Y-123.575
X135.45Y-109.
X135.45Y-110.8
X135.476Y-121.814
X135.596Y-126.43
X135.627Y-123.05
X135.7Y-140.55
X136.Y-127.6
X136.7Y-125.1
X136.9Y-123.25
X137.3Y-140.55
X137.698Y-129.291
X137.8Y-107.45
X137.85Y-125.45
X137.9Y-116.15
X138.223Y-128.62
X138.4Y-140.3
X138.482Y-124.643
X138.583Y-118.254
X138.74Y-121.344
X138.822Y-128.474
X139.208Y-118.169
X139.296Y-120.448
X139.4Y-138.6
X139.55Y-124.4
X139.55Y-125.15
X139.6Y-122.25
X139.602Y-125.831
X139.7Y-116.2
X139.75Y-106.25
X139.8Y-131.55
X139.8Y-136.05
X139.824Y-128.04
X139.979Y-120.458
X141.5Y-139.5
T5
X131.61Y-104.415
X131.61Y-105.685
X132.88Y-104.415
X132.88Y-105.685
X134.15Y-104.415
X134.15Y-105.685
X135.42Y-104.415
X135.42Y-105.685
X136.69Y-104.415
X136.69Y-105.685
T6
X126.55Y-101.55
X141.8Y-101.55
T7
X126.55Y-104.09
X126.55Y-106.63
X126.55Y-109.17
X126.55Y-111.71
X126.55Y-114.25
X126.55Y-116.79
X126.55Y-119.33
X126.55Y-121.87
X126.55Y-124.41
X126.55Y-126.95
X126.55Y-129.49
X126.55Y-132.03
X126.55Y-134.57
X126.55Y-137.11
X131.61Y-101.55
X134.15Y-101.55
X136.69Y-101.55
X141.8Y-104.09
X141.8Y-106.63
X141.8Y-109.17
X141.8Y-111.71
X141.8Y-114.25
X141.8Y-116.79
X141.8Y-119.33
X141.8Y-121.87
X141.8Y-124.41
X141.8Y-126.95
X141.8Y-129.49
X141.8Y-132.03
X141.8Y-134.57
X141.8Y-137.11
T3
X131.5Y-141.45G85X131.8Y-141.45
G05
X136.5Y-141.45G85X136.8Y-141.45
G05
T4
X130.65Y-143.875G85X130.65Y-144.425
G05
X137.65Y-143.875G85X137.65Y-144.425
G05
T0
M30
