G04 #@! TF.FileFunction,Legend,Top*
%FSLAX46Y46*%
G04 Gerber Fmt 4.6, Leading zero omitted, Abs format (unit mm)*
G04 Created by KiCad (PCBNEW 4.0.3+e1-6302~38~ubuntu16.04.1-stable) date Sat Aug 13 15:25:40 2016*
%MOMM*%
%LPD*%
G01*
G04 APERTURE LIST*
%ADD10C,0.100000*%
%ADD11C,0.120000*%
%ADD12C,0.150000*%
%ADD13C,0.119380*%
%ADD14C,0.127000*%
G04 APERTURE END LIST*
D10*
X141400000Y-139621429D02*
X141400000Y-139021429D01*
X141628572Y-139021429D01*
X141685714Y-139050000D01*
X141714286Y-139078571D01*
X141742857Y-139135714D01*
X141742857Y-139221429D01*
X141714286Y-139278571D01*
X141685714Y-139307143D01*
X141628572Y-139335714D01*
X141400000Y-139335714D01*
X141942857Y-139021429D02*
X142085714Y-139621429D01*
X142200000Y-139192857D01*
X142314286Y-139621429D01*
X142457143Y-139021429D01*
X143028571Y-139621429D02*
X142828571Y-139335714D01*
X142685714Y-139621429D02*
X142685714Y-139021429D01*
X142914286Y-139021429D01*
X142971428Y-139050000D01*
X143000000Y-139078571D01*
X143028571Y-139135714D01*
X143028571Y-139221429D01*
X143000000Y-139278571D01*
X142971428Y-139307143D01*
X142914286Y-139335714D01*
X142685714Y-139335714D01*
X140666667Y-137516666D02*
X139966667Y-137516666D01*
X139966667Y-137350000D01*
X140000000Y-137250000D01*
X140066667Y-137183333D01*
X140133333Y-137150000D01*
X140266667Y-137116666D01*
X140366667Y-137116666D01*
X140500000Y-137150000D01*
X140566667Y-137183333D01*
X140633333Y-137250000D01*
X140666667Y-137350000D01*
X140666667Y-137516666D01*
X140033333Y-136850000D02*
X140000000Y-136816666D01*
X139966667Y-136750000D01*
X139966667Y-136583333D01*
X140000000Y-136516666D01*
X140033333Y-136483333D01*
X140100000Y-136450000D01*
X140166667Y-136450000D01*
X140266667Y-136483333D01*
X140666667Y-136883333D01*
X140666667Y-136450000D01*
X140666667Y-135066666D02*
X139966667Y-135066666D01*
X139966667Y-134900000D01*
X140000000Y-134800000D01*
X140066667Y-134733333D01*
X140133333Y-134700000D01*
X140266667Y-134666666D01*
X140366667Y-134666666D01*
X140500000Y-134700000D01*
X140566667Y-134733333D01*
X140633333Y-134800000D01*
X140666667Y-134900000D01*
X140666667Y-135066666D01*
X139966667Y-134433333D02*
X139966667Y-134000000D01*
X140233333Y-134233333D01*
X140233333Y-134133333D01*
X140266667Y-134066666D01*
X140300000Y-134033333D01*
X140366667Y-134000000D01*
X140533333Y-134000000D01*
X140600000Y-134033333D01*
X140633333Y-134066666D01*
X140666667Y-134133333D01*
X140666667Y-134333333D01*
X140633333Y-134400000D01*
X140600000Y-134433333D01*
X140666667Y-132566666D02*
X139966667Y-132566666D01*
X139966667Y-132400000D01*
X140000000Y-132300000D01*
X140066667Y-132233333D01*
X140133333Y-132200000D01*
X140266667Y-132166666D01*
X140366667Y-132166666D01*
X140500000Y-132200000D01*
X140566667Y-132233333D01*
X140633333Y-132300000D01*
X140666667Y-132400000D01*
X140666667Y-132566666D01*
X140200000Y-131566666D02*
X140666667Y-131566666D01*
X139933333Y-131733333D02*
X140433333Y-131900000D01*
X140433333Y-131466666D01*
X140666667Y-130016666D02*
X139966667Y-130016666D01*
X139966667Y-129850000D01*
X140000000Y-129750000D01*
X140066667Y-129683333D01*
X140133333Y-129650000D01*
X140266667Y-129616666D01*
X140366667Y-129616666D01*
X140500000Y-129650000D01*
X140566667Y-129683333D01*
X140633333Y-129750000D01*
X140666667Y-129850000D01*
X140666667Y-130016666D01*
X139966667Y-128983333D02*
X139966667Y-129316666D01*
X140300000Y-129350000D01*
X140266667Y-129316666D01*
X140233333Y-129250000D01*
X140233333Y-129083333D01*
X140266667Y-129016666D01*
X140300000Y-128983333D01*
X140366667Y-128950000D01*
X140533333Y-128950000D01*
X140600000Y-128983333D01*
X140633333Y-129016666D01*
X140666667Y-129083333D01*
X140666667Y-129250000D01*
X140633333Y-129316666D01*
X140600000Y-129350000D01*
X140666667Y-127466666D02*
X139966667Y-127466666D01*
X139966667Y-127300000D01*
X140000000Y-127200000D01*
X140066667Y-127133333D01*
X140133333Y-127100000D01*
X140266667Y-127066666D01*
X140366667Y-127066666D01*
X140500000Y-127100000D01*
X140566667Y-127133333D01*
X140633333Y-127200000D01*
X140666667Y-127300000D01*
X140666667Y-127466666D01*
X139966667Y-126466666D02*
X139966667Y-126600000D01*
X140000000Y-126666666D01*
X140033333Y-126700000D01*
X140133333Y-126766666D01*
X140266667Y-126800000D01*
X140533333Y-126800000D01*
X140600000Y-126766666D01*
X140633333Y-126733333D01*
X140666667Y-126666666D01*
X140666667Y-126533333D01*
X140633333Y-126466666D01*
X140600000Y-126433333D01*
X140533333Y-126400000D01*
X140366667Y-126400000D01*
X140300000Y-126433333D01*
X140266667Y-126466666D01*
X140233333Y-126533333D01*
X140233333Y-126666666D01*
X140266667Y-126733333D01*
X140300000Y-126766666D01*
X140366667Y-126800000D01*
X140666667Y-124966666D02*
X139966667Y-124966666D01*
X139966667Y-124800000D01*
X140000000Y-124700000D01*
X140066667Y-124633333D01*
X140133333Y-124600000D01*
X140266667Y-124566666D01*
X140366667Y-124566666D01*
X140500000Y-124600000D01*
X140566667Y-124633333D01*
X140633333Y-124700000D01*
X140666667Y-124800000D01*
X140666667Y-124966666D01*
X139966667Y-124333333D02*
X139966667Y-123866666D01*
X140666667Y-124166666D01*
X140666667Y-122466666D02*
X139966667Y-122466666D01*
X139966667Y-122300000D01*
X140000000Y-122200000D01*
X140066667Y-122133333D01*
X140133333Y-122100000D01*
X140266667Y-122066666D01*
X140366667Y-122066666D01*
X140500000Y-122100000D01*
X140566667Y-122133333D01*
X140633333Y-122200000D01*
X140666667Y-122300000D01*
X140666667Y-122466666D01*
X140266667Y-121666666D02*
X140233333Y-121733333D01*
X140200000Y-121766666D01*
X140133333Y-121800000D01*
X140100000Y-121800000D01*
X140033333Y-121766666D01*
X140000000Y-121733333D01*
X139966667Y-121666666D01*
X139966667Y-121533333D01*
X140000000Y-121466666D01*
X140033333Y-121433333D01*
X140100000Y-121400000D01*
X140133333Y-121400000D01*
X140200000Y-121433333D01*
X140233333Y-121466666D01*
X140266667Y-121533333D01*
X140266667Y-121666666D01*
X140300000Y-121733333D01*
X140333333Y-121766666D01*
X140400000Y-121800000D01*
X140533333Y-121800000D01*
X140600000Y-121766666D01*
X140633333Y-121733333D01*
X140666667Y-121666666D01*
X140666667Y-121533333D01*
X140633333Y-121466666D01*
X140600000Y-121433333D01*
X140533333Y-121400000D01*
X140400000Y-121400000D01*
X140333333Y-121433333D01*
X140300000Y-121466666D01*
X140266667Y-121533333D01*
X140666667Y-119816666D02*
X139966667Y-119816666D01*
X139966667Y-119650000D01*
X140000000Y-119550000D01*
X140066667Y-119483333D01*
X140133333Y-119450000D01*
X140266667Y-119416666D01*
X140366667Y-119416666D01*
X140500000Y-119450000D01*
X140566667Y-119483333D01*
X140633333Y-119550000D01*
X140666667Y-119650000D01*
X140666667Y-119816666D01*
X140666667Y-119083333D02*
X140666667Y-118950000D01*
X140633333Y-118883333D01*
X140600000Y-118850000D01*
X140500000Y-118783333D01*
X140366667Y-118750000D01*
X140100000Y-118750000D01*
X140033333Y-118783333D01*
X140000000Y-118816666D01*
X139966667Y-118883333D01*
X139966667Y-119016666D01*
X140000000Y-119083333D01*
X140033333Y-119116666D01*
X140100000Y-119150000D01*
X140266667Y-119150000D01*
X140333333Y-119116666D01*
X140366667Y-119083333D01*
X140400000Y-119016666D01*
X140400000Y-118883333D01*
X140366667Y-118816666D01*
X140333333Y-118783333D01*
X140266667Y-118750000D01*
X140666667Y-117650000D02*
X139966667Y-117650000D01*
X139966667Y-117483334D01*
X140000000Y-117383334D01*
X140066667Y-117316667D01*
X140133333Y-117283334D01*
X140266667Y-117250000D01*
X140366667Y-117250000D01*
X140500000Y-117283334D01*
X140566667Y-117316667D01*
X140633333Y-117383334D01*
X140666667Y-117483334D01*
X140666667Y-117650000D01*
X140666667Y-116583334D02*
X140666667Y-116983334D01*
X140666667Y-116783334D02*
X139966667Y-116783334D01*
X140066667Y-116850000D01*
X140133333Y-116916667D01*
X140166667Y-116983334D01*
X139966667Y-116150000D02*
X139966667Y-116083333D01*
X140000000Y-116016667D01*
X140033333Y-115983333D01*
X140100000Y-115950000D01*
X140233333Y-115916667D01*
X140400000Y-115916667D01*
X140533333Y-115950000D01*
X140600000Y-115983333D01*
X140633333Y-116016667D01*
X140666667Y-116083333D01*
X140666667Y-116150000D01*
X140633333Y-116216667D01*
X140600000Y-116250000D01*
X140533333Y-116283333D01*
X140400000Y-116316667D01*
X140233333Y-116316667D01*
X140100000Y-116283333D01*
X140033333Y-116250000D01*
X140000000Y-116216667D01*
X139966667Y-116150000D01*
X140666667Y-115100000D02*
X139966667Y-115100000D01*
X139966667Y-114933334D01*
X140000000Y-114833334D01*
X140066667Y-114766667D01*
X140133333Y-114733334D01*
X140266667Y-114700000D01*
X140366667Y-114700000D01*
X140500000Y-114733334D01*
X140566667Y-114766667D01*
X140633333Y-114833334D01*
X140666667Y-114933334D01*
X140666667Y-115100000D01*
X140666667Y-114033334D02*
X140666667Y-114433334D01*
X140666667Y-114233334D02*
X139966667Y-114233334D01*
X140066667Y-114300000D01*
X140133333Y-114366667D01*
X140166667Y-114433334D01*
X140666667Y-113366667D02*
X140666667Y-113766667D01*
X140666667Y-113566667D02*
X139966667Y-113566667D01*
X140066667Y-113633333D01*
X140133333Y-113700000D01*
X140166667Y-113766667D01*
X140666667Y-112550000D02*
X139966667Y-112550000D01*
X139966667Y-112383334D01*
X140000000Y-112283334D01*
X140066667Y-112216667D01*
X140133333Y-112183334D01*
X140266667Y-112150000D01*
X140366667Y-112150000D01*
X140500000Y-112183334D01*
X140566667Y-112216667D01*
X140633333Y-112283334D01*
X140666667Y-112383334D01*
X140666667Y-112550000D01*
X140666667Y-111483334D02*
X140666667Y-111883334D01*
X140666667Y-111683334D02*
X139966667Y-111683334D01*
X140066667Y-111750000D01*
X140133333Y-111816667D01*
X140166667Y-111883334D01*
X140033333Y-111216667D02*
X140000000Y-111183333D01*
X139966667Y-111116667D01*
X139966667Y-110950000D01*
X140000000Y-110883333D01*
X140033333Y-110850000D01*
X140100000Y-110816667D01*
X140166667Y-110816667D01*
X140266667Y-110850000D01*
X140666667Y-111250000D01*
X140666667Y-110816667D01*
X140666667Y-110000000D02*
X139966667Y-110000000D01*
X139966667Y-109833334D01*
X140000000Y-109733334D01*
X140066667Y-109666667D01*
X140133333Y-109633334D01*
X140266667Y-109600000D01*
X140366667Y-109600000D01*
X140500000Y-109633334D01*
X140566667Y-109666667D01*
X140633333Y-109733334D01*
X140666667Y-109833334D01*
X140666667Y-110000000D01*
X140666667Y-108933334D02*
X140666667Y-109333334D01*
X140666667Y-109133334D02*
X139966667Y-109133334D01*
X140066667Y-109200000D01*
X140133333Y-109266667D01*
X140166667Y-109333334D01*
X139966667Y-108700000D02*
X139966667Y-108266667D01*
X140233333Y-108500000D01*
X140233333Y-108400000D01*
X140266667Y-108333333D01*
X140300000Y-108300000D01*
X140366667Y-108266667D01*
X140533333Y-108266667D01*
X140600000Y-108300000D01*
X140633333Y-108333333D01*
X140666667Y-108400000D01*
X140666667Y-108600000D01*
X140633333Y-108666667D01*
X140600000Y-108700000D01*
X140666667Y-106983333D02*
X140333333Y-107216667D01*
X140666667Y-107383333D02*
X139966667Y-107383333D01*
X139966667Y-107116667D01*
X140000000Y-107050000D01*
X140033333Y-107016667D01*
X140100000Y-106983333D01*
X140200000Y-106983333D01*
X140266667Y-107016667D01*
X140300000Y-107050000D01*
X140333333Y-107116667D01*
X140333333Y-107383333D01*
X140633333Y-106716667D02*
X140666667Y-106616667D01*
X140666667Y-106450000D01*
X140633333Y-106383333D01*
X140600000Y-106350000D01*
X140533333Y-106316667D01*
X140466667Y-106316667D01*
X140400000Y-106350000D01*
X140366667Y-106383333D01*
X140333333Y-106450000D01*
X140300000Y-106583333D01*
X140266667Y-106650000D01*
X140233333Y-106683333D01*
X140166667Y-106716667D01*
X140100000Y-106716667D01*
X140033333Y-106683333D01*
X140000000Y-106650000D01*
X139966667Y-106583333D01*
X139966667Y-106416667D01*
X140000000Y-106316667D01*
X139966667Y-106116666D02*
X139966667Y-105716666D01*
X140666667Y-105916666D02*
X139966667Y-105916666D01*
X140000000Y-104583333D02*
X139966667Y-104649999D01*
X139966667Y-104749999D01*
X140000000Y-104849999D01*
X140066667Y-104916666D01*
X140133333Y-104949999D01*
X140266667Y-104983333D01*
X140366667Y-104983333D01*
X140500000Y-104949999D01*
X140566667Y-104916666D01*
X140633333Y-104849999D01*
X140666667Y-104749999D01*
X140666667Y-104683333D01*
X140633333Y-104583333D01*
X140600000Y-104549999D01*
X140366667Y-104549999D01*
X140366667Y-104683333D01*
X140666667Y-104249999D02*
X139966667Y-104249999D01*
X140666667Y-103849999D01*
X139966667Y-103849999D01*
X140666667Y-103516666D02*
X139966667Y-103516666D01*
X139966667Y-103350000D01*
X140000000Y-103250000D01*
X140066667Y-103183333D01*
X140133333Y-103150000D01*
X140266667Y-103116666D01*
X140366667Y-103116666D01*
X140500000Y-103150000D01*
X140566667Y-103183333D01*
X140633333Y-103250000D01*
X140666667Y-103350000D01*
X140666667Y-103516666D01*
X127716667Y-100716666D02*
X127683333Y-100816666D01*
X127683333Y-100983333D01*
X127716667Y-101050000D01*
X127750000Y-101083333D01*
X127816667Y-101116666D01*
X127883333Y-101116666D01*
X127950000Y-101083333D01*
X127983333Y-101050000D01*
X128016667Y-100983333D01*
X128050000Y-100850000D01*
X128083333Y-100783333D01*
X128116667Y-100750000D01*
X128183333Y-100716666D01*
X128250000Y-100716666D01*
X128316667Y-100750000D01*
X128350000Y-100783333D01*
X128383333Y-100850000D01*
X128383333Y-101016666D01*
X128350000Y-101116666D01*
X127750000Y-101816667D02*
X127716667Y-101783333D01*
X127683333Y-101683333D01*
X127683333Y-101616667D01*
X127716667Y-101516667D01*
X127783333Y-101450000D01*
X127850000Y-101416667D01*
X127983333Y-101383333D01*
X128083333Y-101383333D01*
X128216667Y-101416667D01*
X128283333Y-101450000D01*
X128350000Y-101516667D01*
X128383333Y-101616667D01*
X128383333Y-101683333D01*
X128350000Y-101783333D01*
X128316667Y-101816667D01*
X127683333Y-102450000D02*
X127683333Y-102116667D01*
X128383333Y-102116667D01*
X127716667Y-103300000D02*
X127683333Y-103400000D01*
X127683333Y-103566667D01*
X127716667Y-103633334D01*
X127750000Y-103666667D01*
X127816667Y-103700000D01*
X127883333Y-103700000D01*
X127950000Y-103666667D01*
X127983333Y-103633334D01*
X128016667Y-103566667D01*
X128050000Y-103433334D01*
X128083333Y-103366667D01*
X128116667Y-103333334D01*
X128183333Y-103300000D01*
X128250000Y-103300000D01*
X128316667Y-103333334D01*
X128350000Y-103366667D01*
X128383333Y-103433334D01*
X128383333Y-103600000D01*
X128350000Y-103700000D01*
X127683333Y-104000001D02*
X128383333Y-104000001D01*
X128383333Y-104166667D01*
X128350000Y-104266667D01*
X128283333Y-104333334D01*
X128216667Y-104366667D01*
X128083333Y-104400001D01*
X127983333Y-104400001D01*
X127850000Y-104366667D01*
X127783333Y-104333334D01*
X127716667Y-104266667D01*
X127683333Y-104166667D01*
X127683333Y-104000001D01*
X127883333Y-104666667D02*
X127883333Y-105000001D01*
X127683333Y-104600001D02*
X128383333Y-104833334D01*
X127683333Y-105066667D01*
X127683333Y-106266667D02*
X128016667Y-106033333D01*
X127683333Y-105866667D02*
X128383333Y-105866667D01*
X128383333Y-106133333D01*
X128350000Y-106200000D01*
X128316667Y-106233333D01*
X128250000Y-106266667D01*
X128150000Y-106266667D01*
X128083333Y-106233333D01*
X128050000Y-106200000D01*
X128016667Y-106133333D01*
X128016667Y-105866667D01*
X127716667Y-106533333D02*
X127683333Y-106633333D01*
X127683333Y-106800000D01*
X127716667Y-106866667D01*
X127750000Y-106900000D01*
X127816667Y-106933333D01*
X127883333Y-106933333D01*
X127950000Y-106900000D01*
X127983333Y-106866667D01*
X128016667Y-106800000D01*
X128050000Y-106666667D01*
X128083333Y-106600000D01*
X128116667Y-106566667D01*
X128183333Y-106533333D01*
X128250000Y-106533333D01*
X128316667Y-106566667D01*
X128350000Y-106600000D01*
X128383333Y-106666667D01*
X128383333Y-106833333D01*
X128350000Y-106933333D01*
X128383333Y-107133334D02*
X128383333Y-107533334D01*
X127683333Y-107333334D02*
X128383333Y-107333334D01*
X128383333Y-108383334D02*
X127683333Y-108616667D01*
X128383333Y-108850000D01*
X127683333Y-109083334D02*
X128383333Y-109083334D01*
X127683333Y-109416667D02*
X128383333Y-109416667D01*
X127683333Y-109816667D01*
X128383333Y-109816667D01*
X128383333Y-110716667D02*
X128383333Y-111150000D01*
X128116667Y-110916667D01*
X128116667Y-111016667D01*
X128083333Y-111083334D01*
X128050000Y-111116667D01*
X127983333Y-111150000D01*
X127816667Y-111150000D01*
X127750000Y-111116667D01*
X127716667Y-111083334D01*
X127683333Y-111016667D01*
X127683333Y-110816667D01*
X127716667Y-110750000D01*
X127750000Y-110716667D01*
X127750000Y-111450001D02*
X127716667Y-111483334D01*
X127683333Y-111450001D01*
X127716667Y-111416667D01*
X127750000Y-111450001D01*
X127683333Y-111450001D01*
X128383333Y-111716667D02*
X128383333Y-112150000D01*
X128116667Y-111916667D01*
X128116667Y-112016667D01*
X128083333Y-112083334D01*
X128050000Y-112116667D01*
X127983333Y-112150000D01*
X127816667Y-112150000D01*
X127750000Y-112116667D01*
X127716667Y-112083334D01*
X127683333Y-112016667D01*
X127683333Y-111816667D01*
X127716667Y-111750000D01*
X127750000Y-111716667D01*
X128383333Y-112350001D02*
X127683333Y-112583334D01*
X128383333Y-112816667D01*
X128350000Y-113866667D02*
X128383333Y-113800001D01*
X128383333Y-113700001D01*
X128350000Y-113600001D01*
X128283333Y-113533334D01*
X128216667Y-113500001D01*
X128083333Y-113466667D01*
X127983333Y-113466667D01*
X127850000Y-113500001D01*
X127783333Y-113533334D01*
X127716667Y-113600001D01*
X127683333Y-113700001D01*
X127683333Y-113766667D01*
X127716667Y-113866667D01*
X127750000Y-113900001D01*
X127983333Y-113900001D01*
X127983333Y-113766667D01*
X127683333Y-114200001D02*
X128383333Y-114200001D01*
X127683333Y-114600001D01*
X128383333Y-114600001D01*
X127683333Y-114933334D02*
X128383333Y-114933334D01*
X128383333Y-115100000D01*
X128350000Y-115200000D01*
X128283333Y-115266667D01*
X128216667Y-115300000D01*
X128083333Y-115333334D01*
X127983333Y-115333334D01*
X127850000Y-115300000D01*
X127783333Y-115266667D01*
X127716667Y-115200000D01*
X127683333Y-115100000D01*
X127683333Y-114933334D01*
X127883333Y-115766667D02*
X127883333Y-116100001D01*
X127683333Y-115700001D02*
X128383333Y-115933334D01*
X127683333Y-116166667D01*
X127683333Y-116800001D02*
X128016667Y-116566667D01*
X127683333Y-116400001D02*
X128383333Y-116400001D01*
X128383333Y-116666667D01*
X128350000Y-116733334D01*
X128316667Y-116766667D01*
X128250000Y-116800001D01*
X128150000Y-116800001D01*
X128083333Y-116766667D01*
X128050000Y-116733334D01*
X128016667Y-116666667D01*
X128016667Y-116400001D01*
X128050000Y-117100001D02*
X128050000Y-117333334D01*
X127683333Y-117433334D02*
X127683333Y-117100001D01*
X128383333Y-117100001D01*
X128383333Y-117433334D01*
X128050000Y-117966667D02*
X128050000Y-117733334D01*
X127683333Y-117733334D02*
X128383333Y-117733334D01*
X128383333Y-118066667D01*
X127883333Y-118900000D02*
X127883333Y-119233334D01*
X127683333Y-118833334D02*
X128383333Y-119066667D01*
X127683333Y-119300000D01*
X128383333Y-119666667D02*
X128383333Y-119733334D01*
X128350000Y-119800000D01*
X128316667Y-119833334D01*
X128250000Y-119866667D01*
X128116667Y-119900000D01*
X127950000Y-119900000D01*
X127816667Y-119866667D01*
X127750000Y-119833334D01*
X127716667Y-119800000D01*
X127683333Y-119733334D01*
X127683333Y-119666667D01*
X127716667Y-119600000D01*
X127750000Y-119566667D01*
X127816667Y-119533334D01*
X127950000Y-119500000D01*
X128116667Y-119500000D01*
X128250000Y-119533334D01*
X128316667Y-119566667D01*
X128350000Y-119600000D01*
X128383333Y-119666667D01*
X127883333Y-121400000D02*
X127883333Y-121733334D01*
X127683333Y-121333334D02*
X128383333Y-121566667D01*
X127683333Y-121800000D01*
X127683333Y-122400000D02*
X127683333Y-122000000D01*
X127683333Y-122200000D02*
X128383333Y-122200000D01*
X128283333Y-122133334D01*
X128216667Y-122066667D01*
X128183333Y-122000000D01*
X127883333Y-124050000D02*
X127883333Y-124383334D01*
X127683333Y-123983334D02*
X128383333Y-124216667D01*
X127683333Y-124450000D01*
X128316667Y-124650000D02*
X128350000Y-124683334D01*
X128383333Y-124750000D01*
X128383333Y-124916667D01*
X128350000Y-124983334D01*
X128316667Y-125016667D01*
X128250000Y-125050000D01*
X128183333Y-125050000D01*
X128083333Y-125016667D01*
X127683333Y-124616667D01*
X127683333Y-125050000D01*
X127883333Y-126550000D02*
X127883333Y-126883334D01*
X127683333Y-126483334D02*
X128383333Y-126716667D01*
X127683333Y-126950000D01*
X128383333Y-127116667D02*
X128383333Y-127550000D01*
X128116667Y-127316667D01*
X128116667Y-127416667D01*
X128083333Y-127483334D01*
X128050000Y-127516667D01*
X127983333Y-127550000D01*
X127816667Y-127550000D01*
X127750000Y-127516667D01*
X127716667Y-127483334D01*
X127683333Y-127416667D01*
X127683333Y-127216667D01*
X127716667Y-127150000D01*
X127750000Y-127116667D01*
X127883333Y-129050000D02*
X127883333Y-129383334D01*
X127683333Y-128983334D02*
X128383333Y-129216667D01*
X127683333Y-129450000D01*
X128150000Y-129983334D02*
X127683333Y-129983334D01*
X128416667Y-129816667D02*
X127916667Y-129650000D01*
X127916667Y-130083334D01*
X127883333Y-131550000D02*
X127883333Y-131883334D01*
X127683333Y-131483334D02*
X128383333Y-131716667D01*
X127683333Y-131950000D01*
X128383333Y-132516667D02*
X128383333Y-132183334D01*
X128050000Y-132150000D01*
X128083333Y-132183334D01*
X128116667Y-132250000D01*
X128116667Y-132416667D01*
X128083333Y-132483334D01*
X128050000Y-132516667D01*
X127983333Y-132550000D01*
X127816667Y-132550000D01*
X127750000Y-132516667D01*
X127716667Y-132483334D01*
X127683333Y-132416667D01*
X127683333Y-132250000D01*
X127716667Y-132183334D01*
X127750000Y-132150000D01*
X127683333Y-133983334D02*
X128383333Y-133983334D01*
X128383333Y-134150000D01*
X128350000Y-134250000D01*
X128283333Y-134316667D01*
X128216667Y-134350000D01*
X128083333Y-134383334D01*
X127983333Y-134383334D01*
X127850000Y-134350000D01*
X127783333Y-134316667D01*
X127716667Y-134250000D01*
X127683333Y-134150000D01*
X127683333Y-133983334D01*
X128383333Y-134816667D02*
X128383333Y-134883334D01*
X128350000Y-134950000D01*
X128316667Y-134983334D01*
X128250000Y-135016667D01*
X128116667Y-135050000D01*
X127950000Y-135050000D01*
X127816667Y-135016667D01*
X127750000Y-134983334D01*
X127716667Y-134950000D01*
X127683333Y-134883334D01*
X127683333Y-134816667D01*
X127716667Y-134750000D01*
X127750000Y-134716667D01*
X127816667Y-134683334D01*
X127950000Y-134650000D01*
X128116667Y-134650000D01*
X128250000Y-134683334D01*
X128316667Y-134716667D01*
X128350000Y-134750000D01*
X128383333Y-134816667D01*
X139966667Y-102583333D02*
X139966667Y-102150000D01*
X140233333Y-102383333D01*
X140233333Y-102283333D01*
X140266667Y-102216666D01*
X140300000Y-102183333D01*
X140366667Y-102150000D01*
X140533333Y-102150000D01*
X140600000Y-102183333D01*
X140633333Y-102216666D01*
X140666667Y-102283333D01*
X140666667Y-102483333D01*
X140633333Y-102550000D01*
X140600000Y-102583333D01*
X140600000Y-101849999D02*
X140633333Y-101816666D01*
X140666667Y-101849999D01*
X140633333Y-101883333D01*
X140600000Y-101849999D01*
X140666667Y-101849999D01*
X139966667Y-101583333D02*
X139966667Y-101150000D01*
X140233333Y-101383333D01*
X140233333Y-101283333D01*
X140266667Y-101216666D01*
X140300000Y-101183333D01*
X140366667Y-101150000D01*
X140533333Y-101150000D01*
X140600000Y-101183333D01*
X140633333Y-101216666D01*
X140666667Y-101283333D01*
X140666667Y-101483333D01*
X140633333Y-101550000D01*
X140600000Y-101583333D01*
X139966667Y-100949999D02*
X140666667Y-100716666D01*
X139966667Y-100483333D01*
D11*
X127683333Y-136533334D02*
X128383333Y-136533334D01*
X128383333Y-136700000D01*
X128350000Y-136800000D01*
X128283333Y-136866667D01*
X128216667Y-136900000D01*
X128083333Y-136933334D01*
X127983333Y-136933334D01*
X127850000Y-136900000D01*
X127783333Y-136866667D01*
X127716667Y-136800000D01*
X127683333Y-136700000D01*
X127683333Y-136533334D01*
X127683333Y-137600000D02*
X127683333Y-137200000D01*
X127683333Y-137400000D02*
X128383333Y-137400000D01*
X128283333Y-137333334D01*
X128216667Y-137266667D01*
X128183333Y-137200000D01*
D12*
X140250000Y-142800000D02*
X140250000Y-143500000D01*
X139050000Y-143500000D02*
X139050000Y-142800000D01*
X129700000Y-119350000D02*
X129700000Y-120050000D01*
X128500000Y-120050000D02*
X128500000Y-119350000D01*
X129500000Y-132150000D02*
X130200000Y-132150000D01*
X130200000Y-133350000D02*
X129500000Y-133350000D01*
X133300000Y-114950000D02*
X132600000Y-114950000D01*
X132600000Y-113750000D02*
X133300000Y-113750000D01*
X130300000Y-114950000D02*
X129600000Y-114950000D01*
X129600000Y-113750000D02*
X130300000Y-113750000D01*
X136250000Y-136650000D02*
X136250000Y-137350000D01*
X135050000Y-137350000D02*
X135050000Y-136650000D01*
X132700000Y-132800000D02*
X133400000Y-132800000D01*
X133400000Y-134000000D02*
X132700000Y-134000000D01*
X134850000Y-116950000D02*
X134850000Y-116250000D01*
X136050000Y-116250000D02*
X136050000Y-116950000D01*
X138900000Y-120100000D02*
X138200000Y-120100000D01*
X138200000Y-118900000D02*
X138900000Y-118900000D01*
X129500000Y-129850000D02*
X130200000Y-129850000D01*
X130200000Y-131050000D02*
X129500000Y-131050000D01*
X139850000Y-129650000D02*
X139850000Y-130350000D01*
X138650000Y-130350000D02*
X138650000Y-129650000D01*
X130100000Y-110200000D02*
X130100000Y-107500000D01*
X128600000Y-110200000D02*
X128600000Y-107500000D01*
X129500000Y-108700000D02*
X129250000Y-108700000D01*
X129250000Y-108700000D02*
X129400000Y-108850000D01*
X129000000Y-108950000D02*
X129700000Y-108950000D01*
X129350000Y-108600000D02*
X129350000Y-108250000D01*
X129350000Y-108950000D02*
X129000000Y-108600000D01*
X129000000Y-108600000D02*
X129700000Y-108600000D01*
X129700000Y-108600000D02*
X129350000Y-108950000D01*
X139700000Y-110050000D02*
X139700000Y-107350000D01*
X138200000Y-110050000D02*
X138200000Y-107350000D01*
X139100000Y-108550000D02*
X138850000Y-108550000D01*
X138850000Y-108550000D02*
X139000000Y-108700000D01*
X138600000Y-108800000D02*
X139300000Y-108800000D01*
X138950000Y-108450000D02*
X138950000Y-108100000D01*
X138950000Y-108800000D02*
X138600000Y-108450000D01*
X138600000Y-108450000D02*
X139300000Y-108450000D01*
X139300000Y-108450000D02*
X138950000Y-108800000D01*
X138200000Y-110850000D02*
X138200000Y-113550000D01*
X139700000Y-110850000D02*
X139700000Y-113550000D01*
X138800000Y-112350000D02*
X139050000Y-112350000D01*
X139050000Y-112350000D02*
X138900000Y-112200000D01*
X139300000Y-112100000D02*
X138600000Y-112100000D01*
X138950000Y-112450000D02*
X138950000Y-112800000D01*
X138950000Y-112100000D02*
X139300000Y-112450000D01*
X139300000Y-112450000D02*
X138600000Y-112450000D01*
X138600000Y-112450000D02*
X138950000Y-112100000D01*
X142800000Y-139900000D02*
X140100000Y-139900000D01*
X142800000Y-141400000D02*
X140100000Y-141400000D01*
X141300000Y-140500000D02*
X141300000Y-140750000D01*
X141300000Y-140750000D02*
X141450000Y-140600000D01*
X141550000Y-141000000D02*
X141550000Y-140300000D01*
X141200000Y-140650000D02*
X140850000Y-140650000D01*
X141550000Y-140650000D02*
X141200000Y-141000000D01*
X141200000Y-141000000D02*
X141200000Y-140300000D01*
X141200000Y-140300000D02*
X141550000Y-140650000D01*
X126450000Y-139425000D02*
X128450000Y-139425000D01*
X128450000Y-142375000D02*
X126450000Y-142375000D01*
X128575000Y-117000000D02*
X128575000Y-116000000D01*
X129925000Y-116000000D02*
X129925000Y-117000000D01*
D13*
X134626000Y-113119000D02*
X137674000Y-113119000D01*
X137674000Y-113119000D02*
X137674000Y-113881000D01*
X137674000Y-113881000D02*
X134626000Y-113881000D01*
X134626000Y-113881000D02*
X134626000Y-113119000D01*
X136537000Y-136669000D02*
X139585000Y-136669000D01*
X139585000Y-136669000D02*
X139585000Y-137431000D01*
X139585000Y-137431000D02*
X136537000Y-137431000D01*
X136537000Y-137431000D02*
X136537000Y-136669000D01*
X128526000Y-137169000D02*
X131574000Y-137169000D01*
X131574000Y-137169000D02*
X131574000Y-137931000D01*
X131574000Y-137931000D02*
X128526000Y-137931000D01*
X128526000Y-137931000D02*
X128526000Y-137169000D01*
X139424000Y-132381000D02*
X136376000Y-132381000D01*
X136376000Y-132381000D02*
X136376000Y-131619000D01*
X136376000Y-131619000D02*
X139424000Y-131619000D01*
X139424000Y-131619000D02*
X139424000Y-132381000D01*
D12*
X128925000Y-105150000D02*
X128925000Y-104150000D01*
X130275000Y-104150000D02*
X130275000Y-105150000D01*
X140675000Y-143650000D02*
X140675000Y-142650000D01*
X142025000Y-142650000D02*
X142025000Y-143650000D01*
X138950000Y-117775000D02*
X137950000Y-117775000D01*
X137950000Y-116425000D02*
X138950000Y-116425000D01*
X138075000Y-105150000D02*
X138075000Y-104150000D01*
X139425000Y-104150000D02*
X139425000Y-105150000D01*
X134725000Y-133950000D02*
X134725000Y-132950000D01*
X136075000Y-132950000D02*
X136075000Y-133950000D01*
X139200000Y-115875000D02*
X138200000Y-115875000D01*
X138200000Y-114525000D02*
X139200000Y-114525000D01*
X138950000Y-135225000D02*
X137950000Y-135225000D01*
X137950000Y-133875000D02*
X138950000Y-133875000D01*
X130300000Y-135675000D02*
X129300000Y-135675000D01*
X129300000Y-134325000D02*
X130300000Y-134325000D01*
X137725000Y-140800000D02*
X137725000Y-139800000D01*
X139075000Y-139800000D02*
X139075000Y-140800000D01*
X132300000Y-112025000D02*
X133300000Y-112025000D01*
X133300000Y-113375000D02*
X132300000Y-113375000D01*
X130350000Y-113375000D02*
X129350000Y-113375000D01*
X129350000Y-112025000D02*
X130350000Y-112025000D01*
X137250000Y-110900000D02*
X137250000Y-110000000D01*
X131050000Y-110900000D02*
X131050000Y-110000000D01*
X131050000Y-108000000D02*
X131050000Y-107100000D01*
X137250000Y-107100000D02*
X137250000Y-108000000D01*
X131050000Y-110900000D02*
X137250000Y-110900000D01*
X131050000Y-107100000D02*
X137250000Y-107100000D01*
D14*
X134774000Y-135711000D02*
X134774000Y-137489000D01*
X134774000Y-137489000D02*
X131726000Y-137489000D01*
X131726000Y-137489000D02*
X131726000Y-135711000D01*
X131726000Y-135711000D02*
X134774000Y-135711000D01*
D12*
X135900000Y-140225000D02*
X134900000Y-140225000D01*
X134900000Y-138875000D02*
X135900000Y-138875000D01*
X132200000Y-138875000D02*
X133200000Y-138875000D01*
X133200000Y-140225000D02*
X132200000Y-140225000D01*
X132836396Y-115216548D02*
X134533452Y-116913604D01*
X129866548Y-118186396D02*
X131563604Y-119883452D01*
X132836396Y-115216548D02*
X129866548Y-118186396D01*
X134533452Y-116913604D02*
X131563604Y-119883452D01*
X134450000Y-119343146D02*
G75*
G03X134450000Y-119343146I-300000J0D01*
G01*
X134150000Y-119873476D02*
X133778769Y-120244707D01*
X139276524Y-125000000D02*
X138905293Y-125371231D01*
X134150000Y-130126524D02*
X134521231Y-129755293D01*
X129023476Y-125000000D02*
X129394707Y-124628769D01*
X134150000Y-119873476D02*
X134521231Y-120244707D01*
X129023476Y-125000000D02*
X129394707Y-125371231D01*
X134150000Y-130126524D02*
X133778769Y-129755293D01*
X139276524Y-125000000D02*
X138905293Y-124628769D01*
X133778769Y-120244707D02*
X132806497Y-119272435D01*
X137830278Y-103050000D02*
G75*
G03X137830278Y-103050000I-180278J0D01*
G01*
X137350000Y-103350000D02*
X137350000Y-106750000D01*
X130950000Y-103350000D02*
X137350000Y-103350000D01*
X130950000Y-106750000D02*
X130950000Y-103350000D01*
X137350000Y-106750000D02*
X130950000Y-106750000D01*
D10*
X139550000Y-145314286D02*
X139521429Y-145342857D01*
X139435715Y-145371429D01*
X139378572Y-145371429D01*
X139292857Y-145342857D01*
X139235715Y-145285714D01*
X139207143Y-145228571D01*
X139178572Y-145114286D01*
X139178572Y-145028571D01*
X139207143Y-144914286D01*
X139235715Y-144857143D01*
X139292857Y-144800000D01*
X139378572Y-144771429D01*
X139435715Y-144771429D01*
X139521429Y-144800000D01*
X139550000Y-144828571D01*
X140121429Y-145371429D02*
X139778572Y-145371429D01*
X139950000Y-145371429D02*
X139950000Y-144771429D01*
X139892857Y-144857143D01*
X139835715Y-144914286D01*
X139778572Y-144942857D01*
X129000000Y-121714286D02*
X128971429Y-121742857D01*
X128885715Y-121771429D01*
X128828572Y-121771429D01*
X128742857Y-121742857D01*
X128685715Y-121685714D01*
X128657143Y-121628571D01*
X128628572Y-121514286D01*
X128628572Y-121428571D01*
X128657143Y-121314286D01*
X128685715Y-121257143D01*
X128742857Y-121200000D01*
X128828572Y-121171429D01*
X128885715Y-121171429D01*
X128971429Y-121200000D01*
X129000000Y-121228571D01*
X129228572Y-121228571D02*
X129257143Y-121200000D01*
X129314286Y-121171429D01*
X129457143Y-121171429D01*
X129514286Y-121200000D01*
X129542857Y-121228571D01*
X129571429Y-121285714D01*
X129571429Y-121342857D01*
X129542857Y-121428571D01*
X129200000Y-121771429D01*
X129571429Y-121771429D01*
X129750000Y-131914286D02*
X129721429Y-131942857D01*
X129635715Y-131971429D01*
X129578572Y-131971429D01*
X129492857Y-131942857D01*
X129435715Y-131885714D01*
X129407143Y-131828571D01*
X129378572Y-131714286D01*
X129378572Y-131628571D01*
X129407143Y-131514286D01*
X129435715Y-131457143D01*
X129492857Y-131400000D01*
X129578572Y-131371429D01*
X129635715Y-131371429D01*
X129721429Y-131400000D01*
X129750000Y-131428571D01*
X129950000Y-131371429D02*
X130321429Y-131371429D01*
X130121429Y-131600000D01*
X130207143Y-131600000D01*
X130264286Y-131628571D01*
X130292857Y-131657143D01*
X130321429Y-131714286D01*
X130321429Y-131857143D01*
X130292857Y-131914286D01*
X130264286Y-131942857D01*
X130207143Y-131971429D01*
X130035715Y-131971429D01*
X129978572Y-131942857D01*
X129950000Y-131914286D01*
X133950000Y-115764286D02*
X133921429Y-115792857D01*
X133835715Y-115821429D01*
X133778572Y-115821429D01*
X133692857Y-115792857D01*
X133635715Y-115735714D01*
X133607143Y-115678571D01*
X133578572Y-115564286D01*
X133578572Y-115478571D01*
X133607143Y-115364286D01*
X133635715Y-115307143D01*
X133692857Y-115250000D01*
X133778572Y-115221429D01*
X133835715Y-115221429D01*
X133921429Y-115250000D01*
X133950000Y-115278571D01*
X134464286Y-115421429D02*
X134464286Y-115821429D01*
X134321429Y-115192857D02*
X134178572Y-115621429D01*
X134550000Y-115621429D01*
X130750000Y-115764286D02*
X130721429Y-115792857D01*
X130635715Y-115821429D01*
X130578572Y-115821429D01*
X130492857Y-115792857D01*
X130435715Y-115735714D01*
X130407143Y-115678571D01*
X130378572Y-115564286D01*
X130378572Y-115478571D01*
X130407143Y-115364286D01*
X130435715Y-115307143D01*
X130492857Y-115250000D01*
X130578572Y-115221429D01*
X130635715Y-115221429D01*
X130721429Y-115250000D01*
X130750000Y-115278571D01*
X131292857Y-115221429D02*
X131007143Y-115221429D01*
X130978572Y-115507143D01*
X131007143Y-115478571D01*
X131064286Y-115450000D01*
X131207143Y-115450000D01*
X131264286Y-115478571D01*
X131292857Y-115507143D01*
X131321429Y-115564286D01*
X131321429Y-115707143D01*
X131292857Y-115764286D01*
X131264286Y-115792857D01*
X131207143Y-115821429D01*
X131064286Y-115821429D01*
X131007143Y-115792857D01*
X130978572Y-115764286D01*
X135550000Y-135514286D02*
X135521429Y-135542857D01*
X135435715Y-135571429D01*
X135378572Y-135571429D01*
X135292857Y-135542857D01*
X135235715Y-135485714D01*
X135207143Y-135428571D01*
X135178572Y-135314286D01*
X135178572Y-135228571D01*
X135207143Y-135114286D01*
X135235715Y-135057143D01*
X135292857Y-135000000D01*
X135378572Y-134971429D01*
X135435715Y-134971429D01*
X135521429Y-135000000D01*
X135550000Y-135028571D01*
X136064286Y-134971429D02*
X135950000Y-134971429D01*
X135892857Y-135000000D01*
X135864286Y-135028571D01*
X135807143Y-135114286D01*
X135778572Y-135228571D01*
X135778572Y-135457143D01*
X135807143Y-135514286D01*
X135835715Y-135542857D01*
X135892857Y-135571429D01*
X136007143Y-135571429D01*
X136064286Y-135542857D01*
X136092857Y-135514286D01*
X136121429Y-135457143D01*
X136121429Y-135314286D01*
X136092857Y-135257143D01*
X136064286Y-135228571D01*
X136007143Y-135200000D01*
X135892857Y-135200000D01*
X135835715Y-135228571D01*
X135807143Y-135257143D01*
X135778572Y-135314286D01*
X132950000Y-132564286D02*
X132921429Y-132592857D01*
X132835715Y-132621429D01*
X132778572Y-132621429D01*
X132692857Y-132592857D01*
X132635715Y-132535714D01*
X132607143Y-132478571D01*
X132578572Y-132364286D01*
X132578572Y-132278571D01*
X132607143Y-132164286D01*
X132635715Y-132107143D01*
X132692857Y-132050000D01*
X132778572Y-132021429D01*
X132835715Y-132021429D01*
X132921429Y-132050000D01*
X132950000Y-132078571D01*
X133150000Y-132021429D02*
X133550000Y-132021429D01*
X133292857Y-132621429D01*
X134850000Y-118714286D02*
X134821429Y-118742857D01*
X134735715Y-118771429D01*
X134678572Y-118771429D01*
X134592857Y-118742857D01*
X134535715Y-118685714D01*
X134507143Y-118628571D01*
X134478572Y-118514286D01*
X134478572Y-118428571D01*
X134507143Y-118314286D01*
X134535715Y-118257143D01*
X134592857Y-118200000D01*
X134678572Y-118171429D01*
X134735715Y-118171429D01*
X134821429Y-118200000D01*
X134850000Y-118228571D01*
X135192857Y-118428571D02*
X135135715Y-118400000D01*
X135107143Y-118371429D01*
X135078572Y-118314286D01*
X135078572Y-118285714D01*
X135107143Y-118228571D01*
X135135715Y-118200000D01*
X135192857Y-118171429D01*
X135307143Y-118171429D01*
X135364286Y-118200000D01*
X135392857Y-118228571D01*
X135421429Y-118285714D01*
X135421429Y-118314286D01*
X135392857Y-118371429D01*
X135364286Y-118400000D01*
X135307143Y-118428571D01*
X135192857Y-118428571D01*
X135135715Y-118457143D01*
X135107143Y-118485714D01*
X135078572Y-118542857D01*
X135078572Y-118657143D01*
X135107143Y-118714286D01*
X135135715Y-118742857D01*
X135192857Y-118771429D01*
X135307143Y-118771429D01*
X135364286Y-118742857D01*
X135392857Y-118714286D01*
X135421429Y-118657143D01*
X135421429Y-118542857D01*
X135392857Y-118485714D01*
X135364286Y-118457143D01*
X135307143Y-118428571D01*
X138450000Y-120864286D02*
X138421429Y-120892857D01*
X138335715Y-120921429D01*
X138278572Y-120921429D01*
X138192857Y-120892857D01*
X138135715Y-120835714D01*
X138107143Y-120778571D01*
X138078572Y-120664286D01*
X138078572Y-120578571D01*
X138107143Y-120464286D01*
X138135715Y-120407143D01*
X138192857Y-120350000D01*
X138278572Y-120321429D01*
X138335715Y-120321429D01*
X138421429Y-120350000D01*
X138450000Y-120378571D01*
X138735715Y-120921429D02*
X138850000Y-120921429D01*
X138907143Y-120892857D01*
X138935715Y-120864286D01*
X138992857Y-120778571D01*
X139021429Y-120664286D01*
X139021429Y-120435714D01*
X138992857Y-120378571D01*
X138964286Y-120350000D01*
X138907143Y-120321429D01*
X138792857Y-120321429D01*
X138735715Y-120350000D01*
X138707143Y-120378571D01*
X138678572Y-120435714D01*
X138678572Y-120578571D01*
X138707143Y-120635714D01*
X138735715Y-120664286D01*
X138792857Y-120692857D01*
X138907143Y-120692857D01*
X138964286Y-120664286D01*
X138992857Y-120635714D01*
X139021429Y-120578571D01*
X129464285Y-129614286D02*
X129435714Y-129642857D01*
X129350000Y-129671429D01*
X129292857Y-129671429D01*
X129207142Y-129642857D01*
X129150000Y-129585714D01*
X129121428Y-129528571D01*
X129092857Y-129414286D01*
X129092857Y-129328571D01*
X129121428Y-129214286D01*
X129150000Y-129157143D01*
X129207142Y-129100000D01*
X129292857Y-129071429D01*
X129350000Y-129071429D01*
X129435714Y-129100000D01*
X129464285Y-129128571D01*
X130035714Y-129671429D02*
X129692857Y-129671429D01*
X129864285Y-129671429D02*
X129864285Y-129071429D01*
X129807142Y-129157143D01*
X129750000Y-129214286D01*
X129692857Y-129242857D01*
X130407143Y-129071429D02*
X130464286Y-129071429D01*
X130521429Y-129100000D01*
X130550000Y-129128571D01*
X130578571Y-129185714D01*
X130607143Y-129300000D01*
X130607143Y-129442857D01*
X130578571Y-129557143D01*
X130550000Y-129614286D01*
X130521429Y-129642857D01*
X130464286Y-129671429D01*
X130407143Y-129671429D01*
X130350000Y-129642857D01*
X130321429Y-129614286D01*
X130292857Y-129557143D01*
X130264286Y-129442857D01*
X130264286Y-129300000D01*
X130292857Y-129185714D01*
X130321429Y-129128571D01*
X130350000Y-129100000D01*
X130407143Y-129071429D01*
X137364285Y-130114286D02*
X137335714Y-130142857D01*
X137250000Y-130171429D01*
X137192857Y-130171429D01*
X137107142Y-130142857D01*
X137050000Y-130085714D01*
X137021428Y-130028571D01*
X136992857Y-129914286D01*
X136992857Y-129828571D01*
X137021428Y-129714286D01*
X137050000Y-129657143D01*
X137107142Y-129600000D01*
X137192857Y-129571429D01*
X137250000Y-129571429D01*
X137335714Y-129600000D01*
X137364285Y-129628571D01*
X137935714Y-130171429D02*
X137592857Y-130171429D01*
X137764285Y-130171429D02*
X137764285Y-129571429D01*
X137707142Y-129657143D01*
X137650000Y-129714286D01*
X137592857Y-129742857D01*
X138507143Y-130171429D02*
X138164286Y-130171429D01*
X138335714Y-130171429D02*
X138335714Y-129571429D01*
X138278571Y-129657143D01*
X138221429Y-129714286D01*
X138164286Y-129742857D01*
X128907143Y-106621429D02*
X128907143Y-106021429D01*
X129050000Y-106021429D01*
X129135715Y-106050000D01*
X129192857Y-106107143D01*
X129221429Y-106164286D01*
X129250000Y-106278571D01*
X129250000Y-106364286D01*
X129221429Y-106478571D01*
X129192857Y-106535714D01*
X129135715Y-106592857D01*
X129050000Y-106621429D01*
X128907143Y-106621429D01*
X129821429Y-106621429D02*
X129478572Y-106621429D01*
X129650000Y-106621429D02*
X129650000Y-106021429D01*
X129592857Y-106107143D01*
X129535715Y-106164286D01*
X129478572Y-106192857D01*
X138507143Y-106671429D02*
X138507143Y-106071429D01*
X138650000Y-106071429D01*
X138735715Y-106100000D01*
X138792857Y-106157143D01*
X138821429Y-106214286D01*
X138850000Y-106328571D01*
X138850000Y-106414286D01*
X138821429Y-106528571D01*
X138792857Y-106585714D01*
X138735715Y-106642857D01*
X138650000Y-106671429D01*
X138507143Y-106671429D01*
X139078572Y-106128571D02*
X139107143Y-106100000D01*
X139164286Y-106071429D01*
X139307143Y-106071429D01*
X139364286Y-106100000D01*
X139392857Y-106128571D01*
X139421429Y-106185714D01*
X139421429Y-106242857D01*
X139392857Y-106328571D01*
X139050000Y-106671429D01*
X139421429Y-106671429D01*
X137007143Y-111671429D02*
X137007143Y-111071429D01*
X137150000Y-111071429D01*
X137235715Y-111100000D01*
X137292857Y-111157143D01*
X137321429Y-111214286D01*
X137350000Y-111328571D01*
X137350000Y-111414286D01*
X137321429Y-111528571D01*
X137292857Y-111585714D01*
X137235715Y-111642857D01*
X137150000Y-111671429D01*
X137007143Y-111671429D01*
X137550000Y-111071429D02*
X137921429Y-111071429D01*
X137721429Y-111300000D01*
X137807143Y-111300000D01*
X137864286Y-111328571D01*
X137892857Y-111357143D01*
X137921429Y-111414286D01*
X137921429Y-111557143D01*
X137892857Y-111614286D01*
X137864286Y-111642857D01*
X137807143Y-111671429D01*
X137635715Y-111671429D01*
X137578572Y-111642857D01*
X137550000Y-111614286D01*
X139457143Y-139621429D02*
X139457143Y-139021429D01*
X139600000Y-139021429D01*
X139685715Y-139050000D01*
X139742857Y-139107143D01*
X139771429Y-139164286D01*
X139800000Y-139278571D01*
X139800000Y-139364286D01*
X139771429Y-139478571D01*
X139742857Y-139535714D01*
X139685715Y-139592857D01*
X139600000Y-139621429D01*
X139457143Y-139621429D01*
X140314286Y-139221429D02*
X140314286Y-139621429D01*
X140171429Y-138992857D02*
X140028572Y-139421429D01*
X140400000Y-139421429D01*
X129950000Y-142157143D02*
X129750000Y-142157143D01*
X129750000Y-142471429D02*
X129750000Y-141871429D01*
X130035714Y-141871429D01*
X130578572Y-142471429D02*
X130235715Y-142471429D01*
X130407143Y-142471429D02*
X130407143Y-141871429D01*
X130350000Y-141957143D01*
X130292858Y-142014286D01*
X130235715Y-142042857D01*
X131750000Y-144571429D02*
X131750000Y-145000000D01*
X131721428Y-145085714D01*
X131664285Y-145142857D01*
X131578571Y-145171429D01*
X131521428Y-145171429D01*
X132350000Y-145171429D02*
X132007143Y-145171429D01*
X132178571Y-145171429D02*
X132178571Y-144571429D01*
X132121428Y-144657143D01*
X132064286Y-144714286D01*
X132007143Y-144742857D01*
X130450000Y-116821429D02*
X130164286Y-116821429D01*
X130164286Y-116221429D01*
X130964286Y-116821429D02*
X130621429Y-116821429D01*
X130792857Y-116821429D02*
X130792857Y-116221429D01*
X130735714Y-116307143D01*
X130678572Y-116364286D01*
X130621429Y-116392857D01*
X134931857Y-114712571D02*
X134874714Y-114684000D01*
X134817571Y-114626857D01*
X134731857Y-114541143D01*
X134674714Y-114512571D01*
X134617571Y-114512571D01*
X134646143Y-114655429D02*
X134589000Y-114626857D01*
X134531857Y-114569714D01*
X134503286Y-114455429D01*
X134503286Y-114255429D01*
X134531857Y-114141143D01*
X134589000Y-114084000D01*
X134646143Y-114055429D01*
X134760429Y-114055429D01*
X134817571Y-114084000D01*
X134874714Y-114141143D01*
X134903286Y-114255429D01*
X134903286Y-114455429D01*
X134874714Y-114569714D01*
X134817571Y-114626857D01*
X134760429Y-114655429D01*
X134646143Y-114655429D01*
X135474714Y-114655429D02*
X135131857Y-114655429D01*
X135303285Y-114655429D02*
X135303285Y-114055429D01*
X135246142Y-114141143D01*
X135189000Y-114198286D01*
X135131857Y-114226857D01*
X139192857Y-138262571D02*
X139135714Y-138234000D01*
X139078571Y-138176857D01*
X138992857Y-138091143D01*
X138935714Y-138062571D01*
X138878571Y-138062571D01*
X138907143Y-138205429D02*
X138850000Y-138176857D01*
X138792857Y-138119714D01*
X138764286Y-138005429D01*
X138764286Y-137805429D01*
X138792857Y-137691143D01*
X138850000Y-137634000D01*
X138907143Y-137605429D01*
X139021429Y-137605429D01*
X139078571Y-137634000D01*
X139135714Y-137691143D01*
X139164286Y-137805429D01*
X139164286Y-138005429D01*
X139135714Y-138119714D01*
X139078571Y-138176857D01*
X139021429Y-138205429D01*
X138907143Y-138205429D01*
X139392857Y-137662571D02*
X139421428Y-137634000D01*
X139478571Y-137605429D01*
X139621428Y-137605429D01*
X139678571Y-137634000D01*
X139707142Y-137662571D01*
X139735714Y-137719714D01*
X139735714Y-137776857D01*
X139707142Y-137862571D01*
X139364285Y-138205429D01*
X139735714Y-138205429D01*
X128731857Y-138862571D02*
X128674714Y-138834000D01*
X128617571Y-138776857D01*
X128531857Y-138691143D01*
X128474714Y-138662571D01*
X128417571Y-138662571D01*
X128446143Y-138805429D02*
X128389000Y-138776857D01*
X128331857Y-138719714D01*
X128303286Y-138605429D01*
X128303286Y-138405429D01*
X128331857Y-138291143D01*
X128389000Y-138234000D01*
X128446143Y-138205429D01*
X128560429Y-138205429D01*
X128617571Y-138234000D01*
X128674714Y-138291143D01*
X128703286Y-138405429D01*
X128703286Y-138605429D01*
X128674714Y-138719714D01*
X128617571Y-138776857D01*
X128560429Y-138805429D01*
X128446143Y-138805429D01*
X128903285Y-138205429D02*
X129274714Y-138205429D01*
X129074714Y-138434000D01*
X129160428Y-138434000D01*
X129217571Y-138462571D01*
X129246142Y-138491143D01*
X129274714Y-138548286D01*
X129274714Y-138691143D01*
X129246142Y-138748286D01*
X129217571Y-138776857D01*
X129160428Y-138805429D01*
X128989000Y-138805429D01*
X128931857Y-138776857D01*
X128903285Y-138748286D01*
X136592857Y-131428571D02*
X136535714Y-131400000D01*
X136478571Y-131342857D01*
X136392857Y-131257143D01*
X136335714Y-131228571D01*
X136278571Y-131228571D01*
X136307143Y-131371429D02*
X136250000Y-131342857D01*
X136192857Y-131285714D01*
X136164286Y-131171429D01*
X136164286Y-130971429D01*
X136192857Y-130857143D01*
X136250000Y-130800000D01*
X136307143Y-130771429D01*
X136421429Y-130771429D01*
X136478571Y-130800000D01*
X136535714Y-130857143D01*
X136564286Y-130971429D01*
X136564286Y-131171429D01*
X136535714Y-131285714D01*
X136478571Y-131342857D01*
X136421429Y-131371429D01*
X136307143Y-131371429D01*
X137078571Y-130971429D02*
X137078571Y-131371429D01*
X136935714Y-130742857D02*
X136792857Y-131171429D01*
X137164285Y-131171429D01*
X129500000Y-103271429D02*
X129300000Y-102985714D01*
X129157143Y-103271429D02*
X129157143Y-102671429D01*
X129385715Y-102671429D01*
X129442857Y-102700000D01*
X129471429Y-102728571D01*
X129500000Y-102785714D01*
X129500000Y-102871429D01*
X129471429Y-102928571D01*
X129442857Y-102957143D01*
X129385715Y-102985714D01*
X129157143Y-102985714D01*
X130071429Y-103271429D02*
X129728572Y-103271429D01*
X129900000Y-103271429D02*
X129900000Y-102671429D01*
X129842857Y-102757143D01*
X129785715Y-102814286D01*
X129728572Y-102842857D01*
X141250000Y-145371429D02*
X141050000Y-145085714D01*
X140907143Y-145371429D02*
X140907143Y-144771429D01*
X141135715Y-144771429D01*
X141192857Y-144800000D01*
X141221429Y-144828571D01*
X141250000Y-144885714D01*
X141250000Y-144971429D01*
X141221429Y-145028571D01*
X141192857Y-145057143D01*
X141135715Y-145085714D01*
X140907143Y-145085714D01*
X141478572Y-144828571D02*
X141507143Y-144800000D01*
X141564286Y-144771429D01*
X141707143Y-144771429D01*
X141764286Y-144800000D01*
X141792857Y-144828571D01*
X141821429Y-144885714D01*
X141821429Y-144942857D01*
X141792857Y-145028571D01*
X141450000Y-145371429D01*
X141821429Y-145371429D01*
X137700000Y-118621429D02*
X137500000Y-118335714D01*
X137357143Y-118621429D02*
X137357143Y-118021429D01*
X137585715Y-118021429D01*
X137642857Y-118050000D01*
X137671429Y-118078571D01*
X137700000Y-118135714D01*
X137700000Y-118221429D01*
X137671429Y-118278571D01*
X137642857Y-118307143D01*
X137585715Y-118335714D01*
X137357143Y-118335714D01*
X137900000Y-118021429D02*
X138271429Y-118021429D01*
X138071429Y-118250000D01*
X138157143Y-118250000D01*
X138214286Y-118278571D01*
X138242857Y-118307143D01*
X138271429Y-118364286D01*
X138271429Y-118507143D01*
X138242857Y-118564286D01*
X138214286Y-118592857D01*
X138157143Y-118621429D01*
X137985715Y-118621429D01*
X137928572Y-118592857D01*
X137900000Y-118564286D01*
X138650000Y-103271429D02*
X138450000Y-102985714D01*
X138307143Y-103271429D02*
X138307143Y-102671429D01*
X138535715Y-102671429D01*
X138592857Y-102700000D01*
X138621429Y-102728571D01*
X138650000Y-102785714D01*
X138650000Y-102871429D01*
X138621429Y-102928571D01*
X138592857Y-102957143D01*
X138535715Y-102985714D01*
X138307143Y-102985714D01*
X139164286Y-102871429D02*
X139164286Y-103271429D01*
X139021429Y-102642857D02*
X138878572Y-103071429D01*
X139250000Y-103071429D01*
X135300000Y-132121429D02*
X135100000Y-131835714D01*
X134957143Y-132121429D02*
X134957143Y-131521429D01*
X135185715Y-131521429D01*
X135242857Y-131550000D01*
X135271429Y-131578571D01*
X135300000Y-131635714D01*
X135300000Y-131721429D01*
X135271429Y-131778571D01*
X135242857Y-131807143D01*
X135185715Y-131835714D01*
X134957143Y-131835714D01*
X135842857Y-131521429D02*
X135557143Y-131521429D01*
X135528572Y-131807143D01*
X135557143Y-131778571D01*
X135614286Y-131750000D01*
X135757143Y-131750000D01*
X135814286Y-131778571D01*
X135842857Y-131807143D01*
X135871429Y-131864286D01*
X135871429Y-132007143D01*
X135842857Y-132064286D01*
X135814286Y-132092857D01*
X135757143Y-132121429D01*
X135614286Y-132121429D01*
X135557143Y-132092857D01*
X135528572Y-132064286D01*
X136800000Y-115771429D02*
X136600000Y-115485714D01*
X136457143Y-115771429D02*
X136457143Y-115171429D01*
X136685715Y-115171429D01*
X136742857Y-115200000D01*
X136771429Y-115228571D01*
X136800000Y-115285714D01*
X136800000Y-115371429D01*
X136771429Y-115428571D01*
X136742857Y-115457143D01*
X136685715Y-115485714D01*
X136457143Y-115485714D01*
X137314286Y-115171429D02*
X137200000Y-115171429D01*
X137142857Y-115200000D01*
X137114286Y-115228571D01*
X137057143Y-115314286D01*
X137028572Y-115428571D01*
X137028572Y-115657143D01*
X137057143Y-115714286D01*
X137085715Y-115742857D01*
X137142857Y-115771429D01*
X137257143Y-115771429D01*
X137314286Y-115742857D01*
X137342857Y-115714286D01*
X137371429Y-115657143D01*
X137371429Y-115514286D01*
X137342857Y-115457143D01*
X137314286Y-115428571D01*
X137257143Y-115400000D01*
X137142857Y-115400000D01*
X137085715Y-115428571D01*
X137057143Y-115457143D01*
X137028572Y-115514286D01*
X136650000Y-134821429D02*
X136450000Y-134535714D01*
X136307143Y-134821429D02*
X136307143Y-134221429D01*
X136535715Y-134221429D01*
X136592857Y-134250000D01*
X136621429Y-134278571D01*
X136650000Y-134335714D01*
X136650000Y-134421429D01*
X136621429Y-134478571D01*
X136592857Y-134507143D01*
X136535715Y-134535714D01*
X136307143Y-134535714D01*
X136850000Y-134221429D02*
X137250000Y-134221429D01*
X136992857Y-134821429D01*
X129700000Y-134171429D02*
X129500000Y-133885714D01*
X129357143Y-134171429D02*
X129357143Y-133571429D01*
X129585715Y-133571429D01*
X129642857Y-133600000D01*
X129671429Y-133628571D01*
X129700000Y-133685714D01*
X129700000Y-133771429D01*
X129671429Y-133828571D01*
X129642857Y-133857143D01*
X129585715Y-133885714D01*
X129357143Y-133885714D01*
X130042857Y-133828571D02*
X129985715Y-133800000D01*
X129957143Y-133771429D01*
X129928572Y-133714286D01*
X129928572Y-133685714D01*
X129957143Y-133628571D01*
X129985715Y-133600000D01*
X130042857Y-133571429D01*
X130157143Y-133571429D01*
X130214286Y-133600000D01*
X130242857Y-133628571D01*
X130271429Y-133685714D01*
X130271429Y-133714286D01*
X130242857Y-133771429D01*
X130214286Y-133800000D01*
X130157143Y-133828571D01*
X130042857Y-133828571D01*
X129985715Y-133857143D01*
X129957143Y-133885714D01*
X129928572Y-133942857D01*
X129928572Y-134057143D01*
X129957143Y-134114286D01*
X129985715Y-134142857D01*
X130042857Y-134171429D01*
X130157143Y-134171429D01*
X130214286Y-134142857D01*
X130242857Y-134114286D01*
X130271429Y-134057143D01*
X130271429Y-133942857D01*
X130242857Y-133885714D01*
X130214286Y-133857143D01*
X130157143Y-133828571D01*
X138250000Y-142321429D02*
X138050000Y-142035714D01*
X137907143Y-142321429D02*
X137907143Y-141721429D01*
X138135715Y-141721429D01*
X138192857Y-141750000D01*
X138221429Y-141778571D01*
X138250000Y-141835714D01*
X138250000Y-141921429D01*
X138221429Y-141978571D01*
X138192857Y-142007143D01*
X138135715Y-142035714D01*
X137907143Y-142035714D01*
X138535715Y-142321429D02*
X138650000Y-142321429D01*
X138707143Y-142292857D01*
X138735715Y-142264286D01*
X138792857Y-142178571D01*
X138821429Y-142064286D01*
X138821429Y-141835714D01*
X138792857Y-141778571D01*
X138764286Y-141750000D01*
X138707143Y-141721429D01*
X138592857Y-141721429D01*
X138535715Y-141750000D01*
X138507143Y-141778571D01*
X138478572Y-141835714D01*
X138478572Y-141978571D01*
X138507143Y-142035714D01*
X138535715Y-142064286D01*
X138592857Y-142092857D01*
X138707143Y-142092857D01*
X138764286Y-142064286D01*
X138792857Y-142035714D01*
X138821429Y-141978571D01*
X132414285Y-111771429D02*
X132214285Y-111485714D01*
X132071428Y-111771429D02*
X132071428Y-111171429D01*
X132300000Y-111171429D01*
X132357142Y-111200000D01*
X132385714Y-111228571D01*
X132414285Y-111285714D01*
X132414285Y-111371429D01*
X132385714Y-111428571D01*
X132357142Y-111457143D01*
X132300000Y-111485714D01*
X132071428Y-111485714D01*
X132985714Y-111771429D02*
X132642857Y-111771429D01*
X132814285Y-111771429D02*
X132814285Y-111171429D01*
X132757142Y-111257143D01*
X132700000Y-111314286D01*
X132642857Y-111342857D01*
X133357143Y-111171429D02*
X133414286Y-111171429D01*
X133471429Y-111200000D01*
X133500000Y-111228571D01*
X133528571Y-111285714D01*
X133557143Y-111400000D01*
X133557143Y-111542857D01*
X133528571Y-111657143D01*
X133500000Y-111714286D01*
X133471429Y-111742857D01*
X133414286Y-111771429D01*
X133357143Y-111771429D01*
X133300000Y-111742857D01*
X133271429Y-111714286D01*
X133242857Y-111657143D01*
X133214286Y-111542857D01*
X133214286Y-111400000D01*
X133242857Y-111285714D01*
X133271429Y-111228571D01*
X133300000Y-111200000D01*
X133357143Y-111171429D01*
X129464285Y-111771429D02*
X129264285Y-111485714D01*
X129121428Y-111771429D02*
X129121428Y-111171429D01*
X129350000Y-111171429D01*
X129407142Y-111200000D01*
X129435714Y-111228571D01*
X129464285Y-111285714D01*
X129464285Y-111371429D01*
X129435714Y-111428571D01*
X129407142Y-111457143D01*
X129350000Y-111485714D01*
X129121428Y-111485714D01*
X130035714Y-111771429D02*
X129692857Y-111771429D01*
X129864285Y-111771429D02*
X129864285Y-111171429D01*
X129807142Y-111257143D01*
X129750000Y-111314286D01*
X129692857Y-111342857D01*
X130607143Y-111771429D02*
X130264286Y-111771429D01*
X130435714Y-111771429D02*
X130435714Y-111171429D01*
X130378571Y-111257143D01*
X130321429Y-111314286D01*
X130264286Y-111342857D01*
X133942857Y-111642857D02*
X134028571Y-111671429D01*
X134171428Y-111671429D01*
X134228571Y-111642857D01*
X134257142Y-111614286D01*
X134285714Y-111557143D01*
X134285714Y-111500000D01*
X134257142Y-111442857D01*
X134228571Y-111414286D01*
X134171428Y-111385714D01*
X134057142Y-111357143D01*
X134000000Y-111328571D01*
X133971428Y-111300000D01*
X133942857Y-111242857D01*
X133942857Y-111185714D01*
X133971428Y-111128571D01*
X134000000Y-111100000D01*
X134057142Y-111071429D01*
X134200000Y-111071429D01*
X134285714Y-111100000D01*
X134857143Y-111671429D02*
X134514286Y-111671429D01*
X134685714Y-111671429D02*
X134685714Y-111071429D01*
X134628571Y-111157143D01*
X134571429Y-111214286D01*
X134514286Y-111242857D01*
X132792857Y-134921429D02*
X132792857Y-135407143D01*
X132821429Y-135464286D01*
X132850000Y-135492857D01*
X132907143Y-135521429D01*
X133021429Y-135521429D01*
X133078571Y-135492857D01*
X133107143Y-135464286D01*
X133135714Y-135407143D01*
X133135714Y-134921429D01*
X133735714Y-135521429D02*
X133392857Y-135521429D01*
X133564285Y-135521429D02*
X133564285Y-134921429D01*
X133507142Y-135007143D01*
X133450000Y-135064286D01*
X133392857Y-135092857D01*
X136721429Y-140285714D02*
X137321429Y-140085714D01*
X136721429Y-139885714D01*
X137321429Y-139342857D02*
X137035714Y-139542857D01*
X137321429Y-139685714D02*
X136721429Y-139685714D01*
X136721429Y-139457142D01*
X136750000Y-139400000D01*
X136778571Y-139371428D01*
X136835714Y-139342857D01*
X136921429Y-139342857D01*
X136978571Y-139371428D01*
X137007143Y-139400000D01*
X137035714Y-139457142D01*
X137035714Y-139685714D01*
X137321429Y-138771428D02*
X137321429Y-139114285D01*
X137321429Y-138942857D02*
X136721429Y-138942857D01*
X136807143Y-139000000D01*
X136864286Y-139057142D01*
X136892857Y-139114285D01*
X130821429Y-140335714D02*
X131421429Y-140135714D01*
X130821429Y-139935714D01*
X131421429Y-139392857D02*
X131135714Y-139592857D01*
X131421429Y-139735714D02*
X130821429Y-139735714D01*
X130821429Y-139507142D01*
X130850000Y-139450000D01*
X130878571Y-139421428D01*
X130935714Y-139392857D01*
X131021429Y-139392857D01*
X131078571Y-139421428D01*
X131107143Y-139450000D01*
X131135714Y-139507142D01*
X131135714Y-139735714D01*
X130878571Y-139164285D02*
X130850000Y-139135714D01*
X130821429Y-139078571D01*
X130821429Y-138935714D01*
X130850000Y-138878571D01*
X130878571Y-138850000D01*
X130935714Y-138821428D01*
X130992857Y-138821428D01*
X131078571Y-138850000D01*
X131421429Y-139192857D01*
X131421429Y-138821428D01*
X130388882Y-119074213D02*
X130247461Y-119781320D01*
X130671725Y-119357056D02*
X129964618Y-119498477D01*
X130631320Y-120165178D02*
X130388883Y-119922742D01*
X130510101Y-120043960D02*
X130934365Y-119619696D01*
X130833350Y-119639898D01*
X130752538Y-119639899D01*
X130691929Y-119619696D01*
X133759086Y-130144416D02*
X133415634Y-130487868D01*
X133395431Y-130548478D01*
X133395431Y-130588883D01*
X133415634Y-130649493D01*
X133496447Y-130730305D01*
X133557056Y-130750507D01*
X133597462Y-130750508D01*
X133658071Y-130730304D01*
X134001522Y-130386853D01*
X134142944Y-130609086D02*
X134183350Y-130609086D01*
X134243959Y-130629289D01*
X134344974Y-130730304D01*
X134365177Y-130790913D01*
X134365177Y-130831319D01*
X134344975Y-130891929D01*
X134304569Y-130932335D01*
X134223756Y-130972740D01*
X133738882Y-130972741D01*
X134001522Y-131235381D01*
X135200000Y-102571429D02*
X135200000Y-103000000D01*
X135171428Y-103085714D01*
X135114285Y-103142857D01*
X135028571Y-103171429D01*
X134971428Y-103171429D01*
X135457143Y-102628571D02*
X135485714Y-102600000D01*
X135542857Y-102571429D01*
X135685714Y-102571429D01*
X135742857Y-102600000D01*
X135771428Y-102628571D01*
X135800000Y-102685714D01*
X135800000Y-102742857D01*
X135771428Y-102828571D01*
X135428571Y-103171429D01*
X135800000Y-103171429D01*
M02*
