G04 #@! TF.GenerationSoftware,KiCad,Pcbnew,5.1.6-c6e7f7d~86~ubuntu18.04.1*
G04 #@! TF.CreationDate,2020-06-07T15:31:20-07:00*
G04 #@! TF.ProjectId,Empyrean,456d7079-7265-4616-9e2e-6b696361645f,A*
G04 #@! TF.SameCoordinates,Original*
G04 #@! TF.FileFunction,Soldermask,Top*
G04 #@! TF.FilePolarity,Negative*
%FSLAX46Y46*%
G04 Gerber Fmt 4.6, Leading zero omitted, Abs format (unit mm)*
G04 Created by KiCad (PCBNEW 5.1.6-c6e7f7d~86~ubuntu18.04.1) date 2020-06-07 15:31:20*
%MOMM*%
%LPD*%
G01*
G04 APERTURE LIST*
%ADD10C,0.100000*%
G04 APERTURE END LIST*
D10*
G36*
X137787223Y-143185128D02*
G01*
X137919174Y-143225155D01*
X138040780Y-143290155D01*
X138147369Y-143377630D01*
X138234845Y-143484219D01*
X138299845Y-143605825D01*
X138339872Y-143737776D01*
X138350000Y-143840610D01*
X138350000Y-144459390D01*
X138339872Y-144562224D01*
X138299845Y-144694175D01*
X138234845Y-144815781D01*
X138147370Y-144922370D01*
X138040781Y-145009845D01*
X137919175Y-145074845D01*
X137787224Y-145114872D01*
X137650000Y-145128387D01*
X137512777Y-145114872D01*
X137380826Y-145074845D01*
X137259220Y-145009845D01*
X137152631Y-144922370D01*
X137065155Y-144815781D01*
X137000155Y-144694175D01*
X136960128Y-144562224D01*
X136950000Y-144459390D01*
X136950000Y-143840611D01*
X136960128Y-143737777D01*
X137000155Y-143605826D01*
X137065155Y-143484220D01*
X137152630Y-143377631D01*
X137259219Y-143290155D01*
X137380825Y-143225155D01*
X137512776Y-143185128D01*
X137650000Y-143171613D01*
X137787223Y-143185128D01*
G37*
G36*
X130787223Y-143185128D02*
G01*
X130919174Y-143225155D01*
X131040780Y-143290155D01*
X131147369Y-143377630D01*
X131234845Y-143484219D01*
X131299845Y-143605825D01*
X131339872Y-143737776D01*
X131350000Y-143840610D01*
X131350000Y-144459390D01*
X131339872Y-144562224D01*
X131299845Y-144694175D01*
X131234845Y-144815781D01*
X131147370Y-144922370D01*
X131040781Y-145009845D01*
X130919175Y-145074845D01*
X130787224Y-145114872D01*
X130650000Y-145128387D01*
X130512777Y-145114872D01*
X130380826Y-145074845D01*
X130259220Y-145009845D01*
X130152631Y-144922370D01*
X130065155Y-144815781D01*
X130000155Y-144694175D01*
X129960128Y-144562224D01*
X129950000Y-144459390D01*
X129950000Y-143840611D01*
X129960128Y-143737777D01*
X130000155Y-143605826D01*
X130065155Y-143484220D01*
X130152630Y-143377631D01*
X130259219Y-143290155D01*
X130380825Y-143225155D01*
X130512776Y-143185128D01*
X130650000Y-143171613D01*
X130787223Y-143185128D01*
G37*
G36*
X140225000Y-144500000D02*
G01*
X139075000Y-144500000D01*
X139075000Y-143300000D01*
X140225000Y-143300000D01*
X140225000Y-144500000D01*
G37*
G36*
X142000000Y-144350000D02*
G01*
X140700000Y-144350000D01*
X140700000Y-143450000D01*
X142000000Y-143450000D01*
X142000000Y-144350000D01*
G37*
G36*
X140225000Y-143000000D02*
G01*
X139075000Y-143000000D01*
X139075000Y-141800000D01*
X140225000Y-141800000D01*
X140225000Y-143000000D01*
G37*
G36*
X142000000Y-142850000D02*
G01*
X140700000Y-142850000D01*
X140700000Y-141950000D01*
X142000000Y-141950000D01*
X142000000Y-142850000D01*
G37*
G36*
X126650000Y-142350000D02*
G01*
X125350000Y-142350000D01*
X125350000Y-139450000D01*
X126650000Y-139450000D01*
X126650000Y-142350000D01*
G37*
G36*
X129550000Y-142350000D02*
G01*
X128250000Y-142350000D01*
X128250000Y-139450000D01*
X129550000Y-139450000D01*
X129550000Y-142350000D01*
G37*
G36*
X135750000Y-140950521D02*
G01*
X135752402Y-140974907D01*
X135759515Y-140998356D01*
X135771066Y-141019967D01*
X135786611Y-141038909D01*
X135805553Y-141054454D01*
X135827164Y-141066005D01*
X135850613Y-141073118D01*
X135874999Y-141075520D01*
X135899385Y-141073118D01*
X135922834Y-141066005D01*
X135944445Y-141054454D01*
X135971624Y-141029820D01*
X136020394Y-140970394D01*
X136044609Y-140950521D01*
X136123176Y-140886042D01*
X136240439Y-140823364D01*
X136367677Y-140784767D01*
X136466841Y-140775000D01*
X136833159Y-140775000D01*
X136932323Y-140784767D01*
X137059561Y-140823364D01*
X137176824Y-140886042D01*
X137279606Y-140970394D01*
X137363958Y-141073176D01*
X137426636Y-141190439D01*
X137465233Y-141317677D01*
X137478266Y-141450000D01*
X137465233Y-141582323D01*
X137426636Y-141709561D01*
X137363958Y-141826824D01*
X137279606Y-141929606D01*
X137176824Y-142013958D01*
X137059561Y-142076636D01*
X136932323Y-142115233D01*
X136833159Y-142125000D01*
X136466841Y-142125000D01*
X136367677Y-142115233D01*
X136240439Y-142076636D01*
X136123176Y-142013958D01*
X136020394Y-141929606D01*
X135971623Y-141870179D01*
X135954297Y-141852853D01*
X135933922Y-141839239D01*
X135911284Y-141829862D01*
X135887250Y-141825082D01*
X135862746Y-141825082D01*
X135838713Y-141829863D01*
X135816074Y-141839240D01*
X135795700Y-141852854D01*
X135778373Y-141870181D01*
X135764759Y-141890556D01*
X135755382Y-141913194D01*
X135750000Y-141949479D01*
X135750000Y-142225000D01*
X132550000Y-142225000D01*
X132550000Y-141949479D01*
X132547598Y-141925093D01*
X132540485Y-141901644D01*
X132528934Y-141880033D01*
X132513389Y-141861091D01*
X132494447Y-141845546D01*
X132472836Y-141833995D01*
X132449387Y-141826882D01*
X132425001Y-141824480D01*
X132400615Y-141826882D01*
X132377166Y-141833995D01*
X132355555Y-141845546D01*
X132328377Y-141870179D01*
X132279606Y-141929606D01*
X132176824Y-142013958D01*
X132059561Y-142076636D01*
X131932323Y-142115233D01*
X131833159Y-142125000D01*
X131466841Y-142125000D01*
X131367677Y-142115233D01*
X131240439Y-142076636D01*
X131123176Y-142013958D01*
X131020394Y-141929606D01*
X130936042Y-141826824D01*
X130873364Y-141709561D01*
X130834767Y-141582323D01*
X130821734Y-141450000D01*
X130834767Y-141317677D01*
X130873364Y-141190439D01*
X130936042Y-141073176D01*
X131020394Y-140970394D01*
X131123176Y-140886042D01*
X131240439Y-140823364D01*
X131367677Y-140784767D01*
X131466841Y-140775000D01*
X131833159Y-140775000D01*
X131932323Y-140784767D01*
X132059561Y-140823364D01*
X132176824Y-140886042D01*
X132255391Y-140950521D01*
X132279606Y-140970394D01*
X132328376Y-141029820D01*
X132345703Y-141047147D01*
X132366078Y-141060761D01*
X132388716Y-141070138D01*
X132412750Y-141074918D01*
X132437254Y-141074918D01*
X132461287Y-141070137D01*
X132483926Y-141060760D01*
X132504300Y-141047146D01*
X132521627Y-141029819D01*
X132535241Y-141009444D01*
X132544618Y-140986806D01*
X132550000Y-140950521D01*
X132550000Y-140675000D01*
X135750000Y-140675000D01*
X135750000Y-140950521D01*
G37*
G36*
X139050000Y-141500000D02*
G01*
X137750000Y-141500000D01*
X137750000Y-140600000D01*
X139050000Y-140600000D01*
X139050000Y-141500000D01*
G37*
G36*
X140950000Y-141450000D02*
G01*
X139350000Y-141450000D01*
X139350000Y-139850000D01*
X140950000Y-139850000D01*
X140950000Y-141450000D01*
G37*
G36*
X143050000Y-141450000D02*
G01*
X141450000Y-141450000D01*
X141450000Y-139850000D01*
X143050000Y-139850000D01*
X143050000Y-141450000D01*
G37*
G36*
X132400000Y-140200000D02*
G01*
X131500000Y-140200000D01*
X131500000Y-138900000D01*
X132400000Y-138900000D01*
X132400000Y-140200000D01*
G37*
G36*
X133900000Y-140200000D02*
G01*
X133000000Y-140200000D01*
X133000000Y-138900000D01*
X133900000Y-138900000D01*
X133900000Y-140200000D01*
G37*
G36*
X136600000Y-140200000D02*
G01*
X135700000Y-140200000D01*
X135700000Y-138900000D01*
X136600000Y-138900000D01*
X136600000Y-140200000D01*
G37*
G36*
X135100000Y-140200000D02*
G01*
X134200000Y-140200000D01*
X134200000Y-138900000D01*
X135100000Y-138900000D01*
X135100000Y-140200000D01*
G37*
G36*
X139050000Y-140000000D02*
G01*
X137750000Y-140000000D01*
X137750000Y-139100000D01*
X139050000Y-139100000D01*
X139050000Y-140000000D01*
G37*
G36*
X129742805Y-136539698D02*
G01*
X129743409Y-136539757D01*
X129792918Y-136549606D01*
X129797466Y-136551490D01*
X129797470Y-136551491D01*
X129822169Y-136561721D01*
X129845613Y-136568833D01*
X129869999Y-136571235D01*
X129894385Y-136568833D01*
X129917831Y-136561721D01*
X129942530Y-136551491D01*
X129942534Y-136551490D01*
X129947082Y-136549606D01*
X129996591Y-136539757D01*
X129997195Y-136539698D01*
X130023061Y-136538427D01*
X130316939Y-136538427D01*
X130342805Y-136539698D01*
X130343409Y-136539757D01*
X130392920Y-136549606D01*
X130438421Y-136568453D01*
X130480411Y-136596512D01*
X130480865Y-136596884D01*
X130500052Y-136614276D01*
X130995724Y-137109948D01*
X131013116Y-137129135D01*
X131013488Y-137129589D01*
X131041547Y-137171579D01*
X131060394Y-137217080D01*
X131070243Y-137266591D01*
X131070302Y-137267195D01*
X131071573Y-137293061D01*
X131071573Y-138286939D01*
X131070302Y-138312805D01*
X131070243Y-138313409D01*
X131060394Y-138362920D01*
X131041547Y-138408421D01*
X131013488Y-138450411D01*
X131013116Y-138450865D01*
X130995724Y-138470052D01*
X130500052Y-138965724D01*
X130480865Y-138983116D01*
X130480411Y-138983488D01*
X130438421Y-139011547D01*
X130392920Y-139030394D01*
X130343409Y-139040243D01*
X130342805Y-139040302D01*
X130316939Y-139041573D01*
X130023061Y-139041573D01*
X129997195Y-139040302D01*
X129996591Y-139040243D01*
X129947082Y-139030394D01*
X129942534Y-139028510D01*
X129942530Y-139028509D01*
X129917831Y-139018279D01*
X129894387Y-139011167D01*
X129870001Y-139008765D01*
X129845615Y-139011167D01*
X129822169Y-139018279D01*
X129797470Y-139028509D01*
X129797466Y-139028510D01*
X129792918Y-139030394D01*
X129743409Y-139040243D01*
X129742805Y-139040302D01*
X129716939Y-139041573D01*
X129323061Y-139041573D01*
X129297195Y-139040302D01*
X129296591Y-139040243D01*
X129247080Y-139030394D01*
X129201579Y-139011547D01*
X129160006Y-138983767D01*
X129131446Y-138956406D01*
X129122473Y-138945804D01*
X128725469Y-138449550D01*
X128710300Y-138428555D01*
X128709987Y-138428073D01*
X128707148Y-138422598D01*
X128707140Y-138422586D01*
X128688992Y-138387588D01*
X128688990Y-138387584D01*
X128687121Y-138383979D01*
X128686260Y-138380752D01*
X128685355Y-138378486D01*
X128673004Y-138332169D01*
X128672661Y-138329755D01*
X128671354Y-138324853D01*
X128671048Y-138322694D01*
X128668427Y-138285595D01*
X128668427Y-137293061D01*
X128669698Y-137267195D01*
X128669757Y-137266591D01*
X128679606Y-137217080D01*
X128698453Y-137171579D01*
X128726512Y-137129589D01*
X128726884Y-137129135D01*
X128744276Y-137109948D01*
X129239948Y-136614276D01*
X129259135Y-136596884D01*
X129259589Y-136596512D01*
X129301579Y-136568453D01*
X129347080Y-136549606D01*
X129396591Y-136539757D01*
X129397195Y-136539698D01*
X129423061Y-136538427D01*
X129716939Y-136538427D01*
X129742805Y-136539698D01*
G37*
G36*
X134656500Y-138451000D02*
G01*
X131843500Y-138451000D01*
X131843500Y-137289000D01*
X134656500Y-137289000D01*
X134656500Y-138451000D01*
G37*
G36*
X136225000Y-138350000D02*
G01*
X135075000Y-138350000D01*
X135075000Y-137150000D01*
X136225000Y-137150000D01*
X136225000Y-138350000D01*
G37*
G36*
X141928687Y-136065027D02*
G01*
X142106274Y-136100350D01*
X142297362Y-136179502D01*
X142469336Y-136294411D01*
X142496623Y-136321698D01*
X142515554Y-136337234D01*
X142537165Y-136348785D01*
X142560614Y-136355898D01*
X142585000Y-136358300D01*
X142609386Y-136355898D01*
X142632835Y-136348785D01*
X142654446Y-136337234D01*
X142673377Y-136321698D01*
X142700664Y-136294411D01*
X142872638Y-136179502D01*
X143063726Y-136100350D01*
X143241313Y-136065027D01*
X143266583Y-136060000D01*
X143473417Y-136060000D01*
X143498687Y-136065027D01*
X143676274Y-136100350D01*
X143867362Y-136179502D01*
X144039336Y-136294411D01*
X144185589Y-136440664D01*
X144300498Y-136612638D01*
X144379650Y-136803726D01*
X144420000Y-137006584D01*
X144420000Y-137213416D01*
X144379650Y-137416274D01*
X144300498Y-137607362D01*
X144185589Y-137779336D01*
X144039336Y-137925589D01*
X143867362Y-138040498D01*
X143676274Y-138119650D01*
X143498687Y-138154973D01*
X143473417Y-138160000D01*
X143266583Y-138160000D01*
X143241313Y-138154973D01*
X143063726Y-138119650D01*
X142872638Y-138040498D01*
X142700664Y-137925589D01*
X142673377Y-137898302D01*
X142654446Y-137882766D01*
X142632835Y-137871215D01*
X142609386Y-137864102D01*
X142585000Y-137861700D01*
X142560614Y-137864102D01*
X142537165Y-137871215D01*
X142515554Y-137882766D01*
X142496623Y-137898302D01*
X142469336Y-137925589D01*
X142297362Y-138040498D01*
X142106274Y-138119650D01*
X141928687Y-138154973D01*
X141903417Y-138160000D01*
X141696583Y-138160000D01*
X141671313Y-138154973D01*
X141493726Y-138119650D01*
X141302638Y-138040498D01*
X141130664Y-137925589D01*
X140984411Y-137779336D01*
X140869502Y-137607362D01*
X140790350Y-137416274D01*
X140750000Y-137213416D01*
X140750000Y-137006584D01*
X140790350Y-136803726D01*
X140869502Y-136612638D01*
X140984411Y-136440664D01*
X141130664Y-136294411D01*
X141302638Y-136179502D01*
X141493726Y-136100350D01*
X141671313Y-136065027D01*
X141696583Y-136060000D01*
X141903417Y-136060000D01*
X141928687Y-136065027D01*
G37*
G36*
X125138687Y-136065027D02*
G01*
X125316274Y-136100350D01*
X125507362Y-136179502D01*
X125679336Y-136294411D01*
X125691623Y-136306698D01*
X125710554Y-136322234D01*
X125732165Y-136333785D01*
X125755614Y-136340898D01*
X125780000Y-136343300D01*
X125804386Y-136340898D01*
X125827835Y-136333785D01*
X125849446Y-136322234D01*
X125868377Y-136306698D01*
X125880664Y-136294411D01*
X126052638Y-136179502D01*
X126243726Y-136100350D01*
X126421313Y-136065027D01*
X126446583Y-136060000D01*
X126653417Y-136060000D01*
X126678687Y-136065027D01*
X126856274Y-136100350D01*
X127047362Y-136179502D01*
X127219336Y-136294411D01*
X127365589Y-136440664D01*
X127480498Y-136612638D01*
X127559650Y-136803726D01*
X127600000Y-137006584D01*
X127600000Y-137213416D01*
X127559650Y-137416274D01*
X127480498Y-137607362D01*
X127365589Y-137779336D01*
X127219336Y-137925589D01*
X127047362Y-138040498D01*
X126856274Y-138119650D01*
X126678687Y-138154973D01*
X126653417Y-138160000D01*
X126446583Y-138160000D01*
X126421313Y-138154973D01*
X126243726Y-138119650D01*
X126052638Y-138040498D01*
X125880664Y-137925589D01*
X125868377Y-137913302D01*
X125849446Y-137897766D01*
X125827835Y-137886215D01*
X125804386Y-137879102D01*
X125780000Y-137876700D01*
X125755614Y-137879102D01*
X125732165Y-137886215D01*
X125710554Y-137897766D01*
X125691623Y-137913302D01*
X125679336Y-137925589D01*
X125507362Y-138040498D01*
X125316274Y-138119650D01*
X125138687Y-138154973D01*
X125113417Y-138160000D01*
X124906583Y-138160000D01*
X124881313Y-138154973D01*
X124703726Y-138119650D01*
X124512638Y-138040498D01*
X124340664Y-137925589D01*
X124194411Y-137779336D01*
X124079502Y-137607362D01*
X124000350Y-137416274D01*
X123960000Y-137213416D01*
X123960000Y-137006584D01*
X124000350Y-136803726D01*
X124079502Y-136612638D01*
X124194411Y-136440664D01*
X124340664Y-136294411D01*
X124512638Y-136179502D01*
X124703726Y-136100350D01*
X124881313Y-136065027D01*
X124906583Y-136060000D01*
X125113417Y-136060000D01*
X125138687Y-136065027D01*
G37*
G36*
X136225000Y-136850000D02*
G01*
X135075000Y-136850000D01*
X135075000Y-135650000D01*
X136225000Y-135650000D01*
X136225000Y-136850000D01*
G37*
G36*
X132751500Y-135911000D02*
G01*
X131843500Y-135911000D01*
X131843500Y-134749000D01*
X132751500Y-134749000D01*
X132751500Y-135911000D01*
G37*
G36*
X134656500Y-135911000D02*
G01*
X133748500Y-135911000D01*
X133748500Y-134749000D01*
X134656500Y-134749000D01*
X134656500Y-135911000D01*
G37*
G36*
X125138687Y-133525027D02*
G01*
X125316274Y-133560350D01*
X125507362Y-133639502D01*
X125679336Y-133754411D01*
X125691623Y-133766698D01*
X125710554Y-133782234D01*
X125732165Y-133793785D01*
X125755614Y-133800898D01*
X125780000Y-133803300D01*
X125804386Y-133800898D01*
X125827835Y-133793785D01*
X125849446Y-133782234D01*
X125868377Y-133766698D01*
X125880664Y-133754411D01*
X126052638Y-133639502D01*
X126243726Y-133560350D01*
X126421313Y-133525027D01*
X126446583Y-133520000D01*
X126653417Y-133520000D01*
X126678687Y-133525027D01*
X126856274Y-133560350D01*
X127047362Y-133639502D01*
X127219336Y-133754411D01*
X127365589Y-133900664D01*
X127480498Y-134072638D01*
X127559650Y-134263726D01*
X127600000Y-134466584D01*
X127600000Y-134673416D01*
X127559650Y-134876274D01*
X127480498Y-135067362D01*
X127365589Y-135239336D01*
X127219336Y-135385589D01*
X127047362Y-135500498D01*
X126856274Y-135579650D01*
X126678687Y-135614973D01*
X126653417Y-135620000D01*
X126446583Y-135620000D01*
X126421313Y-135614973D01*
X126243726Y-135579650D01*
X126052638Y-135500498D01*
X125880664Y-135385589D01*
X125868377Y-135373302D01*
X125849446Y-135357766D01*
X125827835Y-135346215D01*
X125804386Y-135339102D01*
X125780000Y-135336700D01*
X125755614Y-135339102D01*
X125732165Y-135346215D01*
X125710554Y-135357766D01*
X125691623Y-135373302D01*
X125679336Y-135385589D01*
X125507362Y-135500498D01*
X125316274Y-135579650D01*
X125138687Y-135614973D01*
X125113417Y-135620000D01*
X124906583Y-135620000D01*
X124881313Y-135614973D01*
X124703726Y-135579650D01*
X124512638Y-135500498D01*
X124340664Y-135385589D01*
X124194411Y-135239336D01*
X124079502Y-135067362D01*
X124000350Y-134876274D01*
X123960000Y-134673416D01*
X123960000Y-134466584D01*
X124000350Y-134263726D01*
X124079502Y-134072638D01*
X124194411Y-133900664D01*
X124340664Y-133754411D01*
X124512638Y-133639502D01*
X124703726Y-133560350D01*
X124881313Y-133525027D01*
X124906583Y-133520000D01*
X125113417Y-133520000D01*
X125138687Y-133525027D01*
G37*
G36*
X141928687Y-133525027D02*
G01*
X142106274Y-133560350D01*
X142297362Y-133639502D01*
X142469336Y-133754411D01*
X142496623Y-133781698D01*
X142515554Y-133797234D01*
X142537165Y-133808785D01*
X142560614Y-133815898D01*
X142585000Y-133818300D01*
X142609386Y-133815898D01*
X142632835Y-133808785D01*
X142654446Y-133797234D01*
X142673377Y-133781698D01*
X142700664Y-133754411D01*
X142872638Y-133639502D01*
X143063726Y-133560350D01*
X143241313Y-133525027D01*
X143266583Y-133520000D01*
X143473417Y-133520000D01*
X143498687Y-133525027D01*
X143676274Y-133560350D01*
X143867362Y-133639502D01*
X144039336Y-133754411D01*
X144185589Y-133900664D01*
X144300498Y-134072638D01*
X144379650Y-134263726D01*
X144420000Y-134466584D01*
X144420000Y-134673416D01*
X144379650Y-134876274D01*
X144300498Y-135067362D01*
X144185589Y-135239336D01*
X144039336Y-135385589D01*
X143867362Y-135500498D01*
X143676274Y-135579650D01*
X143498687Y-135614973D01*
X143473417Y-135620000D01*
X143266583Y-135620000D01*
X143241313Y-135614973D01*
X143063726Y-135579650D01*
X142872638Y-135500498D01*
X142700664Y-135385589D01*
X142673377Y-135358302D01*
X142654446Y-135342766D01*
X142632835Y-135331215D01*
X142609386Y-135324102D01*
X142585000Y-135321700D01*
X142560614Y-135324102D01*
X142537165Y-135331215D01*
X142515554Y-135342766D01*
X142496623Y-135358302D01*
X142469336Y-135385589D01*
X142297362Y-135500498D01*
X142106274Y-135579650D01*
X141928687Y-135614973D01*
X141903417Y-135620000D01*
X141696583Y-135620000D01*
X141671313Y-135614973D01*
X141493726Y-135579650D01*
X141302638Y-135500498D01*
X141130664Y-135385589D01*
X140984411Y-135239336D01*
X140869502Y-135067362D01*
X140790350Y-134876274D01*
X140750000Y-134673416D01*
X140750000Y-134466584D01*
X140790350Y-134263726D01*
X140869502Y-134072638D01*
X140984411Y-133900664D01*
X141130664Y-133754411D01*
X141302638Y-133639502D01*
X141493726Y-133560350D01*
X141671313Y-133525027D01*
X141696583Y-133520000D01*
X141903417Y-133520000D01*
X141928687Y-133525027D01*
G37*
G36*
X134400000Y-133975000D02*
G01*
X133200000Y-133975000D01*
X133200000Y-132825000D01*
X134400000Y-132825000D01*
X134400000Y-133975000D01*
G37*
G36*
X132900000Y-133975000D02*
G01*
X131700000Y-133975000D01*
X131700000Y-132825000D01*
X132900000Y-132825000D01*
X132900000Y-133975000D01*
G37*
G36*
X131200000Y-133325000D02*
G01*
X130000000Y-133325000D01*
X130000000Y-132175000D01*
X131200000Y-132175000D01*
X131200000Y-133325000D01*
G37*
G36*
X129700000Y-133325000D02*
G01*
X128500000Y-133325000D01*
X128500000Y-132175000D01*
X129700000Y-132175000D01*
X129700000Y-133325000D01*
G37*
G36*
X141928687Y-130985027D02*
G01*
X142106274Y-131020350D01*
X142297362Y-131099502D01*
X142469336Y-131214411D01*
X142496623Y-131241698D01*
X142515554Y-131257234D01*
X142537165Y-131268785D01*
X142560614Y-131275898D01*
X142585000Y-131278300D01*
X142609386Y-131275898D01*
X142632835Y-131268785D01*
X142654446Y-131257234D01*
X142673377Y-131241698D01*
X142700664Y-131214411D01*
X142872638Y-131099502D01*
X143063726Y-131020350D01*
X143241313Y-130985027D01*
X143266583Y-130980000D01*
X143473417Y-130980000D01*
X143498687Y-130985027D01*
X143676274Y-131020350D01*
X143867362Y-131099502D01*
X144039336Y-131214411D01*
X144185589Y-131360664D01*
X144300498Y-131532638D01*
X144379650Y-131723726D01*
X144420000Y-131926584D01*
X144420000Y-132133416D01*
X144379650Y-132336274D01*
X144300498Y-132527362D01*
X144185589Y-132699336D01*
X144039336Y-132845589D01*
X143867362Y-132960498D01*
X143676274Y-133039650D01*
X143498687Y-133074973D01*
X143473417Y-133080000D01*
X143266583Y-133080000D01*
X143241313Y-133074973D01*
X143063726Y-133039650D01*
X142872638Y-132960498D01*
X142700664Y-132845589D01*
X142673377Y-132818302D01*
X142654446Y-132802766D01*
X142632835Y-132791215D01*
X142609386Y-132784102D01*
X142585000Y-132781700D01*
X142560614Y-132784102D01*
X142537165Y-132791215D01*
X142515554Y-132802766D01*
X142496623Y-132818302D01*
X142469336Y-132845589D01*
X142297362Y-132960498D01*
X142106274Y-133039650D01*
X141928687Y-133074973D01*
X141903417Y-133080000D01*
X141696583Y-133080000D01*
X141671313Y-133074973D01*
X141493726Y-133039650D01*
X141302638Y-132960498D01*
X141130664Y-132845589D01*
X140984411Y-132699336D01*
X140869502Y-132527362D01*
X140790350Y-132336274D01*
X140750000Y-132133416D01*
X140750000Y-131926584D01*
X140790350Y-131723726D01*
X140869502Y-131532638D01*
X140984411Y-131360664D01*
X141130664Y-131214411D01*
X141302638Y-131099502D01*
X141493726Y-131020350D01*
X141671313Y-130985027D01*
X141696583Y-130980000D01*
X141903417Y-130980000D01*
X141928687Y-130985027D01*
G37*
G36*
X125138687Y-130985027D02*
G01*
X125316274Y-131020350D01*
X125507362Y-131099502D01*
X125679336Y-131214411D01*
X125691623Y-131226698D01*
X125710554Y-131242234D01*
X125732165Y-131253785D01*
X125755614Y-131260898D01*
X125780000Y-131263300D01*
X125804386Y-131260898D01*
X125827835Y-131253785D01*
X125849446Y-131242234D01*
X125868377Y-131226698D01*
X125880664Y-131214411D01*
X126052638Y-131099502D01*
X126243726Y-131020350D01*
X126421313Y-130985027D01*
X126446583Y-130980000D01*
X126653417Y-130980000D01*
X126678687Y-130985027D01*
X126856274Y-131020350D01*
X127047362Y-131099502D01*
X127219336Y-131214411D01*
X127365589Y-131360664D01*
X127480498Y-131532638D01*
X127559650Y-131723726D01*
X127600000Y-131926584D01*
X127600000Y-132133416D01*
X127559650Y-132336274D01*
X127480498Y-132527362D01*
X127365589Y-132699336D01*
X127219336Y-132845589D01*
X127047362Y-132960498D01*
X126856274Y-133039650D01*
X126678687Y-133074973D01*
X126653417Y-133080000D01*
X126446583Y-133080000D01*
X126421313Y-133074973D01*
X126243726Y-133039650D01*
X126052638Y-132960498D01*
X125880664Y-132845589D01*
X125868377Y-132833302D01*
X125849446Y-132817766D01*
X125827835Y-132806215D01*
X125804386Y-132799102D01*
X125780000Y-132796700D01*
X125755614Y-132799102D01*
X125732165Y-132806215D01*
X125710554Y-132817766D01*
X125691623Y-132833302D01*
X125679336Y-132845589D01*
X125507362Y-132960498D01*
X125316274Y-133039650D01*
X125138687Y-133074973D01*
X125113417Y-133080000D01*
X124906583Y-133080000D01*
X124881313Y-133074973D01*
X124703726Y-133039650D01*
X124512638Y-132960498D01*
X124340664Y-132845589D01*
X124194411Y-132699336D01*
X124079502Y-132527362D01*
X124000350Y-132336274D01*
X123960000Y-132133416D01*
X123960000Y-131926584D01*
X124000350Y-131723726D01*
X124079502Y-131532638D01*
X124194411Y-131360664D01*
X124340664Y-131214411D01*
X124512638Y-131099502D01*
X124703726Y-131020350D01*
X124881313Y-130985027D01*
X124906583Y-130980000D01*
X125113417Y-130980000D01*
X125138687Y-130985027D01*
G37*
G36*
X139775000Y-131350000D02*
G01*
X138625000Y-131350000D01*
X138625000Y-130150000D01*
X139775000Y-130150000D01*
X139775000Y-131350000D01*
G37*
G36*
X129700000Y-131025000D02*
G01*
X128500000Y-131025000D01*
X128500000Y-129875000D01*
X129700000Y-129875000D01*
X129700000Y-131025000D01*
G37*
G36*
X131200000Y-131025000D02*
G01*
X130000000Y-131025000D01*
X130000000Y-129875000D01*
X131200000Y-129875000D01*
X131200000Y-131025000D01*
G37*
G36*
X133849479Y-129649227D02*
G01*
X132647398Y-130851308D01*
X128298692Y-126502602D01*
X129500773Y-125300521D01*
X133849479Y-129649227D01*
G37*
G36*
X140001308Y-126502602D02*
G01*
X135652602Y-130851308D01*
X134450521Y-129649227D01*
X138799227Y-125300521D01*
X140001308Y-126502602D01*
G37*
G36*
X125138687Y-128445027D02*
G01*
X125316274Y-128480350D01*
X125507362Y-128559502D01*
X125679336Y-128674411D01*
X125691623Y-128686698D01*
X125710554Y-128702234D01*
X125732165Y-128713785D01*
X125755614Y-128720898D01*
X125780000Y-128723300D01*
X125804386Y-128720898D01*
X125827835Y-128713785D01*
X125849446Y-128702234D01*
X125868377Y-128686698D01*
X125880664Y-128674411D01*
X126052638Y-128559502D01*
X126243726Y-128480350D01*
X126421313Y-128445027D01*
X126446583Y-128440000D01*
X126653417Y-128440000D01*
X126678687Y-128445027D01*
X126856274Y-128480350D01*
X127047362Y-128559502D01*
X127219336Y-128674411D01*
X127365589Y-128820664D01*
X127480498Y-128992638D01*
X127559650Y-129183726D01*
X127600000Y-129386584D01*
X127600000Y-129593416D01*
X127559650Y-129796274D01*
X127480498Y-129987362D01*
X127365589Y-130159336D01*
X127219336Y-130305589D01*
X127047362Y-130420498D01*
X126856274Y-130499650D01*
X126678687Y-130534973D01*
X126653417Y-130540000D01*
X126446583Y-130540000D01*
X126421313Y-130534973D01*
X126243726Y-130499650D01*
X126052638Y-130420498D01*
X125880664Y-130305589D01*
X125868377Y-130293302D01*
X125849446Y-130277766D01*
X125827835Y-130266215D01*
X125804386Y-130259102D01*
X125780000Y-130256700D01*
X125755614Y-130259102D01*
X125732165Y-130266215D01*
X125710554Y-130277766D01*
X125691623Y-130293302D01*
X125679336Y-130305589D01*
X125507362Y-130420498D01*
X125316274Y-130499650D01*
X125138687Y-130534973D01*
X125113417Y-130540000D01*
X124906583Y-130540000D01*
X124881313Y-130534973D01*
X124703726Y-130499650D01*
X124512638Y-130420498D01*
X124340664Y-130305589D01*
X124194411Y-130159336D01*
X124079502Y-129987362D01*
X124000350Y-129796274D01*
X123960000Y-129593416D01*
X123960000Y-129386584D01*
X124000350Y-129183726D01*
X124079502Y-128992638D01*
X124194411Y-128820664D01*
X124340664Y-128674411D01*
X124512638Y-128559502D01*
X124703726Y-128480350D01*
X124881313Y-128445027D01*
X124906583Y-128440000D01*
X125113417Y-128440000D01*
X125138687Y-128445027D01*
G37*
G36*
X141928687Y-128445027D02*
G01*
X142106274Y-128480350D01*
X142297362Y-128559502D01*
X142469336Y-128674411D01*
X142496623Y-128701698D01*
X142515554Y-128717234D01*
X142537165Y-128728785D01*
X142560614Y-128735898D01*
X142585000Y-128738300D01*
X142609386Y-128735898D01*
X142632835Y-128728785D01*
X142654446Y-128717234D01*
X142673377Y-128701698D01*
X142700664Y-128674411D01*
X142872638Y-128559502D01*
X143063726Y-128480350D01*
X143241313Y-128445027D01*
X143266583Y-128440000D01*
X143473417Y-128440000D01*
X143498687Y-128445027D01*
X143676274Y-128480350D01*
X143867362Y-128559502D01*
X144039336Y-128674411D01*
X144185589Y-128820664D01*
X144300498Y-128992638D01*
X144379650Y-129183726D01*
X144420000Y-129386584D01*
X144420000Y-129593416D01*
X144379650Y-129796274D01*
X144300498Y-129987362D01*
X144185589Y-130159336D01*
X144039336Y-130305589D01*
X143867362Y-130420498D01*
X143676274Y-130499650D01*
X143498687Y-130534973D01*
X143473417Y-130540000D01*
X143266583Y-130540000D01*
X143241313Y-130534973D01*
X143063726Y-130499650D01*
X142872638Y-130420498D01*
X142700664Y-130305589D01*
X142673377Y-130278302D01*
X142654446Y-130262766D01*
X142632835Y-130251215D01*
X142609386Y-130244102D01*
X142585000Y-130241700D01*
X142560614Y-130244102D01*
X142537165Y-130251215D01*
X142515554Y-130262766D01*
X142496623Y-130278302D01*
X142469336Y-130305589D01*
X142297362Y-130420498D01*
X142106274Y-130499650D01*
X141928687Y-130534973D01*
X141903417Y-130540000D01*
X141696583Y-130540000D01*
X141671313Y-130534973D01*
X141493726Y-130499650D01*
X141302638Y-130420498D01*
X141130664Y-130305589D01*
X140984411Y-130159336D01*
X140869502Y-129987362D01*
X140790350Y-129796274D01*
X140750000Y-129593416D01*
X140750000Y-129386584D01*
X140790350Y-129183726D01*
X140869502Y-128992638D01*
X140984411Y-128820664D01*
X141130664Y-128674411D01*
X141302638Y-128559502D01*
X141493726Y-128480350D01*
X141671313Y-128445027D01*
X141696583Y-128440000D01*
X141903417Y-128440000D01*
X141928687Y-128445027D01*
G37*
G36*
X139775000Y-129850000D02*
G01*
X138625000Y-129850000D01*
X138625000Y-128650000D01*
X139775000Y-128650000D01*
X139775000Y-129850000D01*
G37*
G36*
X141928687Y-125905027D02*
G01*
X142106274Y-125940350D01*
X142297362Y-126019502D01*
X142469336Y-126134411D01*
X142496623Y-126161698D01*
X142515554Y-126177234D01*
X142537165Y-126188785D01*
X142560614Y-126195898D01*
X142585000Y-126198300D01*
X142609386Y-126195898D01*
X142632835Y-126188785D01*
X142654446Y-126177234D01*
X142673377Y-126161698D01*
X142700664Y-126134411D01*
X142872638Y-126019502D01*
X143063726Y-125940350D01*
X143241313Y-125905027D01*
X143266583Y-125900000D01*
X143473417Y-125900000D01*
X143498687Y-125905027D01*
X143676274Y-125940350D01*
X143867362Y-126019502D01*
X144039336Y-126134411D01*
X144185589Y-126280664D01*
X144300498Y-126452638D01*
X144379650Y-126643726D01*
X144420000Y-126846584D01*
X144420000Y-127053416D01*
X144379650Y-127256274D01*
X144300498Y-127447362D01*
X144185589Y-127619336D01*
X144039336Y-127765589D01*
X143867362Y-127880498D01*
X143676274Y-127959650D01*
X143498687Y-127994973D01*
X143473417Y-128000000D01*
X143266583Y-128000000D01*
X143241313Y-127994973D01*
X143063726Y-127959650D01*
X142872638Y-127880498D01*
X142700664Y-127765589D01*
X142673377Y-127738302D01*
X142654446Y-127722766D01*
X142632835Y-127711215D01*
X142609386Y-127704102D01*
X142585000Y-127701700D01*
X142560614Y-127704102D01*
X142537165Y-127711215D01*
X142515554Y-127722766D01*
X142496623Y-127738302D01*
X142469336Y-127765589D01*
X142297362Y-127880498D01*
X142106274Y-127959650D01*
X141928687Y-127994973D01*
X141903417Y-128000000D01*
X141696583Y-128000000D01*
X141671313Y-127994973D01*
X141493726Y-127959650D01*
X141302638Y-127880498D01*
X141130664Y-127765589D01*
X140984411Y-127619336D01*
X140869502Y-127447362D01*
X140790350Y-127256274D01*
X140750000Y-127053416D01*
X140750000Y-126846584D01*
X140790350Y-126643726D01*
X140869502Y-126452638D01*
X140984411Y-126280664D01*
X141130664Y-126134411D01*
X141302638Y-126019502D01*
X141493726Y-125940350D01*
X141671313Y-125905027D01*
X141696583Y-125900000D01*
X141903417Y-125900000D01*
X141928687Y-125905027D01*
G37*
G36*
X125138687Y-125905027D02*
G01*
X125316274Y-125940350D01*
X125507362Y-126019502D01*
X125679336Y-126134411D01*
X125691623Y-126146698D01*
X125710554Y-126162234D01*
X125732165Y-126173785D01*
X125755614Y-126180898D01*
X125780000Y-126183300D01*
X125804386Y-126180898D01*
X125827835Y-126173785D01*
X125849446Y-126162234D01*
X125868377Y-126146698D01*
X125880664Y-126134411D01*
X126052638Y-126019502D01*
X126243726Y-125940350D01*
X126421313Y-125905027D01*
X126446583Y-125900000D01*
X126653417Y-125900000D01*
X126678687Y-125905027D01*
X126856274Y-125940350D01*
X127047362Y-126019502D01*
X127219336Y-126134411D01*
X127365589Y-126280664D01*
X127480498Y-126452638D01*
X127559650Y-126643726D01*
X127600000Y-126846584D01*
X127600000Y-127053416D01*
X127559650Y-127256274D01*
X127480498Y-127447362D01*
X127365589Y-127619336D01*
X127219336Y-127765589D01*
X127047362Y-127880498D01*
X126856274Y-127959650D01*
X126678687Y-127994973D01*
X126653417Y-128000000D01*
X126446583Y-128000000D01*
X126421313Y-127994973D01*
X126243726Y-127959650D01*
X126052638Y-127880498D01*
X125880664Y-127765589D01*
X125868377Y-127753302D01*
X125849446Y-127737766D01*
X125827835Y-127726215D01*
X125804386Y-127719102D01*
X125780000Y-127716700D01*
X125755614Y-127719102D01*
X125732165Y-127726215D01*
X125710554Y-127737766D01*
X125691623Y-127753302D01*
X125679336Y-127765589D01*
X125507362Y-127880498D01*
X125316274Y-127959650D01*
X125138687Y-127994973D01*
X125113417Y-128000000D01*
X124906583Y-128000000D01*
X124881313Y-127994973D01*
X124703726Y-127959650D01*
X124512638Y-127880498D01*
X124340664Y-127765589D01*
X124194411Y-127619336D01*
X124079502Y-127447362D01*
X124000350Y-127256274D01*
X123960000Y-127053416D01*
X123960000Y-126846584D01*
X124000350Y-126643726D01*
X124079502Y-126452638D01*
X124194411Y-126280664D01*
X124340664Y-126134411D01*
X124512638Y-126019502D01*
X124703726Y-125940350D01*
X124881313Y-125905027D01*
X124906583Y-125900000D01*
X125113417Y-125900000D01*
X125138687Y-125905027D01*
G37*
G36*
X125138687Y-123365027D02*
G01*
X125316274Y-123400350D01*
X125507362Y-123479502D01*
X125679336Y-123594411D01*
X125691623Y-123606698D01*
X125710554Y-123622234D01*
X125732165Y-123633785D01*
X125755614Y-123640898D01*
X125780000Y-123643300D01*
X125804386Y-123640898D01*
X125827835Y-123633785D01*
X125849446Y-123622234D01*
X125868377Y-123606698D01*
X125880664Y-123594411D01*
X126052638Y-123479502D01*
X126243726Y-123400350D01*
X126421313Y-123365027D01*
X126446583Y-123360000D01*
X126653417Y-123360000D01*
X126678687Y-123365027D01*
X126856274Y-123400350D01*
X127047362Y-123479502D01*
X127219336Y-123594411D01*
X127365589Y-123740664D01*
X127480498Y-123912638D01*
X127559650Y-124103726D01*
X127600000Y-124306584D01*
X127600000Y-124513416D01*
X127559650Y-124716274D01*
X127480498Y-124907362D01*
X127365589Y-125079336D01*
X127219336Y-125225589D01*
X127047362Y-125340498D01*
X126856274Y-125419650D01*
X126678687Y-125454973D01*
X126653417Y-125460000D01*
X126446583Y-125460000D01*
X126421313Y-125454973D01*
X126243726Y-125419650D01*
X126052638Y-125340498D01*
X125880664Y-125225589D01*
X125868377Y-125213302D01*
X125849446Y-125197766D01*
X125827835Y-125186215D01*
X125804386Y-125179102D01*
X125780000Y-125176700D01*
X125755614Y-125179102D01*
X125732165Y-125186215D01*
X125710554Y-125197766D01*
X125691623Y-125213302D01*
X125679336Y-125225589D01*
X125507362Y-125340498D01*
X125316274Y-125419650D01*
X125138687Y-125454973D01*
X125113417Y-125460000D01*
X124906583Y-125460000D01*
X124881313Y-125454973D01*
X124703726Y-125419650D01*
X124512638Y-125340498D01*
X124340664Y-125225589D01*
X124194411Y-125079336D01*
X124079502Y-124907362D01*
X124000350Y-124716274D01*
X123960000Y-124513416D01*
X123960000Y-124306584D01*
X124000350Y-124103726D01*
X124079502Y-123912638D01*
X124194411Y-123740664D01*
X124340664Y-123594411D01*
X124512638Y-123479502D01*
X124703726Y-123400350D01*
X124881313Y-123365027D01*
X124906583Y-123360000D01*
X125113417Y-123360000D01*
X125138687Y-123365027D01*
G37*
G36*
X141928687Y-123365027D02*
G01*
X142106274Y-123400350D01*
X142297362Y-123479502D01*
X142469336Y-123594411D01*
X142496623Y-123621698D01*
X142515554Y-123637234D01*
X142537165Y-123648785D01*
X142560614Y-123655898D01*
X142585000Y-123658300D01*
X142609386Y-123655898D01*
X142632835Y-123648785D01*
X142654446Y-123637234D01*
X142673377Y-123621698D01*
X142700664Y-123594411D01*
X142872638Y-123479502D01*
X143063726Y-123400350D01*
X143241313Y-123365027D01*
X143266583Y-123360000D01*
X143473417Y-123360000D01*
X143498687Y-123365027D01*
X143676274Y-123400350D01*
X143867362Y-123479502D01*
X144039336Y-123594411D01*
X144185589Y-123740664D01*
X144300498Y-123912638D01*
X144379650Y-124103726D01*
X144420000Y-124306584D01*
X144420000Y-124513416D01*
X144379650Y-124716274D01*
X144300498Y-124907362D01*
X144185589Y-125079336D01*
X144039336Y-125225589D01*
X143867362Y-125340498D01*
X143676274Y-125419650D01*
X143498687Y-125454973D01*
X143473417Y-125460000D01*
X143266583Y-125460000D01*
X143241313Y-125454973D01*
X143063726Y-125419650D01*
X142872638Y-125340498D01*
X142700664Y-125225589D01*
X142673377Y-125198302D01*
X142654446Y-125182766D01*
X142632835Y-125171215D01*
X142609386Y-125164102D01*
X142585000Y-125161700D01*
X142560614Y-125164102D01*
X142537165Y-125171215D01*
X142515554Y-125182766D01*
X142496623Y-125198302D01*
X142469336Y-125225589D01*
X142297362Y-125340498D01*
X142106274Y-125419650D01*
X141928687Y-125454973D01*
X141903417Y-125460000D01*
X141696583Y-125460000D01*
X141671313Y-125454973D01*
X141493726Y-125419650D01*
X141302638Y-125340498D01*
X141130664Y-125225589D01*
X140984411Y-125079336D01*
X140869502Y-124907362D01*
X140790350Y-124716274D01*
X140750000Y-124513416D01*
X140750000Y-124306584D01*
X140790350Y-124103726D01*
X140869502Y-123912638D01*
X140984411Y-123740664D01*
X141130664Y-123594411D01*
X141302638Y-123479502D01*
X141493726Y-123400350D01*
X141671313Y-123365027D01*
X141696583Y-123360000D01*
X141903417Y-123360000D01*
X141928687Y-123365027D01*
G37*
G36*
X140001308Y-123497398D02*
G01*
X138799227Y-124699479D01*
X134450521Y-120350773D01*
X135652602Y-119148692D01*
X140001308Y-123497398D01*
G37*
G36*
X133849479Y-120350773D02*
G01*
X129500773Y-124699479D01*
X128298692Y-123497398D01*
X132647398Y-119148692D01*
X133849479Y-120350773D01*
G37*
G36*
X125138687Y-120825027D02*
G01*
X125316274Y-120860350D01*
X125507362Y-120939502D01*
X125679336Y-121054411D01*
X125691623Y-121066698D01*
X125710554Y-121082234D01*
X125732165Y-121093785D01*
X125755614Y-121100898D01*
X125780000Y-121103300D01*
X125804386Y-121100898D01*
X125827835Y-121093785D01*
X125849446Y-121082234D01*
X125868377Y-121066698D01*
X125880664Y-121054411D01*
X126052638Y-120939502D01*
X126243726Y-120860350D01*
X126421313Y-120825027D01*
X126446583Y-120820000D01*
X126653417Y-120820000D01*
X126678687Y-120825027D01*
X126856274Y-120860350D01*
X127047362Y-120939502D01*
X127219336Y-121054411D01*
X127365589Y-121200664D01*
X127480498Y-121372638D01*
X127559650Y-121563726D01*
X127592650Y-121729631D01*
X127600000Y-121766583D01*
X127600000Y-121973417D01*
X127594973Y-121998687D01*
X127559650Y-122176274D01*
X127480498Y-122367362D01*
X127365589Y-122539336D01*
X127219336Y-122685589D01*
X127047362Y-122800498D01*
X126856274Y-122879650D01*
X126678687Y-122914973D01*
X126653417Y-122920000D01*
X126446583Y-122920000D01*
X126421313Y-122914973D01*
X126243726Y-122879650D01*
X126052638Y-122800498D01*
X125880664Y-122685589D01*
X125868377Y-122673302D01*
X125849446Y-122657766D01*
X125827835Y-122646215D01*
X125804386Y-122639102D01*
X125780000Y-122636700D01*
X125755614Y-122639102D01*
X125732165Y-122646215D01*
X125710554Y-122657766D01*
X125691623Y-122673302D01*
X125679336Y-122685589D01*
X125507362Y-122800498D01*
X125316274Y-122879650D01*
X125138687Y-122914973D01*
X125113417Y-122920000D01*
X124906583Y-122920000D01*
X124881313Y-122914973D01*
X124703726Y-122879650D01*
X124512638Y-122800498D01*
X124340664Y-122685589D01*
X124194411Y-122539336D01*
X124079502Y-122367362D01*
X124000350Y-122176274D01*
X123965027Y-121998687D01*
X123960000Y-121973417D01*
X123960000Y-121766583D01*
X123967350Y-121729631D01*
X124000350Y-121563726D01*
X124079502Y-121372638D01*
X124194411Y-121200664D01*
X124340664Y-121054411D01*
X124512638Y-120939502D01*
X124703726Y-120860350D01*
X124881313Y-120825027D01*
X124906583Y-120820000D01*
X125113417Y-120820000D01*
X125138687Y-120825027D01*
G37*
G36*
X141928687Y-120825027D02*
G01*
X142106274Y-120860350D01*
X142297362Y-120939502D01*
X142469336Y-121054411D01*
X142496623Y-121081698D01*
X142515554Y-121097234D01*
X142537165Y-121108785D01*
X142560614Y-121115898D01*
X142585000Y-121118300D01*
X142609386Y-121115898D01*
X142632835Y-121108785D01*
X142654446Y-121097234D01*
X142673377Y-121081698D01*
X142700664Y-121054411D01*
X142872638Y-120939502D01*
X143063726Y-120860350D01*
X143241313Y-120825027D01*
X143266583Y-120820000D01*
X143473417Y-120820000D01*
X143498687Y-120825027D01*
X143676274Y-120860350D01*
X143867362Y-120939502D01*
X144039336Y-121054411D01*
X144185589Y-121200664D01*
X144300498Y-121372638D01*
X144379650Y-121563726D01*
X144412650Y-121729631D01*
X144420000Y-121766583D01*
X144420000Y-121973417D01*
X144414973Y-121998687D01*
X144379650Y-122176274D01*
X144300498Y-122367362D01*
X144185589Y-122539336D01*
X144039336Y-122685589D01*
X143867362Y-122800498D01*
X143676274Y-122879650D01*
X143498687Y-122914973D01*
X143473417Y-122920000D01*
X143266583Y-122920000D01*
X143241313Y-122914973D01*
X143063726Y-122879650D01*
X142872638Y-122800498D01*
X142700664Y-122685589D01*
X142673377Y-122658302D01*
X142654446Y-122642766D01*
X142632835Y-122631215D01*
X142609386Y-122624102D01*
X142585000Y-122621700D01*
X142560614Y-122624102D01*
X142537165Y-122631215D01*
X142515554Y-122642766D01*
X142496623Y-122658302D01*
X142469336Y-122685589D01*
X142297362Y-122800498D01*
X142106274Y-122879650D01*
X141928687Y-122914973D01*
X141903417Y-122920000D01*
X141696583Y-122920000D01*
X141671313Y-122914973D01*
X141493726Y-122879650D01*
X141302638Y-122800498D01*
X141130664Y-122685589D01*
X140984411Y-122539336D01*
X140869502Y-122367362D01*
X140790350Y-122176274D01*
X140755027Y-121998687D01*
X140750000Y-121973417D01*
X140750000Y-121766583D01*
X140757350Y-121729631D01*
X140790350Y-121563726D01*
X140869502Y-121372638D01*
X140984411Y-121200664D01*
X141130664Y-121054411D01*
X141302638Y-120939502D01*
X141493726Y-120860350D01*
X141671313Y-120825027D01*
X141696583Y-120820000D01*
X141903417Y-120820000D01*
X141928687Y-120825027D01*
G37*
G36*
X129675000Y-121050000D02*
G01*
X128525000Y-121050000D01*
X128525000Y-119850000D01*
X129675000Y-119850000D01*
X129675000Y-121050000D01*
G37*
G36*
X141928687Y-118285027D02*
G01*
X142106274Y-118320350D01*
X142297362Y-118399502D01*
X142469336Y-118514411D01*
X142496623Y-118541698D01*
X142515554Y-118557234D01*
X142537165Y-118568785D01*
X142560614Y-118575898D01*
X142585000Y-118578300D01*
X142609386Y-118575898D01*
X142632835Y-118568785D01*
X142654446Y-118557234D01*
X142673377Y-118541698D01*
X142700664Y-118514411D01*
X142872638Y-118399502D01*
X143063726Y-118320350D01*
X143241313Y-118285027D01*
X143266583Y-118280000D01*
X143473417Y-118280000D01*
X143498687Y-118285027D01*
X143676274Y-118320350D01*
X143867362Y-118399502D01*
X144039336Y-118514411D01*
X144185589Y-118660664D01*
X144300498Y-118832638D01*
X144379650Y-119023726D01*
X144420000Y-119226584D01*
X144420000Y-119433416D01*
X144379650Y-119636274D01*
X144300498Y-119827362D01*
X144185589Y-119999336D01*
X144039336Y-120145589D01*
X143867362Y-120260498D01*
X143676274Y-120339650D01*
X143498687Y-120374973D01*
X143473417Y-120380000D01*
X143266583Y-120380000D01*
X143241313Y-120374973D01*
X143063726Y-120339650D01*
X142872638Y-120260498D01*
X142700664Y-120145589D01*
X142673377Y-120118302D01*
X142654446Y-120102766D01*
X142632835Y-120091215D01*
X142609386Y-120084102D01*
X142585000Y-120081700D01*
X142560614Y-120084102D01*
X142537165Y-120091215D01*
X142515554Y-120102766D01*
X142496623Y-120118302D01*
X142469336Y-120145589D01*
X142297362Y-120260498D01*
X142106274Y-120339650D01*
X141928687Y-120374973D01*
X141903417Y-120380000D01*
X141696583Y-120380000D01*
X141671313Y-120374973D01*
X141493726Y-120339650D01*
X141302638Y-120260498D01*
X141130664Y-120145589D01*
X140984411Y-119999336D01*
X140869502Y-119827362D01*
X140790350Y-119636274D01*
X140750000Y-119433416D01*
X140750000Y-119226584D01*
X140790350Y-119023726D01*
X140869502Y-118832638D01*
X140984411Y-118660664D01*
X141130664Y-118514411D01*
X141302638Y-118399502D01*
X141493726Y-118320350D01*
X141671313Y-118285027D01*
X141696583Y-118280000D01*
X141903417Y-118280000D01*
X141928687Y-118285027D01*
G37*
G36*
X125138687Y-118285027D02*
G01*
X125316274Y-118320350D01*
X125507362Y-118399502D01*
X125679336Y-118514411D01*
X125691623Y-118526698D01*
X125710554Y-118542234D01*
X125732165Y-118553785D01*
X125755614Y-118560898D01*
X125780000Y-118563300D01*
X125804386Y-118560898D01*
X125827835Y-118553785D01*
X125849446Y-118542234D01*
X125868377Y-118526698D01*
X125880664Y-118514411D01*
X126052638Y-118399502D01*
X126243726Y-118320350D01*
X126421313Y-118285027D01*
X126446583Y-118280000D01*
X126653417Y-118280000D01*
X126678687Y-118285027D01*
X126856274Y-118320350D01*
X127047362Y-118399502D01*
X127219336Y-118514411D01*
X127365589Y-118660664D01*
X127480498Y-118832638D01*
X127559650Y-119023726D01*
X127600000Y-119226584D01*
X127600000Y-119433416D01*
X127559650Y-119636274D01*
X127480498Y-119827362D01*
X127365589Y-119999336D01*
X127219336Y-120145589D01*
X127047362Y-120260498D01*
X126856274Y-120339650D01*
X126678687Y-120374973D01*
X126653417Y-120380000D01*
X126446583Y-120380000D01*
X126421313Y-120374973D01*
X126243726Y-120339650D01*
X126052638Y-120260498D01*
X125880664Y-120145589D01*
X125868377Y-120133302D01*
X125849446Y-120117766D01*
X125827835Y-120106215D01*
X125804386Y-120099102D01*
X125780000Y-120096700D01*
X125755614Y-120099102D01*
X125732165Y-120106215D01*
X125710554Y-120117766D01*
X125691623Y-120133302D01*
X125679336Y-120145589D01*
X125507362Y-120260498D01*
X125316274Y-120339650D01*
X125138687Y-120374973D01*
X125113417Y-120380000D01*
X124906583Y-120380000D01*
X124881313Y-120374973D01*
X124703726Y-120339650D01*
X124512638Y-120260498D01*
X124340664Y-120145589D01*
X124194411Y-119999336D01*
X124079502Y-119827362D01*
X124000350Y-119636274D01*
X123960000Y-119433416D01*
X123960000Y-119226584D01*
X124000350Y-119023726D01*
X124079502Y-118832638D01*
X124194411Y-118660664D01*
X124340664Y-118514411D01*
X124512638Y-118399502D01*
X124703726Y-118320350D01*
X124881313Y-118285027D01*
X124906583Y-118280000D01*
X125113417Y-118280000D01*
X125138687Y-118285027D01*
G37*
G36*
X138400000Y-120075000D02*
G01*
X137200000Y-120075000D01*
X137200000Y-118925000D01*
X138400000Y-118925000D01*
X138400000Y-120075000D01*
G37*
G36*
X139900000Y-120075000D02*
G01*
X138700000Y-120075000D01*
X138700000Y-118925000D01*
X139900000Y-118925000D01*
X139900000Y-120075000D01*
G37*
G36*
X132659620Y-118716726D02*
G01*
X131598960Y-119777386D01*
X129972614Y-118151040D01*
X131033274Y-117090380D01*
X132659620Y-118716726D01*
G37*
G36*
X129675000Y-119550000D02*
G01*
X128525000Y-119550000D01*
X128525000Y-118350000D01*
X129675000Y-118350000D01*
X129675000Y-119550000D01*
G37*
G36*
X134427386Y-116948960D02*
G01*
X133366726Y-118009620D01*
X131740380Y-116383274D01*
X132801040Y-115322614D01*
X134427386Y-116948960D01*
G37*
G36*
X136025000Y-117950000D02*
G01*
X134875000Y-117950000D01*
X134875000Y-116750000D01*
X136025000Y-116750000D01*
X136025000Y-117950000D01*
G37*
G36*
X141928687Y-115745027D02*
G01*
X142106274Y-115780350D01*
X142297362Y-115859502D01*
X142469336Y-115974411D01*
X142496623Y-116001698D01*
X142515554Y-116017234D01*
X142537165Y-116028785D01*
X142560614Y-116035898D01*
X142585000Y-116038300D01*
X142609386Y-116035898D01*
X142632835Y-116028785D01*
X142654446Y-116017234D01*
X142673377Y-116001698D01*
X142700664Y-115974411D01*
X142872638Y-115859502D01*
X143063726Y-115780350D01*
X143241313Y-115745027D01*
X143266583Y-115740000D01*
X143473417Y-115740000D01*
X143498687Y-115745027D01*
X143676274Y-115780350D01*
X143867362Y-115859502D01*
X144039336Y-115974411D01*
X144185589Y-116120664D01*
X144300498Y-116292638D01*
X144379650Y-116483726D01*
X144420000Y-116686584D01*
X144420000Y-116893416D01*
X144379650Y-117096274D01*
X144300498Y-117287362D01*
X144185589Y-117459336D01*
X144039336Y-117605589D01*
X143867362Y-117720498D01*
X143676274Y-117799650D01*
X143498687Y-117834973D01*
X143473417Y-117840000D01*
X143266583Y-117840000D01*
X143241313Y-117834973D01*
X143063726Y-117799650D01*
X142872638Y-117720498D01*
X142700664Y-117605589D01*
X142673377Y-117578302D01*
X142654446Y-117562766D01*
X142632835Y-117551215D01*
X142609386Y-117544102D01*
X142585000Y-117541700D01*
X142560614Y-117544102D01*
X142537165Y-117551215D01*
X142515554Y-117562766D01*
X142496623Y-117578302D01*
X142469336Y-117605589D01*
X142297362Y-117720498D01*
X142106274Y-117799650D01*
X141928687Y-117834973D01*
X141903417Y-117840000D01*
X141696583Y-117840000D01*
X141671313Y-117834973D01*
X141493726Y-117799650D01*
X141302638Y-117720498D01*
X141130664Y-117605589D01*
X140984411Y-117459336D01*
X140869502Y-117287362D01*
X140790350Y-117096274D01*
X140750000Y-116893416D01*
X140750000Y-116686584D01*
X140790350Y-116483726D01*
X140869502Y-116292638D01*
X140984411Y-116120664D01*
X141130664Y-115974411D01*
X141302638Y-115859502D01*
X141493726Y-115780350D01*
X141671313Y-115745027D01*
X141696583Y-115740000D01*
X141903417Y-115740000D01*
X141928687Y-115745027D01*
G37*
G36*
X125138687Y-115745027D02*
G01*
X125316274Y-115780350D01*
X125507362Y-115859502D01*
X125679336Y-115974411D01*
X125691623Y-115986698D01*
X125710554Y-116002234D01*
X125732165Y-116013785D01*
X125755614Y-116020898D01*
X125780000Y-116023300D01*
X125804386Y-116020898D01*
X125827835Y-116013785D01*
X125849446Y-116002234D01*
X125868377Y-115986698D01*
X125880664Y-115974411D01*
X126052638Y-115859502D01*
X126243726Y-115780350D01*
X126421313Y-115745027D01*
X126446583Y-115740000D01*
X126653417Y-115740000D01*
X126678687Y-115745027D01*
X126856274Y-115780350D01*
X127047362Y-115859502D01*
X127219336Y-115974411D01*
X127365589Y-116120664D01*
X127480498Y-116292638D01*
X127559650Y-116483726D01*
X127600000Y-116686584D01*
X127600000Y-116893416D01*
X127559650Y-117096274D01*
X127480498Y-117287362D01*
X127365589Y-117459336D01*
X127219336Y-117605589D01*
X127047362Y-117720498D01*
X126856274Y-117799650D01*
X126678687Y-117834973D01*
X126653417Y-117840000D01*
X126446583Y-117840000D01*
X126421313Y-117834973D01*
X126243726Y-117799650D01*
X126052638Y-117720498D01*
X125880664Y-117605589D01*
X125868377Y-117593302D01*
X125849446Y-117577766D01*
X125827835Y-117566215D01*
X125804386Y-117559102D01*
X125780000Y-117556700D01*
X125755614Y-117559102D01*
X125732165Y-117566215D01*
X125710554Y-117577766D01*
X125691623Y-117593302D01*
X125679336Y-117605589D01*
X125507362Y-117720498D01*
X125316274Y-117799650D01*
X125138687Y-117834973D01*
X125113417Y-117840000D01*
X124906583Y-117840000D01*
X124881313Y-117834973D01*
X124703726Y-117799650D01*
X124512638Y-117720498D01*
X124340664Y-117605589D01*
X124194411Y-117459336D01*
X124079502Y-117287362D01*
X124000350Y-117096274D01*
X123960000Y-116893416D01*
X123960000Y-116686584D01*
X124000350Y-116483726D01*
X124079502Y-116292638D01*
X124194411Y-116120664D01*
X124340664Y-115974411D01*
X124512638Y-115859502D01*
X124703726Y-115780350D01*
X124881313Y-115745027D01*
X124906583Y-115740000D01*
X125113417Y-115740000D01*
X125138687Y-115745027D01*
G37*
G36*
X139650000Y-117750000D02*
G01*
X138750000Y-117750000D01*
X138750000Y-116450000D01*
X139650000Y-116450000D01*
X139650000Y-117750000D01*
G37*
G36*
X138150000Y-117750000D02*
G01*
X137250000Y-117750000D01*
X137250000Y-116450000D01*
X138150000Y-116450000D01*
X138150000Y-117750000D01*
G37*
G36*
X129900000Y-117700000D02*
G01*
X128600000Y-117700000D01*
X128600000Y-116800000D01*
X129900000Y-116800000D01*
X129900000Y-117700000D01*
G37*
G36*
X136025000Y-116450000D02*
G01*
X134875000Y-116450000D01*
X134875000Y-115250000D01*
X136025000Y-115250000D01*
X136025000Y-116450000D01*
G37*
G36*
X129900000Y-116200000D02*
G01*
X128600000Y-116200000D01*
X128600000Y-115300000D01*
X129900000Y-115300000D01*
X129900000Y-116200000D01*
G37*
G36*
X138400000Y-115850000D02*
G01*
X137500000Y-115850000D01*
X137500000Y-114550000D01*
X138400000Y-114550000D01*
X138400000Y-115850000D01*
G37*
G36*
X139900000Y-115850000D02*
G01*
X139000000Y-115850000D01*
X139000000Y-114550000D01*
X139900000Y-114550000D01*
X139900000Y-115850000D01*
G37*
G36*
X125138687Y-113205027D02*
G01*
X125316274Y-113240350D01*
X125507362Y-113319502D01*
X125679336Y-113434411D01*
X125691623Y-113446698D01*
X125710554Y-113462234D01*
X125732165Y-113473785D01*
X125755614Y-113480898D01*
X125780000Y-113483300D01*
X125804386Y-113480898D01*
X125827835Y-113473785D01*
X125849446Y-113462234D01*
X125868377Y-113446698D01*
X125880664Y-113434411D01*
X126052638Y-113319502D01*
X126243726Y-113240350D01*
X126421313Y-113205027D01*
X126446583Y-113200000D01*
X126653417Y-113200000D01*
X126678687Y-113205027D01*
X126856274Y-113240350D01*
X127047362Y-113319502D01*
X127219336Y-113434411D01*
X127365589Y-113580664D01*
X127480498Y-113752638D01*
X127559650Y-113943726D01*
X127600000Y-114146584D01*
X127600000Y-114353416D01*
X127559650Y-114556274D01*
X127480498Y-114747362D01*
X127365589Y-114919336D01*
X127219336Y-115065589D01*
X127047362Y-115180498D01*
X126856274Y-115259650D01*
X126678687Y-115294973D01*
X126653417Y-115300000D01*
X126446583Y-115300000D01*
X126421313Y-115294973D01*
X126243726Y-115259650D01*
X126052638Y-115180498D01*
X125880664Y-115065589D01*
X125868377Y-115053302D01*
X125849446Y-115037766D01*
X125827835Y-115026215D01*
X125804386Y-115019102D01*
X125780000Y-115016700D01*
X125755614Y-115019102D01*
X125732165Y-115026215D01*
X125710554Y-115037766D01*
X125691623Y-115053302D01*
X125679336Y-115065589D01*
X125507362Y-115180498D01*
X125316274Y-115259650D01*
X125138687Y-115294973D01*
X125113417Y-115300000D01*
X124906583Y-115300000D01*
X124881313Y-115294973D01*
X124703726Y-115259650D01*
X124512638Y-115180498D01*
X124340664Y-115065589D01*
X124194411Y-114919336D01*
X124079502Y-114747362D01*
X124000350Y-114556274D01*
X123960000Y-114353416D01*
X123960000Y-114146584D01*
X124000350Y-113943726D01*
X124079502Y-113752638D01*
X124194411Y-113580664D01*
X124340664Y-113434411D01*
X124512638Y-113319502D01*
X124703726Y-113240350D01*
X124881313Y-113205027D01*
X124906583Y-113200000D01*
X125113417Y-113200000D01*
X125138687Y-113205027D01*
G37*
G36*
X141928687Y-113205027D02*
G01*
X142106274Y-113240350D01*
X142297362Y-113319502D01*
X142469336Y-113434411D01*
X142496623Y-113461698D01*
X142515554Y-113477234D01*
X142537165Y-113488785D01*
X142560614Y-113495898D01*
X142585000Y-113498300D01*
X142609386Y-113495898D01*
X142632835Y-113488785D01*
X142654446Y-113477234D01*
X142673377Y-113461698D01*
X142700664Y-113434411D01*
X142872638Y-113319502D01*
X143063726Y-113240350D01*
X143241313Y-113205027D01*
X143266583Y-113200000D01*
X143473417Y-113200000D01*
X143498687Y-113205027D01*
X143676274Y-113240350D01*
X143867362Y-113319502D01*
X144039336Y-113434411D01*
X144185589Y-113580664D01*
X144300498Y-113752638D01*
X144379650Y-113943726D01*
X144420000Y-114146584D01*
X144420000Y-114353416D01*
X144379650Y-114556274D01*
X144300498Y-114747362D01*
X144185589Y-114919336D01*
X144039336Y-115065589D01*
X143867362Y-115180498D01*
X143676274Y-115259650D01*
X143498687Y-115294973D01*
X143473417Y-115300000D01*
X143266583Y-115300000D01*
X143241313Y-115294973D01*
X143063726Y-115259650D01*
X142872638Y-115180498D01*
X142700664Y-115065589D01*
X142673377Y-115038302D01*
X142654446Y-115022766D01*
X142632835Y-115011215D01*
X142609386Y-115004102D01*
X142585000Y-115001700D01*
X142560614Y-115004102D01*
X142537165Y-115011215D01*
X142515554Y-115022766D01*
X142496623Y-115038302D01*
X142469336Y-115065589D01*
X142297362Y-115180498D01*
X142106274Y-115259650D01*
X141928687Y-115294973D01*
X141903417Y-115300000D01*
X141696583Y-115300000D01*
X141671313Y-115294973D01*
X141493726Y-115259650D01*
X141302638Y-115180498D01*
X141130664Y-115065589D01*
X140984411Y-114919336D01*
X140869502Y-114747362D01*
X140790350Y-114556274D01*
X140750000Y-114353416D01*
X140750000Y-114146584D01*
X140790350Y-113943726D01*
X140869502Y-113752638D01*
X140984411Y-113580664D01*
X141130664Y-113434411D01*
X141302638Y-113319502D01*
X141493726Y-113240350D01*
X141671313Y-113205027D01*
X141696583Y-113200000D01*
X141903417Y-113200000D01*
X141928687Y-113205027D01*
G37*
G36*
X134300000Y-114925000D02*
G01*
X133100000Y-114925000D01*
X133100000Y-113775000D01*
X134300000Y-113775000D01*
X134300000Y-114925000D01*
G37*
G36*
X129800000Y-114925000D02*
G01*
X128600000Y-114925000D01*
X128600000Y-113775000D01*
X129800000Y-113775000D01*
X129800000Y-114925000D01*
G37*
G36*
X132800000Y-114925000D02*
G01*
X131600000Y-114925000D01*
X131600000Y-113775000D01*
X132800000Y-113775000D01*
X132800000Y-114925000D01*
G37*
G36*
X131300000Y-114925000D02*
G01*
X130100000Y-114925000D01*
X130100000Y-113775000D01*
X131300000Y-113775000D01*
X131300000Y-114925000D01*
G37*
G36*
X135775000Y-114800000D02*
G01*
X134625000Y-114800000D01*
X134625000Y-113600000D01*
X135775000Y-113600000D01*
X135775000Y-114800000D01*
G37*
G36*
X137250000Y-114305000D02*
G01*
X136450000Y-114305000D01*
X136450000Y-113395000D01*
X137250000Y-113395000D01*
X137250000Y-114305000D01*
G37*
G36*
X139750000Y-114300000D02*
G01*
X138150000Y-114300000D01*
X138150000Y-112700000D01*
X139750000Y-112700000D01*
X139750000Y-114300000D01*
G37*
G36*
X134000000Y-113350000D02*
G01*
X133100000Y-113350000D01*
X133100000Y-112050000D01*
X134000000Y-112050000D01*
X134000000Y-113350000D01*
G37*
G36*
X131050000Y-113350000D02*
G01*
X130150000Y-113350000D01*
X130150000Y-112050000D01*
X131050000Y-112050000D01*
X131050000Y-113350000D01*
G37*
G36*
X129550000Y-113350000D02*
G01*
X128650000Y-113350000D01*
X128650000Y-112050000D01*
X129550000Y-112050000D01*
X129550000Y-113350000D01*
G37*
G36*
X132500000Y-113350000D02*
G01*
X131600000Y-113350000D01*
X131600000Y-112050000D01*
X132500000Y-112050000D01*
X132500000Y-113350000D01*
G37*
G36*
X137750000Y-113005000D02*
G01*
X135899999Y-113005000D01*
X135875613Y-113007402D01*
X135852164Y-113014515D01*
X135830553Y-113026066D01*
X135811611Y-113041611D01*
X135796066Y-113060553D01*
X135784515Y-113082164D01*
X135777402Y-113105613D01*
X135775000Y-113129999D01*
X135775000Y-113300000D01*
X134625000Y-113300000D01*
X134625000Y-112100000D01*
X135825001Y-112100000D01*
X135849387Y-112097598D01*
X135857952Y-112095000D01*
X137750000Y-112095000D01*
X137750000Y-113005000D01*
G37*
G36*
X125138687Y-110665027D02*
G01*
X125316274Y-110700350D01*
X125507362Y-110779502D01*
X125679336Y-110894411D01*
X125691623Y-110906698D01*
X125710554Y-110922234D01*
X125732165Y-110933785D01*
X125755614Y-110940898D01*
X125780000Y-110943300D01*
X125804386Y-110940898D01*
X125827835Y-110933785D01*
X125849446Y-110922234D01*
X125868377Y-110906698D01*
X125880664Y-110894411D01*
X126052638Y-110779502D01*
X126243726Y-110700350D01*
X126421313Y-110665027D01*
X126446583Y-110660000D01*
X126653417Y-110660000D01*
X126678687Y-110665027D01*
X126856274Y-110700350D01*
X127047362Y-110779502D01*
X127219336Y-110894411D01*
X127365589Y-111040664D01*
X127480498Y-111212638D01*
X127559650Y-111403726D01*
X127600000Y-111606584D01*
X127600000Y-111813416D01*
X127559650Y-112016274D01*
X127480498Y-112207362D01*
X127365589Y-112379336D01*
X127219336Y-112525589D01*
X127047362Y-112640498D01*
X126856274Y-112719650D01*
X126678687Y-112754973D01*
X126653417Y-112760000D01*
X126446583Y-112760000D01*
X126421313Y-112754973D01*
X126243726Y-112719650D01*
X126052638Y-112640498D01*
X125880664Y-112525589D01*
X125868377Y-112513302D01*
X125849446Y-112497766D01*
X125827835Y-112486215D01*
X125804386Y-112479102D01*
X125780000Y-112476700D01*
X125755614Y-112479102D01*
X125732165Y-112486215D01*
X125710554Y-112497766D01*
X125691623Y-112513302D01*
X125679336Y-112525589D01*
X125507362Y-112640498D01*
X125316274Y-112719650D01*
X125138687Y-112754973D01*
X125113417Y-112760000D01*
X124906583Y-112760000D01*
X124881313Y-112754973D01*
X124703726Y-112719650D01*
X124512638Y-112640498D01*
X124340664Y-112525589D01*
X124194411Y-112379336D01*
X124079502Y-112207362D01*
X124000350Y-112016274D01*
X123960000Y-111813416D01*
X123960000Y-111606584D01*
X124000350Y-111403726D01*
X124079502Y-111212638D01*
X124194411Y-111040664D01*
X124340664Y-110894411D01*
X124512638Y-110779502D01*
X124703726Y-110700350D01*
X124881313Y-110665027D01*
X124906583Y-110660000D01*
X125113417Y-110660000D01*
X125138687Y-110665027D01*
G37*
G36*
X141928687Y-110665027D02*
G01*
X142106274Y-110700350D01*
X142297362Y-110779502D01*
X142469336Y-110894411D01*
X142496623Y-110921698D01*
X142515554Y-110937234D01*
X142537165Y-110948785D01*
X142560614Y-110955898D01*
X142585000Y-110958300D01*
X142609386Y-110955898D01*
X142632835Y-110948785D01*
X142654446Y-110937234D01*
X142673377Y-110921698D01*
X142700664Y-110894411D01*
X142872638Y-110779502D01*
X143063726Y-110700350D01*
X143241313Y-110665027D01*
X143266583Y-110660000D01*
X143473417Y-110660000D01*
X143498687Y-110665027D01*
X143676274Y-110700350D01*
X143867362Y-110779502D01*
X144039336Y-110894411D01*
X144185589Y-111040664D01*
X144300498Y-111212638D01*
X144379650Y-111403726D01*
X144420000Y-111606584D01*
X144420000Y-111813416D01*
X144379650Y-112016274D01*
X144300498Y-112207362D01*
X144185589Y-112379336D01*
X144039336Y-112525589D01*
X143867362Y-112640498D01*
X143676274Y-112719650D01*
X143498687Y-112754973D01*
X143473417Y-112760000D01*
X143266583Y-112760000D01*
X143241313Y-112754973D01*
X143063726Y-112719650D01*
X142872638Y-112640498D01*
X142700664Y-112525589D01*
X142673377Y-112498302D01*
X142654446Y-112482766D01*
X142632835Y-112471215D01*
X142609386Y-112464102D01*
X142585000Y-112461700D01*
X142560614Y-112464102D01*
X142537165Y-112471215D01*
X142515554Y-112482766D01*
X142496623Y-112498302D01*
X142469336Y-112525589D01*
X142297362Y-112640498D01*
X142106274Y-112719650D01*
X141928687Y-112754973D01*
X141903417Y-112760000D01*
X141696583Y-112760000D01*
X141671313Y-112754973D01*
X141493726Y-112719650D01*
X141302638Y-112640498D01*
X141130664Y-112525589D01*
X140984411Y-112379336D01*
X140869502Y-112207362D01*
X140790350Y-112016274D01*
X140750000Y-111813416D01*
X140750000Y-111606584D01*
X140790350Y-111403726D01*
X140869502Y-111212638D01*
X140984411Y-111040664D01*
X141130664Y-110894411D01*
X141302638Y-110779502D01*
X141493726Y-110700350D01*
X141671313Y-110665027D01*
X141696583Y-110660000D01*
X141903417Y-110660000D01*
X141928687Y-110665027D01*
G37*
G36*
X139750000Y-112200000D02*
G01*
X138150000Y-112200000D01*
X138150000Y-110600000D01*
X139750000Y-110600000D01*
X139750000Y-112200000D01*
G37*
G36*
X130150000Y-107875001D02*
G01*
X130152402Y-107899387D01*
X130159515Y-107922836D01*
X130171066Y-107944447D01*
X130186611Y-107963389D01*
X130205553Y-107978934D01*
X130227164Y-107990485D01*
X130250613Y-107997598D01*
X130274999Y-108000000D01*
X132550000Y-108000000D01*
X132550000Y-110000000D01*
X130274999Y-110000000D01*
X130250613Y-110002402D01*
X130227164Y-110009515D01*
X130205553Y-110021066D01*
X130186611Y-110036611D01*
X130171066Y-110055553D01*
X130159515Y-110077164D01*
X130152402Y-110100613D01*
X130150000Y-110124999D01*
X130150000Y-110450000D01*
X128550000Y-110450000D01*
X128550000Y-108850000D01*
X130225001Y-108850000D01*
X130249387Y-108847598D01*
X130272836Y-108840485D01*
X130294447Y-108828934D01*
X130313389Y-108813389D01*
X130328934Y-108794447D01*
X130340485Y-108772836D01*
X130347598Y-108749387D01*
X130350000Y-108725001D01*
X130350000Y-108474999D01*
X130347598Y-108450613D01*
X130340485Y-108427164D01*
X130328934Y-108405553D01*
X130313389Y-108386611D01*
X130294447Y-108371066D01*
X130272836Y-108359515D01*
X130249387Y-108352402D01*
X130225001Y-108350000D01*
X128550000Y-108350000D01*
X128550000Y-106750000D01*
X130150000Y-106750000D01*
X130150000Y-107875001D01*
G37*
G36*
X139750000Y-108200000D02*
G01*
X138074999Y-108200000D01*
X138050613Y-108202402D01*
X138027164Y-108209515D01*
X138005553Y-108221066D01*
X137986611Y-108236611D01*
X137971066Y-108255553D01*
X137959515Y-108277164D01*
X137952402Y-108300613D01*
X137950000Y-108324999D01*
X137950000Y-108575001D01*
X137952402Y-108599387D01*
X137959515Y-108622836D01*
X137971066Y-108644447D01*
X137986611Y-108663389D01*
X138005553Y-108678934D01*
X138027164Y-108690485D01*
X138050613Y-108697598D01*
X138074999Y-108700000D01*
X139750000Y-108700000D01*
X139750000Y-110300000D01*
X138150000Y-110300000D01*
X138150000Y-110124999D01*
X138147598Y-110100613D01*
X138140485Y-110077164D01*
X138128934Y-110055553D01*
X138113389Y-110036611D01*
X138094447Y-110021066D01*
X138072836Y-110009515D01*
X138049387Y-110002402D01*
X138025001Y-110000000D01*
X135750000Y-110000000D01*
X135750000Y-108000000D01*
X138025001Y-108000000D01*
X138049387Y-107997598D01*
X138072836Y-107990485D01*
X138094447Y-107978934D01*
X138113389Y-107963389D01*
X138128934Y-107944447D01*
X138140485Y-107922836D01*
X138147598Y-107899387D01*
X138150000Y-107875001D01*
X138150000Y-106600000D01*
X139750000Y-106600000D01*
X139750000Y-108200000D01*
G37*
G36*
X125138687Y-108125027D02*
G01*
X125316274Y-108160350D01*
X125507362Y-108239502D01*
X125679336Y-108354411D01*
X125691623Y-108366698D01*
X125710554Y-108382234D01*
X125732165Y-108393785D01*
X125755614Y-108400898D01*
X125780000Y-108403300D01*
X125804386Y-108400898D01*
X125827835Y-108393785D01*
X125849446Y-108382234D01*
X125868377Y-108366698D01*
X125880664Y-108354411D01*
X126052638Y-108239502D01*
X126243726Y-108160350D01*
X126421313Y-108125027D01*
X126446583Y-108120000D01*
X126653417Y-108120000D01*
X126678687Y-108125027D01*
X126856274Y-108160350D01*
X127047362Y-108239502D01*
X127219336Y-108354411D01*
X127365589Y-108500664D01*
X127480498Y-108672638D01*
X127559650Y-108863726D01*
X127600000Y-109066584D01*
X127600000Y-109273416D01*
X127559650Y-109476274D01*
X127480498Y-109667362D01*
X127365589Y-109839336D01*
X127219336Y-109985589D01*
X127047362Y-110100498D01*
X126856274Y-110179650D01*
X126678687Y-110214973D01*
X126653417Y-110220000D01*
X126446583Y-110220000D01*
X126421313Y-110214973D01*
X126243726Y-110179650D01*
X126052638Y-110100498D01*
X125880664Y-109985589D01*
X125868377Y-109973302D01*
X125849446Y-109957766D01*
X125827835Y-109946215D01*
X125804386Y-109939102D01*
X125780000Y-109936700D01*
X125755614Y-109939102D01*
X125732165Y-109946215D01*
X125710554Y-109957766D01*
X125691623Y-109973302D01*
X125679336Y-109985589D01*
X125507362Y-110100498D01*
X125316274Y-110179650D01*
X125138687Y-110214973D01*
X125113417Y-110220000D01*
X124906583Y-110220000D01*
X124881313Y-110214973D01*
X124703726Y-110179650D01*
X124512638Y-110100498D01*
X124340664Y-109985589D01*
X124194411Y-109839336D01*
X124079502Y-109667362D01*
X124000350Y-109476274D01*
X123960000Y-109273416D01*
X123960000Y-109066584D01*
X124000350Y-108863726D01*
X124079502Y-108672638D01*
X124194411Y-108500664D01*
X124340664Y-108354411D01*
X124512638Y-108239502D01*
X124703726Y-108160350D01*
X124881313Y-108125027D01*
X124906583Y-108120000D01*
X125113417Y-108120000D01*
X125138687Y-108125027D01*
G37*
G36*
X141928687Y-108125027D02*
G01*
X142106274Y-108160350D01*
X142297362Y-108239502D01*
X142469336Y-108354411D01*
X142496623Y-108381698D01*
X142515554Y-108397234D01*
X142537165Y-108408785D01*
X142560614Y-108415898D01*
X142585000Y-108418300D01*
X142609386Y-108415898D01*
X142632835Y-108408785D01*
X142654446Y-108397234D01*
X142673377Y-108381698D01*
X142700664Y-108354411D01*
X142872638Y-108239502D01*
X143063726Y-108160350D01*
X143241313Y-108125027D01*
X143266583Y-108120000D01*
X143473417Y-108120000D01*
X143498687Y-108125027D01*
X143676274Y-108160350D01*
X143867362Y-108239502D01*
X144039336Y-108354411D01*
X144185589Y-108500664D01*
X144300498Y-108672638D01*
X144379650Y-108863726D01*
X144420000Y-109066584D01*
X144420000Y-109273416D01*
X144379650Y-109476274D01*
X144300498Y-109667362D01*
X144185589Y-109839336D01*
X144039336Y-109985589D01*
X143867362Y-110100498D01*
X143676274Y-110179650D01*
X143498687Y-110214973D01*
X143473417Y-110220000D01*
X143266583Y-110220000D01*
X143241313Y-110214973D01*
X143063726Y-110179650D01*
X142872638Y-110100498D01*
X142700664Y-109985589D01*
X142673377Y-109958302D01*
X142654446Y-109942766D01*
X142632835Y-109931215D01*
X142609386Y-109924102D01*
X142585000Y-109921700D01*
X142560614Y-109924102D01*
X142537165Y-109931215D01*
X142515554Y-109942766D01*
X142496623Y-109958302D01*
X142469336Y-109985589D01*
X142297362Y-110100498D01*
X142106274Y-110179650D01*
X141928687Y-110214973D01*
X141903417Y-110220000D01*
X141696583Y-110220000D01*
X141671313Y-110214973D01*
X141493726Y-110179650D01*
X141302638Y-110100498D01*
X141130664Y-109985589D01*
X140984411Y-109839336D01*
X140869502Y-109667362D01*
X140790350Y-109476274D01*
X140750000Y-109273416D01*
X140750000Y-109066584D01*
X140790350Y-108863726D01*
X140869502Y-108672638D01*
X140984411Y-108500664D01*
X141130664Y-108354411D01*
X141302638Y-108239502D01*
X141493726Y-108160350D01*
X141671313Y-108125027D01*
X141696583Y-108120000D01*
X141903417Y-108120000D01*
X141928687Y-108125027D01*
G37*
G36*
X141928687Y-105585027D02*
G01*
X142106274Y-105620350D01*
X142297362Y-105699502D01*
X142469336Y-105814411D01*
X142496623Y-105841698D01*
X142515554Y-105857234D01*
X142537165Y-105868785D01*
X142560614Y-105875898D01*
X142585000Y-105878300D01*
X142609386Y-105875898D01*
X142632835Y-105868785D01*
X142654446Y-105857234D01*
X142673377Y-105841698D01*
X142700664Y-105814411D01*
X142872638Y-105699502D01*
X143063726Y-105620350D01*
X143241313Y-105585027D01*
X143266583Y-105580000D01*
X143473417Y-105580000D01*
X143498687Y-105585027D01*
X143676274Y-105620350D01*
X143867362Y-105699502D01*
X144039336Y-105814411D01*
X144185589Y-105960664D01*
X144300498Y-106132638D01*
X144379650Y-106323726D01*
X144420000Y-106526584D01*
X144420000Y-106733416D01*
X144379650Y-106936274D01*
X144300498Y-107127362D01*
X144185589Y-107299336D01*
X144039336Y-107445589D01*
X143867362Y-107560498D01*
X143676274Y-107639650D01*
X143498687Y-107674973D01*
X143473417Y-107680000D01*
X143266583Y-107680000D01*
X143241313Y-107674973D01*
X143063726Y-107639650D01*
X142872638Y-107560498D01*
X142700664Y-107445589D01*
X142673377Y-107418302D01*
X142654446Y-107402766D01*
X142632835Y-107391215D01*
X142609386Y-107384102D01*
X142585000Y-107381700D01*
X142560614Y-107384102D01*
X142537165Y-107391215D01*
X142515554Y-107402766D01*
X142496623Y-107418302D01*
X142469336Y-107445589D01*
X142297362Y-107560498D01*
X142106274Y-107639650D01*
X141928687Y-107674973D01*
X141903417Y-107680000D01*
X141696583Y-107680000D01*
X141671313Y-107674973D01*
X141493726Y-107639650D01*
X141302638Y-107560498D01*
X141130664Y-107445589D01*
X140984411Y-107299336D01*
X140869502Y-107127362D01*
X140790350Y-106936274D01*
X140750000Y-106733416D01*
X140750000Y-106526584D01*
X140790350Y-106323726D01*
X140869502Y-106132638D01*
X140984411Y-105960664D01*
X141130664Y-105814411D01*
X141302638Y-105699502D01*
X141493726Y-105620350D01*
X141671313Y-105585027D01*
X141696583Y-105580000D01*
X141903417Y-105580000D01*
X141928687Y-105585027D01*
G37*
G36*
X125138687Y-105585027D02*
G01*
X125316274Y-105620350D01*
X125507362Y-105699502D01*
X125679336Y-105814411D01*
X125691623Y-105826698D01*
X125710554Y-105842234D01*
X125732165Y-105853785D01*
X125755614Y-105860898D01*
X125780000Y-105863300D01*
X125804386Y-105860898D01*
X125827835Y-105853785D01*
X125849446Y-105842234D01*
X125868377Y-105826698D01*
X125880664Y-105814411D01*
X126052638Y-105699502D01*
X126243726Y-105620350D01*
X126421313Y-105585027D01*
X126446583Y-105580000D01*
X126653417Y-105580000D01*
X126678687Y-105585027D01*
X126856274Y-105620350D01*
X127047362Y-105699502D01*
X127219336Y-105814411D01*
X127365589Y-105960664D01*
X127480498Y-106132638D01*
X127559650Y-106323726D01*
X127600000Y-106526584D01*
X127600000Y-106733416D01*
X127559650Y-106936274D01*
X127480498Y-107127362D01*
X127365589Y-107299336D01*
X127219336Y-107445589D01*
X127047362Y-107560498D01*
X126856274Y-107639650D01*
X126678687Y-107674973D01*
X126653417Y-107680000D01*
X126446583Y-107680000D01*
X126421313Y-107674973D01*
X126243726Y-107639650D01*
X126052638Y-107560498D01*
X125880664Y-107445589D01*
X125868377Y-107433302D01*
X125849446Y-107417766D01*
X125827835Y-107406215D01*
X125804386Y-107399102D01*
X125780000Y-107396700D01*
X125755614Y-107399102D01*
X125732165Y-107406215D01*
X125710554Y-107417766D01*
X125691623Y-107433302D01*
X125679336Y-107445589D01*
X125507362Y-107560498D01*
X125316274Y-107639650D01*
X125138687Y-107674973D01*
X125113417Y-107680000D01*
X124906583Y-107680000D01*
X124881313Y-107674973D01*
X124703726Y-107639650D01*
X124512638Y-107560498D01*
X124340664Y-107445589D01*
X124194411Y-107299336D01*
X124079502Y-107127362D01*
X124000350Y-106936274D01*
X123960000Y-106733416D01*
X123960000Y-106526584D01*
X124000350Y-106323726D01*
X124079502Y-106132638D01*
X124194411Y-105960664D01*
X124340664Y-105814411D01*
X124512638Y-105699502D01*
X124703726Y-105620350D01*
X124881313Y-105585027D01*
X124906583Y-105580000D01*
X125113417Y-105580000D01*
X125138687Y-105585027D01*
G37*
G36*
X131790847Y-103818826D02*
G01*
X131903679Y-103865562D01*
X131903680Y-103865563D01*
X132005227Y-103933414D01*
X132091586Y-104019773D01*
X132091587Y-104019775D01*
X132141067Y-104093827D01*
X132156613Y-104112769D01*
X132175554Y-104128314D01*
X132197165Y-104139865D01*
X132220614Y-104146978D01*
X132245000Y-104149380D01*
X132269386Y-104146978D01*
X132292835Y-104139865D01*
X132314446Y-104128314D01*
X132333388Y-104112768D01*
X132348933Y-104093827D01*
X132398413Y-104019775D01*
X132398414Y-104019773D01*
X132484773Y-103933414D01*
X132586320Y-103865563D01*
X132586321Y-103865562D01*
X132699153Y-103818826D01*
X132818934Y-103795000D01*
X132941066Y-103795000D01*
X133060847Y-103818826D01*
X133173679Y-103865562D01*
X133173680Y-103865563D01*
X133275227Y-103933414D01*
X133361586Y-104019773D01*
X133361587Y-104019775D01*
X133411067Y-104093827D01*
X133426613Y-104112769D01*
X133445554Y-104128314D01*
X133467165Y-104139865D01*
X133490614Y-104146978D01*
X133515000Y-104149380D01*
X133539386Y-104146978D01*
X133562835Y-104139865D01*
X133584446Y-104128314D01*
X133603388Y-104112768D01*
X133618933Y-104093827D01*
X133668413Y-104019775D01*
X133668414Y-104019773D01*
X133754773Y-103933414D01*
X133856320Y-103865563D01*
X133856321Y-103865562D01*
X133969153Y-103818826D01*
X134088934Y-103795000D01*
X134211066Y-103795000D01*
X134330847Y-103818826D01*
X134443679Y-103865562D01*
X134443680Y-103865563D01*
X134545227Y-103933414D01*
X134631586Y-104019773D01*
X134631587Y-104019775D01*
X134681067Y-104093827D01*
X134696613Y-104112769D01*
X134715554Y-104128314D01*
X134737165Y-104139865D01*
X134760614Y-104146978D01*
X134785000Y-104149380D01*
X134809386Y-104146978D01*
X134832835Y-104139865D01*
X134854446Y-104128314D01*
X134873388Y-104112768D01*
X134888933Y-104093827D01*
X134938413Y-104019775D01*
X134938414Y-104019773D01*
X135024773Y-103933414D01*
X135126320Y-103865563D01*
X135126321Y-103865562D01*
X135239153Y-103818826D01*
X135358934Y-103795000D01*
X135481066Y-103795000D01*
X135600847Y-103818826D01*
X135713679Y-103865562D01*
X135713680Y-103865563D01*
X135815227Y-103933414D01*
X135901586Y-104019773D01*
X135901587Y-104019775D01*
X135951067Y-104093827D01*
X135966613Y-104112769D01*
X135985554Y-104128314D01*
X136007165Y-104139865D01*
X136030614Y-104146978D01*
X136055000Y-104149380D01*
X136079386Y-104146978D01*
X136102835Y-104139865D01*
X136124446Y-104128314D01*
X136143388Y-104112768D01*
X136158933Y-104093827D01*
X136208413Y-104019775D01*
X136208414Y-104019773D01*
X136294773Y-103933414D01*
X136396320Y-103865563D01*
X136396321Y-103865562D01*
X136509153Y-103818826D01*
X136628934Y-103795000D01*
X136751066Y-103795000D01*
X136870847Y-103818826D01*
X136983679Y-103865562D01*
X136983680Y-103865563D01*
X137085227Y-103933414D01*
X137171586Y-104019773D01*
X137171587Y-104019775D01*
X137239438Y-104121321D01*
X137286174Y-104234153D01*
X137310000Y-104353934D01*
X137310000Y-104476066D01*
X137286174Y-104595847D01*
X137239438Y-104708679D01*
X137233723Y-104717232D01*
X137171586Y-104810227D01*
X137085227Y-104896586D01*
X137071754Y-104905588D01*
X137011173Y-104946067D01*
X136992231Y-104961613D01*
X136976686Y-104980554D01*
X136965135Y-105002165D01*
X136958022Y-105025614D01*
X136955620Y-105050000D01*
X136958022Y-105074386D01*
X136965135Y-105097835D01*
X136976686Y-105119446D01*
X136992232Y-105138388D01*
X137011174Y-105153933D01*
X137085227Y-105203414D01*
X137171586Y-105289773D01*
X137171587Y-105289775D01*
X137239438Y-105391321D01*
X137286174Y-105504153D01*
X137310000Y-105623934D01*
X137310000Y-105746066D01*
X137286174Y-105865847D01*
X137239438Y-105978679D01*
X137233723Y-105987232D01*
X137171586Y-106080227D01*
X137085227Y-106166586D01*
X137017375Y-106211923D01*
X136983679Y-106234438D01*
X136870847Y-106281174D01*
X136751066Y-106305000D01*
X136628934Y-106305000D01*
X136509153Y-106281174D01*
X136396321Y-106234438D01*
X136362625Y-106211923D01*
X136294773Y-106166586D01*
X136208414Y-106080227D01*
X136158933Y-106006173D01*
X136143387Y-105987231D01*
X136124446Y-105971686D01*
X136102835Y-105960135D01*
X136079386Y-105953022D01*
X136055000Y-105950620D01*
X136030614Y-105953022D01*
X136007165Y-105960135D01*
X135985554Y-105971686D01*
X135966612Y-105987232D01*
X135951067Y-106006173D01*
X135901586Y-106080227D01*
X135815227Y-106166586D01*
X135747375Y-106211923D01*
X135713679Y-106234438D01*
X135600847Y-106281174D01*
X135481066Y-106305000D01*
X135358934Y-106305000D01*
X135239153Y-106281174D01*
X135126321Y-106234438D01*
X135092625Y-106211923D01*
X135024773Y-106166586D01*
X134938414Y-106080227D01*
X134888933Y-106006173D01*
X134873387Y-105987231D01*
X134854446Y-105971686D01*
X134832835Y-105960135D01*
X134809386Y-105953022D01*
X134785000Y-105950620D01*
X134760614Y-105953022D01*
X134737165Y-105960135D01*
X134715554Y-105971686D01*
X134696612Y-105987232D01*
X134681067Y-106006173D01*
X134631586Y-106080227D01*
X134545227Y-106166586D01*
X134477375Y-106211923D01*
X134443679Y-106234438D01*
X134330847Y-106281174D01*
X134211066Y-106305000D01*
X134088934Y-106305000D01*
X133969153Y-106281174D01*
X133856321Y-106234438D01*
X133822625Y-106211923D01*
X133754773Y-106166586D01*
X133668414Y-106080227D01*
X133618933Y-106006173D01*
X133603387Y-105987231D01*
X133584446Y-105971686D01*
X133562835Y-105960135D01*
X133539386Y-105953022D01*
X133515000Y-105950620D01*
X133490614Y-105953022D01*
X133467165Y-105960135D01*
X133445554Y-105971686D01*
X133426612Y-105987232D01*
X133411067Y-106006173D01*
X133361586Y-106080227D01*
X133275227Y-106166586D01*
X133207375Y-106211923D01*
X133173679Y-106234438D01*
X133060847Y-106281174D01*
X132941066Y-106305000D01*
X132818934Y-106305000D01*
X132699153Y-106281174D01*
X132586321Y-106234438D01*
X132552625Y-106211923D01*
X132484773Y-106166586D01*
X132398414Y-106080227D01*
X132348933Y-106006173D01*
X132333387Y-105987231D01*
X132314446Y-105971686D01*
X132292835Y-105960135D01*
X132269386Y-105953022D01*
X132245000Y-105950620D01*
X132220614Y-105953022D01*
X132197165Y-105960135D01*
X132175554Y-105971686D01*
X132156612Y-105987232D01*
X132141067Y-106006173D01*
X132091586Y-106080227D01*
X132005227Y-106166586D01*
X131937375Y-106211923D01*
X131903679Y-106234438D01*
X131790847Y-106281174D01*
X131671066Y-106305000D01*
X131548934Y-106305000D01*
X131429153Y-106281174D01*
X131316321Y-106234438D01*
X131282625Y-106211923D01*
X131214773Y-106166586D01*
X131128414Y-106080227D01*
X131066277Y-105987232D01*
X131060562Y-105978679D01*
X131013826Y-105865847D01*
X130990000Y-105746066D01*
X130990000Y-105623934D01*
X131013826Y-105504153D01*
X131060562Y-105391321D01*
X131128413Y-105289775D01*
X131128414Y-105289773D01*
X131214773Y-105203414D01*
X131288826Y-105153933D01*
X131307769Y-105138387D01*
X131323314Y-105119446D01*
X131334865Y-105097835D01*
X131341978Y-105074386D01*
X131344380Y-105050000D01*
X131875620Y-105050000D01*
X131878022Y-105074386D01*
X131885135Y-105097835D01*
X131896686Y-105119446D01*
X131912232Y-105138388D01*
X131931174Y-105153933D01*
X132005227Y-105203414D01*
X132091586Y-105289773D01*
X132091587Y-105289775D01*
X132141067Y-105363827D01*
X132156613Y-105382769D01*
X132175554Y-105398314D01*
X132197165Y-105409865D01*
X132220614Y-105416978D01*
X132245000Y-105419380D01*
X132269386Y-105416978D01*
X132292835Y-105409865D01*
X132314446Y-105398314D01*
X132333388Y-105382768D01*
X132348933Y-105363827D01*
X132398413Y-105289775D01*
X132398414Y-105289773D01*
X132484773Y-105203414D01*
X132558826Y-105153933D01*
X132577769Y-105138387D01*
X132593314Y-105119446D01*
X132604865Y-105097835D01*
X132611978Y-105074386D01*
X132614380Y-105050000D01*
X133145620Y-105050000D01*
X133148022Y-105074386D01*
X133155135Y-105097835D01*
X133166686Y-105119446D01*
X133182232Y-105138388D01*
X133201174Y-105153933D01*
X133275227Y-105203414D01*
X133361586Y-105289773D01*
X133361587Y-105289775D01*
X133411067Y-105363827D01*
X133426613Y-105382769D01*
X133445554Y-105398314D01*
X133467165Y-105409865D01*
X133490614Y-105416978D01*
X133515000Y-105419380D01*
X133539386Y-105416978D01*
X133562835Y-105409865D01*
X133584446Y-105398314D01*
X133603388Y-105382768D01*
X133618933Y-105363827D01*
X133668413Y-105289775D01*
X133668414Y-105289773D01*
X133754773Y-105203414D01*
X133828826Y-105153933D01*
X133847769Y-105138387D01*
X133863314Y-105119446D01*
X133874865Y-105097835D01*
X133881978Y-105074386D01*
X133884380Y-105050000D01*
X134415620Y-105050000D01*
X134418022Y-105074386D01*
X134425135Y-105097835D01*
X134436686Y-105119446D01*
X134452232Y-105138388D01*
X134471174Y-105153933D01*
X134545227Y-105203414D01*
X134631586Y-105289773D01*
X134631587Y-105289775D01*
X134681067Y-105363827D01*
X134696613Y-105382769D01*
X134715554Y-105398314D01*
X134737165Y-105409865D01*
X134760614Y-105416978D01*
X134785000Y-105419380D01*
X134809386Y-105416978D01*
X134832835Y-105409865D01*
X134854446Y-105398314D01*
X134873388Y-105382768D01*
X134888933Y-105363827D01*
X134938413Y-105289775D01*
X134938414Y-105289773D01*
X135024773Y-105203414D01*
X135098826Y-105153933D01*
X135117769Y-105138387D01*
X135133314Y-105119446D01*
X135144865Y-105097835D01*
X135151978Y-105074386D01*
X135154380Y-105050000D01*
X135685620Y-105050000D01*
X135688022Y-105074386D01*
X135695135Y-105097835D01*
X135706686Y-105119446D01*
X135722232Y-105138388D01*
X135741174Y-105153933D01*
X135815227Y-105203414D01*
X135901586Y-105289773D01*
X135901587Y-105289775D01*
X135951067Y-105363827D01*
X135966613Y-105382769D01*
X135985554Y-105398314D01*
X136007165Y-105409865D01*
X136030614Y-105416978D01*
X136055000Y-105419380D01*
X136079386Y-105416978D01*
X136102835Y-105409865D01*
X136124446Y-105398314D01*
X136143388Y-105382768D01*
X136158933Y-105363827D01*
X136208413Y-105289775D01*
X136208414Y-105289773D01*
X136294773Y-105203414D01*
X136368826Y-105153933D01*
X136387769Y-105138387D01*
X136403314Y-105119446D01*
X136414865Y-105097835D01*
X136421978Y-105074386D01*
X136424380Y-105050000D01*
X136421978Y-105025614D01*
X136414865Y-105002165D01*
X136403314Y-104980554D01*
X136387768Y-104961612D01*
X136368827Y-104946067D01*
X136308246Y-104905588D01*
X136294773Y-104896586D01*
X136208414Y-104810227D01*
X136158933Y-104736173D01*
X136143387Y-104717231D01*
X136124446Y-104701686D01*
X136102835Y-104690135D01*
X136079386Y-104683022D01*
X136055000Y-104680620D01*
X136030614Y-104683022D01*
X136007165Y-104690135D01*
X135985554Y-104701686D01*
X135966612Y-104717232D01*
X135951067Y-104736173D01*
X135901586Y-104810227D01*
X135815227Y-104896586D01*
X135801754Y-104905588D01*
X135741173Y-104946067D01*
X135722231Y-104961613D01*
X135706686Y-104980554D01*
X135695135Y-105002165D01*
X135688022Y-105025614D01*
X135685620Y-105050000D01*
X135154380Y-105050000D01*
X135151978Y-105025614D01*
X135144865Y-105002165D01*
X135133314Y-104980554D01*
X135117768Y-104961612D01*
X135098827Y-104946067D01*
X135038246Y-104905588D01*
X135024773Y-104896586D01*
X134938414Y-104810227D01*
X134888933Y-104736173D01*
X134873387Y-104717231D01*
X134854446Y-104701686D01*
X134832835Y-104690135D01*
X134809386Y-104683022D01*
X134785000Y-104680620D01*
X134760614Y-104683022D01*
X134737165Y-104690135D01*
X134715554Y-104701686D01*
X134696612Y-104717232D01*
X134681067Y-104736173D01*
X134631586Y-104810227D01*
X134545227Y-104896586D01*
X134531754Y-104905588D01*
X134471173Y-104946067D01*
X134452231Y-104961613D01*
X134436686Y-104980554D01*
X134425135Y-105002165D01*
X134418022Y-105025614D01*
X134415620Y-105050000D01*
X133884380Y-105050000D01*
X133881978Y-105025614D01*
X133874865Y-105002165D01*
X133863314Y-104980554D01*
X133847768Y-104961612D01*
X133828827Y-104946067D01*
X133768246Y-104905588D01*
X133754773Y-104896586D01*
X133668414Y-104810227D01*
X133618933Y-104736173D01*
X133603387Y-104717231D01*
X133584446Y-104701686D01*
X133562835Y-104690135D01*
X133539386Y-104683022D01*
X133515000Y-104680620D01*
X133490614Y-104683022D01*
X133467165Y-104690135D01*
X133445554Y-104701686D01*
X133426612Y-104717232D01*
X133411067Y-104736173D01*
X133361586Y-104810227D01*
X133275227Y-104896586D01*
X133261754Y-104905588D01*
X133201173Y-104946067D01*
X133182231Y-104961613D01*
X133166686Y-104980554D01*
X133155135Y-105002165D01*
X133148022Y-105025614D01*
X133145620Y-105050000D01*
X132614380Y-105050000D01*
X132611978Y-105025614D01*
X132604865Y-105002165D01*
X132593314Y-104980554D01*
X132577768Y-104961612D01*
X132558827Y-104946067D01*
X132498246Y-104905588D01*
X132484773Y-104896586D01*
X132398414Y-104810227D01*
X132348933Y-104736173D01*
X132333387Y-104717231D01*
X132314446Y-104701686D01*
X132292835Y-104690135D01*
X132269386Y-104683022D01*
X132245000Y-104680620D01*
X132220614Y-104683022D01*
X132197165Y-104690135D01*
X132175554Y-104701686D01*
X132156612Y-104717232D01*
X132141067Y-104736173D01*
X132091586Y-104810227D01*
X132005227Y-104896586D01*
X131991754Y-104905588D01*
X131931173Y-104946067D01*
X131912231Y-104961613D01*
X131896686Y-104980554D01*
X131885135Y-105002165D01*
X131878022Y-105025614D01*
X131875620Y-105050000D01*
X131344380Y-105050000D01*
X131341978Y-105025614D01*
X131334865Y-105002165D01*
X131323314Y-104980554D01*
X131307768Y-104961612D01*
X131288827Y-104946067D01*
X131228246Y-104905588D01*
X131214773Y-104896586D01*
X131128414Y-104810227D01*
X131066277Y-104717232D01*
X131060562Y-104708679D01*
X131013826Y-104595847D01*
X130990000Y-104476066D01*
X130990000Y-104353934D01*
X131013826Y-104234153D01*
X131060562Y-104121321D01*
X131128413Y-104019775D01*
X131128414Y-104019773D01*
X131214773Y-103933414D01*
X131316320Y-103865563D01*
X131316321Y-103865562D01*
X131429153Y-103818826D01*
X131548934Y-103795000D01*
X131671066Y-103795000D01*
X131790847Y-103818826D01*
G37*
G36*
X139400000Y-105850000D02*
G01*
X138100000Y-105850000D01*
X138100000Y-104950000D01*
X139400000Y-104950000D01*
X139400000Y-105850000D01*
G37*
G36*
X130250000Y-105850000D02*
G01*
X128950000Y-105850000D01*
X128950000Y-104950000D01*
X130250000Y-104950000D01*
X130250000Y-105850000D01*
G37*
G36*
X141928687Y-103045027D02*
G01*
X142106274Y-103080350D01*
X142297362Y-103159502D01*
X142469336Y-103274411D01*
X142496623Y-103301698D01*
X142515554Y-103317234D01*
X142537165Y-103328785D01*
X142560614Y-103335898D01*
X142585000Y-103338300D01*
X142609386Y-103335898D01*
X142632835Y-103328785D01*
X142654446Y-103317234D01*
X142673377Y-103301698D01*
X142700664Y-103274411D01*
X142872638Y-103159502D01*
X143063726Y-103080350D01*
X143241313Y-103045027D01*
X143266583Y-103040000D01*
X143473417Y-103040000D01*
X143498687Y-103045027D01*
X143676274Y-103080350D01*
X143867362Y-103159502D01*
X144039336Y-103274411D01*
X144185589Y-103420664D01*
X144300498Y-103592638D01*
X144379650Y-103783726D01*
X144420000Y-103986584D01*
X144420000Y-104193416D01*
X144379650Y-104396274D01*
X144300498Y-104587362D01*
X144185589Y-104759336D01*
X144039336Y-104905589D01*
X143867362Y-105020498D01*
X143676274Y-105099650D01*
X143498687Y-105134973D01*
X143473417Y-105140000D01*
X143266583Y-105140000D01*
X143241313Y-105134973D01*
X143063726Y-105099650D01*
X142872638Y-105020498D01*
X142700664Y-104905589D01*
X142673377Y-104878302D01*
X142654446Y-104862766D01*
X142632835Y-104851215D01*
X142609386Y-104844102D01*
X142585000Y-104841700D01*
X142560614Y-104844102D01*
X142537165Y-104851215D01*
X142515554Y-104862766D01*
X142496623Y-104878302D01*
X142469336Y-104905589D01*
X142297362Y-105020498D01*
X142106274Y-105099650D01*
X141928687Y-105134973D01*
X141903417Y-105140000D01*
X141696583Y-105140000D01*
X141671313Y-105134973D01*
X141493726Y-105099650D01*
X141302638Y-105020498D01*
X141130664Y-104905589D01*
X140984411Y-104759336D01*
X140869502Y-104587362D01*
X140790350Y-104396274D01*
X140750000Y-104193416D01*
X140750000Y-103986584D01*
X140790350Y-103783726D01*
X140869502Y-103592638D01*
X140984411Y-103420664D01*
X141130664Y-103274411D01*
X141302638Y-103159502D01*
X141493726Y-103080350D01*
X141671313Y-103045027D01*
X141696583Y-103040000D01*
X141903417Y-103040000D01*
X141928687Y-103045027D01*
G37*
G36*
X125138687Y-103045027D02*
G01*
X125316274Y-103080350D01*
X125507362Y-103159502D01*
X125679336Y-103274411D01*
X125691623Y-103286698D01*
X125710554Y-103302234D01*
X125732165Y-103313785D01*
X125755614Y-103320898D01*
X125780000Y-103323300D01*
X125804386Y-103320898D01*
X125827835Y-103313785D01*
X125849446Y-103302234D01*
X125868377Y-103286698D01*
X125880664Y-103274411D01*
X126052638Y-103159502D01*
X126243726Y-103080350D01*
X126421313Y-103045027D01*
X126446583Y-103040000D01*
X126653417Y-103040000D01*
X126678687Y-103045027D01*
X126856274Y-103080350D01*
X127047362Y-103159502D01*
X127219336Y-103274411D01*
X127365589Y-103420664D01*
X127480498Y-103592638D01*
X127559650Y-103783726D01*
X127600000Y-103986584D01*
X127600000Y-104193416D01*
X127559650Y-104396274D01*
X127480498Y-104587362D01*
X127365589Y-104759336D01*
X127219336Y-104905589D01*
X127047362Y-105020498D01*
X126856274Y-105099650D01*
X126678687Y-105134973D01*
X126653417Y-105140000D01*
X126446583Y-105140000D01*
X126421313Y-105134973D01*
X126243726Y-105099650D01*
X126052638Y-105020498D01*
X125880664Y-104905589D01*
X125868377Y-104893302D01*
X125849446Y-104877766D01*
X125827835Y-104866215D01*
X125804386Y-104859102D01*
X125780000Y-104856700D01*
X125755614Y-104859102D01*
X125732165Y-104866215D01*
X125710554Y-104877766D01*
X125691623Y-104893302D01*
X125679336Y-104905589D01*
X125507362Y-105020498D01*
X125316274Y-105099650D01*
X125138687Y-105134973D01*
X125113417Y-105140000D01*
X124906583Y-105140000D01*
X124881313Y-105134973D01*
X124703726Y-105099650D01*
X124512638Y-105020498D01*
X124340664Y-104905589D01*
X124194411Y-104759336D01*
X124079502Y-104587362D01*
X124000350Y-104396274D01*
X123960000Y-104193416D01*
X123960000Y-103986584D01*
X124000350Y-103783726D01*
X124079502Y-103592638D01*
X124194411Y-103420664D01*
X124340664Y-103274411D01*
X124512638Y-103159502D01*
X124703726Y-103080350D01*
X124881313Y-103045027D01*
X124906583Y-103040000D01*
X125113417Y-103040000D01*
X125138687Y-103045027D01*
G37*
G36*
X139400000Y-104350000D02*
G01*
X138100000Y-104350000D01*
X138100000Y-103450000D01*
X139400000Y-103450000D01*
X139400000Y-104350000D01*
G37*
G36*
X130250000Y-104350000D02*
G01*
X128950000Y-104350000D01*
X128950000Y-103450000D01*
X130250000Y-103450000D01*
X130250000Y-104350000D01*
G37*
G36*
X125138687Y-100505027D02*
G01*
X125316274Y-100540350D01*
X125507362Y-100619502D01*
X125679336Y-100734411D01*
X125691623Y-100746698D01*
X125710554Y-100762234D01*
X125732165Y-100773785D01*
X125755614Y-100780898D01*
X125780000Y-100783300D01*
X125804386Y-100780898D01*
X125827835Y-100773785D01*
X125849446Y-100762234D01*
X125868377Y-100746698D01*
X125880664Y-100734411D01*
X126052638Y-100619502D01*
X126243726Y-100540350D01*
X126421313Y-100505027D01*
X126446583Y-100500000D01*
X126653417Y-100500000D01*
X126678687Y-100505027D01*
X126856274Y-100540350D01*
X127047362Y-100619502D01*
X127219336Y-100734411D01*
X127365589Y-100880664D01*
X127480498Y-101052638D01*
X127559650Y-101243726D01*
X127600000Y-101446584D01*
X127600000Y-101653416D01*
X127559650Y-101856274D01*
X127480498Y-102047362D01*
X127365589Y-102219336D01*
X127219336Y-102365589D01*
X127047362Y-102480498D01*
X126856274Y-102559650D01*
X126678687Y-102594973D01*
X126653417Y-102600000D01*
X126446583Y-102600000D01*
X126421313Y-102594973D01*
X126243726Y-102559650D01*
X126052638Y-102480498D01*
X125880664Y-102365589D01*
X125868377Y-102353302D01*
X125849446Y-102337766D01*
X125827835Y-102326215D01*
X125804386Y-102319102D01*
X125780000Y-102316700D01*
X125755614Y-102319102D01*
X125732165Y-102326215D01*
X125710554Y-102337766D01*
X125691623Y-102353302D01*
X125679336Y-102365589D01*
X125507362Y-102480498D01*
X125316274Y-102559650D01*
X125138687Y-102594973D01*
X125113417Y-102600000D01*
X124906583Y-102600000D01*
X124881313Y-102594973D01*
X124703726Y-102559650D01*
X124512638Y-102480498D01*
X124340664Y-102365589D01*
X124194411Y-102219336D01*
X124079502Y-102047362D01*
X124000350Y-101856274D01*
X123960000Y-101653416D01*
X123960000Y-101446584D01*
X124000350Y-101243726D01*
X124079502Y-101052638D01*
X124194411Y-100880664D01*
X124340664Y-100734411D01*
X124512638Y-100619502D01*
X124703726Y-100540350D01*
X124881313Y-100505027D01*
X124906583Y-100500000D01*
X125113417Y-100500000D01*
X125138687Y-100505027D01*
G37*
G36*
X141928687Y-100505027D02*
G01*
X142106274Y-100540350D01*
X142297362Y-100619502D01*
X142469336Y-100734411D01*
X142496623Y-100761698D01*
X142515554Y-100777234D01*
X142537165Y-100788785D01*
X142560614Y-100795898D01*
X142585000Y-100798300D01*
X142609386Y-100795898D01*
X142632835Y-100788785D01*
X142654446Y-100777234D01*
X142673377Y-100761698D01*
X142700664Y-100734411D01*
X142872638Y-100619502D01*
X143063726Y-100540350D01*
X143241313Y-100505027D01*
X143266583Y-100500000D01*
X143473417Y-100500000D01*
X143498687Y-100505027D01*
X143676274Y-100540350D01*
X143867362Y-100619502D01*
X144039336Y-100734411D01*
X144185589Y-100880664D01*
X144300498Y-101052638D01*
X144379650Y-101243726D01*
X144420000Y-101446584D01*
X144420000Y-101653416D01*
X144379650Y-101856274D01*
X144300498Y-102047362D01*
X144185589Y-102219336D01*
X144039336Y-102365589D01*
X143867362Y-102480498D01*
X143676274Y-102559650D01*
X143498687Y-102594973D01*
X143473417Y-102600000D01*
X143266583Y-102600000D01*
X143241313Y-102594973D01*
X143063726Y-102559650D01*
X142872638Y-102480498D01*
X142700664Y-102365589D01*
X142673377Y-102338302D01*
X142654446Y-102322766D01*
X142632835Y-102311215D01*
X142609386Y-102304102D01*
X142585000Y-102301700D01*
X142560614Y-102304102D01*
X142537165Y-102311215D01*
X142515554Y-102322766D01*
X142496623Y-102338302D01*
X142469336Y-102365589D01*
X142297362Y-102480498D01*
X142106274Y-102559650D01*
X141928687Y-102594973D01*
X141903417Y-102600000D01*
X141696583Y-102600000D01*
X141671313Y-102594973D01*
X141493726Y-102559650D01*
X141302638Y-102480498D01*
X141130664Y-102365589D01*
X140984411Y-102219336D01*
X140869502Y-102047362D01*
X140790350Y-101856274D01*
X140750000Y-101653416D01*
X140750000Y-101446584D01*
X140790350Y-101243726D01*
X140869502Y-101052638D01*
X140984411Y-100880664D01*
X141130664Y-100734411D01*
X141302638Y-100619502D01*
X141493726Y-100540350D01*
X141671313Y-100505027D01*
X141696583Y-100500000D01*
X141903417Y-100500000D01*
X141928687Y-100505027D01*
G37*
G36*
X131738687Y-98955027D02*
G01*
X131916274Y-98990350D01*
X132107362Y-99069502D01*
X132279336Y-99184411D01*
X132425589Y-99330664D01*
X132540498Y-99502638D01*
X132619650Y-99693726D01*
X132660000Y-99896584D01*
X132660000Y-100103416D01*
X132619650Y-100306274D01*
X132540498Y-100497362D01*
X132425589Y-100669336D01*
X132408302Y-100686623D01*
X132392766Y-100705554D01*
X132381215Y-100727165D01*
X132374102Y-100750614D01*
X132371700Y-100775000D01*
X132374102Y-100799386D01*
X132381215Y-100822835D01*
X132392766Y-100844446D01*
X132408302Y-100863377D01*
X132425589Y-100880664D01*
X132540498Y-101052638D01*
X132619650Y-101243726D01*
X132660000Y-101446584D01*
X132660000Y-101653416D01*
X132619650Y-101856274D01*
X132540498Y-102047362D01*
X132425589Y-102219336D01*
X132279336Y-102365589D01*
X132107362Y-102480498D01*
X131916274Y-102559650D01*
X131738687Y-102594973D01*
X131713417Y-102600000D01*
X131506583Y-102600000D01*
X131481313Y-102594973D01*
X131303726Y-102559650D01*
X131112638Y-102480498D01*
X130940664Y-102365589D01*
X130794411Y-102219336D01*
X130679502Y-102047362D01*
X130600350Y-101856274D01*
X130560000Y-101653416D01*
X130560000Y-101446584D01*
X130600350Y-101243726D01*
X130679502Y-101052638D01*
X130794411Y-100880664D01*
X130811698Y-100863377D01*
X130827234Y-100844446D01*
X130838785Y-100822835D01*
X130845898Y-100799386D01*
X130848300Y-100775000D01*
X130845898Y-100750614D01*
X130838785Y-100727165D01*
X130827234Y-100705554D01*
X130811698Y-100686623D01*
X130794411Y-100669336D01*
X130679502Y-100497362D01*
X130600350Y-100306274D01*
X130560000Y-100103416D01*
X130560000Y-99896584D01*
X130600350Y-99693726D01*
X130679502Y-99502638D01*
X130794411Y-99330664D01*
X130940664Y-99184411D01*
X131112638Y-99069502D01*
X131303726Y-98990350D01*
X131481313Y-98955027D01*
X131506583Y-98950000D01*
X131713417Y-98950000D01*
X131738687Y-98955027D01*
G37*
G36*
X134278687Y-98955027D02*
G01*
X134456274Y-98990350D01*
X134647362Y-99069502D01*
X134819336Y-99184411D01*
X134965589Y-99330664D01*
X135080498Y-99502638D01*
X135159650Y-99693726D01*
X135200000Y-99896584D01*
X135200000Y-100103416D01*
X135159650Y-100306274D01*
X135080498Y-100497362D01*
X134965589Y-100669336D01*
X134948302Y-100686623D01*
X134932766Y-100705554D01*
X134921215Y-100727165D01*
X134914102Y-100750614D01*
X134911700Y-100775000D01*
X134914102Y-100799386D01*
X134921215Y-100822835D01*
X134932766Y-100844446D01*
X134948302Y-100863377D01*
X134965589Y-100880664D01*
X135080498Y-101052638D01*
X135159650Y-101243726D01*
X135200000Y-101446584D01*
X135200000Y-101653416D01*
X135159650Y-101856274D01*
X135080498Y-102047362D01*
X134965589Y-102219336D01*
X134819336Y-102365589D01*
X134647362Y-102480498D01*
X134456274Y-102559650D01*
X134278687Y-102594973D01*
X134253417Y-102600000D01*
X134046583Y-102600000D01*
X134021313Y-102594973D01*
X133843726Y-102559650D01*
X133652638Y-102480498D01*
X133480664Y-102365589D01*
X133334411Y-102219336D01*
X133219502Y-102047362D01*
X133140350Y-101856274D01*
X133100000Y-101653416D01*
X133100000Y-101446584D01*
X133140350Y-101243726D01*
X133219502Y-101052638D01*
X133334411Y-100880664D01*
X133351698Y-100863377D01*
X133367234Y-100844446D01*
X133378785Y-100822835D01*
X133385898Y-100799386D01*
X133388300Y-100775000D01*
X133385898Y-100750614D01*
X133378785Y-100727165D01*
X133367234Y-100705554D01*
X133351698Y-100686623D01*
X133334411Y-100669336D01*
X133219502Y-100497362D01*
X133140350Y-100306274D01*
X133100000Y-100103416D01*
X133100000Y-99896584D01*
X133140350Y-99693726D01*
X133219502Y-99502638D01*
X133334411Y-99330664D01*
X133480664Y-99184411D01*
X133652638Y-99069502D01*
X133843726Y-98990350D01*
X134021313Y-98955027D01*
X134046583Y-98950000D01*
X134253417Y-98950000D01*
X134278687Y-98955027D01*
G37*
G36*
X136818687Y-98955027D02*
G01*
X136996274Y-98990350D01*
X137187362Y-99069502D01*
X137359336Y-99184411D01*
X137505589Y-99330664D01*
X137620498Y-99502638D01*
X137699650Y-99693726D01*
X137740000Y-99896584D01*
X137740000Y-100103416D01*
X137699650Y-100306274D01*
X137620498Y-100497362D01*
X137505589Y-100669336D01*
X137488302Y-100686623D01*
X137472766Y-100705554D01*
X137461215Y-100727165D01*
X137454102Y-100750614D01*
X137451700Y-100775000D01*
X137454102Y-100799386D01*
X137461215Y-100822835D01*
X137472766Y-100844446D01*
X137488302Y-100863377D01*
X137505589Y-100880664D01*
X137620498Y-101052638D01*
X137699650Y-101243726D01*
X137740000Y-101446584D01*
X137740000Y-101653416D01*
X137699650Y-101856274D01*
X137620498Y-102047362D01*
X137505589Y-102219336D01*
X137359336Y-102365589D01*
X137187362Y-102480498D01*
X136996274Y-102559650D01*
X136818687Y-102594973D01*
X136793417Y-102600000D01*
X136586583Y-102600000D01*
X136561313Y-102594973D01*
X136383726Y-102559650D01*
X136192638Y-102480498D01*
X136020664Y-102365589D01*
X135874411Y-102219336D01*
X135759502Y-102047362D01*
X135680350Y-101856274D01*
X135640000Y-101653416D01*
X135640000Y-101446584D01*
X135680350Y-101243726D01*
X135759502Y-101052638D01*
X135874411Y-100880664D01*
X135891698Y-100863377D01*
X135907234Y-100844446D01*
X135918785Y-100822835D01*
X135925898Y-100799386D01*
X135928300Y-100775000D01*
X135925898Y-100750614D01*
X135918785Y-100727165D01*
X135907234Y-100705554D01*
X135891698Y-100686623D01*
X135874411Y-100669336D01*
X135759502Y-100497362D01*
X135680350Y-100306274D01*
X135640000Y-100103416D01*
X135640000Y-99896584D01*
X135680350Y-99693726D01*
X135759502Y-99502638D01*
X135874411Y-99330664D01*
X136020664Y-99184411D01*
X136192638Y-99069502D01*
X136383726Y-98990350D01*
X136561313Y-98955027D01*
X136586583Y-98950000D01*
X136793417Y-98950000D01*
X136818687Y-98955027D01*
G37*
M02*
