G04 #@! TF.FileFunction,Paste,Top*
%FSLAX46Y46*%
G04 Gerber Fmt 4.6, Leading zero omitted, Abs format (unit mm)*
G04 Created by KiCad (PCBNEW 4.0.6-e0-6349~53~ubuntu16.04.1) date Sat Mar  4 14:09:25 2017*
%MOMM*%
%LPD*%
G01*
G04 APERTURE LIST*
%ADD10C,0.100000*%
%ADD11R,0.750000X0.800000*%
%ADD12R,0.800000X0.750000*%
%ADD13R,1.200000X1.200000*%
%ADD14R,0.900000X2.500000*%
%ADD15R,0.400000X1.350000*%
%ADD16R,0.900000X0.500000*%
%ADD17R,0.500000X0.900000*%
%ADD18R,1.800000X1.600000*%
%ADD19R,0.508000X0.762000*%
%ADD20R,0.400000X0.510000*%
G04 APERTURE END LIST*
D10*
D11*
X139650000Y-142400000D03*
X139650000Y-143900000D03*
X129100000Y-118950000D03*
X129100000Y-120450000D03*
D12*
X129100000Y-132750000D03*
X130600000Y-132750000D03*
X133700000Y-114350000D03*
X132200000Y-114350000D03*
X130700000Y-114350000D03*
X129200000Y-114350000D03*
D11*
X135650000Y-136250000D03*
X135650000Y-137750000D03*
D12*
X132300000Y-133400000D03*
X133800000Y-133400000D03*
D11*
X135450000Y-117350000D03*
X135450000Y-115850000D03*
D12*
X139300000Y-119500000D03*
X137800000Y-119500000D03*
X129100000Y-130450000D03*
X130600000Y-130450000D03*
D11*
X135200000Y-112700000D03*
X135200000Y-114200000D03*
D13*
X129350000Y-107550000D03*
X129350000Y-109650000D03*
X138950000Y-107400000D03*
X138950000Y-109500000D03*
X138950000Y-113500000D03*
X138950000Y-111400000D03*
X140150000Y-140650000D03*
X142250000Y-140650000D03*
D14*
X128900000Y-140900000D03*
X126000000Y-140900000D03*
D15*
X132850000Y-141450000D03*
X133500000Y-141450000D03*
X134150000Y-141450000D03*
X134800000Y-141450000D03*
X135450000Y-141450000D03*
D16*
X129250000Y-115750000D03*
X129250000Y-117250000D03*
X129600000Y-103900000D03*
X129600000Y-105400000D03*
X141350000Y-142400000D03*
X141350000Y-143900000D03*
D17*
X137700000Y-117100000D03*
X139200000Y-117100000D03*
D16*
X138750000Y-103900000D03*
X138750000Y-105400000D03*
X135400000Y-132700000D03*
X135400000Y-134200000D03*
D17*
X137950000Y-115200000D03*
X139450000Y-115200000D03*
X137700000Y-134550000D03*
X139200000Y-134550000D03*
X129050000Y-135000000D03*
X130550000Y-135000000D03*
D16*
X138400000Y-139550000D03*
X138400000Y-141050000D03*
D17*
X133550000Y-112700000D03*
X132050000Y-112700000D03*
X129100000Y-112700000D03*
X130600000Y-112700000D03*
D18*
X131450000Y-109000000D03*
X136850000Y-109000000D03*
D19*
X132297500Y-137870000D03*
X134202500Y-137870000D03*
X132297500Y-135330000D03*
X133250000Y-137870000D03*
X134202500Y-135330000D03*
D17*
X134650000Y-139550000D03*
X136150000Y-139550000D03*
X133450000Y-139550000D03*
X131950000Y-139550000D03*
D10*
G36*
X132801040Y-115605457D02*
X134144543Y-116948960D01*
X133366726Y-117726777D01*
X132023223Y-116383274D01*
X132801040Y-115605457D01*
X132801040Y-115605457D01*
G37*
G36*
X131033274Y-117373223D02*
X132376777Y-118716726D01*
X131598960Y-119494543D01*
X130255457Y-118151040D01*
X131033274Y-117373223D01*
X131033274Y-117373223D01*
G37*
G36*
X132470621Y-119608311D02*
X132647398Y-119431534D01*
X133566637Y-120350773D01*
X133389860Y-120527550D01*
X132470621Y-119608311D01*
X132470621Y-119608311D01*
G37*
G36*
X132117068Y-119961864D02*
X132293845Y-119785087D01*
X133213084Y-120704326D01*
X133036307Y-120881103D01*
X132117068Y-119961864D01*
X132117068Y-119961864D01*
G37*
G36*
X131763514Y-120315418D02*
X131940291Y-120138641D01*
X132859530Y-121057880D01*
X132682753Y-121234657D01*
X131763514Y-120315418D01*
X131763514Y-120315418D01*
G37*
G36*
X131409961Y-120668971D02*
X131586738Y-120492194D01*
X132505977Y-121411433D01*
X132329200Y-121588210D01*
X131409961Y-120668971D01*
X131409961Y-120668971D01*
G37*
G36*
X131056408Y-121022524D02*
X131233185Y-120845747D01*
X132152424Y-121764986D01*
X131975647Y-121941763D01*
X131056408Y-121022524D01*
X131056408Y-121022524D01*
G37*
G36*
X130702854Y-121376078D02*
X130879631Y-121199301D01*
X131798870Y-122118540D01*
X131622093Y-122295317D01*
X130702854Y-121376078D01*
X130702854Y-121376078D01*
G37*
G36*
X130349301Y-121729631D02*
X130526078Y-121552854D01*
X131445317Y-122472093D01*
X131268540Y-122648870D01*
X130349301Y-121729631D01*
X130349301Y-121729631D01*
G37*
G36*
X129995747Y-122083185D02*
X130172524Y-121906408D01*
X131091763Y-122825647D01*
X130914986Y-123002424D01*
X129995747Y-122083185D01*
X129995747Y-122083185D01*
G37*
G36*
X129642194Y-122436738D02*
X129818971Y-122259961D01*
X130738210Y-123179200D01*
X130561433Y-123355977D01*
X129642194Y-122436738D01*
X129642194Y-122436738D01*
G37*
G36*
X129288641Y-122790291D02*
X129465418Y-122613514D01*
X130384657Y-123532753D01*
X130207880Y-123709530D01*
X129288641Y-122790291D01*
X129288641Y-122790291D01*
G37*
G36*
X128935087Y-123143845D02*
X129111864Y-122967068D01*
X130031103Y-123886307D01*
X129854326Y-124063084D01*
X128935087Y-123143845D01*
X128935087Y-123143845D01*
G37*
G36*
X128581534Y-123497398D02*
X128758311Y-123320621D01*
X129677550Y-124239860D01*
X129500773Y-124416637D01*
X128581534Y-123497398D01*
X128581534Y-123497398D01*
G37*
G36*
X128758311Y-126679379D02*
X128581534Y-126502602D01*
X129500773Y-125583363D01*
X129677550Y-125760140D01*
X128758311Y-126679379D01*
X128758311Y-126679379D01*
G37*
G36*
X129111864Y-127032932D02*
X128935087Y-126856155D01*
X129854326Y-125936916D01*
X130031103Y-126113693D01*
X129111864Y-127032932D01*
X129111864Y-127032932D01*
G37*
G36*
X129465418Y-127386486D02*
X129288641Y-127209709D01*
X130207880Y-126290470D01*
X130384657Y-126467247D01*
X129465418Y-127386486D01*
X129465418Y-127386486D01*
G37*
G36*
X129818971Y-127740039D02*
X129642194Y-127563262D01*
X130561433Y-126644023D01*
X130738210Y-126820800D01*
X129818971Y-127740039D01*
X129818971Y-127740039D01*
G37*
G36*
X130172524Y-128093592D02*
X129995747Y-127916815D01*
X130914986Y-126997576D01*
X131091763Y-127174353D01*
X130172524Y-128093592D01*
X130172524Y-128093592D01*
G37*
G36*
X130526078Y-128447146D02*
X130349301Y-128270369D01*
X131268540Y-127351130D01*
X131445317Y-127527907D01*
X130526078Y-128447146D01*
X130526078Y-128447146D01*
G37*
G36*
X130879631Y-128800699D02*
X130702854Y-128623922D01*
X131622093Y-127704683D01*
X131798870Y-127881460D01*
X130879631Y-128800699D01*
X130879631Y-128800699D01*
G37*
G36*
X131233185Y-129154253D02*
X131056408Y-128977476D01*
X131975647Y-128058237D01*
X132152424Y-128235014D01*
X131233185Y-129154253D01*
X131233185Y-129154253D01*
G37*
G36*
X131586738Y-129507806D02*
X131409961Y-129331029D01*
X132329200Y-128411790D01*
X132505977Y-128588567D01*
X131586738Y-129507806D01*
X131586738Y-129507806D01*
G37*
G36*
X131940291Y-129861359D02*
X131763514Y-129684582D01*
X132682753Y-128765343D01*
X132859530Y-128942120D01*
X131940291Y-129861359D01*
X131940291Y-129861359D01*
G37*
G36*
X132293845Y-130214913D02*
X132117068Y-130038136D01*
X133036307Y-129118897D01*
X133213084Y-129295674D01*
X132293845Y-130214913D01*
X132293845Y-130214913D01*
G37*
G36*
X132647398Y-130568466D02*
X132470621Y-130391689D01*
X133389860Y-129472450D01*
X133566637Y-129649227D01*
X132647398Y-130568466D01*
X132647398Y-130568466D01*
G37*
G36*
X134733363Y-129649227D02*
X134910140Y-129472450D01*
X135829379Y-130391689D01*
X135652602Y-130568466D01*
X134733363Y-129649227D01*
X134733363Y-129649227D01*
G37*
G36*
X135086916Y-129295674D02*
X135263693Y-129118897D01*
X136182932Y-130038136D01*
X136006155Y-130214913D01*
X135086916Y-129295674D01*
X135086916Y-129295674D01*
G37*
G36*
X135440470Y-128942120D02*
X135617247Y-128765343D01*
X136536486Y-129684582D01*
X136359709Y-129861359D01*
X135440470Y-128942120D01*
X135440470Y-128942120D01*
G37*
G36*
X135794023Y-128588567D02*
X135970800Y-128411790D01*
X136890039Y-129331029D01*
X136713262Y-129507806D01*
X135794023Y-128588567D01*
X135794023Y-128588567D01*
G37*
G36*
X136147576Y-128235014D02*
X136324353Y-128058237D01*
X137243592Y-128977476D01*
X137066815Y-129154253D01*
X136147576Y-128235014D01*
X136147576Y-128235014D01*
G37*
G36*
X136501130Y-127881460D02*
X136677907Y-127704683D01*
X137597146Y-128623922D01*
X137420369Y-128800699D01*
X136501130Y-127881460D01*
X136501130Y-127881460D01*
G37*
G36*
X136854683Y-127527907D02*
X137031460Y-127351130D01*
X137950699Y-128270369D01*
X137773922Y-128447146D01*
X136854683Y-127527907D01*
X136854683Y-127527907D01*
G37*
G36*
X137208237Y-127174353D02*
X137385014Y-126997576D01*
X138304253Y-127916815D01*
X138127476Y-128093592D01*
X137208237Y-127174353D01*
X137208237Y-127174353D01*
G37*
G36*
X137561790Y-126820800D02*
X137738567Y-126644023D01*
X138657806Y-127563262D01*
X138481029Y-127740039D01*
X137561790Y-126820800D01*
X137561790Y-126820800D01*
G37*
G36*
X137915343Y-126467247D02*
X138092120Y-126290470D01*
X139011359Y-127209709D01*
X138834582Y-127386486D01*
X137915343Y-126467247D01*
X137915343Y-126467247D01*
G37*
G36*
X138268897Y-126113693D02*
X138445674Y-125936916D01*
X139364913Y-126856155D01*
X139188136Y-127032932D01*
X138268897Y-126113693D01*
X138268897Y-126113693D01*
G37*
G36*
X138622450Y-125760140D02*
X138799227Y-125583363D01*
X139718466Y-126502602D01*
X139541689Y-126679379D01*
X138622450Y-125760140D01*
X138622450Y-125760140D01*
G37*
G36*
X138799227Y-124416637D02*
X138622450Y-124239860D01*
X139541689Y-123320621D01*
X139718466Y-123497398D01*
X138799227Y-124416637D01*
X138799227Y-124416637D01*
G37*
G36*
X138445674Y-124063084D02*
X138268897Y-123886307D01*
X139188136Y-122967068D01*
X139364913Y-123143845D01*
X138445674Y-124063084D01*
X138445674Y-124063084D01*
G37*
G36*
X138092120Y-123709530D02*
X137915343Y-123532753D01*
X138834582Y-122613514D01*
X139011359Y-122790291D01*
X138092120Y-123709530D01*
X138092120Y-123709530D01*
G37*
G36*
X137738567Y-123355977D02*
X137561790Y-123179200D01*
X138481029Y-122259961D01*
X138657806Y-122436738D01*
X137738567Y-123355977D01*
X137738567Y-123355977D01*
G37*
G36*
X137385014Y-123002424D02*
X137208237Y-122825647D01*
X138127476Y-121906408D01*
X138304253Y-122083185D01*
X137385014Y-123002424D01*
X137385014Y-123002424D01*
G37*
G36*
X137031460Y-122648870D02*
X136854683Y-122472093D01*
X137773922Y-121552854D01*
X137950699Y-121729631D01*
X137031460Y-122648870D01*
X137031460Y-122648870D01*
G37*
G36*
X136677907Y-122295317D02*
X136501130Y-122118540D01*
X137420369Y-121199301D01*
X137597146Y-121376078D01*
X136677907Y-122295317D01*
X136677907Y-122295317D01*
G37*
G36*
X136324353Y-121941763D02*
X136147576Y-121764986D01*
X137066815Y-120845747D01*
X137243592Y-121022524D01*
X136324353Y-121941763D01*
X136324353Y-121941763D01*
G37*
G36*
X135970800Y-121588210D02*
X135794023Y-121411433D01*
X136713262Y-120492194D01*
X136890039Y-120668971D01*
X135970800Y-121588210D01*
X135970800Y-121588210D01*
G37*
G36*
X135617247Y-121234657D02*
X135440470Y-121057880D01*
X136359709Y-120138641D01*
X136536486Y-120315418D01*
X135617247Y-121234657D01*
X135617247Y-121234657D01*
G37*
G36*
X135263693Y-120881103D02*
X135086916Y-120704326D01*
X136006155Y-119785087D01*
X136182932Y-119961864D01*
X135263693Y-120881103D01*
X135263693Y-120881103D01*
G37*
G36*
X134910140Y-120527550D02*
X134733363Y-120350773D01*
X135652602Y-119431534D01*
X135829379Y-119608311D01*
X134910140Y-120527550D01*
X134910140Y-120527550D01*
G37*
D11*
X139200000Y-129250000D03*
X139200000Y-130750000D03*
D20*
X136350000Y-112550000D03*
X137350000Y-112550000D03*
X136850000Y-113850000D03*
X137561000Y-136400000D03*
X138561000Y-136400000D03*
X138061000Y-137700000D03*
X129550000Y-136900000D03*
X130550000Y-136900000D03*
X130050000Y-138200000D03*
X138400000Y-132650000D03*
X137400000Y-132650000D03*
X137900000Y-131350000D03*
M02*
