G04 #@! TF.GenerationSoftware,KiCad,Pcbnew,5.0.2-bee76a0~70~ubuntu18.04.1*
G04 #@! TF.CreationDate,2018-12-18T09:47:30-08:00*
G04 #@! TF.ProjectId,Empyrean,456d7079-7265-4616-9e2e-6b696361645f,A*
G04 #@! TF.SameCoordinates,Original*
G04 #@! TF.FileFunction,Copper,L2,Bot*
G04 #@! TF.FilePolarity,Positive*
%FSLAX46Y46*%
G04 Gerber Fmt 4.6, Leading zero omitted, Abs format (unit mm)*
G04 Created by KiCad (PCBNEW 5.0.2-bee76a0~70~ubuntu18.04.1) date Tue 18 Dec 2018 09:47:30 AM PST*
%MOMM*%
%LPD*%
G01*
G04 APERTURE LIST*
G04 #@! TA.AperFunction,NonConductor*
%ADD10C,0.200000*%
G04 #@! TD*
G04 #@! TA.AperFunction,ComponentPad*
%ADD11C,1.000000*%
G04 #@! TD*
G04 #@! TA.AperFunction,ComponentPad*
%ADD12O,1.700000X1.700000*%
G04 #@! TD*
G04 #@! TA.AperFunction,ComponentPad*
%ADD13C,1.700000*%
G04 #@! TD*
G04 #@! TA.AperFunction,ComponentPad*
%ADD14O,1.450000X1.150000*%
G04 #@! TD*
G04 #@! TA.AperFunction,ComponentPad*
%ADD15O,1.200000X1.750000*%
G04 #@! TD*
G04 #@! TA.AperFunction,SMDPad,CuDef*
%ADD16R,1.000000X0.500000*%
G04 #@! TD*
G04 #@! TA.AperFunction,SMDPad,CuDef*
%ADD17R,0.300000X2.000000*%
G04 #@! TD*
G04 #@! TA.AperFunction,SMDPad,CuDef*
%ADD18C,0.500000*%
G04 #@! TD*
G04 #@! TA.AperFunction,Conductor*
%ADD19C,0.100000*%
G04 #@! TD*
G04 #@! TA.AperFunction,ViaPad*
%ADD20C,0.400000*%
G04 #@! TD*
G04 #@! TA.AperFunction,Conductor*
%ADD21C,0.200000*%
G04 #@! TD*
G04 #@! TA.AperFunction,Conductor*
%ADD22C,0.180000*%
G04 #@! TD*
G04 APERTURE END LIST*
D10*
X128761904Y-139828571D02*
X128647619Y-139876190D01*
X128609523Y-139923809D01*
X128571428Y-140019047D01*
X128571428Y-140161904D01*
X128609523Y-140257142D01*
X128647619Y-140304761D01*
X128723809Y-140352380D01*
X129028571Y-140352380D01*
X129028571Y-139352380D01*
X128761904Y-139352380D01*
X128685714Y-139400000D01*
X128647619Y-139447619D01*
X128609523Y-139542857D01*
X128609523Y-139638095D01*
X128647619Y-139733333D01*
X128685714Y-139780952D01*
X128761904Y-139828571D01*
X129028571Y-139828571D01*
X127923809Y-140304761D02*
X128000000Y-140352380D01*
X128152380Y-140352380D01*
X128228571Y-140304761D01*
X128266666Y-140209523D01*
X128266666Y-139828571D01*
X128228571Y-139733333D01*
X128152380Y-139685714D01*
X128000000Y-139685714D01*
X127923809Y-139733333D01*
X127885714Y-139828571D01*
X127885714Y-139923809D01*
X128266666Y-140019047D01*
X127657142Y-139685714D02*
X127352380Y-139685714D01*
X127542857Y-139352380D02*
X127542857Y-140209523D01*
X127504761Y-140304761D01*
X127428571Y-140352380D01*
X127352380Y-140352380D01*
X126742857Y-140352380D02*
X126742857Y-139828571D01*
X126780952Y-139733333D01*
X126857142Y-139685714D01*
X127009523Y-139685714D01*
X127085714Y-139733333D01*
X126742857Y-140304761D02*
X126819047Y-140352380D01*
X127009523Y-140352380D01*
X127085714Y-140304761D01*
X127123809Y-140209523D01*
X127123809Y-140114285D01*
X127085714Y-140019047D01*
X127009523Y-139971428D01*
X126819047Y-139971428D01*
X126742857Y-139923809D01*
X125333333Y-140352380D02*
X125790476Y-140352380D01*
X125561904Y-140352380D02*
X125561904Y-139352380D01*
X125638095Y-139495238D01*
X125714285Y-139590476D01*
X125790476Y-139638095D01*
D11*
G04 #@! TO.P,J2,10*
G04 #@! TO.N,RESET*
X131610000Y-105685000D03*
G04 #@! TO.P,J2,9*
G04 #@! TO.N,GND*
X131610000Y-104415000D03*
G04 #@! TO.P,J2,8*
G04 #@! TO.N,Net-(J2-Pad8)*
X132880000Y-105685000D03*
G04 #@! TO.P,J2,7*
G04 #@! TO.N,Net-(J2-Pad7)*
X132880000Y-104415000D03*
G04 #@! TO.P,J2,6*
G04 #@! TO.N,Net-(J2-Pad6)*
X134150000Y-105685000D03*
G04 #@! TO.P,J2,5*
G04 #@! TO.N,GND*
X134150000Y-104415000D03*
G04 #@! TO.P,J2,4*
G04 #@! TO.N,SWDCLK*
X135420000Y-105685000D03*
G04 #@! TO.P,J2,3*
G04 #@! TO.N,GND*
X135420000Y-104415000D03*
G04 #@! TO.P,J2,2*
G04 #@! TO.N,SWDIO*
X136690000Y-105685000D03*
G04 #@! TO.P,J2,1*
G04 #@! TO.N,+3.3V*
X136690000Y-104415000D03*
G04 #@! TD*
D12*
G04 #@! TO.P,J3,3*
G04 #@! TO.N,SPI_SCK*
X136690000Y-101550000D03*
G04 #@! TO.P,J3,2*
G04 #@! TO.N,SPI_MISO*
X134150000Y-101550000D03*
D13*
G04 #@! TO.P,J3,1*
G04 #@! TO.N,SPI_MOSI*
X131610000Y-101550000D03*
G04 #@! TD*
D12*
G04 #@! TO.P,REF\002A\002A,15*
G04 #@! TO.N,N/C*
X125010000Y-137110000D03*
G04 #@! TO.P,REF\002A\002A,14*
X125010000Y-134570000D03*
G04 #@! TO.P,REF\002A\002A,13*
X125010000Y-132030000D03*
G04 #@! TO.P,REF\002A\002A,12*
X125010000Y-129490000D03*
G04 #@! TO.P,REF\002A\002A,11*
X125010000Y-126950000D03*
G04 #@! TO.P,REF\002A\002A,10*
X125010000Y-124410000D03*
G04 #@! TO.P,REF\002A\002A,9*
X125010000Y-121870000D03*
G04 #@! TO.P,REF\002A\002A,8*
X125010000Y-119330000D03*
G04 #@! TO.P,REF\002A\002A,7*
X125010000Y-116790000D03*
G04 #@! TO.P,REF\002A\002A,6*
X125010000Y-114250000D03*
G04 #@! TO.P,REF\002A\002A,5*
X125010000Y-111710000D03*
G04 #@! TO.P,REF\002A\002A,4*
X125010000Y-109170000D03*
G04 #@! TO.P,REF\002A\002A,3*
X125010000Y-106630000D03*
G04 #@! TO.P,REF\002A\002A,2*
X125010000Y-104090000D03*
D13*
G04 #@! TO.P,REF\002A\002A,1*
X125010000Y-101550000D03*
G04 #@! TD*
G04 #@! TO.P,REF\002A\002A,1*
G04 #@! TO.N,N/C*
X143370000Y-101550000D03*
D12*
G04 #@! TO.P,REF\002A\002A,2*
X143370000Y-104090000D03*
G04 #@! TO.P,REF\002A\002A,3*
X143370000Y-106630000D03*
G04 #@! TO.P,REF\002A\002A,4*
X143370000Y-109170000D03*
G04 #@! TO.P,REF\002A\002A,5*
X143370000Y-111710000D03*
G04 #@! TO.P,REF\002A\002A,6*
X143370000Y-114250000D03*
G04 #@! TO.P,REF\002A\002A,7*
X143370000Y-116790000D03*
G04 #@! TO.P,REF\002A\002A,8*
X143370000Y-119330000D03*
G04 #@! TO.P,REF\002A\002A,9*
X143370000Y-121870000D03*
G04 #@! TO.P,REF\002A\002A,10*
X143370000Y-124410000D03*
G04 #@! TO.P,REF\002A\002A,11*
X143370000Y-126950000D03*
G04 #@! TO.P,REF\002A\002A,12*
X143370000Y-129490000D03*
G04 #@! TO.P,REF\002A\002A,13*
X143370000Y-132030000D03*
G04 #@! TO.P,REF\002A\002A,14*
X143370000Y-134570000D03*
G04 #@! TO.P,REF\002A\002A,15*
X143370000Y-137110000D03*
G04 #@! TD*
D13*
G04 #@! TO.P,J5,1*
G04 #@! TO.N,+3.3V*
X141800000Y-101550000D03*
D12*
G04 #@! TO.P,J5,2*
G04 #@! TO.N,GND*
X141800000Y-104090000D03*
G04 #@! TO.P,J5,3*
G04 #@! TO.N,RESET*
X141800000Y-106630000D03*
G04 #@! TO.P,J5,4*
G04 #@! TO.N,D13*
X141800000Y-109170000D03*
G04 #@! TO.P,J5,5*
G04 #@! TO.N,D12*
X141800000Y-111710000D03*
G04 #@! TO.P,J5,6*
G04 #@! TO.N,D11*
X141800000Y-114250000D03*
G04 #@! TO.P,J5,7*
G04 #@! TO.N,D10*
X141800000Y-116790000D03*
G04 #@! TO.P,J5,8*
G04 #@! TO.N,D9*
X141800000Y-119330000D03*
G04 #@! TO.P,J5,9*
G04 #@! TO.N,D8*
X141800000Y-121870000D03*
G04 #@! TO.P,J5,10*
G04 #@! TO.N,D7*
X141800000Y-124410000D03*
G04 #@! TO.P,J5,11*
G04 #@! TO.N,D6*
X141800000Y-126950000D03*
G04 #@! TO.P,J5,12*
G04 #@! TO.N,D5*
X141800000Y-129490000D03*
G04 #@! TO.P,J5,13*
G04 #@! TO.N,D4*
X141800000Y-132030000D03*
G04 #@! TO.P,J5,14*
G04 #@! TO.N,D3*
X141800000Y-134570000D03*
G04 #@! TO.P,J5,15*
G04 #@! TO.N,D2*
X141800000Y-137110000D03*
G04 #@! TD*
D13*
G04 #@! TO.P,J4,1*
G04 #@! TO.N,SCL*
X126550000Y-101550000D03*
D12*
G04 #@! TO.P,J4,2*
G04 #@! TO.N,SDA*
X126550000Y-104090000D03*
G04 #@! TO.P,J4,3*
G04 #@! TO.N,VUSB*
X126550000Y-106630000D03*
G04 #@! TO.P,J4,4*
G04 #@! TO.N,VIN*
X126550000Y-109170000D03*
G04 #@! TO.P,J4,5*
G04 #@! TO.N,+3.3V*
X126550000Y-111710000D03*
G04 #@! TO.P,J4,6*
G04 #@! TO.N,GND*
X126550000Y-114250000D03*
G04 #@! TO.P,J4,7*
G04 #@! TO.N,AREF*
X126550000Y-116790000D03*
G04 #@! TO.P,J4,8*
G04 #@! TO.N,A0*
X126550000Y-119330000D03*
G04 #@! TO.P,J4,9*
G04 #@! TO.N,A1*
X126550000Y-121870000D03*
G04 #@! TO.P,J4,10*
G04 #@! TO.N,A2*
X126550000Y-124410000D03*
G04 #@! TO.P,J4,11*
G04 #@! TO.N,A3*
X126550000Y-126950000D03*
G04 #@! TO.P,J4,12*
G04 #@! TO.N,A4*
X126550000Y-129490000D03*
G04 #@! TO.P,J4,13*
G04 #@! TO.N,A5*
X126550000Y-132030000D03*
G04 #@! TO.P,J4,14*
G04 #@! TO.N,D0/UART_RX*
X126550000Y-134570000D03*
G04 #@! TO.P,J4,15*
G04 #@! TO.N,D1/UART_TX*
X126550000Y-137110000D03*
G04 #@! TD*
D14*
G04 #@! TO.P,J1,6*
G04 #@! TO.N,Net-(C1-Pad2)*
X136650000Y-141450000D03*
X131650000Y-141450000D03*
D15*
X137650000Y-144150000D03*
X130650000Y-144150000D03*
G04 #@! TD*
D16*
G04 #@! TO.P,JP2,*
G04 #@! TO.N,*
X140700000Y-141200000D03*
D17*
G04 #@! TO.P,JP2,2*
G04 #@! TO.N,Net-(JP2-Pad2)*
X140380000Y-141200000D03*
G04 #@! TO.P,JP2,1*
G04 #@! TO.N,+3.3V*
X141020000Y-141200000D03*
D18*
X141400000Y-141200000D03*
D19*
G04 #@! TD*
G04 #@! TO.N,+3.3V*
G04 #@! TO.C,JP2*
G36*
X141650000Y-140700000D02*
X141650000Y-141700000D01*
X141150000Y-142200000D01*
X141150000Y-140200000D01*
X141650000Y-140700000D01*
X141650000Y-140700000D01*
G37*
D18*
G04 #@! TO.P,JP2,2*
G04 #@! TO.N,Net-(JP2-Pad2)*
X140000000Y-141200000D03*
D19*
G04 #@! TD*
G04 #@! TO.N,Net-(JP2-Pad2)*
G04 #@! TO.C,JP2*
G36*
X140250000Y-140200000D02*
X140250000Y-142200000D01*
X139750000Y-141700000D01*
X139750000Y-140700000D01*
X140250000Y-140200000D01*
X140250000Y-140200000D01*
G37*
D12*
G04 #@! TO.P,REF\002A\002A,3*
G04 #@! TO.N,N/C*
X136690000Y-100000000D03*
G04 #@! TO.P,REF\002A\002A,2*
X134150000Y-100000000D03*
D13*
G04 #@! TO.P,REF\002A\002A,1*
X131610000Y-100000000D03*
G04 #@! TD*
D20*
G04 #@! TO.N,GND*
X131639979Y-134132906D03*
X129200000Y-113550000D03*
X130550000Y-116950000D03*
X130821080Y-120328912D03*
X138739979Y-121344249D03*
X139295985Y-120448104D03*
X139600000Y-122250000D03*
X137850000Y-125450000D03*
X133750000Y-132550000D03*
X133250000Y-134350000D03*
X130600000Y-131450000D03*
X131950000Y-132300000D03*
X137300000Y-140550000D03*
X135700000Y-140550000D03*
X134850000Y-137250000D03*
X133250000Y-136900000D03*
X135450000Y-109000000D03*
X135450000Y-110800000D03*
X139270000Y-108460000D03*
X137668000Y-110200000D03*
X129100000Y-119700000D03*
X137000000Y-107900000D03*
X140450000Y-132850000D03*
X137050000Y-132050000D03*
X139650000Y-102850000D03*
X129200000Y-116500000D03*
G04 #@! TO.N,VIN*
X127994947Y-133822658D03*
G04 #@! TO.N,+3.3V*
X141500000Y-139500000D03*
X130694258Y-133786249D03*
X131030010Y-116016057D03*
X134335592Y-132400977D03*
X128750000Y-103900000D03*
X129250000Y-115105002D03*
X136900000Y-123250000D03*
X136700000Y-125100000D03*
X139400000Y-138600000D03*
X129366053Y-110900000D03*
X129366053Y-131407517D03*
G04 #@! TO.N,TX_LED*
X131846605Y-110380352D03*
X134563544Y-123581042D03*
G04 #@! TO.N,RX_LED*
X134900000Y-122450000D03*
X139750000Y-106250000D03*
G04 #@! TO.N,DM*
X133450000Y-138700000D03*
X138150000Y-128950000D03*
G04 #@! TO.N,DP*
X138822218Y-128473682D03*
X134650000Y-138700000D03*
G04 #@! TO.N,Net-(J1-Pad4)*
X139979398Y-120458066D03*
X139800000Y-131549990D03*
X137900000Y-116150000D03*
X140300000Y-124600000D03*
G04 #@! TO.N,SWDIO*
X135272367Y-121270430D03*
G04 #@! TO.N,SWDCLK*
X135475583Y-121813666D03*
G04 #@! TO.N,RESET*
X135300000Y-123575022D03*
X135750001Y-111600000D03*
G04 #@! TO.N,SPI_MOSI*
X132233461Y-127224937D03*
G04 #@! TO.N,SPI_MISO*
X133401569Y-127551569D03*
G04 #@! TO.N,SPI_SCK*
X133215190Y-126280010D03*
G04 #@! TO.N,SCL*
X130509706Y-125529536D03*
X129600000Y-102150000D03*
G04 #@! TO.N,SDA*
X130798124Y-126255381D03*
X129000000Y-102150000D03*
G04 #@! TO.N,AREF*
X129756077Y-118050000D03*
X128900000Y-118050000D03*
G04 #@! TO.N,A0*
X129861068Y-120350009D03*
X130235011Y-118950000D03*
G04 #@! TO.N,A5*
X131193607Y-125324473D03*
X133226007Y-130718112D03*
G04 #@! TO.N,D0/UART_RX*
X126970635Y-130683848D03*
G04 #@! TO.N,D1/UART_TX*
X128950010Y-127845532D03*
G04 #@! TO.N,D13*
X133850000Y-110249980D03*
X134969990Y-110250000D03*
X133700000Y-111250000D03*
X133960171Y-126280010D03*
G04 #@! TO.N,D12*
X134450000Y-111250000D03*
X135595967Y-126429614D03*
X137800000Y-107450000D03*
G04 #@! TO.N,D11*
X139700000Y-116200000D03*
X134362771Y-129137228D03*
G04 #@! TO.N,D10*
X135035581Y-126280010D03*
X139208312Y-118169425D03*
G04 #@! TO.N,D9*
X135626686Y-123050012D03*
X131919467Y-123998304D03*
X138583437Y-118254464D03*
X129910043Y-124750000D03*
G04 #@! TO.N,D8*
X138482116Y-124642874D03*
X132269990Y-124495839D03*
X130520898Y-124201442D03*
G04 #@! TO.N,D7*
X137698201Y-129290734D03*
X139910918Y-125136394D03*
G04 #@! TO.N,D6*
X136000000Y-127600000D03*
X140132201Y-125701134D03*
G04 #@! TO.N,D5*
X134652921Y-130175333D03*
X140186181Y-128301332D03*
G04 #@! TO.N,D4*
X134894193Y-131515355D03*
X132633618Y-131363604D03*
X128830010Y-126443867D03*
G04 #@! TO.N,D3*
X128913296Y-127279917D03*
G04 #@! TO.N,D2*
X131269990Y-131444067D03*
G04 #@! TO.N,Net-(JP2-Pad2)*
X138400000Y-140300000D03*
G04 #@! TO.N,VUSB*
X129050000Y-134510000D03*
G04 #@! TD*
D21*
G04 #@! TO.N,GND*
X131739979Y-132510021D02*
X131739979Y-134032906D01*
X131950000Y-132300000D02*
X131739979Y-132510021D01*
X131739979Y-134032906D02*
X131639979Y-134132906D01*
X130821080Y-120328912D02*
X130821080Y-117221080D01*
X130821080Y-117221080D02*
X130550000Y-116950000D01*
X139295985Y-120730946D02*
X139295985Y-120448104D01*
X139295985Y-120788243D02*
X139295985Y-120730946D01*
X138739979Y-121344249D02*
X139295985Y-120788243D01*
X137850000Y-125167158D02*
X137850000Y-124000000D01*
X137850000Y-124000000D02*
X139600000Y-122250000D01*
X137850000Y-125450000D02*
X137850000Y-125167158D01*
X133750000Y-132550000D02*
X133750000Y-132000000D01*
X133950000Y-131800000D02*
X134500000Y-131800000D01*
X134500000Y-131800000D02*
X134700000Y-132000000D01*
X133750000Y-132000000D02*
X133950000Y-131800000D01*
X134700000Y-132000000D02*
X137000000Y-132000000D01*
X131750001Y-130962375D02*
X131750001Y-132100001D01*
X131067158Y-130700000D02*
X131487626Y-130700000D01*
X130600000Y-131450000D02*
X130600000Y-131167158D01*
X131750001Y-132100001D02*
X131950000Y-132300000D01*
X131487626Y-130700000D02*
X131750001Y-130962375D01*
X130600000Y-131167158D02*
X131067158Y-130700000D01*
X133250000Y-136900000D02*
X133250000Y-134350000D01*
X135700000Y-140550000D02*
X137300000Y-140550000D01*
X133250000Y-136900000D02*
X134500000Y-136900000D01*
X134500000Y-136900000D02*
X134850000Y-137250000D01*
X135450000Y-110800000D02*
X135450000Y-109000000D01*
G04 #@! TO.N,VIN*
X127599989Y-118638565D02*
X127826010Y-118864586D01*
X127826010Y-127415414D02*
X127599989Y-127641435D01*
X127826010Y-124875414D02*
X127599989Y-125101435D01*
X126550000Y-109968576D02*
X127826010Y-111244586D01*
X127599989Y-122561435D02*
X127599989Y-123718565D01*
X127572132Y-133399843D02*
X127794948Y-133622659D01*
X127599989Y-121178565D02*
X127826010Y-121404586D01*
X127599989Y-120021435D02*
X127599989Y-121178565D01*
X127826010Y-114715414D02*
X127599989Y-114941435D01*
X127599989Y-123718565D02*
X127826010Y-123944586D01*
X127826010Y-117255414D02*
X127599989Y-117481435D01*
X127599989Y-113558565D02*
X127826010Y-113784586D01*
X127826010Y-121404586D02*
X127826010Y-122335414D01*
X127826010Y-118864586D02*
X127826010Y-119795414D01*
X127826010Y-119795414D02*
X127599989Y-120021435D01*
X128186015Y-132644538D02*
X127572132Y-133258422D01*
X127794948Y-133622659D02*
X127994947Y-133822658D01*
X127826010Y-123944586D02*
X127826010Y-124875414D01*
X128186015Y-131415468D02*
X128186015Y-132644538D01*
X127599989Y-117481435D02*
X127599989Y-118638565D01*
X127599989Y-130829443D02*
X128186015Y-131415468D01*
X127826010Y-129024586D02*
X127826010Y-129955414D01*
X127599989Y-112401435D02*
X127599989Y-113558565D01*
X127826010Y-112175414D02*
X127599989Y-112401435D01*
X127826010Y-122335414D02*
X127599989Y-122561435D01*
X127599989Y-128798565D02*
X127826010Y-129024586D01*
X127826010Y-111244586D02*
X127826010Y-112175414D01*
X127599989Y-127641435D02*
X127599989Y-128798565D01*
X127826010Y-126484586D02*
X127826010Y-127415414D01*
X127826010Y-113784586D02*
X127826010Y-114715414D01*
X127599989Y-125101435D02*
X127599989Y-126258565D01*
X127826010Y-129955414D02*
X127599989Y-130181435D01*
X127599989Y-116098565D02*
X127826010Y-116324586D01*
X127599989Y-114941435D02*
X127599989Y-116098565D01*
X127572132Y-133258422D02*
X127572132Y-133399843D01*
X127599989Y-126258565D02*
X127826010Y-126484586D01*
X127599989Y-130181435D02*
X127599989Y-130829443D01*
X126550000Y-109170000D02*
X126550000Y-109968576D01*
X127826010Y-116324586D02*
X127826010Y-117255414D01*
G04 #@! TO.N,+3.3V*
X141500000Y-139500000D02*
X141520000Y-139520000D01*
X129250000Y-115105002D02*
X130161055Y-116016057D01*
X130747168Y-116016057D02*
X131030010Y-116016057D01*
X130161055Y-116016057D02*
X130747168Y-116016057D01*
X137572998Y-138600000D02*
X134335592Y-135362594D01*
X134335592Y-135362594D02*
X134335592Y-132683819D01*
X134335592Y-132683819D02*
X134335592Y-132400977D01*
X139400000Y-138600000D02*
X137572998Y-138600000D01*
X136700000Y-125100000D02*
X136700000Y-123450000D01*
X136700000Y-123450000D02*
X136900000Y-123250000D01*
X141500000Y-139500000D02*
X141850000Y-139500000D01*
X141850000Y-139500000D02*
X142300000Y-139950000D01*
X142300000Y-139950000D02*
X142300000Y-141050000D01*
X142150000Y-141200000D02*
X141480001Y-141200000D01*
X142300000Y-141050000D02*
X142150000Y-141200000D01*
X129366053Y-110617158D02*
X129366053Y-110900000D01*
X129060033Y-104210033D02*
X129060033Y-110311138D01*
X128750000Y-103900000D02*
X129060033Y-104210033D01*
X130694258Y-133786249D02*
X130694258Y-132735722D01*
X130694258Y-132735722D02*
X129566052Y-131607516D01*
X129060033Y-110311138D02*
X129366053Y-110617158D01*
X129566052Y-131607516D02*
X129366053Y-131407517D01*
G04 #@! TO.N,TX_LED*
X133724979Y-120575021D02*
X135339970Y-118960030D01*
X134659596Y-110769998D02*
X132236251Y-110769998D01*
X132236251Y-110769998D02*
X132046604Y-110580351D01*
X132046604Y-110580351D02*
X131846605Y-110380352D01*
X133724979Y-122742477D02*
X133724979Y-120575021D01*
X134563544Y-123581042D02*
X133724979Y-122742477D01*
X135339970Y-111920772D02*
X135189999Y-111770801D01*
X135189999Y-111770801D02*
X135189999Y-111300401D01*
X135189999Y-111300401D02*
X134659596Y-110769998D01*
X135339970Y-118960030D02*
X135339970Y-111920772D01*
G04 #@! TO.N,RX_LED*
X134900000Y-122450000D02*
X135511331Y-122450000D01*
X135711853Y-122249478D02*
X135718609Y-122249478D01*
X135718609Y-122249478D02*
X137140010Y-120828077D01*
X137140010Y-120828077D02*
X137140010Y-108859990D01*
X135511331Y-122450000D02*
X135711853Y-122249478D01*
X137140010Y-108859990D02*
X139750000Y-106250000D01*
G04 #@! TO.N,DM*
X132889979Y-131785189D02*
X134019824Y-130655344D01*
X132770000Y-138020000D02*
X132770000Y-133157794D01*
X132889979Y-133037815D02*
X132889979Y-131785189D01*
X138349999Y-129349338D02*
X138349999Y-129149999D01*
X138349999Y-129149999D02*
X138150000Y-128950000D01*
X134019824Y-130655344D02*
X137043993Y-130655344D01*
X133450000Y-138700000D02*
X132770000Y-138020000D01*
X137043993Y-130655344D02*
X138349999Y-129349338D01*
X132770000Y-133157794D02*
X132889979Y-133037815D01*
G04 #@! TO.N,DP*
X138822218Y-128756524D02*
X138822218Y-128473682D01*
X134177230Y-131035354D02*
X137201399Y-131035354D01*
X133369990Y-131842594D02*
X134177230Y-131035354D01*
X133269989Y-131992595D02*
X133369989Y-131892595D01*
X137201399Y-131035354D02*
X138822218Y-129414535D01*
X133780002Y-135369598D02*
X133780002Y-133390404D01*
X135330002Y-138019998D02*
X135330002Y-136919598D01*
X134650000Y-138700000D02*
X135330002Y-138019998D01*
X133780002Y-133390404D02*
X133269989Y-132880391D01*
X138822218Y-129414535D02*
X138822218Y-128756524D01*
X133369989Y-131892595D02*
X133369990Y-131842594D01*
X133269989Y-132880391D02*
X133269989Y-131992595D01*
X135330002Y-136919598D02*
X133780002Y-135369598D01*
G04 #@! TO.N,Net-(J1-Pad4)*
X139900126Y-120378794D02*
X139979398Y-120458066D01*
X137900000Y-116150000D02*
X139900126Y-118150126D01*
X139900126Y-118150126D02*
X139900126Y-120378794D01*
X141052851Y-127830075D02*
X140670014Y-127447238D01*
X140499999Y-124799999D02*
X140300000Y-124600000D01*
X140670014Y-127447238D02*
X140670014Y-126353253D01*
X140952211Y-125252211D02*
X140499999Y-124799999D01*
X139800000Y-129847198D02*
X141052852Y-128594346D01*
X139800000Y-131549990D02*
X139800000Y-129847198D01*
X140952211Y-126071056D02*
X140952211Y-125252211D01*
X141052852Y-128594346D02*
X141052851Y-127830075D01*
X140670014Y-126353253D02*
X140952211Y-126071056D01*
G04 #@! TO.N,SWDIO*
X135472366Y-121070431D02*
X135272367Y-121270430D01*
X136690000Y-119852797D02*
X135472366Y-121070431D01*
X136690000Y-111345234D02*
X136690000Y-119852797D01*
X136690022Y-111345212D02*
X136690000Y-111345234D01*
X136690022Y-108454786D02*
X136690022Y-111345212D01*
X136690000Y-108454764D02*
X136690022Y-108454786D01*
X136690000Y-105685000D02*
X136690000Y-108454764D01*
G04 #@! TO.N,SWDCLK*
X136310012Y-106575012D02*
X136310012Y-111620790D01*
X134636664Y-121813666D02*
X135192741Y-121813666D01*
X135420000Y-105685000D02*
X136310012Y-106575012D01*
X134624999Y-121802001D02*
X134636664Y-121813666D01*
X134624999Y-121238960D02*
X134624999Y-121802001D01*
X135192741Y-121813666D02*
X135475583Y-121813666D01*
X136310012Y-111620790D02*
X136239990Y-111690812D01*
X136239990Y-119623969D02*
X134624999Y-121238960D01*
X136239990Y-111690812D02*
X136239990Y-119623969D01*
G04 #@! TO.N,RESET*
X131610000Y-105685000D02*
X132775000Y-106850000D01*
X135750001Y-119513589D02*
X135750001Y-111882842D01*
X135750001Y-111882842D02*
X135750001Y-111600000D01*
X135950000Y-108789596D02*
X135950000Y-111400001D01*
X134174989Y-122450011D02*
X134174989Y-121088601D01*
X134174989Y-121088601D02*
X135750001Y-119513589D01*
X135950000Y-111400001D02*
X135750001Y-111600000D01*
X135300000Y-123575022D02*
X134174989Y-122450011D01*
X134010404Y-106850000D02*
X135950000Y-108789596D01*
X132775000Y-106850000D02*
X134010404Y-106850000D01*
G04 #@! TO.N,SPI_MOSI*
X131610000Y-101550000D02*
X130395010Y-100335010D01*
X130434069Y-127224937D02*
X131950619Y-127224937D01*
X128546032Y-117553656D02*
X128340011Y-117759677D01*
X130395010Y-100335010D02*
X129517170Y-100335010D01*
X127846010Y-102006170D02*
X127846010Y-106606878D01*
X128340011Y-110630879D02*
X128546032Y-110836900D01*
X131950619Y-127224937D02*
X132233461Y-127224937D01*
X128546032Y-110836900D02*
X128546032Y-117553656D01*
X128730011Y-118750323D02*
X128730011Y-125520879D01*
X128340011Y-117759677D02*
X128340011Y-118360323D01*
X128730011Y-125520879D02*
X130434069Y-127224937D01*
X128340011Y-118360323D02*
X128730011Y-118750323D01*
X127846010Y-106606878D02*
X128340011Y-107100879D01*
X128340011Y-107100879D02*
X128340011Y-110630879D01*
X129517170Y-100335010D02*
X127846010Y-102006170D01*
G04 #@! TO.N,SPI_MISO*
X133038932Y-127351570D02*
X132422744Y-126735382D01*
X132762411Y-103089989D02*
X134150000Y-101702400D01*
X134150000Y-101702400D02*
X134150000Y-101550000D01*
X133401569Y-127551569D02*
X133201570Y-127351570D01*
X128906043Y-110687779D02*
X128700022Y-110481758D01*
X131330001Y-120580401D02*
X131330001Y-116426468D01*
X131510011Y-113870415D02*
X128906043Y-111266447D01*
X130453646Y-126735382D02*
X129090022Y-125371758D01*
X133201570Y-127351570D02*
X133038932Y-127351570D01*
X129090022Y-122820380D02*
X131330001Y-120580401D01*
X128226021Y-102163575D02*
X128719598Y-101669998D01*
X128700022Y-106881758D02*
X128226021Y-106407757D01*
X132422744Y-126735382D02*
X130453646Y-126735382D01*
X131250393Y-103089989D02*
X132762411Y-103089989D01*
X128226021Y-106407757D02*
X128226021Y-102163575D01*
X131510011Y-116246458D02*
X131510011Y-113870415D01*
X128719598Y-101669998D02*
X129830402Y-101669998D01*
X129090022Y-125371758D02*
X129090022Y-122820380D01*
X131330001Y-116426468D02*
X131510011Y-116246458D01*
X128906043Y-111266447D02*
X128906043Y-110687779D01*
X129830402Y-101669998D02*
X131250393Y-103089989D01*
X128700022Y-110481758D02*
X128700022Y-106881758D01*
G04 #@! TO.N,SPI_SCK*
X130600000Y-103950000D02*
X130600000Y-109812584D01*
X133280011Y-123892595D02*
X133280011Y-125932347D01*
X132470033Y-123082616D02*
X133280011Y-123892595D01*
X133280011Y-125932347D02*
X133215190Y-125997168D01*
X133215190Y-125997168D02*
X133215190Y-126280010D01*
X132650042Y-116718675D02*
X132470033Y-116898684D01*
X131010001Y-103539999D02*
X130600000Y-103950000D01*
X136690000Y-101702400D02*
X134852401Y-103539999D01*
X132470033Y-116898684D02*
X132470033Y-123082616D01*
X130600000Y-109812584D02*
X132650042Y-111862626D01*
X136690000Y-101550000D02*
X136690000Y-101702400D01*
X132650042Y-111862626D02*
X132650042Y-116718675D01*
X134852401Y-103539999D02*
X131010001Y-103539999D01*
G04 #@! TO.N,SCL*
X130509706Y-125246694D02*
X130509706Y-125529536D01*
X132113747Y-125050000D02*
X131922063Y-124858316D01*
X132270032Y-116561269D02*
X132090023Y-116741278D01*
X131531661Y-124858316D02*
X131506661Y-124833316D01*
X130923084Y-124833316D02*
X130509706Y-125246694D01*
X131506661Y-124833316D02*
X130923084Y-124833316D01*
X131922063Y-124858316D02*
X131531661Y-124858316D01*
X132900000Y-124900000D02*
X132750000Y-125050000D01*
X132090022Y-123490022D02*
X132900000Y-124300000D01*
X132270032Y-112020032D02*
X132270032Y-116561269D01*
X129937808Y-109687808D02*
X132270032Y-112020032D01*
X129937808Y-102487808D02*
X129937808Y-109687808D01*
X132090023Y-116741278D02*
X132090022Y-123490022D01*
X132750000Y-125050000D02*
X132113747Y-125050000D01*
X132900000Y-124300000D02*
X132900000Y-124900000D01*
X129600000Y-102150000D02*
X129937808Y-102487808D01*
G04 #@! TO.N,SDA*
X131890022Y-116403863D02*
X131710012Y-116583873D01*
X131890022Y-112540022D02*
X131890022Y-116403863D01*
X129000000Y-102150000D02*
X129000000Y-103439598D01*
X129420044Y-103859642D02*
X129420044Y-110070044D01*
X131710012Y-116583873D02*
X131710012Y-120904144D01*
X129450033Y-123164123D02*
X129450033Y-125190132D01*
X130515282Y-126255381D02*
X130798124Y-126255381D01*
X129000000Y-103439598D02*
X129420044Y-103859642D01*
X129420044Y-110070044D02*
X131890022Y-112540022D01*
X129450033Y-125190132D02*
X130515282Y-126255381D01*
X131710012Y-120904144D02*
X129450033Y-123164123D01*
G04 #@! TO.N,AREF*
X129756077Y-118050000D02*
X128835344Y-118050000D01*
X128835344Y-118050000D02*
X128800021Y-118014677D01*
G04 #@! TO.N,A0*
X130061067Y-120150010D02*
X129861068Y-120350009D01*
X130235011Y-119976066D02*
X130061067Y-120150010D01*
X130235011Y-118950000D02*
X130235011Y-119976066D01*
G04 #@! TO.N,A5*
X133950000Y-128363590D02*
X133950000Y-127388219D01*
X133226007Y-129087583D02*
X133950000Y-128363590D01*
X133226007Y-130718112D02*
X133226007Y-129087583D01*
X131476449Y-125324473D02*
X131193607Y-125324473D01*
X131557315Y-125324473D02*
X131476449Y-125324473D01*
X132992853Y-126760011D02*
X131557315Y-125324473D01*
X133321792Y-126760011D02*
X132992853Y-126760011D01*
X133950000Y-127388219D02*
X133321792Y-126760011D01*
X133204522Y-130718112D02*
X133226007Y-130718112D01*
X126702400Y-132030000D02*
X126550000Y-132030000D01*
G04 #@! TO.N,D0/UART_RX*
X126970635Y-130709219D02*
X126970635Y-130683848D01*
X126550000Y-134570000D02*
X126550000Y-133771422D01*
X127826005Y-132495417D02*
X127826005Y-131564589D01*
X126550000Y-133771422D02*
X127826005Y-132495417D01*
X127826005Y-131564589D02*
X126970635Y-130709219D01*
G04 #@! TO.N,D1/UART_TX*
X128950010Y-128128374D02*
X128950010Y-127845532D01*
X128906043Y-128172341D02*
X128950010Y-128128374D01*
X127766000Y-137110000D02*
X129530001Y-135345999D01*
X128906043Y-131666911D02*
X128906043Y-128172341D01*
X129530001Y-132290869D02*
X128906043Y-131666911D01*
X126550000Y-137110000D02*
X127766000Y-137110000D01*
X129530001Y-135345999D02*
X129530001Y-132290869D01*
G04 #@! TO.N,D13*
X134969970Y-110249980D02*
X133850000Y-110249980D01*
X134969970Y-110249980D02*
X134969990Y-110250000D01*
X133660022Y-125979861D02*
X133760172Y-126080011D01*
X133660022Y-123735190D02*
X133660022Y-125979861D01*
X132850044Y-117056089D02*
X132850044Y-122925211D01*
X132850044Y-122925211D02*
X133660022Y-123735190D01*
X133700000Y-116206133D02*
X132850044Y-117056089D01*
X133700000Y-111250000D02*
X133700000Y-116206133D01*
X133760172Y-126080011D02*
X133960171Y-126280010D01*
G04 #@! TO.N,D12*
X134450000Y-111250000D02*
X134450000Y-119213590D01*
X134805179Y-126760012D02*
X135265569Y-126760012D01*
X134040033Y-123577785D02*
X134040033Y-123777784D01*
X135265569Y-126760012D02*
X135395968Y-126629613D01*
X135395968Y-126629613D02*
X135595967Y-126429614D01*
X134555579Y-126510412D02*
X134805179Y-126760012D01*
X133274970Y-120388620D02*
X133274970Y-122812722D01*
X134450000Y-119213590D02*
X133274970Y-120388620D01*
X134040033Y-123777784D02*
X134555579Y-124293331D01*
X133274970Y-122812722D02*
X134040033Y-123577785D01*
X134555579Y-124293331D02*
X134555579Y-126510412D01*
X137800000Y-107450000D02*
X139525001Y-105724999D01*
X139525001Y-105724999D02*
X140002001Y-105724999D01*
X140458990Y-110521390D02*
X141647600Y-111710000D01*
X140002001Y-105724999D02*
X140458990Y-106181988D01*
X140458990Y-106181988D02*
X140458990Y-110521390D01*
X141647600Y-111710000D02*
X141800000Y-111710000D01*
G04 #@! TO.N,D11*
X140287024Y-120055290D02*
X140287024Y-116787024D01*
X139899999Y-116399999D02*
X139700000Y-116200000D01*
X140287024Y-116787024D02*
X139899999Y-116399999D01*
X140459399Y-120227665D02*
X140287024Y-120055290D01*
X137369999Y-123777867D02*
X140459399Y-120688467D01*
X137369999Y-125457001D02*
X137369999Y-123777867D01*
X134362771Y-129137228D02*
X134362771Y-128464229D01*
X134362771Y-128464229D02*
X137369999Y-125457001D01*
X140459399Y-120688467D02*
X140459399Y-120227665D01*
X141647600Y-114250000D02*
X141800000Y-114250000D01*
G04 #@! TO.N,D10*
X138419989Y-120619607D02*
X138419989Y-120869609D01*
X139208312Y-118169425D02*
X139208312Y-119831284D01*
X136319989Y-122969609D02*
X136319989Y-123533315D01*
X139208312Y-119831284D02*
X138419989Y-120619607D01*
X138419989Y-120869609D02*
X136319989Y-122969609D01*
X136319989Y-123533315D02*
X135035581Y-124817723D01*
X135035581Y-124817723D02*
X135035581Y-125997168D01*
X135035581Y-125997168D02*
X135035581Y-126280010D01*
G04 #@! TO.N,D9*
X138039978Y-120636720D02*
X138039978Y-118797923D01*
X135626686Y-123050012D02*
X138039978Y-120636720D01*
X138383438Y-118454463D02*
X138583437Y-118254464D01*
X138039978Y-118797923D02*
X138383438Y-118454463D01*
X129910043Y-124467158D02*
X129910043Y-124750000D01*
X129910043Y-124039957D02*
X129910043Y-124467158D01*
X131642603Y-123721440D02*
X130228560Y-123721440D01*
X131919467Y-123998304D02*
X131642603Y-123721440D01*
X130228560Y-123721440D02*
X129910043Y-124039957D01*
G04 #@! TO.N,D8*
X138682115Y-124442875D02*
X138482116Y-124642874D01*
X140191390Y-122933600D02*
X138682115Y-124442875D01*
X140584000Y-122933600D02*
X140191390Y-122933600D01*
X141647600Y-121870000D02*
X140584000Y-122933600D01*
X141800000Y-121870000D02*
X141647600Y-121870000D01*
X131689066Y-124478305D02*
X132252456Y-124478305D01*
X131412203Y-124201442D02*
X131689066Y-124478305D01*
X132252456Y-124478305D02*
X132269990Y-124495839D01*
X130520898Y-124201442D02*
X131412203Y-124201442D01*
G04 #@! TO.N,D7*
X139977273Y-128808077D02*
X140329989Y-128808077D01*
X140329989Y-128808077D02*
X140692841Y-128445225D01*
X140310003Y-127596359D02*
X140310003Y-126204132D01*
X140310003Y-126204132D02*
X140592202Y-125921935D01*
X140248261Y-125136394D02*
X140193760Y-125136394D01*
X140193760Y-125136394D02*
X139910918Y-125136394D01*
X137498202Y-128351798D02*
X137900000Y-127950000D01*
X137698201Y-129290734D02*
X137498202Y-129090735D01*
X139119196Y-127950000D02*
X139977273Y-128808077D01*
X140592202Y-125921935D02*
X140592202Y-125480333D01*
X140592202Y-125480333D02*
X140248261Y-125136394D01*
X137900000Y-127950000D02*
X139119196Y-127950000D01*
X140692841Y-128445225D02*
X140692841Y-127979197D01*
X137498202Y-129090735D02*
X137498202Y-128351798D01*
X140692841Y-127979197D02*
X140310003Y-127596359D01*
G04 #@! TO.N,D6*
X139903334Y-125930001D02*
X139932202Y-125901133D01*
X136000000Y-127600000D02*
X137669999Y-125930001D01*
X137669999Y-125930001D02*
X139903334Y-125930001D01*
X139932202Y-125901133D02*
X140132201Y-125701134D01*
G04 #@! TO.N,D5*
X141647600Y-129490000D02*
X141800000Y-129490000D01*
X137314043Y-127514211D02*
X139399060Y-127514211D01*
X134652921Y-130175333D02*
X137314043Y-127514211D01*
X139986182Y-128101333D02*
X140186181Y-128301332D01*
X139399060Y-127514211D02*
X139986182Y-128101333D01*
G04 #@! TO.N,D4*
X135177035Y-131515355D02*
X134894193Y-131515355D01*
X139130000Y-132030000D02*
X138615355Y-131515355D01*
X138615355Y-131515355D02*
X135177035Y-131515355D01*
X141800000Y-132030000D02*
X139130000Y-132030000D01*
X141647600Y-132030000D02*
X141800000Y-132030000D01*
X132633618Y-131363604D02*
X132633618Y-130247475D01*
X129030009Y-126643866D02*
X128830010Y-126443867D01*
X132633618Y-130247475D02*
X129030009Y-126643866D01*
G04 #@! TO.N,D3*
X132000000Y-138050000D02*
X132000000Y-134712584D01*
X139552001Y-139225001D02*
X133175001Y-139225001D01*
X141800000Y-134570000D02*
X140458990Y-135911010D01*
X140458990Y-138318012D02*
X139552001Y-139225001D01*
X132509978Y-131950368D02*
X132153616Y-131594006D01*
X132153616Y-131594006D02*
X132153616Y-130368336D01*
X132153616Y-130368336D02*
X129065197Y-127279917D01*
X132509978Y-132860428D02*
X132509978Y-131950368D01*
X129065197Y-127279917D02*
X128913296Y-127279917D01*
X133175001Y-139225001D02*
X132000000Y-138050000D01*
X132000000Y-134712584D02*
X132119989Y-134592595D01*
X140458990Y-135911010D02*
X140458990Y-138318012D01*
X132119989Y-134592595D02*
X132119989Y-133250417D01*
X132119989Y-133250417D02*
X132509978Y-132860428D01*
G04 #@! TO.N,D2*
X141800000Y-137110000D02*
X141800000Y-138312081D01*
X131280001Y-137943413D02*
X131280001Y-134483330D01*
X141800000Y-138312081D02*
X140437070Y-139675011D01*
X131159978Y-133902505D02*
X131269990Y-133792493D01*
X131159978Y-134363307D02*
X131159978Y-133902505D01*
X140437070Y-139675011D02*
X133011599Y-139675011D01*
X131269990Y-133792493D02*
X131269990Y-131726909D01*
X133011599Y-139675011D02*
X131280001Y-137943413D01*
X131269990Y-131726909D02*
X131269990Y-131444067D01*
X131280001Y-134483330D02*
X131159978Y-134363307D01*
G04 #@! TO.N,Net-(JP2-Pad2)*
X139300000Y-141200000D02*
X138400000Y-140300000D01*
X139300000Y-141200000D02*
X139919999Y-141200000D01*
G04 #@! TO.N,VUSB*
X127960000Y-117630556D02*
X128186021Y-117404535D01*
X127960000Y-118489444D02*
X127960000Y-117630556D01*
X128186021Y-118715465D02*
X127960000Y-118489444D01*
X128186021Y-130906342D02*
X128186021Y-118715465D01*
X129050000Y-134510000D02*
X128546026Y-134006026D01*
X128186021Y-111095465D02*
X127960000Y-110869444D01*
X128546026Y-134006026D02*
X128546026Y-131266347D01*
X128186021Y-117404535D02*
X128186021Y-111095465D01*
X128546026Y-131266347D02*
X128186021Y-130906342D01*
X126702400Y-106630000D02*
X126550000Y-106630000D01*
X127960000Y-107887600D02*
X126702400Y-106630000D01*
X127960000Y-110869444D02*
X127960000Y-107887600D01*
G04 #@! TD*
G04 #@! TO.N,Net-(C1-Pad2)*
G36*
X130682039Y-141138249D02*
X130640036Y-141288483D01*
X130700391Y-141425000D01*
X131625000Y-141425000D01*
X131625000Y-141405000D01*
X131675000Y-141405000D01*
X131675000Y-141425000D01*
X132599609Y-141425000D01*
X132659964Y-141288483D01*
X132617961Y-141138249D01*
X132598901Y-141100000D01*
X135701099Y-141100000D01*
X135682039Y-141138249D01*
X135640036Y-141288483D01*
X135700391Y-141425000D01*
X136625000Y-141425000D01*
X136625000Y-141405000D01*
X136675000Y-141405000D01*
X136675000Y-141425000D01*
X137599609Y-141425000D01*
X137659964Y-141288483D01*
X137617961Y-141138249D01*
X137598901Y-141100000D01*
X137700000Y-141100000D01*
X137700000Y-143000000D01*
X137701921Y-143019509D01*
X137707120Y-143036645D01*
X137675000Y-143050379D01*
X137675000Y-144125000D01*
X137695000Y-144125000D01*
X137695000Y-144175000D01*
X137675000Y-144175000D01*
X137675000Y-144195000D01*
X137625000Y-144195000D01*
X137625000Y-144175000D01*
X136750000Y-144175000D01*
X136750000Y-144450000D01*
X136772171Y-144625101D01*
X136828076Y-144792512D01*
X136915567Y-144945800D01*
X137031282Y-145079074D01*
X137170774Y-145187212D01*
X137246453Y-145225000D01*
X131053547Y-145225000D01*
X131129226Y-145187212D01*
X131268718Y-145079074D01*
X131384433Y-144945800D01*
X131471924Y-144792512D01*
X131527829Y-144625101D01*
X131550000Y-144450000D01*
X131550000Y-144175000D01*
X130675000Y-144175000D01*
X130675000Y-144195000D01*
X130625000Y-144195000D01*
X130625000Y-144175000D01*
X130605000Y-144175000D01*
X130605000Y-144125000D01*
X130625000Y-144125000D01*
X130625000Y-143050379D01*
X130675000Y-143050379D01*
X130675000Y-144125000D01*
X131550000Y-144125000D01*
X131550000Y-143850000D01*
X136750000Y-143850000D01*
X136750000Y-144125000D01*
X137625000Y-144125000D01*
X137625000Y-143050379D01*
X137484571Y-142990334D01*
X137328682Y-143033941D01*
X137170774Y-143112788D01*
X137031282Y-143220926D01*
X136915567Y-143354200D01*
X136828076Y-143507488D01*
X136772171Y-143674899D01*
X136750000Y-143850000D01*
X131550000Y-143850000D01*
X131527829Y-143674899D01*
X131471924Y-143507488D01*
X131384433Y-143354200D01*
X131268718Y-143220926D01*
X131129226Y-143112788D01*
X130971318Y-143033941D01*
X130815429Y-142990334D01*
X130675000Y-143050379D01*
X130625000Y-143050379D01*
X130592880Y-143036645D01*
X130598079Y-143019509D01*
X130600000Y-143000000D01*
X130600000Y-141611517D01*
X130640036Y-141611517D01*
X130682039Y-141761751D01*
X130758575Y-141915337D01*
X130863604Y-142051041D01*
X130993089Y-142163647D01*
X131142055Y-142248828D01*
X131304776Y-142303310D01*
X131475000Y-142325000D01*
X131625000Y-142325000D01*
X131625000Y-141475000D01*
X131675000Y-141475000D01*
X131675000Y-142325000D01*
X131825000Y-142325000D01*
X131995224Y-142303310D01*
X132157945Y-142248828D01*
X132306911Y-142163647D01*
X132436396Y-142051041D01*
X132541425Y-141915337D01*
X132617961Y-141761751D01*
X132659964Y-141611517D01*
X135640036Y-141611517D01*
X135682039Y-141761751D01*
X135758575Y-141915337D01*
X135863604Y-142051041D01*
X135993089Y-142163647D01*
X136142055Y-142248828D01*
X136304776Y-142303310D01*
X136475000Y-142325000D01*
X136625000Y-142325000D01*
X136625000Y-141475000D01*
X136675000Y-141475000D01*
X136675000Y-142325000D01*
X136825000Y-142325000D01*
X136995224Y-142303310D01*
X137157945Y-142248828D01*
X137306911Y-142163647D01*
X137436396Y-142051041D01*
X137541425Y-141915337D01*
X137617961Y-141761751D01*
X137659964Y-141611517D01*
X137599609Y-141475000D01*
X136675000Y-141475000D01*
X136625000Y-141475000D01*
X135700391Y-141475000D01*
X135640036Y-141611517D01*
X132659964Y-141611517D01*
X132599609Y-141475000D01*
X131675000Y-141475000D01*
X131625000Y-141475000D01*
X130700391Y-141475000D01*
X130640036Y-141611517D01*
X130600000Y-141611517D01*
X130600000Y-141100000D01*
X130701099Y-141100000D01*
X130682039Y-141138249D01*
X130682039Y-141138249D01*
G37*
X130682039Y-141138249D02*
X130640036Y-141288483D01*
X130700391Y-141425000D01*
X131625000Y-141425000D01*
X131625000Y-141405000D01*
X131675000Y-141405000D01*
X131675000Y-141425000D01*
X132599609Y-141425000D01*
X132659964Y-141288483D01*
X132617961Y-141138249D01*
X132598901Y-141100000D01*
X135701099Y-141100000D01*
X135682039Y-141138249D01*
X135640036Y-141288483D01*
X135700391Y-141425000D01*
X136625000Y-141425000D01*
X136625000Y-141405000D01*
X136675000Y-141405000D01*
X136675000Y-141425000D01*
X137599609Y-141425000D01*
X137659964Y-141288483D01*
X137617961Y-141138249D01*
X137598901Y-141100000D01*
X137700000Y-141100000D01*
X137700000Y-143000000D01*
X137701921Y-143019509D01*
X137707120Y-143036645D01*
X137675000Y-143050379D01*
X137675000Y-144125000D01*
X137695000Y-144125000D01*
X137695000Y-144175000D01*
X137675000Y-144175000D01*
X137675000Y-144195000D01*
X137625000Y-144195000D01*
X137625000Y-144175000D01*
X136750000Y-144175000D01*
X136750000Y-144450000D01*
X136772171Y-144625101D01*
X136828076Y-144792512D01*
X136915567Y-144945800D01*
X137031282Y-145079074D01*
X137170774Y-145187212D01*
X137246453Y-145225000D01*
X131053547Y-145225000D01*
X131129226Y-145187212D01*
X131268718Y-145079074D01*
X131384433Y-144945800D01*
X131471924Y-144792512D01*
X131527829Y-144625101D01*
X131550000Y-144450000D01*
X131550000Y-144175000D01*
X130675000Y-144175000D01*
X130675000Y-144195000D01*
X130625000Y-144195000D01*
X130625000Y-144175000D01*
X130605000Y-144175000D01*
X130605000Y-144125000D01*
X130625000Y-144125000D01*
X130625000Y-143050379D01*
X130675000Y-143050379D01*
X130675000Y-144125000D01*
X131550000Y-144125000D01*
X131550000Y-143850000D01*
X136750000Y-143850000D01*
X136750000Y-144125000D01*
X137625000Y-144125000D01*
X137625000Y-143050379D01*
X137484571Y-142990334D01*
X137328682Y-143033941D01*
X137170774Y-143112788D01*
X137031282Y-143220926D01*
X136915567Y-143354200D01*
X136828076Y-143507488D01*
X136772171Y-143674899D01*
X136750000Y-143850000D01*
X131550000Y-143850000D01*
X131527829Y-143674899D01*
X131471924Y-143507488D01*
X131384433Y-143354200D01*
X131268718Y-143220926D01*
X131129226Y-143112788D01*
X130971318Y-143033941D01*
X130815429Y-142990334D01*
X130675000Y-143050379D01*
X130625000Y-143050379D01*
X130592880Y-143036645D01*
X130598079Y-143019509D01*
X130600000Y-143000000D01*
X130600000Y-141611517D01*
X130640036Y-141611517D01*
X130682039Y-141761751D01*
X130758575Y-141915337D01*
X130863604Y-142051041D01*
X130993089Y-142163647D01*
X131142055Y-142248828D01*
X131304776Y-142303310D01*
X131475000Y-142325000D01*
X131625000Y-142325000D01*
X131625000Y-141475000D01*
X131675000Y-141475000D01*
X131675000Y-142325000D01*
X131825000Y-142325000D01*
X131995224Y-142303310D01*
X132157945Y-142248828D01*
X132306911Y-142163647D01*
X132436396Y-142051041D01*
X132541425Y-141915337D01*
X132617961Y-141761751D01*
X132659964Y-141611517D01*
X135640036Y-141611517D01*
X135682039Y-141761751D01*
X135758575Y-141915337D01*
X135863604Y-142051041D01*
X135993089Y-142163647D01*
X136142055Y-142248828D01*
X136304776Y-142303310D01*
X136475000Y-142325000D01*
X136625000Y-142325000D01*
X136625000Y-141475000D01*
X136675000Y-141475000D01*
X136675000Y-142325000D01*
X136825000Y-142325000D01*
X136995224Y-142303310D01*
X137157945Y-142248828D01*
X137306911Y-142163647D01*
X137436396Y-142051041D01*
X137541425Y-141915337D01*
X137617961Y-141761751D01*
X137659964Y-141611517D01*
X137599609Y-141475000D01*
X136675000Y-141475000D01*
X136625000Y-141475000D01*
X135700391Y-141475000D01*
X135640036Y-141611517D01*
X132659964Y-141611517D01*
X132599609Y-141475000D01*
X131675000Y-141475000D01*
X131625000Y-141475000D01*
X130700391Y-141475000D01*
X130640036Y-141611517D01*
X130600000Y-141611517D01*
X130600000Y-141100000D01*
X130701099Y-141100000D01*
X130682039Y-141138249D01*
D22*
G04 #@! TO.N,GND*
G36*
X130344259Y-132880698D02*
X130344258Y-133500082D01*
X130295473Y-133573094D01*
X130261552Y-133654989D01*
X130244258Y-133741928D01*
X130244258Y-133830570D01*
X130261552Y-133917509D01*
X130295473Y-133999404D01*
X130344720Y-134073107D01*
X130407400Y-134135787D01*
X130481103Y-134185034D01*
X130562998Y-134218955D01*
X130649937Y-134236249D01*
X130738579Y-134236249D01*
X130809978Y-134222046D01*
X130809978Y-134346118D01*
X130808285Y-134363307D01*
X130809978Y-134380495D01*
X130815043Y-134431918D01*
X130835056Y-134497893D01*
X130867556Y-134558696D01*
X130911293Y-134611991D01*
X130924653Y-134622956D01*
X130930002Y-134628304D01*
X130930001Y-137926225D01*
X130928308Y-137943413D01*
X130930001Y-137960601D01*
X130935066Y-138012024D01*
X130955079Y-138077999D01*
X130987579Y-138138802D01*
X131031316Y-138192097D01*
X131044677Y-138203062D01*
X132751954Y-139910341D01*
X132762914Y-139923696D01*
X132816209Y-139967433D01*
X132877012Y-139999933D01*
X132942987Y-140019946D01*
X132994410Y-140025011D01*
X132994412Y-140025011D01*
X133011598Y-140026704D01*
X133028784Y-140025011D01*
X138042531Y-140025011D01*
X138001215Y-140086845D01*
X137967294Y-140168740D01*
X137950000Y-140255679D01*
X137950000Y-140344321D01*
X137967294Y-140431260D01*
X138001215Y-140513155D01*
X138050462Y-140586858D01*
X138113142Y-140649538D01*
X138186845Y-140698785D01*
X138213921Y-140710000D01*
X137165674Y-140710000D01*
X137117241Y-140684112D01*
X136961728Y-140636938D01*
X136840521Y-140625000D01*
X136459479Y-140625000D01*
X136338272Y-140636938D01*
X136182759Y-140684112D01*
X136134326Y-140710000D01*
X132165674Y-140710000D01*
X132117241Y-140684112D01*
X131961728Y-140636938D01*
X131840521Y-140625000D01*
X131459479Y-140625000D01*
X131338272Y-140636938D01*
X131182759Y-140684112D01*
X131134326Y-140710000D01*
X129750000Y-140710000D01*
X129732442Y-140711729D01*
X129715558Y-140716851D01*
X129699999Y-140725168D01*
X129686360Y-140736360D01*
X129675168Y-140749999D01*
X129666851Y-140765558D01*
X129661729Y-140782442D01*
X129660000Y-140800000D01*
X129660000Y-145275000D01*
X125325000Y-145275000D01*
X125325000Y-141080000D01*
X129569048Y-141080000D01*
X129569048Y-138880000D01*
X125325000Y-138880000D01*
X125325000Y-138163942D01*
X125432988Y-138131184D01*
X125624084Y-138029042D01*
X125780000Y-137901085D01*
X125935916Y-138029042D01*
X126127012Y-138131184D01*
X126334362Y-138194084D01*
X126495964Y-138210000D01*
X126604036Y-138210000D01*
X126765638Y-138194084D01*
X126972988Y-138131184D01*
X127164084Y-138029042D01*
X127331581Y-137891581D01*
X127469042Y-137724084D01*
X127571184Y-137532988D01*
X127593325Y-137460000D01*
X127748812Y-137460000D01*
X127766000Y-137461693D01*
X127783188Y-137460000D01*
X127783189Y-137460000D01*
X127834612Y-137454935D01*
X127900587Y-137434922D01*
X127961390Y-137402422D01*
X128014685Y-137358685D01*
X128025653Y-137345320D01*
X129765336Y-135605639D01*
X129778685Y-135594684D01*
X129822423Y-135541389D01*
X129854923Y-135480586D01*
X129874936Y-135414611D01*
X129878367Y-135379783D01*
X129881694Y-135346000D01*
X129880001Y-135328811D01*
X129880001Y-132416439D01*
X130344259Y-132880698D01*
X130344259Y-132880698D01*
G37*
X130344259Y-132880698D02*
X130344258Y-133500082D01*
X130295473Y-133573094D01*
X130261552Y-133654989D01*
X130244258Y-133741928D01*
X130244258Y-133830570D01*
X130261552Y-133917509D01*
X130295473Y-133999404D01*
X130344720Y-134073107D01*
X130407400Y-134135787D01*
X130481103Y-134185034D01*
X130562998Y-134218955D01*
X130649937Y-134236249D01*
X130738579Y-134236249D01*
X130809978Y-134222046D01*
X130809978Y-134346118D01*
X130808285Y-134363307D01*
X130809978Y-134380495D01*
X130815043Y-134431918D01*
X130835056Y-134497893D01*
X130867556Y-134558696D01*
X130911293Y-134611991D01*
X130924653Y-134622956D01*
X130930002Y-134628304D01*
X130930001Y-137926225D01*
X130928308Y-137943413D01*
X130930001Y-137960601D01*
X130935066Y-138012024D01*
X130955079Y-138077999D01*
X130987579Y-138138802D01*
X131031316Y-138192097D01*
X131044677Y-138203062D01*
X132751954Y-139910341D01*
X132762914Y-139923696D01*
X132816209Y-139967433D01*
X132877012Y-139999933D01*
X132942987Y-140019946D01*
X132994410Y-140025011D01*
X132994412Y-140025011D01*
X133011598Y-140026704D01*
X133028784Y-140025011D01*
X138042531Y-140025011D01*
X138001215Y-140086845D01*
X137967294Y-140168740D01*
X137950000Y-140255679D01*
X137950000Y-140344321D01*
X137967294Y-140431260D01*
X138001215Y-140513155D01*
X138050462Y-140586858D01*
X138113142Y-140649538D01*
X138186845Y-140698785D01*
X138213921Y-140710000D01*
X137165674Y-140710000D01*
X137117241Y-140684112D01*
X136961728Y-140636938D01*
X136840521Y-140625000D01*
X136459479Y-140625000D01*
X136338272Y-140636938D01*
X136182759Y-140684112D01*
X136134326Y-140710000D01*
X132165674Y-140710000D01*
X132117241Y-140684112D01*
X131961728Y-140636938D01*
X131840521Y-140625000D01*
X131459479Y-140625000D01*
X131338272Y-140636938D01*
X131182759Y-140684112D01*
X131134326Y-140710000D01*
X129750000Y-140710000D01*
X129732442Y-140711729D01*
X129715558Y-140716851D01*
X129699999Y-140725168D01*
X129686360Y-140736360D01*
X129675168Y-140749999D01*
X129666851Y-140765558D01*
X129661729Y-140782442D01*
X129660000Y-140800000D01*
X129660000Y-145275000D01*
X125325000Y-145275000D01*
X125325000Y-141080000D01*
X129569048Y-141080000D01*
X129569048Y-138880000D01*
X125325000Y-138880000D01*
X125325000Y-138163942D01*
X125432988Y-138131184D01*
X125624084Y-138029042D01*
X125780000Y-137901085D01*
X125935916Y-138029042D01*
X126127012Y-138131184D01*
X126334362Y-138194084D01*
X126495964Y-138210000D01*
X126604036Y-138210000D01*
X126765638Y-138194084D01*
X126972988Y-138131184D01*
X127164084Y-138029042D01*
X127331581Y-137891581D01*
X127469042Y-137724084D01*
X127571184Y-137532988D01*
X127593325Y-137460000D01*
X127748812Y-137460000D01*
X127766000Y-137461693D01*
X127783188Y-137460000D01*
X127783189Y-137460000D01*
X127834612Y-137454935D01*
X127900587Y-137434922D01*
X127961390Y-137402422D01*
X128014685Y-137358685D01*
X128025653Y-137345320D01*
X129765336Y-135605639D01*
X129778685Y-135594684D01*
X129822423Y-135541389D01*
X129854923Y-135480586D01*
X129874936Y-135414611D01*
X129878367Y-135379783D01*
X129881694Y-135346000D01*
X129880001Y-135328811D01*
X129880001Y-132416439D01*
X130344259Y-132880698D01*
G36*
X133430003Y-133535379D02*
X133430002Y-135352410D01*
X133428309Y-135369598D01*
X133430002Y-135386786D01*
X133435067Y-135438209D01*
X133455080Y-135504184D01*
X133487580Y-135564987D01*
X133531317Y-135618282D01*
X133544678Y-135629247D01*
X134980003Y-137064573D01*
X134980002Y-137875024D01*
X134604865Y-138250162D01*
X134518740Y-138267294D01*
X134436845Y-138301215D01*
X134363142Y-138350462D01*
X134300462Y-138413142D01*
X134251215Y-138486845D01*
X134217294Y-138568740D01*
X134200000Y-138655679D01*
X134200000Y-138744321D01*
X134217294Y-138831260D01*
X134235412Y-138875001D01*
X133864588Y-138875001D01*
X133882706Y-138831260D01*
X133900000Y-138744321D01*
X133900000Y-138655679D01*
X133882706Y-138568740D01*
X133848785Y-138486845D01*
X133799538Y-138413142D01*
X133736858Y-138350462D01*
X133663155Y-138301215D01*
X133581260Y-138267294D01*
X133495137Y-138250162D01*
X133120000Y-137875027D01*
X133120000Y-133302767D01*
X133125303Y-133297464D01*
X133138663Y-133286500D01*
X133157803Y-133263178D01*
X133430003Y-133535379D01*
X133430003Y-133535379D01*
G37*
X133430003Y-133535379D02*
X133430002Y-135352410D01*
X133428309Y-135369598D01*
X133430002Y-135386786D01*
X133435067Y-135438209D01*
X133455080Y-135504184D01*
X133487580Y-135564987D01*
X133531317Y-135618282D01*
X133544678Y-135629247D01*
X134980003Y-137064573D01*
X134980002Y-137875024D01*
X134604865Y-138250162D01*
X134518740Y-138267294D01*
X134436845Y-138301215D01*
X134363142Y-138350462D01*
X134300462Y-138413142D01*
X134251215Y-138486845D01*
X134217294Y-138568740D01*
X134200000Y-138655679D01*
X134200000Y-138744321D01*
X134217294Y-138831260D01*
X134235412Y-138875001D01*
X133864588Y-138875001D01*
X133882706Y-138831260D01*
X133900000Y-138744321D01*
X133900000Y-138655679D01*
X133882706Y-138568740D01*
X133848785Y-138486845D01*
X133799538Y-138413142D01*
X133736858Y-138350462D01*
X133663155Y-138301215D01*
X133581260Y-138267294D01*
X133495137Y-138250162D01*
X133120000Y-137875027D01*
X133120000Y-133302767D01*
X133125303Y-133297464D01*
X133138663Y-133286500D01*
X133157803Y-133263178D01*
X133430003Y-133535379D01*
G36*
X134444193Y-131471034D02*
X134444193Y-131559676D01*
X134461487Y-131646615D01*
X134495408Y-131728510D01*
X134544655Y-131802213D01*
X134607335Y-131864893D01*
X134681038Y-131914140D01*
X134762933Y-131948061D01*
X134849872Y-131965355D01*
X134938514Y-131965355D01*
X135025453Y-131948061D01*
X135107348Y-131914140D01*
X135180360Y-131865355D01*
X138470382Y-131865355D01*
X138870351Y-132265325D01*
X138881315Y-132278685D01*
X138934610Y-132322422D01*
X138995413Y-132354922D01*
X139061388Y-132374935D01*
X139130000Y-132381693D01*
X139147189Y-132380000D01*
X140756675Y-132380000D01*
X140778816Y-132452988D01*
X140880958Y-132644084D01*
X141018419Y-132811581D01*
X141185916Y-132949042D01*
X141377012Y-133051184D01*
X141584362Y-133114084D01*
X141745964Y-133130000D01*
X141854036Y-133130000D01*
X142015638Y-133114084D01*
X142222988Y-133051184D01*
X142414084Y-132949042D01*
X142581581Y-132811581D01*
X142585000Y-132807415D01*
X142588419Y-132811581D01*
X142755916Y-132949042D01*
X142947012Y-133051184D01*
X142975001Y-133059674D01*
X142975001Y-133540326D01*
X142947012Y-133548816D01*
X142755916Y-133650958D01*
X142588419Y-133788419D01*
X142585000Y-133792585D01*
X142581581Y-133788419D01*
X142414084Y-133650958D01*
X142222988Y-133548816D01*
X142015638Y-133485916D01*
X141854036Y-133470000D01*
X141745964Y-133470000D01*
X141584362Y-133485916D01*
X141377012Y-133548816D01*
X141185916Y-133650958D01*
X141018419Y-133788419D01*
X140880958Y-133955916D01*
X140778816Y-134147012D01*
X140715916Y-134354362D01*
X140694678Y-134570000D01*
X140715916Y-134785638D01*
X140778816Y-134992988D01*
X140814771Y-135060255D01*
X140223666Y-135651361D01*
X140210305Y-135662326D01*
X140166568Y-135715621D01*
X140134068Y-135776424D01*
X140114055Y-135842398D01*
X140114055Y-135842399D01*
X140107297Y-135911010D01*
X140108990Y-135928198D01*
X140108991Y-138173036D01*
X139827019Y-138455009D01*
X139798785Y-138386845D01*
X139749538Y-138313142D01*
X139686858Y-138250462D01*
X139613155Y-138201215D01*
X139531260Y-138167294D01*
X139444321Y-138150000D01*
X139355679Y-138150000D01*
X139268740Y-138167294D01*
X139186845Y-138201215D01*
X139113833Y-138250000D01*
X137717973Y-138250000D01*
X134685592Y-135217621D01*
X134685592Y-132687144D01*
X134734377Y-132614132D01*
X134768298Y-132532237D01*
X134785592Y-132445298D01*
X134785592Y-132356656D01*
X134768298Y-132269717D01*
X134734377Y-132187822D01*
X134685130Y-132114119D01*
X134622450Y-132051439D01*
X134548747Y-132002192D01*
X134466852Y-131968271D01*
X134379913Y-131950977D01*
X134291271Y-131950977D01*
X134204332Y-131968271D01*
X134122437Y-132002192D01*
X134048734Y-132051439D01*
X133986054Y-132114119D01*
X133936807Y-132187822D01*
X133902886Y-132269717D01*
X133885592Y-132356656D01*
X133885592Y-132445298D01*
X133902886Y-132532237D01*
X133936807Y-132614132D01*
X133985592Y-132687144D01*
X133985592Y-132701007D01*
X133985593Y-132701017D01*
X133985593Y-133101020D01*
X133619989Y-132735418D01*
X133619989Y-132139676D01*
X133662407Y-132087990D01*
X133664030Y-132084955D01*
X133679484Y-132056042D01*
X133694908Y-132027188D01*
X133697292Y-132019331D01*
X133701239Y-132006318D01*
X134322205Y-131385354D01*
X134461237Y-131385354D01*
X134444193Y-131471034D01*
X134444193Y-131471034D01*
G37*
X134444193Y-131471034D02*
X134444193Y-131559676D01*
X134461487Y-131646615D01*
X134495408Y-131728510D01*
X134544655Y-131802213D01*
X134607335Y-131864893D01*
X134681038Y-131914140D01*
X134762933Y-131948061D01*
X134849872Y-131965355D01*
X134938514Y-131965355D01*
X135025453Y-131948061D01*
X135107348Y-131914140D01*
X135180360Y-131865355D01*
X138470382Y-131865355D01*
X138870351Y-132265325D01*
X138881315Y-132278685D01*
X138934610Y-132322422D01*
X138995413Y-132354922D01*
X139061388Y-132374935D01*
X139130000Y-132381693D01*
X139147189Y-132380000D01*
X140756675Y-132380000D01*
X140778816Y-132452988D01*
X140880958Y-132644084D01*
X141018419Y-132811581D01*
X141185916Y-132949042D01*
X141377012Y-133051184D01*
X141584362Y-133114084D01*
X141745964Y-133130000D01*
X141854036Y-133130000D01*
X142015638Y-133114084D01*
X142222988Y-133051184D01*
X142414084Y-132949042D01*
X142581581Y-132811581D01*
X142585000Y-132807415D01*
X142588419Y-132811581D01*
X142755916Y-132949042D01*
X142947012Y-133051184D01*
X142975001Y-133059674D01*
X142975001Y-133540326D01*
X142947012Y-133548816D01*
X142755916Y-133650958D01*
X142588419Y-133788419D01*
X142585000Y-133792585D01*
X142581581Y-133788419D01*
X142414084Y-133650958D01*
X142222988Y-133548816D01*
X142015638Y-133485916D01*
X141854036Y-133470000D01*
X141745964Y-133470000D01*
X141584362Y-133485916D01*
X141377012Y-133548816D01*
X141185916Y-133650958D01*
X141018419Y-133788419D01*
X140880958Y-133955916D01*
X140778816Y-134147012D01*
X140715916Y-134354362D01*
X140694678Y-134570000D01*
X140715916Y-134785638D01*
X140778816Y-134992988D01*
X140814771Y-135060255D01*
X140223666Y-135651361D01*
X140210305Y-135662326D01*
X140166568Y-135715621D01*
X140134068Y-135776424D01*
X140114055Y-135842398D01*
X140114055Y-135842399D01*
X140107297Y-135911010D01*
X140108990Y-135928198D01*
X140108991Y-138173036D01*
X139827019Y-138455009D01*
X139798785Y-138386845D01*
X139749538Y-138313142D01*
X139686858Y-138250462D01*
X139613155Y-138201215D01*
X139531260Y-138167294D01*
X139444321Y-138150000D01*
X139355679Y-138150000D01*
X139268740Y-138167294D01*
X139186845Y-138201215D01*
X139113833Y-138250000D01*
X137717973Y-138250000D01*
X134685592Y-135217621D01*
X134685592Y-132687144D01*
X134734377Y-132614132D01*
X134768298Y-132532237D01*
X134785592Y-132445298D01*
X134785592Y-132356656D01*
X134768298Y-132269717D01*
X134734377Y-132187822D01*
X134685130Y-132114119D01*
X134622450Y-132051439D01*
X134548747Y-132002192D01*
X134466852Y-131968271D01*
X134379913Y-131950977D01*
X134291271Y-131950977D01*
X134204332Y-131968271D01*
X134122437Y-132002192D01*
X134048734Y-132051439D01*
X133986054Y-132114119D01*
X133936807Y-132187822D01*
X133902886Y-132269717D01*
X133885592Y-132356656D01*
X133885592Y-132445298D01*
X133902886Y-132532237D01*
X133936807Y-132614132D01*
X133985592Y-132687144D01*
X133985592Y-132701007D01*
X133985593Y-132701017D01*
X133985593Y-133101020D01*
X133619989Y-132735418D01*
X133619989Y-132139676D01*
X133662407Y-132087990D01*
X133664030Y-132084955D01*
X133679484Y-132056042D01*
X133694908Y-132027188D01*
X133697292Y-132019331D01*
X133701239Y-132006318D01*
X134322205Y-131385354D01*
X134461237Y-131385354D01*
X134444193Y-131471034D01*
G36*
X131803617Y-130513311D02*
X131803616Y-131576817D01*
X131801923Y-131594006D01*
X131803616Y-131611194D01*
X131808681Y-131662617D01*
X131828694Y-131728592D01*
X131861194Y-131789395D01*
X131904931Y-131842690D01*
X131918292Y-131853655D01*
X132159979Y-132095343D01*
X132159978Y-132715453D01*
X131884664Y-132990769D01*
X131871305Y-133001732D01*
X131827568Y-133055027D01*
X131810256Y-133087415D01*
X131795068Y-133115830D01*
X131775054Y-133181806D01*
X131768296Y-133250417D01*
X131769990Y-133267615D01*
X131769989Y-134447622D01*
X131764676Y-134452935D01*
X131751316Y-134463899D01*
X131707579Y-134517194D01*
X131687734Y-134554321D01*
X131675079Y-134577997D01*
X131655065Y-134643973D01*
X131648307Y-134712584D01*
X131650001Y-134729782D01*
X131650000Y-137818439D01*
X131630001Y-137798440D01*
X131630001Y-134500518D01*
X131631694Y-134483329D01*
X131624936Y-134414717D01*
X131614555Y-134380496D01*
X131604923Y-134348743D01*
X131572423Y-134287940D01*
X131528686Y-134234645D01*
X131515325Y-134223680D01*
X131509978Y-134218333D01*
X131509978Y-134048314D01*
X131518674Y-134041178D01*
X131562412Y-133987883D01*
X131594912Y-133927080D01*
X131614925Y-133861105D01*
X131619990Y-133809682D01*
X131619990Y-133809680D01*
X131621683Y-133792494D01*
X131619990Y-133775308D01*
X131619990Y-131730234D01*
X131668775Y-131657222D01*
X131702696Y-131575327D01*
X131719990Y-131488388D01*
X131719990Y-131399746D01*
X131702696Y-131312807D01*
X131668775Y-131230912D01*
X131619528Y-131157209D01*
X131556848Y-131094529D01*
X131483145Y-131045282D01*
X131401250Y-131011361D01*
X131314311Y-130994067D01*
X131225669Y-130994067D01*
X131138730Y-131011361D01*
X131056835Y-131045282D01*
X130983132Y-131094529D01*
X130920452Y-131157209D01*
X130871205Y-131230912D01*
X130837284Y-131312807D01*
X130819990Y-131399746D01*
X130819990Y-131488388D01*
X130837284Y-131575327D01*
X130871205Y-131657222D01*
X130919990Y-131730234D01*
X130919990Y-131744097D01*
X130919991Y-131744107D01*
X130919991Y-132466480D01*
X129825697Y-131372188D01*
X129825693Y-131372183D01*
X129815891Y-131362381D01*
X129798759Y-131276257D01*
X129764838Y-131194362D01*
X129715591Y-131120659D01*
X129652911Y-131057979D01*
X129579208Y-131008732D01*
X129497313Y-130974811D01*
X129410374Y-130957517D01*
X129321732Y-130957517D01*
X129256043Y-130970584D01*
X129256043Y-128298300D01*
X129274932Y-128262961D01*
X129294945Y-128196986D01*
X129300010Y-128145563D01*
X129300010Y-128145562D01*
X129301612Y-128129302D01*
X129348795Y-128058687D01*
X129348853Y-128058546D01*
X131803617Y-130513311D01*
X131803617Y-130513311D01*
G37*
X131803617Y-130513311D02*
X131803616Y-131576817D01*
X131801923Y-131594006D01*
X131803616Y-131611194D01*
X131808681Y-131662617D01*
X131828694Y-131728592D01*
X131861194Y-131789395D01*
X131904931Y-131842690D01*
X131918292Y-131853655D01*
X132159979Y-132095343D01*
X132159978Y-132715453D01*
X131884664Y-132990769D01*
X131871305Y-133001732D01*
X131827568Y-133055027D01*
X131810256Y-133087415D01*
X131795068Y-133115830D01*
X131775054Y-133181806D01*
X131768296Y-133250417D01*
X131769990Y-133267615D01*
X131769989Y-134447622D01*
X131764676Y-134452935D01*
X131751316Y-134463899D01*
X131707579Y-134517194D01*
X131687734Y-134554321D01*
X131675079Y-134577997D01*
X131655065Y-134643973D01*
X131648307Y-134712584D01*
X131650001Y-134729782D01*
X131650000Y-137818439D01*
X131630001Y-137798440D01*
X131630001Y-134500518D01*
X131631694Y-134483329D01*
X131624936Y-134414717D01*
X131614555Y-134380496D01*
X131604923Y-134348743D01*
X131572423Y-134287940D01*
X131528686Y-134234645D01*
X131515325Y-134223680D01*
X131509978Y-134218333D01*
X131509978Y-134048314D01*
X131518674Y-134041178D01*
X131562412Y-133987883D01*
X131594912Y-133927080D01*
X131614925Y-133861105D01*
X131619990Y-133809682D01*
X131619990Y-133809680D01*
X131621683Y-133792494D01*
X131619990Y-133775308D01*
X131619990Y-131730234D01*
X131668775Y-131657222D01*
X131702696Y-131575327D01*
X131719990Y-131488388D01*
X131719990Y-131399746D01*
X131702696Y-131312807D01*
X131668775Y-131230912D01*
X131619528Y-131157209D01*
X131556848Y-131094529D01*
X131483145Y-131045282D01*
X131401250Y-131011361D01*
X131314311Y-130994067D01*
X131225669Y-130994067D01*
X131138730Y-131011361D01*
X131056835Y-131045282D01*
X130983132Y-131094529D01*
X130920452Y-131157209D01*
X130871205Y-131230912D01*
X130837284Y-131312807D01*
X130819990Y-131399746D01*
X130819990Y-131488388D01*
X130837284Y-131575327D01*
X130871205Y-131657222D01*
X130919990Y-131730234D01*
X130919990Y-131744097D01*
X130919991Y-131744107D01*
X130919991Y-132466480D01*
X129825697Y-131372188D01*
X129825693Y-131372183D01*
X129815891Y-131362381D01*
X129798759Y-131276257D01*
X129764838Y-131194362D01*
X129715591Y-131120659D01*
X129652911Y-131057979D01*
X129579208Y-131008732D01*
X129497313Y-130974811D01*
X129410374Y-130957517D01*
X129321732Y-130957517D01*
X129256043Y-130970584D01*
X129256043Y-128298300D01*
X129274932Y-128262961D01*
X129294945Y-128196986D01*
X129300010Y-128145563D01*
X129300010Y-128145562D01*
X129301612Y-128129302D01*
X129348795Y-128058687D01*
X129348853Y-128058546D01*
X131803617Y-130513311D01*
G36*
X140108991Y-110504192D02*
X140107297Y-110521390D01*
X140114055Y-110590001D01*
X140129681Y-110641511D01*
X140134069Y-110655977D01*
X140166569Y-110716780D01*
X140210306Y-110770075D01*
X140223666Y-110781039D01*
X140767370Y-111324744D01*
X140715916Y-111494362D01*
X140694678Y-111710000D01*
X140715916Y-111925638D01*
X140778816Y-112132988D01*
X140880958Y-112324084D01*
X141018419Y-112491581D01*
X141185916Y-112629042D01*
X141377012Y-112731184D01*
X141584362Y-112794084D01*
X141745964Y-112810000D01*
X141854036Y-112810000D01*
X142015638Y-112794084D01*
X142222988Y-112731184D01*
X142414084Y-112629042D01*
X142581581Y-112491581D01*
X142585000Y-112487415D01*
X142588419Y-112491581D01*
X142755916Y-112629042D01*
X142947012Y-112731184D01*
X142975000Y-112739674D01*
X142975000Y-113220326D01*
X142947012Y-113228816D01*
X142755916Y-113330958D01*
X142588419Y-113468419D01*
X142585000Y-113472585D01*
X142581581Y-113468419D01*
X142414084Y-113330958D01*
X142222988Y-113228816D01*
X142015638Y-113165916D01*
X141854036Y-113150000D01*
X141745964Y-113150000D01*
X141584362Y-113165916D01*
X141377012Y-113228816D01*
X141185916Y-113330958D01*
X141018419Y-113468419D01*
X140880958Y-113635916D01*
X140778816Y-113827012D01*
X140715916Y-114034362D01*
X140694678Y-114250000D01*
X140715916Y-114465638D01*
X140778816Y-114672988D01*
X140880958Y-114864084D01*
X141018419Y-115031581D01*
X141185916Y-115169042D01*
X141377012Y-115271184D01*
X141584362Y-115334084D01*
X141745964Y-115350000D01*
X141854036Y-115350000D01*
X142015638Y-115334084D01*
X142222988Y-115271184D01*
X142414084Y-115169042D01*
X142581581Y-115031581D01*
X142585000Y-115027415D01*
X142588419Y-115031581D01*
X142755916Y-115169042D01*
X142947012Y-115271184D01*
X142975000Y-115279674D01*
X142975000Y-115760326D01*
X142947012Y-115768816D01*
X142755916Y-115870958D01*
X142588419Y-116008419D01*
X142585000Y-116012585D01*
X142581581Y-116008419D01*
X142414084Y-115870958D01*
X142222988Y-115768816D01*
X142015638Y-115705916D01*
X141854036Y-115690000D01*
X141745964Y-115690000D01*
X141584362Y-115705916D01*
X141377012Y-115768816D01*
X141185916Y-115870958D01*
X141018419Y-116008419D01*
X140880958Y-116175916D01*
X140778816Y-116367012D01*
X140715916Y-116574362D01*
X140694678Y-116790000D01*
X140715916Y-117005638D01*
X140778816Y-117212988D01*
X140880958Y-117404084D01*
X141018419Y-117571581D01*
X141185916Y-117709042D01*
X141377012Y-117811184D01*
X141584362Y-117874084D01*
X141745964Y-117890000D01*
X141854036Y-117890000D01*
X142015638Y-117874084D01*
X142222988Y-117811184D01*
X142414084Y-117709042D01*
X142581581Y-117571581D01*
X142585000Y-117567415D01*
X142588419Y-117571581D01*
X142755916Y-117709042D01*
X142947012Y-117811184D01*
X142975000Y-117819674D01*
X142975000Y-118300326D01*
X142947012Y-118308816D01*
X142755916Y-118410958D01*
X142588419Y-118548419D01*
X142585000Y-118552585D01*
X142581581Y-118548419D01*
X142414084Y-118410958D01*
X142222988Y-118308816D01*
X142015638Y-118245916D01*
X141854036Y-118230000D01*
X141745964Y-118230000D01*
X141584362Y-118245916D01*
X141377012Y-118308816D01*
X141185916Y-118410958D01*
X141018419Y-118548419D01*
X140880958Y-118715916D01*
X140778816Y-118907012D01*
X140715916Y-119114362D01*
X140694678Y-119330000D01*
X140715916Y-119545638D01*
X140778816Y-119752988D01*
X140880958Y-119944084D01*
X141018419Y-120111581D01*
X141185916Y-120249042D01*
X141377012Y-120351184D01*
X141584362Y-120414084D01*
X141745964Y-120430000D01*
X141854036Y-120430000D01*
X142015638Y-120414084D01*
X142222988Y-120351184D01*
X142414084Y-120249042D01*
X142581581Y-120111581D01*
X142585000Y-120107415D01*
X142588419Y-120111581D01*
X142755916Y-120249042D01*
X142947012Y-120351184D01*
X142975000Y-120359674D01*
X142975000Y-120840326D01*
X142947012Y-120848816D01*
X142755916Y-120950958D01*
X142588419Y-121088419D01*
X142585000Y-121092585D01*
X142581581Y-121088419D01*
X142414084Y-120950958D01*
X142222988Y-120848816D01*
X142015638Y-120785916D01*
X141854036Y-120770000D01*
X141745964Y-120770000D01*
X141584362Y-120785916D01*
X141377012Y-120848816D01*
X141185916Y-120950958D01*
X141018419Y-121088419D01*
X140880958Y-121255916D01*
X140778816Y-121447012D01*
X140715916Y-121654362D01*
X140694678Y-121870000D01*
X140715916Y-122085638D01*
X140767370Y-122255256D01*
X140439027Y-122583600D01*
X140208578Y-122583600D01*
X140191389Y-122581907D01*
X140122777Y-122588665D01*
X140103829Y-122594413D01*
X140056803Y-122608678D01*
X139996000Y-122641178D01*
X139942705Y-122684915D01*
X139931747Y-122698268D01*
X138446787Y-124183230D01*
X138446782Y-124183234D01*
X138436980Y-124193036D01*
X138350856Y-124210168D01*
X138268961Y-124244089D01*
X138195258Y-124293336D01*
X138132578Y-124356016D01*
X138083331Y-124429719D01*
X138049410Y-124511614D01*
X138032116Y-124598553D01*
X138032116Y-124687195D01*
X138049410Y-124774134D01*
X138083331Y-124856029D01*
X138132578Y-124929732D01*
X138195258Y-124992412D01*
X138268961Y-125041659D01*
X138350856Y-125075580D01*
X138437795Y-125092874D01*
X138526437Y-125092874D01*
X138613376Y-125075580D01*
X138695271Y-125041659D01*
X138768974Y-124992412D01*
X138831654Y-124929732D01*
X138880901Y-124856029D01*
X138914822Y-124774134D01*
X138931954Y-124688010D01*
X138941756Y-124678208D01*
X138941760Y-124678203D01*
X140336365Y-123283600D01*
X140566812Y-123283600D01*
X140584000Y-123285293D01*
X140601188Y-123283600D01*
X140601189Y-123283600D01*
X140652612Y-123278535D01*
X140718587Y-123258522D01*
X140779390Y-123226022D01*
X140832685Y-123182285D01*
X140843653Y-123168920D01*
X141210429Y-122802144D01*
X141377012Y-122891184D01*
X141584362Y-122954084D01*
X141745964Y-122970000D01*
X141854036Y-122970000D01*
X142015638Y-122954084D01*
X142222988Y-122891184D01*
X142414084Y-122789042D01*
X142581581Y-122651581D01*
X142585000Y-122647415D01*
X142588419Y-122651581D01*
X142755916Y-122789042D01*
X142947012Y-122891184D01*
X142975001Y-122899674D01*
X142975001Y-123380326D01*
X142947012Y-123388816D01*
X142755916Y-123490958D01*
X142588419Y-123628419D01*
X142585000Y-123632585D01*
X142581581Y-123628419D01*
X142414084Y-123490958D01*
X142222988Y-123388816D01*
X142015638Y-123325916D01*
X141854036Y-123310000D01*
X141745964Y-123310000D01*
X141584362Y-123325916D01*
X141377012Y-123388816D01*
X141185916Y-123490958D01*
X141018419Y-123628419D01*
X140880958Y-123795916D01*
X140778816Y-123987012D01*
X140715916Y-124194362D01*
X140697193Y-124384463D01*
X140649538Y-124313142D01*
X140586858Y-124250462D01*
X140513155Y-124201215D01*
X140431260Y-124167294D01*
X140344321Y-124150000D01*
X140255679Y-124150000D01*
X140168740Y-124167294D01*
X140086845Y-124201215D01*
X140013142Y-124250462D01*
X139950462Y-124313142D01*
X139901215Y-124386845D01*
X139867294Y-124468740D01*
X139850000Y-124555679D01*
X139850000Y-124644321D01*
X139858682Y-124687968D01*
X139779658Y-124703688D01*
X139697763Y-124737609D01*
X139624060Y-124786856D01*
X139561380Y-124849536D01*
X139512133Y-124923239D01*
X139478212Y-125005134D01*
X139460918Y-125092073D01*
X139460918Y-125180715D01*
X139478212Y-125267654D01*
X139512133Y-125349549D01*
X139561380Y-125423252D01*
X139624060Y-125485932D01*
X139697763Y-125535179D01*
X139711508Y-125540872D01*
X139699495Y-125569874D01*
X139697481Y-125580001D01*
X137698436Y-125580001D01*
X137714934Y-125525613D01*
X137717912Y-125495378D01*
X137719999Y-125474190D01*
X137719999Y-125474189D01*
X137721692Y-125457001D01*
X137719999Y-125439812D01*
X137719999Y-123922840D01*
X140694734Y-120948107D01*
X140708083Y-120937152D01*
X140751821Y-120883857D01*
X140784321Y-120823054D01*
X140804334Y-120757079D01*
X140809399Y-120705656D01*
X140809399Y-120705654D01*
X140811092Y-120688468D01*
X140809399Y-120671282D01*
X140809399Y-120244853D01*
X140811092Y-120227664D01*
X140804334Y-120159052D01*
X140793612Y-120123706D01*
X140784321Y-120093078D01*
X140751821Y-120032275D01*
X140708084Y-119978980D01*
X140694718Y-119968011D01*
X140637024Y-119910317D01*
X140637024Y-116804212D01*
X140638717Y-116787023D01*
X140631959Y-116718412D01*
X140625117Y-116695856D01*
X140611946Y-116652437D01*
X140579446Y-116591634D01*
X140535709Y-116538339D01*
X140522349Y-116527375D01*
X140159644Y-116164671D01*
X140159640Y-116164666D01*
X140149838Y-116154864D01*
X140132706Y-116068740D01*
X140098785Y-115986845D01*
X140049538Y-115913142D01*
X139986858Y-115850462D01*
X139913155Y-115801215D01*
X139831260Y-115767294D01*
X139744321Y-115750000D01*
X139655679Y-115750000D01*
X139568740Y-115767294D01*
X139486845Y-115801215D01*
X139413142Y-115850462D01*
X139350462Y-115913142D01*
X139301215Y-115986845D01*
X139267294Y-116068740D01*
X139250000Y-116155679D01*
X139250000Y-116244321D01*
X139267294Y-116331260D01*
X139301215Y-116413155D01*
X139350462Y-116486858D01*
X139413142Y-116549538D01*
X139486845Y-116598785D01*
X139568740Y-116632706D01*
X139654864Y-116649838D01*
X139664666Y-116659640D01*
X139664671Y-116659644D01*
X139937025Y-116931999D01*
X139937025Y-117692050D01*
X138349838Y-116104865D01*
X138332706Y-116018740D01*
X138298785Y-115936845D01*
X138249538Y-115863142D01*
X138186858Y-115800462D01*
X138113155Y-115751215D01*
X138031260Y-115717294D01*
X137944321Y-115700000D01*
X137855679Y-115700000D01*
X137768740Y-115717294D01*
X137686845Y-115751215D01*
X137613142Y-115800462D01*
X137550462Y-115863142D01*
X137501215Y-115936845D01*
X137490010Y-115963897D01*
X137490010Y-109004963D01*
X139795137Y-106699838D01*
X139881260Y-106682706D01*
X139963155Y-106648785D01*
X140036858Y-106599538D01*
X140099538Y-106536858D01*
X140108990Y-106522712D01*
X140108991Y-110504192D01*
X140108991Y-110504192D01*
G37*
X140108991Y-110504192D02*
X140107297Y-110521390D01*
X140114055Y-110590001D01*
X140129681Y-110641511D01*
X140134069Y-110655977D01*
X140166569Y-110716780D01*
X140210306Y-110770075D01*
X140223666Y-110781039D01*
X140767370Y-111324744D01*
X140715916Y-111494362D01*
X140694678Y-111710000D01*
X140715916Y-111925638D01*
X140778816Y-112132988D01*
X140880958Y-112324084D01*
X141018419Y-112491581D01*
X141185916Y-112629042D01*
X141377012Y-112731184D01*
X141584362Y-112794084D01*
X141745964Y-112810000D01*
X141854036Y-112810000D01*
X142015638Y-112794084D01*
X142222988Y-112731184D01*
X142414084Y-112629042D01*
X142581581Y-112491581D01*
X142585000Y-112487415D01*
X142588419Y-112491581D01*
X142755916Y-112629042D01*
X142947012Y-112731184D01*
X142975000Y-112739674D01*
X142975000Y-113220326D01*
X142947012Y-113228816D01*
X142755916Y-113330958D01*
X142588419Y-113468419D01*
X142585000Y-113472585D01*
X142581581Y-113468419D01*
X142414084Y-113330958D01*
X142222988Y-113228816D01*
X142015638Y-113165916D01*
X141854036Y-113150000D01*
X141745964Y-113150000D01*
X141584362Y-113165916D01*
X141377012Y-113228816D01*
X141185916Y-113330958D01*
X141018419Y-113468419D01*
X140880958Y-113635916D01*
X140778816Y-113827012D01*
X140715916Y-114034362D01*
X140694678Y-114250000D01*
X140715916Y-114465638D01*
X140778816Y-114672988D01*
X140880958Y-114864084D01*
X141018419Y-115031581D01*
X141185916Y-115169042D01*
X141377012Y-115271184D01*
X141584362Y-115334084D01*
X141745964Y-115350000D01*
X141854036Y-115350000D01*
X142015638Y-115334084D01*
X142222988Y-115271184D01*
X142414084Y-115169042D01*
X142581581Y-115031581D01*
X142585000Y-115027415D01*
X142588419Y-115031581D01*
X142755916Y-115169042D01*
X142947012Y-115271184D01*
X142975000Y-115279674D01*
X142975000Y-115760326D01*
X142947012Y-115768816D01*
X142755916Y-115870958D01*
X142588419Y-116008419D01*
X142585000Y-116012585D01*
X142581581Y-116008419D01*
X142414084Y-115870958D01*
X142222988Y-115768816D01*
X142015638Y-115705916D01*
X141854036Y-115690000D01*
X141745964Y-115690000D01*
X141584362Y-115705916D01*
X141377012Y-115768816D01*
X141185916Y-115870958D01*
X141018419Y-116008419D01*
X140880958Y-116175916D01*
X140778816Y-116367012D01*
X140715916Y-116574362D01*
X140694678Y-116790000D01*
X140715916Y-117005638D01*
X140778816Y-117212988D01*
X140880958Y-117404084D01*
X141018419Y-117571581D01*
X141185916Y-117709042D01*
X141377012Y-117811184D01*
X141584362Y-117874084D01*
X141745964Y-117890000D01*
X141854036Y-117890000D01*
X142015638Y-117874084D01*
X142222988Y-117811184D01*
X142414084Y-117709042D01*
X142581581Y-117571581D01*
X142585000Y-117567415D01*
X142588419Y-117571581D01*
X142755916Y-117709042D01*
X142947012Y-117811184D01*
X142975000Y-117819674D01*
X142975000Y-118300326D01*
X142947012Y-118308816D01*
X142755916Y-118410958D01*
X142588419Y-118548419D01*
X142585000Y-118552585D01*
X142581581Y-118548419D01*
X142414084Y-118410958D01*
X142222988Y-118308816D01*
X142015638Y-118245916D01*
X141854036Y-118230000D01*
X141745964Y-118230000D01*
X141584362Y-118245916D01*
X141377012Y-118308816D01*
X141185916Y-118410958D01*
X141018419Y-118548419D01*
X140880958Y-118715916D01*
X140778816Y-118907012D01*
X140715916Y-119114362D01*
X140694678Y-119330000D01*
X140715916Y-119545638D01*
X140778816Y-119752988D01*
X140880958Y-119944084D01*
X141018419Y-120111581D01*
X141185916Y-120249042D01*
X141377012Y-120351184D01*
X141584362Y-120414084D01*
X141745964Y-120430000D01*
X141854036Y-120430000D01*
X142015638Y-120414084D01*
X142222988Y-120351184D01*
X142414084Y-120249042D01*
X142581581Y-120111581D01*
X142585000Y-120107415D01*
X142588419Y-120111581D01*
X142755916Y-120249042D01*
X142947012Y-120351184D01*
X142975000Y-120359674D01*
X142975000Y-120840326D01*
X142947012Y-120848816D01*
X142755916Y-120950958D01*
X142588419Y-121088419D01*
X142585000Y-121092585D01*
X142581581Y-121088419D01*
X142414084Y-120950958D01*
X142222988Y-120848816D01*
X142015638Y-120785916D01*
X141854036Y-120770000D01*
X141745964Y-120770000D01*
X141584362Y-120785916D01*
X141377012Y-120848816D01*
X141185916Y-120950958D01*
X141018419Y-121088419D01*
X140880958Y-121255916D01*
X140778816Y-121447012D01*
X140715916Y-121654362D01*
X140694678Y-121870000D01*
X140715916Y-122085638D01*
X140767370Y-122255256D01*
X140439027Y-122583600D01*
X140208578Y-122583600D01*
X140191389Y-122581907D01*
X140122777Y-122588665D01*
X140103829Y-122594413D01*
X140056803Y-122608678D01*
X139996000Y-122641178D01*
X139942705Y-122684915D01*
X139931747Y-122698268D01*
X138446787Y-124183230D01*
X138446782Y-124183234D01*
X138436980Y-124193036D01*
X138350856Y-124210168D01*
X138268961Y-124244089D01*
X138195258Y-124293336D01*
X138132578Y-124356016D01*
X138083331Y-124429719D01*
X138049410Y-124511614D01*
X138032116Y-124598553D01*
X138032116Y-124687195D01*
X138049410Y-124774134D01*
X138083331Y-124856029D01*
X138132578Y-124929732D01*
X138195258Y-124992412D01*
X138268961Y-125041659D01*
X138350856Y-125075580D01*
X138437795Y-125092874D01*
X138526437Y-125092874D01*
X138613376Y-125075580D01*
X138695271Y-125041659D01*
X138768974Y-124992412D01*
X138831654Y-124929732D01*
X138880901Y-124856029D01*
X138914822Y-124774134D01*
X138931954Y-124688010D01*
X138941756Y-124678208D01*
X138941760Y-124678203D01*
X140336365Y-123283600D01*
X140566812Y-123283600D01*
X140584000Y-123285293D01*
X140601188Y-123283600D01*
X140601189Y-123283600D01*
X140652612Y-123278535D01*
X140718587Y-123258522D01*
X140779390Y-123226022D01*
X140832685Y-123182285D01*
X140843653Y-123168920D01*
X141210429Y-122802144D01*
X141377012Y-122891184D01*
X141584362Y-122954084D01*
X141745964Y-122970000D01*
X141854036Y-122970000D01*
X142015638Y-122954084D01*
X142222988Y-122891184D01*
X142414084Y-122789042D01*
X142581581Y-122651581D01*
X142585000Y-122647415D01*
X142588419Y-122651581D01*
X142755916Y-122789042D01*
X142947012Y-122891184D01*
X142975001Y-122899674D01*
X142975001Y-123380326D01*
X142947012Y-123388816D01*
X142755916Y-123490958D01*
X142588419Y-123628419D01*
X142585000Y-123632585D01*
X142581581Y-123628419D01*
X142414084Y-123490958D01*
X142222988Y-123388816D01*
X142015638Y-123325916D01*
X141854036Y-123310000D01*
X141745964Y-123310000D01*
X141584362Y-123325916D01*
X141377012Y-123388816D01*
X141185916Y-123490958D01*
X141018419Y-123628419D01*
X140880958Y-123795916D01*
X140778816Y-123987012D01*
X140715916Y-124194362D01*
X140697193Y-124384463D01*
X140649538Y-124313142D01*
X140586858Y-124250462D01*
X140513155Y-124201215D01*
X140431260Y-124167294D01*
X140344321Y-124150000D01*
X140255679Y-124150000D01*
X140168740Y-124167294D01*
X140086845Y-124201215D01*
X140013142Y-124250462D01*
X139950462Y-124313142D01*
X139901215Y-124386845D01*
X139867294Y-124468740D01*
X139850000Y-124555679D01*
X139850000Y-124644321D01*
X139858682Y-124687968D01*
X139779658Y-124703688D01*
X139697763Y-124737609D01*
X139624060Y-124786856D01*
X139561380Y-124849536D01*
X139512133Y-124923239D01*
X139478212Y-125005134D01*
X139460918Y-125092073D01*
X139460918Y-125180715D01*
X139478212Y-125267654D01*
X139512133Y-125349549D01*
X139561380Y-125423252D01*
X139624060Y-125485932D01*
X139697763Y-125535179D01*
X139711508Y-125540872D01*
X139699495Y-125569874D01*
X139697481Y-125580001D01*
X137698436Y-125580001D01*
X137714934Y-125525613D01*
X137717912Y-125495378D01*
X137719999Y-125474190D01*
X137719999Y-125474189D01*
X137721692Y-125457001D01*
X137719999Y-125439812D01*
X137719999Y-123922840D01*
X140694734Y-120948107D01*
X140708083Y-120937152D01*
X140751821Y-120883857D01*
X140784321Y-120823054D01*
X140804334Y-120757079D01*
X140809399Y-120705656D01*
X140809399Y-120705654D01*
X140811092Y-120688468D01*
X140809399Y-120671282D01*
X140809399Y-120244853D01*
X140811092Y-120227664D01*
X140804334Y-120159052D01*
X140793612Y-120123706D01*
X140784321Y-120093078D01*
X140751821Y-120032275D01*
X140708084Y-119978980D01*
X140694718Y-119968011D01*
X140637024Y-119910317D01*
X140637024Y-116804212D01*
X140638717Y-116787023D01*
X140631959Y-116718412D01*
X140625117Y-116695856D01*
X140611946Y-116652437D01*
X140579446Y-116591634D01*
X140535709Y-116538339D01*
X140522349Y-116527375D01*
X140159644Y-116164671D01*
X140159640Y-116164666D01*
X140149838Y-116154864D01*
X140132706Y-116068740D01*
X140098785Y-115986845D01*
X140049538Y-115913142D01*
X139986858Y-115850462D01*
X139913155Y-115801215D01*
X139831260Y-115767294D01*
X139744321Y-115750000D01*
X139655679Y-115750000D01*
X139568740Y-115767294D01*
X139486845Y-115801215D01*
X139413142Y-115850462D01*
X139350462Y-115913142D01*
X139301215Y-115986845D01*
X139267294Y-116068740D01*
X139250000Y-116155679D01*
X139250000Y-116244321D01*
X139267294Y-116331260D01*
X139301215Y-116413155D01*
X139350462Y-116486858D01*
X139413142Y-116549538D01*
X139486845Y-116598785D01*
X139568740Y-116632706D01*
X139654864Y-116649838D01*
X139664666Y-116659640D01*
X139664671Y-116659644D01*
X139937025Y-116931999D01*
X139937025Y-117692050D01*
X138349838Y-116104865D01*
X138332706Y-116018740D01*
X138298785Y-115936845D01*
X138249538Y-115863142D01*
X138186858Y-115800462D01*
X138113155Y-115751215D01*
X138031260Y-115717294D01*
X137944321Y-115700000D01*
X137855679Y-115700000D01*
X137768740Y-115717294D01*
X137686845Y-115751215D01*
X137613142Y-115800462D01*
X137550462Y-115863142D01*
X137501215Y-115936845D01*
X137490010Y-115963897D01*
X137490010Y-109004963D01*
X139795137Y-106699838D01*
X139881260Y-106682706D01*
X139963155Y-106648785D01*
X140036858Y-106599538D01*
X140099538Y-106536858D01*
X140108990Y-106522712D01*
X140108991Y-110504192D01*
G36*
X139550127Y-120318513D02*
X139546692Y-120326806D01*
X139529398Y-120413745D01*
X139529398Y-120502387D01*
X139546692Y-120589326D01*
X139580613Y-120671221D01*
X139629860Y-120744924D01*
X139692540Y-120807604D01*
X139766243Y-120856851D01*
X139787313Y-120865578D01*
X137347871Y-123305021D01*
X137350000Y-123294321D01*
X137350000Y-123205679D01*
X137332706Y-123118740D01*
X137298785Y-123036845D01*
X137249538Y-122963142D01*
X137186858Y-122900462D01*
X137113155Y-122851215D01*
X137031260Y-122817294D01*
X136977893Y-122806678D01*
X138655319Y-121129254D01*
X138668674Y-121118294D01*
X138712411Y-121064999D01*
X138744911Y-121004196D01*
X138764924Y-120938221D01*
X138769989Y-120886798D01*
X138769989Y-120886796D01*
X138771682Y-120869610D01*
X138769989Y-120852424D01*
X138769989Y-120764580D01*
X139443637Y-120090933D01*
X139456997Y-120079969D01*
X139500734Y-120026674D01*
X139533234Y-119965871D01*
X139548763Y-119914678D01*
X139550127Y-119910183D01*
X139550127Y-120318513D01*
X139550127Y-120318513D01*
G37*
X139550127Y-120318513D02*
X139546692Y-120326806D01*
X139529398Y-120413745D01*
X139529398Y-120502387D01*
X139546692Y-120589326D01*
X139580613Y-120671221D01*
X139629860Y-120744924D01*
X139692540Y-120807604D01*
X139766243Y-120856851D01*
X139787313Y-120865578D01*
X137347871Y-123305021D01*
X137350000Y-123294321D01*
X137350000Y-123205679D01*
X137332706Y-123118740D01*
X137298785Y-123036845D01*
X137249538Y-122963142D01*
X137186858Y-122900462D01*
X137113155Y-122851215D01*
X137031260Y-122817294D01*
X136977893Y-122806678D01*
X138655319Y-121129254D01*
X138668674Y-121118294D01*
X138712411Y-121064999D01*
X138744911Y-121004196D01*
X138764924Y-120938221D01*
X138769989Y-120886798D01*
X138769989Y-120886796D01*
X138771682Y-120869610D01*
X138769989Y-120852424D01*
X138769989Y-120764580D01*
X139443637Y-120090933D01*
X139456997Y-120079969D01*
X139500734Y-120026674D01*
X139533234Y-119965871D01*
X139548763Y-119914678D01*
X139550127Y-119910183D01*
X139550127Y-120318513D01*
G36*
X128900462Y-115391860D02*
X128963142Y-115454540D01*
X129036845Y-115503787D01*
X129118740Y-115537708D01*
X129204865Y-115554840D01*
X129901410Y-116251387D01*
X129912370Y-116264742D01*
X129965665Y-116308479D01*
X130026468Y-116340979D01*
X130092443Y-116360992D01*
X130143866Y-116366057D01*
X130143868Y-116366057D01*
X130161054Y-116367750D01*
X130178240Y-116366057D01*
X130743843Y-116366057D01*
X130816855Y-116414842D01*
X130898750Y-116448763D01*
X130980002Y-116464926D01*
X130980001Y-120435426D01*
X129080011Y-122335418D01*
X129080011Y-120305688D01*
X129411068Y-120305688D01*
X129411068Y-120394330D01*
X129428362Y-120481269D01*
X129462283Y-120563164D01*
X129511530Y-120636867D01*
X129574210Y-120699547D01*
X129647913Y-120748794D01*
X129729808Y-120782715D01*
X129816747Y-120800009D01*
X129905389Y-120800009D01*
X129992328Y-120782715D01*
X130074223Y-120748794D01*
X130147926Y-120699547D01*
X130210606Y-120636867D01*
X130259853Y-120563164D01*
X130293774Y-120481269D01*
X130310906Y-120395145D01*
X130320708Y-120385343D01*
X130320713Y-120385337D01*
X130470330Y-120235720D01*
X130483696Y-120224751D01*
X130527433Y-120171456D01*
X130559933Y-120110653D01*
X130579946Y-120044678D01*
X130585011Y-119993255D01*
X130586704Y-119976066D01*
X130585011Y-119958877D01*
X130585011Y-119236167D01*
X130633796Y-119163155D01*
X130667717Y-119081260D01*
X130685011Y-118994321D01*
X130685011Y-118905679D01*
X130667717Y-118818740D01*
X130633796Y-118736845D01*
X130584549Y-118663142D01*
X130521869Y-118600462D01*
X130448166Y-118551215D01*
X130366271Y-118517294D01*
X130279332Y-118500000D01*
X130190690Y-118500000D01*
X130103751Y-118517294D01*
X130021856Y-118551215D01*
X129948153Y-118600462D01*
X129885473Y-118663142D01*
X129836226Y-118736845D01*
X129802305Y-118818740D01*
X129785011Y-118905679D01*
X129785011Y-118994321D01*
X129802305Y-119081260D01*
X129836226Y-119163155D01*
X129885011Y-119236167D01*
X129885012Y-119831092D01*
X129825740Y-119890364D01*
X129825734Y-119890369D01*
X129815932Y-119900171D01*
X129729808Y-119917303D01*
X129647913Y-119951224D01*
X129574210Y-120000471D01*
X129511530Y-120063151D01*
X129462283Y-120136854D01*
X129428362Y-120218749D01*
X129411068Y-120305688D01*
X129080011Y-120305688D01*
X129080011Y-118767508D01*
X129081704Y-118750322D01*
X129079702Y-118729998D01*
X129074946Y-118681711D01*
X129054933Y-118615736D01*
X129022433Y-118554933D01*
X128978695Y-118501638D01*
X128970382Y-118494816D01*
X129031260Y-118482706D01*
X129113155Y-118448785D01*
X129186167Y-118400000D01*
X129469910Y-118400000D01*
X129542922Y-118448785D01*
X129624817Y-118482706D01*
X129711756Y-118500000D01*
X129800398Y-118500000D01*
X129887337Y-118482706D01*
X129969232Y-118448785D01*
X130042935Y-118399538D01*
X130105615Y-118336858D01*
X130154862Y-118263155D01*
X130188783Y-118181260D01*
X130206077Y-118094321D01*
X130206077Y-118005679D01*
X130188783Y-117918740D01*
X130154862Y-117836845D01*
X130105615Y-117763142D01*
X130042935Y-117700462D01*
X129969232Y-117651215D01*
X129887337Y-117617294D01*
X129800398Y-117600000D01*
X129711756Y-117600000D01*
X129624817Y-117617294D01*
X129542922Y-117651215D01*
X129469910Y-117700000D01*
X129186167Y-117700000D01*
X129113155Y-117651215D01*
X129031260Y-117617294D01*
X128944321Y-117600000D01*
X128893160Y-117600000D01*
X128896032Y-117570845D01*
X128897725Y-117553656D01*
X128896032Y-117536467D01*
X128896032Y-115385230D01*
X128900462Y-115391860D01*
X128900462Y-115391860D01*
G37*
X128900462Y-115391860D02*
X128963142Y-115454540D01*
X129036845Y-115503787D01*
X129118740Y-115537708D01*
X129204865Y-115554840D01*
X129901410Y-116251387D01*
X129912370Y-116264742D01*
X129965665Y-116308479D01*
X130026468Y-116340979D01*
X130092443Y-116360992D01*
X130143866Y-116366057D01*
X130143868Y-116366057D01*
X130161054Y-116367750D01*
X130178240Y-116366057D01*
X130743843Y-116366057D01*
X130816855Y-116414842D01*
X130898750Y-116448763D01*
X130980002Y-116464926D01*
X130980001Y-120435426D01*
X129080011Y-122335418D01*
X129080011Y-120305688D01*
X129411068Y-120305688D01*
X129411068Y-120394330D01*
X129428362Y-120481269D01*
X129462283Y-120563164D01*
X129511530Y-120636867D01*
X129574210Y-120699547D01*
X129647913Y-120748794D01*
X129729808Y-120782715D01*
X129816747Y-120800009D01*
X129905389Y-120800009D01*
X129992328Y-120782715D01*
X130074223Y-120748794D01*
X130147926Y-120699547D01*
X130210606Y-120636867D01*
X130259853Y-120563164D01*
X130293774Y-120481269D01*
X130310906Y-120395145D01*
X130320708Y-120385343D01*
X130320713Y-120385337D01*
X130470330Y-120235720D01*
X130483696Y-120224751D01*
X130527433Y-120171456D01*
X130559933Y-120110653D01*
X130579946Y-120044678D01*
X130585011Y-119993255D01*
X130586704Y-119976066D01*
X130585011Y-119958877D01*
X130585011Y-119236167D01*
X130633796Y-119163155D01*
X130667717Y-119081260D01*
X130685011Y-118994321D01*
X130685011Y-118905679D01*
X130667717Y-118818740D01*
X130633796Y-118736845D01*
X130584549Y-118663142D01*
X130521869Y-118600462D01*
X130448166Y-118551215D01*
X130366271Y-118517294D01*
X130279332Y-118500000D01*
X130190690Y-118500000D01*
X130103751Y-118517294D01*
X130021856Y-118551215D01*
X129948153Y-118600462D01*
X129885473Y-118663142D01*
X129836226Y-118736845D01*
X129802305Y-118818740D01*
X129785011Y-118905679D01*
X129785011Y-118994321D01*
X129802305Y-119081260D01*
X129836226Y-119163155D01*
X129885011Y-119236167D01*
X129885012Y-119831092D01*
X129825740Y-119890364D01*
X129825734Y-119890369D01*
X129815932Y-119900171D01*
X129729808Y-119917303D01*
X129647913Y-119951224D01*
X129574210Y-120000471D01*
X129511530Y-120063151D01*
X129462283Y-120136854D01*
X129428362Y-120218749D01*
X129411068Y-120305688D01*
X129080011Y-120305688D01*
X129080011Y-118767508D01*
X129081704Y-118750322D01*
X129079702Y-118729998D01*
X129074946Y-118681711D01*
X129054933Y-118615736D01*
X129022433Y-118554933D01*
X128978695Y-118501638D01*
X128970382Y-118494816D01*
X129031260Y-118482706D01*
X129113155Y-118448785D01*
X129186167Y-118400000D01*
X129469910Y-118400000D01*
X129542922Y-118448785D01*
X129624817Y-118482706D01*
X129711756Y-118500000D01*
X129800398Y-118500000D01*
X129887337Y-118482706D01*
X129969232Y-118448785D01*
X130042935Y-118399538D01*
X130105615Y-118336858D01*
X130154862Y-118263155D01*
X130188783Y-118181260D01*
X130206077Y-118094321D01*
X130206077Y-118005679D01*
X130188783Y-117918740D01*
X130154862Y-117836845D01*
X130105615Y-117763142D01*
X130042935Y-117700462D01*
X129969232Y-117651215D01*
X129887337Y-117617294D01*
X129800398Y-117600000D01*
X129711756Y-117600000D01*
X129624817Y-117617294D01*
X129542922Y-117651215D01*
X129469910Y-117700000D01*
X129186167Y-117700000D01*
X129113155Y-117651215D01*
X129031260Y-117617294D01*
X128944321Y-117600000D01*
X128893160Y-117600000D01*
X128896032Y-117570845D01*
X128897725Y-117553656D01*
X128896032Y-117536467D01*
X128896032Y-115385230D01*
X128900462Y-115391860D01*
G36*
X125935916Y-112629042D02*
X126127012Y-112731184D01*
X126334362Y-112794084D01*
X126495964Y-112810000D01*
X126604036Y-112810000D01*
X126765638Y-112794084D01*
X126972988Y-112731184D01*
X127164084Y-112629042D01*
X127249989Y-112558542D01*
X127249990Y-113407807D01*
X127141707Y-113322699D01*
X126949430Y-113225081D01*
X126741803Y-113166850D01*
X126570000Y-113212681D01*
X126570000Y-114230000D01*
X126590000Y-114230000D01*
X126590000Y-114270000D01*
X126570000Y-114270000D01*
X126570000Y-115287319D01*
X126741803Y-115333150D01*
X126949430Y-115274919D01*
X127141707Y-115177301D01*
X127249989Y-115092193D01*
X127249990Y-115941459D01*
X127164084Y-115870958D01*
X126972988Y-115768816D01*
X126765638Y-115705916D01*
X126604036Y-115690000D01*
X126495964Y-115690000D01*
X126334362Y-115705916D01*
X126127012Y-115768816D01*
X125935916Y-115870958D01*
X125780000Y-115998915D01*
X125624084Y-115870958D01*
X125432988Y-115768816D01*
X125325000Y-115736058D01*
X125325000Y-115303942D01*
X125432988Y-115271184D01*
X125624084Y-115169042D01*
X125783651Y-115038089D01*
X125788755Y-115044047D01*
X125958293Y-115177301D01*
X126150570Y-115274919D01*
X126358197Y-115333150D01*
X126530000Y-115287319D01*
X126530000Y-114270000D01*
X126510000Y-114270000D01*
X126510000Y-114230000D01*
X126530000Y-114230000D01*
X126530000Y-113212681D01*
X126358197Y-113166850D01*
X126150570Y-113225081D01*
X125958293Y-113322699D01*
X125788755Y-113455953D01*
X125783651Y-113461911D01*
X125624084Y-113330958D01*
X125432988Y-113228816D01*
X125325000Y-113196058D01*
X125325000Y-112763942D01*
X125432988Y-112731184D01*
X125624084Y-112629042D01*
X125780000Y-112501085D01*
X125935916Y-112629042D01*
X125935916Y-112629042D01*
G37*
X125935916Y-112629042D02*
X126127012Y-112731184D01*
X126334362Y-112794084D01*
X126495964Y-112810000D01*
X126604036Y-112810000D01*
X126765638Y-112794084D01*
X126972988Y-112731184D01*
X127164084Y-112629042D01*
X127249989Y-112558542D01*
X127249990Y-113407807D01*
X127141707Y-113322699D01*
X126949430Y-113225081D01*
X126741803Y-113166850D01*
X126570000Y-113212681D01*
X126570000Y-114230000D01*
X126590000Y-114230000D01*
X126590000Y-114270000D01*
X126570000Y-114270000D01*
X126570000Y-115287319D01*
X126741803Y-115333150D01*
X126949430Y-115274919D01*
X127141707Y-115177301D01*
X127249989Y-115092193D01*
X127249990Y-115941459D01*
X127164084Y-115870958D01*
X126972988Y-115768816D01*
X126765638Y-115705916D01*
X126604036Y-115690000D01*
X126495964Y-115690000D01*
X126334362Y-115705916D01*
X126127012Y-115768816D01*
X125935916Y-115870958D01*
X125780000Y-115998915D01*
X125624084Y-115870958D01*
X125432988Y-115768816D01*
X125325000Y-115736058D01*
X125325000Y-115303942D01*
X125432988Y-115271184D01*
X125624084Y-115169042D01*
X125783651Y-115038089D01*
X125788755Y-115044047D01*
X125958293Y-115177301D01*
X126150570Y-115274919D01*
X126358197Y-115333150D01*
X126530000Y-115287319D01*
X126530000Y-114270000D01*
X126510000Y-114270000D01*
X126510000Y-114230000D01*
X126530000Y-114230000D01*
X126530000Y-113212681D01*
X126358197Y-113166850D01*
X126150570Y-113225081D01*
X125958293Y-113322699D01*
X125788755Y-113455953D01*
X125783651Y-113461911D01*
X125624084Y-113330958D01*
X125432988Y-113228816D01*
X125325000Y-113196058D01*
X125325000Y-112763942D01*
X125432988Y-112731184D01*
X125624084Y-112629042D01*
X125780000Y-112501085D01*
X125935916Y-112629042D01*
G36*
X131160012Y-114015390D02*
X131160011Y-115583101D01*
X131074331Y-115566057D01*
X130985689Y-115566057D01*
X130898750Y-115583351D01*
X130816855Y-115617272D01*
X130743843Y-115666057D01*
X130306030Y-115666057D01*
X129699838Y-115059867D01*
X129682706Y-114973742D01*
X129648785Y-114891847D01*
X129599538Y-114818144D01*
X129536858Y-114755464D01*
X129463155Y-114706217D01*
X129381260Y-114672296D01*
X129294321Y-114655002D01*
X129205679Y-114655002D01*
X129118740Y-114672296D01*
X129036845Y-114706217D01*
X128963142Y-114755464D01*
X128900462Y-114818144D01*
X128896032Y-114824774D01*
X128896032Y-111751409D01*
X131160012Y-114015390D01*
X131160012Y-114015390D01*
G37*
X131160012Y-114015390D02*
X131160011Y-115583101D01*
X131074331Y-115566057D01*
X130985689Y-115566057D01*
X130898750Y-115583351D01*
X130816855Y-115617272D01*
X130743843Y-115666057D01*
X130306030Y-115666057D01*
X129699838Y-115059867D01*
X129682706Y-114973742D01*
X129648785Y-114891847D01*
X129599538Y-114818144D01*
X129536858Y-114755464D01*
X129463155Y-114706217D01*
X129381260Y-114672296D01*
X129294321Y-114655002D01*
X129205679Y-114655002D01*
X129118740Y-114672296D01*
X129036845Y-114706217D01*
X128963142Y-114755464D01*
X128900462Y-114818144D01*
X128896032Y-114824774D01*
X128896032Y-111751409D01*
X131160012Y-114015390D01*
G36*
X131027437Y-106163097D02*
X131131903Y-106267563D01*
X131254742Y-106349641D01*
X131391233Y-106406178D01*
X131536131Y-106435000D01*
X131683869Y-106435000D01*
X131828767Y-106406178D01*
X131834026Y-106404000D01*
X132515351Y-107085325D01*
X132526315Y-107098685D01*
X132578365Y-107141400D01*
X132579610Y-107142422D01*
X132640412Y-107174922D01*
X132706388Y-107194935D01*
X132775000Y-107201693D01*
X132792189Y-107200000D01*
X133865431Y-107200000D01*
X135600000Y-108934570D01*
X135600001Y-111175056D01*
X135536846Y-111201215D01*
X135527545Y-111207430D01*
X135526690Y-111204612D01*
X135514921Y-111165814D01*
X135482421Y-111105011D01*
X135438684Y-111051716D01*
X135425324Y-111040752D01*
X135072914Y-110688343D01*
X135101250Y-110682706D01*
X135183145Y-110648785D01*
X135256848Y-110599538D01*
X135319528Y-110536858D01*
X135368775Y-110463155D01*
X135402696Y-110381260D01*
X135419990Y-110294321D01*
X135419990Y-110205679D01*
X135402696Y-110118740D01*
X135368775Y-110036845D01*
X135319528Y-109963142D01*
X135256848Y-109900462D01*
X135183145Y-109851215D01*
X135101250Y-109817294D01*
X135014311Y-109800000D01*
X134925669Y-109800000D01*
X134838730Y-109817294D01*
X134756835Y-109851215D01*
X134683853Y-109899980D01*
X134136167Y-109899980D01*
X134063155Y-109851195D01*
X133981260Y-109817274D01*
X133894321Y-109799980D01*
X133805679Y-109799980D01*
X133718740Y-109817274D01*
X133636845Y-109851195D01*
X133563142Y-109900442D01*
X133500462Y-109963122D01*
X133451215Y-110036825D01*
X133417294Y-110118720D01*
X133400000Y-110205659D01*
X133400000Y-110294301D01*
X133417294Y-110381240D01*
X133433348Y-110419998D01*
X132381224Y-110419998D01*
X132306249Y-110345023D01*
X132306245Y-110345018D01*
X132296443Y-110335216D01*
X132279311Y-110249092D01*
X132245390Y-110167197D01*
X132196143Y-110093494D01*
X132133463Y-110030814D01*
X132059760Y-109981567D01*
X131977865Y-109947646D01*
X131890926Y-109930352D01*
X131802284Y-109930352D01*
X131715345Y-109947646D01*
X131633450Y-109981567D01*
X131559747Y-110030814D01*
X131497067Y-110093494D01*
X131448528Y-110166138D01*
X130950000Y-109667611D01*
X130950000Y-106047204D01*
X131027437Y-106163097D01*
X131027437Y-106163097D01*
G37*
X131027437Y-106163097D02*
X131131903Y-106267563D01*
X131254742Y-106349641D01*
X131391233Y-106406178D01*
X131536131Y-106435000D01*
X131683869Y-106435000D01*
X131828767Y-106406178D01*
X131834026Y-106404000D01*
X132515351Y-107085325D01*
X132526315Y-107098685D01*
X132578365Y-107141400D01*
X132579610Y-107142422D01*
X132640412Y-107174922D01*
X132706388Y-107194935D01*
X132775000Y-107201693D01*
X132792189Y-107200000D01*
X133865431Y-107200000D01*
X135600000Y-108934570D01*
X135600001Y-111175056D01*
X135536846Y-111201215D01*
X135527545Y-111207430D01*
X135526690Y-111204612D01*
X135514921Y-111165814D01*
X135482421Y-111105011D01*
X135438684Y-111051716D01*
X135425324Y-111040752D01*
X135072914Y-110688343D01*
X135101250Y-110682706D01*
X135183145Y-110648785D01*
X135256848Y-110599538D01*
X135319528Y-110536858D01*
X135368775Y-110463155D01*
X135402696Y-110381260D01*
X135419990Y-110294321D01*
X135419990Y-110205679D01*
X135402696Y-110118740D01*
X135368775Y-110036845D01*
X135319528Y-109963142D01*
X135256848Y-109900462D01*
X135183145Y-109851215D01*
X135101250Y-109817294D01*
X135014311Y-109800000D01*
X134925669Y-109800000D01*
X134838730Y-109817294D01*
X134756835Y-109851215D01*
X134683853Y-109899980D01*
X134136167Y-109899980D01*
X134063155Y-109851195D01*
X133981260Y-109817274D01*
X133894321Y-109799980D01*
X133805679Y-109799980D01*
X133718740Y-109817274D01*
X133636845Y-109851195D01*
X133563142Y-109900442D01*
X133500462Y-109963122D01*
X133451215Y-110036825D01*
X133417294Y-110118720D01*
X133400000Y-110205659D01*
X133400000Y-110294301D01*
X133417294Y-110381240D01*
X133433348Y-110419998D01*
X132381224Y-110419998D01*
X132306249Y-110345023D01*
X132306245Y-110345018D01*
X132296443Y-110335216D01*
X132279311Y-110249092D01*
X132245390Y-110167197D01*
X132196143Y-110093494D01*
X132133463Y-110030814D01*
X132059760Y-109981567D01*
X131977865Y-109947646D01*
X131890926Y-109930352D01*
X131802284Y-109930352D01*
X131715345Y-109947646D01*
X131633450Y-109981567D01*
X131559747Y-110030814D01*
X131497067Y-110093494D01*
X131448528Y-110166138D01*
X130950000Y-109667611D01*
X130950000Y-106047204D01*
X131027437Y-106163097D01*
G36*
X142975000Y-100522984D02*
X142848955Y-100575193D01*
X142668791Y-100695575D01*
X142585000Y-100779366D01*
X142501209Y-100695575D01*
X142321045Y-100575193D01*
X142120858Y-100492273D01*
X141908341Y-100450000D01*
X141691659Y-100450000D01*
X141479142Y-100492273D01*
X141278955Y-100575193D01*
X141098791Y-100695575D01*
X140945575Y-100848791D01*
X140825193Y-101028955D01*
X140742273Y-101229142D01*
X140700000Y-101441659D01*
X140700000Y-101658341D01*
X140742273Y-101870858D01*
X140825193Y-102071045D01*
X140945575Y-102251209D01*
X141098791Y-102404425D01*
X141278955Y-102524807D01*
X141479142Y-102607727D01*
X141691659Y-102650000D01*
X141908341Y-102650000D01*
X142120858Y-102607727D01*
X142321045Y-102524807D01*
X142501209Y-102404425D01*
X142585000Y-102320634D01*
X142668791Y-102404425D01*
X142848955Y-102524807D01*
X142975000Y-102577016D01*
X142975000Y-103060326D01*
X142947012Y-103068816D01*
X142755916Y-103170958D01*
X142588419Y-103308419D01*
X142580348Y-103318254D01*
X142561245Y-103295953D01*
X142391707Y-103162699D01*
X142199430Y-103065081D01*
X141991803Y-103006850D01*
X141820000Y-103052681D01*
X141820000Y-104070000D01*
X141840000Y-104070000D01*
X141840000Y-104110000D01*
X141820000Y-104110000D01*
X141820000Y-105127319D01*
X141991803Y-105173150D01*
X142199430Y-105114919D01*
X142391707Y-105017301D01*
X142561245Y-104884047D01*
X142580348Y-104861746D01*
X142588419Y-104871581D01*
X142755916Y-105009042D01*
X142947012Y-105111184D01*
X142975000Y-105119674D01*
X142975000Y-105600326D01*
X142947012Y-105608816D01*
X142755916Y-105710958D01*
X142588419Y-105848419D01*
X142585000Y-105852585D01*
X142581581Y-105848419D01*
X142414084Y-105710958D01*
X142222988Y-105608816D01*
X142015638Y-105545916D01*
X141854036Y-105530000D01*
X141745964Y-105530000D01*
X141584362Y-105545916D01*
X141377012Y-105608816D01*
X141185916Y-105710958D01*
X141018419Y-105848419D01*
X140880958Y-106015916D01*
X140807806Y-106152775D01*
X140803925Y-106113375D01*
X140794661Y-106082836D01*
X140783912Y-106047401D01*
X140751412Y-105986598D01*
X140707674Y-105933303D01*
X140694319Y-105922343D01*
X140261654Y-105489679D01*
X140250686Y-105476314D01*
X140197391Y-105432577D01*
X140136588Y-105400077D01*
X140070613Y-105380064D01*
X140019190Y-105374999D01*
X140019189Y-105374999D01*
X140002001Y-105373306D01*
X139984813Y-105374999D01*
X139542190Y-105374999D01*
X139525001Y-105373306D01*
X139456389Y-105380064D01*
X139390413Y-105400077D01*
X139343115Y-105425359D01*
X139329611Y-105432577D01*
X139276316Y-105476314D01*
X139265352Y-105489674D01*
X137754865Y-107000162D01*
X137668740Y-107017294D01*
X137586845Y-107051215D01*
X137513142Y-107100462D01*
X137450462Y-107163142D01*
X137401215Y-107236845D01*
X137367294Y-107318740D01*
X137350000Y-107405679D01*
X137350000Y-107494321D01*
X137367294Y-107581260D01*
X137401215Y-107663155D01*
X137450462Y-107736858D01*
X137513142Y-107799538D01*
X137586845Y-107848785D01*
X137635916Y-107869110D01*
X137040783Y-108464244D01*
X137041715Y-108454785D01*
X137040000Y-108437373D01*
X137040000Y-106351819D01*
X137045258Y-106349641D01*
X137168097Y-106267563D01*
X137272563Y-106163097D01*
X137354641Y-106040258D01*
X137411178Y-105903767D01*
X137440000Y-105758869D01*
X137440000Y-105611131D01*
X137411178Y-105466233D01*
X137354641Y-105329742D01*
X137272563Y-105206903D01*
X137168097Y-105102437D01*
X137089619Y-105050000D01*
X137168097Y-104997563D01*
X137272563Y-104893097D01*
X137354641Y-104770258D01*
X137411178Y-104633767D01*
X137440000Y-104488869D01*
X137440000Y-104341131D01*
X137428199Y-104281803D01*
X140716851Y-104281803D01*
X140725898Y-104327301D01*
X140792832Y-104532288D01*
X140898471Y-104720278D01*
X141038755Y-104884047D01*
X141208293Y-105017301D01*
X141400570Y-105114919D01*
X141608197Y-105173150D01*
X141780000Y-105127319D01*
X141780000Y-104110000D01*
X140762693Y-104110000D01*
X140716851Y-104281803D01*
X137428199Y-104281803D01*
X137411178Y-104196233D01*
X137354641Y-104059742D01*
X137272563Y-103936903D01*
X137233857Y-103898197D01*
X140716851Y-103898197D01*
X140762693Y-104070000D01*
X141780000Y-104070000D01*
X141780000Y-103052681D01*
X141608197Y-103006850D01*
X141400570Y-103065081D01*
X141208293Y-103162699D01*
X141038755Y-103295953D01*
X140898471Y-103459722D01*
X140792832Y-103647712D01*
X140725898Y-103852699D01*
X140716851Y-103898197D01*
X137233857Y-103898197D01*
X137168097Y-103832437D01*
X137045258Y-103750359D01*
X136908767Y-103693822D01*
X136763869Y-103665000D01*
X136616131Y-103665000D01*
X136471233Y-103693822D01*
X136334742Y-103750359D01*
X136211903Y-103832437D01*
X136107437Y-103936903D01*
X136056483Y-104013162D01*
X136051899Y-104004317D01*
X136041240Y-103988364D01*
X135922640Y-103940644D01*
X135448284Y-104415000D01*
X135922640Y-104889356D01*
X136041240Y-104841636D01*
X136055617Y-104815543D01*
X136107437Y-104893097D01*
X136211903Y-104997563D01*
X136290381Y-105050000D01*
X136211903Y-105102437D01*
X136107437Y-105206903D01*
X136055000Y-105285381D01*
X136002563Y-105206903D01*
X135898097Y-105102437D01*
X135821838Y-105051483D01*
X135830683Y-105046899D01*
X135846636Y-105036240D01*
X135894356Y-104917640D01*
X135420000Y-104443284D01*
X134945644Y-104917640D01*
X134993364Y-105036240D01*
X135019457Y-105050617D01*
X134941903Y-105102437D01*
X134837437Y-105206903D01*
X134785000Y-105285381D01*
X134732563Y-105206903D01*
X134628097Y-105102437D01*
X134551838Y-105051483D01*
X134560683Y-105046899D01*
X134576636Y-105036240D01*
X134624356Y-104917640D01*
X134150000Y-104443284D01*
X133675644Y-104917640D01*
X133723364Y-105036240D01*
X133749457Y-105050617D01*
X133671903Y-105102437D01*
X133567437Y-105206903D01*
X133515000Y-105285381D01*
X133462563Y-105206903D01*
X133358097Y-105102437D01*
X133279619Y-105050000D01*
X133358097Y-104997563D01*
X133462563Y-104893097D01*
X133513517Y-104816838D01*
X133518101Y-104825683D01*
X133528760Y-104841636D01*
X133647360Y-104889356D01*
X134121716Y-104415000D01*
X134107574Y-104400858D01*
X134135858Y-104372574D01*
X134150000Y-104386716D01*
X134164143Y-104372574D01*
X134192427Y-104400858D01*
X134178284Y-104415000D01*
X134652640Y-104889356D01*
X134771240Y-104841636D01*
X134784189Y-104818134D01*
X134788101Y-104825683D01*
X134798760Y-104841636D01*
X134917360Y-104889356D01*
X135391716Y-104415000D01*
X135377574Y-104400858D01*
X135405858Y-104372574D01*
X135420000Y-104386716D01*
X135894356Y-103912360D01*
X135846636Y-103793760D01*
X135717240Y-103722465D01*
X135576422Y-103677783D01*
X135429593Y-103661432D01*
X135282395Y-103674040D01*
X135185193Y-103702180D01*
X136304744Y-102582630D01*
X136474362Y-102634084D01*
X136635964Y-102650000D01*
X136744036Y-102650000D01*
X136905638Y-102634084D01*
X137112988Y-102571184D01*
X137304084Y-102469042D01*
X137471581Y-102331581D01*
X137609042Y-102164084D01*
X137711184Y-101972988D01*
X137774084Y-101765638D01*
X137795322Y-101550000D01*
X137774084Y-101334362D01*
X137711184Y-101127012D01*
X137609042Y-100935916D01*
X137476982Y-100775000D01*
X137609042Y-100614084D01*
X137711184Y-100422988D01*
X137740909Y-100325000D01*
X142975000Y-100325000D01*
X142975000Y-100522984D01*
X142975000Y-100522984D01*
G37*
X142975000Y-100522984D02*
X142848955Y-100575193D01*
X142668791Y-100695575D01*
X142585000Y-100779366D01*
X142501209Y-100695575D01*
X142321045Y-100575193D01*
X142120858Y-100492273D01*
X141908341Y-100450000D01*
X141691659Y-100450000D01*
X141479142Y-100492273D01*
X141278955Y-100575193D01*
X141098791Y-100695575D01*
X140945575Y-100848791D01*
X140825193Y-101028955D01*
X140742273Y-101229142D01*
X140700000Y-101441659D01*
X140700000Y-101658341D01*
X140742273Y-101870858D01*
X140825193Y-102071045D01*
X140945575Y-102251209D01*
X141098791Y-102404425D01*
X141278955Y-102524807D01*
X141479142Y-102607727D01*
X141691659Y-102650000D01*
X141908341Y-102650000D01*
X142120858Y-102607727D01*
X142321045Y-102524807D01*
X142501209Y-102404425D01*
X142585000Y-102320634D01*
X142668791Y-102404425D01*
X142848955Y-102524807D01*
X142975000Y-102577016D01*
X142975000Y-103060326D01*
X142947012Y-103068816D01*
X142755916Y-103170958D01*
X142588419Y-103308419D01*
X142580348Y-103318254D01*
X142561245Y-103295953D01*
X142391707Y-103162699D01*
X142199430Y-103065081D01*
X141991803Y-103006850D01*
X141820000Y-103052681D01*
X141820000Y-104070000D01*
X141840000Y-104070000D01*
X141840000Y-104110000D01*
X141820000Y-104110000D01*
X141820000Y-105127319D01*
X141991803Y-105173150D01*
X142199430Y-105114919D01*
X142391707Y-105017301D01*
X142561245Y-104884047D01*
X142580348Y-104861746D01*
X142588419Y-104871581D01*
X142755916Y-105009042D01*
X142947012Y-105111184D01*
X142975000Y-105119674D01*
X142975000Y-105600326D01*
X142947012Y-105608816D01*
X142755916Y-105710958D01*
X142588419Y-105848419D01*
X142585000Y-105852585D01*
X142581581Y-105848419D01*
X142414084Y-105710958D01*
X142222988Y-105608816D01*
X142015638Y-105545916D01*
X141854036Y-105530000D01*
X141745964Y-105530000D01*
X141584362Y-105545916D01*
X141377012Y-105608816D01*
X141185916Y-105710958D01*
X141018419Y-105848419D01*
X140880958Y-106015916D01*
X140807806Y-106152775D01*
X140803925Y-106113375D01*
X140794661Y-106082836D01*
X140783912Y-106047401D01*
X140751412Y-105986598D01*
X140707674Y-105933303D01*
X140694319Y-105922343D01*
X140261654Y-105489679D01*
X140250686Y-105476314D01*
X140197391Y-105432577D01*
X140136588Y-105400077D01*
X140070613Y-105380064D01*
X140019190Y-105374999D01*
X140019189Y-105374999D01*
X140002001Y-105373306D01*
X139984813Y-105374999D01*
X139542190Y-105374999D01*
X139525001Y-105373306D01*
X139456389Y-105380064D01*
X139390413Y-105400077D01*
X139343115Y-105425359D01*
X139329611Y-105432577D01*
X139276316Y-105476314D01*
X139265352Y-105489674D01*
X137754865Y-107000162D01*
X137668740Y-107017294D01*
X137586845Y-107051215D01*
X137513142Y-107100462D01*
X137450462Y-107163142D01*
X137401215Y-107236845D01*
X137367294Y-107318740D01*
X137350000Y-107405679D01*
X137350000Y-107494321D01*
X137367294Y-107581260D01*
X137401215Y-107663155D01*
X137450462Y-107736858D01*
X137513142Y-107799538D01*
X137586845Y-107848785D01*
X137635916Y-107869110D01*
X137040783Y-108464244D01*
X137041715Y-108454785D01*
X137040000Y-108437373D01*
X137040000Y-106351819D01*
X137045258Y-106349641D01*
X137168097Y-106267563D01*
X137272563Y-106163097D01*
X137354641Y-106040258D01*
X137411178Y-105903767D01*
X137440000Y-105758869D01*
X137440000Y-105611131D01*
X137411178Y-105466233D01*
X137354641Y-105329742D01*
X137272563Y-105206903D01*
X137168097Y-105102437D01*
X137089619Y-105050000D01*
X137168097Y-104997563D01*
X137272563Y-104893097D01*
X137354641Y-104770258D01*
X137411178Y-104633767D01*
X137440000Y-104488869D01*
X137440000Y-104341131D01*
X137428199Y-104281803D01*
X140716851Y-104281803D01*
X140725898Y-104327301D01*
X140792832Y-104532288D01*
X140898471Y-104720278D01*
X141038755Y-104884047D01*
X141208293Y-105017301D01*
X141400570Y-105114919D01*
X141608197Y-105173150D01*
X141780000Y-105127319D01*
X141780000Y-104110000D01*
X140762693Y-104110000D01*
X140716851Y-104281803D01*
X137428199Y-104281803D01*
X137411178Y-104196233D01*
X137354641Y-104059742D01*
X137272563Y-103936903D01*
X137233857Y-103898197D01*
X140716851Y-103898197D01*
X140762693Y-104070000D01*
X141780000Y-104070000D01*
X141780000Y-103052681D01*
X141608197Y-103006850D01*
X141400570Y-103065081D01*
X141208293Y-103162699D01*
X141038755Y-103295953D01*
X140898471Y-103459722D01*
X140792832Y-103647712D01*
X140725898Y-103852699D01*
X140716851Y-103898197D01*
X137233857Y-103898197D01*
X137168097Y-103832437D01*
X137045258Y-103750359D01*
X136908767Y-103693822D01*
X136763869Y-103665000D01*
X136616131Y-103665000D01*
X136471233Y-103693822D01*
X136334742Y-103750359D01*
X136211903Y-103832437D01*
X136107437Y-103936903D01*
X136056483Y-104013162D01*
X136051899Y-104004317D01*
X136041240Y-103988364D01*
X135922640Y-103940644D01*
X135448284Y-104415000D01*
X135922640Y-104889356D01*
X136041240Y-104841636D01*
X136055617Y-104815543D01*
X136107437Y-104893097D01*
X136211903Y-104997563D01*
X136290381Y-105050000D01*
X136211903Y-105102437D01*
X136107437Y-105206903D01*
X136055000Y-105285381D01*
X136002563Y-105206903D01*
X135898097Y-105102437D01*
X135821838Y-105051483D01*
X135830683Y-105046899D01*
X135846636Y-105036240D01*
X135894356Y-104917640D01*
X135420000Y-104443284D01*
X134945644Y-104917640D01*
X134993364Y-105036240D01*
X135019457Y-105050617D01*
X134941903Y-105102437D01*
X134837437Y-105206903D01*
X134785000Y-105285381D01*
X134732563Y-105206903D01*
X134628097Y-105102437D01*
X134551838Y-105051483D01*
X134560683Y-105046899D01*
X134576636Y-105036240D01*
X134624356Y-104917640D01*
X134150000Y-104443284D01*
X133675644Y-104917640D01*
X133723364Y-105036240D01*
X133749457Y-105050617D01*
X133671903Y-105102437D01*
X133567437Y-105206903D01*
X133515000Y-105285381D01*
X133462563Y-105206903D01*
X133358097Y-105102437D01*
X133279619Y-105050000D01*
X133358097Y-104997563D01*
X133462563Y-104893097D01*
X133513517Y-104816838D01*
X133518101Y-104825683D01*
X133528760Y-104841636D01*
X133647360Y-104889356D01*
X134121716Y-104415000D01*
X134107574Y-104400858D01*
X134135858Y-104372574D01*
X134150000Y-104386716D01*
X134164143Y-104372574D01*
X134192427Y-104400858D01*
X134178284Y-104415000D01*
X134652640Y-104889356D01*
X134771240Y-104841636D01*
X134784189Y-104818134D01*
X134788101Y-104825683D01*
X134798760Y-104841636D01*
X134917360Y-104889356D01*
X135391716Y-104415000D01*
X135377574Y-104400858D01*
X135405858Y-104372574D01*
X135420000Y-104386716D01*
X135894356Y-103912360D01*
X135846636Y-103793760D01*
X135717240Y-103722465D01*
X135576422Y-103677783D01*
X135429593Y-103661432D01*
X135282395Y-103674040D01*
X135185193Y-103702180D01*
X136304744Y-102582630D01*
X136474362Y-102634084D01*
X136635964Y-102650000D01*
X136744036Y-102650000D01*
X136905638Y-102634084D01*
X137112988Y-102571184D01*
X137304084Y-102469042D01*
X137471581Y-102331581D01*
X137609042Y-102164084D01*
X137711184Y-101972988D01*
X137774084Y-101765638D01*
X137795322Y-101550000D01*
X137774084Y-101334362D01*
X137711184Y-101127012D01*
X137609042Y-100935916D01*
X137476982Y-100775000D01*
X137609042Y-100614084D01*
X137711184Y-100422988D01*
X137740909Y-100325000D01*
X142975000Y-100325000D01*
X142975000Y-100522984D01*
G36*
X131652427Y-104400858D02*
X131638284Y-104415000D01*
X132112640Y-104889356D01*
X132231240Y-104841636D01*
X132245617Y-104815543D01*
X132297437Y-104893097D01*
X132401903Y-104997563D01*
X132480381Y-105050000D01*
X132401903Y-105102437D01*
X132297437Y-105206903D01*
X132245000Y-105285381D01*
X132192563Y-105206903D01*
X132088097Y-105102437D01*
X132011838Y-105051483D01*
X132020683Y-105046899D01*
X132036636Y-105036240D01*
X132084356Y-104917640D01*
X131610000Y-104443284D01*
X131135644Y-104917640D01*
X131183364Y-105036240D01*
X131209457Y-105050617D01*
X131131903Y-105102437D01*
X131027437Y-105206903D01*
X130950000Y-105322796D01*
X130950000Y-104771460D01*
X130978101Y-104825683D01*
X130988760Y-104841636D01*
X131107360Y-104889356D01*
X131581716Y-104415000D01*
X131567574Y-104400858D01*
X131595858Y-104372574D01*
X131610000Y-104386716D01*
X131624143Y-104372574D01*
X131652427Y-104400858D01*
X131652427Y-104400858D01*
G37*
X131652427Y-104400858D02*
X131638284Y-104415000D01*
X132112640Y-104889356D01*
X132231240Y-104841636D01*
X132245617Y-104815543D01*
X132297437Y-104893097D01*
X132401903Y-104997563D01*
X132480381Y-105050000D01*
X132401903Y-105102437D01*
X132297437Y-105206903D01*
X132245000Y-105285381D01*
X132192563Y-105206903D01*
X132088097Y-105102437D01*
X132011838Y-105051483D01*
X132020683Y-105046899D01*
X132036636Y-105036240D01*
X132084356Y-104917640D01*
X131610000Y-104443284D01*
X131135644Y-104917640D01*
X131183364Y-105036240D01*
X131209457Y-105050617D01*
X131131903Y-105102437D01*
X131027437Y-105206903D01*
X130950000Y-105322796D01*
X130950000Y-104771460D01*
X130978101Y-104825683D01*
X130988760Y-104841636D01*
X131107360Y-104889356D01*
X131581716Y-104415000D01*
X131567574Y-104400858D01*
X131595858Y-104372574D01*
X131610000Y-104386716D01*
X131624143Y-104372574D01*
X131652427Y-104400858D01*
G04 #@! TD*
M02*
