G04 #@! TF.GenerationSoftware,KiCad,Pcbnew,5.0.2-bee76a0~70~ubuntu18.04.1*
G04 #@! TF.CreationDate,2018-12-18T09:47:30-08:00*
G04 #@! TF.ProjectId,Empyrean,456d7079-7265-4616-9e2e-6b696361645f,A*
G04 #@! TF.SameCoordinates,Original*
G04 #@! TF.FileFunction,Legend,Top*
G04 #@! TF.FilePolarity,Positive*
%FSLAX46Y46*%
G04 Gerber Fmt 4.6, Leading zero omitted, Abs format (unit mm)*
G04 Created by KiCad (PCBNEW 5.0.2-bee76a0~70~ubuntu18.04.1) date Tue 18 Dec 2018 09:47:30 AM PST*
%MOMM*%
%LPD*%
G01*
G04 APERTURE LIST*
%ADD10C,0.100000*%
%ADD11C,0.120000*%
%ADD12C,0.150000*%
%ADD13C,0.127000*%
%ADD14C,0.119380*%
G04 APERTURE END LIST*
D10*
X130716666Y-102650000D02*
X130016666Y-102650000D01*
X130516666Y-102416666D01*
X130016666Y-102183333D01*
X130716666Y-102183333D01*
X130016666Y-101716666D02*
X130016666Y-101583333D01*
X130050000Y-101516666D01*
X130116666Y-101450000D01*
X130250000Y-101416666D01*
X130483333Y-101416666D01*
X130616666Y-101450000D01*
X130683333Y-101516666D01*
X130716666Y-101583333D01*
X130716666Y-101716666D01*
X130683333Y-101783333D01*
X130616666Y-101850000D01*
X130483333Y-101883333D01*
X130250000Y-101883333D01*
X130116666Y-101850000D01*
X130050000Y-101783333D01*
X130016666Y-101716666D01*
X130683333Y-101150000D02*
X130716666Y-101050000D01*
X130716666Y-100883333D01*
X130683333Y-100816666D01*
X130650000Y-100783333D01*
X130583333Y-100750000D01*
X130516666Y-100750000D01*
X130450000Y-100783333D01*
X130416666Y-100816666D01*
X130383333Y-100883333D01*
X130350000Y-101016666D01*
X130316666Y-101083333D01*
X130283333Y-101116666D01*
X130216666Y-101150000D01*
X130150000Y-101150000D01*
X130083333Y-101116666D01*
X130050000Y-101083333D01*
X130016666Y-101016666D01*
X130016666Y-100850000D01*
X130050000Y-100750000D01*
X130716666Y-100450000D02*
X130016666Y-100450000D01*
X133216666Y-102700000D02*
X132516666Y-102700000D01*
X133016666Y-102466666D01*
X132516666Y-102233333D01*
X133216666Y-102233333D01*
X133216666Y-101900000D02*
X132516666Y-101900000D01*
X133183333Y-101600000D02*
X133216666Y-101500000D01*
X133216666Y-101333333D01*
X133183333Y-101266666D01*
X133150000Y-101233333D01*
X133083333Y-101200000D01*
X133016666Y-101200000D01*
X132950000Y-101233333D01*
X132916666Y-101266666D01*
X132883333Y-101333333D01*
X132850000Y-101466666D01*
X132816666Y-101533333D01*
X132783333Y-101566666D01*
X132716666Y-101600000D01*
X132650000Y-101600000D01*
X132583333Y-101566666D01*
X132550000Y-101533333D01*
X132516666Y-101466666D01*
X132516666Y-101300000D01*
X132550000Y-101200000D01*
X132516666Y-100766666D02*
X132516666Y-100633333D01*
X132550000Y-100566666D01*
X132616666Y-100500000D01*
X132750000Y-100466666D01*
X132983333Y-100466666D01*
X133116666Y-100500000D01*
X133183333Y-100566666D01*
X133216666Y-100633333D01*
X133216666Y-100766666D01*
X133183333Y-100833333D01*
X133116666Y-100900000D01*
X132983333Y-100933333D01*
X132750000Y-100933333D01*
X132616666Y-100900000D01*
X132550000Y-100833333D01*
X132516666Y-100766666D01*
X135733333Y-102500000D02*
X135766666Y-102400000D01*
X135766666Y-102233333D01*
X135733333Y-102166666D01*
X135700000Y-102133333D01*
X135633333Y-102100000D01*
X135566666Y-102100000D01*
X135500000Y-102133333D01*
X135466666Y-102166666D01*
X135433333Y-102233333D01*
X135400000Y-102366666D01*
X135366666Y-102433333D01*
X135333333Y-102466666D01*
X135266666Y-102500000D01*
X135200000Y-102500000D01*
X135133333Y-102466666D01*
X135100000Y-102433333D01*
X135066666Y-102366666D01*
X135066666Y-102200000D01*
X135100000Y-102100000D01*
X135700000Y-101400000D02*
X135733333Y-101433333D01*
X135766666Y-101533333D01*
X135766666Y-101600000D01*
X135733333Y-101700000D01*
X135666666Y-101766666D01*
X135600000Y-101800000D01*
X135466666Y-101833333D01*
X135366666Y-101833333D01*
X135233333Y-101800000D01*
X135166666Y-101766666D01*
X135100000Y-101700000D01*
X135066666Y-101600000D01*
X135066666Y-101533333D01*
X135100000Y-101433333D01*
X135133333Y-101400000D01*
X135766666Y-101100000D02*
X135066666Y-101100000D01*
X135766666Y-100700000D02*
X135366666Y-101000000D01*
X135066666Y-100700000D02*
X135466666Y-101100000D01*
X141400000Y-139621428D02*
X141400000Y-139021428D01*
X141628571Y-139021428D01*
X141685714Y-139050000D01*
X141714285Y-139078571D01*
X141742857Y-139135714D01*
X141742857Y-139221428D01*
X141714285Y-139278571D01*
X141685714Y-139307142D01*
X141628571Y-139335714D01*
X141400000Y-139335714D01*
X141942857Y-139021428D02*
X142085714Y-139621428D01*
X142200000Y-139192857D01*
X142314285Y-139621428D01*
X142457142Y-139021428D01*
X143028571Y-139621428D02*
X142828571Y-139335714D01*
X142685714Y-139621428D02*
X142685714Y-139021428D01*
X142914285Y-139021428D01*
X142971428Y-139050000D01*
X143000000Y-139078571D01*
X143028571Y-139135714D01*
X143028571Y-139221428D01*
X143000000Y-139278571D01*
X142971428Y-139307142D01*
X142914285Y-139335714D01*
X142685714Y-139335714D01*
X140666666Y-137516666D02*
X139966666Y-137516666D01*
X139966666Y-137350000D01*
X140000000Y-137250000D01*
X140066666Y-137183333D01*
X140133333Y-137150000D01*
X140266666Y-137116666D01*
X140366666Y-137116666D01*
X140500000Y-137150000D01*
X140566666Y-137183333D01*
X140633333Y-137250000D01*
X140666666Y-137350000D01*
X140666666Y-137516666D01*
X140033333Y-136850000D02*
X140000000Y-136816666D01*
X139966666Y-136750000D01*
X139966666Y-136583333D01*
X140000000Y-136516666D01*
X140033333Y-136483333D01*
X140100000Y-136450000D01*
X140166666Y-136450000D01*
X140266666Y-136483333D01*
X140666666Y-136883333D01*
X140666666Y-136450000D01*
X140666666Y-135066666D02*
X139966666Y-135066666D01*
X139966666Y-134900000D01*
X140000000Y-134800000D01*
X140066666Y-134733333D01*
X140133333Y-134700000D01*
X140266666Y-134666666D01*
X140366666Y-134666666D01*
X140500000Y-134700000D01*
X140566666Y-134733333D01*
X140633333Y-134800000D01*
X140666666Y-134900000D01*
X140666666Y-135066666D01*
X139966666Y-134433333D02*
X139966666Y-134000000D01*
X140233333Y-134233333D01*
X140233333Y-134133333D01*
X140266666Y-134066666D01*
X140300000Y-134033333D01*
X140366666Y-134000000D01*
X140533333Y-134000000D01*
X140600000Y-134033333D01*
X140633333Y-134066666D01*
X140666666Y-134133333D01*
X140666666Y-134333333D01*
X140633333Y-134400000D01*
X140600000Y-134433333D01*
X140666666Y-132566666D02*
X139966666Y-132566666D01*
X139966666Y-132400000D01*
X140000000Y-132300000D01*
X140066666Y-132233333D01*
X140133333Y-132200000D01*
X140266666Y-132166666D01*
X140366666Y-132166666D01*
X140500000Y-132200000D01*
X140566666Y-132233333D01*
X140633333Y-132300000D01*
X140666666Y-132400000D01*
X140666666Y-132566666D01*
X140200000Y-131566666D02*
X140666666Y-131566666D01*
X139933333Y-131733333D02*
X140433333Y-131900000D01*
X140433333Y-131466666D01*
X140666666Y-130016666D02*
X139966666Y-130016666D01*
X139966666Y-129850000D01*
X140000000Y-129750000D01*
X140066666Y-129683333D01*
X140133333Y-129650000D01*
X140266666Y-129616666D01*
X140366666Y-129616666D01*
X140500000Y-129650000D01*
X140566666Y-129683333D01*
X140633333Y-129750000D01*
X140666666Y-129850000D01*
X140666666Y-130016666D01*
X139966666Y-128983333D02*
X139966666Y-129316666D01*
X140300000Y-129350000D01*
X140266666Y-129316666D01*
X140233333Y-129250000D01*
X140233333Y-129083333D01*
X140266666Y-129016666D01*
X140300000Y-128983333D01*
X140366666Y-128950000D01*
X140533333Y-128950000D01*
X140600000Y-128983333D01*
X140633333Y-129016666D01*
X140666666Y-129083333D01*
X140666666Y-129250000D01*
X140633333Y-129316666D01*
X140600000Y-129350000D01*
X140666666Y-127466666D02*
X139966666Y-127466666D01*
X139966666Y-127300000D01*
X140000000Y-127200000D01*
X140066666Y-127133333D01*
X140133333Y-127100000D01*
X140266666Y-127066666D01*
X140366666Y-127066666D01*
X140500000Y-127100000D01*
X140566666Y-127133333D01*
X140633333Y-127200000D01*
X140666666Y-127300000D01*
X140666666Y-127466666D01*
X139966666Y-126466666D02*
X139966666Y-126600000D01*
X140000000Y-126666666D01*
X140033333Y-126700000D01*
X140133333Y-126766666D01*
X140266666Y-126800000D01*
X140533333Y-126800000D01*
X140600000Y-126766666D01*
X140633333Y-126733333D01*
X140666666Y-126666666D01*
X140666666Y-126533333D01*
X140633333Y-126466666D01*
X140600000Y-126433333D01*
X140533333Y-126400000D01*
X140366666Y-126400000D01*
X140300000Y-126433333D01*
X140266666Y-126466666D01*
X140233333Y-126533333D01*
X140233333Y-126666666D01*
X140266666Y-126733333D01*
X140300000Y-126766666D01*
X140366666Y-126800000D01*
X140666666Y-124966666D02*
X139966666Y-124966666D01*
X139966666Y-124800000D01*
X140000000Y-124700000D01*
X140066666Y-124633333D01*
X140133333Y-124600000D01*
X140266666Y-124566666D01*
X140366666Y-124566666D01*
X140500000Y-124600000D01*
X140566666Y-124633333D01*
X140633333Y-124700000D01*
X140666666Y-124800000D01*
X140666666Y-124966666D01*
X139966666Y-124333333D02*
X139966666Y-123866666D01*
X140666666Y-124166666D01*
X140666666Y-122466666D02*
X139966666Y-122466666D01*
X139966666Y-122300000D01*
X140000000Y-122200000D01*
X140066666Y-122133333D01*
X140133333Y-122100000D01*
X140266666Y-122066666D01*
X140366666Y-122066666D01*
X140500000Y-122100000D01*
X140566666Y-122133333D01*
X140633333Y-122200000D01*
X140666666Y-122300000D01*
X140666666Y-122466666D01*
X140266666Y-121666666D02*
X140233333Y-121733333D01*
X140200000Y-121766666D01*
X140133333Y-121800000D01*
X140100000Y-121800000D01*
X140033333Y-121766666D01*
X140000000Y-121733333D01*
X139966666Y-121666666D01*
X139966666Y-121533333D01*
X140000000Y-121466666D01*
X140033333Y-121433333D01*
X140100000Y-121400000D01*
X140133333Y-121400000D01*
X140200000Y-121433333D01*
X140233333Y-121466666D01*
X140266666Y-121533333D01*
X140266666Y-121666666D01*
X140300000Y-121733333D01*
X140333333Y-121766666D01*
X140400000Y-121800000D01*
X140533333Y-121800000D01*
X140600000Y-121766666D01*
X140633333Y-121733333D01*
X140666666Y-121666666D01*
X140666666Y-121533333D01*
X140633333Y-121466666D01*
X140600000Y-121433333D01*
X140533333Y-121400000D01*
X140400000Y-121400000D01*
X140333333Y-121433333D01*
X140300000Y-121466666D01*
X140266666Y-121533333D01*
X140666666Y-119816666D02*
X139966666Y-119816666D01*
X139966666Y-119650000D01*
X140000000Y-119550000D01*
X140066666Y-119483333D01*
X140133333Y-119450000D01*
X140266666Y-119416666D01*
X140366666Y-119416666D01*
X140500000Y-119450000D01*
X140566666Y-119483333D01*
X140633333Y-119550000D01*
X140666666Y-119650000D01*
X140666666Y-119816666D01*
X140666666Y-119083333D02*
X140666666Y-118950000D01*
X140633333Y-118883333D01*
X140600000Y-118850000D01*
X140500000Y-118783333D01*
X140366666Y-118750000D01*
X140100000Y-118750000D01*
X140033333Y-118783333D01*
X140000000Y-118816666D01*
X139966666Y-118883333D01*
X139966666Y-119016666D01*
X140000000Y-119083333D01*
X140033333Y-119116666D01*
X140100000Y-119150000D01*
X140266666Y-119150000D01*
X140333333Y-119116666D01*
X140366666Y-119083333D01*
X140400000Y-119016666D01*
X140400000Y-118883333D01*
X140366666Y-118816666D01*
X140333333Y-118783333D01*
X140266666Y-118750000D01*
X140666666Y-117650000D02*
X139966666Y-117650000D01*
X139966666Y-117483333D01*
X140000000Y-117383333D01*
X140066666Y-117316666D01*
X140133333Y-117283333D01*
X140266666Y-117250000D01*
X140366666Y-117250000D01*
X140500000Y-117283333D01*
X140566666Y-117316666D01*
X140633333Y-117383333D01*
X140666666Y-117483333D01*
X140666666Y-117650000D01*
X140666666Y-116583333D02*
X140666666Y-116983333D01*
X140666666Y-116783333D02*
X139966666Y-116783333D01*
X140066666Y-116850000D01*
X140133333Y-116916666D01*
X140166666Y-116983333D01*
X139966666Y-116150000D02*
X139966666Y-116083333D01*
X140000000Y-116016666D01*
X140033333Y-115983333D01*
X140100000Y-115950000D01*
X140233333Y-115916666D01*
X140400000Y-115916666D01*
X140533333Y-115950000D01*
X140600000Y-115983333D01*
X140633333Y-116016666D01*
X140666666Y-116083333D01*
X140666666Y-116150000D01*
X140633333Y-116216666D01*
X140600000Y-116250000D01*
X140533333Y-116283333D01*
X140400000Y-116316666D01*
X140233333Y-116316666D01*
X140100000Y-116283333D01*
X140033333Y-116250000D01*
X140000000Y-116216666D01*
X139966666Y-116150000D01*
X140666666Y-115100000D02*
X139966666Y-115100000D01*
X139966666Y-114933333D01*
X140000000Y-114833333D01*
X140066666Y-114766666D01*
X140133333Y-114733333D01*
X140266666Y-114700000D01*
X140366666Y-114700000D01*
X140500000Y-114733333D01*
X140566666Y-114766666D01*
X140633333Y-114833333D01*
X140666666Y-114933333D01*
X140666666Y-115100000D01*
X140666666Y-114033333D02*
X140666666Y-114433333D01*
X140666666Y-114233333D02*
X139966666Y-114233333D01*
X140066666Y-114300000D01*
X140133333Y-114366666D01*
X140166666Y-114433333D01*
X140666666Y-113366666D02*
X140666666Y-113766666D01*
X140666666Y-113566666D02*
X139966666Y-113566666D01*
X140066666Y-113633333D01*
X140133333Y-113700000D01*
X140166666Y-113766666D01*
X140666666Y-112550000D02*
X139966666Y-112550000D01*
X139966666Y-112383333D01*
X140000000Y-112283333D01*
X140066666Y-112216666D01*
X140133333Y-112183333D01*
X140266666Y-112150000D01*
X140366666Y-112150000D01*
X140500000Y-112183333D01*
X140566666Y-112216666D01*
X140633333Y-112283333D01*
X140666666Y-112383333D01*
X140666666Y-112550000D01*
X140666666Y-111483333D02*
X140666666Y-111883333D01*
X140666666Y-111683333D02*
X139966666Y-111683333D01*
X140066666Y-111750000D01*
X140133333Y-111816666D01*
X140166666Y-111883333D01*
X140033333Y-111216666D02*
X140000000Y-111183333D01*
X139966666Y-111116666D01*
X139966666Y-110950000D01*
X140000000Y-110883333D01*
X140033333Y-110850000D01*
X140100000Y-110816666D01*
X140166666Y-110816666D01*
X140266666Y-110850000D01*
X140666666Y-111250000D01*
X140666666Y-110816666D01*
X140666666Y-110000000D02*
X139966666Y-110000000D01*
X139966666Y-109833333D01*
X140000000Y-109733333D01*
X140066666Y-109666666D01*
X140133333Y-109633333D01*
X140266666Y-109600000D01*
X140366666Y-109600000D01*
X140500000Y-109633333D01*
X140566666Y-109666666D01*
X140633333Y-109733333D01*
X140666666Y-109833333D01*
X140666666Y-110000000D01*
X140666666Y-108933333D02*
X140666666Y-109333333D01*
X140666666Y-109133333D02*
X139966666Y-109133333D01*
X140066666Y-109200000D01*
X140133333Y-109266666D01*
X140166666Y-109333333D01*
X139966666Y-108700000D02*
X139966666Y-108266666D01*
X140233333Y-108500000D01*
X140233333Y-108400000D01*
X140266666Y-108333333D01*
X140300000Y-108300000D01*
X140366666Y-108266666D01*
X140533333Y-108266666D01*
X140600000Y-108300000D01*
X140633333Y-108333333D01*
X140666666Y-108400000D01*
X140666666Y-108600000D01*
X140633333Y-108666666D01*
X140600000Y-108700000D01*
X140666666Y-106983333D02*
X140333333Y-107216666D01*
X140666666Y-107383333D02*
X139966666Y-107383333D01*
X139966666Y-107116666D01*
X140000000Y-107050000D01*
X140033333Y-107016666D01*
X140100000Y-106983333D01*
X140200000Y-106983333D01*
X140266666Y-107016666D01*
X140300000Y-107050000D01*
X140333333Y-107116666D01*
X140333333Y-107383333D01*
X140633333Y-106716666D02*
X140666666Y-106616666D01*
X140666666Y-106450000D01*
X140633333Y-106383333D01*
X140600000Y-106350000D01*
X140533333Y-106316666D01*
X140466666Y-106316666D01*
X140400000Y-106350000D01*
X140366666Y-106383333D01*
X140333333Y-106450000D01*
X140300000Y-106583333D01*
X140266666Y-106650000D01*
X140233333Y-106683333D01*
X140166666Y-106716666D01*
X140100000Y-106716666D01*
X140033333Y-106683333D01*
X140000000Y-106650000D01*
X139966666Y-106583333D01*
X139966666Y-106416666D01*
X140000000Y-106316666D01*
X139966666Y-106116666D02*
X139966666Y-105716666D01*
X140666666Y-105916666D02*
X139966666Y-105916666D01*
X140000000Y-104583333D02*
X139966666Y-104650000D01*
X139966666Y-104750000D01*
X140000000Y-104850000D01*
X140066666Y-104916666D01*
X140133333Y-104950000D01*
X140266666Y-104983333D01*
X140366666Y-104983333D01*
X140500000Y-104950000D01*
X140566666Y-104916666D01*
X140633333Y-104850000D01*
X140666666Y-104750000D01*
X140666666Y-104683333D01*
X140633333Y-104583333D01*
X140600000Y-104550000D01*
X140366666Y-104550000D01*
X140366666Y-104683333D01*
X140666666Y-104250000D02*
X139966666Y-104250000D01*
X140666666Y-103850000D01*
X139966666Y-103850000D01*
X140666666Y-103516666D02*
X139966666Y-103516666D01*
X139966666Y-103350000D01*
X140000000Y-103250000D01*
X140066666Y-103183333D01*
X140133333Y-103150000D01*
X140266666Y-103116666D01*
X140366666Y-103116666D01*
X140500000Y-103150000D01*
X140566666Y-103183333D01*
X140633333Y-103250000D01*
X140666666Y-103350000D01*
X140666666Y-103516666D01*
X127716666Y-100716666D02*
X127683333Y-100816666D01*
X127683333Y-100983333D01*
X127716666Y-101050000D01*
X127750000Y-101083333D01*
X127816666Y-101116666D01*
X127883333Y-101116666D01*
X127950000Y-101083333D01*
X127983333Y-101050000D01*
X128016666Y-100983333D01*
X128050000Y-100850000D01*
X128083333Y-100783333D01*
X128116666Y-100750000D01*
X128183333Y-100716666D01*
X128250000Y-100716666D01*
X128316666Y-100750000D01*
X128350000Y-100783333D01*
X128383333Y-100850000D01*
X128383333Y-101016666D01*
X128350000Y-101116666D01*
X127750000Y-101816666D02*
X127716666Y-101783333D01*
X127683333Y-101683333D01*
X127683333Y-101616666D01*
X127716666Y-101516666D01*
X127783333Y-101450000D01*
X127850000Y-101416666D01*
X127983333Y-101383333D01*
X128083333Y-101383333D01*
X128216666Y-101416666D01*
X128283333Y-101450000D01*
X128350000Y-101516666D01*
X128383333Y-101616666D01*
X128383333Y-101683333D01*
X128350000Y-101783333D01*
X128316666Y-101816666D01*
X127683333Y-102450000D02*
X127683333Y-102116666D01*
X128383333Y-102116666D01*
X127716666Y-103300000D02*
X127683333Y-103400000D01*
X127683333Y-103566666D01*
X127716666Y-103633333D01*
X127750000Y-103666666D01*
X127816666Y-103700000D01*
X127883333Y-103700000D01*
X127950000Y-103666666D01*
X127983333Y-103633333D01*
X128016666Y-103566666D01*
X128050000Y-103433333D01*
X128083333Y-103366666D01*
X128116666Y-103333333D01*
X128183333Y-103300000D01*
X128250000Y-103300000D01*
X128316666Y-103333333D01*
X128350000Y-103366666D01*
X128383333Y-103433333D01*
X128383333Y-103600000D01*
X128350000Y-103700000D01*
X127683333Y-104000000D02*
X128383333Y-104000000D01*
X128383333Y-104166666D01*
X128350000Y-104266666D01*
X128283333Y-104333333D01*
X128216666Y-104366666D01*
X128083333Y-104400000D01*
X127983333Y-104400000D01*
X127850000Y-104366666D01*
X127783333Y-104333333D01*
X127716666Y-104266666D01*
X127683333Y-104166666D01*
X127683333Y-104000000D01*
X127883333Y-104666666D02*
X127883333Y-105000000D01*
X127683333Y-104600000D02*
X128383333Y-104833333D01*
X127683333Y-105066666D01*
X128383333Y-105366666D02*
X127683333Y-105600000D01*
X128383333Y-105833333D01*
X128383333Y-106066666D02*
X127816666Y-106066666D01*
X127750000Y-106100000D01*
X127716666Y-106133333D01*
X127683333Y-106200000D01*
X127683333Y-106333333D01*
X127716666Y-106400000D01*
X127750000Y-106433333D01*
X127816666Y-106466666D01*
X128383333Y-106466666D01*
X127716666Y-106766666D02*
X127683333Y-106866666D01*
X127683333Y-107033333D01*
X127716666Y-107100000D01*
X127750000Y-107133333D01*
X127816666Y-107166666D01*
X127883333Y-107166666D01*
X127950000Y-107133333D01*
X127983333Y-107100000D01*
X128016666Y-107033333D01*
X128050000Y-106900000D01*
X128083333Y-106833333D01*
X128116666Y-106800000D01*
X128183333Y-106766666D01*
X128250000Y-106766666D01*
X128316666Y-106800000D01*
X128350000Y-106833333D01*
X128383333Y-106900000D01*
X128383333Y-107066666D01*
X128350000Y-107166666D01*
X128050000Y-107700000D02*
X128016666Y-107800000D01*
X127983333Y-107833333D01*
X127916666Y-107866666D01*
X127816666Y-107866666D01*
X127750000Y-107833333D01*
X127716666Y-107800000D01*
X127683333Y-107733333D01*
X127683333Y-107466666D01*
X128383333Y-107466666D01*
X128383333Y-107700000D01*
X128350000Y-107766666D01*
X128316666Y-107800000D01*
X128250000Y-107833333D01*
X128183333Y-107833333D01*
X128116666Y-107800000D01*
X128083333Y-107766666D01*
X128050000Y-107700000D01*
X128050000Y-107466666D01*
X128383333Y-108383333D02*
X127683333Y-108616666D01*
X128383333Y-108850000D01*
X127683333Y-109083333D02*
X128383333Y-109083333D01*
X127683333Y-109416666D02*
X128383333Y-109416666D01*
X127683333Y-109816666D01*
X128383333Y-109816666D01*
X128383333Y-110716666D02*
X128383333Y-111150000D01*
X128116666Y-110916666D01*
X128116666Y-111016666D01*
X128083333Y-111083333D01*
X128050000Y-111116666D01*
X127983333Y-111150000D01*
X127816666Y-111150000D01*
X127750000Y-111116666D01*
X127716666Y-111083333D01*
X127683333Y-111016666D01*
X127683333Y-110816666D01*
X127716666Y-110750000D01*
X127750000Y-110716666D01*
X127750000Y-111450000D02*
X127716666Y-111483333D01*
X127683333Y-111450000D01*
X127716666Y-111416666D01*
X127750000Y-111450000D01*
X127683333Y-111450000D01*
X128383333Y-111716666D02*
X128383333Y-112150000D01*
X128116666Y-111916666D01*
X128116666Y-112016666D01*
X128083333Y-112083333D01*
X128050000Y-112116666D01*
X127983333Y-112150000D01*
X127816666Y-112150000D01*
X127750000Y-112116666D01*
X127716666Y-112083333D01*
X127683333Y-112016666D01*
X127683333Y-111816666D01*
X127716666Y-111750000D01*
X127750000Y-111716666D01*
X128383333Y-112350000D02*
X127683333Y-112583333D01*
X128383333Y-112816666D01*
X128350000Y-113866666D02*
X128383333Y-113800000D01*
X128383333Y-113700000D01*
X128350000Y-113600000D01*
X128283333Y-113533333D01*
X128216666Y-113500000D01*
X128083333Y-113466666D01*
X127983333Y-113466666D01*
X127850000Y-113500000D01*
X127783333Y-113533333D01*
X127716666Y-113600000D01*
X127683333Y-113700000D01*
X127683333Y-113766666D01*
X127716666Y-113866666D01*
X127750000Y-113900000D01*
X127983333Y-113900000D01*
X127983333Y-113766666D01*
X127683333Y-114200000D02*
X128383333Y-114200000D01*
X127683333Y-114600000D01*
X128383333Y-114600000D01*
X127683333Y-114933333D02*
X128383333Y-114933333D01*
X128383333Y-115100000D01*
X128350000Y-115200000D01*
X128283333Y-115266666D01*
X128216666Y-115300000D01*
X128083333Y-115333333D01*
X127983333Y-115333333D01*
X127850000Y-115300000D01*
X127783333Y-115266666D01*
X127716666Y-115200000D01*
X127683333Y-115100000D01*
X127683333Y-114933333D01*
X127883333Y-115766666D02*
X127883333Y-116100000D01*
X127683333Y-115700000D02*
X128383333Y-115933333D01*
X127683333Y-116166666D01*
X127683333Y-116800000D02*
X128016666Y-116566666D01*
X127683333Y-116400000D02*
X128383333Y-116400000D01*
X128383333Y-116666666D01*
X128350000Y-116733333D01*
X128316666Y-116766666D01*
X128250000Y-116800000D01*
X128150000Y-116800000D01*
X128083333Y-116766666D01*
X128050000Y-116733333D01*
X128016666Y-116666666D01*
X128016666Y-116400000D01*
X128050000Y-117100000D02*
X128050000Y-117333333D01*
X127683333Y-117433333D02*
X127683333Y-117100000D01*
X128383333Y-117100000D01*
X128383333Y-117433333D01*
X128050000Y-117966666D02*
X128050000Y-117733333D01*
X127683333Y-117733333D02*
X128383333Y-117733333D01*
X128383333Y-118066666D01*
X127883333Y-118900000D02*
X127883333Y-119233333D01*
X127683333Y-118833333D02*
X128383333Y-119066666D01*
X127683333Y-119300000D01*
X128383333Y-119666666D02*
X128383333Y-119733333D01*
X128350000Y-119800000D01*
X128316666Y-119833333D01*
X128250000Y-119866666D01*
X128116666Y-119900000D01*
X127950000Y-119900000D01*
X127816666Y-119866666D01*
X127750000Y-119833333D01*
X127716666Y-119800000D01*
X127683333Y-119733333D01*
X127683333Y-119666666D01*
X127716666Y-119600000D01*
X127750000Y-119566666D01*
X127816666Y-119533333D01*
X127950000Y-119500000D01*
X128116666Y-119500000D01*
X128250000Y-119533333D01*
X128316666Y-119566666D01*
X128350000Y-119600000D01*
X128383333Y-119666666D01*
X127883333Y-121400000D02*
X127883333Y-121733333D01*
X127683333Y-121333333D02*
X128383333Y-121566666D01*
X127683333Y-121800000D01*
X127683333Y-122400000D02*
X127683333Y-122000000D01*
X127683333Y-122200000D02*
X128383333Y-122200000D01*
X128283333Y-122133333D01*
X128216666Y-122066666D01*
X128183333Y-122000000D01*
X127883333Y-124050000D02*
X127883333Y-124383333D01*
X127683333Y-123983333D02*
X128383333Y-124216666D01*
X127683333Y-124450000D01*
X128316666Y-124650000D02*
X128350000Y-124683333D01*
X128383333Y-124750000D01*
X128383333Y-124916666D01*
X128350000Y-124983333D01*
X128316666Y-125016666D01*
X128250000Y-125050000D01*
X128183333Y-125050000D01*
X128083333Y-125016666D01*
X127683333Y-124616666D01*
X127683333Y-125050000D01*
X127883333Y-126550000D02*
X127883333Y-126883333D01*
X127683333Y-126483333D02*
X128383333Y-126716666D01*
X127683333Y-126950000D01*
X128383333Y-127116666D02*
X128383333Y-127550000D01*
X128116666Y-127316666D01*
X128116666Y-127416666D01*
X128083333Y-127483333D01*
X128050000Y-127516666D01*
X127983333Y-127550000D01*
X127816666Y-127550000D01*
X127750000Y-127516666D01*
X127716666Y-127483333D01*
X127683333Y-127416666D01*
X127683333Y-127216666D01*
X127716666Y-127150000D01*
X127750000Y-127116666D01*
X127883333Y-129050000D02*
X127883333Y-129383333D01*
X127683333Y-128983333D02*
X128383333Y-129216666D01*
X127683333Y-129450000D01*
X128150000Y-129983333D02*
X127683333Y-129983333D01*
X128416666Y-129816666D02*
X127916666Y-129650000D01*
X127916666Y-130083333D01*
X127883333Y-131550000D02*
X127883333Y-131883333D01*
X127683333Y-131483333D02*
X128383333Y-131716666D01*
X127683333Y-131950000D01*
X128383333Y-132516666D02*
X128383333Y-132183333D01*
X128050000Y-132150000D01*
X128083333Y-132183333D01*
X128116666Y-132250000D01*
X128116666Y-132416666D01*
X128083333Y-132483333D01*
X128050000Y-132516666D01*
X127983333Y-132550000D01*
X127816666Y-132550000D01*
X127750000Y-132516666D01*
X127716666Y-132483333D01*
X127683333Y-132416666D01*
X127683333Y-132250000D01*
X127716666Y-132183333D01*
X127750000Y-132150000D01*
X127683333Y-133983333D02*
X128383333Y-133983333D01*
X128383333Y-134150000D01*
X128350000Y-134250000D01*
X128283333Y-134316666D01*
X128216666Y-134350000D01*
X128083333Y-134383333D01*
X127983333Y-134383333D01*
X127850000Y-134350000D01*
X127783333Y-134316666D01*
X127716666Y-134250000D01*
X127683333Y-134150000D01*
X127683333Y-133983333D01*
X128383333Y-134816666D02*
X128383333Y-134883333D01*
X128350000Y-134950000D01*
X128316666Y-134983333D01*
X128250000Y-135016666D01*
X128116666Y-135050000D01*
X127950000Y-135050000D01*
X127816666Y-135016666D01*
X127750000Y-134983333D01*
X127716666Y-134950000D01*
X127683333Y-134883333D01*
X127683333Y-134816666D01*
X127716666Y-134750000D01*
X127750000Y-134716666D01*
X127816666Y-134683333D01*
X127950000Y-134650000D01*
X128116666Y-134650000D01*
X128250000Y-134683333D01*
X128316666Y-134716666D01*
X128350000Y-134750000D01*
X128383333Y-134816666D01*
X139966666Y-102583333D02*
X139966666Y-102150000D01*
X140233333Y-102383333D01*
X140233333Y-102283333D01*
X140266666Y-102216666D01*
X140300000Y-102183333D01*
X140366666Y-102150000D01*
X140533333Y-102150000D01*
X140600000Y-102183333D01*
X140633333Y-102216666D01*
X140666666Y-102283333D01*
X140666666Y-102483333D01*
X140633333Y-102550000D01*
X140600000Y-102583333D01*
X140600000Y-101850000D02*
X140633333Y-101816666D01*
X140666666Y-101850000D01*
X140633333Y-101883333D01*
X140600000Y-101850000D01*
X140666666Y-101850000D01*
X139966666Y-101583333D02*
X139966666Y-101150000D01*
X140233333Y-101383333D01*
X140233333Y-101283333D01*
X140266666Y-101216666D01*
X140300000Y-101183333D01*
X140366666Y-101150000D01*
X140533333Y-101150000D01*
X140600000Y-101183333D01*
X140633333Y-101216666D01*
X140666666Y-101283333D01*
X140666666Y-101483333D01*
X140633333Y-101550000D01*
X140600000Y-101583333D01*
X139966666Y-100950000D02*
X140666666Y-100716666D01*
X139966666Y-100483333D01*
D11*
X127683333Y-136533333D02*
X128383333Y-136533333D01*
X128383333Y-136700000D01*
X128350000Y-136800000D01*
X128283333Y-136866666D01*
X128216666Y-136900000D01*
X128083333Y-136933333D01*
X127983333Y-136933333D01*
X127850000Y-136900000D01*
X127783333Y-136866666D01*
X127716666Y-136800000D01*
X127683333Y-136700000D01*
X127683333Y-136533333D01*
X127683333Y-137600000D02*
X127683333Y-137200000D01*
X127683333Y-137400000D02*
X128383333Y-137400000D01*
X128283333Y-137333333D01*
X128216666Y-137266666D01*
X128183333Y-137200000D01*
D12*
G04 #@! TO.C,J2*
X137350000Y-106750000D02*
X130950000Y-106750000D01*
X130950000Y-106750000D02*
X130950000Y-103350000D01*
X130950000Y-103350000D02*
X137350000Y-103350000D01*
X137350000Y-103350000D02*
X137350000Y-106750000D01*
X137830278Y-103050000D02*
G75*
G03X137830278Y-103050000I-180278J0D01*
G01*
G04 #@! TO.C,C1*
X140250000Y-142800000D02*
X140250000Y-143500000D01*
X139050000Y-143500000D02*
X139050000Y-142800000D01*
G04 #@! TO.C,C2*
X129700000Y-119350000D02*
X129700000Y-120050000D01*
X128500000Y-120050000D02*
X128500000Y-119350000D01*
G04 #@! TO.C,C3*
X129500000Y-132150000D02*
X130200000Y-132150000D01*
X130200000Y-133350000D02*
X129500000Y-133350000D01*
G04 #@! TO.C,C4*
X133300000Y-114950000D02*
X132600000Y-114950000D01*
X132600000Y-113750000D02*
X133300000Y-113750000D01*
G04 #@! TO.C,C5*
X130300000Y-114950000D02*
X129600000Y-114950000D01*
X129600000Y-113750000D02*
X130300000Y-113750000D01*
G04 #@! TO.C,C6*
X136250000Y-136650000D02*
X136250000Y-137350000D01*
X135050000Y-137350000D02*
X135050000Y-136650000D01*
G04 #@! TO.C,C7*
X132700000Y-132800000D02*
X133400000Y-132800000D01*
X133400000Y-134000000D02*
X132700000Y-134000000D01*
G04 #@! TO.C,C8*
X134850000Y-116950000D02*
X134850000Y-116250000D01*
X136050000Y-116250000D02*
X136050000Y-116950000D01*
G04 #@! TO.C,C9*
X138900000Y-120100000D02*
X138200000Y-120100000D01*
X138200000Y-118900000D02*
X138900000Y-118900000D01*
G04 #@! TO.C,C10*
X129500000Y-129850000D02*
X130200000Y-129850000D01*
X130200000Y-131050000D02*
X129500000Y-131050000D01*
G04 #@! TO.C,C11*
X135800000Y-113100000D02*
X135800000Y-113800000D01*
X134600000Y-113800000D02*
X134600000Y-113100000D01*
G04 #@! TO.C,D1*
X130100000Y-110200000D02*
X130100000Y-107500000D01*
X128600000Y-110200000D02*
X128600000Y-107500000D01*
X129500000Y-108700000D02*
X129250000Y-108700000D01*
X129250000Y-108700000D02*
X129400000Y-108850000D01*
X129000000Y-108950000D02*
X129700000Y-108950000D01*
X129350000Y-108600000D02*
X129350000Y-108250000D01*
X129350000Y-108950000D02*
X129000000Y-108600000D01*
X129000000Y-108600000D02*
X129700000Y-108600000D01*
X129700000Y-108600000D02*
X129350000Y-108950000D01*
G04 #@! TO.C,D2*
X139700000Y-110050000D02*
X139700000Y-107350000D01*
X138200000Y-110050000D02*
X138200000Y-107350000D01*
X139100000Y-108550000D02*
X138850000Y-108550000D01*
X138850000Y-108550000D02*
X139000000Y-108700000D01*
X138600000Y-108800000D02*
X139300000Y-108800000D01*
X138950000Y-108450000D02*
X138950000Y-108100000D01*
X138950000Y-108800000D02*
X138600000Y-108450000D01*
X138600000Y-108450000D02*
X139300000Y-108450000D01*
X139300000Y-108450000D02*
X138950000Y-108800000D01*
G04 #@! TO.C,D3*
X138200000Y-110850000D02*
X138200000Y-113550000D01*
X139700000Y-110850000D02*
X139700000Y-113550000D01*
X138800000Y-112350000D02*
X139050000Y-112350000D01*
X139050000Y-112350000D02*
X138900000Y-112200000D01*
X139300000Y-112100000D02*
X138600000Y-112100000D01*
X138950000Y-112450000D02*
X138950000Y-112800000D01*
X138950000Y-112100000D02*
X139300000Y-112450000D01*
X139300000Y-112450000D02*
X138600000Y-112450000D01*
X138600000Y-112450000D02*
X138950000Y-112100000D01*
G04 #@! TO.C,D4*
X142800000Y-139900000D02*
X140100000Y-139900000D01*
X142800000Y-141400000D02*
X140100000Y-141400000D01*
X141300000Y-140500000D02*
X141300000Y-140750000D01*
X141300000Y-140750000D02*
X141450000Y-140600000D01*
X141550000Y-141000000D02*
X141550000Y-140300000D01*
X141200000Y-140650000D02*
X140850000Y-140650000D01*
X141550000Y-140650000D02*
X141200000Y-141000000D01*
X141200000Y-141000000D02*
X141200000Y-140300000D01*
X141200000Y-140300000D02*
X141550000Y-140650000D01*
G04 #@! TO.C,F1*
X126450000Y-139425000D02*
X128450000Y-139425000D01*
X128450000Y-142375000D02*
X126450000Y-142375000D01*
G04 #@! TO.C,L1*
X128575000Y-117000000D02*
X128575000Y-116000000D01*
X129925000Y-116000000D02*
X129925000Y-117000000D01*
G04 #@! TO.C,R1*
X128925000Y-105150000D02*
X128925000Y-104150000D01*
X130275000Y-104150000D02*
X130275000Y-105150000D01*
G04 #@! TO.C,R2*
X140675000Y-143650000D02*
X140675000Y-142650000D01*
X142025000Y-142650000D02*
X142025000Y-143650000D01*
G04 #@! TO.C,R3*
X138950000Y-117775000D02*
X137950000Y-117775000D01*
X137950000Y-116425000D02*
X138950000Y-116425000D01*
G04 #@! TO.C,R4*
X138075000Y-105150000D02*
X138075000Y-104150000D01*
X139425000Y-104150000D02*
X139425000Y-105150000D01*
G04 #@! TO.C,R6*
X139200000Y-115875000D02*
X138200000Y-115875000D01*
X138200000Y-114525000D02*
X139200000Y-114525000D01*
G04 #@! TO.C,R9*
X137725000Y-140800000D02*
X137725000Y-139800000D01*
X139075000Y-139800000D02*
X139075000Y-140800000D01*
G04 #@! TO.C,R10*
X132300000Y-112025000D02*
X133300000Y-112025000D01*
X133300000Y-113375000D02*
X132300000Y-113375000D01*
G04 #@! TO.C,R11*
X130350000Y-113375000D02*
X129350000Y-113375000D01*
X129350000Y-112025000D02*
X130350000Y-112025000D01*
G04 #@! TO.C,S1*
X137250000Y-110900000D02*
X137250000Y-110000000D01*
X131050000Y-110900000D02*
X131050000Y-110000000D01*
X131050000Y-108000000D02*
X131050000Y-107100000D01*
X137250000Y-107100000D02*
X137250000Y-108000000D01*
X131050000Y-110900000D02*
X137250000Y-110900000D01*
X131050000Y-107100000D02*
X137250000Y-107100000D01*
D13*
G04 #@! TO.C,U1*
X134774000Y-135711000D02*
X134774000Y-137489000D01*
X134774000Y-137489000D02*
X131726000Y-137489000D01*
X131726000Y-137489000D02*
X131726000Y-135711000D01*
X131726000Y-135711000D02*
X134774000Y-135711000D01*
D12*
G04 #@! TO.C,VR1*
X135900000Y-140225000D02*
X134900000Y-140225000D01*
X134900000Y-138875000D02*
X135900000Y-138875000D01*
G04 #@! TO.C,VR2*
X132200000Y-138875000D02*
X133200000Y-138875000D01*
X133200000Y-140225000D02*
X132200000Y-140225000D01*
G04 #@! TO.C,X1*
X132836396Y-115216548D02*
X134533452Y-116913604D01*
X129866548Y-118186396D02*
X131563604Y-119883452D01*
X132836396Y-115216548D02*
X129866548Y-118186396D01*
X134533452Y-116913604D02*
X131563604Y-119883452D01*
G04 #@! TO.C,U2*
X134450000Y-119343146D02*
G75*
G03X134450000Y-119343146I-300000J0D01*
G01*
X134150000Y-119873476D02*
X133778769Y-120244707D01*
X139276524Y-125000000D02*
X138905293Y-125371231D01*
X134150000Y-130126524D02*
X134521231Y-129755293D01*
X129023476Y-125000000D02*
X129394707Y-124628769D01*
X134150000Y-119873476D02*
X134521231Y-120244707D01*
X129023476Y-125000000D02*
X129394707Y-125371231D01*
X134150000Y-130126524D02*
X133778769Y-129755293D01*
X139276524Y-125000000D02*
X138905293Y-124628769D01*
X133778769Y-120244707D02*
X132806497Y-119272435D01*
D11*
G04 #@! TO.C,C12*
X139800000Y-129650000D02*
X139800000Y-130350000D01*
X138600000Y-130350000D02*
X138600000Y-129650000D01*
D14*
G04 #@! TO.C,Q1*
X136050000Y-112900000D02*
X137650000Y-112900000D01*
X137650000Y-112900000D02*
X137650000Y-113500000D01*
X137650000Y-113500000D02*
X136050000Y-113500000D01*
X136050000Y-113500000D02*
X136050000Y-112900000D01*
G04 #@! TO.C,J2*
D10*
X137600000Y-106371428D02*
X137600000Y-106800000D01*
X137571428Y-106885714D01*
X137514285Y-106942857D01*
X137428571Y-106971428D01*
X137371428Y-106971428D01*
X137857142Y-106428571D02*
X137885714Y-106400000D01*
X137942857Y-106371428D01*
X138085714Y-106371428D01*
X138142857Y-106400000D01*
X138171428Y-106428571D01*
X138200000Y-106485714D01*
X138200000Y-106542857D01*
X138171428Y-106628571D01*
X137828571Y-106971428D01*
X138200000Y-106971428D01*
G04 #@! TO.C,C1*
X139550000Y-145314285D02*
X139521428Y-145342857D01*
X139435714Y-145371428D01*
X139378571Y-145371428D01*
X139292857Y-145342857D01*
X139235714Y-145285714D01*
X139207142Y-145228571D01*
X139178571Y-145114285D01*
X139178571Y-145028571D01*
X139207142Y-144914285D01*
X139235714Y-144857142D01*
X139292857Y-144800000D01*
X139378571Y-144771428D01*
X139435714Y-144771428D01*
X139521428Y-144800000D01*
X139550000Y-144828571D01*
X140121428Y-145371428D02*
X139778571Y-145371428D01*
X139950000Y-145371428D02*
X139950000Y-144771428D01*
X139892857Y-144857142D01*
X139835714Y-144914285D01*
X139778571Y-144942857D01*
G04 #@! TO.C,C2*
X129000000Y-121714285D02*
X128971428Y-121742857D01*
X128885714Y-121771428D01*
X128828571Y-121771428D01*
X128742857Y-121742857D01*
X128685714Y-121685714D01*
X128657142Y-121628571D01*
X128628571Y-121514285D01*
X128628571Y-121428571D01*
X128657142Y-121314285D01*
X128685714Y-121257142D01*
X128742857Y-121200000D01*
X128828571Y-121171428D01*
X128885714Y-121171428D01*
X128971428Y-121200000D01*
X129000000Y-121228571D01*
X129228571Y-121228571D02*
X129257142Y-121200000D01*
X129314285Y-121171428D01*
X129457142Y-121171428D01*
X129514285Y-121200000D01*
X129542857Y-121228571D01*
X129571428Y-121285714D01*
X129571428Y-121342857D01*
X129542857Y-121428571D01*
X129200000Y-121771428D01*
X129571428Y-121771428D01*
G04 #@! TO.C,C3*
X129750000Y-131914285D02*
X129721428Y-131942857D01*
X129635714Y-131971428D01*
X129578571Y-131971428D01*
X129492857Y-131942857D01*
X129435714Y-131885714D01*
X129407142Y-131828571D01*
X129378571Y-131714285D01*
X129378571Y-131628571D01*
X129407142Y-131514285D01*
X129435714Y-131457142D01*
X129492857Y-131400000D01*
X129578571Y-131371428D01*
X129635714Y-131371428D01*
X129721428Y-131400000D01*
X129750000Y-131428571D01*
X129950000Y-131371428D02*
X130321428Y-131371428D01*
X130121428Y-131600000D01*
X130207142Y-131600000D01*
X130264285Y-131628571D01*
X130292857Y-131657142D01*
X130321428Y-131714285D01*
X130321428Y-131857142D01*
X130292857Y-131914285D01*
X130264285Y-131942857D01*
X130207142Y-131971428D01*
X130035714Y-131971428D01*
X129978571Y-131942857D01*
X129950000Y-131914285D01*
G04 #@! TO.C,C4*
X133950000Y-115764285D02*
X133921428Y-115792857D01*
X133835714Y-115821428D01*
X133778571Y-115821428D01*
X133692857Y-115792857D01*
X133635714Y-115735714D01*
X133607142Y-115678571D01*
X133578571Y-115564285D01*
X133578571Y-115478571D01*
X133607142Y-115364285D01*
X133635714Y-115307142D01*
X133692857Y-115250000D01*
X133778571Y-115221428D01*
X133835714Y-115221428D01*
X133921428Y-115250000D01*
X133950000Y-115278571D01*
X134464285Y-115421428D02*
X134464285Y-115821428D01*
X134321428Y-115192857D02*
X134178571Y-115621428D01*
X134550000Y-115621428D01*
G04 #@! TO.C,C5*
X130750000Y-115764285D02*
X130721428Y-115792857D01*
X130635714Y-115821428D01*
X130578571Y-115821428D01*
X130492857Y-115792857D01*
X130435714Y-115735714D01*
X130407142Y-115678571D01*
X130378571Y-115564285D01*
X130378571Y-115478571D01*
X130407142Y-115364285D01*
X130435714Y-115307142D01*
X130492857Y-115250000D01*
X130578571Y-115221428D01*
X130635714Y-115221428D01*
X130721428Y-115250000D01*
X130750000Y-115278571D01*
X131292857Y-115221428D02*
X131007142Y-115221428D01*
X130978571Y-115507142D01*
X131007142Y-115478571D01*
X131064285Y-115450000D01*
X131207142Y-115450000D01*
X131264285Y-115478571D01*
X131292857Y-115507142D01*
X131321428Y-115564285D01*
X131321428Y-115707142D01*
X131292857Y-115764285D01*
X131264285Y-115792857D01*
X131207142Y-115821428D01*
X131064285Y-115821428D01*
X131007142Y-115792857D01*
X130978571Y-115764285D01*
G04 #@! TO.C,C6*
X135550000Y-135514285D02*
X135521428Y-135542857D01*
X135435714Y-135571428D01*
X135378571Y-135571428D01*
X135292857Y-135542857D01*
X135235714Y-135485714D01*
X135207142Y-135428571D01*
X135178571Y-135314285D01*
X135178571Y-135228571D01*
X135207142Y-135114285D01*
X135235714Y-135057142D01*
X135292857Y-135000000D01*
X135378571Y-134971428D01*
X135435714Y-134971428D01*
X135521428Y-135000000D01*
X135550000Y-135028571D01*
X136064285Y-134971428D02*
X135950000Y-134971428D01*
X135892857Y-135000000D01*
X135864285Y-135028571D01*
X135807142Y-135114285D01*
X135778571Y-135228571D01*
X135778571Y-135457142D01*
X135807142Y-135514285D01*
X135835714Y-135542857D01*
X135892857Y-135571428D01*
X136007142Y-135571428D01*
X136064285Y-135542857D01*
X136092857Y-135514285D01*
X136121428Y-135457142D01*
X136121428Y-135314285D01*
X136092857Y-135257142D01*
X136064285Y-135228571D01*
X136007142Y-135200000D01*
X135892857Y-135200000D01*
X135835714Y-135228571D01*
X135807142Y-135257142D01*
X135778571Y-135314285D01*
G04 #@! TO.C,C7*
X132950000Y-132564285D02*
X132921428Y-132592857D01*
X132835714Y-132621428D01*
X132778571Y-132621428D01*
X132692857Y-132592857D01*
X132635714Y-132535714D01*
X132607142Y-132478571D01*
X132578571Y-132364285D01*
X132578571Y-132278571D01*
X132607142Y-132164285D01*
X132635714Y-132107142D01*
X132692857Y-132050000D01*
X132778571Y-132021428D01*
X132835714Y-132021428D01*
X132921428Y-132050000D01*
X132950000Y-132078571D01*
X133150000Y-132021428D02*
X133550000Y-132021428D01*
X133292857Y-132621428D01*
G04 #@! TO.C,C8*
X134850000Y-118714285D02*
X134821428Y-118742857D01*
X134735714Y-118771428D01*
X134678571Y-118771428D01*
X134592857Y-118742857D01*
X134535714Y-118685714D01*
X134507142Y-118628571D01*
X134478571Y-118514285D01*
X134478571Y-118428571D01*
X134507142Y-118314285D01*
X134535714Y-118257142D01*
X134592857Y-118200000D01*
X134678571Y-118171428D01*
X134735714Y-118171428D01*
X134821428Y-118200000D01*
X134850000Y-118228571D01*
X135192857Y-118428571D02*
X135135714Y-118400000D01*
X135107142Y-118371428D01*
X135078571Y-118314285D01*
X135078571Y-118285714D01*
X135107142Y-118228571D01*
X135135714Y-118200000D01*
X135192857Y-118171428D01*
X135307142Y-118171428D01*
X135364285Y-118200000D01*
X135392857Y-118228571D01*
X135421428Y-118285714D01*
X135421428Y-118314285D01*
X135392857Y-118371428D01*
X135364285Y-118400000D01*
X135307142Y-118428571D01*
X135192857Y-118428571D01*
X135135714Y-118457142D01*
X135107142Y-118485714D01*
X135078571Y-118542857D01*
X135078571Y-118657142D01*
X135107142Y-118714285D01*
X135135714Y-118742857D01*
X135192857Y-118771428D01*
X135307142Y-118771428D01*
X135364285Y-118742857D01*
X135392857Y-118714285D01*
X135421428Y-118657142D01*
X135421428Y-118542857D01*
X135392857Y-118485714D01*
X135364285Y-118457142D01*
X135307142Y-118428571D01*
G04 #@! TO.C,C9*
X138450000Y-120864285D02*
X138421428Y-120892857D01*
X138335714Y-120921428D01*
X138278571Y-120921428D01*
X138192857Y-120892857D01*
X138135714Y-120835714D01*
X138107142Y-120778571D01*
X138078571Y-120664285D01*
X138078571Y-120578571D01*
X138107142Y-120464285D01*
X138135714Y-120407142D01*
X138192857Y-120350000D01*
X138278571Y-120321428D01*
X138335714Y-120321428D01*
X138421428Y-120350000D01*
X138450000Y-120378571D01*
X138735714Y-120921428D02*
X138850000Y-120921428D01*
X138907142Y-120892857D01*
X138935714Y-120864285D01*
X138992857Y-120778571D01*
X139021428Y-120664285D01*
X139021428Y-120435714D01*
X138992857Y-120378571D01*
X138964285Y-120350000D01*
X138907142Y-120321428D01*
X138792857Y-120321428D01*
X138735714Y-120350000D01*
X138707142Y-120378571D01*
X138678571Y-120435714D01*
X138678571Y-120578571D01*
X138707142Y-120635714D01*
X138735714Y-120664285D01*
X138792857Y-120692857D01*
X138907142Y-120692857D01*
X138964285Y-120664285D01*
X138992857Y-120635714D01*
X139021428Y-120578571D01*
G04 #@! TO.C,C10*
X129464285Y-129614285D02*
X129435714Y-129642857D01*
X129350000Y-129671428D01*
X129292857Y-129671428D01*
X129207142Y-129642857D01*
X129150000Y-129585714D01*
X129121428Y-129528571D01*
X129092857Y-129414285D01*
X129092857Y-129328571D01*
X129121428Y-129214285D01*
X129150000Y-129157142D01*
X129207142Y-129100000D01*
X129292857Y-129071428D01*
X129350000Y-129071428D01*
X129435714Y-129100000D01*
X129464285Y-129128571D01*
X130035714Y-129671428D02*
X129692857Y-129671428D01*
X129864285Y-129671428D02*
X129864285Y-129071428D01*
X129807142Y-129157142D01*
X129750000Y-129214285D01*
X129692857Y-129242857D01*
X130407142Y-129071428D02*
X130464285Y-129071428D01*
X130521428Y-129100000D01*
X130550000Y-129128571D01*
X130578571Y-129185714D01*
X130607142Y-129300000D01*
X130607142Y-129442857D01*
X130578571Y-129557142D01*
X130550000Y-129614285D01*
X130521428Y-129642857D01*
X130464285Y-129671428D01*
X130407142Y-129671428D01*
X130350000Y-129642857D01*
X130321428Y-129614285D01*
X130292857Y-129557142D01*
X130264285Y-129442857D01*
X130264285Y-129300000D01*
X130292857Y-129185714D01*
X130321428Y-129128571D01*
X130350000Y-129100000D01*
X130407142Y-129071428D01*
G04 #@! TO.C,C11*
X135064285Y-111814285D02*
X135035714Y-111842857D01*
X134950000Y-111871428D01*
X134892857Y-111871428D01*
X134807142Y-111842857D01*
X134750000Y-111785714D01*
X134721428Y-111728571D01*
X134692857Y-111614285D01*
X134692857Y-111528571D01*
X134721428Y-111414285D01*
X134750000Y-111357142D01*
X134807142Y-111300000D01*
X134892857Y-111271428D01*
X134950000Y-111271428D01*
X135035714Y-111300000D01*
X135064285Y-111328571D01*
X135635714Y-111871428D02*
X135292857Y-111871428D01*
X135464285Y-111871428D02*
X135464285Y-111271428D01*
X135407142Y-111357142D01*
X135350000Y-111414285D01*
X135292857Y-111442857D01*
X136207142Y-111871428D02*
X135864285Y-111871428D01*
X136035714Y-111871428D02*
X136035714Y-111271428D01*
X135978571Y-111357142D01*
X135921428Y-111414285D01*
X135864285Y-111442857D01*
G04 #@! TO.C,D1*
X128907142Y-106621428D02*
X128907142Y-106021428D01*
X129050000Y-106021428D01*
X129135714Y-106050000D01*
X129192857Y-106107142D01*
X129221428Y-106164285D01*
X129250000Y-106278571D01*
X129250000Y-106364285D01*
X129221428Y-106478571D01*
X129192857Y-106535714D01*
X129135714Y-106592857D01*
X129050000Y-106621428D01*
X128907142Y-106621428D01*
X129821428Y-106621428D02*
X129478571Y-106621428D01*
X129650000Y-106621428D02*
X129650000Y-106021428D01*
X129592857Y-106107142D01*
X129535714Y-106164285D01*
X129478571Y-106192857D01*
G04 #@! TO.C,D2*
X138507142Y-106671428D02*
X138507142Y-106071428D01*
X138650000Y-106071428D01*
X138735714Y-106100000D01*
X138792857Y-106157142D01*
X138821428Y-106214285D01*
X138850000Y-106328571D01*
X138850000Y-106414285D01*
X138821428Y-106528571D01*
X138792857Y-106585714D01*
X138735714Y-106642857D01*
X138650000Y-106671428D01*
X138507142Y-106671428D01*
X139078571Y-106128571D02*
X139107142Y-106100000D01*
X139164285Y-106071428D01*
X139307142Y-106071428D01*
X139364285Y-106100000D01*
X139392857Y-106128571D01*
X139421428Y-106185714D01*
X139421428Y-106242857D01*
X139392857Y-106328571D01*
X139050000Y-106671428D01*
X139421428Y-106671428D01*
G04 #@! TO.C,D3*
X137007142Y-111671428D02*
X137007142Y-111071428D01*
X137150000Y-111071428D01*
X137235714Y-111100000D01*
X137292857Y-111157142D01*
X137321428Y-111214285D01*
X137350000Y-111328571D01*
X137350000Y-111414285D01*
X137321428Y-111528571D01*
X137292857Y-111585714D01*
X137235714Y-111642857D01*
X137150000Y-111671428D01*
X137007142Y-111671428D01*
X137550000Y-111071428D02*
X137921428Y-111071428D01*
X137721428Y-111300000D01*
X137807142Y-111300000D01*
X137864285Y-111328571D01*
X137892857Y-111357142D01*
X137921428Y-111414285D01*
X137921428Y-111557142D01*
X137892857Y-111614285D01*
X137864285Y-111642857D01*
X137807142Y-111671428D01*
X137635714Y-111671428D01*
X137578571Y-111642857D01*
X137550000Y-111614285D01*
G04 #@! TO.C,D4*
X139457142Y-139621428D02*
X139457142Y-139021428D01*
X139600000Y-139021428D01*
X139685714Y-139050000D01*
X139742857Y-139107142D01*
X139771428Y-139164285D01*
X139800000Y-139278571D01*
X139800000Y-139364285D01*
X139771428Y-139478571D01*
X139742857Y-139535714D01*
X139685714Y-139592857D01*
X139600000Y-139621428D01*
X139457142Y-139621428D01*
X140314285Y-139221428D02*
X140314285Y-139621428D01*
X140171428Y-138992857D02*
X140028571Y-139421428D01*
X140400000Y-139421428D01*
G04 #@! TO.C,F1*
X129950000Y-142157142D02*
X129750000Y-142157142D01*
X129750000Y-142471428D02*
X129750000Y-141871428D01*
X130035714Y-141871428D01*
X130578571Y-142471428D02*
X130235714Y-142471428D01*
X130407142Y-142471428D02*
X130407142Y-141871428D01*
X130350000Y-141957142D01*
X130292857Y-142014285D01*
X130235714Y-142042857D01*
G04 #@! TO.C,J1*
X131750000Y-144571428D02*
X131750000Y-145000000D01*
X131721428Y-145085714D01*
X131664285Y-145142857D01*
X131578571Y-145171428D01*
X131521428Y-145171428D01*
X132350000Y-145171428D02*
X132007142Y-145171428D01*
X132178571Y-145171428D02*
X132178571Y-144571428D01*
X132121428Y-144657142D01*
X132064285Y-144714285D01*
X132007142Y-144742857D01*
G04 #@! TO.C,L1*
X130450000Y-116821428D02*
X130164285Y-116821428D01*
X130164285Y-116221428D01*
X130964285Y-116821428D02*
X130621428Y-116821428D01*
X130792857Y-116821428D02*
X130792857Y-116221428D01*
X130735714Y-116307142D01*
X130678571Y-116364285D01*
X130621428Y-116392857D01*
G04 #@! TO.C,R1*
X129500000Y-103271428D02*
X129300000Y-102985714D01*
X129157142Y-103271428D02*
X129157142Y-102671428D01*
X129385714Y-102671428D01*
X129442857Y-102700000D01*
X129471428Y-102728571D01*
X129500000Y-102785714D01*
X129500000Y-102871428D01*
X129471428Y-102928571D01*
X129442857Y-102957142D01*
X129385714Y-102985714D01*
X129157142Y-102985714D01*
X130071428Y-103271428D02*
X129728571Y-103271428D01*
X129900000Y-103271428D02*
X129900000Y-102671428D01*
X129842857Y-102757142D01*
X129785714Y-102814285D01*
X129728571Y-102842857D01*
G04 #@! TO.C,R2*
X141250000Y-145371428D02*
X141050000Y-145085714D01*
X140907142Y-145371428D02*
X140907142Y-144771428D01*
X141135714Y-144771428D01*
X141192857Y-144800000D01*
X141221428Y-144828571D01*
X141250000Y-144885714D01*
X141250000Y-144971428D01*
X141221428Y-145028571D01*
X141192857Y-145057142D01*
X141135714Y-145085714D01*
X140907142Y-145085714D01*
X141478571Y-144828571D02*
X141507142Y-144800000D01*
X141564285Y-144771428D01*
X141707142Y-144771428D01*
X141764285Y-144800000D01*
X141792857Y-144828571D01*
X141821428Y-144885714D01*
X141821428Y-144942857D01*
X141792857Y-145028571D01*
X141450000Y-145371428D01*
X141821428Y-145371428D01*
G04 #@! TO.C,R3*
X137700000Y-118621428D02*
X137500000Y-118335714D01*
X137357142Y-118621428D02*
X137357142Y-118021428D01*
X137585714Y-118021428D01*
X137642857Y-118050000D01*
X137671428Y-118078571D01*
X137700000Y-118135714D01*
X137700000Y-118221428D01*
X137671428Y-118278571D01*
X137642857Y-118307142D01*
X137585714Y-118335714D01*
X137357142Y-118335714D01*
X137900000Y-118021428D02*
X138271428Y-118021428D01*
X138071428Y-118250000D01*
X138157142Y-118250000D01*
X138214285Y-118278571D01*
X138242857Y-118307142D01*
X138271428Y-118364285D01*
X138271428Y-118507142D01*
X138242857Y-118564285D01*
X138214285Y-118592857D01*
X138157142Y-118621428D01*
X137985714Y-118621428D01*
X137928571Y-118592857D01*
X137900000Y-118564285D01*
G04 #@! TO.C,R4*
X138650000Y-103271428D02*
X138450000Y-102985714D01*
X138307142Y-103271428D02*
X138307142Y-102671428D01*
X138535714Y-102671428D01*
X138592857Y-102700000D01*
X138621428Y-102728571D01*
X138650000Y-102785714D01*
X138650000Y-102871428D01*
X138621428Y-102928571D01*
X138592857Y-102957142D01*
X138535714Y-102985714D01*
X138307142Y-102985714D01*
X139164285Y-102871428D02*
X139164285Y-103271428D01*
X139021428Y-102642857D02*
X138878571Y-103071428D01*
X139250000Y-103071428D01*
G04 #@! TO.C,R6*
X136800000Y-115771428D02*
X136600000Y-115485714D01*
X136457142Y-115771428D02*
X136457142Y-115171428D01*
X136685714Y-115171428D01*
X136742857Y-115200000D01*
X136771428Y-115228571D01*
X136800000Y-115285714D01*
X136800000Y-115371428D01*
X136771428Y-115428571D01*
X136742857Y-115457142D01*
X136685714Y-115485714D01*
X136457142Y-115485714D01*
X137314285Y-115171428D02*
X137200000Y-115171428D01*
X137142857Y-115200000D01*
X137114285Y-115228571D01*
X137057142Y-115314285D01*
X137028571Y-115428571D01*
X137028571Y-115657142D01*
X137057142Y-115714285D01*
X137085714Y-115742857D01*
X137142857Y-115771428D01*
X137257142Y-115771428D01*
X137314285Y-115742857D01*
X137342857Y-115714285D01*
X137371428Y-115657142D01*
X137371428Y-115514285D01*
X137342857Y-115457142D01*
X137314285Y-115428571D01*
X137257142Y-115400000D01*
X137142857Y-115400000D01*
X137085714Y-115428571D01*
X137057142Y-115457142D01*
X137028571Y-115514285D01*
G04 #@! TO.C,R9*
X138250000Y-142321428D02*
X138050000Y-142035714D01*
X137907142Y-142321428D02*
X137907142Y-141721428D01*
X138135714Y-141721428D01*
X138192857Y-141750000D01*
X138221428Y-141778571D01*
X138250000Y-141835714D01*
X138250000Y-141921428D01*
X138221428Y-141978571D01*
X138192857Y-142007142D01*
X138135714Y-142035714D01*
X137907142Y-142035714D01*
X138535714Y-142321428D02*
X138650000Y-142321428D01*
X138707142Y-142292857D01*
X138735714Y-142264285D01*
X138792857Y-142178571D01*
X138821428Y-142064285D01*
X138821428Y-141835714D01*
X138792857Y-141778571D01*
X138764285Y-141750000D01*
X138707142Y-141721428D01*
X138592857Y-141721428D01*
X138535714Y-141750000D01*
X138507142Y-141778571D01*
X138478571Y-141835714D01*
X138478571Y-141978571D01*
X138507142Y-142035714D01*
X138535714Y-142064285D01*
X138592857Y-142092857D01*
X138707142Y-142092857D01*
X138764285Y-142064285D01*
X138792857Y-142035714D01*
X138821428Y-141978571D01*
G04 #@! TO.C,R10*
X131914285Y-111771428D02*
X131714285Y-111485714D01*
X131571428Y-111771428D02*
X131571428Y-111171428D01*
X131800000Y-111171428D01*
X131857142Y-111200000D01*
X131885714Y-111228571D01*
X131914285Y-111285714D01*
X131914285Y-111371428D01*
X131885714Y-111428571D01*
X131857142Y-111457142D01*
X131800000Y-111485714D01*
X131571428Y-111485714D01*
X132485714Y-111771428D02*
X132142857Y-111771428D01*
X132314285Y-111771428D02*
X132314285Y-111171428D01*
X132257142Y-111257142D01*
X132200000Y-111314285D01*
X132142857Y-111342857D01*
X132857142Y-111171428D02*
X132914285Y-111171428D01*
X132971428Y-111200000D01*
X133000000Y-111228571D01*
X133028571Y-111285714D01*
X133057142Y-111400000D01*
X133057142Y-111542857D01*
X133028571Y-111657142D01*
X133000000Y-111714285D01*
X132971428Y-111742857D01*
X132914285Y-111771428D01*
X132857142Y-111771428D01*
X132800000Y-111742857D01*
X132771428Y-111714285D01*
X132742857Y-111657142D01*
X132714285Y-111542857D01*
X132714285Y-111400000D01*
X132742857Y-111285714D01*
X132771428Y-111228571D01*
X132800000Y-111200000D01*
X132857142Y-111171428D01*
G04 #@! TO.C,R11*
X129464285Y-111771428D02*
X129264285Y-111485714D01*
X129121428Y-111771428D02*
X129121428Y-111171428D01*
X129350000Y-111171428D01*
X129407142Y-111200000D01*
X129435714Y-111228571D01*
X129464285Y-111285714D01*
X129464285Y-111371428D01*
X129435714Y-111428571D01*
X129407142Y-111457142D01*
X129350000Y-111485714D01*
X129121428Y-111485714D01*
X130035714Y-111771428D02*
X129692857Y-111771428D01*
X129864285Y-111771428D02*
X129864285Y-111171428D01*
X129807142Y-111257142D01*
X129750000Y-111314285D01*
X129692857Y-111342857D01*
X130607142Y-111771428D02*
X130264285Y-111771428D01*
X130435714Y-111771428D02*
X130435714Y-111171428D01*
X130378571Y-111257142D01*
X130321428Y-111314285D01*
X130264285Y-111342857D01*
G04 #@! TO.C,S1*
X129992857Y-110942857D02*
X130078571Y-110971428D01*
X130221428Y-110971428D01*
X130278571Y-110942857D01*
X130307142Y-110914285D01*
X130335714Y-110857142D01*
X130335714Y-110800000D01*
X130307142Y-110742857D01*
X130278571Y-110714285D01*
X130221428Y-110685714D01*
X130107142Y-110657142D01*
X130050000Y-110628571D01*
X130021428Y-110600000D01*
X129992857Y-110542857D01*
X129992857Y-110485714D01*
X130021428Y-110428571D01*
X130050000Y-110400000D01*
X130107142Y-110371428D01*
X130250000Y-110371428D01*
X130335714Y-110400000D01*
X130907142Y-110971428D02*
X130564285Y-110971428D01*
X130735714Y-110971428D02*
X130735714Y-110371428D01*
X130678571Y-110457142D01*
X130621428Y-110514285D01*
X130564285Y-110542857D01*
G04 #@! TO.C,U1*
X132792857Y-134921428D02*
X132792857Y-135407142D01*
X132821428Y-135464285D01*
X132850000Y-135492857D01*
X132907142Y-135521428D01*
X133021428Y-135521428D01*
X133078571Y-135492857D01*
X133107142Y-135464285D01*
X133135714Y-135407142D01*
X133135714Y-134921428D01*
X133735714Y-135521428D02*
X133392857Y-135521428D01*
X133564285Y-135521428D02*
X133564285Y-134921428D01*
X133507142Y-135007142D01*
X133450000Y-135064285D01*
X133392857Y-135092857D01*
G04 #@! TO.C,VR1*
X136721428Y-140285714D02*
X137321428Y-140085714D01*
X136721428Y-139885714D01*
X137321428Y-139342857D02*
X137035714Y-139542857D01*
X137321428Y-139685714D02*
X136721428Y-139685714D01*
X136721428Y-139457142D01*
X136750000Y-139400000D01*
X136778571Y-139371428D01*
X136835714Y-139342857D01*
X136921428Y-139342857D01*
X136978571Y-139371428D01*
X137007142Y-139400000D01*
X137035714Y-139457142D01*
X137035714Y-139685714D01*
X137321428Y-138771428D02*
X137321428Y-139114285D01*
X137321428Y-138942857D02*
X136721428Y-138942857D01*
X136807142Y-139000000D01*
X136864285Y-139057142D01*
X136892857Y-139114285D01*
G04 #@! TO.C,VR2*
X130821428Y-140335714D02*
X131421428Y-140135714D01*
X130821428Y-139935714D01*
X131421428Y-139392857D02*
X131135714Y-139592857D01*
X131421428Y-139735714D02*
X130821428Y-139735714D01*
X130821428Y-139507142D01*
X130850000Y-139450000D01*
X130878571Y-139421428D01*
X130935714Y-139392857D01*
X131021428Y-139392857D01*
X131078571Y-139421428D01*
X131107142Y-139450000D01*
X131135714Y-139507142D01*
X131135714Y-139735714D01*
X130878571Y-139164285D02*
X130850000Y-139135714D01*
X130821428Y-139078571D01*
X130821428Y-138935714D01*
X130850000Y-138878571D01*
X130878571Y-138850000D01*
X130935714Y-138821428D01*
X130992857Y-138821428D01*
X131078571Y-138850000D01*
X131421428Y-139192857D01*
X131421428Y-138821428D01*
G04 #@! TO.C,X1*
X130388883Y-119074213D02*
X130247461Y-119781319D01*
X130671725Y-119357055D02*
X129964619Y-119498477D01*
X130631319Y-120165177D02*
X130388883Y-119922741D01*
X130510101Y-120043959D02*
X130934365Y-119619695D01*
X130833350Y-119639898D01*
X130752538Y-119639898D01*
X130691928Y-119619695D01*
G04 #@! TO.C,U2*
X133759086Y-130144416D02*
X133415634Y-130487867D01*
X133395431Y-130548477D01*
X133395431Y-130588883D01*
X133415634Y-130649492D01*
X133496446Y-130730304D01*
X133557055Y-130750507D01*
X133597461Y-130750507D01*
X133658071Y-130730304D01*
X134001522Y-130386852D01*
X134142944Y-130609086D02*
X134183350Y-130609086D01*
X134243959Y-130629289D01*
X134344974Y-130730304D01*
X134365177Y-130790913D01*
X134365177Y-130831319D01*
X134344974Y-130891928D01*
X134304568Y-130932335D01*
X134223756Y-130972741D01*
X133738883Y-130972741D01*
X134001522Y-131235380D01*
G04 #@! TO.C,C12*
X137314285Y-130214285D02*
X137285714Y-130242857D01*
X137200000Y-130271428D01*
X137142857Y-130271428D01*
X137057142Y-130242857D01*
X137000000Y-130185714D01*
X136971428Y-130128571D01*
X136942857Y-130014285D01*
X136942857Y-129928571D01*
X136971428Y-129814285D01*
X137000000Y-129757142D01*
X137057142Y-129700000D01*
X137142857Y-129671428D01*
X137200000Y-129671428D01*
X137285714Y-129700000D01*
X137314285Y-129728571D01*
X137885714Y-130271428D02*
X137542857Y-130271428D01*
X137714285Y-130271428D02*
X137714285Y-129671428D01*
X137657142Y-129757142D01*
X137600000Y-129814285D01*
X137542857Y-129842857D01*
X138114285Y-129728571D02*
X138142857Y-129700000D01*
X138200000Y-129671428D01*
X138342857Y-129671428D01*
X138400000Y-129700000D01*
X138428571Y-129728571D01*
X138457142Y-129785714D01*
X138457142Y-129842857D01*
X138428571Y-129928571D01*
X138085714Y-130271428D01*
X138457142Y-130271428D01*
G04 #@! TO.C,Q1*
X136692857Y-114878571D02*
X136635714Y-114850000D01*
X136578571Y-114792857D01*
X136492857Y-114707142D01*
X136435714Y-114678571D01*
X136378571Y-114678571D01*
X136407142Y-114821428D02*
X136350000Y-114792857D01*
X136292857Y-114735714D01*
X136264285Y-114621428D01*
X136264285Y-114421428D01*
X136292857Y-114307142D01*
X136350000Y-114250000D01*
X136407142Y-114221428D01*
X136521428Y-114221428D01*
X136578571Y-114250000D01*
X136635714Y-114307142D01*
X136664285Y-114421428D01*
X136664285Y-114621428D01*
X136635714Y-114735714D01*
X136578571Y-114792857D01*
X136521428Y-114821428D01*
X136407142Y-114821428D01*
X137235714Y-114821428D02*
X136892857Y-114821428D01*
X137064285Y-114821428D02*
X137064285Y-114221428D01*
X137007142Y-114307142D01*
X136950000Y-114364285D01*
X136892857Y-114392857D01*
G04 #@! TO.C,JP1*
X129370000Y-135941428D02*
X129370000Y-136370000D01*
X129341428Y-136455714D01*
X129284285Y-136512857D01*
X129198571Y-136541428D01*
X129141428Y-136541428D01*
X129655714Y-136541428D02*
X129655714Y-135941428D01*
X129884285Y-135941428D01*
X129941428Y-135970000D01*
X129970000Y-135998571D01*
X129998571Y-136055714D01*
X129998571Y-136141428D01*
X129970000Y-136198571D01*
X129941428Y-136227142D01*
X129884285Y-136255714D01*
X129655714Y-136255714D01*
X130570000Y-136541428D02*
X130227142Y-136541428D01*
X130398571Y-136541428D02*
X130398571Y-135941428D01*
X130341428Y-136027142D01*
X130284285Y-136084285D01*
X130227142Y-136112857D01*
G04 #@! TD*
M02*
