G04 #@! TF.FileFunction,Copper,L2,Bot,Signal*
%FSLAX46Y46*%
G04 Gerber Fmt 4.6, Leading zero omitted, Abs format (unit mm)*
G04 Created by KiCad (PCBNEW 4.0.6-e0-6349~53~ubuntu16.04.1) date Sat Mar  4 14:09:25 2017*
%MOMM*%
%LPD*%
G01*
G04 APERTURE LIST*
%ADD10C,0.100000*%
%ADD11C,0.200000*%
%ADD12C,0.200000*%
%ADD13O,1.450000X1.150000*%
%ADD14O,1.200000X1.750000*%
%ADD15O,1.727200X2.032000*%
%ADD16O,2.000000X1.700000*%
%ADD17O,2.032000X1.727200*%
%ADD18C,1.000000*%
%ADD19R,0.300000X2.000000*%
%ADD20C,0.400000*%
G04 APERTURE END LIST*
D10*
D11*
X128359524Y-140302381D02*
X128359524Y-139302381D01*
X128054762Y-139302381D01*
X127978571Y-139350000D01*
X127940476Y-139397619D01*
X127902381Y-139492857D01*
X127902381Y-139635714D01*
X127940476Y-139730952D01*
X127978571Y-139778571D01*
X128054762Y-139826190D01*
X128359524Y-139826190D01*
X127559524Y-140302381D02*
X127559524Y-139635714D01*
X127559524Y-139826190D02*
X127521429Y-139730952D01*
X127483333Y-139683333D01*
X127407143Y-139635714D01*
X127330952Y-139635714D01*
X126950000Y-140302381D02*
X127026191Y-140254762D01*
X127064286Y-140207143D01*
X127102381Y-140111905D01*
X127102381Y-139826190D01*
X127064286Y-139730952D01*
X127026191Y-139683333D01*
X126950000Y-139635714D01*
X126835714Y-139635714D01*
X126759524Y-139683333D01*
X126721429Y-139730952D01*
X126683333Y-139826190D01*
X126683333Y-140111905D01*
X126721429Y-140207143D01*
X126759524Y-140254762D01*
X126835714Y-140302381D01*
X126950000Y-140302381D01*
X126454762Y-139635714D02*
X126150000Y-139635714D01*
X126340476Y-139302381D02*
X126340476Y-140159524D01*
X126302381Y-140254762D01*
X126226190Y-140302381D01*
X126150000Y-140302381D01*
X125769047Y-140302381D02*
X125845238Y-140254762D01*
X125883333Y-140207143D01*
X125921428Y-140111905D01*
X125921428Y-139826190D01*
X125883333Y-139730952D01*
X125845238Y-139683333D01*
X125769047Y-139635714D01*
X125654761Y-139635714D01*
X125578571Y-139683333D01*
X125540476Y-139730952D01*
X125502380Y-139826190D01*
X125502380Y-140111905D01*
X125540476Y-140207143D01*
X125578571Y-140254762D01*
X125654761Y-140302381D01*
X125769047Y-140302381D01*
D12*
X139650000Y-102900000D03*
D13*
X136650000Y-141450000D03*
X131650000Y-141450000D03*
D14*
X137650000Y-144150000D03*
X130650000Y-144150000D03*
D15*
X131610000Y-101550000D03*
X134150000Y-101550000D03*
X136690000Y-101550000D03*
D16*
X126550000Y-101550000D03*
D17*
X126550000Y-104090000D03*
X126550000Y-106630000D03*
X126550000Y-109170000D03*
X126550000Y-111710000D03*
X126550000Y-114250000D03*
X126550000Y-116790000D03*
X126550000Y-119330000D03*
X126550000Y-121870000D03*
X126550000Y-124410000D03*
X126550000Y-126950000D03*
X126550000Y-129490000D03*
X126550000Y-132030000D03*
X126550000Y-134570000D03*
X126550000Y-137110000D03*
D16*
X141800000Y-101550000D03*
D17*
X141800000Y-104090000D03*
X141800000Y-106630000D03*
X141800000Y-109170000D03*
X141800000Y-111710000D03*
X141800000Y-114250000D03*
X141800000Y-116790000D03*
X141800000Y-119330000D03*
X141800000Y-121870000D03*
X141800000Y-124410000D03*
X141800000Y-126950000D03*
X141800000Y-129490000D03*
X141800000Y-132030000D03*
X141800000Y-134570000D03*
X141800000Y-137110000D03*
D12*
X137000000Y-132000000D03*
D18*
X136690000Y-104415000D03*
X136690000Y-105685000D03*
X135420000Y-104415000D03*
X135420000Y-105685000D03*
X134150000Y-104415000D03*
X134150000Y-105685000D03*
X132880000Y-104415000D03*
X132880000Y-105685000D03*
X131610000Y-104415000D03*
X131610000Y-105685000D03*
D12*
X129250000Y-116500000D03*
D10*
G36*
X140750000Y-140200000D02*
X140750000Y-142200000D01*
X140250000Y-141700000D01*
X140250000Y-140700000D01*
X140750000Y-140200000D01*
X140750000Y-140200000D01*
G37*
G36*
X142150000Y-140700000D02*
X142150000Y-141700000D01*
X141650000Y-142200000D01*
X141650000Y-140200000D01*
X142150000Y-140700000D01*
X142150000Y-140700000D01*
G37*
D19*
X141520000Y-141200000D03*
X140880000Y-141200000D03*
D20*
X131639979Y-134132906D03*
X129200000Y-113550000D03*
X130550000Y-116950000D03*
X130821080Y-120328912D03*
X138739979Y-121344249D03*
X139295985Y-120448104D03*
X139600000Y-122250000D03*
X137850000Y-125450000D03*
X133750000Y-132550000D03*
X133250000Y-134350000D03*
X130600000Y-131450000D03*
X131950000Y-132300000D03*
X137300000Y-140550000D03*
X135700000Y-140550000D03*
X134850000Y-137250000D03*
X133250000Y-136900000D03*
X135450000Y-109000000D03*
X135450000Y-110800000D03*
X128650000Y-133800000D03*
X141500000Y-139500000D03*
X130694258Y-133786249D03*
X131030010Y-116016057D03*
X134335592Y-132400977D03*
X129250000Y-110900000D03*
X128750000Y-103900000D03*
X129256482Y-131434408D03*
X129250000Y-115105002D03*
X136900000Y-123250000D03*
X136700000Y-125100000D03*
X139400000Y-138600000D03*
X131846605Y-110380352D03*
X134563544Y-123581042D03*
X134900000Y-122450000D03*
X139750000Y-106250000D03*
X138222876Y-128619759D03*
X133450000Y-138700000D03*
X138822218Y-128473682D03*
X134650000Y-138700000D03*
X139979398Y-120458066D03*
X139800000Y-131549990D03*
X139550000Y-124400000D03*
X137900000Y-116150000D03*
X134900000Y-135150000D03*
X139800000Y-136050000D03*
X135272367Y-121270430D03*
X135475583Y-121813666D03*
X135300000Y-123575022D03*
X132233461Y-127224937D03*
X133401569Y-127551569D03*
X133215190Y-126280010D03*
X130509706Y-125529536D03*
X129600000Y-102150000D03*
X130798124Y-126255381D03*
X129000000Y-102150000D03*
X128796066Y-118014677D03*
X129756077Y-118050000D03*
X129861068Y-120350009D03*
X130235011Y-118950000D03*
X131193607Y-125324473D03*
X133226007Y-130718112D03*
X127746011Y-130416272D03*
X128439246Y-127878904D03*
X133850000Y-110249980D03*
X134969990Y-110250000D03*
X133700000Y-111250000D03*
X133960171Y-126280010D03*
X134450000Y-111250000D03*
X135595967Y-126429614D03*
X137800000Y-107450000D03*
X139700000Y-116200000D03*
X134362771Y-129137228D03*
X135035581Y-126280010D03*
X139208312Y-118169425D03*
X129900000Y-124750000D03*
X135626686Y-123050012D03*
X131919467Y-123998304D03*
X138583437Y-118254464D03*
X138482116Y-124642874D03*
X132269990Y-124495839D03*
X130520898Y-124201442D03*
X139550000Y-125150000D03*
X137698201Y-129290734D03*
X139602084Y-125830703D03*
X136000000Y-127600000D03*
X134652921Y-130175333D03*
X139824294Y-128039595D03*
X134894193Y-131515355D03*
X132633618Y-131363604D03*
X128416055Y-127049857D03*
X128878621Y-127399780D03*
X131269990Y-131444067D03*
X138400000Y-140300000D03*
D11*
X131739979Y-132510021D02*
X131739979Y-134032906D01*
X131950000Y-132300000D02*
X131739979Y-132510021D01*
X131739979Y-134032906D02*
X131639979Y-134132906D01*
X130821080Y-120328912D02*
X130821080Y-117221080D01*
X130821080Y-117221080D02*
X130550000Y-116950000D01*
X139295985Y-120730946D02*
X139295985Y-120448104D01*
X139295985Y-120788243D02*
X139295985Y-120730946D01*
X138739979Y-121344249D02*
X139295985Y-120788243D01*
X137850000Y-125167158D02*
X137850000Y-124000000D01*
X137850000Y-124000000D02*
X139600000Y-122250000D01*
X137850000Y-125450000D02*
X137850000Y-125167158D01*
X133750000Y-132550000D02*
X133750000Y-132000000D01*
X133950000Y-131800000D02*
X134500000Y-131800000D01*
X134500000Y-131800000D02*
X134700000Y-132000000D01*
X133750000Y-132000000D02*
X133950000Y-131800000D01*
X134700000Y-132000000D02*
X137000000Y-132000000D01*
X131750001Y-130962375D02*
X131750001Y-132100001D01*
X131067158Y-130700000D02*
X131487626Y-130700000D01*
X130600000Y-131450000D02*
X130600000Y-131167158D01*
X131750001Y-132100001D02*
X131950000Y-132300000D01*
X131487626Y-130700000D02*
X131750001Y-130962375D01*
X130600000Y-131167158D02*
X131067158Y-130700000D01*
X133250000Y-136900000D02*
X133250000Y-134350000D01*
X135700000Y-140550000D02*
X137300000Y-140550000D01*
X133250000Y-136900000D02*
X134500000Y-136900000D01*
X134500000Y-136900000D02*
X134850000Y-137250000D01*
X135450000Y-110800000D02*
X135450000Y-109000000D01*
X128650000Y-133800000D02*
X128226021Y-133376021D01*
X126550000Y-109815238D02*
X126550000Y-109170000D01*
X127936045Y-111201283D02*
X126550000Y-109815238D01*
X128226021Y-128526021D02*
X127936045Y-128236045D01*
X128226021Y-133376021D02*
X128226021Y-128526021D01*
X127936045Y-128236045D02*
X127936045Y-111201283D01*
X141520000Y-139520000D02*
X141520000Y-141200000D01*
X141500000Y-139500000D02*
X141520000Y-139520000D01*
X129256482Y-131434408D02*
X130694258Y-132872184D01*
X130694258Y-133503407D02*
X130694258Y-133786249D01*
X130694258Y-132872184D02*
X130694258Y-133503407D01*
X129250000Y-115105002D02*
X130161055Y-116016057D01*
X130747168Y-116016057D02*
X131030010Y-116016057D01*
X130161055Y-116016057D02*
X130747168Y-116016057D01*
X137572998Y-138600000D02*
X134335592Y-135362594D01*
X134335592Y-135362594D02*
X134335592Y-132683819D01*
X134335592Y-132683819D02*
X134335592Y-132400977D01*
X139400000Y-138600000D02*
X137572998Y-138600000D01*
X128750000Y-103900000D02*
X128750000Y-110400000D01*
X128750000Y-110400000D02*
X129250000Y-110900000D01*
X136700000Y-125100000D02*
X136700000Y-123450000D01*
X136700000Y-123450000D02*
X136900000Y-123250000D01*
X132236251Y-110769998D02*
X132046604Y-110580351D01*
X132046604Y-110580351D02*
X131846605Y-110380352D01*
X133724979Y-122725315D02*
X133724979Y-120575021D01*
X135339970Y-118960030D02*
X135339970Y-111450372D01*
X135339970Y-111450372D02*
X134659596Y-110769998D01*
X134659596Y-110769998D02*
X132236251Y-110769998D01*
X134563544Y-123563880D02*
X133724979Y-122725315D01*
X134563544Y-123581042D02*
X134563544Y-123563880D01*
X133724979Y-120575021D02*
X135339970Y-118960030D01*
X134900000Y-122450000D02*
X135511331Y-122450000D01*
X135711853Y-122249478D02*
X135718609Y-122249478D01*
X135718609Y-122249478D02*
X137140010Y-120828077D01*
X137140010Y-120828077D02*
X137140010Y-108859990D01*
X135511331Y-122450000D02*
X135711853Y-122249478D01*
X137140010Y-108859990D02*
X139750000Y-106250000D01*
X133450000Y-138700000D02*
X132500000Y-137750000D01*
X132500000Y-137750000D02*
X132500000Y-134000000D01*
X132500000Y-134000000D02*
X132770000Y-133730000D01*
X132889979Y-131835189D02*
X132989980Y-131735188D01*
X132770000Y-133730000D02*
X132770000Y-133157794D01*
X132770000Y-133157794D02*
X132889979Y-133037815D01*
X132889979Y-133037815D02*
X132889979Y-131835189D01*
X132989980Y-131735188D02*
X132989980Y-131685188D01*
X132989980Y-131685188D02*
X134019824Y-130655344D01*
X134019824Y-130655344D02*
X137043993Y-130655344D01*
X137043993Y-130655344D02*
X138222876Y-129476461D01*
X138222876Y-128902601D02*
X138222876Y-128619759D01*
X138222876Y-129476461D02*
X138222876Y-128902601D01*
X138822218Y-128756524D02*
X138822218Y-128473682D01*
X134177230Y-131035354D02*
X137201399Y-131035354D01*
X133369990Y-131842594D02*
X134177230Y-131035354D01*
X133269989Y-131992595D02*
X133369989Y-131892595D01*
X137201399Y-131035354D02*
X138822218Y-129414535D01*
X133780002Y-135369598D02*
X133780002Y-133390404D01*
X135330002Y-138019998D02*
X135330002Y-136919598D01*
X134650000Y-138700000D02*
X135330002Y-138019998D01*
X133780002Y-133390404D02*
X133269989Y-132880391D01*
X138822218Y-129414535D02*
X138822218Y-128756524D01*
X133369989Y-131892595D02*
X133369990Y-131842594D01*
X133269989Y-132880391D02*
X133269989Y-131992595D01*
X135330002Y-136919598D02*
X133780002Y-135369598D01*
X139900126Y-120378794D02*
X139979398Y-120458066D01*
X137900000Y-116150000D02*
X139900126Y-118150126D01*
X139900126Y-118150126D02*
X139900126Y-120378794D01*
X139800000Y-131267148D02*
X139800000Y-131549990D01*
X140730011Y-127704260D02*
X140730010Y-128607406D01*
X139800000Y-129537416D02*
X139800000Y-131267148D01*
X140730010Y-128607406D02*
X139800000Y-129537416D01*
X140480011Y-127454260D02*
X140730011Y-127704260D01*
X140480011Y-125330011D02*
X140480011Y-127454260D01*
X139550000Y-124400000D02*
X140480011Y-125330011D01*
X139800000Y-136050000D02*
X138900000Y-135150000D01*
X138900000Y-135150000D02*
X134900000Y-135150000D01*
X135472366Y-121070431D02*
X135272367Y-121270430D01*
X136690000Y-119852797D02*
X135472366Y-121070431D01*
X136690000Y-111345234D02*
X136690000Y-119852797D01*
X136690022Y-111345212D02*
X136690000Y-111345234D01*
X136690022Y-108454786D02*
X136690022Y-111345212D01*
X136690000Y-108454764D02*
X136690022Y-108454786D01*
X136690000Y-105685000D02*
X136690000Y-108454764D01*
X135192741Y-121813666D02*
X135475583Y-121813666D01*
X134636664Y-121813666D02*
X135192741Y-121813666D01*
X134624999Y-121802001D02*
X134636664Y-121813666D01*
X136239990Y-119623969D02*
X134624999Y-121238960D01*
X134624999Y-121238960D02*
X134624999Y-121802001D01*
X135420000Y-107722180D02*
X136310012Y-108612192D01*
X135420000Y-105685000D02*
X135420000Y-107722180D01*
X136239990Y-111257828D02*
X136239990Y-119623969D01*
X136310012Y-111187806D02*
X136239990Y-111257828D01*
X136310012Y-108612192D02*
X136310012Y-111187806D01*
X135789980Y-111170422D02*
X135930002Y-111030400D01*
X135930002Y-111030400D02*
X135930002Y-108769598D01*
X135930002Y-108769598D02*
X134010404Y-106850000D01*
X134010404Y-106850000D02*
X132775000Y-106850000D01*
X135789980Y-119473610D02*
X135789980Y-111170422D01*
X132775000Y-106850000D02*
X132159999Y-106234999D01*
X132159999Y-106234999D02*
X131610000Y-105685000D01*
X135300000Y-123575022D02*
X134174989Y-122450011D01*
X134174989Y-122450011D02*
X134174989Y-121088601D01*
X134174989Y-121088601D02*
X135789980Y-119473610D01*
X127846010Y-110573832D02*
X128316056Y-111043878D01*
X130312353Y-127224937D02*
X131950619Y-127224937D01*
X128316056Y-118428640D02*
X128430011Y-118542595D01*
X128430011Y-118542595D02*
X128430011Y-125342595D01*
X130546400Y-100334000D02*
X129518180Y-100334000D01*
X128430011Y-125342595D02*
X130312353Y-127224937D01*
X127846010Y-102006170D02*
X127846010Y-110573832D01*
X131610000Y-101550000D02*
X131610000Y-101397600D01*
X128316056Y-111043878D02*
X128316056Y-118428640D01*
X131950619Y-127224937D02*
X132233461Y-127224937D01*
X131610000Y-101397600D02*
X130546400Y-100334000D01*
X129518180Y-100334000D02*
X127846010Y-102006170D01*
X129830402Y-101669998D02*
X131250393Y-103089989D01*
X132422744Y-126735382D02*
X130360214Y-126735382D01*
X128226021Y-110416427D02*
X128226021Y-102163575D01*
X128226021Y-102163575D02*
X128719598Y-101669998D01*
X131250393Y-103089989D02*
X132762411Y-103089989D01*
X131510011Y-113870415D02*
X128769998Y-111130402D01*
X131330001Y-120580401D02*
X131330001Y-116426468D01*
X128769998Y-111130402D02*
X128769998Y-110960404D01*
X128719598Y-101669998D02*
X129830402Y-101669998D01*
X128769998Y-110960404D02*
X128226021Y-110416427D01*
X131330001Y-116426468D02*
X131510011Y-116246458D01*
X130360214Y-126735382D02*
X128810022Y-125185190D01*
X133038932Y-127351570D02*
X132422744Y-126735382D01*
X133401569Y-127551569D02*
X133201570Y-127351570D01*
X128810022Y-125185190D02*
X128810022Y-123100380D01*
X132762411Y-103089989D02*
X134150000Y-101702400D01*
X128810022Y-123100380D02*
X131330001Y-120580401D01*
X131510011Y-116246458D02*
X131510011Y-113870415D01*
X134150000Y-101702400D02*
X134150000Y-101550000D01*
X133201570Y-127351570D02*
X133038932Y-127351570D01*
X130600000Y-103950000D02*
X130600000Y-109812584D01*
X133280011Y-123892595D02*
X133280011Y-125932347D01*
X132470033Y-123082616D02*
X133280011Y-123892595D01*
X133280011Y-125932347D02*
X133215190Y-125997168D01*
X133215190Y-125997168D02*
X133215190Y-126280010D01*
X132650042Y-116718675D02*
X132470033Y-116898684D01*
X131010001Y-103539999D02*
X130600000Y-103950000D01*
X136690000Y-101702400D02*
X134852401Y-103539999D01*
X132470033Y-116898684D02*
X132470033Y-123082616D01*
X130600000Y-109812584D02*
X132650042Y-111862626D01*
X136690000Y-101550000D02*
X136690000Y-101702400D01*
X132650042Y-111862626D02*
X132650042Y-116718675D01*
X134852401Y-103539999D02*
X131010001Y-103539999D01*
X130509706Y-125246694D02*
X130509706Y-125529536D01*
X132113747Y-125050000D02*
X131922063Y-124858316D01*
X132270032Y-116561269D02*
X132090023Y-116741278D01*
X131531661Y-124858316D02*
X131506661Y-124833316D01*
X130923084Y-124833316D02*
X130509706Y-125246694D01*
X131506661Y-124833316D02*
X130923084Y-124833316D01*
X131922063Y-124858316D02*
X131531661Y-124858316D01*
X132900000Y-124900000D02*
X132750000Y-125050000D01*
X132090022Y-123490022D02*
X132900000Y-124300000D01*
X132270032Y-112020032D02*
X132270032Y-116561269D01*
X129937808Y-109687808D02*
X132270032Y-112020032D01*
X129937808Y-102487808D02*
X129937808Y-109687808D01*
X132090023Y-116741278D02*
X132090022Y-123490022D01*
X132750000Y-125050000D02*
X132113747Y-125050000D01*
X132900000Y-124300000D02*
X132900000Y-124900000D01*
X129600000Y-102150000D02*
X129937808Y-102487808D01*
X129190033Y-123257785D02*
X129190033Y-124930132D01*
X131710012Y-120737806D02*
X129190033Y-123257785D01*
X131710012Y-116583873D02*
X131710012Y-120737806D01*
X129280002Y-109930002D02*
X131890022Y-112540022D01*
X129000000Y-103439598D02*
X129280002Y-103719600D01*
X129280002Y-103719600D02*
X129280002Y-109930002D01*
X131890022Y-112540022D02*
X131890022Y-116403863D01*
X130515282Y-126255381D02*
X130798124Y-126255381D01*
X129000000Y-102150000D02*
X129000000Y-103439598D01*
X131890022Y-116403863D02*
X131710012Y-116583873D01*
X129190033Y-124930132D02*
X130515282Y-126255381D01*
X128796066Y-118014677D02*
X129720754Y-118014677D01*
X129720754Y-118014677D02*
X129756077Y-118050000D01*
X130061067Y-120150010D02*
X129861068Y-120350009D01*
X130235011Y-119976066D02*
X130061067Y-120150010D01*
X130235011Y-118950000D02*
X130235011Y-119976066D01*
X133950000Y-128363590D02*
X133950000Y-127388219D01*
X133226007Y-129087583D02*
X133950000Y-128363590D01*
X133226007Y-130718112D02*
X133226007Y-129087583D01*
X131476449Y-125324473D02*
X131193607Y-125324473D01*
X131557315Y-125324473D02*
X131476449Y-125324473D01*
X132992853Y-126760011D02*
X131557315Y-125324473D01*
X133321792Y-126760011D02*
X132992853Y-126760011D01*
X133950000Y-127388219D02*
X133321792Y-126760011D01*
X133204522Y-130718112D02*
X133226007Y-130718112D01*
X126702400Y-132030000D02*
X126550000Y-132030000D01*
X127846010Y-130799113D02*
X127746011Y-130699114D01*
X127746011Y-130699114D02*
X127746011Y-130416272D01*
X126550000Y-134570000D02*
X126702400Y-134570000D01*
X127846010Y-133426390D02*
X127846010Y-130799113D01*
X126702400Y-134570000D02*
X127846010Y-133426390D01*
X129130001Y-132092585D02*
X128730011Y-131692595D01*
X128639245Y-128078903D02*
X128439246Y-127878904D01*
X128730011Y-128169669D02*
X128639245Y-128078903D01*
X126702400Y-137110000D02*
X129130001Y-134682399D01*
X129130001Y-134682399D02*
X129130001Y-132092585D01*
X126550000Y-137110000D02*
X126702400Y-137110000D01*
X128730011Y-131692595D02*
X128730011Y-128169669D01*
X134969970Y-110249980D02*
X133850000Y-110249980D01*
X134969970Y-110249980D02*
X134969990Y-110250000D01*
X133660022Y-125979861D02*
X133760172Y-126080011D01*
X133660022Y-123735190D02*
X133660022Y-125979861D01*
X132850044Y-117056089D02*
X132850044Y-122925211D01*
X132850044Y-122925211D02*
X133660022Y-123735190D01*
X133700000Y-116206133D02*
X132850044Y-117056089D01*
X133700000Y-111250000D02*
X133700000Y-116206133D01*
X133760172Y-126080011D02*
X133960171Y-126280010D01*
X134450000Y-111250000D02*
X134450000Y-119213590D01*
X134805179Y-126760012D02*
X135265569Y-126760012D01*
X134040033Y-123577785D02*
X134040033Y-123777784D01*
X135265569Y-126760012D02*
X135395968Y-126629613D01*
X135395968Y-126629613D02*
X135595967Y-126429614D01*
X134555579Y-126510412D02*
X134805179Y-126760012D01*
X133274970Y-120388620D02*
X133274970Y-122812722D01*
X134450000Y-119213590D02*
X133274970Y-120388620D01*
X134040033Y-123777784D02*
X134555579Y-124293331D01*
X133274970Y-122812722D02*
X134040033Y-123577785D01*
X134555579Y-124293331D02*
X134555579Y-126510412D01*
X137800000Y-107450000D02*
X139525001Y-105724999D01*
X139525001Y-105724999D02*
X140002001Y-105724999D01*
X140458990Y-110521390D02*
X141647600Y-111710000D01*
X140002001Y-105724999D02*
X140458990Y-106181988D01*
X140458990Y-106181988D02*
X140458990Y-110521390D01*
X141647600Y-111710000D02*
X141800000Y-111710000D01*
X140287024Y-120055290D02*
X140287024Y-116787024D01*
X139899999Y-116399999D02*
X139700000Y-116200000D01*
X140287024Y-116787024D02*
X139899999Y-116399999D01*
X140459399Y-120227665D02*
X140287024Y-120055290D01*
X137369999Y-123777867D02*
X140459399Y-120688467D01*
X137369999Y-125457001D02*
X137369999Y-123777867D01*
X134362771Y-129137228D02*
X134362771Y-128464229D01*
X134362771Y-128464229D02*
X137369999Y-125457001D01*
X140459399Y-120688467D02*
X140459399Y-120227665D01*
X141647600Y-114250000D02*
X141800000Y-114250000D01*
X138419989Y-120619607D02*
X138419989Y-120869609D01*
X139208312Y-118169425D02*
X139208312Y-119831284D01*
X136319989Y-122969609D02*
X136319989Y-123533315D01*
X139208312Y-119831284D02*
X138419989Y-120619607D01*
X138419989Y-120869609D02*
X136319989Y-122969609D01*
X136319989Y-123533315D02*
X135035581Y-124817723D01*
X135035581Y-124817723D02*
X135035581Y-125997168D01*
X135035581Y-125997168D02*
X135035581Y-126280010D01*
X138039978Y-120636720D02*
X138039978Y-118797923D01*
X135626686Y-123050012D02*
X138039978Y-120636720D01*
X138383438Y-118454463D02*
X138583437Y-118254464D01*
X138039978Y-118797923D02*
X138383438Y-118454463D01*
X129900000Y-124750000D02*
X129900000Y-124050000D01*
X129900000Y-124050000D02*
X130228560Y-123721440D01*
X130228560Y-123721440D02*
X131642603Y-123721440D01*
X131642603Y-123721440D02*
X131719468Y-123798305D01*
X131719468Y-123798305D02*
X131919467Y-123998304D01*
X138682115Y-124442875D02*
X138482116Y-124642874D01*
X140191390Y-122933600D02*
X138682115Y-124442875D01*
X140584000Y-122933600D02*
X140191390Y-122933600D01*
X141647600Y-121870000D02*
X140584000Y-122933600D01*
X141800000Y-121870000D02*
X141647600Y-121870000D01*
X131689066Y-124478305D02*
X132252456Y-124478305D01*
X131412203Y-124201442D02*
X131689066Y-124478305D01*
X132252456Y-124478305D02*
X132269990Y-124495839D01*
X130520898Y-124201442D02*
X131412203Y-124201442D01*
X139750702Y-125350702D02*
X139550000Y-125150000D01*
X140100000Y-126550000D02*
X140100000Y-125618217D01*
X140100000Y-125618217D02*
X139832485Y-125350702D01*
X139832485Y-125350702D02*
X139750702Y-125350702D01*
X140038333Y-126611667D02*
X140100000Y-126550000D01*
X140038333Y-127550000D02*
X140038333Y-126611667D01*
X140350000Y-128300000D02*
X140350000Y-127861667D01*
X140350000Y-127861667D02*
X140038333Y-127550000D01*
X139950000Y-128700000D02*
X140350000Y-128300000D01*
X139400000Y-128700000D02*
X139950000Y-128700000D01*
X139302219Y-128602219D02*
X139400000Y-128700000D01*
X139050000Y-127950000D02*
X139050000Y-127991062D01*
X139050000Y-127991062D02*
X139302219Y-128243281D01*
X139302219Y-128243281D02*
X139302219Y-128602219D01*
X137900000Y-127950000D02*
X139050000Y-127950000D01*
X137400000Y-128450000D02*
X137900000Y-127950000D01*
X137400000Y-128709691D02*
X137400000Y-128450000D01*
X137698201Y-129290734D02*
X137698201Y-129007892D01*
X137698201Y-129007892D02*
X137400000Y-128709691D01*
X137669999Y-125930001D02*
X139219944Y-125930001D01*
X139319242Y-125830703D02*
X139602084Y-125830703D01*
X136000000Y-127600000D02*
X137669999Y-125930001D01*
X139219944Y-125930001D02*
X139319242Y-125830703D01*
X134852920Y-129975334D02*
X134652921Y-130175333D01*
X137258265Y-127569989D02*
X134852920Y-129975334D01*
X139824294Y-128039595D02*
X139354688Y-127569989D01*
X139354688Y-127569989D02*
X137258265Y-127569989D01*
X141647600Y-129490000D02*
X141800000Y-129490000D01*
X135177035Y-131515355D02*
X134894193Y-131515355D01*
X139130000Y-132030000D02*
X138615355Y-131515355D01*
X138615355Y-131515355D02*
X135177035Y-131515355D01*
X141800000Y-132030000D02*
X139130000Y-132030000D01*
X128616054Y-126849858D02*
X129022113Y-126849858D01*
X129022113Y-126849858D02*
X132633618Y-130461363D01*
X128416055Y-127049857D02*
X128616054Y-126849858D01*
X132633618Y-131080762D02*
X132633618Y-131363604D01*
X132633618Y-130461363D02*
X132633618Y-131080762D01*
X141647600Y-132030000D02*
X141800000Y-132030000D01*
X132153616Y-130674775D02*
X129078620Y-127599779D01*
X132153616Y-131594006D02*
X132153616Y-130674775D01*
X129078620Y-127599779D02*
X128878621Y-127399780D01*
X132509978Y-132860428D02*
X132509978Y-131950368D01*
X132509978Y-131950368D02*
X132153616Y-131594006D01*
X132000000Y-138050000D02*
X132000000Y-134712584D01*
X132119989Y-133250417D02*
X132509978Y-132860428D01*
X139552001Y-139225001D02*
X133175001Y-139225001D01*
X140458990Y-138318012D02*
X139552001Y-139225001D01*
X140458990Y-135758610D02*
X140458990Y-138318012D01*
X141800000Y-134570000D02*
X141647600Y-134570000D01*
X133175001Y-139225001D02*
X132000000Y-138050000D01*
X132000000Y-134712584D02*
X132119989Y-134592595D01*
X141647600Y-134570000D02*
X140458990Y-135758610D01*
X132119989Y-134592595D02*
X132119989Y-133250417D01*
X131269990Y-134473319D02*
X131159978Y-134363307D01*
X131269990Y-131726909D02*
X131269990Y-131444067D01*
X131269990Y-133792493D02*
X131269990Y-131726909D01*
X131159978Y-133902505D02*
X131269990Y-133792493D01*
X141800000Y-138173600D02*
X140298589Y-139675011D01*
X141800000Y-137110000D02*
X141800000Y-138173600D01*
X133011599Y-139675011D02*
X131269990Y-137933402D01*
X131269990Y-137933402D02*
X131269990Y-134473319D01*
X131159978Y-134363307D02*
X131159978Y-133902505D01*
X140298589Y-139675011D02*
X133011599Y-139675011D01*
X140500000Y-141200000D02*
X139300000Y-141200000D01*
X139300000Y-141200000D02*
X138400000Y-140300000D01*
G36*
X130682039Y-141138249D02*
X130640036Y-141288483D01*
X130700391Y-141425000D01*
X131625000Y-141425000D01*
X131625000Y-141405000D01*
X131675000Y-141405000D01*
X131675000Y-141425000D01*
X132599609Y-141425000D01*
X132659964Y-141288483D01*
X132617961Y-141138249D01*
X132598901Y-141100000D01*
X135701099Y-141100000D01*
X135682039Y-141138249D01*
X135640036Y-141288483D01*
X135700391Y-141425000D01*
X136625000Y-141425000D01*
X136625000Y-141405000D01*
X136675000Y-141405000D01*
X136675000Y-141425000D01*
X137599609Y-141425000D01*
X137659964Y-141288483D01*
X137617961Y-141138249D01*
X137598901Y-141100000D01*
X137700000Y-141100000D01*
X137700000Y-143000000D01*
X137703959Y-143027859D01*
X137707790Y-143036358D01*
X137675000Y-143050379D01*
X137675000Y-144125000D01*
X137695000Y-144125000D01*
X137695000Y-144175000D01*
X137675000Y-144175000D01*
X137675000Y-144195000D01*
X137625000Y-144195000D01*
X137625000Y-144175000D01*
X136750000Y-144175000D01*
X136750000Y-144450000D01*
X136772171Y-144625101D01*
X136828076Y-144792512D01*
X136915567Y-144945800D01*
X137031282Y-145079074D01*
X137170774Y-145187212D01*
X137246453Y-145225000D01*
X131053547Y-145225000D01*
X131129226Y-145187212D01*
X131268718Y-145079074D01*
X131384433Y-144945800D01*
X131471924Y-144792512D01*
X131527829Y-144625101D01*
X131550000Y-144450000D01*
X131550000Y-144175000D01*
X130675000Y-144175000D01*
X130675000Y-144195000D01*
X130625000Y-144195000D01*
X130625000Y-144175000D01*
X130605000Y-144175000D01*
X130605000Y-144125000D01*
X130625000Y-144125000D01*
X130625000Y-143050379D01*
X130675000Y-143050379D01*
X130675000Y-144125000D01*
X131550000Y-144125000D01*
X131550000Y-143850000D01*
X136750000Y-143850000D01*
X136750000Y-144125000D01*
X137625000Y-144125000D01*
X137625000Y-143050379D01*
X137484571Y-142990334D01*
X137328682Y-143033941D01*
X137170774Y-143112788D01*
X137031282Y-143220926D01*
X136915567Y-143354200D01*
X136828076Y-143507488D01*
X136772171Y-143674899D01*
X136750000Y-143850000D01*
X131550000Y-143850000D01*
X131527829Y-143674899D01*
X131471924Y-143507488D01*
X131384433Y-143354200D01*
X131268718Y-143220926D01*
X131129226Y-143112788D01*
X130971318Y-143033941D01*
X130815429Y-142990334D01*
X130675000Y-143050379D01*
X130625000Y-143050379D01*
X130592364Y-143036424D01*
X130598736Y-143015848D01*
X130600000Y-143000000D01*
X130600000Y-141611517D01*
X130640036Y-141611517D01*
X130682039Y-141761751D01*
X130758575Y-141915337D01*
X130863604Y-142051041D01*
X130993089Y-142163647D01*
X131142055Y-142248828D01*
X131304776Y-142303310D01*
X131475000Y-142325000D01*
X131625000Y-142325000D01*
X131625000Y-141475000D01*
X131675000Y-141475000D01*
X131675000Y-142325000D01*
X131825000Y-142325000D01*
X131995224Y-142303310D01*
X132157945Y-142248828D01*
X132306911Y-142163647D01*
X132436396Y-142051041D01*
X132541425Y-141915337D01*
X132617961Y-141761751D01*
X132659964Y-141611517D01*
X135640036Y-141611517D01*
X135682039Y-141761751D01*
X135758575Y-141915337D01*
X135863604Y-142051041D01*
X135993089Y-142163647D01*
X136142055Y-142248828D01*
X136304776Y-142303310D01*
X136475000Y-142325000D01*
X136625000Y-142325000D01*
X136625000Y-141475000D01*
X136675000Y-141475000D01*
X136675000Y-142325000D01*
X136825000Y-142325000D01*
X136995224Y-142303310D01*
X137157945Y-142248828D01*
X137306911Y-142163647D01*
X137436396Y-142051041D01*
X137541425Y-141915337D01*
X137617961Y-141761751D01*
X137659964Y-141611517D01*
X137599609Y-141475000D01*
X136675000Y-141475000D01*
X136625000Y-141475000D01*
X135700391Y-141475000D01*
X135640036Y-141611517D01*
X132659964Y-141611517D01*
X132599609Y-141475000D01*
X131675000Y-141475000D01*
X131625000Y-141475000D01*
X130700391Y-141475000D01*
X130640036Y-141611517D01*
X130600000Y-141611517D01*
X130600000Y-141100000D01*
X130701099Y-141100000D01*
X130682039Y-141138249D01*
X130682039Y-141138249D01*
G37*
X130682039Y-141138249D02*
X130640036Y-141288483D01*
X130700391Y-141425000D01*
X131625000Y-141425000D01*
X131625000Y-141405000D01*
X131675000Y-141405000D01*
X131675000Y-141425000D01*
X132599609Y-141425000D01*
X132659964Y-141288483D01*
X132617961Y-141138249D01*
X132598901Y-141100000D01*
X135701099Y-141100000D01*
X135682039Y-141138249D01*
X135640036Y-141288483D01*
X135700391Y-141425000D01*
X136625000Y-141425000D01*
X136625000Y-141405000D01*
X136675000Y-141405000D01*
X136675000Y-141425000D01*
X137599609Y-141425000D01*
X137659964Y-141288483D01*
X137617961Y-141138249D01*
X137598901Y-141100000D01*
X137700000Y-141100000D01*
X137700000Y-143000000D01*
X137703959Y-143027859D01*
X137707790Y-143036358D01*
X137675000Y-143050379D01*
X137675000Y-144125000D01*
X137695000Y-144125000D01*
X137695000Y-144175000D01*
X137675000Y-144175000D01*
X137675000Y-144195000D01*
X137625000Y-144195000D01*
X137625000Y-144175000D01*
X136750000Y-144175000D01*
X136750000Y-144450000D01*
X136772171Y-144625101D01*
X136828076Y-144792512D01*
X136915567Y-144945800D01*
X137031282Y-145079074D01*
X137170774Y-145187212D01*
X137246453Y-145225000D01*
X131053547Y-145225000D01*
X131129226Y-145187212D01*
X131268718Y-145079074D01*
X131384433Y-144945800D01*
X131471924Y-144792512D01*
X131527829Y-144625101D01*
X131550000Y-144450000D01*
X131550000Y-144175000D01*
X130675000Y-144175000D01*
X130675000Y-144195000D01*
X130625000Y-144195000D01*
X130625000Y-144175000D01*
X130605000Y-144175000D01*
X130605000Y-144125000D01*
X130625000Y-144125000D01*
X130625000Y-143050379D01*
X130675000Y-143050379D01*
X130675000Y-144125000D01*
X131550000Y-144125000D01*
X131550000Y-143850000D01*
X136750000Y-143850000D01*
X136750000Y-144125000D01*
X137625000Y-144125000D01*
X137625000Y-143050379D01*
X137484571Y-142990334D01*
X137328682Y-143033941D01*
X137170774Y-143112788D01*
X137031282Y-143220926D01*
X136915567Y-143354200D01*
X136828076Y-143507488D01*
X136772171Y-143674899D01*
X136750000Y-143850000D01*
X131550000Y-143850000D01*
X131527829Y-143674899D01*
X131471924Y-143507488D01*
X131384433Y-143354200D01*
X131268718Y-143220926D01*
X131129226Y-143112788D01*
X130971318Y-143033941D01*
X130815429Y-142990334D01*
X130675000Y-143050379D01*
X130625000Y-143050379D01*
X130592364Y-143036424D01*
X130598736Y-143015848D01*
X130600000Y-143000000D01*
X130600000Y-141611517D01*
X130640036Y-141611517D01*
X130682039Y-141761751D01*
X130758575Y-141915337D01*
X130863604Y-142051041D01*
X130993089Y-142163647D01*
X131142055Y-142248828D01*
X131304776Y-142303310D01*
X131475000Y-142325000D01*
X131625000Y-142325000D01*
X131625000Y-141475000D01*
X131675000Y-141475000D01*
X131675000Y-142325000D01*
X131825000Y-142325000D01*
X131995224Y-142303310D01*
X132157945Y-142248828D01*
X132306911Y-142163647D01*
X132436396Y-142051041D01*
X132541425Y-141915337D01*
X132617961Y-141761751D01*
X132659964Y-141611517D01*
X135640036Y-141611517D01*
X135682039Y-141761751D01*
X135758575Y-141915337D01*
X135863604Y-142051041D01*
X135993089Y-142163647D01*
X136142055Y-142248828D01*
X136304776Y-142303310D01*
X136475000Y-142325000D01*
X136625000Y-142325000D01*
X136625000Y-141475000D01*
X136675000Y-141475000D01*
X136675000Y-142325000D01*
X136825000Y-142325000D01*
X136995224Y-142303310D01*
X137157945Y-142248828D01*
X137306911Y-142163647D01*
X137436396Y-142051041D01*
X137541425Y-141915337D01*
X137617961Y-141761751D01*
X137659964Y-141611517D01*
X137599609Y-141475000D01*
X136675000Y-141475000D01*
X136625000Y-141475000D01*
X135700391Y-141475000D01*
X135640036Y-141611517D01*
X132659964Y-141611517D01*
X132599609Y-141475000D01*
X131675000Y-141475000D01*
X131625000Y-141475000D01*
X130700391Y-141475000D01*
X130640036Y-141611517D01*
X130600000Y-141611517D01*
X130600000Y-141100000D01*
X130701099Y-141100000D01*
X130682039Y-141138249D01*
G36*
X143125000Y-145425000D02*
X138700000Y-145425000D01*
X138700000Y-141137401D01*
X139031299Y-141468700D01*
X139058437Y-141490992D01*
X139085313Y-141513543D01*
X139087061Y-141514504D01*
X139088607Y-141515774D01*
X139119581Y-141532382D01*
X139150302Y-141549271D01*
X139152205Y-141549875D01*
X139153968Y-141550820D01*
X139187566Y-141561092D01*
X139220994Y-141571696D01*
X139222979Y-141571919D01*
X139224890Y-141572503D01*
X139259829Y-141576052D01*
X139294694Y-141579963D01*
X139298596Y-141579990D01*
X139298673Y-141579998D01*
X139298744Y-141579991D01*
X139300000Y-141580000D01*
X139968646Y-141580000D01*
X139968646Y-141700000D01*
X139975473Y-141761603D01*
X140003504Y-141835645D01*
X140051053Y-141898947D01*
X140481998Y-142329892D01*
X140519185Y-142386325D01*
X140579440Y-142437680D01*
X140651617Y-142470215D01*
X140730000Y-142481354D01*
X141030000Y-142481354D01*
X141074589Y-142477798D01*
X141150216Y-142454378D01*
X141200305Y-142421371D01*
X141219440Y-142437680D01*
X141291617Y-142470215D01*
X141370000Y-142481354D01*
X141670000Y-142481354D01*
X141714589Y-142477798D01*
X141790216Y-142454378D01*
X141856325Y-142410815D01*
X141907680Y-142350560D01*
X141916171Y-142331723D01*
X142348947Y-141898947D01*
X142387680Y-141850560D01*
X142420215Y-141778383D01*
X142431354Y-141700000D01*
X142431354Y-140700000D01*
X142424527Y-140638397D01*
X142396496Y-140564355D01*
X142348947Y-140501053D01*
X141918002Y-140070108D01*
X141900000Y-140042789D01*
X141900000Y-139765709D01*
X141919377Y-139738240D01*
X141957665Y-139652245D01*
X141978520Y-139560451D01*
X141980021Y-139452934D01*
X141961737Y-139360593D01*
X141925866Y-139273563D01*
X141873774Y-139195158D01*
X141807444Y-139128364D01*
X141729404Y-139075725D01*
X141642627Y-139039247D01*
X141550416Y-139020319D01*
X141491096Y-139019905D01*
X142068701Y-138442300D01*
X142090978Y-138415179D01*
X142113543Y-138388287D01*
X142114505Y-138386536D01*
X142115774Y-138384992D01*
X142132371Y-138354040D01*
X142149271Y-138323298D01*
X142149875Y-138321395D01*
X142150820Y-138319632D01*
X142161088Y-138286047D01*
X142171696Y-138252606D01*
X142171919Y-138250620D01*
X142172503Y-138248709D01*
X142174152Y-138232472D01*
X142180797Y-138231820D01*
X142394463Y-138167311D01*
X142591530Y-138062529D01*
X142764491Y-137921465D01*
X142906758Y-137749493D01*
X143012914Y-137553163D01*
X143078913Y-137339953D01*
X143102243Y-137117984D01*
X143082015Y-136895711D01*
X143018998Y-136681600D01*
X142915595Y-136483807D01*
X142775742Y-136309865D01*
X142604767Y-136166400D01*
X142409183Y-136058877D01*
X142196439Y-135991390D01*
X141974638Y-135966511D01*
X141958671Y-135966400D01*
X141641329Y-135966400D01*
X141419203Y-135988180D01*
X141205537Y-136052689D01*
X141008470Y-136157471D01*
X140838990Y-136295696D01*
X140838990Y-135916012D01*
X141154077Y-135600925D01*
X141190817Y-135621123D01*
X141403561Y-135688610D01*
X141625362Y-135713489D01*
X141641329Y-135713600D01*
X141958671Y-135713600D01*
X142180797Y-135691820D01*
X142394463Y-135627311D01*
X142591530Y-135522529D01*
X142764491Y-135381465D01*
X142906758Y-135209493D01*
X143012914Y-135013163D01*
X143078913Y-134799953D01*
X143102243Y-134577984D01*
X143082015Y-134355711D01*
X143018998Y-134141600D01*
X142915595Y-133943807D01*
X142775742Y-133769865D01*
X142604767Y-133626400D01*
X142409183Y-133518877D01*
X142196439Y-133451390D01*
X141974638Y-133426511D01*
X141958671Y-133426400D01*
X141641329Y-133426400D01*
X141419203Y-133448180D01*
X141205537Y-133512689D01*
X141008470Y-133617471D01*
X140835509Y-133758535D01*
X140693242Y-133930507D01*
X140587086Y-134126837D01*
X140521087Y-134340047D01*
X140497757Y-134562016D01*
X140517985Y-134784289D01*
X140581002Y-134998400D01*
X140615606Y-135064592D01*
X140190289Y-135489909D01*
X140167992Y-135517055D01*
X140145447Y-135543923D01*
X140144485Y-135545673D01*
X140143216Y-135547218D01*
X140126619Y-135578170D01*
X140109719Y-135608912D01*
X140109115Y-135610815D01*
X140108170Y-135612578D01*
X140097898Y-135646176D01*
X140091170Y-135667387D01*
X140029404Y-135625725D01*
X139942627Y-135589247D01*
X139859607Y-135572206D01*
X139168701Y-134881299D01*
X139141555Y-134859002D01*
X139114687Y-134836457D01*
X139112937Y-134835495D01*
X139111392Y-134834226D01*
X139080440Y-134817629D01*
X139049698Y-134800729D01*
X139047795Y-134800125D01*
X139046032Y-134799180D01*
X139012434Y-134788908D01*
X138979006Y-134778304D01*
X138977021Y-134778081D01*
X138975110Y-134777497D01*
X138940171Y-134773948D01*
X138905306Y-134770037D01*
X138901404Y-134770010D01*
X138901327Y-134770002D01*
X138901256Y-134770009D01*
X138900000Y-134770000D01*
X135195044Y-134770000D01*
X135129404Y-134725725D01*
X135042627Y-134689247D01*
X134950416Y-134670319D01*
X134856286Y-134669662D01*
X134763820Y-134687301D01*
X134715592Y-134706787D01*
X134715592Y-132695038D01*
X134754969Y-132639217D01*
X134793257Y-132553222D01*
X134814112Y-132461428D01*
X134815613Y-132353911D01*
X134797329Y-132261570D01*
X134761458Y-132174540D01*
X134709366Y-132096135D01*
X134643036Y-132029341D01*
X134564996Y-131976702D01*
X134478219Y-131940224D01*
X134386008Y-131921296D01*
X134291878Y-131920639D01*
X134199412Y-131938278D01*
X134112134Y-131973541D01*
X134033367Y-132025084D01*
X133966111Y-132090946D01*
X133912929Y-132168616D01*
X133875846Y-132255137D01*
X133856275Y-132347213D01*
X133854961Y-132441337D01*
X133871953Y-132533923D01*
X133906606Y-132621446D01*
X133955592Y-132697457D01*
X133955592Y-133028593D01*
X133649989Y-132722989D01*
X133649989Y-132147539D01*
X133660973Y-132134167D01*
X133683528Y-132107288D01*
X133684491Y-132105537D01*
X133685763Y-132103988D01*
X133702347Y-132073057D01*
X133719257Y-132042300D01*
X133719863Y-132040389D01*
X133720808Y-132038627D01*
X133724969Y-132025017D01*
X134334631Y-131415354D01*
X134424704Y-131415354D01*
X134414876Y-131461591D01*
X134413562Y-131555715D01*
X134430554Y-131648301D01*
X134465207Y-131735824D01*
X134516200Y-131814949D01*
X134581590Y-131882662D01*
X134658887Y-131936385D01*
X134745147Y-131974071D01*
X134837084Y-131994285D01*
X134931196Y-131996256D01*
X135023899Y-131979910D01*
X135111662Y-131945870D01*
X135191141Y-131895431D01*
X135191221Y-131895355D01*
X138457953Y-131895355D01*
X138861299Y-132298701D01*
X138888445Y-132320998D01*
X138915313Y-132343543D01*
X138917063Y-132344505D01*
X138918608Y-132345774D01*
X138949560Y-132362371D01*
X138980302Y-132379271D01*
X138982205Y-132379875D01*
X138983968Y-132380820D01*
X139017566Y-132391092D01*
X139050994Y-132401696D01*
X139052979Y-132401919D01*
X139054890Y-132402503D01*
X139089825Y-132406052D01*
X139124694Y-132409963D01*
X139128597Y-132409990D01*
X139128674Y-132409998D01*
X139128745Y-132409991D01*
X139130000Y-132410000D01*
X140566757Y-132410000D01*
X140581002Y-132458400D01*
X140684405Y-132656193D01*
X140824258Y-132830135D01*
X140995233Y-132973600D01*
X141190817Y-133081123D01*
X141403561Y-133148610D01*
X141625362Y-133173489D01*
X141641329Y-133173600D01*
X141958671Y-133173600D01*
X142180797Y-133151820D01*
X142394463Y-133087311D01*
X142591530Y-132982529D01*
X142764491Y-132841465D01*
X142906758Y-132669493D01*
X143012914Y-132473163D01*
X143078913Y-132259953D01*
X143102243Y-132037984D01*
X143082015Y-131815711D01*
X143018998Y-131601600D01*
X142915595Y-131403807D01*
X142775742Y-131229865D01*
X142604767Y-131086400D01*
X142409183Y-130978877D01*
X142196439Y-130911390D01*
X141974638Y-130886511D01*
X141958671Y-130886400D01*
X141641329Y-130886400D01*
X141419203Y-130908180D01*
X141205537Y-130972689D01*
X141008470Y-131077471D01*
X140835509Y-131218535D01*
X140693242Y-131390507D01*
X140587086Y-131586837D01*
X140567534Y-131650000D01*
X140269532Y-131650000D01*
X140278520Y-131610441D01*
X140280021Y-131502924D01*
X140261737Y-131410583D01*
X140225866Y-131323553D01*
X140180000Y-131254519D01*
X140180000Y-129694818D01*
X140510084Y-129364734D01*
X140497757Y-129482016D01*
X140517985Y-129704289D01*
X140581002Y-129918400D01*
X140684405Y-130116193D01*
X140824258Y-130290135D01*
X140995233Y-130433600D01*
X141190817Y-130541123D01*
X141403561Y-130608610D01*
X141625362Y-130633489D01*
X141641329Y-130633600D01*
X141958671Y-130633600D01*
X142180797Y-130611820D01*
X142394463Y-130547311D01*
X142591530Y-130442529D01*
X142764491Y-130301465D01*
X142906758Y-130129493D01*
X143012914Y-129933163D01*
X143078913Y-129719953D01*
X143102243Y-129497984D01*
X143082015Y-129275711D01*
X143018998Y-129061600D01*
X142915595Y-128863807D01*
X142775742Y-128689865D01*
X142604767Y-128546400D01*
X142409183Y-128438877D01*
X142196439Y-128371390D01*
X141974638Y-128346511D01*
X141958671Y-128346400D01*
X141641329Y-128346400D01*
X141419203Y-128368180D01*
X141205537Y-128432689D01*
X141110010Y-128483481D01*
X141110011Y-127956699D01*
X141190817Y-128001123D01*
X141403561Y-128068610D01*
X141625362Y-128093489D01*
X141641329Y-128093600D01*
X141958671Y-128093600D01*
X142180797Y-128071820D01*
X142394463Y-128007311D01*
X142591530Y-127902529D01*
X142764491Y-127761465D01*
X142906758Y-127589493D01*
X143012914Y-127393163D01*
X143078913Y-127179953D01*
X143102243Y-126957984D01*
X143082015Y-126735711D01*
X143018998Y-126521600D01*
X142915595Y-126323807D01*
X142775742Y-126149865D01*
X142604767Y-126006400D01*
X142409183Y-125898877D01*
X142196439Y-125831390D01*
X141974638Y-125806511D01*
X141958671Y-125806400D01*
X141641329Y-125806400D01*
X141419203Y-125828180D01*
X141205537Y-125892689D01*
X141008470Y-125997471D01*
X140860011Y-126118552D01*
X140860011Y-125330011D01*
X140856583Y-125295050D01*
X140853526Y-125260109D01*
X140852969Y-125258192D01*
X140852774Y-125256202D01*
X140843822Y-125226551D01*
X140995233Y-125353600D01*
X141190817Y-125461123D01*
X141403561Y-125528610D01*
X141625362Y-125553489D01*
X141641329Y-125553600D01*
X141958671Y-125553600D01*
X142180797Y-125531820D01*
X142394463Y-125467311D01*
X142591530Y-125362529D01*
X142764491Y-125221465D01*
X142906758Y-125049493D01*
X143012914Y-124853163D01*
X143078913Y-124639953D01*
X143102243Y-124417984D01*
X143082015Y-124195711D01*
X143018998Y-123981600D01*
X142915595Y-123783807D01*
X142775742Y-123609865D01*
X142604767Y-123466400D01*
X142409183Y-123358877D01*
X142196439Y-123291390D01*
X141974638Y-123266511D01*
X141958671Y-123266400D01*
X141641329Y-123266400D01*
X141419203Y-123288180D01*
X141205537Y-123352689D01*
X141008470Y-123457471D01*
X140835509Y-123598535D01*
X140693242Y-123770507D01*
X140587086Y-123966837D01*
X140521087Y-124180047D01*
X140497757Y-124402016D01*
X140517985Y-124624289D01*
X140581002Y-124838400D01*
X140641474Y-124954073D01*
X140027474Y-124340073D01*
X140011737Y-124260593D01*
X139975866Y-124173563D01*
X139923774Y-124095158D01*
X139857444Y-124028364D01*
X139779404Y-123975725D01*
X139714113Y-123948279D01*
X140348791Y-123313600D01*
X140584000Y-123313600D01*
X140618965Y-123310172D01*
X140653902Y-123307115D01*
X140655819Y-123306558D01*
X140657809Y-123306363D01*
X140691447Y-123296207D01*
X140725119Y-123286424D01*
X140726891Y-123285505D01*
X140728807Y-123284927D01*
X140759852Y-123268420D01*
X140790963Y-123252294D01*
X140792522Y-123251050D01*
X140794289Y-123250110D01*
X140821510Y-123227909D01*
X140848923Y-123206026D01*
X140851707Y-123203281D01*
X140851761Y-123203237D01*
X140851802Y-123203187D01*
X140852701Y-123202301D01*
X141154077Y-122900925D01*
X141190817Y-122921123D01*
X141403561Y-122988610D01*
X141625362Y-123013489D01*
X141641329Y-123013600D01*
X141958671Y-123013600D01*
X142180797Y-122991820D01*
X142394463Y-122927311D01*
X142591530Y-122822529D01*
X142764491Y-122681465D01*
X142906758Y-122509493D01*
X143012914Y-122313163D01*
X143078913Y-122099953D01*
X143102243Y-121877984D01*
X143082015Y-121655711D01*
X143018998Y-121441600D01*
X142915595Y-121243807D01*
X142775742Y-121069865D01*
X142604767Y-120926400D01*
X142409183Y-120818877D01*
X142196439Y-120751390D01*
X141974638Y-120726511D01*
X141958671Y-120726400D01*
X141641329Y-120726400D01*
X141419203Y-120748180D01*
X141205537Y-120812689D01*
X141008470Y-120917471D01*
X140835509Y-121058535D01*
X140693242Y-121230507D01*
X140587086Y-121426837D01*
X140521087Y-121640047D01*
X140497757Y-121862016D01*
X140517985Y-122084289D01*
X140581002Y-122298400D01*
X140615606Y-122364592D01*
X140426598Y-122553600D01*
X140191390Y-122553600D01*
X140156429Y-122557028D01*
X140121488Y-122560085D01*
X140119571Y-122560642D01*
X140117581Y-122560837D01*
X140083956Y-122570989D01*
X140050270Y-122580776D01*
X140048497Y-122581695D01*
X140046583Y-122582273D01*
X140015557Y-122598770D01*
X139984427Y-122614906D01*
X139982868Y-122616150D01*
X139981101Y-122617090D01*
X139953880Y-122639291D01*
X139926467Y-122661174D01*
X139923687Y-122663916D01*
X139923629Y-122663963D01*
X139923584Y-122664017D01*
X139922689Y-122664900D01*
X138421905Y-124165683D01*
X138345936Y-124180175D01*
X138258658Y-124215438D01*
X138179891Y-124266981D01*
X138112635Y-124332843D01*
X138059453Y-124410513D01*
X138022370Y-124497034D01*
X138002799Y-124589110D01*
X138001485Y-124683234D01*
X138018477Y-124775820D01*
X138053130Y-124863343D01*
X138104123Y-124942468D01*
X138169513Y-125010181D01*
X138246810Y-125063904D01*
X138333070Y-125101590D01*
X138425007Y-125121804D01*
X138519119Y-125123775D01*
X138611822Y-125107429D01*
X138699585Y-125073389D01*
X138779064Y-125022950D01*
X138847232Y-124958034D01*
X138901493Y-124881114D01*
X138939781Y-124795119D01*
X138960636Y-124703325D01*
X138960658Y-124701734D01*
X139098581Y-124563811D01*
X139121014Y-124620469D01*
X139172007Y-124699594D01*
X139237397Y-124767307D01*
X139247528Y-124774349D01*
X139180519Y-124839969D01*
X139127337Y-124917639D01*
X139090254Y-125004160D01*
X139070683Y-125096236D01*
X139069369Y-125190360D01*
X139086361Y-125282946D01*
X139121014Y-125370469D01*
X139172007Y-125449594D01*
X139194677Y-125473069D01*
X139178123Y-125477878D01*
X139176346Y-125478799D01*
X139174435Y-125479376D01*
X139143465Y-125495843D01*
X139112279Y-125512008D01*
X139110716Y-125513255D01*
X139108953Y-125514193D01*
X139081766Y-125536367D01*
X139064686Y-125550001D01*
X137737256Y-125550001D01*
X137741695Y-125536007D01*
X137741918Y-125534021D01*
X137742502Y-125532110D01*
X137746050Y-125497181D01*
X137749962Y-125462307D01*
X137749989Y-125458404D01*
X137749997Y-125458327D01*
X137749990Y-125458256D01*
X137749999Y-125457001D01*
X137749999Y-123935269D01*
X140728099Y-120957168D01*
X140750391Y-120930030D01*
X140772942Y-120903154D01*
X140773903Y-120901406D01*
X140775173Y-120899860D01*
X140791762Y-120868921D01*
X140808670Y-120838165D01*
X140809275Y-120836258D01*
X140810218Y-120834499D01*
X140820476Y-120800947D01*
X140831095Y-120767473D01*
X140831318Y-120765488D01*
X140831902Y-120763577D01*
X140835451Y-120728636D01*
X140839362Y-120693773D01*
X140839389Y-120689871D01*
X140839397Y-120689794D01*
X140839390Y-120689723D01*
X140839399Y-120688467D01*
X140839399Y-120227665D01*
X140835971Y-120192700D01*
X140832914Y-120157763D01*
X140832357Y-120155846D01*
X140832162Y-120153856D01*
X140825252Y-120130969D01*
X140995233Y-120273600D01*
X141190817Y-120381123D01*
X141403561Y-120448610D01*
X141625362Y-120473489D01*
X141641329Y-120473600D01*
X141958671Y-120473600D01*
X142180797Y-120451820D01*
X142394463Y-120387311D01*
X142591530Y-120282529D01*
X142764491Y-120141465D01*
X142906758Y-119969493D01*
X143012914Y-119773163D01*
X143078913Y-119559953D01*
X143102243Y-119337984D01*
X143082015Y-119115711D01*
X143018998Y-118901600D01*
X142915595Y-118703807D01*
X142775742Y-118529865D01*
X142604767Y-118386400D01*
X142409183Y-118278877D01*
X142196439Y-118211390D01*
X141974638Y-118186511D01*
X141958671Y-118186400D01*
X141641329Y-118186400D01*
X141419203Y-118208180D01*
X141205537Y-118272689D01*
X141008470Y-118377471D01*
X140835509Y-118518535D01*
X140693242Y-118690507D01*
X140667024Y-118738996D01*
X140667024Y-117382946D01*
X140684405Y-117416193D01*
X140824258Y-117590135D01*
X140995233Y-117733600D01*
X141190817Y-117841123D01*
X141403561Y-117908610D01*
X141625362Y-117933489D01*
X141641329Y-117933600D01*
X141958671Y-117933600D01*
X142180797Y-117911820D01*
X142394463Y-117847311D01*
X142591530Y-117742529D01*
X142764491Y-117601465D01*
X142906758Y-117429493D01*
X143012914Y-117233163D01*
X143078913Y-117019953D01*
X143102243Y-116797984D01*
X143082015Y-116575711D01*
X143018998Y-116361600D01*
X142915595Y-116163807D01*
X142775742Y-115989865D01*
X142604767Y-115846400D01*
X142409183Y-115738877D01*
X142196439Y-115671390D01*
X141974638Y-115646511D01*
X141958671Y-115646400D01*
X141641329Y-115646400D01*
X141419203Y-115668180D01*
X141205537Y-115732689D01*
X141008470Y-115837471D01*
X140835509Y-115978535D01*
X140693242Y-116150507D01*
X140587086Y-116346837D01*
X140539137Y-116501735D01*
X140177474Y-116140072D01*
X140161737Y-116060593D01*
X140125866Y-115973563D01*
X140073774Y-115895158D01*
X140007444Y-115828364D01*
X139929404Y-115775725D01*
X139842627Y-115739247D01*
X139750416Y-115720319D01*
X139656286Y-115719662D01*
X139563820Y-115737301D01*
X139476542Y-115772564D01*
X139397775Y-115824107D01*
X139330519Y-115889969D01*
X139277337Y-115967639D01*
X139240254Y-116054160D01*
X139220683Y-116146236D01*
X139219369Y-116240360D01*
X139236361Y-116332946D01*
X139271014Y-116420469D01*
X139322007Y-116499594D01*
X139387397Y-116567307D01*
X139464694Y-116621030D01*
X139550954Y-116658716D01*
X139641144Y-116678546D01*
X139907024Y-116944426D01*
X139907024Y-117619623D01*
X138377474Y-116090072D01*
X138361737Y-116010593D01*
X138325866Y-115923563D01*
X138273774Y-115845158D01*
X138207444Y-115778364D01*
X138129404Y-115725725D01*
X138042627Y-115689247D01*
X137950416Y-115670319D01*
X137856286Y-115669662D01*
X137763820Y-115687301D01*
X137676542Y-115722564D01*
X137597775Y-115774107D01*
X137530519Y-115839969D01*
X137520010Y-115855317D01*
X137520010Y-114242016D01*
X140497757Y-114242016D01*
X140517985Y-114464289D01*
X140581002Y-114678400D01*
X140684405Y-114876193D01*
X140824258Y-115050135D01*
X140995233Y-115193600D01*
X141190817Y-115301123D01*
X141403561Y-115368610D01*
X141625362Y-115393489D01*
X141641329Y-115393600D01*
X141958671Y-115393600D01*
X142180797Y-115371820D01*
X142394463Y-115307311D01*
X142591530Y-115202529D01*
X142764491Y-115061465D01*
X142906758Y-114889493D01*
X143012914Y-114693163D01*
X143078913Y-114479953D01*
X143102243Y-114257984D01*
X143082015Y-114035711D01*
X143018998Y-113821600D01*
X142915595Y-113623807D01*
X142775742Y-113449865D01*
X142604767Y-113306400D01*
X142409183Y-113198877D01*
X142196439Y-113131390D01*
X141974638Y-113106511D01*
X141958671Y-113106400D01*
X141641329Y-113106400D01*
X141419203Y-113128180D01*
X141205537Y-113192689D01*
X141008470Y-113297471D01*
X140835509Y-113438535D01*
X140693242Y-113610507D01*
X140587086Y-113806837D01*
X140521087Y-114020047D01*
X140497757Y-114242016D01*
X137520010Y-114242016D01*
X137520010Y-109017392D01*
X139810674Y-106726727D01*
X139879706Y-106714555D01*
X139967469Y-106680515D01*
X140046948Y-106630076D01*
X140078990Y-106599563D01*
X140078990Y-110521390D01*
X140082418Y-110556355D01*
X140085475Y-110591292D01*
X140086032Y-110593209D01*
X140086227Y-110595199D01*
X140096383Y-110628837D01*
X140106166Y-110662509D01*
X140107085Y-110664281D01*
X140107663Y-110666197D01*
X140124170Y-110697242D01*
X140140296Y-110728353D01*
X140141540Y-110729912D01*
X140142480Y-110731679D01*
X140164681Y-110758900D01*
X140186564Y-110786313D01*
X140189309Y-110789097D01*
X140189353Y-110789151D01*
X140189403Y-110789192D01*
X140190289Y-110790091D01*
X140615144Y-111214945D01*
X140587086Y-111266837D01*
X140521087Y-111480047D01*
X140497757Y-111702016D01*
X140517985Y-111924289D01*
X140581002Y-112138400D01*
X140684405Y-112336193D01*
X140824258Y-112510135D01*
X140995233Y-112653600D01*
X141190817Y-112761123D01*
X141403561Y-112828610D01*
X141625362Y-112853489D01*
X141641329Y-112853600D01*
X141958671Y-112853600D01*
X142180797Y-112831820D01*
X142394463Y-112767311D01*
X142591530Y-112662529D01*
X142764491Y-112521465D01*
X142906758Y-112349493D01*
X143012914Y-112153163D01*
X143078913Y-111939953D01*
X143102243Y-111717984D01*
X143082015Y-111495711D01*
X143018998Y-111281600D01*
X142915595Y-111083807D01*
X142775742Y-110909865D01*
X142604767Y-110766400D01*
X142409183Y-110658877D01*
X142196439Y-110591390D01*
X141974638Y-110566511D01*
X141958671Y-110566400D01*
X141641329Y-110566400D01*
X141419203Y-110588180D01*
X141205537Y-110652689D01*
X141154714Y-110679712D01*
X140838990Y-110363988D01*
X140838990Y-109982497D01*
X140995233Y-110113600D01*
X141190817Y-110221123D01*
X141403561Y-110288610D01*
X141625362Y-110313489D01*
X141641329Y-110313600D01*
X141958671Y-110313600D01*
X142180797Y-110291820D01*
X142394463Y-110227311D01*
X142591530Y-110122529D01*
X142764491Y-109981465D01*
X142906758Y-109809493D01*
X143012914Y-109613163D01*
X143078913Y-109399953D01*
X143102243Y-109177984D01*
X143082015Y-108955711D01*
X143018998Y-108741600D01*
X142915595Y-108543807D01*
X142775742Y-108369865D01*
X142604767Y-108226400D01*
X142409183Y-108118877D01*
X142196439Y-108051390D01*
X141974638Y-108026511D01*
X141958671Y-108026400D01*
X141641329Y-108026400D01*
X141419203Y-108048180D01*
X141205537Y-108112689D01*
X141008470Y-108217471D01*
X140838990Y-108355696D01*
X140838990Y-107442497D01*
X140995233Y-107573600D01*
X141190817Y-107681123D01*
X141403561Y-107748610D01*
X141625362Y-107773489D01*
X141641329Y-107773600D01*
X141958671Y-107773600D01*
X142180797Y-107751820D01*
X142394463Y-107687311D01*
X142591530Y-107582529D01*
X142764491Y-107441465D01*
X142906758Y-107269493D01*
X143012914Y-107073163D01*
X143078913Y-106859953D01*
X143102243Y-106637984D01*
X143082015Y-106415711D01*
X143018998Y-106201600D01*
X142915595Y-106003807D01*
X142775742Y-105829865D01*
X142604767Y-105686400D01*
X142409183Y-105578877D01*
X142196439Y-105511390D01*
X141974638Y-105486511D01*
X141958671Y-105486400D01*
X141641329Y-105486400D01*
X141419203Y-105508180D01*
X141205537Y-105572689D01*
X141008470Y-105677471D01*
X140835509Y-105818535D01*
X140742506Y-105930957D01*
X140731416Y-105917065D01*
X140728671Y-105914281D01*
X140728627Y-105914227D01*
X140728577Y-105914186D01*
X140727691Y-105913287D01*
X140270702Y-105456298D01*
X140243556Y-105434001D01*
X140216688Y-105411456D01*
X140214938Y-105410494D01*
X140213393Y-105409225D01*
X140182441Y-105392628D01*
X140151699Y-105375728D01*
X140149796Y-105375124D01*
X140148033Y-105374179D01*
X140114435Y-105363907D01*
X140081007Y-105353303D01*
X140079022Y-105353080D01*
X140077111Y-105352496D01*
X140042172Y-105348947D01*
X140007307Y-105345036D01*
X140003405Y-105345009D01*
X140003328Y-105345001D01*
X140003257Y-105345008D01*
X140002001Y-105344999D01*
X139525001Y-105344999D01*
X139490081Y-105348423D01*
X139455099Y-105351484D01*
X139453182Y-105352041D01*
X139451192Y-105352236D01*
X139417554Y-105362392D01*
X139383882Y-105372175D01*
X139382110Y-105373094D01*
X139380194Y-105373672D01*
X139349189Y-105390158D01*
X139318038Y-105406304D01*
X139316476Y-105407551D01*
X139314712Y-105408489D01*
X139287494Y-105430687D01*
X139260079Y-105452573D01*
X139257300Y-105455313D01*
X139257240Y-105455362D01*
X139257194Y-105455417D01*
X139256301Y-105456298D01*
X137739789Y-106972809D01*
X137663820Y-106987301D01*
X137576542Y-107022564D01*
X137497775Y-107074107D01*
X137430519Y-107139969D01*
X137377337Y-107217639D01*
X137340254Y-107304160D01*
X137320683Y-107396236D01*
X137319369Y-107490360D01*
X137336361Y-107582946D01*
X137371014Y-107670469D01*
X137422007Y-107749594D01*
X137487397Y-107817307D01*
X137564694Y-107871030D01*
X137583397Y-107879201D01*
X137070000Y-108392598D01*
X137070000Y-106296631D01*
X137135421Y-106255113D01*
X137237674Y-106157739D01*
X137319066Y-106042359D01*
X137376497Y-105913367D01*
X137407779Y-105775677D01*
X137410031Y-105614400D01*
X137382605Y-105475890D01*
X137328798Y-105345345D01*
X137250660Y-105227737D01*
X137151166Y-105127546D01*
X137034735Y-105049011D01*
X137135421Y-104985113D01*
X137237674Y-104887739D01*
X137319066Y-104772359D01*
X137376497Y-104643367D01*
X137407779Y-104505677D01*
X137410031Y-104344400D01*
X137397036Y-104278768D01*
X140519687Y-104278768D01*
X140524024Y-104303298D01*
X140587225Y-104518398D01*
X140691176Y-104717035D01*
X140831882Y-104891576D01*
X141003936Y-105035313D01*
X141200725Y-105142722D01*
X141414687Y-105209675D01*
X141637600Y-105233600D01*
X141790000Y-105233600D01*
X141790000Y-104100000D01*
X141810000Y-104100000D01*
X141810000Y-105233600D01*
X141962400Y-105233600D01*
X142185313Y-105209675D01*
X142399275Y-105142722D01*
X142596064Y-105035313D01*
X142768118Y-104891576D01*
X142908824Y-104717035D01*
X143012775Y-104518398D01*
X143075976Y-104303298D01*
X143080313Y-104278768D01*
X143025953Y-104100000D01*
X141810000Y-104100000D01*
X141790000Y-104100000D01*
X140574047Y-104100000D01*
X140519687Y-104278768D01*
X137397036Y-104278768D01*
X137382605Y-104205890D01*
X137328798Y-104075345D01*
X137250660Y-103957737D01*
X137194549Y-103901232D01*
X140519687Y-103901232D01*
X140574047Y-104080000D01*
X141790000Y-104080000D01*
X141790000Y-102946400D01*
X141810000Y-102946400D01*
X141810000Y-104080000D01*
X143025953Y-104080000D01*
X143080313Y-103901232D01*
X143075976Y-103876702D01*
X143012775Y-103661602D01*
X142908824Y-103462965D01*
X142768118Y-103288424D01*
X142596064Y-103144687D01*
X142399275Y-103037278D01*
X142185313Y-102970325D01*
X141962400Y-102946400D01*
X141810000Y-102946400D01*
X141790000Y-102946400D01*
X141637600Y-102946400D01*
X141414687Y-102970325D01*
X141200725Y-103037278D01*
X141003936Y-103144687D01*
X140831882Y-103288424D01*
X140691176Y-103462965D01*
X140587225Y-103661602D01*
X140524024Y-103876702D01*
X140519687Y-103901232D01*
X137194549Y-103901232D01*
X137151166Y-103857546D01*
X137034107Y-103778588D01*
X136903940Y-103723871D01*
X136765625Y-103695479D01*
X136624429Y-103694494D01*
X136485730Y-103720952D01*
X136354813Y-103773846D01*
X136236662Y-103851161D01*
X136135779Y-103949953D01*
X136091690Y-104014343D01*
X136082997Y-103996988D01*
X136059913Y-103962437D01*
X135931736Y-103917406D01*
X135434142Y-104415000D01*
X135931736Y-104912594D01*
X136059913Y-104867563D01*
X136090461Y-104813884D01*
X136123010Y-104864390D01*
X136221096Y-104965961D01*
X136337041Y-105046545D01*
X136345225Y-105050120D01*
X136236662Y-105121161D01*
X136135779Y-105219953D01*
X136056006Y-105336459D01*
X136054786Y-105339306D01*
X135980660Y-105227737D01*
X135881166Y-105127546D01*
X135820621Y-105086708D01*
X135838012Y-105077997D01*
X135872563Y-105054913D01*
X135917594Y-104926736D01*
X135420000Y-104429142D01*
X134922406Y-104926736D01*
X134967437Y-105054913D01*
X135021170Y-105085492D01*
X134966662Y-105121161D01*
X134865779Y-105219953D01*
X134786006Y-105336459D01*
X134784786Y-105339306D01*
X134710660Y-105227737D01*
X134611166Y-105127546D01*
X134550621Y-105086708D01*
X134568012Y-105077997D01*
X134602563Y-105054913D01*
X134647594Y-104926736D01*
X134150000Y-104429142D01*
X133652406Y-104926736D01*
X133697437Y-105054913D01*
X133751170Y-105085492D01*
X133696662Y-105121161D01*
X133595779Y-105219953D01*
X133516006Y-105336459D01*
X133514786Y-105339306D01*
X133440660Y-105227737D01*
X133341166Y-105127546D01*
X133224735Y-105049011D01*
X133325421Y-104985113D01*
X133427674Y-104887739D01*
X133478398Y-104815833D01*
X133487003Y-104833012D01*
X133510087Y-104867563D01*
X133638264Y-104912594D01*
X134135858Y-104415000D01*
X134121716Y-104400858D01*
X134135858Y-104386716D01*
X134150000Y-104400858D01*
X134164143Y-104386716D01*
X134178285Y-104400858D01*
X134164142Y-104415000D01*
X134661736Y-104912594D01*
X134785000Y-104869289D01*
X134908264Y-104912594D01*
X135405858Y-104415000D01*
X135391716Y-104400858D01*
X135405858Y-104386716D01*
X135420000Y-104400858D01*
X135917594Y-103903264D01*
X135872563Y-103775087D01*
X135739027Y-103699093D01*
X135593231Y-103650610D01*
X135440777Y-103631502D01*
X135287525Y-103642504D01*
X135287212Y-103642590D01*
X136194945Y-102734856D01*
X136246837Y-102762914D01*
X136460047Y-102828913D01*
X136682016Y-102852243D01*
X136904289Y-102832015D01*
X137118400Y-102768998D01*
X137316193Y-102665595D01*
X137490135Y-102525742D01*
X137633600Y-102354767D01*
X137741123Y-102159183D01*
X137808610Y-101946439D01*
X137833489Y-101724638D01*
X137833600Y-101708671D01*
X137833600Y-101542111D01*
X140513835Y-101542111D01*
X140533822Y-101761741D01*
X140596089Y-101973305D01*
X140698263Y-102168746D01*
X140836453Y-102340620D01*
X141005394Y-102482378D01*
X141198653Y-102588623D01*
X141408867Y-102655307D01*
X141628030Y-102679890D01*
X141643807Y-102680000D01*
X141956193Y-102680000D01*
X142175678Y-102658479D01*
X142386803Y-102594737D01*
X142581525Y-102491201D01*
X142752430Y-102351815D01*
X142893005Y-102181888D01*
X142997898Y-101987893D01*
X143063113Y-101777218D01*
X143086165Y-101557889D01*
X143066178Y-101338259D01*
X143003911Y-101126695D01*
X142901737Y-100931254D01*
X142763547Y-100759380D01*
X142594606Y-100617622D01*
X142401347Y-100511377D01*
X142191133Y-100444693D01*
X141971970Y-100420110D01*
X141956193Y-100420000D01*
X141643807Y-100420000D01*
X141424322Y-100441521D01*
X141213197Y-100505263D01*
X141018475Y-100608799D01*
X140847570Y-100748185D01*
X140706995Y-100918112D01*
X140602102Y-101112107D01*
X140536887Y-101322782D01*
X140513835Y-101542111D01*
X137833600Y-101542111D01*
X137833600Y-101391329D01*
X137811820Y-101169203D01*
X137747311Y-100955537D01*
X137642529Y-100758470D01*
X137501465Y-100585509D01*
X137329493Y-100443242D01*
X137133163Y-100337086D01*
X136919953Y-100271087D01*
X136697984Y-100247757D01*
X136475711Y-100267985D01*
X136261600Y-100331002D01*
X136063807Y-100434405D01*
X135889865Y-100574258D01*
X135746400Y-100745233D01*
X135638877Y-100940817D01*
X135571390Y-101153561D01*
X135546511Y-101375362D01*
X135546400Y-101391329D01*
X135546400Y-101708671D01*
X135568180Y-101930797D01*
X135632689Y-102144463D01*
X135659712Y-102195286D01*
X134694999Y-103159999D01*
X133229803Y-103159999D01*
X133654945Y-102734856D01*
X133706837Y-102762914D01*
X133920047Y-102828913D01*
X134142016Y-102852243D01*
X134364289Y-102832015D01*
X134578400Y-102768998D01*
X134776193Y-102665595D01*
X134950135Y-102525742D01*
X135093600Y-102354767D01*
X135201123Y-102159183D01*
X135268610Y-101946439D01*
X135293489Y-101724638D01*
X135293600Y-101708671D01*
X135293600Y-101391329D01*
X135271820Y-101169203D01*
X135207311Y-100955537D01*
X135102529Y-100758470D01*
X134961465Y-100585509D01*
X134789493Y-100443242D01*
X134593163Y-100337086D01*
X134379953Y-100271087D01*
X134157984Y-100247757D01*
X133935711Y-100267985D01*
X133721600Y-100331002D01*
X133523807Y-100434405D01*
X133349865Y-100574258D01*
X133206400Y-100745233D01*
X133098877Y-100940817D01*
X133031390Y-101153561D01*
X133006511Y-101375362D01*
X133006400Y-101391329D01*
X133006400Y-101708671D01*
X133028180Y-101930797D01*
X133092689Y-102144463D01*
X133119712Y-102195286D01*
X132605009Y-102709989D01*
X132151275Y-102709989D01*
X132236193Y-102665595D01*
X132410135Y-102525742D01*
X132553600Y-102354767D01*
X132661123Y-102159183D01*
X132728610Y-101946439D01*
X132753489Y-101724638D01*
X132753600Y-101708671D01*
X132753600Y-101391329D01*
X132731820Y-101169203D01*
X132667311Y-100955537D01*
X132562529Y-100758470D01*
X132421465Y-100585509D01*
X132249493Y-100443242D01*
X132053163Y-100337086D01*
X131839953Y-100271087D01*
X131617984Y-100247757D01*
X131395711Y-100267985D01*
X131181600Y-100331002D01*
X131115408Y-100365606D01*
X130924802Y-100175000D01*
X143125000Y-100175000D01*
X143125000Y-145425000D01*
X143125000Y-145425000D01*
G37*
X143125000Y-145425000D02*
X138700000Y-145425000D01*
X138700000Y-141137401D01*
X139031299Y-141468700D01*
X139058437Y-141490992D01*
X139085313Y-141513543D01*
X139087061Y-141514504D01*
X139088607Y-141515774D01*
X139119581Y-141532382D01*
X139150302Y-141549271D01*
X139152205Y-141549875D01*
X139153968Y-141550820D01*
X139187566Y-141561092D01*
X139220994Y-141571696D01*
X139222979Y-141571919D01*
X139224890Y-141572503D01*
X139259829Y-141576052D01*
X139294694Y-141579963D01*
X139298596Y-141579990D01*
X139298673Y-141579998D01*
X139298744Y-141579991D01*
X139300000Y-141580000D01*
X139968646Y-141580000D01*
X139968646Y-141700000D01*
X139975473Y-141761603D01*
X140003504Y-141835645D01*
X140051053Y-141898947D01*
X140481998Y-142329892D01*
X140519185Y-142386325D01*
X140579440Y-142437680D01*
X140651617Y-142470215D01*
X140730000Y-142481354D01*
X141030000Y-142481354D01*
X141074589Y-142477798D01*
X141150216Y-142454378D01*
X141200305Y-142421371D01*
X141219440Y-142437680D01*
X141291617Y-142470215D01*
X141370000Y-142481354D01*
X141670000Y-142481354D01*
X141714589Y-142477798D01*
X141790216Y-142454378D01*
X141856325Y-142410815D01*
X141907680Y-142350560D01*
X141916171Y-142331723D01*
X142348947Y-141898947D01*
X142387680Y-141850560D01*
X142420215Y-141778383D01*
X142431354Y-141700000D01*
X142431354Y-140700000D01*
X142424527Y-140638397D01*
X142396496Y-140564355D01*
X142348947Y-140501053D01*
X141918002Y-140070108D01*
X141900000Y-140042789D01*
X141900000Y-139765709D01*
X141919377Y-139738240D01*
X141957665Y-139652245D01*
X141978520Y-139560451D01*
X141980021Y-139452934D01*
X141961737Y-139360593D01*
X141925866Y-139273563D01*
X141873774Y-139195158D01*
X141807444Y-139128364D01*
X141729404Y-139075725D01*
X141642627Y-139039247D01*
X141550416Y-139020319D01*
X141491096Y-139019905D01*
X142068701Y-138442300D01*
X142090978Y-138415179D01*
X142113543Y-138388287D01*
X142114505Y-138386536D01*
X142115774Y-138384992D01*
X142132371Y-138354040D01*
X142149271Y-138323298D01*
X142149875Y-138321395D01*
X142150820Y-138319632D01*
X142161088Y-138286047D01*
X142171696Y-138252606D01*
X142171919Y-138250620D01*
X142172503Y-138248709D01*
X142174152Y-138232472D01*
X142180797Y-138231820D01*
X142394463Y-138167311D01*
X142591530Y-138062529D01*
X142764491Y-137921465D01*
X142906758Y-137749493D01*
X143012914Y-137553163D01*
X143078913Y-137339953D01*
X143102243Y-137117984D01*
X143082015Y-136895711D01*
X143018998Y-136681600D01*
X142915595Y-136483807D01*
X142775742Y-136309865D01*
X142604767Y-136166400D01*
X142409183Y-136058877D01*
X142196439Y-135991390D01*
X141974638Y-135966511D01*
X141958671Y-135966400D01*
X141641329Y-135966400D01*
X141419203Y-135988180D01*
X141205537Y-136052689D01*
X141008470Y-136157471D01*
X140838990Y-136295696D01*
X140838990Y-135916012D01*
X141154077Y-135600925D01*
X141190817Y-135621123D01*
X141403561Y-135688610D01*
X141625362Y-135713489D01*
X141641329Y-135713600D01*
X141958671Y-135713600D01*
X142180797Y-135691820D01*
X142394463Y-135627311D01*
X142591530Y-135522529D01*
X142764491Y-135381465D01*
X142906758Y-135209493D01*
X143012914Y-135013163D01*
X143078913Y-134799953D01*
X143102243Y-134577984D01*
X143082015Y-134355711D01*
X143018998Y-134141600D01*
X142915595Y-133943807D01*
X142775742Y-133769865D01*
X142604767Y-133626400D01*
X142409183Y-133518877D01*
X142196439Y-133451390D01*
X141974638Y-133426511D01*
X141958671Y-133426400D01*
X141641329Y-133426400D01*
X141419203Y-133448180D01*
X141205537Y-133512689D01*
X141008470Y-133617471D01*
X140835509Y-133758535D01*
X140693242Y-133930507D01*
X140587086Y-134126837D01*
X140521087Y-134340047D01*
X140497757Y-134562016D01*
X140517985Y-134784289D01*
X140581002Y-134998400D01*
X140615606Y-135064592D01*
X140190289Y-135489909D01*
X140167992Y-135517055D01*
X140145447Y-135543923D01*
X140144485Y-135545673D01*
X140143216Y-135547218D01*
X140126619Y-135578170D01*
X140109719Y-135608912D01*
X140109115Y-135610815D01*
X140108170Y-135612578D01*
X140097898Y-135646176D01*
X140091170Y-135667387D01*
X140029404Y-135625725D01*
X139942627Y-135589247D01*
X139859607Y-135572206D01*
X139168701Y-134881299D01*
X139141555Y-134859002D01*
X139114687Y-134836457D01*
X139112937Y-134835495D01*
X139111392Y-134834226D01*
X139080440Y-134817629D01*
X139049698Y-134800729D01*
X139047795Y-134800125D01*
X139046032Y-134799180D01*
X139012434Y-134788908D01*
X138979006Y-134778304D01*
X138977021Y-134778081D01*
X138975110Y-134777497D01*
X138940171Y-134773948D01*
X138905306Y-134770037D01*
X138901404Y-134770010D01*
X138901327Y-134770002D01*
X138901256Y-134770009D01*
X138900000Y-134770000D01*
X135195044Y-134770000D01*
X135129404Y-134725725D01*
X135042627Y-134689247D01*
X134950416Y-134670319D01*
X134856286Y-134669662D01*
X134763820Y-134687301D01*
X134715592Y-134706787D01*
X134715592Y-132695038D01*
X134754969Y-132639217D01*
X134793257Y-132553222D01*
X134814112Y-132461428D01*
X134815613Y-132353911D01*
X134797329Y-132261570D01*
X134761458Y-132174540D01*
X134709366Y-132096135D01*
X134643036Y-132029341D01*
X134564996Y-131976702D01*
X134478219Y-131940224D01*
X134386008Y-131921296D01*
X134291878Y-131920639D01*
X134199412Y-131938278D01*
X134112134Y-131973541D01*
X134033367Y-132025084D01*
X133966111Y-132090946D01*
X133912929Y-132168616D01*
X133875846Y-132255137D01*
X133856275Y-132347213D01*
X133854961Y-132441337D01*
X133871953Y-132533923D01*
X133906606Y-132621446D01*
X133955592Y-132697457D01*
X133955592Y-133028593D01*
X133649989Y-132722989D01*
X133649989Y-132147539D01*
X133660973Y-132134167D01*
X133683528Y-132107288D01*
X133684491Y-132105537D01*
X133685763Y-132103988D01*
X133702347Y-132073057D01*
X133719257Y-132042300D01*
X133719863Y-132040389D01*
X133720808Y-132038627D01*
X133724969Y-132025017D01*
X134334631Y-131415354D01*
X134424704Y-131415354D01*
X134414876Y-131461591D01*
X134413562Y-131555715D01*
X134430554Y-131648301D01*
X134465207Y-131735824D01*
X134516200Y-131814949D01*
X134581590Y-131882662D01*
X134658887Y-131936385D01*
X134745147Y-131974071D01*
X134837084Y-131994285D01*
X134931196Y-131996256D01*
X135023899Y-131979910D01*
X135111662Y-131945870D01*
X135191141Y-131895431D01*
X135191221Y-131895355D01*
X138457953Y-131895355D01*
X138861299Y-132298701D01*
X138888445Y-132320998D01*
X138915313Y-132343543D01*
X138917063Y-132344505D01*
X138918608Y-132345774D01*
X138949560Y-132362371D01*
X138980302Y-132379271D01*
X138982205Y-132379875D01*
X138983968Y-132380820D01*
X139017566Y-132391092D01*
X139050994Y-132401696D01*
X139052979Y-132401919D01*
X139054890Y-132402503D01*
X139089825Y-132406052D01*
X139124694Y-132409963D01*
X139128597Y-132409990D01*
X139128674Y-132409998D01*
X139128745Y-132409991D01*
X139130000Y-132410000D01*
X140566757Y-132410000D01*
X140581002Y-132458400D01*
X140684405Y-132656193D01*
X140824258Y-132830135D01*
X140995233Y-132973600D01*
X141190817Y-133081123D01*
X141403561Y-133148610D01*
X141625362Y-133173489D01*
X141641329Y-133173600D01*
X141958671Y-133173600D01*
X142180797Y-133151820D01*
X142394463Y-133087311D01*
X142591530Y-132982529D01*
X142764491Y-132841465D01*
X142906758Y-132669493D01*
X143012914Y-132473163D01*
X143078913Y-132259953D01*
X143102243Y-132037984D01*
X143082015Y-131815711D01*
X143018998Y-131601600D01*
X142915595Y-131403807D01*
X142775742Y-131229865D01*
X142604767Y-131086400D01*
X142409183Y-130978877D01*
X142196439Y-130911390D01*
X141974638Y-130886511D01*
X141958671Y-130886400D01*
X141641329Y-130886400D01*
X141419203Y-130908180D01*
X141205537Y-130972689D01*
X141008470Y-131077471D01*
X140835509Y-131218535D01*
X140693242Y-131390507D01*
X140587086Y-131586837D01*
X140567534Y-131650000D01*
X140269532Y-131650000D01*
X140278520Y-131610441D01*
X140280021Y-131502924D01*
X140261737Y-131410583D01*
X140225866Y-131323553D01*
X140180000Y-131254519D01*
X140180000Y-129694818D01*
X140510084Y-129364734D01*
X140497757Y-129482016D01*
X140517985Y-129704289D01*
X140581002Y-129918400D01*
X140684405Y-130116193D01*
X140824258Y-130290135D01*
X140995233Y-130433600D01*
X141190817Y-130541123D01*
X141403561Y-130608610D01*
X141625362Y-130633489D01*
X141641329Y-130633600D01*
X141958671Y-130633600D01*
X142180797Y-130611820D01*
X142394463Y-130547311D01*
X142591530Y-130442529D01*
X142764491Y-130301465D01*
X142906758Y-130129493D01*
X143012914Y-129933163D01*
X143078913Y-129719953D01*
X143102243Y-129497984D01*
X143082015Y-129275711D01*
X143018998Y-129061600D01*
X142915595Y-128863807D01*
X142775742Y-128689865D01*
X142604767Y-128546400D01*
X142409183Y-128438877D01*
X142196439Y-128371390D01*
X141974638Y-128346511D01*
X141958671Y-128346400D01*
X141641329Y-128346400D01*
X141419203Y-128368180D01*
X141205537Y-128432689D01*
X141110010Y-128483481D01*
X141110011Y-127956699D01*
X141190817Y-128001123D01*
X141403561Y-128068610D01*
X141625362Y-128093489D01*
X141641329Y-128093600D01*
X141958671Y-128093600D01*
X142180797Y-128071820D01*
X142394463Y-128007311D01*
X142591530Y-127902529D01*
X142764491Y-127761465D01*
X142906758Y-127589493D01*
X143012914Y-127393163D01*
X143078913Y-127179953D01*
X143102243Y-126957984D01*
X143082015Y-126735711D01*
X143018998Y-126521600D01*
X142915595Y-126323807D01*
X142775742Y-126149865D01*
X142604767Y-126006400D01*
X142409183Y-125898877D01*
X142196439Y-125831390D01*
X141974638Y-125806511D01*
X141958671Y-125806400D01*
X141641329Y-125806400D01*
X141419203Y-125828180D01*
X141205537Y-125892689D01*
X141008470Y-125997471D01*
X140860011Y-126118552D01*
X140860011Y-125330011D01*
X140856583Y-125295050D01*
X140853526Y-125260109D01*
X140852969Y-125258192D01*
X140852774Y-125256202D01*
X140843822Y-125226551D01*
X140995233Y-125353600D01*
X141190817Y-125461123D01*
X141403561Y-125528610D01*
X141625362Y-125553489D01*
X141641329Y-125553600D01*
X141958671Y-125553600D01*
X142180797Y-125531820D01*
X142394463Y-125467311D01*
X142591530Y-125362529D01*
X142764491Y-125221465D01*
X142906758Y-125049493D01*
X143012914Y-124853163D01*
X143078913Y-124639953D01*
X143102243Y-124417984D01*
X143082015Y-124195711D01*
X143018998Y-123981600D01*
X142915595Y-123783807D01*
X142775742Y-123609865D01*
X142604767Y-123466400D01*
X142409183Y-123358877D01*
X142196439Y-123291390D01*
X141974638Y-123266511D01*
X141958671Y-123266400D01*
X141641329Y-123266400D01*
X141419203Y-123288180D01*
X141205537Y-123352689D01*
X141008470Y-123457471D01*
X140835509Y-123598535D01*
X140693242Y-123770507D01*
X140587086Y-123966837D01*
X140521087Y-124180047D01*
X140497757Y-124402016D01*
X140517985Y-124624289D01*
X140581002Y-124838400D01*
X140641474Y-124954073D01*
X140027474Y-124340073D01*
X140011737Y-124260593D01*
X139975866Y-124173563D01*
X139923774Y-124095158D01*
X139857444Y-124028364D01*
X139779404Y-123975725D01*
X139714113Y-123948279D01*
X140348791Y-123313600D01*
X140584000Y-123313600D01*
X140618965Y-123310172D01*
X140653902Y-123307115D01*
X140655819Y-123306558D01*
X140657809Y-123306363D01*
X140691447Y-123296207D01*
X140725119Y-123286424D01*
X140726891Y-123285505D01*
X140728807Y-123284927D01*
X140759852Y-123268420D01*
X140790963Y-123252294D01*
X140792522Y-123251050D01*
X140794289Y-123250110D01*
X140821510Y-123227909D01*
X140848923Y-123206026D01*
X140851707Y-123203281D01*
X140851761Y-123203237D01*
X140851802Y-123203187D01*
X140852701Y-123202301D01*
X141154077Y-122900925D01*
X141190817Y-122921123D01*
X141403561Y-122988610D01*
X141625362Y-123013489D01*
X141641329Y-123013600D01*
X141958671Y-123013600D01*
X142180797Y-122991820D01*
X142394463Y-122927311D01*
X142591530Y-122822529D01*
X142764491Y-122681465D01*
X142906758Y-122509493D01*
X143012914Y-122313163D01*
X143078913Y-122099953D01*
X143102243Y-121877984D01*
X143082015Y-121655711D01*
X143018998Y-121441600D01*
X142915595Y-121243807D01*
X142775742Y-121069865D01*
X142604767Y-120926400D01*
X142409183Y-120818877D01*
X142196439Y-120751390D01*
X141974638Y-120726511D01*
X141958671Y-120726400D01*
X141641329Y-120726400D01*
X141419203Y-120748180D01*
X141205537Y-120812689D01*
X141008470Y-120917471D01*
X140835509Y-121058535D01*
X140693242Y-121230507D01*
X140587086Y-121426837D01*
X140521087Y-121640047D01*
X140497757Y-121862016D01*
X140517985Y-122084289D01*
X140581002Y-122298400D01*
X140615606Y-122364592D01*
X140426598Y-122553600D01*
X140191390Y-122553600D01*
X140156429Y-122557028D01*
X140121488Y-122560085D01*
X140119571Y-122560642D01*
X140117581Y-122560837D01*
X140083956Y-122570989D01*
X140050270Y-122580776D01*
X140048497Y-122581695D01*
X140046583Y-122582273D01*
X140015557Y-122598770D01*
X139984427Y-122614906D01*
X139982868Y-122616150D01*
X139981101Y-122617090D01*
X139953880Y-122639291D01*
X139926467Y-122661174D01*
X139923687Y-122663916D01*
X139923629Y-122663963D01*
X139923584Y-122664017D01*
X139922689Y-122664900D01*
X138421905Y-124165683D01*
X138345936Y-124180175D01*
X138258658Y-124215438D01*
X138179891Y-124266981D01*
X138112635Y-124332843D01*
X138059453Y-124410513D01*
X138022370Y-124497034D01*
X138002799Y-124589110D01*
X138001485Y-124683234D01*
X138018477Y-124775820D01*
X138053130Y-124863343D01*
X138104123Y-124942468D01*
X138169513Y-125010181D01*
X138246810Y-125063904D01*
X138333070Y-125101590D01*
X138425007Y-125121804D01*
X138519119Y-125123775D01*
X138611822Y-125107429D01*
X138699585Y-125073389D01*
X138779064Y-125022950D01*
X138847232Y-124958034D01*
X138901493Y-124881114D01*
X138939781Y-124795119D01*
X138960636Y-124703325D01*
X138960658Y-124701734D01*
X139098581Y-124563811D01*
X139121014Y-124620469D01*
X139172007Y-124699594D01*
X139237397Y-124767307D01*
X139247528Y-124774349D01*
X139180519Y-124839969D01*
X139127337Y-124917639D01*
X139090254Y-125004160D01*
X139070683Y-125096236D01*
X139069369Y-125190360D01*
X139086361Y-125282946D01*
X139121014Y-125370469D01*
X139172007Y-125449594D01*
X139194677Y-125473069D01*
X139178123Y-125477878D01*
X139176346Y-125478799D01*
X139174435Y-125479376D01*
X139143465Y-125495843D01*
X139112279Y-125512008D01*
X139110716Y-125513255D01*
X139108953Y-125514193D01*
X139081766Y-125536367D01*
X139064686Y-125550001D01*
X137737256Y-125550001D01*
X137741695Y-125536007D01*
X137741918Y-125534021D01*
X137742502Y-125532110D01*
X137746050Y-125497181D01*
X137749962Y-125462307D01*
X137749989Y-125458404D01*
X137749997Y-125458327D01*
X137749990Y-125458256D01*
X137749999Y-125457001D01*
X137749999Y-123935269D01*
X140728099Y-120957168D01*
X140750391Y-120930030D01*
X140772942Y-120903154D01*
X140773903Y-120901406D01*
X140775173Y-120899860D01*
X140791762Y-120868921D01*
X140808670Y-120838165D01*
X140809275Y-120836258D01*
X140810218Y-120834499D01*
X140820476Y-120800947D01*
X140831095Y-120767473D01*
X140831318Y-120765488D01*
X140831902Y-120763577D01*
X140835451Y-120728636D01*
X140839362Y-120693773D01*
X140839389Y-120689871D01*
X140839397Y-120689794D01*
X140839390Y-120689723D01*
X140839399Y-120688467D01*
X140839399Y-120227665D01*
X140835971Y-120192700D01*
X140832914Y-120157763D01*
X140832357Y-120155846D01*
X140832162Y-120153856D01*
X140825252Y-120130969D01*
X140995233Y-120273600D01*
X141190817Y-120381123D01*
X141403561Y-120448610D01*
X141625362Y-120473489D01*
X141641329Y-120473600D01*
X141958671Y-120473600D01*
X142180797Y-120451820D01*
X142394463Y-120387311D01*
X142591530Y-120282529D01*
X142764491Y-120141465D01*
X142906758Y-119969493D01*
X143012914Y-119773163D01*
X143078913Y-119559953D01*
X143102243Y-119337984D01*
X143082015Y-119115711D01*
X143018998Y-118901600D01*
X142915595Y-118703807D01*
X142775742Y-118529865D01*
X142604767Y-118386400D01*
X142409183Y-118278877D01*
X142196439Y-118211390D01*
X141974638Y-118186511D01*
X141958671Y-118186400D01*
X141641329Y-118186400D01*
X141419203Y-118208180D01*
X141205537Y-118272689D01*
X141008470Y-118377471D01*
X140835509Y-118518535D01*
X140693242Y-118690507D01*
X140667024Y-118738996D01*
X140667024Y-117382946D01*
X140684405Y-117416193D01*
X140824258Y-117590135D01*
X140995233Y-117733600D01*
X141190817Y-117841123D01*
X141403561Y-117908610D01*
X141625362Y-117933489D01*
X141641329Y-117933600D01*
X141958671Y-117933600D01*
X142180797Y-117911820D01*
X142394463Y-117847311D01*
X142591530Y-117742529D01*
X142764491Y-117601465D01*
X142906758Y-117429493D01*
X143012914Y-117233163D01*
X143078913Y-117019953D01*
X143102243Y-116797984D01*
X143082015Y-116575711D01*
X143018998Y-116361600D01*
X142915595Y-116163807D01*
X142775742Y-115989865D01*
X142604767Y-115846400D01*
X142409183Y-115738877D01*
X142196439Y-115671390D01*
X141974638Y-115646511D01*
X141958671Y-115646400D01*
X141641329Y-115646400D01*
X141419203Y-115668180D01*
X141205537Y-115732689D01*
X141008470Y-115837471D01*
X140835509Y-115978535D01*
X140693242Y-116150507D01*
X140587086Y-116346837D01*
X140539137Y-116501735D01*
X140177474Y-116140072D01*
X140161737Y-116060593D01*
X140125866Y-115973563D01*
X140073774Y-115895158D01*
X140007444Y-115828364D01*
X139929404Y-115775725D01*
X139842627Y-115739247D01*
X139750416Y-115720319D01*
X139656286Y-115719662D01*
X139563820Y-115737301D01*
X139476542Y-115772564D01*
X139397775Y-115824107D01*
X139330519Y-115889969D01*
X139277337Y-115967639D01*
X139240254Y-116054160D01*
X139220683Y-116146236D01*
X139219369Y-116240360D01*
X139236361Y-116332946D01*
X139271014Y-116420469D01*
X139322007Y-116499594D01*
X139387397Y-116567307D01*
X139464694Y-116621030D01*
X139550954Y-116658716D01*
X139641144Y-116678546D01*
X139907024Y-116944426D01*
X139907024Y-117619623D01*
X138377474Y-116090072D01*
X138361737Y-116010593D01*
X138325866Y-115923563D01*
X138273774Y-115845158D01*
X138207444Y-115778364D01*
X138129404Y-115725725D01*
X138042627Y-115689247D01*
X137950416Y-115670319D01*
X137856286Y-115669662D01*
X137763820Y-115687301D01*
X137676542Y-115722564D01*
X137597775Y-115774107D01*
X137530519Y-115839969D01*
X137520010Y-115855317D01*
X137520010Y-114242016D01*
X140497757Y-114242016D01*
X140517985Y-114464289D01*
X140581002Y-114678400D01*
X140684405Y-114876193D01*
X140824258Y-115050135D01*
X140995233Y-115193600D01*
X141190817Y-115301123D01*
X141403561Y-115368610D01*
X141625362Y-115393489D01*
X141641329Y-115393600D01*
X141958671Y-115393600D01*
X142180797Y-115371820D01*
X142394463Y-115307311D01*
X142591530Y-115202529D01*
X142764491Y-115061465D01*
X142906758Y-114889493D01*
X143012914Y-114693163D01*
X143078913Y-114479953D01*
X143102243Y-114257984D01*
X143082015Y-114035711D01*
X143018998Y-113821600D01*
X142915595Y-113623807D01*
X142775742Y-113449865D01*
X142604767Y-113306400D01*
X142409183Y-113198877D01*
X142196439Y-113131390D01*
X141974638Y-113106511D01*
X141958671Y-113106400D01*
X141641329Y-113106400D01*
X141419203Y-113128180D01*
X141205537Y-113192689D01*
X141008470Y-113297471D01*
X140835509Y-113438535D01*
X140693242Y-113610507D01*
X140587086Y-113806837D01*
X140521087Y-114020047D01*
X140497757Y-114242016D01*
X137520010Y-114242016D01*
X137520010Y-109017392D01*
X139810674Y-106726727D01*
X139879706Y-106714555D01*
X139967469Y-106680515D01*
X140046948Y-106630076D01*
X140078990Y-106599563D01*
X140078990Y-110521390D01*
X140082418Y-110556355D01*
X140085475Y-110591292D01*
X140086032Y-110593209D01*
X140086227Y-110595199D01*
X140096383Y-110628837D01*
X140106166Y-110662509D01*
X140107085Y-110664281D01*
X140107663Y-110666197D01*
X140124170Y-110697242D01*
X140140296Y-110728353D01*
X140141540Y-110729912D01*
X140142480Y-110731679D01*
X140164681Y-110758900D01*
X140186564Y-110786313D01*
X140189309Y-110789097D01*
X140189353Y-110789151D01*
X140189403Y-110789192D01*
X140190289Y-110790091D01*
X140615144Y-111214945D01*
X140587086Y-111266837D01*
X140521087Y-111480047D01*
X140497757Y-111702016D01*
X140517985Y-111924289D01*
X140581002Y-112138400D01*
X140684405Y-112336193D01*
X140824258Y-112510135D01*
X140995233Y-112653600D01*
X141190817Y-112761123D01*
X141403561Y-112828610D01*
X141625362Y-112853489D01*
X141641329Y-112853600D01*
X141958671Y-112853600D01*
X142180797Y-112831820D01*
X142394463Y-112767311D01*
X142591530Y-112662529D01*
X142764491Y-112521465D01*
X142906758Y-112349493D01*
X143012914Y-112153163D01*
X143078913Y-111939953D01*
X143102243Y-111717984D01*
X143082015Y-111495711D01*
X143018998Y-111281600D01*
X142915595Y-111083807D01*
X142775742Y-110909865D01*
X142604767Y-110766400D01*
X142409183Y-110658877D01*
X142196439Y-110591390D01*
X141974638Y-110566511D01*
X141958671Y-110566400D01*
X141641329Y-110566400D01*
X141419203Y-110588180D01*
X141205537Y-110652689D01*
X141154714Y-110679712D01*
X140838990Y-110363988D01*
X140838990Y-109982497D01*
X140995233Y-110113600D01*
X141190817Y-110221123D01*
X141403561Y-110288610D01*
X141625362Y-110313489D01*
X141641329Y-110313600D01*
X141958671Y-110313600D01*
X142180797Y-110291820D01*
X142394463Y-110227311D01*
X142591530Y-110122529D01*
X142764491Y-109981465D01*
X142906758Y-109809493D01*
X143012914Y-109613163D01*
X143078913Y-109399953D01*
X143102243Y-109177984D01*
X143082015Y-108955711D01*
X143018998Y-108741600D01*
X142915595Y-108543807D01*
X142775742Y-108369865D01*
X142604767Y-108226400D01*
X142409183Y-108118877D01*
X142196439Y-108051390D01*
X141974638Y-108026511D01*
X141958671Y-108026400D01*
X141641329Y-108026400D01*
X141419203Y-108048180D01*
X141205537Y-108112689D01*
X141008470Y-108217471D01*
X140838990Y-108355696D01*
X140838990Y-107442497D01*
X140995233Y-107573600D01*
X141190817Y-107681123D01*
X141403561Y-107748610D01*
X141625362Y-107773489D01*
X141641329Y-107773600D01*
X141958671Y-107773600D01*
X142180797Y-107751820D01*
X142394463Y-107687311D01*
X142591530Y-107582529D01*
X142764491Y-107441465D01*
X142906758Y-107269493D01*
X143012914Y-107073163D01*
X143078913Y-106859953D01*
X143102243Y-106637984D01*
X143082015Y-106415711D01*
X143018998Y-106201600D01*
X142915595Y-106003807D01*
X142775742Y-105829865D01*
X142604767Y-105686400D01*
X142409183Y-105578877D01*
X142196439Y-105511390D01*
X141974638Y-105486511D01*
X141958671Y-105486400D01*
X141641329Y-105486400D01*
X141419203Y-105508180D01*
X141205537Y-105572689D01*
X141008470Y-105677471D01*
X140835509Y-105818535D01*
X140742506Y-105930957D01*
X140731416Y-105917065D01*
X140728671Y-105914281D01*
X140728627Y-105914227D01*
X140728577Y-105914186D01*
X140727691Y-105913287D01*
X140270702Y-105456298D01*
X140243556Y-105434001D01*
X140216688Y-105411456D01*
X140214938Y-105410494D01*
X140213393Y-105409225D01*
X140182441Y-105392628D01*
X140151699Y-105375728D01*
X140149796Y-105375124D01*
X140148033Y-105374179D01*
X140114435Y-105363907D01*
X140081007Y-105353303D01*
X140079022Y-105353080D01*
X140077111Y-105352496D01*
X140042172Y-105348947D01*
X140007307Y-105345036D01*
X140003405Y-105345009D01*
X140003328Y-105345001D01*
X140003257Y-105345008D01*
X140002001Y-105344999D01*
X139525001Y-105344999D01*
X139490081Y-105348423D01*
X139455099Y-105351484D01*
X139453182Y-105352041D01*
X139451192Y-105352236D01*
X139417554Y-105362392D01*
X139383882Y-105372175D01*
X139382110Y-105373094D01*
X139380194Y-105373672D01*
X139349189Y-105390158D01*
X139318038Y-105406304D01*
X139316476Y-105407551D01*
X139314712Y-105408489D01*
X139287494Y-105430687D01*
X139260079Y-105452573D01*
X139257300Y-105455313D01*
X139257240Y-105455362D01*
X139257194Y-105455417D01*
X139256301Y-105456298D01*
X137739789Y-106972809D01*
X137663820Y-106987301D01*
X137576542Y-107022564D01*
X137497775Y-107074107D01*
X137430519Y-107139969D01*
X137377337Y-107217639D01*
X137340254Y-107304160D01*
X137320683Y-107396236D01*
X137319369Y-107490360D01*
X137336361Y-107582946D01*
X137371014Y-107670469D01*
X137422007Y-107749594D01*
X137487397Y-107817307D01*
X137564694Y-107871030D01*
X137583397Y-107879201D01*
X137070000Y-108392598D01*
X137070000Y-106296631D01*
X137135421Y-106255113D01*
X137237674Y-106157739D01*
X137319066Y-106042359D01*
X137376497Y-105913367D01*
X137407779Y-105775677D01*
X137410031Y-105614400D01*
X137382605Y-105475890D01*
X137328798Y-105345345D01*
X137250660Y-105227737D01*
X137151166Y-105127546D01*
X137034735Y-105049011D01*
X137135421Y-104985113D01*
X137237674Y-104887739D01*
X137319066Y-104772359D01*
X137376497Y-104643367D01*
X137407779Y-104505677D01*
X137410031Y-104344400D01*
X137397036Y-104278768D01*
X140519687Y-104278768D01*
X140524024Y-104303298D01*
X140587225Y-104518398D01*
X140691176Y-104717035D01*
X140831882Y-104891576D01*
X141003936Y-105035313D01*
X141200725Y-105142722D01*
X141414687Y-105209675D01*
X141637600Y-105233600D01*
X141790000Y-105233600D01*
X141790000Y-104100000D01*
X141810000Y-104100000D01*
X141810000Y-105233600D01*
X141962400Y-105233600D01*
X142185313Y-105209675D01*
X142399275Y-105142722D01*
X142596064Y-105035313D01*
X142768118Y-104891576D01*
X142908824Y-104717035D01*
X143012775Y-104518398D01*
X143075976Y-104303298D01*
X143080313Y-104278768D01*
X143025953Y-104100000D01*
X141810000Y-104100000D01*
X141790000Y-104100000D01*
X140574047Y-104100000D01*
X140519687Y-104278768D01*
X137397036Y-104278768D01*
X137382605Y-104205890D01*
X137328798Y-104075345D01*
X137250660Y-103957737D01*
X137194549Y-103901232D01*
X140519687Y-103901232D01*
X140574047Y-104080000D01*
X141790000Y-104080000D01*
X141790000Y-102946400D01*
X141810000Y-102946400D01*
X141810000Y-104080000D01*
X143025953Y-104080000D01*
X143080313Y-103901232D01*
X143075976Y-103876702D01*
X143012775Y-103661602D01*
X142908824Y-103462965D01*
X142768118Y-103288424D01*
X142596064Y-103144687D01*
X142399275Y-103037278D01*
X142185313Y-102970325D01*
X141962400Y-102946400D01*
X141810000Y-102946400D01*
X141790000Y-102946400D01*
X141637600Y-102946400D01*
X141414687Y-102970325D01*
X141200725Y-103037278D01*
X141003936Y-103144687D01*
X140831882Y-103288424D01*
X140691176Y-103462965D01*
X140587225Y-103661602D01*
X140524024Y-103876702D01*
X140519687Y-103901232D01*
X137194549Y-103901232D01*
X137151166Y-103857546D01*
X137034107Y-103778588D01*
X136903940Y-103723871D01*
X136765625Y-103695479D01*
X136624429Y-103694494D01*
X136485730Y-103720952D01*
X136354813Y-103773846D01*
X136236662Y-103851161D01*
X136135779Y-103949953D01*
X136091690Y-104014343D01*
X136082997Y-103996988D01*
X136059913Y-103962437D01*
X135931736Y-103917406D01*
X135434142Y-104415000D01*
X135931736Y-104912594D01*
X136059913Y-104867563D01*
X136090461Y-104813884D01*
X136123010Y-104864390D01*
X136221096Y-104965961D01*
X136337041Y-105046545D01*
X136345225Y-105050120D01*
X136236662Y-105121161D01*
X136135779Y-105219953D01*
X136056006Y-105336459D01*
X136054786Y-105339306D01*
X135980660Y-105227737D01*
X135881166Y-105127546D01*
X135820621Y-105086708D01*
X135838012Y-105077997D01*
X135872563Y-105054913D01*
X135917594Y-104926736D01*
X135420000Y-104429142D01*
X134922406Y-104926736D01*
X134967437Y-105054913D01*
X135021170Y-105085492D01*
X134966662Y-105121161D01*
X134865779Y-105219953D01*
X134786006Y-105336459D01*
X134784786Y-105339306D01*
X134710660Y-105227737D01*
X134611166Y-105127546D01*
X134550621Y-105086708D01*
X134568012Y-105077997D01*
X134602563Y-105054913D01*
X134647594Y-104926736D01*
X134150000Y-104429142D01*
X133652406Y-104926736D01*
X133697437Y-105054913D01*
X133751170Y-105085492D01*
X133696662Y-105121161D01*
X133595779Y-105219953D01*
X133516006Y-105336459D01*
X133514786Y-105339306D01*
X133440660Y-105227737D01*
X133341166Y-105127546D01*
X133224735Y-105049011D01*
X133325421Y-104985113D01*
X133427674Y-104887739D01*
X133478398Y-104815833D01*
X133487003Y-104833012D01*
X133510087Y-104867563D01*
X133638264Y-104912594D01*
X134135858Y-104415000D01*
X134121716Y-104400858D01*
X134135858Y-104386716D01*
X134150000Y-104400858D01*
X134164143Y-104386716D01*
X134178285Y-104400858D01*
X134164142Y-104415000D01*
X134661736Y-104912594D01*
X134785000Y-104869289D01*
X134908264Y-104912594D01*
X135405858Y-104415000D01*
X135391716Y-104400858D01*
X135405858Y-104386716D01*
X135420000Y-104400858D01*
X135917594Y-103903264D01*
X135872563Y-103775087D01*
X135739027Y-103699093D01*
X135593231Y-103650610D01*
X135440777Y-103631502D01*
X135287525Y-103642504D01*
X135287212Y-103642590D01*
X136194945Y-102734856D01*
X136246837Y-102762914D01*
X136460047Y-102828913D01*
X136682016Y-102852243D01*
X136904289Y-102832015D01*
X137118400Y-102768998D01*
X137316193Y-102665595D01*
X137490135Y-102525742D01*
X137633600Y-102354767D01*
X137741123Y-102159183D01*
X137808610Y-101946439D01*
X137833489Y-101724638D01*
X137833600Y-101708671D01*
X137833600Y-101542111D01*
X140513835Y-101542111D01*
X140533822Y-101761741D01*
X140596089Y-101973305D01*
X140698263Y-102168746D01*
X140836453Y-102340620D01*
X141005394Y-102482378D01*
X141198653Y-102588623D01*
X141408867Y-102655307D01*
X141628030Y-102679890D01*
X141643807Y-102680000D01*
X141956193Y-102680000D01*
X142175678Y-102658479D01*
X142386803Y-102594737D01*
X142581525Y-102491201D01*
X142752430Y-102351815D01*
X142893005Y-102181888D01*
X142997898Y-101987893D01*
X143063113Y-101777218D01*
X143086165Y-101557889D01*
X143066178Y-101338259D01*
X143003911Y-101126695D01*
X142901737Y-100931254D01*
X142763547Y-100759380D01*
X142594606Y-100617622D01*
X142401347Y-100511377D01*
X142191133Y-100444693D01*
X141971970Y-100420110D01*
X141956193Y-100420000D01*
X141643807Y-100420000D01*
X141424322Y-100441521D01*
X141213197Y-100505263D01*
X141018475Y-100608799D01*
X140847570Y-100748185D01*
X140706995Y-100918112D01*
X140602102Y-101112107D01*
X140536887Y-101322782D01*
X140513835Y-101542111D01*
X137833600Y-101542111D01*
X137833600Y-101391329D01*
X137811820Y-101169203D01*
X137747311Y-100955537D01*
X137642529Y-100758470D01*
X137501465Y-100585509D01*
X137329493Y-100443242D01*
X137133163Y-100337086D01*
X136919953Y-100271087D01*
X136697984Y-100247757D01*
X136475711Y-100267985D01*
X136261600Y-100331002D01*
X136063807Y-100434405D01*
X135889865Y-100574258D01*
X135746400Y-100745233D01*
X135638877Y-100940817D01*
X135571390Y-101153561D01*
X135546511Y-101375362D01*
X135546400Y-101391329D01*
X135546400Y-101708671D01*
X135568180Y-101930797D01*
X135632689Y-102144463D01*
X135659712Y-102195286D01*
X134694999Y-103159999D01*
X133229803Y-103159999D01*
X133654945Y-102734856D01*
X133706837Y-102762914D01*
X133920047Y-102828913D01*
X134142016Y-102852243D01*
X134364289Y-102832015D01*
X134578400Y-102768998D01*
X134776193Y-102665595D01*
X134950135Y-102525742D01*
X135093600Y-102354767D01*
X135201123Y-102159183D01*
X135268610Y-101946439D01*
X135293489Y-101724638D01*
X135293600Y-101708671D01*
X135293600Y-101391329D01*
X135271820Y-101169203D01*
X135207311Y-100955537D01*
X135102529Y-100758470D01*
X134961465Y-100585509D01*
X134789493Y-100443242D01*
X134593163Y-100337086D01*
X134379953Y-100271087D01*
X134157984Y-100247757D01*
X133935711Y-100267985D01*
X133721600Y-100331002D01*
X133523807Y-100434405D01*
X133349865Y-100574258D01*
X133206400Y-100745233D01*
X133098877Y-100940817D01*
X133031390Y-101153561D01*
X133006511Y-101375362D01*
X133006400Y-101391329D01*
X133006400Y-101708671D01*
X133028180Y-101930797D01*
X133092689Y-102144463D01*
X133119712Y-102195286D01*
X132605009Y-102709989D01*
X132151275Y-102709989D01*
X132236193Y-102665595D01*
X132410135Y-102525742D01*
X132553600Y-102354767D01*
X132661123Y-102159183D01*
X132728610Y-101946439D01*
X132753489Y-101724638D01*
X132753600Y-101708671D01*
X132753600Y-101391329D01*
X132731820Y-101169203D01*
X132667311Y-100955537D01*
X132562529Y-100758470D01*
X132421465Y-100585509D01*
X132249493Y-100443242D01*
X132053163Y-100337086D01*
X131839953Y-100271087D01*
X131617984Y-100247757D01*
X131395711Y-100267985D01*
X131181600Y-100331002D01*
X131115408Y-100365606D01*
X130924802Y-100175000D01*
X143125000Y-100175000D01*
X143125000Y-145425000D01*
G36*
X127829552Y-101485226D02*
X127816178Y-101338259D01*
X127753911Y-101126695D01*
X127651737Y-100931254D01*
X127513547Y-100759380D01*
X127344606Y-100617622D01*
X127151347Y-100511377D01*
X126941133Y-100444693D01*
X126721970Y-100420110D01*
X126706193Y-100420000D01*
X126393807Y-100420000D01*
X126174322Y-100441521D01*
X125963197Y-100505263D01*
X125768475Y-100608799D01*
X125597570Y-100748185D01*
X125456995Y-100918112D01*
X125352102Y-101112107D01*
X125286887Y-101322782D01*
X125263835Y-101542111D01*
X125283822Y-101761741D01*
X125346089Y-101973305D01*
X125448263Y-102168746D01*
X125586453Y-102340620D01*
X125755394Y-102482378D01*
X125948653Y-102588623D01*
X126158867Y-102655307D01*
X126378030Y-102679890D01*
X126393807Y-102680000D01*
X126706193Y-102680000D01*
X126925678Y-102658479D01*
X127136803Y-102594737D01*
X127331525Y-102491201D01*
X127466010Y-102381518D01*
X127466010Y-103239744D01*
X127354767Y-103146400D01*
X127159183Y-103038877D01*
X126946439Y-102971390D01*
X126724638Y-102946511D01*
X126708671Y-102946400D01*
X126391329Y-102946400D01*
X126169203Y-102968180D01*
X125955537Y-103032689D01*
X125758470Y-103137471D01*
X125585509Y-103278535D01*
X125443242Y-103450507D01*
X125337086Y-103646837D01*
X125271087Y-103860047D01*
X125247757Y-104082016D01*
X125267985Y-104304289D01*
X125331002Y-104518400D01*
X125434405Y-104716193D01*
X125574258Y-104890135D01*
X125745233Y-105033600D01*
X125940817Y-105141123D01*
X126153561Y-105208610D01*
X126375362Y-105233489D01*
X126391329Y-105233600D01*
X126708671Y-105233600D01*
X126930797Y-105211820D01*
X127144463Y-105147311D01*
X127341530Y-105042529D01*
X127466010Y-104941005D01*
X127466010Y-105779744D01*
X127354767Y-105686400D01*
X127159183Y-105578877D01*
X126946439Y-105511390D01*
X126724638Y-105486511D01*
X126708671Y-105486400D01*
X126391329Y-105486400D01*
X126169203Y-105508180D01*
X125955537Y-105572689D01*
X125758470Y-105677471D01*
X125585509Y-105818535D01*
X125443242Y-105990507D01*
X125337086Y-106186837D01*
X125271087Y-106400047D01*
X125247757Y-106622016D01*
X125267985Y-106844289D01*
X125331002Y-107058400D01*
X125434405Y-107256193D01*
X125574258Y-107430135D01*
X125745233Y-107573600D01*
X125940817Y-107681123D01*
X126153561Y-107748610D01*
X126375362Y-107773489D01*
X126391329Y-107773600D01*
X126708671Y-107773600D01*
X126930797Y-107751820D01*
X127144463Y-107687311D01*
X127341530Y-107582529D01*
X127466010Y-107481005D01*
X127466010Y-108319744D01*
X127354767Y-108226400D01*
X127159183Y-108118877D01*
X126946439Y-108051390D01*
X126724638Y-108026511D01*
X126708671Y-108026400D01*
X126391329Y-108026400D01*
X126169203Y-108048180D01*
X125955537Y-108112689D01*
X125758470Y-108217471D01*
X125585509Y-108358535D01*
X125443242Y-108530507D01*
X125337086Y-108726837D01*
X125271087Y-108940047D01*
X125247757Y-109162016D01*
X125267985Y-109384289D01*
X125331002Y-109598400D01*
X125434405Y-109796193D01*
X125574258Y-109970135D01*
X125745233Y-110113600D01*
X125940817Y-110221123D01*
X126153561Y-110288610D01*
X126375362Y-110313489D01*
X126391329Y-110313600D01*
X126510960Y-110313600D01*
X126768828Y-110571468D01*
X126724638Y-110566511D01*
X126708671Y-110566400D01*
X126391329Y-110566400D01*
X126169203Y-110588180D01*
X125955537Y-110652689D01*
X125758470Y-110757471D01*
X125585509Y-110898535D01*
X125443242Y-111070507D01*
X125337086Y-111266837D01*
X125271087Y-111480047D01*
X125247757Y-111702016D01*
X125267985Y-111924289D01*
X125331002Y-112138400D01*
X125434405Y-112336193D01*
X125574258Y-112510135D01*
X125745233Y-112653600D01*
X125940817Y-112761123D01*
X126153561Y-112828610D01*
X126375362Y-112853489D01*
X126391329Y-112853600D01*
X126708671Y-112853600D01*
X126930797Y-112831820D01*
X127144463Y-112767311D01*
X127341530Y-112662529D01*
X127514491Y-112521465D01*
X127556045Y-112471235D01*
X127556045Y-113495471D01*
X127518118Y-113448424D01*
X127346064Y-113304687D01*
X127149275Y-113197278D01*
X126935313Y-113130325D01*
X126712400Y-113106400D01*
X126560000Y-113106400D01*
X126560000Y-114240000D01*
X126580000Y-114240000D01*
X126580000Y-114260000D01*
X126560000Y-114260000D01*
X126560000Y-115393600D01*
X126712400Y-115393600D01*
X126935313Y-115369675D01*
X127149275Y-115302722D01*
X127346064Y-115195313D01*
X127518118Y-115051576D01*
X127556045Y-115004529D01*
X127556045Y-116027554D01*
X127525742Y-115989865D01*
X127354767Y-115846400D01*
X127159183Y-115738877D01*
X126946439Y-115671390D01*
X126724638Y-115646511D01*
X126708671Y-115646400D01*
X126391329Y-115646400D01*
X126169203Y-115668180D01*
X125955537Y-115732689D01*
X125758470Y-115837471D01*
X125585509Y-115978535D01*
X125443242Y-116150507D01*
X125337086Y-116346837D01*
X125271087Y-116560047D01*
X125247757Y-116782016D01*
X125267985Y-117004289D01*
X125331002Y-117218400D01*
X125434405Y-117416193D01*
X125574258Y-117590135D01*
X125745233Y-117733600D01*
X125940817Y-117841123D01*
X126153561Y-117908610D01*
X126375362Y-117933489D01*
X126391329Y-117933600D01*
X126708671Y-117933600D01*
X126930797Y-117911820D01*
X127144463Y-117847311D01*
X127341530Y-117742529D01*
X127514491Y-117601465D01*
X127556045Y-117551235D01*
X127556045Y-118567554D01*
X127525742Y-118529865D01*
X127354767Y-118386400D01*
X127159183Y-118278877D01*
X126946439Y-118211390D01*
X126724638Y-118186511D01*
X126708671Y-118186400D01*
X126391329Y-118186400D01*
X126169203Y-118208180D01*
X125955537Y-118272689D01*
X125758470Y-118377471D01*
X125585509Y-118518535D01*
X125443242Y-118690507D01*
X125337086Y-118886837D01*
X125271087Y-119100047D01*
X125247757Y-119322016D01*
X125267985Y-119544289D01*
X125331002Y-119758400D01*
X125434405Y-119956193D01*
X125574258Y-120130135D01*
X125745233Y-120273600D01*
X125940817Y-120381123D01*
X126153561Y-120448610D01*
X126375362Y-120473489D01*
X126391329Y-120473600D01*
X126708671Y-120473600D01*
X126930797Y-120451820D01*
X127144463Y-120387311D01*
X127341530Y-120282529D01*
X127514491Y-120141465D01*
X127556045Y-120091235D01*
X127556045Y-121107554D01*
X127525742Y-121069865D01*
X127354767Y-120926400D01*
X127159183Y-120818877D01*
X126946439Y-120751390D01*
X126724638Y-120726511D01*
X126708671Y-120726400D01*
X126391329Y-120726400D01*
X126169203Y-120748180D01*
X125955537Y-120812689D01*
X125758470Y-120917471D01*
X125585509Y-121058535D01*
X125443242Y-121230507D01*
X125337086Y-121426837D01*
X125271087Y-121640047D01*
X125247757Y-121862016D01*
X125267985Y-122084289D01*
X125331002Y-122298400D01*
X125434405Y-122496193D01*
X125574258Y-122670135D01*
X125745233Y-122813600D01*
X125940817Y-122921123D01*
X126153561Y-122988610D01*
X126375362Y-123013489D01*
X126391329Y-123013600D01*
X126708671Y-123013600D01*
X126930797Y-122991820D01*
X127144463Y-122927311D01*
X127341530Y-122822529D01*
X127514491Y-122681465D01*
X127556045Y-122631235D01*
X127556045Y-123647554D01*
X127525742Y-123609865D01*
X127354767Y-123466400D01*
X127159183Y-123358877D01*
X126946439Y-123291390D01*
X126724638Y-123266511D01*
X126708671Y-123266400D01*
X126391329Y-123266400D01*
X126169203Y-123288180D01*
X125955537Y-123352689D01*
X125758470Y-123457471D01*
X125585509Y-123598535D01*
X125443242Y-123770507D01*
X125337086Y-123966837D01*
X125271087Y-124180047D01*
X125247757Y-124402016D01*
X125267985Y-124624289D01*
X125331002Y-124838400D01*
X125434405Y-125036193D01*
X125574258Y-125210135D01*
X125745233Y-125353600D01*
X125940817Y-125461123D01*
X126153561Y-125528610D01*
X126375362Y-125553489D01*
X126391329Y-125553600D01*
X126708671Y-125553600D01*
X126930797Y-125531820D01*
X127144463Y-125467311D01*
X127341530Y-125362529D01*
X127514491Y-125221465D01*
X127556045Y-125171235D01*
X127556045Y-126187554D01*
X127525742Y-126149865D01*
X127354767Y-126006400D01*
X127159183Y-125898877D01*
X126946439Y-125831390D01*
X126724638Y-125806511D01*
X126708671Y-125806400D01*
X126391329Y-125806400D01*
X126169203Y-125828180D01*
X125955537Y-125892689D01*
X125758470Y-125997471D01*
X125585509Y-126138535D01*
X125443242Y-126310507D01*
X125337086Y-126506837D01*
X125271087Y-126720047D01*
X125247757Y-126942016D01*
X125267985Y-127164289D01*
X125331002Y-127378400D01*
X125434405Y-127576193D01*
X125574258Y-127750135D01*
X125745233Y-127893600D01*
X125940817Y-128001123D01*
X126153561Y-128068610D01*
X126375362Y-128093489D01*
X126391329Y-128093600D01*
X126708671Y-128093600D01*
X126930797Y-128071820D01*
X127144463Y-128007311D01*
X127341530Y-127902529D01*
X127514491Y-127761465D01*
X127556045Y-127711235D01*
X127556045Y-128236045D01*
X127559473Y-128271010D01*
X127562530Y-128305947D01*
X127563087Y-128307864D01*
X127563282Y-128309854D01*
X127573438Y-128343492D01*
X127583221Y-128377164D01*
X127584140Y-128378936D01*
X127584718Y-128380852D01*
X127601225Y-128411897D01*
X127617351Y-128443008D01*
X127618595Y-128444567D01*
X127619535Y-128446334D01*
X127641736Y-128473555D01*
X127663619Y-128500968D01*
X127666364Y-128503752D01*
X127666408Y-128503806D01*
X127666458Y-128503847D01*
X127667344Y-128504746D01*
X127846021Y-128683423D01*
X127846021Y-129429614D01*
X127832015Y-129275711D01*
X127768998Y-129061600D01*
X127665595Y-128863807D01*
X127525742Y-128689865D01*
X127354767Y-128546400D01*
X127159183Y-128438877D01*
X126946439Y-128371390D01*
X126724638Y-128346511D01*
X126708671Y-128346400D01*
X126391329Y-128346400D01*
X126169203Y-128368180D01*
X125955537Y-128432689D01*
X125758470Y-128537471D01*
X125585509Y-128678535D01*
X125443242Y-128850507D01*
X125337086Y-129046837D01*
X125271087Y-129260047D01*
X125247757Y-129482016D01*
X125267985Y-129704289D01*
X125331002Y-129918400D01*
X125434405Y-130116193D01*
X125574258Y-130290135D01*
X125745233Y-130433600D01*
X125940817Y-130541123D01*
X126153561Y-130608610D01*
X126375362Y-130633489D01*
X126391329Y-130633600D01*
X126708671Y-130633600D01*
X126930797Y-130611820D01*
X127144463Y-130547311D01*
X127269792Y-130480673D01*
X127282372Y-130549218D01*
X127317025Y-130636741D01*
X127367588Y-130715199D01*
X127369439Y-130734079D01*
X127372496Y-130769016D01*
X127373053Y-130770933D01*
X127373248Y-130772923D01*
X127383404Y-130806561D01*
X127393187Y-130840233D01*
X127394106Y-130842005D01*
X127394684Y-130843921D01*
X127411191Y-130874966D01*
X127427317Y-130906077D01*
X127428561Y-130907636D01*
X127429501Y-130909403D01*
X127451702Y-130936624D01*
X127466010Y-130954548D01*
X127466010Y-131179744D01*
X127354767Y-131086400D01*
X127159183Y-130978877D01*
X126946439Y-130911390D01*
X126724638Y-130886511D01*
X126708671Y-130886400D01*
X126391329Y-130886400D01*
X126169203Y-130908180D01*
X125955537Y-130972689D01*
X125758470Y-131077471D01*
X125585509Y-131218535D01*
X125443242Y-131390507D01*
X125337086Y-131586837D01*
X125271087Y-131800047D01*
X125247757Y-132022016D01*
X125267985Y-132244289D01*
X125331002Y-132458400D01*
X125434405Y-132656193D01*
X125574258Y-132830135D01*
X125745233Y-132973600D01*
X125940817Y-133081123D01*
X126153561Y-133148610D01*
X126375362Y-133173489D01*
X126391329Y-133173600D01*
X126708671Y-133173600D01*
X126930797Y-133151820D01*
X127144463Y-133087311D01*
X127341530Y-132982529D01*
X127466010Y-132881005D01*
X127466010Y-133268989D01*
X127195923Y-133539075D01*
X127159183Y-133518877D01*
X126946439Y-133451390D01*
X126724638Y-133426511D01*
X126708671Y-133426400D01*
X126391329Y-133426400D01*
X126169203Y-133448180D01*
X125955537Y-133512689D01*
X125758470Y-133617471D01*
X125585509Y-133758535D01*
X125443242Y-133930507D01*
X125337086Y-134126837D01*
X125271087Y-134340047D01*
X125247757Y-134562016D01*
X125267985Y-134784289D01*
X125331002Y-134998400D01*
X125434405Y-135196193D01*
X125574258Y-135370135D01*
X125745233Y-135513600D01*
X125940817Y-135621123D01*
X126153561Y-135688610D01*
X126375362Y-135713489D01*
X126391329Y-135713600D01*
X126708671Y-135713600D01*
X126930797Y-135691820D01*
X127144463Y-135627311D01*
X127341530Y-135522529D01*
X127514491Y-135381465D01*
X127656758Y-135209493D01*
X127762914Y-135013163D01*
X127828913Y-134799953D01*
X127852243Y-134577984D01*
X127832015Y-134355711D01*
X127768998Y-134141600D01*
X127734394Y-134075408D01*
X128061200Y-133748601D01*
X128173058Y-133860459D01*
X128186361Y-133932946D01*
X128221014Y-134020469D01*
X128272007Y-134099594D01*
X128337397Y-134167307D01*
X128414694Y-134221030D01*
X128500954Y-134258716D01*
X128592891Y-134278930D01*
X128687003Y-134280901D01*
X128750001Y-134269793D01*
X128750001Y-134524998D01*
X127195923Y-136079075D01*
X127159183Y-136058877D01*
X126946439Y-135991390D01*
X126724638Y-135966511D01*
X126708671Y-135966400D01*
X126391329Y-135966400D01*
X126169203Y-135988180D01*
X125955537Y-136052689D01*
X125758470Y-136157471D01*
X125585509Y-136298535D01*
X125443242Y-136470507D01*
X125337086Y-136666837D01*
X125271087Y-136880047D01*
X125247757Y-137102016D01*
X125267985Y-137324289D01*
X125331002Y-137538400D01*
X125434405Y-137736193D01*
X125574258Y-137910135D01*
X125745233Y-138053600D01*
X125940817Y-138161123D01*
X126153561Y-138228610D01*
X126375362Y-138253489D01*
X126391329Y-138253600D01*
X126708671Y-138253600D01*
X126930797Y-138231820D01*
X127144463Y-138167311D01*
X127341530Y-138062529D01*
X127514491Y-137921465D01*
X127656758Y-137749493D01*
X127762914Y-137553163D01*
X127828913Y-137339953D01*
X127852243Y-137117984D01*
X127832015Y-136895711D01*
X127768998Y-136681600D01*
X127734394Y-136615408D01*
X129398701Y-134951100D01*
X129420993Y-134923962D01*
X129443544Y-134897086D01*
X129444505Y-134895338D01*
X129445775Y-134893792D01*
X129462383Y-134862818D01*
X129479272Y-134832097D01*
X129479876Y-134830194D01*
X129480821Y-134828431D01*
X129491093Y-134794833D01*
X129501697Y-134761405D01*
X129501920Y-134759420D01*
X129502504Y-134757509D01*
X129506054Y-134722564D01*
X129509964Y-134687705D01*
X129509991Y-134683803D01*
X129509999Y-134683726D01*
X129509992Y-134683655D01*
X129510001Y-134682399D01*
X129510001Y-132225329D01*
X130314258Y-133029585D01*
X130314258Y-133491581D01*
X130271595Y-133553888D01*
X130234512Y-133640409D01*
X130214941Y-133732485D01*
X130213627Y-133826609D01*
X130230619Y-133919195D01*
X130265272Y-134006718D01*
X130316265Y-134085843D01*
X130381655Y-134153556D01*
X130458952Y-134207279D01*
X130545212Y-134244965D01*
X130637149Y-134265179D01*
X130731261Y-134267150D01*
X130779978Y-134258560D01*
X130779978Y-134363307D01*
X130783406Y-134398272D01*
X130786463Y-134433209D01*
X130787020Y-134435126D01*
X130787215Y-134437116D01*
X130797371Y-134470754D01*
X130807154Y-134504426D01*
X130808073Y-134506198D01*
X130808651Y-134508114D01*
X130825158Y-134539159D01*
X130841284Y-134570270D01*
X130842528Y-134571829D01*
X130843468Y-134573596D01*
X130865669Y-134600817D01*
X130887552Y-134628230D01*
X130889990Y-134630703D01*
X130889990Y-137933402D01*
X130893418Y-137968367D01*
X130896475Y-138003304D01*
X130897032Y-138005221D01*
X130897227Y-138007211D01*
X130907383Y-138040849D01*
X130917166Y-138074521D01*
X130918085Y-138076293D01*
X130918663Y-138078209D01*
X130935170Y-138109254D01*
X130951296Y-138140365D01*
X130952540Y-138141924D01*
X130953480Y-138143691D01*
X130975681Y-138170912D01*
X130997564Y-138198325D01*
X131000309Y-138201109D01*
X131000353Y-138201163D01*
X131000403Y-138201204D01*
X131001289Y-138202103D01*
X132742898Y-139943712D01*
X132770044Y-139966009D01*
X132796912Y-139988554D01*
X132798662Y-139989516D01*
X132800207Y-139990785D01*
X132831159Y-140007382D01*
X132861901Y-140024282D01*
X132863804Y-140024886D01*
X132865567Y-140025831D01*
X132899165Y-140036103D01*
X132932593Y-140046707D01*
X132934578Y-140046930D01*
X132936489Y-140047514D01*
X132971428Y-140051063D01*
X133006293Y-140054974D01*
X133010195Y-140055001D01*
X133010272Y-140055009D01*
X133010343Y-140055002D01*
X133011599Y-140055011D01*
X137985984Y-140055011D01*
X137977337Y-140067639D01*
X137940254Y-140154160D01*
X137920683Y-140246236D01*
X137919369Y-140340360D01*
X137936361Y-140432946D01*
X137971014Y-140520469D01*
X138022007Y-140599594D01*
X138087397Y-140667307D01*
X138134436Y-140700000D01*
X136991029Y-140700000D01*
X136965608Y-140691936D01*
X136815297Y-140675076D01*
X136804476Y-140675000D01*
X136495524Y-140675000D01*
X136344992Y-140689760D01*
X136311075Y-140700000D01*
X131991029Y-140700000D01*
X131965608Y-140691936D01*
X131815297Y-140675076D01*
X131804476Y-140675000D01*
X131495524Y-140675000D01*
X131344992Y-140689760D01*
X131311075Y-140700000D01*
X129750000Y-140700000D01*
X129722141Y-140703959D01*
X129696487Y-140715523D01*
X129675071Y-140733776D01*
X129659588Y-140757272D01*
X129651264Y-140784152D01*
X129650000Y-140800000D01*
X129650000Y-145425000D01*
X125175000Y-145425000D01*
X125175000Y-138950000D01*
X125250000Y-138950000D01*
X125250000Y-140850000D01*
X128650001Y-140850000D01*
X128650001Y-138950000D01*
X125250000Y-138950000D01*
X125175000Y-138950000D01*
X125175000Y-114438768D01*
X125269687Y-114438768D01*
X125274024Y-114463298D01*
X125337225Y-114678398D01*
X125441176Y-114877035D01*
X125581882Y-115051576D01*
X125753936Y-115195313D01*
X125950725Y-115302722D01*
X126164687Y-115369675D01*
X126387600Y-115393600D01*
X126540000Y-115393600D01*
X126540000Y-114260000D01*
X125324047Y-114260000D01*
X125269687Y-114438768D01*
X125175000Y-114438768D01*
X125175000Y-114061232D01*
X125269687Y-114061232D01*
X125324047Y-114240000D01*
X126540000Y-114240000D01*
X126540000Y-113106400D01*
X126387600Y-113106400D01*
X126164687Y-113130325D01*
X125950725Y-113197278D01*
X125753936Y-113304687D01*
X125581882Y-113448424D01*
X125441176Y-113622965D01*
X125337225Y-113821602D01*
X125274024Y-114036702D01*
X125269687Y-114061232D01*
X125175000Y-114061232D01*
X125175000Y-100175000D01*
X129139779Y-100175000D01*
X127829552Y-101485226D01*
X127829552Y-101485226D01*
G37*
X127829552Y-101485226D02*
X127816178Y-101338259D01*
X127753911Y-101126695D01*
X127651737Y-100931254D01*
X127513547Y-100759380D01*
X127344606Y-100617622D01*
X127151347Y-100511377D01*
X126941133Y-100444693D01*
X126721970Y-100420110D01*
X126706193Y-100420000D01*
X126393807Y-100420000D01*
X126174322Y-100441521D01*
X125963197Y-100505263D01*
X125768475Y-100608799D01*
X125597570Y-100748185D01*
X125456995Y-100918112D01*
X125352102Y-101112107D01*
X125286887Y-101322782D01*
X125263835Y-101542111D01*
X125283822Y-101761741D01*
X125346089Y-101973305D01*
X125448263Y-102168746D01*
X125586453Y-102340620D01*
X125755394Y-102482378D01*
X125948653Y-102588623D01*
X126158867Y-102655307D01*
X126378030Y-102679890D01*
X126393807Y-102680000D01*
X126706193Y-102680000D01*
X126925678Y-102658479D01*
X127136803Y-102594737D01*
X127331525Y-102491201D01*
X127466010Y-102381518D01*
X127466010Y-103239744D01*
X127354767Y-103146400D01*
X127159183Y-103038877D01*
X126946439Y-102971390D01*
X126724638Y-102946511D01*
X126708671Y-102946400D01*
X126391329Y-102946400D01*
X126169203Y-102968180D01*
X125955537Y-103032689D01*
X125758470Y-103137471D01*
X125585509Y-103278535D01*
X125443242Y-103450507D01*
X125337086Y-103646837D01*
X125271087Y-103860047D01*
X125247757Y-104082016D01*
X125267985Y-104304289D01*
X125331002Y-104518400D01*
X125434405Y-104716193D01*
X125574258Y-104890135D01*
X125745233Y-105033600D01*
X125940817Y-105141123D01*
X126153561Y-105208610D01*
X126375362Y-105233489D01*
X126391329Y-105233600D01*
X126708671Y-105233600D01*
X126930797Y-105211820D01*
X127144463Y-105147311D01*
X127341530Y-105042529D01*
X127466010Y-104941005D01*
X127466010Y-105779744D01*
X127354767Y-105686400D01*
X127159183Y-105578877D01*
X126946439Y-105511390D01*
X126724638Y-105486511D01*
X126708671Y-105486400D01*
X126391329Y-105486400D01*
X126169203Y-105508180D01*
X125955537Y-105572689D01*
X125758470Y-105677471D01*
X125585509Y-105818535D01*
X125443242Y-105990507D01*
X125337086Y-106186837D01*
X125271087Y-106400047D01*
X125247757Y-106622016D01*
X125267985Y-106844289D01*
X125331002Y-107058400D01*
X125434405Y-107256193D01*
X125574258Y-107430135D01*
X125745233Y-107573600D01*
X125940817Y-107681123D01*
X126153561Y-107748610D01*
X126375362Y-107773489D01*
X126391329Y-107773600D01*
X126708671Y-107773600D01*
X126930797Y-107751820D01*
X127144463Y-107687311D01*
X127341530Y-107582529D01*
X127466010Y-107481005D01*
X127466010Y-108319744D01*
X127354767Y-108226400D01*
X127159183Y-108118877D01*
X126946439Y-108051390D01*
X126724638Y-108026511D01*
X126708671Y-108026400D01*
X126391329Y-108026400D01*
X126169203Y-108048180D01*
X125955537Y-108112689D01*
X125758470Y-108217471D01*
X125585509Y-108358535D01*
X125443242Y-108530507D01*
X125337086Y-108726837D01*
X125271087Y-108940047D01*
X125247757Y-109162016D01*
X125267985Y-109384289D01*
X125331002Y-109598400D01*
X125434405Y-109796193D01*
X125574258Y-109970135D01*
X125745233Y-110113600D01*
X125940817Y-110221123D01*
X126153561Y-110288610D01*
X126375362Y-110313489D01*
X126391329Y-110313600D01*
X126510960Y-110313600D01*
X126768828Y-110571468D01*
X126724638Y-110566511D01*
X126708671Y-110566400D01*
X126391329Y-110566400D01*
X126169203Y-110588180D01*
X125955537Y-110652689D01*
X125758470Y-110757471D01*
X125585509Y-110898535D01*
X125443242Y-111070507D01*
X125337086Y-111266837D01*
X125271087Y-111480047D01*
X125247757Y-111702016D01*
X125267985Y-111924289D01*
X125331002Y-112138400D01*
X125434405Y-112336193D01*
X125574258Y-112510135D01*
X125745233Y-112653600D01*
X125940817Y-112761123D01*
X126153561Y-112828610D01*
X126375362Y-112853489D01*
X126391329Y-112853600D01*
X126708671Y-112853600D01*
X126930797Y-112831820D01*
X127144463Y-112767311D01*
X127341530Y-112662529D01*
X127514491Y-112521465D01*
X127556045Y-112471235D01*
X127556045Y-113495471D01*
X127518118Y-113448424D01*
X127346064Y-113304687D01*
X127149275Y-113197278D01*
X126935313Y-113130325D01*
X126712400Y-113106400D01*
X126560000Y-113106400D01*
X126560000Y-114240000D01*
X126580000Y-114240000D01*
X126580000Y-114260000D01*
X126560000Y-114260000D01*
X126560000Y-115393600D01*
X126712400Y-115393600D01*
X126935313Y-115369675D01*
X127149275Y-115302722D01*
X127346064Y-115195313D01*
X127518118Y-115051576D01*
X127556045Y-115004529D01*
X127556045Y-116027554D01*
X127525742Y-115989865D01*
X127354767Y-115846400D01*
X127159183Y-115738877D01*
X126946439Y-115671390D01*
X126724638Y-115646511D01*
X126708671Y-115646400D01*
X126391329Y-115646400D01*
X126169203Y-115668180D01*
X125955537Y-115732689D01*
X125758470Y-115837471D01*
X125585509Y-115978535D01*
X125443242Y-116150507D01*
X125337086Y-116346837D01*
X125271087Y-116560047D01*
X125247757Y-116782016D01*
X125267985Y-117004289D01*
X125331002Y-117218400D01*
X125434405Y-117416193D01*
X125574258Y-117590135D01*
X125745233Y-117733600D01*
X125940817Y-117841123D01*
X126153561Y-117908610D01*
X126375362Y-117933489D01*
X126391329Y-117933600D01*
X126708671Y-117933600D01*
X126930797Y-117911820D01*
X127144463Y-117847311D01*
X127341530Y-117742529D01*
X127514491Y-117601465D01*
X127556045Y-117551235D01*
X127556045Y-118567554D01*
X127525742Y-118529865D01*
X127354767Y-118386400D01*
X127159183Y-118278877D01*
X126946439Y-118211390D01*
X126724638Y-118186511D01*
X126708671Y-118186400D01*
X126391329Y-118186400D01*
X126169203Y-118208180D01*
X125955537Y-118272689D01*
X125758470Y-118377471D01*
X125585509Y-118518535D01*
X125443242Y-118690507D01*
X125337086Y-118886837D01*
X125271087Y-119100047D01*
X125247757Y-119322016D01*
X125267985Y-119544289D01*
X125331002Y-119758400D01*
X125434405Y-119956193D01*
X125574258Y-120130135D01*
X125745233Y-120273600D01*
X125940817Y-120381123D01*
X126153561Y-120448610D01*
X126375362Y-120473489D01*
X126391329Y-120473600D01*
X126708671Y-120473600D01*
X126930797Y-120451820D01*
X127144463Y-120387311D01*
X127341530Y-120282529D01*
X127514491Y-120141465D01*
X127556045Y-120091235D01*
X127556045Y-121107554D01*
X127525742Y-121069865D01*
X127354767Y-120926400D01*
X127159183Y-120818877D01*
X126946439Y-120751390D01*
X126724638Y-120726511D01*
X126708671Y-120726400D01*
X126391329Y-120726400D01*
X126169203Y-120748180D01*
X125955537Y-120812689D01*
X125758470Y-120917471D01*
X125585509Y-121058535D01*
X125443242Y-121230507D01*
X125337086Y-121426837D01*
X125271087Y-121640047D01*
X125247757Y-121862016D01*
X125267985Y-122084289D01*
X125331002Y-122298400D01*
X125434405Y-122496193D01*
X125574258Y-122670135D01*
X125745233Y-122813600D01*
X125940817Y-122921123D01*
X126153561Y-122988610D01*
X126375362Y-123013489D01*
X126391329Y-123013600D01*
X126708671Y-123013600D01*
X126930797Y-122991820D01*
X127144463Y-122927311D01*
X127341530Y-122822529D01*
X127514491Y-122681465D01*
X127556045Y-122631235D01*
X127556045Y-123647554D01*
X127525742Y-123609865D01*
X127354767Y-123466400D01*
X127159183Y-123358877D01*
X126946439Y-123291390D01*
X126724638Y-123266511D01*
X126708671Y-123266400D01*
X126391329Y-123266400D01*
X126169203Y-123288180D01*
X125955537Y-123352689D01*
X125758470Y-123457471D01*
X125585509Y-123598535D01*
X125443242Y-123770507D01*
X125337086Y-123966837D01*
X125271087Y-124180047D01*
X125247757Y-124402016D01*
X125267985Y-124624289D01*
X125331002Y-124838400D01*
X125434405Y-125036193D01*
X125574258Y-125210135D01*
X125745233Y-125353600D01*
X125940817Y-125461123D01*
X126153561Y-125528610D01*
X126375362Y-125553489D01*
X126391329Y-125553600D01*
X126708671Y-125553600D01*
X126930797Y-125531820D01*
X127144463Y-125467311D01*
X127341530Y-125362529D01*
X127514491Y-125221465D01*
X127556045Y-125171235D01*
X127556045Y-126187554D01*
X127525742Y-126149865D01*
X127354767Y-126006400D01*
X127159183Y-125898877D01*
X126946439Y-125831390D01*
X126724638Y-125806511D01*
X126708671Y-125806400D01*
X126391329Y-125806400D01*
X126169203Y-125828180D01*
X125955537Y-125892689D01*
X125758470Y-125997471D01*
X125585509Y-126138535D01*
X125443242Y-126310507D01*
X125337086Y-126506837D01*
X125271087Y-126720047D01*
X125247757Y-126942016D01*
X125267985Y-127164289D01*
X125331002Y-127378400D01*
X125434405Y-127576193D01*
X125574258Y-127750135D01*
X125745233Y-127893600D01*
X125940817Y-128001123D01*
X126153561Y-128068610D01*
X126375362Y-128093489D01*
X126391329Y-128093600D01*
X126708671Y-128093600D01*
X126930797Y-128071820D01*
X127144463Y-128007311D01*
X127341530Y-127902529D01*
X127514491Y-127761465D01*
X127556045Y-127711235D01*
X127556045Y-128236045D01*
X127559473Y-128271010D01*
X127562530Y-128305947D01*
X127563087Y-128307864D01*
X127563282Y-128309854D01*
X127573438Y-128343492D01*
X127583221Y-128377164D01*
X127584140Y-128378936D01*
X127584718Y-128380852D01*
X127601225Y-128411897D01*
X127617351Y-128443008D01*
X127618595Y-128444567D01*
X127619535Y-128446334D01*
X127641736Y-128473555D01*
X127663619Y-128500968D01*
X127666364Y-128503752D01*
X127666408Y-128503806D01*
X127666458Y-128503847D01*
X127667344Y-128504746D01*
X127846021Y-128683423D01*
X127846021Y-129429614D01*
X127832015Y-129275711D01*
X127768998Y-129061600D01*
X127665595Y-128863807D01*
X127525742Y-128689865D01*
X127354767Y-128546400D01*
X127159183Y-128438877D01*
X126946439Y-128371390D01*
X126724638Y-128346511D01*
X126708671Y-128346400D01*
X126391329Y-128346400D01*
X126169203Y-128368180D01*
X125955537Y-128432689D01*
X125758470Y-128537471D01*
X125585509Y-128678535D01*
X125443242Y-128850507D01*
X125337086Y-129046837D01*
X125271087Y-129260047D01*
X125247757Y-129482016D01*
X125267985Y-129704289D01*
X125331002Y-129918400D01*
X125434405Y-130116193D01*
X125574258Y-130290135D01*
X125745233Y-130433600D01*
X125940817Y-130541123D01*
X126153561Y-130608610D01*
X126375362Y-130633489D01*
X126391329Y-130633600D01*
X126708671Y-130633600D01*
X126930797Y-130611820D01*
X127144463Y-130547311D01*
X127269792Y-130480673D01*
X127282372Y-130549218D01*
X127317025Y-130636741D01*
X127367588Y-130715199D01*
X127369439Y-130734079D01*
X127372496Y-130769016D01*
X127373053Y-130770933D01*
X127373248Y-130772923D01*
X127383404Y-130806561D01*
X127393187Y-130840233D01*
X127394106Y-130842005D01*
X127394684Y-130843921D01*
X127411191Y-130874966D01*
X127427317Y-130906077D01*
X127428561Y-130907636D01*
X127429501Y-130909403D01*
X127451702Y-130936624D01*
X127466010Y-130954548D01*
X127466010Y-131179744D01*
X127354767Y-131086400D01*
X127159183Y-130978877D01*
X126946439Y-130911390D01*
X126724638Y-130886511D01*
X126708671Y-130886400D01*
X126391329Y-130886400D01*
X126169203Y-130908180D01*
X125955537Y-130972689D01*
X125758470Y-131077471D01*
X125585509Y-131218535D01*
X125443242Y-131390507D01*
X125337086Y-131586837D01*
X125271087Y-131800047D01*
X125247757Y-132022016D01*
X125267985Y-132244289D01*
X125331002Y-132458400D01*
X125434405Y-132656193D01*
X125574258Y-132830135D01*
X125745233Y-132973600D01*
X125940817Y-133081123D01*
X126153561Y-133148610D01*
X126375362Y-133173489D01*
X126391329Y-133173600D01*
X126708671Y-133173600D01*
X126930797Y-133151820D01*
X127144463Y-133087311D01*
X127341530Y-132982529D01*
X127466010Y-132881005D01*
X127466010Y-133268989D01*
X127195923Y-133539075D01*
X127159183Y-133518877D01*
X126946439Y-133451390D01*
X126724638Y-133426511D01*
X126708671Y-133426400D01*
X126391329Y-133426400D01*
X126169203Y-133448180D01*
X125955537Y-133512689D01*
X125758470Y-133617471D01*
X125585509Y-133758535D01*
X125443242Y-133930507D01*
X125337086Y-134126837D01*
X125271087Y-134340047D01*
X125247757Y-134562016D01*
X125267985Y-134784289D01*
X125331002Y-134998400D01*
X125434405Y-135196193D01*
X125574258Y-135370135D01*
X125745233Y-135513600D01*
X125940817Y-135621123D01*
X126153561Y-135688610D01*
X126375362Y-135713489D01*
X126391329Y-135713600D01*
X126708671Y-135713600D01*
X126930797Y-135691820D01*
X127144463Y-135627311D01*
X127341530Y-135522529D01*
X127514491Y-135381465D01*
X127656758Y-135209493D01*
X127762914Y-135013163D01*
X127828913Y-134799953D01*
X127852243Y-134577984D01*
X127832015Y-134355711D01*
X127768998Y-134141600D01*
X127734394Y-134075408D01*
X128061200Y-133748601D01*
X128173058Y-133860459D01*
X128186361Y-133932946D01*
X128221014Y-134020469D01*
X128272007Y-134099594D01*
X128337397Y-134167307D01*
X128414694Y-134221030D01*
X128500954Y-134258716D01*
X128592891Y-134278930D01*
X128687003Y-134280901D01*
X128750001Y-134269793D01*
X128750001Y-134524998D01*
X127195923Y-136079075D01*
X127159183Y-136058877D01*
X126946439Y-135991390D01*
X126724638Y-135966511D01*
X126708671Y-135966400D01*
X126391329Y-135966400D01*
X126169203Y-135988180D01*
X125955537Y-136052689D01*
X125758470Y-136157471D01*
X125585509Y-136298535D01*
X125443242Y-136470507D01*
X125337086Y-136666837D01*
X125271087Y-136880047D01*
X125247757Y-137102016D01*
X125267985Y-137324289D01*
X125331002Y-137538400D01*
X125434405Y-137736193D01*
X125574258Y-137910135D01*
X125745233Y-138053600D01*
X125940817Y-138161123D01*
X126153561Y-138228610D01*
X126375362Y-138253489D01*
X126391329Y-138253600D01*
X126708671Y-138253600D01*
X126930797Y-138231820D01*
X127144463Y-138167311D01*
X127341530Y-138062529D01*
X127514491Y-137921465D01*
X127656758Y-137749493D01*
X127762914Y-137553163D01*
X127828913Y-137339953D01*
X127852243Y-137117984D01*
X127832015Y-136895711D01*
X127768998Y-136681600D01*
X127734394Y-136615408D01*
X129398701Y-134951100D01*
X129420993Y-134923962D01*
X129443544Y-134897086D01*
X129444505Y-134895338D01*
X129445775Y-134893792D01*
X129462383Y-134862818D01*
X129479272Y-134832097D01*
X129479876Y-134830194D01*
X129480821Y-134828431D01*
X129491093Y-134794833D01*
X129501697Y-134761405D01*
X129501920Y-134759420D01*
X129502504Y-134757509D01*
X129506054Y-134722564D01*
X129509964Y-134687705D01*
X129509991Y-134683803D01*
X129509999Y-134683726D01*
X129509992Y-134683655D01*
X129510001Y-134682399D01*
X129510001Y-132225329D01*
X130314258Y-133029585D01*
X130314258Y-133491581D01*
X130271595Y-133553888D01*
X130234512Y-133640409D01*
X130214941Y-133732485D01*
X130213627Y-133826609D01*
X130230619Y-133919195D01*
X130265272Y-134006718D01*
X130316265Y-134085843D01*
X130381655Y-134153556D01*
X130458952Y-134207279D01*
X130545212Y-134244965D01*
X130637149Y-134265179D01*
X130731261Y-134267150D01*
X130779978Y-134258560D01*
X130779978Y-134363307D01*
X130783406Y-134398272D01*
X130786463Y-134433209D01*
X130787020Y-134435126D01*
X130787215Y-134437116D01*
X130797371Y-134470754D01*
X130807154Y-134504426D01*
X130808073Y-134506198D01*
X130808651Y-134508114D01*
X130825158Y-134539159D01*
X130841284Y-134570270D01*
X130842528Y-134571829D01*
X130843468Y-134573596D01*
X130865669Y-134600817D01*
X130887552Y-134628230D01*
X130889990Y-134630703D01*
X130889990Y-137933402D01*
X130893418Y-137968367D01*
X130896475Y-138003304D01*
X130897032Y-138005221D01*
X130897227Y-138007211D01*
X130907383Y-138040849D01*
X130917166Y-138074521D01*
X130918085Y-138076293D01*
X130918663Y-138078209D01*
X130935170Y-138109254D01*
X130951296Y-138140365D01*
X130952540Y-138141924D01*
X130953480Y-138143691D01*
X130975681Y-138170912D01*
X130997564Y-138198325D01*
X131000309Y-138201109D01*
X131000353Y-138201163D01*
X131000403Y-138201204D01*
X131001289Y-138202103D01*
X132742898Y-139943712D01*
X132770044Y-139966009D01*
X132796912Y-139988554D01*
X132798662Y-139989516D01*
X132800207Y-139990785D01*
X132831159Y-140007382D01*
X132861901Y-140024282D01*
X132863804Y-140024886D01*
X132865567Y-140025831D01*
X132899165Y-140036103D01*
X132932593Y-140046707D01*
X132934578Y-140046930D01*
X132936489Y-140047514D01*
X132971428Y-140051063D01*
X133006293Y-140054974D01*
X133010195Y-140055001D01*
X133010272Y-140055009D01*
X133010343Y-140055002D01*
X133011599Y-140055011D01*
X137985984Y-140055011D01*
X137977337Y-140067639D01*
X137940254Y-140154160D01*
X137920683Y-140246236D01*
X137919369Y-140340360D01*
X137936361Y-140432946D01*
X137971014Y-140520469D01*
X138022007Y-140599594D01*
X138087397Y-140667307D01*
X138134436Y-140700000D01*
X136991029Y-140700000D01*
X136965608Y-140691936D01*
X136815297Y-140675076D01*
X136804476Y-140675000D01*
X136495524Y-140675000D01*
X136344992Y-140689760D01*
X136311075Y-140700000D01*
X131991029Y-140700000D01*
X131965608Y-140691936D01*
X131815297Y-140675076D01*
X131804476Y-140675000D01*
X131495524Y-140675000D01*
X131344992Y-140689760D01*
X131311075Y-140700000D01*
X129750000Y-140700000D01*
X129722141Y-140703959D01*
X129696487Y-140715523D01*
X129675071Y-140733776D01*
X129659588Y-140757272D01*
X129651264Y-140784152D01*
X129650000Y-140800000D01*
X129650000Y-145425000D01*
X125175000Y-145425000D01*
X125175000Y-138950000D01*
X125250000Y-138950000D01*
X125250000Y-140850000D01*
X128650001Y-140850000D01*
X128650001Y-138950000D01*
X125250000Y-138950000D01*
X125175000Y-138950000D01*
X125175000Y-114438768D01*
X125269687Y-114438768D01*
X125274024Y-114463298D01*
X125337225Y-114678398D01*
X125441176Y-114877035D01*
X125581882Y-115051576D01*
X125753936Y-115195313D01*
X125950725Y-115302722D01*
X126164687Y-115369675D01*
X126387600Y-115393600D01*
X126540000Y-115393600D01*
X126540000Y-114260000D01*
X125324047Y-114260000D01*
X125269687Y-114438768D01*
X125175000Y-114438768D01*
X125175000Y-114061232D01*
X125269687Y-114061232D01*
X125324047Y-114240000D01*
X126540000Y-114240000D01*
X126540000Y-113106400D01*
X126387600Y-113106400D01*
X126164687Y-113130325D01*
X125950725Y-113197278D01*
X125753936Y-113304687D01*
X125581882Y-113448424D01*
X125441176Y-113622965D01*
X125337225Y-113821602D01*
X125274024Y-114036702D01*
X125269687Y-114061232D01*
X125175000Y-114061232D01*
X125175000Y-100175000D01*
X129139779Y-100175000D01*
X127829552Y-101485226D01*
G36*
X133400002Y-133547805D02*
X133400002Y-135369598D01*
X133403430Y-135404563D01*
X133406487Y-135439500D01*
X133407044Y-135441417D01*
X133407239Y-135443407D01*
X133417395Y-135477045D01*
X133427178Y-135510717D01*
X133428097Y-135512489D01*
X133428675Y-135514405D01*
X133445182Y-135545450D01*
X133461308Y-135576561D01*
X133462552Y-135578120D01*
X133463492Y-135579887D01*
X133485693Y-135607108D01*
X133507576Y-135634521D01*
X133510321Y-135637305D01*
X133510365Y-135637359D01*
X133510415Y-135637400D01*
X133511301Y-135638299D01*
X134950002Y-137077000D01*
X134950002Y-137862596D01*
X134589789Y-138222809D01*
X134513820Y-138237301D01*
X134426542Y-138272564D01*
X134347775Y-138324107D01*
X134280519Y-138389969D01*
X134227337Y-138467639D01*
X134190254Y-138554160D01*
X134170683Y-138646236D01*
X134169369Y-138740360D01*
X134186361Y-138832946D01*
X134191134Y-138845001D01*
X133909311Y-138845001D01*
X133928520Y-138760451D01*
X133930021Y-138652934D01*
X133911737Y-138560593D01*
X133875866Y-138473563D01*
X133823774Y-138395158D01*
X133757444Y-138328364D01*
X133679404Y-138275725D01*
X133592627Y-138239247D01*
X133509607Y-138222206D01*
X132880000Y-137592598D01*
X132880000Y-134157402D01*
X133038701Y-133998700D01*
X133060978Y-133971579D01*
X133083543Y-133944687D01*
X133084505Y-133942936D01*
X133085774Y-133941392D01*
X133102360Y-133910459D01*
X133119271Y-133879698D01*
X133119875Y-133877793D01*
X133120820Y-133876031D01*
X133131083Y-133842461D01*
X133141696Y-133809006D01*
X133141919Y-133807020D01*
X133142503Y-133805109D01*
X133146051Y-133770180D01*
X133149963Y-133735306D01*
X133149990Y-133731403D01*
X133149998Y-133731326D01*
X133149991Y-133731255D01*
X133150000Y-133730000D01*
X133150000Y-133315196D01*
X133158680Y-133306516D01*
X133158695Y-133306498D01*
X133400002Y-133547805D01*
X133400002Y-133547805D01*
G37*
X133400002Y-133547805D02*
X133400002Y-135369598D01*
X133403430Y-135404563D01*
X133406487Y-135439500D01*
X133407044Y-135441417D01*
X133407239Y-135443407D01*
X133417395Y-135477045D01*
X133427178Y-135510717D01*
X133428097Y-135512489D01*
X133428675Y-135514405D01*
X133445182Y-135545450D01*
X133461308Y-135576561D01*
X133462552Y-135578120D01*
X133463492Y-135579887D01*
X133485693Y-135607108D01*
X133507576Y-135634521D01*
X133510321Y-135637305D01*
X133510365Y-135637359D01*
X133510415Y-135637400D01*
X133511301Y-135638299D01*
X134950002Y-137077000D01*
X134950002Y-137862596D01*
X134589789Y-138222809D01*
X134513820Y-138237301D01*
X134426542Y-138272564D01*
X134347775Y-138324107D01*
X134280519Y-138389969D01*
X134227337Y-138467639D01*
X134190254Y-138554160D01*
X134170683Y-138646236D01*
X134169369Y-138740360D01*
X134186361Y-138832946D01*
X134191134Y-138845001D01*
X133909311Y-138845001D01*
X133928520Y-138760451D01*
X133930021Y-138652934D01*
X133911737Y-138560593D01*
X133875866Y-138473563D01*
X133823774Y-138395158D01*
X133757444Y-138328364D01*
X133679404Y-138275725D01*
X133592627Y-138239247D01*
X133509607Y-138222206D01*
X132880000Y-137592598D01*
X132880000Y-134157402D01*
X133038701Y-133998700D01*
X133060978Y-133971579D01*
X133083543Y-133944687D01*
X133084505Y-133942936D01*
X133085774Y-133941392D01*
X133102360Y-133910459D01*
X133119271Y-133879698D01*
X133119875Y-133877793D01*
X133120820Y-133876031D01*
X133131083Y-133842461D01*
X133141696Y-133809006D01*
X133141919Y-133807020D01*
X133142503Y-133805109D01*
X133146051Y-133770180D01*
X133149963Y-133735306D01*
X133149990Y-133731403D01*
X133149998Y-133731326D01*
X133149991Y-133731255D01*
X133150000Y-133730000D01*
X133150000Y-133315196D01*
X133158680Y-133306516D01*
X133158695Y-133306498D01*
X133400002Y-133547805D01*
G36*
X131773616Y-130832177D02*
X131773616Y-131594006D01*
X131777044Y-131628971D01*
X131780101Y-131663908D01*
X131780658Y-131665825D01*
X131780853Y-131667815D01*
X131791009Y-131701453D01*
X131800792Y-131735125D01*
X131801711Y-131736897D01*
X131802289Y-131738813D01*
X131818796Y-131769858D01*
X131834922Y-131800969D01*
X131836166Y-131802528D01*
X131837106Y-131804295D01*
X131859307Y-131831516D01*
X131881190Y-131858929D01*
X131883935Y-131861713D01*
X131883979Y-131861767D01*
X131884029Y-131861808D01*
X131884915Y-131862707D01*
X132129978Y-132107770D01*
X132129978Y-132703027D01*
X131851288Y-132981716D01*
X131828991Y-133008862D01*
X131806446Y-133035730D01*
X131805484Y-133037480D01*
X131804215Y-133039025D01*
X131787618Y-133069977D01*
X131770718Y-133100719D01*
X131770114Y-133102622D01*
X131769169Y-133104385D01*
X131758897Y-133137983D01*
X131748293Y-133171411D01*
X131748070Y-133173396D01*
X131747486Y-133175307D01*
X131743937Y-133210246D01*
X131740026Y-133245111D01*
X131739999Y-133249013D01*
X131739991Y-133249090D01*
X131739998Y-133249161D01*
X131739989Y-133250417D01*
X131739989Y-134435193D01*
X131731299Y-134443883D01*
X131709002Y-134471029D01*
X131686457Y-134497897D01*
X131685495Y-134499647D01*
X131684226Y-134501192D01*
X131667629Y-134532144D01*
X131650729Y-134562886D01*
X131650125Y-134564789D01*
X131649990Y-134565041D01*
X131649990Y-134473319D01*
X131646562Y-134438358D01*
X131643505Y-134403417D01*
X131642948Y-134401500D01*
X131642753Y-134399510D01*
X131632601Y-134365885D01*
X131622814Y-134332199D01*
X131621895Y-134330426D01*
X131621317Y-134328512D01*
X131604820Y-134297486D01*
X131588684Y-134266356D01*
X131587440Y-134264797D01*
X131586500Y-134263030D01*
X131564299Y-134235809D01*
X131542416Y-134208396D01*
X131539978Y-134205924D01*
X131539978Y-134059626D01*
X131560982Y-134034056D01*
X131583533Y-134007180D01*
X131584494Y-134005432D01*
X131585764Y-134003886D01*
X131602353Y-133972947D01*
X131619261Y-133942191D01*
X131619866Y-133940284D01*
X131620809Y-133938525D01*
X131631067Y-133904973D01*
X131641686Y-133871499D01*
X131641909Y-133869514D01*
X131642493Y-133867603D01*
X131646037Y-133832708D01*
X131649953Y-133797799D01*
X131649980Y-133793886D01*
X131649987Y-133793820D01*
X131649981Y-133793758D01*
X131649990Y-133792493D01*
X131649990Y-131738128D01*
X131689367Y-131682307D01*
X131727655Y-131596312D01*
X131748510Y-131504518D01*
X131750011Y-131397001D01*
X131731727Y-131304660D01*
X131695856Y-131217630D01*
X131643764Y-131139225D01*
X131577434Y-131072431D01*
X131499394Y-131019792D01*
X131412617Y-130983314D01*
X131320406Y-130964386D01*
X131226276Y-130963729D01*
X131133810Y-130981368D01*
X131046532Y-131016631D01*
X130967765Y-131068174D01*
X130900509Y-131134036D01*
X130847327Y-131211706D01*
X130810244Y-131298227D01*
X130790673Y-131390303D01*
X130789359Y-131484427D01*
X130806351Y-131577013D01*
X130841004Y-131664536D01*
X130889990Y-131740547D01*
X130889990Y-132530515D01*
X129733956Y-131374481D01*
X129718219Y-131295001D01*
X129682348Y-131207971D01*
X129630256Y-131129566D01*
X129563926Y-131062772D01*
X129485886Y-131010133D01*
X129399109Y-130973655D01*
X129306898Y-130954727D01*
X129212768Y-130954070D01*
X129120302Y-130971709D01*
X129110011Y-130975867D01*
X129110011Y-128169669D01*
X129109892Y-128168453D01*
X131773616Y-130832177D01*
X131773616Y-130832177D01*
G37*
X131773616Y-130832177D02*
X131773616Y-131594006D01*
X131777044Y-131628971D01*
X131780101Y-131663908D01*
X131780658Y-131665825D01*
X131780853Y-131667815D01*
X131791009Y-131701453D01*
X131800792Y-131735125D01*
X131801711Y-131736897D01*
X131802289Y-131738813D01*
X131818796Y-131769858D01*
X131834922Y-131800969D01*
X131836166Y-131802528D01*
X131837106Y-131804295D01*
X131859307Y-131831516D01*
X131881190Y-131858929D01*
X131883935Y-131861713D01*
X131883979Y-131861767D01*
X131884029Y-131861808D01*
X131884915Y-131862707D01*
X132129978Y-132107770D01*
X132129978Y-132703027D01*
X131851288Y-132981716D01*
X131828991Y-133008862D01*
X131806446Y-133035730D01*
X131805484Y-133037480D01*
X131804215Y-133039025D01*
X131787618Y-133069977D01*
X131770718Y-133100719D01*
X131770114Y-133102622D01*
X131769169Y-133104385D01*
X131758897Y-133137983D01*
X131748293Y-133171411D01*
X131748070Y-133173396D01*
X131747486Y-133175307D01*
X131743937Y-133210246D01*
X131740026Y-133245111D01*
X131739999Y-133249013D01*
X131739991Y-133249090D01*
X131739998Y-133249161D01*
X131739989Y-133250417D01*
X131739989Y-134435193D01*
X131731299Y-134443883D01*
X131709002Y-134471029D01*
X131686457Y-134497897D01*
X131685495Y-134499647D01*
X131684226Y-134501192D01*
X131667629Y-134532144D01*
X131650729Y-134562886D01*
X131650125Y-134564789D01*
X131649990Y-134565041D01*
X131649990Y-134473319D01*
X131646562Y-134438358D01*
X131643505Y-134403417D01*
X131642948Y-134401500D01*
X131642753Y-134399510D01*
X131632601Y-134365885D01*
X131622814Y-134332199D01*
X131621895Y-134330426D01*
X131621317Y-134328512D01*
X131604820Y-134297486D01*
X131588684Y-134266356D01*
X131587440Y-134264797D01*
X131586500Y-134263030D01*
X131564299Y-134235809D01*
X131542416Y-134208396D01*
X131539978Y-134205924D01*
X131539978Y-134059626D01*
X131560982Y-134034056D01*
X131583533Y-134007180D01*
X131584494Y-134005432D01*
X131585764Y-134003886D01*
X131602353Y-133972947D01*
X131619261Y-133942191D01*
X131619866Y-133940284D01*
X131620809Y-133938525D01*
X131631067Y-133904973D01*
X131641686Y-133871499D01*
X131641909Y-133869514D01*
X131642493Y-133867603D01*
X131646037Y-133832708D01*
X131649953Y-133797799D01*
X131649980Y-133793886D01*
X131649987Y-133793820D01*
X131649981Y-133793758D01*
X131649990Y-133792493D01*
X131649990Y-131738128D01*
X131689367Y-131682307D01*
X131727655Y-131596312D01*
X131748510Y-131504518D01*
X131750011Y-131397001D01*
X131731727Y-131304660D01*
X131695856Y-131217630D01*
X131643764Y-131139225D01*
X131577434Y-131072431D01*
X131499394Y-131019792D01*
X131412617Y-130983314D01*
X131320406Y-130964386D01*
X131226276Y-130963729D01*
X131133810Y-130981368D01*
X131046532Y-131016631D01*
X130967765Y-131068174D01*
X130900509Y-131134036D01*
X130847327Y-131211706D01*
X130810244Y-131298227D01*
X130790673Y-131390303D01*
X130789359Y-131484427D01*
X130806351Y-131577013D01*
X130841004Y-131664536D01*
X130889990Y-131740547D01*
X130889990Y-132530515D01*
X129733956Y-131374481D01*
X129718219Y-131295001D01*
X129682348Y-131207971D01*
X129630256Y-131129566D01*
X129563926Y-131062772D01*
X129485886Y-131010133D01*
X129399109Y-130973655D01*
X129306898Y-130954727D01*
X129212768Y-130954070D01*
X129120302Y-130971709D01*
X129110011Y-130975867D01*
X129110011Y-128169669D01*
X129109892Y-128168453D01*
X131773616Y-130832177D01*
G36*
X139520126Y-120311120D02*
X139519652Y-120312226D01*
X139500081Y-120404302D01*
X139498767Y-120498426D01*
X139515759Y-120591012D01*
X139550412Y-120678535D01*
X139601405Y-120757660D01*
X139666795Y-120825373D01*
X139736586Y-120873879D01*
X137379632Y-123230833D01*
X137380021Y-123202934D01*
X137361737Y-123110593D01*
X137325866Y-123023563D01*
X137273774Y-122945158D01*
X137207444Y-122878364D01*
X137129404Y-122825725D01*
X137042627Y-122789247D01*
X137038583Y-122788417D01*
X138688689Y-121138310D01*
X138710981Y-121111172D01*
X138733532Y-121084296D01*
X138734493Y-121082548D01*
X138735763Y-121081002D01*
X138752352Y-121050063D01*
X138769260Y-121019307D01*
X138769865Y-121017400D01*
X138770808Y-121015641D01*
X138781066Y-120982089D01*
X138791685Y-120948615D01*
X138791908Y-120946630D01*
X138792492Y-120944719D01*
X138796036Y-120909824D01*
X138799952Y-120874915D01*
X138799979Y-120871002D01*
X138799986Y-120870936D01*
X138799980Y-120870874D01*
X138799989Y-120869609D01*
X138799989Y-120777009D01*
X139477013Y-120099985D01*
X139499310Y-120072839D01*
X139520126Y-120048032D01*
X139520126Y-120311120D01*
X139520126Y-120311120D01*
G37*
X139520126Y-120311120D02*
X139519652Y-120312226D01*
X139500081Y-120404302D01*
X139498767Y-120498426D01*
X139515759Y-120591012D01*
X139550412Y-120678535D01*
X139601405Y-120757660D01*
X139666795Y-120825373D01*
X139736586Y-120873879D01*
X137379632Y-123230833D01*
X137380021Y-123202934D01*
X137361737Y-123110593D01*
X137325866Y-123023563D01*
X137273774Y-122945158D01*
X137207444Y-122878364D01*
X137129404Y-122825725D01*
X137042627Y-122789247D01*
X137038583Y-122788417D01*
X138688689Y-121138310D01*
X138710981Y-121111172D01*
X138733532Y-121084296D01*
X138734493Y-121082548D01*
X138735763Y-121081002D01*
X138752352Y-121050063D01*
X138769260Y-121019307D01*
X138769865Y-121017400D01*
X138770808Y-121015641D01*
X138781066Y-120982089D01*
X138791685Y-120948615D01*
X138791908Y-120946630D01*
X138792492Y-120944719D01*
X138796036Y-120909824D01*
X138799952Y-120874915D01*
X138799979Y-120871002D01*
X138799986Y-120870936D01*
X138799980Y-120870874D01*
X138799989Y-120869609D01*
X138799989Y-120777009D01*
X139477013Y-120099985D01*
X139499310Y-120072839D01*
X139520126Y-120048032D01*
X139520126Y-120311120D01*
G36*
X131130011Y-114027816D02*
X131130011Y-115546554D01*
X131080426Y-115536376D01*
X130986296Y-115535719D01*
X130893830Y-115553358D01*
X130806552Y-115588621D01*
X130734061Y-115636057D01*
X130318456Y-115636057D01*
X129727474Y-115045075D01*
X129711737Y-114965595D01*
X129675866Y-114878565D01*
X129623774Y-114800160D01*
X129557444Y-114733366D01*
X129479404Y-114680727D01*
X129392627Y-114644249D01*
X129300416Y-114625321D01*
X129206286Y-114624664D01*
X129113820Y-114642303D01*
X129026542Y-114677566D01*
X128947775Y-114729109D01*
X128880519Y-114794971D01*
X128827337Y-114872641D01*
X128790254Y-114959162D01*
X128770683Y-115051238D01*
X128769369Y-115145362D01*
X128786361Y-115237948D01*
X128821014Y-115325471D01*
X128872007Y-115404596D01*
X128937397Y-115472309D01*
X129014694Y-115526032D01*
X129100954Y-115563718D01*
X129191144Y-115583548D01*
X129892354Y-116284757D01*
X129919492Y-116307049D01*
X129946368Y-116329600D01*
X129948116Y-116330561D01*
X129949662Y-116331831D01*
X129980601Y-116348420D01*
X130011357Y-116365328D01*
X130013264Y-116365933D01*
X130015023Y-116366876D01*
X130048575Y-116377134D01*
X130082049Y-116387753D01*
X130084034Y-116387976D01*
X130085945Y-116388560D01*
X130120884Y-116392109D01*
X130155749Y-116396020D01*
X130159651Y-116396047D01*
X130159728Y-116396055D01*
X130159799Y-116396048D01*
X130161055Y-116396057D01*
X130735670Y-116396057D01*
X130794704Y-116437087D01*
X130880964Y-116474773D01*
X130950001Y-116489952D01*
X130950001Y-120423000D01*
X128810011Y-122562989D01*
X128810011Y-120390369D01*
X129380437Y-120390369D01*
X129397429Y-120482955D01*
X129432082Y-120570478D01*
X129483075Y-120649603D01*
X129548465Y-120717316D01*
X129625762Y-120771039D01*
X129712022Y-120808725D01*
X129803959Y-120828939D01*
X129898071Y-120830910D01*
X129990774Y-120814564D01*
X130078537Y-120780524D01*
X130158016Y-120730085D01*
X130226184Y-120665169D01*
X130280445Y-120588249D01*
X130318733Y-120502254D01*
X130339588Y-120410460D01*
X130339610Y-120408869D01*
X130503712Y-120244767D01*
X130526009Y-120217621D01*
X130548554Y-120190753D01*
X130549516Y-120189003D01*
X130550785Y-120187458D01*
X130567382Y-120156506D01*
X130584282Y-120125764D01*
X130584886Y-120123861D01*
X130585831Y-120122098D01*
X130596103Y-120088500D01*
X130606707Y-120055072D01*
X130606930Y-120053087D01*
X130607514Y-120051176D01*
X130611063Y-120016237D01*
X130614974Y-119981372D01*
X130615001Y-119977470D01*
X130615009Y-119977393D01*
X130615002Y-119977316D01*
X130615011Y-119976066D01*
X130615011Y-119244061D01*
X130654388Y-119188240D01*
X130692676Y-119102245D01*
X130713531Y-119010451D01*
X130715032Y-118902934D01*
X130696748Y-118810593D01*
X130660877Y-118723563D01*
X130608785Y-118645158D01*
X130542455Y-118578364D01*
X130464415Y-118525725D01*
X130377638Y-118489247D01*
X130285427Y-118470319D01*
X130191297Y-118469662D01*
X130098831Y-118487301D01*
X130011553Y-118522564D01*
X129932786Y-118574107D01*
X129865530Y-118639969D01*
X129812348Y-118717639D01*
X129775265Y-118804160D01*
X129755694Y-118896236D01*
X129754380Y-118990360D01*
X129771372Y-119082946D01*
X129806025Y-119170469D01*
X129855011Y-119246480D01*
X129855011Y-119818664D01*
X129800857Y-119872818D01*
X129724888Y-119887310D01*
X129637610Y-119922573D01*
X129558843Y-119974116D01*
X129491587Y-120039978D01*
X129438405Y-120117648D01*
X129401322Y-120204169D01*
X129381751Y-120296245D01*
X129380437Y-120390369D01*
X128810011Y-120390369D01*
X128810011Y-118542595D01*
X128806587Y-118507675D01*
X128805478Y-118495000D01*
X128833069Y-118495578D01*
X128925772Y-118479232D01*
X129013535Y-118445192D01*
X129093014Y-118394753D01*
X129093094Y-118394677D01*
X129421620Y-118394677D01*
X129443474Y-118417307D01*
X129520771Y-118471030D01*
X129607031Y-118508716D01*
X129698968Y-118528930D01*
X129793080Y-118530901D01*
X129885783Y-118514555D01*
X129973546Y-118480515D01*
X130053025Y-118430076D01*
X130121193Y-118365160D01*
X130175454Y-118288240D01*
X130213742Y-118202245D01*
X130234597Y-118110451D01*
X130236098Y-118002934D01*
X130217814Y-117910593D01*
X130181943Y-117823563D01*
X130129851Y-117745158D01*
X130063521Y-117678364D01*
X129985481Y-117625725D01*
X129898704Y-117589247D01*
X129806493Y-117570319D01*
X129712363Y-117569662D01*
X129619897Y-117587301D01*
X129532619Y-117622564D01*
X129514108Y-117634677D01*
X129091110Y-117634677D01*
X129025470Y-117590402D01*
X128938693Y-117553924D01*
X128846482Y-117534996D01*
X128752352Y-117534339D01*
X128696056Y-117545078D01*
X128696056Y-111593862D01*
X131130011Y-114027816D01*
X131130011Y-114027816D01*
G37*
X131130011Y-114027816D02*
X131130011Y-115546554D01*
X131080426Y-115536376D01*
X130986296Y-115535719D01*
X130893830Y-115553358D01*
X130806552Y-115588621D01*
X130734061Y-115636057D01*
X130318456Y-115636057D01*
X129727474Y-115045075D01*
X129711737Y-114965595D01*
X129675866Y-114878565D01*
X129623774Y-114800160D01*
X129557444Y-114733366D01*
X129479404Y-114680727D01*
X129392627Y-114644249D01*
X129300416Y-114625321D01*
X129206286Y-114624664D01*
X129113820Y-114642303D01*
X129026542Y-114677566D01*
X128947775Y-114729109D01*
X128880519Y-114794971D01*
X128827337Y-114872641D01*
X128790254Y-114959162D01*
X128770683Y-115051238D01*
X128769369Y-115145362D01*
X128786361Y-115237948D01*
X128821014Y-115325471D01*
X128872007Y-115404596D01*
X128937397Y-115472309D01*
X129014694Y-115526032D01*
X129100954Y-115563718D01*
X129191144Y-115583548D01*
X129892354Y-116284757D01*
X129919492Y-116307049D01*
X129946368Y-116329600D01*
X129948116Y-116330561D01*
X129949662Y-116331831D01*
X129980601Y-116348420D01*
X130011357Y-116365328D01*
X130013264Y-116365933D01*
X130015023Y-116366876D01*
X130048575Y-116377134D01*
X130082049Y-116387753D01*
X130084034Y-116387976D01*
X130085945Y-116388560D01*
X130120884Y-116392109D01*
X130155749Y-116396020D01*
X130159651Y-116396047D01*
X130159728Y-116396055D01*
X130159799Y-116396048D01*
X130161055Y-116396057D01*
X130735670Y-116396057D01*
X130794704Y-116437087D01*
X130880964Y-116474773D01*
X130950001Y-116489952D01*
X130950001Y-120423000D01*
X128810011Y-122562989D01*
X128810011Y-120390369D01*
X129380437Y-120390369D01*
X129397429Y-120482955D01*
X129432082Y-120570478D01*
X129483075Y-120649603D01*
X129548465Y-120717316D01*
X129625762Y-120771039D01*
X129712022Y-120808725D01*
X129803959Y-120828939D01*
X129898071Y-120830910D01*
X129990774Y-120814564D01*
X130078537Y-120780524D01*
X130158016Y-120730085D01*
X130226184Y-120665169D01*
X130280445Y-120588249D01*
X130318733Y-120502254D01*
X130339588Y-120410460D01*
X130339610Y-120408869D01*
X130503712Y-120244767D01*
X130526009Y-120217621D01*
X130548554Y-120190753D01*
X130549516Y-120189003D01*
X130550785Y-120187458D01*
X130567382Y-120156506D01*
X130584282Y-120125764D01*
X130584886Y-120123861D01*
X130585831Y-120122098D01*
X130596103Y-120088500D01*
X130606707Y-120055072D01*
X130606930Y-120053087D01*
X130607514Y-120051176D01*
X130611063Y-120016237D01*
X130614974Y-119981372D01*
X130615001Y-119977470D01*
X130615009Y-119977393D01*
X130615002Y-119977316D01*
X130615011Y-119976066D01*
X130615011Y-119244061D01*
X130654388Y-119188240D01*
X130692676Y-119102245D01*
X130713531Y-119010451D01*
X130715032Y-118902934D01*
X130696748Y-118810593D01*
X130660877Y-118723563D01*
X130608785Y-118645158D01*
X130542455Y-118578364D01*
X130464415Y-118525725D01*
X130377638Y-118489247D01*
X130285427Y-118470319D01*
X130191297Y-118469662D01*
X130098831Y-118487301D01*
X130011553Y-118522564D01*
X129932786Y-118574107D01*
X129865530Y-118639969D01*
X129812348Y-118717639D01*
X129775265Y-118804160D01*
X129755694Y-118896236D01*
X129754380Y-118990360D01*
X129771372Y-119082946D01*
X129806025Y-119170469D01*
X129855011Y-119246480D01*
X129855011Y-119818664D01*
X129800857Y-119872818D01*
X129724888Y-119887310D01*
X129637610Y-119922573D01*
X129558843Y-119974116D01*
X129491587Y-120039978D01*
X129438405Y-120117648D01*
X129401322Y-120204169D01*
X129381751Y-120296245D01*
X129380437Y-120390369D01*
X128810011Y-120390369D01*
X128810011Y-118542595D01*
X128806587Y-118507675D01*
X128805478Y-118495000D01*
X128833069Y-118495578D01*
X128925772Y-118479232D01*
X129013535Y-118445192D01*
X129093014Y-118394753D01*
X129093094Y-118394677D01*
X129421620Y-118394677D01*
X129443474Y-118417307D01*
X129520771Y-118471030D01*
X129607031Y-118508716D01*
X129698968Y-118528930D01*
X129793080Y-118530901D01*
X129885783Y-118514555D01*
X129973546Y-118480515D01*
X130053025Y-118430076D01*
X130121193Y-118365160D01*
X130175454Y-118288240D01*
X130213742Y-118202245D01*
X130234597Y-118110451D01*
X130236098Y-118002934D01*
X130217814Y-117910593D01*
X130181943Y-117823563D01*
X130129851Y-117745158D01*
X130063521Y-117678364D01*
X129985481Y-117625725D01*
X129898704Y-117589247D01*
X129806493Y-117570319D01*
X129712363Y-117569662D01*
X129619897Y-117587301D01*
X129532619Y-117622564D01*
X129514108Y-117634677D01*
X129091110Y-117634677D01*
X129025470Y-117590402D01*
X128938693Y-117553924D01*
X128846482Y-117534996D01*
X128752352Y-117534339D01*
X128696056Y-117545078D01*
X128696056Y-111593862D01*
X131130011Y-114027816D01*
G36*
X131043010Y-106134390D02*
X131141096Y-106235961D01*
X131257041Y-106316545D01*
X131386431Y-106373074D01*
X131524337Y-106403395D01*
X131665505Y-106406352D01*
X131774697Y-106387099D01*
X131891298Y-106503700D01*
X132506300Y-107118701D01*
X132533421Y-107140978D01*
X132560313Y-107163543D01*
X132562064Y-107164505D01*
X132563608Y-107165774D01*
X132594560Y-107182371D01*
X132625302Y-107199271D01*
X132627205Y-107199875D01*
X132628968Y-107200820D01*
X132662553Y-107211088D01*
X132695994Y-107221696D01*
X132697980Y-107221919D01*
X132699891Y-107222503D01*
X132734820Y-107226051D01*
X132769694Y-107229963D01*
X132773597Y-107229990D01*
X132773674Y-107229998D01*
X132773745Y-107229991D01*
X132775000Y-107230000D01*
X133853002Y-107230000D01*
X135550002Y-108926999D01*
X135550002Y-110872998D01*
X135521279Y-110901721D01*
X135498982Y-110928867D01*
X135476437Y-110955735D01*
X135475475Y-110957485D01*
X135474206Y-110959030D01*
X135457609Y-110989982D01*
X135443197Y-111016198D01*
X135129857Y-110702857D01*
X135187459Y-110680515D01*
X135266938Y-110630076D01*
X135335106Y-110565160D01*
X135389367Y-110488240D01*
X135427655Y-110402245D01*
X135448510Y-110310451D01*
X135450011Y-110202934D01*
X135431727Y-110110593D01*
X135395856Y-110023563D01*
X135343764Y-109945158D01*
X135277434Y-109878364D01*
X135199394Y-109825725D01*
X135112617Y-109789247D01*
X135020406Y-109770319D01*
X134926276Y-109769662D01*
X134833810Y-109787301D01*
X134746532Y-109822564D01*
X134674072Y-109869980D01*
X134145044Y-109869980D01*
X134079404Y-109825705D01*
X133992627Y-109789227D01*
X133900416Y-109770299D01*
X133806286Y-109769642D01*
X133713820Y-109787281D01*
X133626542Y-109822544D01*
X133547775Y-109874087D01*
X133480519Y-109939949D01*
X133427337Y-110017619D01*
X133390254Y-110104140D01*
X133370683Y-110196216D01*
X133369369Y-110290340D01*
X133386361Y-110382926D01*
X133389161Y-110389998D01*
X132393653Y-110389998D01*
X132324079Y-110320424D01*
X132308342Y-110240945D01*
X132272471Y-110153915D01*
X132220379Y-110075510D01*
X132154049Y-110008716D01*
X132076009Y-109956077D01*
X131989232Y-109919599D01*
X131897021Y-109900671D01*
X131802891Y-109900014D01*
X131710425Y-109917653D01*
X131623147Y-109952916D01*
X131544380Y-110004459D01*
X131477124Y-110070321D01*
X131443803Y-110118985D01*
X130980000Y-109655182D01*
X130980000Y-106036618D01*
X131043010Y-106134390D01*
X131043010Y-106134390D01*
G37*
X131043010Y-106134390D02*
X131141096Y-106235961D01*
X131257041Y-106316545D01*
X131386431Y-106373074D01*
X131524337Y-106403395D01*
X131665505Y-106406352D01*
X131774697Y-106387099D01*
X131891298Y-106503700D01*
X132506300Y-107118701D01*
X132533421Y-107140978D01*
X132560313Y-107163543D01*
X132562064Y-107164505D01*
X132563608Y-107165774D01*
X132594560Y-107182371D01*
X132625302Y-107199271D01*
X132627205Y-107199875D01*
X132628968Y-107200820D01*
X132662553Y-107211088D01*
X132695994Y-107221696D01*
X132697980Y-107221919D01*
X132699891Y-107222503D01*
X132734820Y-107226051D01*
X132769694Y-107229963D01*
X132773597Y-107229990D01*
X132773674Y-107229998D01*
X132773745Y-107229991D01*
X132775000Y-107230000D01*
X133853002Y-107230000D01*
X135550002Y-108926999D01*
X135550002Y-110872998D01*
X135521279Y-110901721D01*
X135498982Y-110928867D01*
X135476437Y-110955735D01*
X135475475Y-110957485D01*
X135474206Y-110959030D01*
X135457609Y-110989982D01*
X135443197Y-111016198D01*
X135129857Y-110702857D01*
X135187459Y-110680515D01*
X135266938Y-110630076D01*
X135335106Y-110565160D01*
X135389367Y-110488240D01*
X135427655Y-110402245D01*
X135448510Y-110310451D01*
X135450011Y-110202934D01*
X135431727Y-110110593D01*
X135395856Y-110023563D01*
X135343764Y-109945158D01*
X135277434Y-109878364D01*
X135199394Y-109825725D01*
X135112617Y-109789247D01*
X135020406Y-109770319D01*
X134926276Y-109769662D01*
X134833810Y-109787301D01*
X134746532Y-109822564D01*
X134674072Y-109869980D01*
X134145044Y-109869980D01*
X134079404Y-109825705D01*
X133992627Y-109789227D01*
X133900416Y-109770299D01*
X133806286Y-109769642D01*
X133713820Y-109787281D01*
X133626542Y-109822544D01*
X133547775Y-109874087D01*
X133480519Y-109939949D01*
X133427337Y-110017619D01*
X133390254Y-110104140D01*
X133370683Y-110196216D01*
X133369369Y-110290340D01*
X133386361Y-110382926D01*
X133389161Y-110389998D01*
X132393653Y-110389998D01*
X132324079Y-110320424D01*
X132308342Y-110240945D01*
X132272471Y-110153915D01*
X132220379Y-110075510D01*
X132154049Y-110008716D01*
X132076009Y-109956077D01*
X131989232Y-109919599D01*
X131897021Y-109900671D01*
X131802891Y-109900014D01*
X131710425Y-109917653D01*
X131623147Y-109952916D01*
X131544380Y-110004459D01*
X131477124Y-110070321D01*
X131443803Y-110118985D01*
X130980000Y-109655182D01*
X130980000Y-106036618D01*
X131043010Y-106134390D01*
G36*
X131638285Y-104400858D02*
X131624142Y-104415000D01*
X132121736Y-104912594D01*
X132249913Y-104867563D01*
X132280461Y-104813884D01*
X132313010Y-104864390D01*
X132411096Y-104965961D01*
X132527041Y-105046545D01*
X132535225Y-105050120D01*
X132426662Y-105121161D01*
X132325779Y-105219953D01*
X132246006Y-105336459D01*
X132244786Y-105339306D01*
X132170660Y-105227737D01*
X132071166Y-105127546D01*
X132010621Y-105086708D01*
X132028012Y-105077997D01*
X132062563Y-105054913D01*
X132107594Y-104926736D01*
X131610000Y-104429142D01*
X131112406Y-104926736D01*
X131157437Y-105054913D01*
X131211170Y-105085492D01*
X131156662Y-105121161D01*
X131055779Y-105219953D01*
X130980000Y-105330626D01*
X130980000Y-104871046D01*
X131098264Y-104912594D01*
X131595858Y-104415000D01*
X131581716Y-104400858D01*
X131595858Y-104386716D01*
X131610000Y-104400858D01*
X131624143Y-104386716D01*
X131638285Y-104400858D01*
X131638285Y-104400858D01*
G37*
X131638285Y-104400858D02*
X131624142Y-104415000D01*
X132121736Y-104912594D01*
X132249913Y-104867563D01*
X132280461Y-104813884D01*
X132313010Y-104864390D01*
X132411096Y-104965961D01*
X132527041Y-105046545D01*
X132535225Y-105050120D01*
X132426662Y-105121161D01*
X132325779Y-105219953D01*
X132246006Y-105336459D01*
X132244786Y-105339306D01*
X132170660Y-105227737D01*
X132071166Y-105127546D01*
X132010621Y-105086708D01*
X132028012Y-105077997D01*
X132062563Y-105054913D01*
X132107594Y-104926736D01*
X131610000Y-104429142D01*
X131112406Y-104926736D01*
X131157437Y-105054913D01*
X131211170Y-105085492D01*
X131156662Y-105121161D01*
X131055779Y-105219953D01*
X130980000Y-105330626D01*
X130980000Y-104871046D01*
X131098264Y-104912594D01*
X131595858Y-104415000D01*
X131581716Y-104400858D01*
X131595858Y-104386716D01*
X131610000Y-104400858D01*
X131624143Y-104386716D01*
X131638285Y-104400858D01*
M02*
