G04 #@! TF.GenerationSoftware,KiCad,Pcbnew,5.0.2-bee76a0~70~ubuntu18.04.1*
G04 #@! TF.CreationDate,2018-12-18T09:47:30-08:00*
G04 #@! TF.ProjectId,Empyrean,456d7079-7265-4616-9e2e-6b696361645f,A*
G04 #@! TF.SameCoordinates,Original*
G04 #@! TF.FileFunction,Soldermask,Bot*
G04 #@! TF.FilePolarity,Negative*
%FSLAX46Y46*%
G04 Gerber Fmt 4.6, Leading zero omitted, Abs format (unit mm)*
G04 Created by KiCad (PCBNEW 5.0.2-bee76a0~70~ubuntu18.04.1) date Tue 18 Dec 2018 09:47:30 AM PST*
%MOMM*%
%LPD*%
G01*
G04 APERTURE LIST*
%ADD10C,0.100000*%
G04 APERTURE END LIST*
D10*
G36*
X137787223Y-143185128D02*
X137919174Y-143225155D01*
X138040780Y-143290155D01*
X138147369Y-143377630D01*
X138234845Y-143484219D01*
X138299845Y-143605825D01*
X138339872Y-143737776D01*
X138350000Y-143840610D01*
X138350000Y-144459390D01*
X138339872Y-144562224D01*
X138299845Y-144694175D01*
X138234845Y-144815781D01*
X138147370Y-144922370D01*
X138040781Y-145009845D01*
X137919175Y-145074845D01*
X137787224Y-145114872D01*
X137650000Y-145128387D01*
X137512777Y-145114872D01*
X137380826Y-145074845D01*
X137259220Y-145009845D01*
X137152631Y-144922370D01*
X137065155Y-144815781D01*
X137000155Y-144694175D01*
X136960128Y-144562224D01*
X136950000Y-144459390D01*
X136950000Y-143840611D01*
X136960128Y-143737777D01*
X137000155Y-143605826D01*
X137065155Y-143484220D01*
X137152630Y-143377631D01*
X137259219Y-143290155D01*
X137380825Y-143225155D01*
X137512776Y-143185128D01*
X137650000Y-143171613D01*
X137787223Y-143185128D01*
X137787223Y-143185128D01*
G37*
G36*
X130787223Y-143185128D02*
X130919174Y-143225155D01*
X131040780Y-143290155D01*
X131147369Y-143377630D01*
X131234845Y-143484219D01*
X131299845Y-143605825D01*
X131339872Y-143737776D01*
X131350000Y-143840610D01*
X131350000Y-144459390D01*
X131339872Y-144562224D01*
X131299845Y-144694175D01*
X131234845Y-144815781D01*
X131147370Y-144922370D01*
X131040781Y-145009845D01*
X130919175Y-145074845D01*
X130787224Y-145114872D01*
X130650000Y-145128387D01*
X130512777Y-145114872D01*
X130380826Y-145074845D01*
X130259220Y-145009845D01*
X130152631Y-144922370D01*
X130065155Y-144815781D01*
X130000155Y-144694175D01*
X129960128Y-144562224D01*
X129950000Y-144459390D01*
X129950000Y-143840611D01*
X129960128Y-143737777D01*
X130000155Y-143605826D01*
X130065155Y-143484220D01*
X130152630Y-143377631D01*
X130259219Y-143290155D01*
X130380825Y-143225155D01*
X130512776Y-143185128D01*
X130650000Y-143171613D01*
X130787223Y-143185128D01*
X130787223Y-143185128D01*
G37*
G36*
X141196231Y-139963388D02*
X141215173Y-139978934D01*
X141236784Y-139990485D01*
X141260233Y-139997598D01*
X141284619Y-140000000D01*
X141370000Y-140000000D01*
X141370000Y-140085381D01*
X141372402Y-140109767D01*
X141379515Y-140133216D01*
X141391066Y-140154827D01*
X141406612Y-140173769D01*
X141850000Y-140617157D01*
X141850000Y-141782843D01*
X141406612Y-142226231D01*
X141391066Y-142245173D01*
X141379515Y-142266784D01*
X141372402Y-142290233D01*
X141370000Y-142314619D01*
X141370000Y-142400000D01*
X141284619Y-142400000D01*
X141260233Y-142402402D01*
X141236784Y-142409515D01*
X141215173Y-142421066D01*
X141196231Y-142436612D01*
X140950000Y-142682843D01*
X140950000Y-142525000D01*
X140947598Y-142500614D01*
X140940485Y-142477165D01*
X140928934Y-142455554D01*
X140913388Y-142436612D01*
X140894446Y-142421066D01*
X140872835Y-142409515D01*
X140849386Y-142402402D01*
X140825000Y-142400000D01*
X140575000Y-142400000D01*
X140550614Y-142402402D01*
X140527165Y-142409515D01*
X140505554Y-142421066D01*
X140486612Y-142436612D01*
X140471066Y-142455554D01*
X140459515Y-142477165D01*
X140452402Y-142500614D01*
X140450000Y-142525000D01*
X140450000Y-142682843D01*
X140203769Y-142436612D01*
X140184827Y-142421066D01*
X140163216Y-142409515D01*
X140139767Y-142402402D01*
X140115381Y-142400000D01*
X140030000Y-142400000D01*
X140030000Y-142314619D01*
X140027598Y-142290233D01*
X140020485Y-142266784D01*
X140008934Y-142245173D01*
X139993388Y-142226231D01*
X139550000Y-141782843D01*
X139550000Y-140617157D01*
X139993388Y-140173769D01*
X140008934Y-140154827D01*
X140020485Y-140133216D01*
X140027598Y-140109767D01*
X140030000Y-140085381D01*
X140030000Y-140000000D01*
X140115381Y-140000000D01*
X140139767Y-139997598D01*
X140163216Y-139990485D01*
X140184827Y-139978934D01*
X140203769Y-139963388D01*
X140450000Y-139717157D01*
X140450000Y-139875000D01*
X140452402Y-139899386D01*
X140459515Y-139922835D01*
X140471066Y-139944446D01*
X140486612Y-139963388D01*
X140505554Y-139978934D01*
X140527165Y-139990485D01*
X140550614Y-139997598D01*
X140575000Y-140000000D01*
X140825000Y-140000000D01*
X140849386Y-139997598D01*
X140872835Y-139990485D01*
X140894446Y-139978934D01*
X140913388Y-139963388D01*
X140928934Y-139944446D01*
X140940485Y-139922835D01*
X140947598Y-139899386D01*
X140950000Y-139875000D01*
X140950000Y-139717157D01*
X141196231Y-139963388D01*
X141196231Y-139963388D01*
G37*
G36*
X136932323Y-140784767D02*
X137059561Y-140823364D01*
X137176824Y-140886042D01*
X137279606Y-140970394D01*
X137363958Y-141073176D01*
X137426636Y-141190439D01*
X137465233Y-141317677D01*
X137478266Y-141450000D01*
X137465233Y-141582323D01*
X137426636Y-141709561D01*
X137363958Y-141826824D01*
X137279606Y-141929606D01*
X137176824Y-142013958D01*
X137059561Y-142076636D01*
X136932323Y-142115233D01*
X136833159Y-142125000D01*
X136466841Y-142125000D01*
X136367677Y-142115233D01*
X136240439Y-142076636D01*
X136123176Y-142013958D01*
X136020394Y-141929606D01*
X135936042Y-141826824D01*
X135873364Y-141709561D01*
X135834767Y-141582323D01*
X135821734Y-141450000D01*
X135834767Y-141317677D01*
X135873364Y-141190439D01*
X135936042Y-141073176D01*
X136020394Y-140970394D01*
X136123176Y-140886042D01*
X136240439Y-140823364D01*
X136367677Y-140784767D01*
X136466841Y-140775000D01*
X136833159Y-140775000D01*
X136932323Y-140784767D01*
X136932323Y-140784767D01*
G37*
G36*
X131932323Y-140784767D02*
X132059561Y-140823364D01*
X132176824Y-140886042D01*
X132279606Y-140970394D01*
X132363958Y-141073176D01*
X132426636Y-141190439D01*
X132465233Y-141317677D01*
X132478266Y-141450000D01*
X132465233Y-141582323D01*
X132426636Y-141709561D01*
X132363958Y-141826824D01*
X132279606Y-141929606D01*
X132176824Y-142013958D01*
X132059561Y-142076636D01*
X131932323Y-142115233D01*
X131833159Y-142125000D01*
X131466841Y-142125000D01*
X131367677Y-142115233D01*
X131240439Y-142076636D01*
X131123176Y-142013958D01*
X131020394Y-141929606D01*
X130936042Y-141826824D01*
X130873364Y-141709561D01*
X130834767Y-141582323D01*
X130821734Y-141450000D01*
X130834767Y-141317677D01*
X130873364Y-141190439D01*
X130936042Y-141073176D01*
X131020394Y-140970394D01*
X131123176Y-140886042D01*
X131240439Y-140823364D01*
X131367677Y-140784767D01*
X131466841Y-140775000D01*
X131833159Y-140775000D01*
X131932323Y-140784767D01*
X131932323Y-140784767D01*
G37*
G36*
X141928707Y-136067597D02*
X142005836Y-136075193D01*
X142137787Y-136115220D01*
X142203763Y-136135233D01*
X142365307Y-136221581D01*
X142386171Y-136232733D01*
X142505705Y-136330832D01*
X142526075Y-136344443D01*
X142548714Y-136353820D01*
X142572747Y-136358601D01*
X142597252Y-136358601D01*
X142621285Y-136353821D01*
X142643924Y-136344443D01*
X142664295Y-136330832D01*
X142783829Y-136232733D01*
X142804693Y-136221581D01*
X142966237Y-136135233D01*
X143032213Y-136115220D01*
X143164164Y-136075193D01*
X143241293Y-136067597D01*
X143318420Y-136060000D01*
X143421580Y-136060000D01*
X143498707Y-136067597D01*
X143575836Y-136075193D01*
X143707787Y-136115220D01*
X143773763Y-136135233D01*
X143956172Y-136232733D01*
X144116054Y-136363946D01*
X144247267Y-136523828D01*
X144344767Y-136706237D01*
X144344767Y-136706238D01*
X144404807Y-136904164D01*
X144425080Y-137110000D01*
X144404807Y-137315836D01*
X144364780Y-137447787D01*
X144344767Y-137513763D01*
X144247267Y-137696172D01*
X144116054Y-137856054D01*
X143956172Y-137987267D01*
X143773763Y-138084767D01*
X143707787Y-138104780D01*
X143575836Y-138144807D01*
X143498707Y-138152403D01*
X143421580Y-138160000D01*
X143318420Y-138160000D01*
X143241293Y-138152403D01*
X143164164Y-138144807D01*
X143032213Y-138104780D01*
X142966237Y-138084767D01*
X142783831Y-137987268D01*
X142783829Y-137987267D01*
X142664295Y-137889168D01*
X142643925Y-137875557D01*
X142621286Y-137866180D01*
X142597253Y-137861399D01*
X142572748Y-137861399D01*
X142548715Y-137866179D01*
X142526076Y-137875557D01*
X142505705Y-137889168D01*
X142386171Y-137987267D01*
X142386169Y-137987268D01*
X142203763Y-138084767D01*
X142137787Y-138104780D01*
X142005836Y-138144807D01*
X141928707Y-138152403D01*
X141851580Y-138160000D01*
X141748420Y-138160000D01*
X141671293Y-138152403D01*
X141594164Y-138144807D01*
X141462213Y-138104780D01*
X141396237Y-138084767D01*
X141213828Y-137987267D01*
X141053946Y-137856054D01*
X140922733Y-137696172D01*
X140825233Y-137513763D01*
X140805220Y-137447787D01*
X140765193Y-137315836D01*
X140744920Y-137110000D01*
X140765193Y-136904164D01*
X140825233Y-136706238D01*
X140825233Y-136706237D01*
X140922733Y-136523828D01*
X141053946Y-136363946D01*
X141213828Y-136232733D01*
X141396237Y-136135233D01*
X141462213Y-136115220D01*
X141594164Y-136075193D01*
X141671293Y-136067597D01*
X141748420Y-136060000D01*
X141851580Y-136060000D01*
X141928707Y-136067597D01*
X141928707Y-136067597D01*
G37*
G36*
X125138707Y-136067597D02*
X125215836Y-136075193D01*
X125347787Y-136115220D01*
X125413763Y-136135233D01*
X125511263Y-136187349D01*
X125596171Y-136232733D01*
X125596173Y-136232734D01*
X125596172Y-136232734D01*
X125700701Y-136318518D01*
X125721075Y-136332132D01*
X125743714Y-136341510D01*
X125767748Y-136346290D01*
X125792252Y-136346290D01*
X125816286Y-136341510D01*
X125838925Y-136332132D01*
X125859299Y-136318518D01*
X125963828Y-136232734D01*
X125963827Y-136232734D01*
X125963829Y-136232733D01*
X126048737Y-136187349D01*
X126146237Y-136135233D01*
X126212213Y-136115220D01*
X126344164Y-136075193D01*
X126421293Y-136067597D01*
X126498420Y-136060000D01*
X126601580Y-136060000D01*
X126678707Y-136067597D01*
X126755836Y-136075193D01*
X126887787Y-136115220D01*
X126953763Y-136135233D01*
X127136172Y-136232733D01*
X127296054Y-136363946D01*
X127427267Y-136523828D01*
X127524767Y-136706237D01*
X127524767Y-136706238D01*
X127584807Y-136904164D01*
X127605080Y-137110000D01*
X127584807Y-137315836D01*
X127544780Y-137447787D01*
X127524767Y-137513763D01*
X127427267Y-137696172D01*
X127296054Y-137856054D01*
X127136172Y-137987267D01*
X126953763Y-138084767D01*
X126887787Y-138104780D01*
X126755836Y-138144807D01*
X126678707Y-138152403D01*
X126601580Y-138160000D01*
X126498420Y-138160000D01*
X126421293Y-138152403D01*
X126344164Y-138144807D01*
X126212213Y-138104780D01*
X126146237Y-138084767D01*
X126048737Y-138032651D01*
X125963829Y-137987267D01*
X125945145Y-137971933D01*
X125859299Y-137901482D01*
X125838925Y-137887868D01*
X125816286Y-137878490D01*
X125792252Y-137873710D01*
X125767748Y-137873710D01*
X125743714Y-137878490D01*
X125721075Y-137887868D01*
X125700701Y-137901482D01*
X125614855Y-137971933D01*
X125596171Y-137987267D01*
X125511263Y-138032651D01*
X125413763Y-138084767D01*
X125347787Y-138104780D01*
X125215836Y-138144807D01*
X125138707Y-138152403D01*
X125061580Y-138160000D01*
X124958420Y-138160000D01*
X124881293Y-138152403D01*
X124804164Y-138144807D01*
X124672213Y-138104780D01*
X124606237Y-138084767D01*
X124423828Y-137987267D01*
X124263946Y-137856054D01*
X124132733Y-137696172D01*
X124035233Y-137513763D01*
X124015220Y-137447787D01*
X123975193Y-137315836D01*
X123954920Y-137110000D01*
X123975193Y-136904164D01*
X124035233Y-136706238D01*
X124035233Y-136706237D01*
X124132733Y-136523828D01*
X124263946Y-136363946D01*
X124423828Y-136232733D01*
X124606237Y-136135233D01*
X124672213Y-136115220D01*
X124804164Y-136075193D01*
X124881293Y-136067597D01*
X124958420Y-136060000D01*
X125061580Y-136060000D01*
X125138707Y-136067597D01*
X125138707Y-136067597D01*
G37*
G36*
X125138707Y-133527596D02*
X125215836Y-133535193D01*
X125347787Y-133575220D01*
X125413763Y-133595233D01*
X125511263Y-133647349D01*
X125596171Y-133692733D01*
X125596173Y-133692734D01*
X125596172Y-133692734D01*
X125700701Y-133778518D01*
X125721075Y-133792132D01*
X125743714Y-133801510D01*
X125767748Y-133806290D01*
X125792252Y-133806290D01*
X125816286Y-133801510D01*
X125838925Y-133792132D01*
X125859299Y-133778518D01*
X125963828Y-133692734D01*
X125963827Y-133692734D01*
X125963829Y-133692733D01*
X126048737Y-133647349D01*
X126146237Y-133595233D01*
X126212213Y-133575220D01*
X126344164Y-133535193D01*
X126421293Y-133527596D01*
X126498420Y-133520000D01*
X126601580Y-133520000D01*
X126678707Y-133527596D01*
X126755836Y-133535193D01*
X126887787Y-133575220D01*
X126953763Y-133595233D01*
X127136172Y-133692733D01*
X127296054Y-133823946D01*
X127427267Y-133983828D01*
X127524767Y-134166237D01*
X127524767Y-134166238D01*
X127584807Y-134364164D01*
X127605080Y-134570000D01*
X127584807Y-134775836D01*
X127544780Y-134907787D01*
X127524767Y-134973763D01*
X127427267Y-135156172D01*
X127296054Y-135316054D01*
X127136172Y-135447267D01*
X126953763Y-135544767D01*
X126887787Y-135564780D01*
X126755836Y-135604807D01*
X126678707Y-135612404D01*
X126601580Y-135620000D01*
X126498420Y-135620000D01*
X126421293Y-135612404D01*
X126344164Y-135604807D01*
X126212213Y-135564780D01*
X126146237Y-135544767D01*
X126048737Y-135492651D01*
X125963829Y-135447267D01*
X125945145Y-135431933D01*
X125859299Y-135361482D01*
X125838925Y-135347868D01*
X125816286Y-135338490D01*
X125792252Y-135333710D01*
X125767748Y-135333710D01*
X125743714Y-135338490D01*
X125721075Y-135347868D01*
X125700701Y-135361482D01*
X125614855Y-135431933D01*
X125596171Y-135447267D01*
X125511263Y-135492651D01*
X125413763Y-135544767D01*
X125347787Y-135564780D01*
X125215836Y-135604807D01*
X125138707Y-135612404D01*
X125061580Y-135620000D01*
X124958420Y-135620000D01*
X124881293Y-135612404D01*
X124804164Y-135604807D01*
X124672213Y-135564780D01*
X124606237Y-135544767D01*
X124423828Y-135447267D01*
X124263946Y-135316054D01*
X124132733Y-135156172D01*
X124035233Y-134973763D01*
X124015220Y-134907787D01*
X123975193Y-134775836D01*
X123954920Y-134570000D01*
X123975193Y-134364164D01*
X124035233Y-134166238D01*
X124035233Y-134166237D01*
X124132733Y-133983828D01*
X124263946Y-133823946D01*
X124423828Y-133692733D01*
X124606237Y-133595233D01*
X124672213Y-133575220D01*
X124804164Y-133535193D01*
X124881293Y-133527596D01*
X124958420Y-133520000D01*
X125061580Y-133520000D01*
X125138707Y-133527596D01*
X125138707Y-133527596D01*
G37*
G36*
X141928707Y-133527596D02*
X142005836Y-133535193D01*
X142137787Y-133575220D01*
X142203763Y-133595233D01*
X142365307Y-133681581D01*
X142386171Y-133692733D01*
X142505705Y-133790832D01*
X142526075Y-133804443D01*
X142548714Y-133813820D01*
X142572747Y-133818601D01*
X142597252Y-133818601D01*
X142621285Y-133813821D01*
X142643924Y-133804443D01*
X142664295Y-133790832D01*
X142783829Y-133692733D01*
X142804693Y-133681581D01*
X142966237Y-133595233D01*
X143032213Y-133575220D01*
X143164164Y-133535193D01*
X143241293Y-133527596D01*
X143318420Y-133520000D01*
X143421580Y-133520000D01*
X143498707Y-133527596D01*
X143575836Y-133535193D01*
X143707787Y-133575220D01*
X143773763Y-133595233D01*
X143956172Y-133692733D01*
X144116054Y-133823946D01*
X144247267Y-133983828D01*
X144344767Y-134166237D01*
X144344767Y-134166238D01*
X144404807Y-134364164D01*
X144425080Y-134570000D01*
X144404807Y-134775836D01*
X144364780Y-134907787D01*
X144344767Y-134973763D01*
X144247267Y-135156172D01*
X144116054Y-135316054D01*
X143956172Y-135447267D01*
X143773763Y-135544767D01*
X143707787Y-135564780D01*
X143575836Y-135604807D01*
X143498707Y-135612404D01*
X143421580Y-135620000D01*
X143318420Y-135620000D01*
X143241293Y-135612404D01*
X143164164Y-135604807D01*
X143032213Y-135564780D01*
X142966237Y-135544767D01*
X142783831Y-135447268D01*
X142783829Y-135447267D01*
X142664295Y-135349168D01*
X142643925Y-135335557D01*
X142621286Y-135326180D01*
X142597253Y-135321399D01*
X142572748Y-135321399D01*
X142548715Y-135326179D01*
X142526076Y-135335557D01*
X142505705Y-135349168D01*
X142386171Y-135447267D01*
X142386169Y-135447268D01*
X142203763Y-135544767D01*
X142137787Y-135564780D01*
X142005836Y-135604807D01*
X141928707Y-135612404D01*
X141851580Y-135620000D01*
X141748420Y-135620000D01*
X141671293Y-135612404D01*
X141594164Y-135604807D01*
X141462213Y-135564780D01*
X141396237Y-135544767D01*
X141213828Y-135447267D01*
X141053946Y-135316054D01*
X140922733Y-135156172D01*
X140825233Y-134973763D01*
X140805220Y-134907787D01*
X140765193Y-134775836D01*
X140744920Y-134570000D01*
X140765193Y-134364164D01*
X140825233Y-134166238D01*
X140825233Y-134166237D01*
X140922733Y-133983828D01*
X141053946Y-133823946D01*
X141213828Y-133692733D01*
X141396237Y-133595233D01*
X141462213Y-133575220D01*
X141594164Y-133535193D01*
X141671293Y-133527596D01*
X141748420Y-133520000D01*
X141851580Y-133520000D01*
X141928707Y-133527596D01*
X141928707Y-133527596D01*
G37*
G36*
X125138707Y-130987596D02*
X125215836Y-130995193D01*
X125347787Y-131035220D01*
X125413763Y-131055233D01*
X125511263Y-131107349D01*
X125596171Y-131152733D01*
X125596173Y-131152734D01*
X125596172Y-131152734D01*
X125700701Y-131238518D01*
X125721075Y-131252132D01*
X125743714Y-131261510D01*
X125767748Y-131266290D01*
X125792252Y-131266290D01*
X125816286Y-131261510D01*
X125838925Y-131252132D01*
X125859299Y-131238518D01*
X125963828Y-131152734D01*
X125963827Y-131152734D01*
X125963829Y-131152733D01*
X126048737Y-131107349D01*
X126146237Y-131055233D01*
X126212213Y-131035220D01*
X126344164Y-130995193D01*
X126421293Y-130987596D01*
X126498420Y-130980000D01*
X126601580Y-130980000D01*
X126678707Y-130987596D01*
X126755836Y-130995193D01*
X126887787Y-131035220D01*
X126953763Y-131055233D01*
X127136172Y-131152733D01*
X127296054Y-131283946D01*
X127427267Y-131443828D01*
X127524767Y-131626237D01*
X127524767Y-131626238D01*
X127584807Y-131824164D01*
X127605080Y-132030000D01*
X127584807Y-132235836D01*
X127544780Y-132367787D01*
X127524767Y-132433763D01*
X127427267Y-132616172D01*
X127296054Y-132776054D01*
X127136172Y-132907267D01*
X126953763Y-133004767D01*
X126887787Y-133024780D01*
X126755836Y-133064807D01*
X126678707Y-133072404D01*
X126601580Y-133080000D01*
X126498420Y-133080000D01*
X126421293Y-133072404D01*
X126344164Y-133064807D01*
X126212213Y-133024780D01*
X126146237Y-133004767D01*
X126048737Y-132952651D01*
X125963829Y-132907267D01*
X125945145Y-132891933D01*
X125859299Y-132821482D01*
X125838925Y-132807868D01*
X125816286Y-132798490D01*
X125792252Y-132793710D01*
X125767748Y-132793710D01*
X125743714Y-132798490D01*
X125721075Y-132807868D01*
X125700701Y-132821482D01*
X125614855Y-132891933D01*
X125596171Y-132907267D01*
X125511263Y-132952651D01*
X125413763Y-133004767D01*
X125347787Y-133024780D01*
X125215836Y-133064807D01*
X125138707Y-133072404D01*
X125061580Y-133080000D01*
X124958420Y-133080000D01*
X124881293Y-133072404D01*
X124804164Y-133064807D01*
X124672213Y-133024780D01*
X124606237Y-133004767D01*
X124423828Y-132907267D01*
X124263946Y-132776054D01*
X124132733Y-132616172D01*
X124035233Y-132433763D01*
X124015220Y-132367787D01*
X123975193Y-132235836D01*
X123954920Y-132030000D01*
X123975193Y-131824164D01*
X124035233Y-131626238D01*
X124035233Y-131626237D01*
X124132733Y-131443828D01*
X124263946Y-131283946D01*
X124423828Y-131152733D01*
X124606237Y-131055233D01*
X124672213Y-131035220D01*
X124804164Y-130995193D01*
X124881293Y-130987596D01*
X124958420Y-130980000D01*
X125061580Y-130980000D01*
X125138707Y-130987596D01*
X125138707Y-130987596D01*
G37*
G36*
X141928707Y-130987596D02*
X142005836Y-130995193D01*
X142137787Y-131035220D01*
X142203763Y-131055233D01*
X142365307Y-131141581D01*
X142386171Y-131152733D01*
X142505705Y-131250832D01*
X142526075Y-131264443D01*
X142548714Y-131273820D01*
X142572747Y-131278601D01*
X142597252Y-131278601D01*
X142621285Y-131273821D01*
X142643924Y-131264443D01*
X142664295Y-131250832D01*
X142783829Y-131152733D01*
X142804693Y-131141581D01*
X142966237Y-131055233D01*
X143032213Y-131035220D01*
X143164164Y-130995193D01*
X143241293Y-130987596D01*
X143318420Y-130980000D01*
X143421580Y-130980000D01*
X143498707Y-130987596D01*
X143575836Y-130995193D01*
X143707787Y-131035220D01*
X143773763Y-131055233D01*
X143956172Y-131152733D01*
X144116054Y-131283946D01*
X144247267Y-131443828D01*
X144344767Y-131626237D01*
X144344767Y-131626238D01*
X144404807Y-131824164D01*
X144425080Y-132030000D01*
X144404807Y-132235836D01*
X144364780Y-132367787D01*
X144344767Y-132433763D01*
X144247267Y-132616172D01*
X144116054Y-132776054D01*
X143956172Y-132907267D01*
X143773763Y-133004767D01*
X143707787Y-133024780D01*
X143575836Y-133064807D01*
X143498707Y-133072404D01*
X143421580Y-133080000D01*
X143318420Y-133080000D01*
X143241293Y-133072404D01*
X143164164Y-133064807D01*
X143032213Y-133024780D01*
X142966237Y-133004767D01*
X142783831Y-132907268D01*
X142783829Y-132907267D01*
X142664295Y-132809168D01*
X142643925Y-132795557D01*
X142621286Y-132786180D01*
X142597253Y-132781399D01*
X142572748Y-132781399D01*
X142548715Y-132786179D01*
X142526076Y-132795557D01*
X142505705Y-132809168D01*
X142386171Y-132907267D01*
X142386169Y-132907268D01*
X142203763Y-133004767D01*
X142137787Y-133024780D01*
X142005836Y-133064807D01*
X141928707Y-133072404D01*
X141851580Y-133080000D01*
X141748420Y-133080000D01*
X141671293Y-133072404D01*
X141594164Y-133064807D01*
X141462213Y-133024780D01*
X141396237Y-133004767D01*
X141213828Y-132907267D01*
X141053946Y-132776054D01*
X140922733Y-132616172D01*
X140825233Y-132433763D01*
X140805220Y-132367787D01*
X140765193Y-132235836D01*
X140744920Y-132030000D01*
X140765193Y-131824164D01*
X140825233Y-131626238D01*
X140825233Y-131626237D01*
X140922733Y-131443828D01*
X141053946Y-131283946D01*
X141213828Y-131152733D01*
X141396237Y-131055233D01*
X141462213Y-131035220D01*
X141594164Y-130995193D01*
X141671293Y-130987596D01*
X141748420Y-130980000D01*
X141851580Y-130980000D01*
X141928707Y-130987596D01*
X141928707Y-130987596D01*
G37*
G36*
X141928707Y-128447596D02*
X142005836Y-128455193D01*
X142137787Y-128495220D01*
X142203763Y-128515233D01*
X142365307Y-128601581D01*
X142386171Y-128612733D01*
X142505705Y-128710832D01*
X142526075Y-128724443D01*
X142548714Y-128733820D01*
X142572747Y-128738601D01*
X142597252Y-128738601D01*
X142621285Y-128733821D01*
X142643924Y-128724443D01*
X142664295Y-128710832D01*
X142783829Y-128612733D01*
X142804693Y-128601581D01*
X142966237Y-128515233D01*
X143032213Y-128495220D01*
X143164164Y-128455193D01*
X143241293Y-128447596D01*
X143318420Y-128440000D01*
X143421580Y-128440000D01*
X143498707Y-128447596D01*
X143575836Y-128455193D01*
X143707787Y-128495220D01*
X143773763Y-128515233D01*
X143956172Y-128612733D01*
X144116054Y-128743946D01*
X144247267Y-128903828D01*
X144344767Y-129086237D01*
X144344767Y-129086238D01*
X144404807Y-129284164D01*
X144425080Y-129490000D01*
X144404807Y-129695836D01*
X144364780Y-129827787D01*
X144344767Y-129893763D01*
X144247267Y-130076172D01*
X144116054Y-130236054D01*
X143956172Y-130367267D01*
X143773763Y-130464767D01*
X143707787Y-130484780D01*
X143575836Y-130524807D01*
X143498707Y-130532403D01*
X143421580Y-130540000D01*
X143318420Y-130540000D01*
X143241293Y-130532403D01*
X143164164Y-130524807D01*
X143032213Y-130484780D01*
X142966237Y-130464767D01*
X142783831Y-130367268D01*
X142783829Y-130367267D01*
X142664295Y-130269168D01*
X142643925Y-130255557D01*
X142621286Y-130246180D01*
X142597253Y-130241399D01*
X142572748Y-130241399D01*
X142548715Y-130246179D01*
X142526076Y-130255557D01*
X142505705Y-130269168D01*
X142386171Y-130367267D01*
X142386169Y-130367268D01*
X142203763Y-130464767D01*
X142137787Y-130484780D01*
X142005836Y-130524807D01*
X141928707Y-130532403D01*
X141851580Y-130540000D01*
X141748420Y-130540000D01*
X141671293Y-130532403D01*
X141594164Y-130524807D01*
X141462213Y-130484780D01*
X141396237Y-130464767D01*
X141213828Y-130367267D01*
X141053946Y-130236054D01*
X140922733Y-130076172D01*
X140825233Y-129893763D01*
X140805220Y-129827787D01*
X140765193Y-129695836D01*
X140744920Y-129490000D01*
X140765193Y-129284164D01*
X140825233Y-129086238D01*
X140825233Y-129086237D01*
X140922733Y-128903828D01*
X141053946Y-128743946D01*
X141213828Y-128612733D01*
X141396237Y-128515233D01*
X141462213Y-128495220D01*
X141594164Y-128455193D01*
X141671293Y-128447596D01*
X141748420Y-128440000D01*
X141851580Y-128440000D01*
X141928707Y-128447596D01*
X141928707Y-128447596D01*
G37*
G36*
X125138707Y-128447596D02*
X125215836Y-128455193D01*
X125347787Y-128495220D01*
X125413763Y-128515233D01*
X125511263Y-128567349D01*
X125596171Y-128612733D01*
X125596173Y-128612734D01*
X125596172Y-128612734D01*
X125700701Y-128698518D01*
X125721075Y-128712132D01*
X125743714Y-128721510D01*
X125767748Y-128726290D01*
X125792252Y-128726290D01*
X125816286Y-128721510D01*
X125838925Y-128712132D01*
X125859299Y-128698518D01*
X125963828Y-128612734D01*
X125963827Y-128612734D01*
X125963829Y-128612733D01*
X126048737Y-128567349D01*
X126146237Y-128515233D01*
X126212213Y-128495220D01*
X126344164Y-128455193D01*
X126421293Y-128447596D01*
X126498420Y-128440000D01*
X126601580Y-128440000D01*
X126678707Y-128447596D01*
X126755836Y-128455193D01*
X126887787Y-128495220D01*
X126953763Y-128515233D01*
X127136172Y-128612733D01*
X127296054Y-128743946D01*
X127427267Y-128903828D01*
X127524767Y-129086237D01*
X127524767Y-129086238D01*
X127584807Y-129284164D01*
X127605080Y-129490000D01*
X127584807Y-129695836D01*
X127544780Y-129827787D01*
X127524767Y-129893763D01*
X127427267Y-130076172D01*
X127296054Y-130236054D01*
X127136172Y-130367267D01*
X126953763Y-130464767D01*
X126887787Y-130484780D01*
X126755836Y-130524807D01*
X126678707Y-130532403D01*
X126601580Y-130540000D01*
X126498420Y-130540000D01*
X126421293Y-130532403D01*
X126344164Y-130524807D01*
X126212213Y-130484780D01*
X126146237Y-130464767D01*
X126048737Y-130412651D01*
X125963829Y-130367267D01*
X125945145Y-130351933D01*
X125859299Y-130281482D01*
X125838925Y-130267868D01*
X125816286Y-130258490D01*
X125792252Y-130253710D01*
X125767748Y-130253710D01*
X125743714Y-130258490D01*
X125721075Y-130267868D01*
X125700701Y-130281482D01*
X125614855Y-130351933D01*
X125596171Y-130367267D01*
X125511263Y-130412651D01*
X125413763Y-130464767D01*
X125347787Y-130484780D01*
X125215836Y-130524807D01*
X125138707Y-130532403D01*
X125061580Y-130540000D01*
X124958420Y-130540000D01*
X124881293Y-130532403D01*
X124804164Y-130524807D01*
X124672213Y-130484780D01*
X124606237Y-130464767D01*
X124423828Y-130367267D01*
X124263946Y-130236054D01*
X124132733Y-130076172D01*
X124035233Y-129893763D01*
X124015220Y-129827787D01*
X123975193Y-129695836D01*
X123954920Y-129490000D01*
X123975193Y-129284164D01*
X124035233Y-129086238D01*
X124035233Y-129086237D01*
X124132733Y-128903828D01*
X124263946Y-128743946D01*
X124423828Y-128612733D01*
X124606237Y-128515233D01*
X124672213Y-128495220D01*
X124804164Y-128455193D01*
X124881293Y-128447596D01*
X124958420Y-128440000D01*
X125061580Y-128440000D01*
X125138707Y-128447596D01*
X125138707Y-128447596D01*
G37*
G36*
X141928707Y-125907597D02*
X142005836Y-125915193D01*
X142137787Y-125955220D01*
X142203763Y-125975233D01*
X142365307Y-126061581D01*
X142386171Y-126072733D01*
X142505705Y-126170832D01*
X142526075Y-126184443D01*
X142548714Y-126193820D01*
X142572747Y-126198601D01*
X142597252Y-126198601D01*
X142621285Y-126193821D01*
X142643924Y-126184443D01*
X142664295Y-126170832D01*
X142783829Y-126072733D01*
X142804693Y-126061581D01*
X142966237Y-125975233D01*
X143032213Y-125955220D01*
X143164164Y-125915193D01*
X143241293Y-125907597D01*
X143318420Y-125900000D01*
X143421580Y-125900000D01*
X143498707Y-125907597D01*
X143575836Y-125915193D01*
X143707787Y-125955220D01*
X143773763Y-125975233D01*
X143956172Y-126072733D01*
X144116054Y-126203946D01*
X144247267Y-126363828D01*
X144344767Y-126546237D01*
X144344767Y-126546238D01*
X144404807Y-126744164D01*
X144425080Y-126950000D01*
X144404807Y-127155836D01*
X144364780Y-127287787D01*
X144344767Y-127353763D01*
X144247267Y-127536172D01*
X144116054Y-127696054D01*
X143956172Y-127827267D01*
X143773763Y-127924767D01*
X143707787Y-127944780D01*
X143575836Y-127984807D01*
X143498707Y-127992404D01*
X143421580Y-128000000D01*
X143318420Y-128000000D01*
X143241293Y-127992404D01*
X143164164Y-127984807D01*
X143032213Y-127944780D01*
X142966237Y-127924767D01*
X142783831Y-127827268D01*
X142783829Y-127827267D01*
X142664295Y-127729168D01*
X142643925Y-127715557D01*
X142621286Y-127706180D01*
X142597253Y-127701399D01*
X142572748Y-127701399D01*
X142548715Y-127706179D01*
X142526076Y-127715557D01*
X142505705Y-127729168D01*
X142386171Y-127827267D01*
X142386169Y-127827268D01*
X142203763Y-127924767D01*
X142137787Y-127944780D01*
X142005836Y-127984807D01*
X141928707Y-127992404D01*
X141851580Y-128000000D01*
X141748420Y-128000000D01*
X141671293Y-127992404D01*
X141594164Y-127984807D01*
X141462213Y-127944780D01*
X141396237Y-127924767D01*
X141213828Y-127827267D01*
X141053946Y-127696054D01*
X140922733Y-127536172D01*
X140825233Y-127353763D01*
X140805220Y-127287787D01*
X140765193Y-127155836D01*
X140744920Y-126950000D01*
X140765193Y-126744164D01*
X140825233Y-126546238D01*
X140825233Y-126546237D01*
X140922733Y-126363828D01*
X141053946Y-126203946D01*
X141213828Y-126072733D01*
X141396237Y-125975233D01*
X141462213Y-125955220D01*
X141594164Y-125915193D01*
X141671293Y-125907597D01*
X141748420Y-125900000D01*
X141851580Y-125900000D01*
X141928707Y-125907597D01*
X141928707Y-125907597D01*
G37*
G36*
X125138707Y-125907597D02*
X125215836Y-125915193D01*
X125347787Y-125955220D01*
X125413763Y-125975233D01*
X125511263Y-126027349D01*
X125596171Y-126072733D01*
X125596173Y-126072734D01*
X125596172Y-126072734D01*
X125700701Y-126158518D01*
X125721075Y-126172132D01*
X125743714Y-126181510D01*
X125767748Y-126186290D01*
X125792252Y-126186290D01*
X125816286Y-126181510D01*
X125838925Y-126172132D01*
X125859299Y-126158518D01*
X125963828Y-126072734D01*
X125963827Y-126072734D01*
X125963829Y-126072733D01*
X126048737Y-126027349D01*
X126146237Y-125975233D01*
X126212213Y-125955220D01*
X126344164Y-125915193D01*
X126421293Y-125907597D01*
X126498420Y-125900000D01*
X126601580Y-125900000D01*
X126678707Y-125907597D01*
X126755836Y-125915193D01*
X126887787Y-125955220D01*
X126953763Y-125975233D01*
X127136172Y-126072733D01*
X127296054Y-126203946D01*
X127427267Y-126363828D01*
X127524767Y-126546237D01*
X127524767Y-126546238D01*
X127584807Y-126744164D01*
X127605080Y-126950000D01*
X127584807Y-127155836D01*
X127544780Y-127287787D01*
X127524767Y-127353763D01*
X127427267Y-127536172D01*
X127296054Y-127696054D01*
X127136172Y-127827267D01*
X126953763Y-127924767D01*
X126887787Y-127944780D01*
X126755836Y-127984807D01*
X126678707Y-127992404D01*
X126601580Y-128000000D01*
X126498420Y-128000000D01*
X126421293Y-127992404D01*
X126344164Y-127984807D01*
X126212213Y-127944780D01*
X126146237Y-127924767D01*
X126048737Y-127872651D01*
X125963829Y-127827267D01*
X125945145Y-127811933D01*
X125859299Y-127741482D01*
X125838925Y-127727868D01*
X125816286Y-127718490D01*
X125792252Y-127713710D01*
X125767748Y-127713710D01*
X125743714Y-127718490D01*
X125721075Y-127727868D01*
X125700701Y-127741482D01*
X125614855Y-127811933D01*
X125596171Y-127827267D01*
X125511263Y-127872651D01*
X125413763Y-127924767D01*
X125347787Y-127944780D01*
X125215836Y-127984807D01*
X125138707Y-127992404D01*
X125061580Y-128000000D01*
X124958420Y-128000000D01*
X124881293Y-127992404D01*
X124804164Y-127984807D01*
X124672213Y-127944780D01*
X124606237Y-127924767D01*
X124423828Y-127827267D01*
X124263946Y-127696054D01*
X124132733Y-127536172D01*
X124035233Y-127353763D01*
X124015220Y-127287787D01*
X123975193Y-127155836D01*
X123954920Y-126950000D01*
X123975193Y-126744164D01*
X124035233Y-126546238D01*
X124035233Y-126546237D01*
X124132733Y-126363828D01*
X124263946Y-126203946D01*
X124423828Y-126072733D01*
X124606237Y-125975233D01*
X124672213Y-125955220D01*
X124804164Y-125915193D01*
X124881293Y-125907597D01*
X124958420Y-125900000D01*
X125061580Y-125900000D01*
X125138707Y-125907597D01*
X125138707Y-125907597D01*
G37*
G36*
X125138707Y-123367596D02*
X125215836Y-123375193D01*
X125347787Y-123415220D01*
X125413763Y-123435233D01*
X125511263Y-123487349D01*
X125596171Y-123532733D01*
X125596173Y-123532734D01*
X125596172Y-123532734D01*
X125700701Y-123618518D01*
X125721075Y-123632132D01*
X125743714Y-123641510D01*
X125767748Y-123646290D01*
X125792252Y-123646290D01*
X125816286Y-123641510D01*
X125838925Y-123632132D01*
X125859299Y-123618518D01*
X125963828Y-123532734D01*
X125963827Y-123532734D01*
X125963829Y-123532733D01*
X126048737Y-123487349D01*
X126146237Y-123435233D01*
X126212213Y-123415220D01*
X126344164Y-123375193D01*
X126421293Y-123367596D01*
X126498420Y-123360000D01*
X126601580Y-123360000D01*
X126678707Y-123367596D01*
X126755836Y-123375193D01*
X126887787Y-123415220D01*
X126953763Y-123435233D01*
X127136172Y-123532733D01*
X127296054Y-123663946D01*
X127427267Y-123823828D01*
X127524767Y-124006237D01*
X127524767Y-124006238D01*
X127584807Y-124204164D01*
X127605080Y-124410000D01*
X127584807Y-124615836D01*
X127544780Y-124747787D01*
X127524767Y-124813763D01*
X127427267Y-124996172D01*
X127296054Y-125156054D01*
X127136172Y-125287267D01*
X126953763Y-125384767D01*
X126887787Y-125404780D01*
X126755836Y-125444807D01*
X126678707Y-125452404D01*
X126601580Y-125460000D01*
X126498420Y-125460000D01*
X126421293Y-125452404D01*
X126344164Y-125444807D01*
X126212213Y-125404780D01*
X126146237Y-125384767D01*
X126048737Y-125332651D01*
X125963829Y-125287267D01*
X125945145Y-125271933D01*
X125859299Y-125201482D01*
X125838925Y-125187868D01*
X125816286Y-125178490D01*
X125792252Y-125173710D01*
X125767748Y-125173710D01*
X125743714Y-125178490D01*
X125721075Y-125187868D01*
X125700701Y-125201482D01*
X125614855Y-125271933D01*
X125596171Y-125287267D01*
X125511263Y-125332651D01*
X125413763Y-125384767D01*
X125347787Y-125404780D01*
X125215836Y-125444807D01*
X125138707Y-125452404D01*
X125061580Y-125460000D01*
X124958420Y-125460000D01*
X124881293Y-125452404D01*
X124804164Y-125444807D01*
X124672213Y-125404780D01*
X124606237Y-125384767D01*
X124423828Y-125287267D01*
X124263946Y-125156054D01*
X124132733Y-124996172D01*
X124035233Y-124813763D01*
X124015220Y-124747787D01*
X123975193Y-124615836D01*
X123954920Y-124410000D01*
X123975193Y-124204164D01*
X124035233Y-124006238D01*
X124035233Y-124006237D01*
X124132733Y-123823828D01*
X124263946Y-123663946D01*
X124423828Y-123532733D01*
X124606237Y-123435233D01*
X124672213Y-123415220D01*
X124804164Y-123375193D01*
X124881293Y-123367596D01*
X124958420Y-123360000D01*
X125061580Y-123360000D01*
X125138707Y-123367596D01*
X125138707Y-123367596D01*
G37*
G36*
X141928707Y-123367596D02*
X142005836Y-123375193D01*
X142137787Y-123415220D01*
X142203763Y-123435233D01*
X142365307Y-123521581D01*
X142386171Y-123532733D01*
X142505705Y-123630832D01*
X142526075Y-123644443D01*
X142548714Y-123653820D01*
X142572747Y-123658601D01*
X142597252Y-123658601D01*
X142621285Y-123653821D01*
X142643924Y-123644443D01*
X142664295Y-123630832D01*
X142783829Y-123532733D01*
X142804693Y-123521581D01*
X142966237Y-123435233D01*
X143032213Y-123415220D01*
X143164164Y-123375193D01*
X143241293Y-123367596D01*
X143318420Y-123360000D01*
X143421580Y-123360000D01*
X143498707Y-123367596D01*
X143575836Y-123375193D01*
X143707787Y-123415220D01*
X143773763Y-123435233D01*
X143956172Y-123532733D01*
X144116054Y-123663946D01*
X144247267Y-123823828D01*
X144344767Y-124006237D01*
X144344767Y-124006238D01*
X144404807Y-124204164D01*
X144425080Y-124410000D01*
X144404807Y-124615836D01*
X144364780Y-124747787D01*
X144344767Y-124813763D01*
X144247267Y-124996172D01*
X144116054Y-125156054D01*
X143956172Y-125287267D01*
X143773763Y-125384767D01*
X143707787Y-125404780D01*
X143575836Y-125444807D01*
X143498707Y-125452404D01*
X143421580Y-125460000D01*
X143318420Y-125460000D01*
X143241293Y-125452404D01*
X143164164Y-125444807D01*
X143032213Y-125404780D01*
X142966237Y-125384767D01*
X142783831Y-125287268D01*
X142783829Y-125287267D01*
X142664295Y-125189168D01*
X142643925Y-125175557D01*
X142621286Y-125166180D01*
X142597253Y-125161399D01*
X142572748Y-125161399D01*
X142548715Y-125166179D01*
X142526076Y-125175557D01*
X142505705Y-125189168D01*
X142386171Y-125287267D01*
X142386169Y-125287268D01*
X142203763Y-125384767D01*
X142137787Y-125404780D01*
X142005836Y-125444807D01*
X141928707Y-125452404D01*
X141851580Y-125460000D01*
X141748420Y-125460000D01*
X141671293Y-125452404D01*
X141594164Y-125444807D01*
X141462213Y-125404780D01*
X141396237Y-125384767D01*
X141213828Y-125287267D01*
X141053946Y-125156054D01*
X140922733Y-124996172D01*
X140825233Y-124813763D01*
X140805220Y-124747787D01*
X140765193Y-124615836D01*
X140744920Y-124410000D01*
X140765193Y-124204164D01*
X140825233Y-124006238D01*
X140825233Y-124006237D01*
X140922733Y-123823828D01*
X141053946Y-123663946D01*
X141213828Y-123532733D01*
X141396237Y-123435233D01*
X141462213Y-123415220D01*
X141594164Y-123375193D01*
X141671293Y-123367596D01*
X141748420Y-123360000D01*
X141851580Y-123360000D01*
X141928707Y-123367596D01*
X141928707Y-123367596D01*
G37*
G36*
X125138707Y-120827596D02*
X125215836Y-120835193D01*
X125347787Y-120875220D01*
X125413763Y-120895233D01*
X125511263Y-120947349D01*
X125596171Y-120992733D01*
X125596173Y-120992734D01*
X125596172Y-120992734D01*
X125700701Y-121078518D01*
X125721075Y-121092132D01*
X125743714Y-121101510D01*
X125767748Y-121106290D01*
X125792252Y-121106290D01*
X125816286Y-121101510D01*
X125838925Y-121092132D01*
X125859299Y-121078518D01*
X125963828Y-120992734D01*
X125963827Y-120992734D01*
X125963829Y-120992733D01*
X126048737Y-120947349D01*
X126146237Y-120895233D01*
X126212213Y-120875220D01*
X126344164Y-120835193D01*
X126421293Y-120827596D01*
X126498420Y-120820000D01*
X126601580Y-120820000D01*
X126678707Y-120827596D01*
X126755836Y-120835193D01*
X126887787Y-120875220D01*
X126953763Y-120895233D01*
X127136172Y-120992733D01*
X127296054Y-121123946D01*
X127427267Y-121283828D01*
X127524767Y-121466237D01*
X127524767Y-121466238D01*
X127584807Y-121664164D01*
X127605080Y-121870000D01*
X127584807Y-122075836D01*
X127544780Y-122207787D01*
X127524767Y-122273763D01*
X127427267Y-122456172D01*
X127296054Y-122616054D01*
X127136172Y-122747267D01*
X126953763Y-122844767D01*
X126887787Y-122864780D01*
X126755836Y-122904807D01*
X126678707Y-122912404D01*
X126601580Y-122920000D01*
X126498420Y-122920000D01*
X126421293Y-122912404D01*
X126344164Y-122904807D01*
X126212213Y-122864780D01*
X126146237Y-122844767D01*
X126048737Y-122792651D01*
X125963829Y-122747267D01*
X125945145Y-122731933D01*
X125859299Y-122661482D01*
X125838925Y-122647868D01*
X125816286Y-122638490D01*
X125792252Y-122633710D01*
X125767748Y-122633710D01*
X125743714Y-122638490D01*
X125721075Y-122647868D01*
X125700701Y-122661482D01*
X125614855Y-122731933D01*
X125596171Y-122747267D01*
X125511263Y-122792651D01*
X125413763Y-122844767D01*
X125347787Y-122864780D01*
X125215836Y-122904807D01*
X125138707Y-122912404D01*
X125061580Y-122920000D01*
X124958420Y-122920000D01*
X124881293Y-122912404D01*
X124804164Y-122904807D01*
X124672213Y-122864780D01*
X124606237Y-122844767D01*
X124423828Y-122747267D01*
X124263946Y-122616054D01*
X124132733Y-122456172D01*
X124035233Y-122273763D01*
X124015220Y-122207787D01*
X123975193Y-122075836D01*
X123954920Y-121870000D01*
X123975193Y-121664164D01*
X124035233Y-121466238D01*
X124035233Y-121466237D01*
X124132733Y-121283828D01*
X124263946Y-121123946D01*
X124423828Y-120992733D01*
X124606237Y-120895233D01*
X124672213Y-120875220D01*
X124804164Y-120835193D01*
X124881293Y-120827596D01*
X124958420Y-120820000D01*
X125061580Y-120820000D01*
X125138707Y-120827596D01*
X125138707Y-120827596D01*
G37*
G36*
X141928707Y-120827596D02*
X142005836Y-120835193D01*
X142137787Y-120875220D01*
X142203763Y-120895233D01*
X142365307Y-120981581D01*
X142386171Y-120992733D01*
X142505705Y-121090832D01*
X142526075Y-121104443D01*
X142548714Y-121113820D01*
X142572747Y-121118601D01*
X142597252Y-121118601D01*
X142621285Y-121113821D01*
X142643924Y-121104443D01*
X142664295Y-121090832D01*
X142783829Y-120992733D01*
X142804693Y-120981581D01*
X142966237Y-120895233D01*
X143032213Y-120875220D01*
X143164164Y-120835193D01*
X143241293Y-120827596D01*
X143318420Y-120820000D01*
X143421580Y-120820000D01*
X143498707Y-120827596D01*
X143575836Y-120835193D01*
X143707787Y-120875220D01*
X143773763Y-120895233D01*
X143956172Y-120992733D01*
X144116054Y-121123946D01*
X144247267Y-121283828D01*
X144344767Y-121466237D01*
X144344767Y-121466238D01*
X144404807Y-121664164D01*
X144425080Y-121870000D01*
X144404807Y-122075836D01*
X144364780Y-122207787D01*
X144344767Y-122273763D01*
X144247267Y-122456172D01*
X144116054Y-122616054D01*
X143956172Y-122747267D01*
X143773763Y-122844767D01*
X143707787Y-122864780D01*
X143575836Y-122904807D01*
X143498707Y-122912404D01*
X143421580Y-122920000D01*
X143318420Y-122920000D01*
X143241293Y-122912404D01*
X143164164Y-122904807D01*
X143032213Y-122864780D01*
X142966237Y-122844767D01*
X142783831Y-122747268D01*
X142783829Y-122747267D01*
X142664295Y-122649168D01*
X142643925Y-122635557D01*
X142621286Y-122626180D01*
X142597253Y-122621399D01*
X142572748Y-122621399D01*
X142548715Y-122626179D01*
X142526076Y-122635557D01*
X142505705Y-122649168D01*
X142386171Y-122747267D01*
X142386169Y-122747268D01*
X142203763Y-122844767D01*
X142137787Y-122864780D01*
X142005836Y-122904807D01*
X141928707Y-122912404D01*
X141851580Y-122920000D01*
X141748420Y-122920000D01*
X141671293Y-122912404D01*
X141594164Y-122904807D01*
X141462213Y-122864780D01*
X141396237Y-122844767D01*
X141213828Y-122747267D01*
X141053946Y-122616054D01*
X140922733Y-122456172D01*
X140825233Y-122273763D01*
X140805220Y-122207787D01*
X140765193Y-122075836D01*
X140744920Y-121870000D01*
X140765193Y-121664164D01*
X140825233Y-121466238D01*
X140825233Y-121466237D01*
X140922733Y-121283828D01*
X141053946Y-121123946D01*
X141213828Y-120992733D01*
X141396237Y-120895233D01*
X141462213Y-120875220D01*
X141594164Y-120835193D01*
X141671293Y-120827596D01*
X141748420Y-120820000D01*
X141851580Y-120820000D01*
X141928707Y-120827596D01*
X141928707Y-120827596D01*
G37*
G36*
X141928707Y-118287596D02*
X142005836Y-118295193D01*
X142137787Y-118335220D01*
X142203763Y-118355233D01*
X142365307Y-118441581D01*
X142386171Y-118452733D01*
X142505705Y-118550832D01*
X142526075Y-118564443D01*
X142548714Y-118573820D01*
X142572747Y-118578601D01*
X142597252Y-118578601D01*
X142621285Y-118573821D01*
X142643924Y-118564443D01*
X142664295Y-118550832D01*
X142783829Y-118452733D01*
X142804693Y-118441581D01*
X142966237Y-118355233D01*
X143032213Y-118335220D01*
X143164164Y-118295193D01*
X143241293Y-118287596D01*
X143318420Y-118280000D01*
X143421580Y-118280000D01*
X143498707Y-118287596D01*
X143575836Y-118295193D01*
X143707787Y-118335220D01*
X143773763Y-118355233D01*
X143956172Y-118452733D01*
X144116054Y-118583946D01*
X144247267Y-118743828D01*
X144344767Y-118926237D01*
X144344767Y-118926238D01*
X144404807Y-119124164D01*
X144425080Y-119330000D01*
X144404807Y-119535836D01*
X144364780Y-119667787D01*
X144344767Y-119733763D01*
X144247267Y-119916172D01*
X144116054Y-120076054D01*
X143956172Y-120207267D01*
X143773763Y-120304767D01*
X143707787Y-120324780D01*
X143575836Y-120364807D01*
X143498707Y-120372403D01*
X143421580Y-120380000D01*
X143318420Y-120380000D01*
X143241293Y-120372403D01*
X143164164Y-120364807D01*
X143032213Y-120324780D01*
X142966237Y-120304767D01*
X142783831Y-120207268D01*
X142783829Y-120207267D01*
X142664295Y-120109168D01*
X142643925Y-120095557D01*
X142621286Y-120086180D01*
X142597253Y-120081399D01*
X142572748Y-120081399D01*
X142548715Y-120086179D01*
X142526076Y-120095557D01*
X142505705Y-120109168D01*
X142386171Y-120207267D01*
X142386169Y-120207268D01*
X142203763Y-120304767D01*
X142137787Y-120324780D01*
X142005836Y-120364807D01*
X141928707Y-120372403D01*
X141851580Y-120380000D01*
X141748420Y-120380000D01*
X141671293Y-120372403D01*
X141594164Y-120364807D01*
X141462213Y-120324780D01*
X141396237Y-120304767D01*
X141213828Y-120207267D01*
X141053946Y-120076054D01*
X140922733Y-119916172D01*
X140825233Y-119733763D01*
X140805220Y-119667787D01*
X140765193Y-119535836D01*
X140744920Y-119330000D01*
X140765193Y-119124164D01*
X140825233Y-118926238D01*
X140825233Y-118926237D01*
X140922733Y-118743828D01*
X141053946Y-118583946D01*
X141213828Y-118452733D01*
X141396237Y-118355233D01*
X141462213Y-118335220D01*
X141594164Y-118295193D01*
X141671293Y-118287596D01*
X141748420Y-118280000D01*
X141851580Y-118280000D01*
X141928707Y-118287596D01*
X141928707Y-118287596D01*
G37*
G36*
X125138707Y-118287596D02*
X125215836Y-118295193D01*
X125347787Y-118335220D01*
X125413763Y-118355233D01*
X125511263Y-118407349D01*
X125596171Y-118452733D01*
X125596173Y-118452734D01*
X125596172Y-118452734D01*
X125700701Y-118538518D01*
X125721075Y-118552132D01*
X125743714Y-118561510D01*
X125767748Y-118566290D01*
X125792252Y-118566290D01*
X125816286Y-118561510D01*
X125838925Y-118552132D01*
X125859299Y-118538518D01*
X125963828Y-118452734D01*
X125963827Y-118452734D01*
X125963829Y-118452733D01*
X126048737Y-118407349D01*
X126146237Y-118355233D01*
X126212213Y-118335220D01*
X126344164Y-118295193D01*
X126421293Y-118287596D01*
X126498420Y-118280000D01*
X126601580Y-118280000D01*
X126678707Y-118287596D01*
X126755836Y-118295193D01*
X126887787Y-118335220D01*
X126953763Y-118355233D01*
X127136172Y-118452733D01*
X127296054Y-118583946D01*
X127427267Y-118743828D01*
X127524767Y-118926237D01*
X127524767Y-118926238D01*
X127584807Y-119124164D01*
X127605080Y-119330000D01*
X127584807Y-119535836D01*
X127544780Y-119667787D01*
X127524767Y-119733763D01*
X127427267Y-119916172D01*
X127296054Y-120076054D01*
X127136172Y-120207267D01*
X126953763Y-120304767D01*
X126887787Y-120324780D01*
X126755836Y-120364807D01*
X126678707Y-120372403D01*
X126601580Y-120380000D01*
X126498420Y-120380000D01*
X126421293Y-120372403D01*
X126344164Y-120364807D01*
X126212213Y-120324780D01*
X126146237Y-120304767D01*
X126048737Y-120252651D01*
X125963829Y-120207267D01*
X125945145Y-120191933D01*
X125859299Y-120121482D01*
X125838925Y-120107868D01*
X125816286Y-120098490D01*
X125792252Y-120093710D01*
X125767748Y-120093710D01*
X125743714Y-120098490D01*
X125721075Y-120107868D01*
X125700701Y-120121482D01*
X125614855Y-120191933D01*
X125596171Y-120207267D01*
X125511263Y-120252651D01*
X125413763Y-120304767D01*
X125347787Y-120324780D01*
X125215836Y-120364807D01*
X125138707Y-120372403D01*
X125061580Y-120380000D01*
X124958420Y-120380000D01*
X124881293Y-120372403D01*
X124804164Y-120364807D01*
X124672213Y-120324780D01*
X124606237Y-120304767D01*
X124423828Y-120207267D01*
X124263946Y-120076054D01*
X124132733Y-119916172D01*
X124035233Y-119733763D01*
X124015220Y-119667787D01*
X123975193Y-119535836D01*
X123954920Y-119330000D01*
X123975193Y-119124164D01*
X124035233Y-118926238D01*
X124035233Y-118926237D01*
X124132733Y-118743828D01*
X124263946Y-118583946D01*
X124423828Y-118452733D01*
X124606237Y-118355233D01*
X124672213Y-118335220D01*
X124804164Y-118295193D01*
X124881293Y-118287596D01*
X124958420Y-118280000D01*
X125061580Y-118280000D01*
X125138707Y-118287596D01*
X125138707Y-118287596D01*
G37*
G36*
X125138707Y-115747597D02*
X125215836Y-115755193D01*
X125347787Y-115795220D01*
X125413763Y-115815233D01*
X125511263Y-115867349D01*
X125596171Y-115912733D01*
X125596173Y-115912734D01*
X125596172Y-115912734D01*
X125700701Y-115998518D01*
X125721075Y-116012132D01*
X125743714Y-116021510D01*
X125767748Y-116026290D01*
X125792252Y-116026290D01*
X125816286Y-116021510D01*
X125838925Y-116012132D01*
X125859299Y-115998518D01*
X125963828Y-115912734D01*
X125963827Y-115912734D01*
X125963829Y-115912733D01*
X126048737Y-115867349D01*
X126146237Y-115815233D01*
X126212213Y-115795220D01*
X126344164Y-115755193D01*
X126421293Y-115747597D01*
X126498420Y-115740000D01*
X126601580Y-115740000D01*
X126678707Y-115747597D01*
X126755836Y-115755193D01*
X126887787Y-115795220D01*
X126953763Y-115815233D01*
X127136172Y-115912733D01*
X127296054Y-116043946D01*
X127427267Y-116203828D01*
X127524767Y-116386237D01*
X127524767Y-116386238D01*
X127584807Y-116584164D01*
X127605080Y-116790000D01*
X127584807Y-116995836D01*
X127544780Y-117127787D01*
X127524767Y-117193763D01*
X127427267Y-117376172D01*
X127296054Y-117536054D01*
X127136172Y-117667267D01*
X126953763Y-117764767D01*
X126887787Y-117784780D01*
X126755836Y-117824807D01*
X126678707Y-117832404D01*
X126601580Y-117840000D01*
X126498420Y-117840000D01*
X126421293Y-117832404D01*
X126344164Y-117824807D01*
X126212213Y-117784780D01*
X126146237Y-117764767D01*
X126048737Y-117712651D01*
X125963829Y-117667267D01*
X125945145Y-117651933D01*
X125859299Y-117581482D01*
X125838925Y-117567868D01*
X125816286Y-117558490D01*
X125792252Y-117553710D01*
X125767748Y-117553710D01*
X125743714Y-117558490D01*
X125721075Y-117567868D01*
X125700701Y-117581482D01*
X125614855Y-117651933D01*
X125596171Y-117667267D01*
X125511263Y-117712651D01*
X125413763Y-117764767D01*
X125347787Y-117784780D01*
X125215836Y-117824807D01*
X125138707Y-117832404D01*
X125061580Y-117840000D01*
X124958420Y-117840000D01*
X124881293Y-117832404D01*
X124804164Y-117824807D01*
X124672213Y-117784780D01*
X124606237Y-117764767D01*
X124423828Y-117667267D01*
X124263946Y-117536054D01*
X124132733Y-117376172D01*
X124035233Y-117193763D01*
X124015220Y-117127787D01*
X123975193Y-116995836D01*
X123954920Y-116790000D01*
X123975193Y-116584164D01*
X124035233Y-116386238D01*
X124035233Y-116386237D01*
X124132733Y-116203828D01*
X124263946Y-116043946D01*
X124423828Y-115912733D01*
X124606237Y-115815233D01*
X124672213Y-115795220D01*
X124804164Y-115755193D01*
X124881293Y-115747597D01*
X124958420Y-115740000D01*
X125061580Y-115740000D01*
X125138707Y-115747597D01*
X125138707Y-115747597D01*
G37*
G36*
X141928707Y-115747597D02*
X142005836Y-115755193D01*
X142137787Y-115795220D01*
X142203763Y-115815233D01*
X142365307Y-115901581D01*
X142386171Y-115912733D01*
X142505705Y-116010832D01*
X142526075Y-116024443D01*
X142548714Y-116033820D01*
X142572747Y-116038601D01*
X142597252Y-116038601D01*
X142621285Y-116033821D01*
X142643924Y-116024443D01*
X142664295Y-116010832D01*
X142783829Y-115912733D01*
X142804693Y-115901581D01*
X142966237Y-115815233D01*
X143032213Y-115795220D01*
X143164164Y-115755193D01*
X143241293Y-115747597D01*
X143318420Y-115740000D01*
X143421580Y-115740000D01*
X143498707Y-115747597D01*
X143575836Y-115755193D01*
X143707787Y-115795220D01*
X143773763Y-115815233D01*
X143956172Y-115912733D01*
X144116054Y-116043946D01*
X144247267Y-116203828D01*
X144344767Y-116386237D01*
X144344767Y-116386238D01*
X144404807Y-116584164D01*
X144425080Y-116790000D01*
X144404807Y-116995836D01*
X144364780Y-117127787D01*
X144344767Y-117193763D01*
X144247267Y-117376172D01*
X144116054Y-117536054D01*
X143956172Y-117667267D01*
X143773763Y-117764767D01*
X143707787Y-117784780D01*
X143575836Y-117824807D01*
X143498707Y-117832404D01*
X143421580Y-117840000D01*
X143318420Y-117840000D01*
X143241293Y-117832404D01*
X143164164Y-117824807D01*
X143032213Y-117784780D01*
X142966237Y-117764767D01*
X142783831Y-117667268D01*
X142783829Y-117667267D01*
X142664295Y-117569168D01*
X142643925Y-117555557D01*
X142621286Y-117546180D01*
X142597253Y-117541399D01*
X142572748Y-117541399D01*
X142548715Y-117546179D01*
X142526076Y-117555557D01*
X142505705Y-117569168D01*
X142386171Y-117667267D01*
X142386169Y-117667268D01*
X142203763Y-117764767D01*
X142137787Y-117784780D01*
X142005836Y-117824807D01*
X141928707Y-117832404D01*
X141851580Y-117840000D01*
X141748420Y-117840000D01*
X141671293Y-117832404D01*
X141594164Y-117824807D01*
X141462213Y-117784780D01*
X141396237Y-117764767D01*
X141213828Y-117667267D01*
X141053946Y-117536054D01*
X140922733Y-117376172D01*
X140825233Y-117193763D01*
X140805220Y-117127787D01*
X140765193Y-116995836D01*
X140744920Y-116790000D01*
X140765193Y-116584164D01*
X140825233Y-116386238D01*
X140825233Y-116386237D01*
X140922733Y-116203828D01*
X141053946Y-116043946D01*
X141213828Y-115912733D01*
X141396237Y-115815233D01*
X141462213Y-115795220D01*
X141594164Y-115755193D01*
X141671293Y-115747597D01*
X141748420Y-115740000D01*
X141851580Y-115740000D01*
X141928707Y-115747597D01*
X141928707Y-115747597D01*
G37*
G36*
X125138707Y-113207596D02*
X125215836Y-113215193D01*
X125347787Y-113255220D01*
X125413763Y-113275233D01*
X125511263Y-113327349D01*
X125596171Y-113372733D01*
X125596173Y-113372734D01*
X125596172Y-113372734D01*
X125700701Y-113458518D01*
X125721075Y-113472132D01*
X125743714Y-113481510D01*
X125767748Y-113486290D01*
X125792252Y-113486290D01*
X125816286Y-113481510D01*
X125838925Y-113472132D01*
X125859299Y-113458518D01*
X125963828Y-113372734D01*
X125963827Y-113372734D01*
X125963829Y-113372733D01*
X126048737Y-113327349D01*
X126146237Y-113275233D01*
X126212213Y-113255220D01*
X126344164Y-113215193D01*
X126421293Y-113207596D01*
X126498420Y-113200000D01*
X126601580Y-113200000D01*
X126678707Y-113207596D01*
X126755836Y-113215193D01*
X126887787Y-113255220D01*
X126953763Y-113275233D01*
X127136172Y-113372733D01*
X127296054Y-113503946D01*
X127427267Y-113663828D01*
X127524767Y-113846237D01*
X127524767Y-113846238D01*
X127584807Y-114044164D01*
X127605080Y-114250000D01*
X127584807Y-114455836D01*
X127544780Y-114587787D01*
X127524767Y-114653763D01*
X127427267Y-114836172D01*
X127296054Y-114996054D01*
X127136172Y-115127267D01*
X126953763Y-115224767D01*
X126887787Y-115244780D01*
X126755836Y-115284807D01*
X126678707Y-115292404D01*
X126601580Y-115300000D01*
X126498420Y-115300000D01*
X126421293Y-115292404D01*
X126344164Y-115284807D01*
X126212213Y-115244780D01*
X126146237Y-115224767D01*
X126048737Y-115172651D01*
X125963829Y-115127267D01*
X125945145Y-115111933D01*
X125859299Y-115041482D01*
X125838925Y-115027868D01*
X125816286Y-115018490D01*
X125792252Y-115013710D01*
X125767748Y-115013710D01*
X125743714Y-115018490D01*
X125721075Y-115027868D01*
X125700701Y-115041482D01*
X125614855Y-115111933D01*
X125596171Y-115127267D01*
X125511263Y-115172651D01*
X125413763Y-115224767D01*
X125347787Y-115244780D01*
X125215836Y-115284807D01*
X125138707Y-115292404D01*
X125061580Y-115300000D01*
X124958420Y-115300000D01*
X124881293Y-115292404D01*
X124804164Y-115284807D01*
X124672213Y-115244780D01*
X124606237Y-115224767D01*
X124423828Y-115127267D01*
X124263946Y-114996054D01*
X124132733Y-114836172D01*
X124035233Y-114653763D01*
X124015220Y-114587787D01*
X123975193Y-114455836D01*
X123954920Y-114250000D01*
X123975193Y-114044164D01*
X124035233Y-113846238D01*
X124035233Y-113846237D01*
X124132733Y-113663828D01*
X124263946Y-113503946D01*
X124423828Y-113372733D01*
X124606237Y-113275233D01*
X124672213Y-113255220D01*
X124804164Y-113215193D01*
X124881293Y-113207596D01*
X124958420Y-113200000D01*
X125061580Y-113200000D01*
X125138707Y-113207596D01*
X125138707Y-113207596D01*
G37*
G36*
X141928707Y-113207596D02*
X142005836Y-113215193D01*
X142137787Y-113255220D01*
X142203763Y-113275233D01*
X142365307Y-113361581D01*
X142386171Y-113372733D01*
X142505705Y-113470832D01*
X142526075Y-113484443D01*
X142548714Y-113493820D01*
X142572747Y-113498601D01*
X142597252Y-113498601D01*
X142621285Y-113493821D01*
X142643924Y-113484443D01*
X142664295Y-113470832D01*
X142783829Y-113372733D01*
X142804693Y-113361581D01*
X142966237Y-113275233D01*
X143032213Y-113255220D01*
X143164164Y-113215193D01*
X143241293Y-113207596D01*
X143318420Y-113200000D01*
X143421580Y-113200000D01*
X143498707Y-113207596D01*
X143575836Y-113215193D01*
X143707787Y-113255220D01*
X143773763Y-113275233D01*
X143956172Y-113372733D01*
X144116054Y-113503946D01*
X144247267Y-113663828D01*
X144344767Y-113846237D01*
X144344767Y-113846238D01*
X144404807Y-114044164D01*
X144425080Y-114250000D01*
X144404807Y-114455836D01*
X144364780Y-114587787D01*
X144344767Y-114653763D01*
X144247267Y-114836172D01*
X144116054Y-114996054D01*
X143956172Y-115127267D01*
X143773763Y-115224767D01*
X143707787Y-115244780D01*
X143575836Y-115284807D01*
X143498707Y-115292404D01*
X143421580Y-115300000D01*
X143318420Y-115300000D01*
X143241293Y-115292404D01*
X143164164Y-115284807D01*
X143032213Y-115244780D01*
X142966237Y-115224767D01*
X142783831Y-115127268D01*
X142783829Y-115127267D01*
X142664295Y-115029168D01*
X142643925Y-115015557D01*
X142621286Y-115006180D01*
X142597253Y-115001399D01*
X142572748Y-115001399D01*
X142548715Y-115006179D01*
X142526076Y-115015557D01*
X142505705Y-115029168D01*
X142386171Y-115127267D01*
X142386169Y-115127268D01*
X142203763Y-115224767D01*
X142137787Y-115244780D01*
X142005836Y-115284807D01*
X141928707Y-115292404D01*
X141851580Y-115300000D01*
X141748420Y-115300000D01*
X141671293Y-115292404D01*
X141594164Y-115284807D01*
X141462213Y-115244780D01*
X141396237Y-115224767D01*
X141213828Y-115127267D01*
X141053946Y-114996054D01*
X140922733Y-114836172D01*
X140825233Y-114653763D01*
X140805220Y-114587787D01*
X140765193Y-114455836D01*
X140744920Y-114250000D01*
X140765193Y-114044164D01*
X140825233Y-113846238D01*
X140825233Y-113846237D01*
X140922733Y-113663828D01*
X141053946Y-113503946D01*
X141213828Y-113372733D01*
X141396237Y-113275233D01*
X141462213Y-113255220D01*
X141594164Y-113215193D01*
X141671293Y-113207596D01*
X141748420Y-113200000D01*
X141851580Y-113200000D01*
X141928707Y-113207596D01*
X141928707Y-113207596D01*
G37*
G36*
X141928707Y-110667596D02*
X142005836Y-110675193D01*
X142137787Y-110715220D01*
X142203763Y-110735233D01*
X142365307Y-110821581D01*
X142386171Y-110832733D01*
X142505705Y-110930832D01*
X142526075Y-110944443D01*
X142548714Y-110953820D01*
X142572747Y-110958601D01*
X142597252Y-110958601D01*
X142621285Y-110953821D01*
X142643924Y-110944443D01*
X142664295Y-110930832D01*
X142783829Y-110832733D01*
X142804693Y-110821581D01*
X142966237Y-110735233D01*
X143032213Y-110715220D01*
X143164164Y-110675193D01*
X143241293Y-110667596D01*
X143318420Y-110660000D01*
X143421580Y-110660000D01*
X143498707Y-110667596D01*
X143575836Y-110675193D01*
X143707787Y-110715220D01*
X143773763Y-110735233D01*
X143956172Y-110832733D01*
X144116054Y-110963946D01*
X144247267Y-111123828D01*
X144344767Y-111306237D01*
X144344767Y-111306238D01*
X144404807Y-111504164D01*
X144425080Y-111710000D01*
X144404807Y-111915836D01*
X144364780Y-112047787D01*
X144344767Y-112113763D01*
X144247267Y-112296172D01*
X144116054Y-112456054D01*
X143956172Y-112587267D01*
X143773763Y-112684767D01*
X143707787Y-112704780D01*
X143575836Y-112744807D01*
X143498707Y-112752404D01*
X143421580Y-112760000D01*
X143318420Y-112760000D01*
X143241293Y-112752404D01*
X143164164Y-112744807D01*
X143032213Y-112704780D01*
X142966237Y-112684767D01*
X142783831Y-112587268D01*
X142783829Y-112587267D01*
X142664295Y-112489168D01*
X142643925Y-112475557D01*
X142621286Y-112466180D01*
X142597253Y-112461399D01*
X142572748Y-112461399D01*
X142548715Y-112466179D01*
X142526076Y-112475557D01*
X142505705Y-112489168D01*
X142386171Y-112587267D01*
X142386169Y-112587268D01*
X142203763Y-112684767D01*
X142137787Y-112704780D01*
X142005836Y-112744807D01*
X141928707Y-112752404D01*
X141851580Y-112760000D01*
X141748420Y-112760000D01*
X141671293Y-112752404D01*
X141594164Y-112744807D01*
X141462213Y-112704780D01*
X141396237Y-112684767D01*
X141213828Y-112587267D01*
X141053946Y-112456054D01*
X140922733Y-112296172D01*
X140825233Y-112113763D01*
X140805220Y-112047787D01*
X140765193Y-111915836D01*
X140744920Y-111710000D01*
X140765193Y-111504164D01*
X140825233Y-111306238D01*
X140825233Y-111306237D01*
X140922733Y-111123828D01*
X141053946Y-110963946D01*
X141213828Y-110832733D01*
X141396237Y-110735233D01*
X141462213Y-110715220D01*
X141594164Y-110675193D01*
X141671293Y-110667596D01*
X141748420Y-110660000D01*
X141851580Y-110660000D01*
X141928707Y-110667596D01*
X141928707Y-110667596D01*
G37*
G36*
X125138707Y-110667596D02*
X125215836Y-110675193D01*
X125347787Y-110715220D01*
X125413763Y-110735233D01*
X125511263Y-110787349D01*
X125596171Y-110832733D01*
X125596173Y-110832734D01*
X125596172Y-110832734D01*
X125700701Y-110918518D01*
X125721075Y-110932132D01*
X125743714Y-110941510D01*
X125767748Y-110946290D01*
X125792252Y-110946290D01*
X125816286Y-110941510D01*
X125838925Y-110932132D01*
X125859299Y-110918518D01*
X125963828Y-110832734D01*
X125963827Y-110832734D01*
X125963829Y-110832733D01*
X126048737Y-110787349D01*
X126146237Y-110735233D01*
X126212213Y-110715220D01*
X126344164Y-110675193D01*
X126421293Y-110667596D01*
X126498420Y-110660000D01*
X126601580Y-110660000D01*
X126678707Y-110667596D01*
X126755836Y-110675193D01*
X126887787Y-110715220D01*
X126953763Y-110735233D01*
X127136172Y-110832733D01*
X127296054Y-110963946D01*
X127427267Y-111123828D01*
X127524767Y-111306237D01*
X127524767Y-111306238D01*
X127584807Y-111504164D01*
X127605080Y-111710000D01*
X127584807Y-111915836D01*
X127544780Y-112047787D01*
X127524767Y-112113763D01*
X127427267Y-112296172D01*
X127296054Y-112456054D01*
X127136172Y-112587267D01*
X126953763Y-112684767D01*
X126887787Y-112704780D01*
X126755836Y-112744807D01*
X126678707Y-112752404D01*
X126601580Y-112760000D01*
X126498420Y-112760000D01*
X126421293Y-112752404D01*
X126344164Y-112744807D01*
X126212213Y-112704780D01*
X126146237Y-112684767D01*
X126048737Y-112632651D01*
X125963829Y-112587267D01*
X125945145Y-112571933D01*
X125859299Y-112501482D01*
X125838925Y-112487868D01*
X125816286Y-112478490D01*
X125792252Y-112473710D01*
X125767748Y-112473710D01*
X125743714Y-112478490D01*
X125721075Y-112487868D01*
X125700701Y-112501482D01*
X125614855Y-112571933D01*
X125596171Y-112587267D01*
X125511263Y-112632651D01*
X125413763Y-112684767D01*
X125347787Y-112704780D01*
X125215836Y-112744807D01*
X125138707Y-112752404D01*
X125061580Y-112760000D01*
X124958420Y-112760000D01*
X124881293Y-112752404D01*
X124804164Y-112744807D01*
X124672213Y-112704780D01*
X124606237Y-112684767D01*
X124423828Y-112587267D01*
X124263946Y-112456054D01*
X124132733Y-112296172D01*
X124035233Y-112113763D01*
X124015220Y-112047787D01*
X123975193Y-111915836D01*
X123954920Y-111710000D01*
X123975193Y-111504164D01*
X124035233Y-111306238D01*
X124035233Y-111306237D01*
X124132733Y-111123828D01*
X124263946Y-110963946D01*
X124423828Y-110832733D01*
X124606237Y-110735233D01*
X124672213Y-110715220D01*
X124804164Y-110675193D01*
X124881293Y-110667596D01*
X124958420Y-110660000D01*
X125061580Y-110660000D01*
X125138707Y-110667596D01*
X125138707Y-110667596D01*
G37*
G36*
X141928707Y-108127597D02*
X142005836Y-108135193D01*
X142137787Y-108175220D01*
X142203763Y-108195233D01*
X142365307Y-108281581D01*
X142386171Y-108292733D01*
X142505705Y-108390832D01*
X142526075Y-108404443D01*
X142548714Y-108413820D01*
X142572747Y-108418601D01*
X142597252Y-108418601D01*
X142621285Y-108413821D01*
X142643924Y-108404443D01*
X142664295Y-108390832D01*
X142783829Y-108292733D01*
X142804693Y-108281581D01*
X142966237Y-108195233D01*
X143032213Y-108175220D01*
X143164164Y-108135193D01*
X143241293Y-108127597D01*
X143318420Y-108120000D01*
X143421580Y-108120000D01*
X143498707Y-108127597D01*
X143575836Y-108135193D01*
X143707787Y-108175220D01*
X143773763Y-108195233D01*
X143956172Y-108292733D01*
X144116054Y-108423946D01*
X144247267Y-108583828D01*
X144344767Y-108766237D01*
X144344767Y-108766238D01*
X144404807Y-108964164D01*
X144425080Y-109170000D01*
X144404807Y-109375836D01*
X144364780Y-109507787D01*
X144344767Y-109573763D01*
X144247267Y-109756172D01*
X144116054Y-109916054D01*
X143956172Y-110047267D01*
X143773763Y-110144767D01*
X143707787Y-110164780D01*
X143575836Y-110204807D01*
X143498707Y-110212403D01*
X143421580Y-110220000D01*
X143318420Y-110220000D01*
X143241293Y-110212403D01*
X143164164Y-110204807D01*
X143032213Y-110164780D01*
X142966237Y-110144767D01*
X142783831Y-110047268D01*
X142783829Y-110047267D01*
X142664295Y-109949168D01*
X142643925Y-109935557D01*
X142621286Y-109926180D01*
X142597253Y-109921399D01*
X142572748Y-109921399D01*
X142548715Y-109926179D01*
X142526076Y-109935557D01*
X142505705Y-109949168D01*
X142386171Y-110047267D01*
X142386169Y-110047268D01*
X142203763Y-110144767D01*
X142137787Y-110164780D01*
X142005836Y-110204807D01*
X141928707Y-110212403D01*
X141851580Y-110220000D01*
X141748420Y-110220000D01*
X141671293Y-110212403D01*
X141594164Y-110204807D01*
X141462213Y-110164780D01*
X141396237Y-110144767D01*
X141213828Y-110047267D01*
X141053946Y-109916054D01*
X140922733Y-109756172D01*
X140825233Y-109573763D01*
X140805220Y-109507787D01*
X140765193Y-109375836D01*
X140744920Y-109170000D01*
X140765193Y-108964164D01*
X140825233Y-108766238D01*
X140825233Y-108766237D01*
X140922733Y-108583828D01*
X141053946Y-108423946D01*
X141213828Y-108292733D01*
X141396237Y-108195233D01*
X141462213Y-108175220D01*
X141594164Y-108135193D01*
X141671293Y-108127597D01*
X141748420Y-108120000D01*
X141851580Y-108120000D01*
X141928707Y-108127597D01*
X141928707Y-108127597D01*
G37*
G36*
X125138707Y-108127597D02*
X125215836Y-108135193D01*
X125347787Y-108175220D01*
X125413763Y-108195233D01*
X125511263Y-108247349D01*
X125596171Y-108292733D01*
X125596173Y-108292734D01*
X125596172Y-108292734D01*
X125700701Y-108378518D01*
X125721075Y-108392132D01*
X125743714Y-108401510D01*
X125767748Y-108406290D01*
X125792252Y-108406290D01*
X125816286Y-108401510D01*
X125838925Y-108392132D01*
X125859299Y-108378518D01*
X125963828Y-108292734D01*
X125963827Y-108292734D01*
X125963829Y-108292733D01*
X126048737Y-108247349D01*
X126146237Y-108195233D01*
X126212213Y-108175220D01*
X126344164Y-108135193D01*
X126421293Y-108127597D01*
X126498420Y-108120000D01*
X126601580Y-108120000D01*
X126678707Y-108127597D01*
X126755836Y-108135193D01*
X126887787Y-108175220D01*
X126953763Y-108195233D01*
X127136172Y-108292733D01*
X127296054Y-108423946D01*
X127427267Y-108583828D01*
X127524767Y-108766237D01*
X127524767Y-108766238D01*
X127584807Y-108964164D01*
X127605080Y-109170000D01*
X127584807Y-109375836D01*
X127544780Y-109507787D01*
X127524767Y-109573763D01*
X127427267Y-109756172D01*
X127296054Y-109916054D01*
X127136172Y-110047267D01*
X126953763Y-110144767D01*
X126887787Y-110164780D01*
X126755836Y-110204807D01*
X126678707Y-110212403D01*
X126601580Y-110220000D01*
X126498420Y-110220000D01*
X126421293Y-110212403D01*
X126344164Y-110204807D01*
X126212213Y-110164780D01*
X126146237Y-110144767D01*
X126048737Y-110092651D01*
X125963829Y-110047267D01*
X125945145Y-110031933D01*
X125859299Y-109961482D01*
X125838925Y-109947868D01*
X125816286Y-109938490D01*
X125792252Y-109933710D01*
X125767748Y-109933710D01*
X125743714Y-109938490D01*
X125721075Y-109947868D01*
X125700701Y-109961482D01*
X125614855Y-110031933D01*
X125596171Y-110047267D01*
X125511263Y-110092651D01*
X125413763Y-110144767D01*
X125347787Y-110164780D01*
X125215836Y-110204807D01*
X125138707Y-110212403D01*
X125061580Y-110220000D01*
X124958420Y-110220000D01*
X124881293Y-110212403D01*
X124804164Y-110204807D01*
X124672213Y-110164780D01*
X124606237Y-110144767D01*
X124423828Y-110047267D01*
X124263946Y-109916054D01*
X124132733Y-109756172D01*
X124035233Y-109573763D01*
X124015220Y-109507787D01*
X123975193Y-109375836D01*
X123954920Y-109170000D01*
X123975193Y-108964164D01*
X124035233Y-108766238D01*
X124035233Y-108766237D01*
X124132733Y-108583828D01*
X124263946Y-108423946D01*
X124423828Y-108292733D01*
X124606237Y-108195233D01*
X124672213Y-108175220D01*
X124804164Y-108135193D01*
X124881293Y-108127597D01*
X124958420Y-108120000D01*
X125061580Y-108120000D01*
X125138707Y-108127597D01*
X125138707Y-108127597D01*
G37*
G36*
X141928707Y-105587596D02*
X142005836Y-105595193D01*
X142137787Y-105635220D01*
X142203763Y-105655233D01*
X142365307Y-105741581D01*
X142386171Y-105752733D01*
X142505705Y-105850832D01*
X142526075Y-105864443D01*
X142548714Y-105873820D01*
X142572747Y-105878601D01*
X142597252Y-105878601D01*
X142621285Y-105873821D01*
X142643924Y-105864443D01*
X142664295Y-105850832D01*
X142783829Y-105752733D01*
X142804693Y-105741581D01*
X142966237Y-105655233D01*
X143032213Y-105635220D01*
X143164164Y-105595193D01*
X143241293Y-105587596D01*
X143318420Y-105580000D01*
X143421580Y-105580000D01*
X143498707Y-105587596D01*
X143575836Y-105595193D01*
X143707787Y-105635220D01*
X143773763Y-105655233D01*
X143956172Y-105752733D01*
X144116054Y-105883946D01*
X144247267Y-106043828D01*
X144344767Y-106226237D01*
X144344767Y-106226238D01*
X144404807Y-106424164D01*
X144425080Y-106630000D01*
X144404807Y-106835836D01*
X144364780Y-106967787D01*
X144344767Y-107033763D01*
X144247267Y-107216172D01*
X144116054Y-107376054D01*
X143956172Y-107507267D01*
X143773763Y-107604767D01*
X143707787Y-107624780D01*
X143575836Y-107664807D01*
X143498707Y-107672404D01*
X143421580Y-107680000D01*
X143318420Y-107680000D01*
X143241293Y-107672404D01*
X143164164Y-107664807D01*
X143032213Y-107624780D01*
X142966237Y-107604767D01*
X142783831Y-107507268D01*
X142783829Y-107507267D01*
X142664295Y-107409168D01*
X142643925Y-107395557D01*
X142621286Y-107386180D01*
X142597253Y-107381399D01*
X142572748Y-107381399D01*
X142548715Y-107386179D01*
X142526076Y-107395557D01*
X142505705Y-107409168D01*
X142386171Y-107507267D01*
X142386169Y-107507268D01*
X142203763Y-107604767D01*
X142137787Y-107624780D01*
X142005836Y-107664807D01*
X141928707Y-107672404D01*
X141851580Y-107680000D01*
X141748420Y-107680000D01*
X141671293Y-107672404D01*
X141594164Y-107664807D01*
X141462213Y-107624780D01*
X141396237Y-107604767D01*
X141213828Y-107507267D01*
X141053946Y-107376054D01*
X140922733Y-107216172D01*
X140825233Y-107033763D01*
X140805220Y-106967787D01*
X140765193Y-106835836D01*
X140744920Y-106630000D01*
X140765193Y-106424164D01*
X140825233Y-106226238D01*
X140825233Y-106226237D01*
X140922733Y-106043828D01*
X141053946Y-105883946D01*
X141213828Y-105752733D01*
X141396237Y-105655233D01*
X141462213Y-105635220D01*
X141594164Y-105595193D01*
X141671293Y-105587596D01*
X141748420Y-105580000D01*
X141851580Y-105580000D01*
X141928707Y-105587596D01*
X141928707Y-105587596D01*
G37*
G36*
X125138707Y-105587596D02*
X125215836Y-105595193D01*
X125347787Y-105635220D01*
X125413763Y-105655233D01*
X125511263Y-105707349D01*
X125596171Y-105752733D01*
X125596173Y-105752734D01*
X125596172Y-105752734D01*
X125700701Y-105838518D01*
X125721075Y-105852132D01*
X125743714Y-105861510D01*
X125767748Y-105866290D01*
X125792252Y-105866290D01*
X125816286Y-105861510D01*
X125838925Y-105852132D01*
X125859299Y-105838518D01*
X125963828Y-105752734D01*
X125963827Y-105752734D01*
X125963829Y-105752733D01*
X126048737Y-105707349D01*
X126146237Y-105655233D01*
X126212213Y-105635220D01*
X126344164Y-105595193D01*
X126421293Y-105587596D01*
X126498420Y-105580000D01*
X126601580Y-105580000D01*
X126678707Y-105587596D01*
X126755836Y-105595193D01*
X126887787Y-105635220D01*
X126953763Y-105655233D01*
X127136172Y-105752733D01*
X127296054Y-105883946D01*
X127427267Y-106043828D01*
X127524767Y-106226237D01*
X127524767Y-106226238D01*
X127584807Y-106424164D01*
X127605080Y-106630000D01*
X127584807Y-106835836D01*
X127544780Y-106967787D01*
X127524767Y-107033763D01*
X127427267Y-107216172D01*
X127296054Y-107376054D01*
X127136172Y-107507267D01*
X126953763Y-107604767D01*
X126887787Y-107624780D01*
X126755836Y-107664807D01*
X126678707Y-107672404D01*
X126601580Y-107680000D01*
X126498420Y-107680000D01*
X126421293Y-107672404D01*
X126344164Y-107664807D01*
X126212213Y-107624780D01*
X126146237Y-107604767D01*
X126048737Y-107552651D01*
X125963829Y-107507267D01*
X125945145Y-107491933D01*
X125859299Y-107421482D01*
X125838925Y-107407868D01*
X125816286Y-107398490D01*
X125792252Y-107393710D01*
X125767748Y-107393710D01*
X125743714Y-107398490D01*
X125721075Y-107407868D01*
X125700701Y-107421482D01*
X125614855Y-107491933D01*
X125596171Y-107507267D01*
X125511263Y-107552651D01*
X125413763Y-107604767D01*
X125347787Y-107624780D01*
X125215836Y-107664807D01*
X125138707Y-107672404D01*
X125061580Y-107680000D01*
X124958420Y-107680000D01*
X124881293Y-107672404D01*
X124804164Y-107664807D01*
X124672213Y-107624780D01*
X124606237Y-107604767D01*
X124423828Y-107507267D01*
X124263946Y-107376054D01*
X124132733Y-107216172D01*
X124035233Y-107033763D01*
X124015220Y-106967787D01*
X123975193Y-106835836D01*
X123954920Y-106630000D01*
X123975193Y-106424164D01*
X124035233Y-106226238D01*
X124035233Y-106226237D01*
X124132733Y-106043828D01*
X124263946Y-105883946D01*
X124423828Y-105752733D01*
X124606237Y-105655233D01*
X124672213Y-105635220D01*
X124804164Y-105595193D01*
X124881293Y-105587596D01*
X124958420Y-105580000D01*
X125061580Y-105580000D01*
X125138707Y-105587596D01*
X125138707Y-105587596D01*
G37*
G36*
X131790848Y-103818826D02*
X131903681Y-103865563D01*
X132005228Y-103933415D01*
X132091585Y-104019772D01*
X132141067Y-104093826D01*
X132156612Y-104112768D01*
X132175554Y-104128313D01*
X132197165Y-104139864D01*
X132220615Y-104146977D01*
X132245001Y-104149379D01*
X132269387Y-104146977D01*
X132292836Y-104139864D01*
X132314447Y-104128312D01*
X132333389Y-104112767D01*
X132348933Y-104093826D01*
X132398415Y-104019772D01*
X132484772Y-103933415D01*
X132586319Y-103865563D01*
X132699152Y-103818826D01*
X132818934Y-103795000D01*
X132941066Y-103795000D01*
X133060848Y-103818826D01*
X133173681Y-103865563D01*
X133275228Y-103933415D01*
X133361585Y-104019772D01*
X133411067Y-104093826D01*
X133426612Y-104112768D01*
X133445554Y-104128313D01*
X133467165Y-104139864D01*
X133490615Y-104146977D01*
X133515001Y-104149379D01*
X133539387Y-104146977D01*
X133562836Y-104139864D01*
X133584447Y-104128312D01*
X133603389Y-104112767D01*
X133618933Y-104093826D01*
X133668415Y-104019772D01*
X133754772Y-103933415D01*
X133856319Y-103865563D01*
X133969152Y-103818826D01*
X134088934Y-103795000D01*
X134211066Y-103795000D01*
X134330848Y-103818826D01*
X134443681Y-103865563D01*
X134545228Y-103933415D01*
X134631585Y-104019772D01*
X134681067Y-104093826D01*
X134696612Y-104112768D01*
X134715554Y-104128313D01*
X134737165Y-104139864D01*
X134760615Y-104146977D01*
X134785001Y-104149379D01*
X134809387Y-104146977D01*
X134832836Y-104139864D01*
X134854447Y-104128312D01*
X134873389Y-104112767D01*
X134888933Y-104093826D01*
X134938415Y-104019772D01*
X135024772Y-103933415D01*
X135126319Y-103865563D01*
X135239152Y-103818826D01*
X135358934Y-103795000D01*
X135481066Y-103795000D01*
X135600848Y-103818826D01*
X135713681Y-103865563D01*
X135815228Y-103933415D01*
X135901585Y-104019772D01*
X135951067Y-104093826D01*
X135966612Y-104112768D01*
X135985554Y-104128313D01*
X136007165Y-104139864D01*
X136030615Y-104146977D01*
X136055001Y-104149379D01*
X136079387Y-104146977D01*
X136102836Y-104139864D01*
X136124447Y-104128312D01*
X136143389Y-104112767D01*
X136158933Y-104093826D01*
X136208415Y-104019772D01*
X136294772Y-103933415D01*
X136396319Y-103865563D01*
X136509152Y-103818826D01*
X136628934Y-103795000D01*
X136751066Y-103795000D01*
X136870848Y-103818826D01*
X136983681Y-103865563D01*
X137085228Y-103933415D01*
X137171585Y-104019772D01*
X137239437Y-104121319D01*
X137286174Y-104234152D01*
X137310000Y-104353934D01*
X137310000Y-104476066D01*
X137286174Y-104595848D01*
X137239437Y-104708681D01*
X137171585Y-104810228D01*
X137085228Y-104896585D01*
X137011174Y-104946067D01*
X136992232Y-104961612D01*
X136976687Y-104980554D01*
X136965136Y-105002165D01*
X136958023Y-105025615D01*
X136955621Y-105050001D01*
X136958023Y-105074387D01*
X136965136Y-105097836D01*
X136976688Y-105119447D01*
X136992233Y-105138389D01*
X137011174Y-105153933D01*
X137085228Y-105203415D01*
X137171585Y-105289772D01*
X137239437Y-105391319D01*
X137286174Y-105504152D01*
X137310000Y-105623934D01*
X137310000Y-105746066D01*
X137286174Y-105865848D01*
X137239437Y-105978681D01*
X137171585Y-106080228D01*
X137085228Y-106166585D01*
X136983681Y-106234437D01*
X136870848Y-106281174D01*
X136751066Y-106305000D01*
X136628934Y-106305000D01*
X136509152Y-106281174D01*
X136396319Y-106234437D01*
X136294772Y-106166585D01*
X136208415Y-106080228D01*
X136158933Y-106006174D01*
X136143388Y-105987232D01*
X136124446Y-105971687D01*
X136102835Y-105960136D01*
X136079385Y-105953023D01*
X136054999Y-105950621D01*
X136030613Y-105953023D01*
X136007164Y-105960136D01*
X135985553Y-105971688D01*
X135966611Y-105987233D01*
X135951067Y-106006174D01*
X135901585Y-106080228D01*
X135815228Y-106166585D01*
X135713681Y-106234437D01*
X135600848Y-106281174D01*
X135481066Y-106305000D01*
X135358934Y-106305000D01*
X135239152Y-106281174D01*
X135126319Y-106234437D01*
X135024772Y-106166585D01*
X134938415Y-106080228D01*
X134888933Y-106006174D01*
X134873388Y-105987232D01*
X134854446Y-105971687D01*
X134832835Y-105960136D01*
X134809385Y-105953023D01*
X134784999Y-105950621D01*
X134760613Y-105953023D01*
X134737164Y-105960136D01*
X134715553Y-105971688D01*
X134696611Y-105987233D01*
X134681067Y-106006174D01*
X134631585Y-106080228D01*
X134545228Y-106166585D01*
X134443681Y-106234437D01*
X134330848Y-106281174D01*
X134211066Y-106305000D01*
X134088934Y-106305000D01*
X133969152Y-106281174D01*
X133856319Y-106234437D01*
X133754772Y-106166585D01*
X133668415Y-106080228D01*
X133618933Y-106006174D01*
X133603388Y-105987232D01*
X133584446Y-105971687D01*
X133562835Y-105960136D01*
X133539385Y-105953023D01*
X133514999Y-105950621D01*
X133490613Y-105953023D01*
X133467164Y-105960136D01*
X133445553Y-105971688D01*
X133426611Y-105987233D01*
X133411067Y-106006174D01*
X133361585Y-106080228D01*
X133275228Y-106166585D01*
X133173681Y-106234437D01*
X133060848Y-106281174D01*
X132941066Y-106305000D01*
X132818934Y-106305000D01*
X132699152Y-106281174D01*
X132586319Y-106234437D01*
X132484772Y-106166585D01*
X132398415Y-106080228D01*
X132348933Y-106006174D01*
X132333388Y-105987232D01*
X132314446Y-105971687D01*
X132292835Y-105960136D01*
X132269385Y-105953023D01*
X132244999Y-105950621D01*
X132220613Y-105953023D01*
X132197164Y-105960136D01*
X132175553Y-105971688D01*
X132156611Y-105987233D01*
X132141067Y-106006174D01*
X132091585Y-106080228D01*
X132005228Y-106166585D01*
X131903681Y-106234437D01*
X131790848Y-106281174D01*
X131671066Y-106305000D01*
X131548934Y-106305000D01*
X131429152Y-106281174D01*
X131316319Y-106234437D01*
X131214772Y-106166585D01*
X131128415Y-106080228D01*
X131060563Y-105978681D01*
X131013826Y-105865848D01*
X130990000Y-105746066D01*
X130990000Y-105623934D01*
X131013826Y-105504152D01*
X131060563Y-105391319D01*
X131128415Y-105289772D01*
X131214772Y-105203415D01*
X131288826Y-105153933D01*
X131307768Y-105138388D01*
X131323313Y-105119446D01*
X131334864Y-105097835D01*
X131341977Y-105074385D01*
X131344378Y-105050001D01*
X131875621Y-105050001D01*
X131878023Y-105074387D01*
X131885136Y-105097836D01*
X131896688Y-105119447D01*
X131912233Y-105138389D01*
X131931174Y-105153933D01*
X132005228Y-105203415D01*
X132091585Y-105289772D01*
X132141067Y-105363826D01*
X132156612Y-105382768D01*
X132175554Y-105398313D01*
X132197165Y-105409864D01*
X132220615Y-105416977D01*
X132245001Y-105419379D01*
X132269387Y-105416977D01*
X132292836Y-105409864D01*
X132314447Y-105398312D01*
X132333389Y-105382767D01*
X132348933Y-105363826D01*
X132398415Y-105289772D01*
X132484772Y-105203415D01*
X132558826Y-105153933D01*
X132577768Y-105138388D01*
X132593313Y-105119446D01*
X132604864Y-105097835D01*
X132611977Y-105074385D01*
X132614378Y-105050001D01*
X133145621Y-105050001D01*
X133148023Y-105074387D01*
X133155136Y-105097836D01*
X133166688Y-105119447D01*
X133182233Y-105138389D01*
X133201174Y-105153933D01*
X133275228Y-105203415D01*
X133361585Y-105289772D01*
X133411067Y-105363826D01*
X133426612Y-105382768D01*
X133445554Y-105398313D01*
X133467165Y-105409864D01*
X133490615Y-105416977D01*
X133515001Y-105419379D01*
X133539387Y-105416977D01*
X133562836Y-105409864D01*
X133584447Y-105398312D01*
X133603389Y-105382767D01*
X133618933Y-105363826D01*
X133668415Y-105289772D01*
X133754772Y-105203415D01*
X133828826Y-105153933D01*
X133847768Y-105138388D01*
X133863313Y-105119446D01*
X133874864Y-105097835D01*
X133881977Y-105074385D01*
X133884378Y-105050001D01*
X134415621Y-105050001D01*
X134418023Y-105074387D01*
X134425136Y-105097836D01*
X134436688Y-105119447D01*
X134452233Y-105138389D01*
X134471174Y-105153933D01*
X134545228Y-105203415D01*
X134631585Y-105289772D01*
X134681067Y-105363826D01*
X134696612Y-105382768D01*
X134715554Y-105398313D01*
X134737165Y-105409864D01*
X134760615Y-105416977D01*
X134785001Y-105419379D01*
X134809387Y-105416977D01*
X134832836Y-105409864D01*
X134854447Y-105398312D01*
X134873389Y-105382767D01*
X134888933Y-105363826D01*
X134938415Y-105289772D01*
X135024772Y-105203415D01*
X135098826Y-105153933D01*
X135117768Y-105138388D01*
X135133313Y-105119446D01*
X135144864Y-105097835D01*
X135151977Y-105074385D01*
X135154378Y-105050001D01*
X135685621Y-105050001D01*
X135688023Y-105074387D01*
X135695136Y-105097836D01*
X135706688Y-105119447D01*
X135722233Y-105138389D01*
X135741174Y-105153933D01*
X135815228Y-105203415D01*
X135901585Y-105289772D01*
X135951067Y-105363826D01*
X135966612Y-105382768D01*
X135985554Y-105398313D01*
X136007165Y-105409864D01*
X136030615Y-105416977D01*
X136055001Y-105419379D01*
X136079387Y-105416977D01*
X136102836Y-105409864D01*
X136124447Y-105398312D01*
X136143389Y-105382767D01*
X136158933Y-105363826D01*
X136208415Y-105289772D01*
X136294772Y-105203415D01*
X136368826Y-105153933D01*
X136387768Y-105138388D01*
X136403313Y-105119446D01*
X136414864Y-105097835D01*
X136421977Y-105074385D01*
X136424379Y-105049999D01*
X136421977Y-105025613D01*
X136414864Y-105002164D01*
X136403312Y-104980553D01*
X136387767Y-104961611D01*
X136368826Y-104946067D01*
X136294772Y-104896585D01*
X136208415Y-104810228D01*
X136158933Y-104736174D01*
X136143388Y-104717232D01*
X136124446Y-104701687D01*
X136102835Y-104690136D01*
X136079385Y-104683023D01*
X136054999Y-104680621D01*
X136030613Y-104683023D01*
X136007164Y-104690136D01*
X135985553Y-104701688D01*
X135966611Y-104717233D01*
X135951067Y-104736174D01*
X135901585Y-104810228D01*
X135815228Y-104896585D01*
X135741174Y-104946067D01*
X135722232Y-104961612D01*
X135706687Y-104980554D01*
X135695136Y-105002165D01*
X135688023Y-105025615D01*
X135685621Y-105050001D01*
X135154378Y-105050001D01*
X135154379Y-105049999D01*
X135151977Y-105025613D01*
X135144864Y-105002164D01*
X135133312Y-104980553D01*
X135117767Y-104961611D01*
X135098826Y-104946067D01*
X135024772Y-104896585D01*
X134938415Y-104810228D01*
X134888933Y-104736174D01*
X134873388Y-104717232D01*
X134854446Y-104701687D01*
X134832835Y-104690136D01*
X134809385Y-104683023D01*
X134784999Y-104680621D01*
X134760613Y-104683023D01*
X134737164Y-104690136D01*
X134715553Y-104701688D01*
X134696611Y-104717233D01*
X134681067Y-104736174D01*
X134631585Y-104810228D01*
X134545228Y-104896585D01*
X134471174Y-104946067D01*
X134452232Y-104961612D01*
X134436687Y-104980554D01*
X134425136Y-105002165D01*
X134418023Y-105025615D01*
X134415621Y-105050001D01*
X133884378Y-105050001D01*
X133884379Y-105049999D01*
X133881977Y-105025613D01*
X133874864Y-105002164D01*
X133863312Y-104980553D01*
X133847767Y-104961611D01*
X133828826Y-104946067D01*
X133754772Y-104896585D01*
X133668415Y-104810228D01*
X133618933Y-104736174D01*
X133603388Y-104717232D01*
X133584446Y-104701687D01*
X133562835Y-104690136D01*
X133539385Y-104683023D01*
X133514999Y-104680621D01*
X133490613Y-104683023D01*
X133467164Y-104690136D01*
X133445553Y-104701688D01*
X133426611Y-104717233D01*
X133411067Y-104736174D01*
X133361585Y-104810228D01*
X133275228Y-104896585D01*
X133201174Y-104946067D01*
X133182232Y-104961612D01*
X133166687Y-104980554D01*
X133155136Y-105002165D01*
X133148023Y-105025615D01*
X133145621Y-105050001D01*
X132614378Y-105050001D01*
X132614379Y-105049999D01*
X132611977Y-105025613D01*
X132604864Y-105002164D01*
X132593312Y-104980553D01*
X132577767Y-104961611D01*
X132558826Y-104946067D01*
X132484772Y-104896585D01*
X132398415Y-104810228D01*
X132348933Y-104736174D01*
X132333388Y-104717232D01*
X132314446Y-104701687D01*
X132292835Y-104690136D01*
X132269385Y-104683023D01*
X132244999Y-104680621D01*
X132220613Y-104683023D01*
X132197164Y-104690136D01*
X132175553Y-104701688D01*
X132156611Y-104717233D01*
X132141067Y-104736174D01*
X132091585Y-104810228D01*
X132005228Y-104896585D01*
X131931174Y-104946067D01*
X131912232Y-104961612D01*
X131896687Y-104980554D01*
X131885136Y-105002165D01*
X131878023Y-105025615D01*
X131875621Y-105050001D01*
X131344378Y-105050001D01*
X131344379Y-105049999D01*
X131341977Y-105025613D01*
X131334864Y-105002164D01*
X131323312Y-104980553D01*
X131307767Y-104961611D01*
X131288826Y-104946067D01*
X131214772Y-104896585D01*
X131128415Y-104810228D01*
X131060563Y-104708681D01*
X131013826Y-104595848D01*
X130990000Y-104476066D01*
X130990000Y-104353934D01*
X131013826Y-104234152D01*
X131060563Y-104121319D01*
X131128415Y-104019772D01*
X131214772Y-103933415D01*
X131316319Y-103865563D01*
X131429152Y-103818826D01*
X131548934Y-103795000D01*
X131671066Y-103795000D01*
X131790848Y-103818826D01*
X131790848Y-103818826D01*
G37*
G36*
X125138707Y-103047597D02*
X125215836Y-103055193D01*
X125347787Y-103095220D01*
X125413763Y-103115233D01*
X125511263Y-103167349D01*
X125596171Y-103212733D01*
X125596173Y-103212734D01*
X125596172Y-103212734D01*
X125700701Y-103298518D01*
X125721075Y-103312132D01*
X125743714Y-103321510D01*
X125767748Y-103326290D01*
X125792252Y-103326290D01*
X125816286Y-103321510D01*
X125838925Y-103312132D01*
X125859299Y-103298518D01*
X125963828Y-103212734D01*
X125963827Y-103212734D01*
X125963829Y-103212733D01*
X126048737Y-103167349D01*
X126146237Y-103115233D01*
X126212213Y-103095220D01*
X126344164Y-103055193D01*
X126421293Y-103047597D01*
X126498420Y-103040000D01*
X126601580Y-103040000D01*
X126678707Y-103047597D01*
X126755836Y-103055193D01*
X126887787Y-103095220D01*
X126953763Y-103115233D01*
X127136172Y-103212733D01*
X127296054Y-103343946D01*
X127427267Y-103503828D01*
X127524767Y-103686237D01*
X127524767Y-103686238D01*
X127584807Y-103884164D01*
X127605080Y-104090000D01*
X127584807Y-104295836D01*
X127567183Y-104353934D01*
X127524767Y-104493763D01*
X127427267Y-104676172D01*
X127296054Y-104836054D01*
X127136172Y-104967267D01*
X126953763Y-105064767D01*
X126887787Y-105084780D01*
X126755836Y-105124807D01*
X126678707Y-105132403D01*
X126601580Y-105140000D01*
X126498420Y-105140000D01*
X126421293Y-105132404D01*
X126344164Y-105124807D01*
X126212213Y-105084780D01*
X126146237Y-105064767D01*
X126045973Y-105011174D01*
X125963829Y-104967267D01*
X125937997Y-104946067D01*
X125859299Y-104881482D01*
X125838925Y-104867868D01*
X125816286Y-104858490D01*
X125792252Y-104853710D01*
X125767748Y-104853710D01*
X125743714Y-104858490D01*
X125721075Y-104867868D01*
X125700701Y-104881482D01*
X125622003Y-104946067D01*
X125596171Y-104967267D01*
X125514027Y-105011174D01*
X125413763Y-105064767D01*
X125347787Y-105084780D01*
X125215836Y-105124807D01*
X125138707Y-105132403D01*
X125061580Y-105140000D01*
X124958420Y-105140000D01*
X124881293Y-105132404D01*
X124804164Y-105124807D01*
X124672213Y-105084780D01*
X124606237Y-105064767D01*
X124423828Y-104967267D01*
X124263946Y-104836054D01*
X124132733Y-104676172D01*
X124035233Y-104493763D01*
X123992817Y-104353934D01*
X123975193Y-104295836D01*
X123954920Y-104090000D01*
X123975193Y-103884164D01*
X124035233Y-103686238D01*
X124035233Y-103686237D01*
X124132733Y-103503828D01*
X124263946Y-103343946D01*
X124423828Y-103212733D01*
X124606237Y-103115233D01*
X124672213Y-103095220D01*
X124804164Y-103055193D01*
X124881293Y-103047597D01*
X124958420Y-103040000D01*
X125061580Y-103040000D01*
X125138707Y-103047597D01*
X125138707Y-103047597D01*
G37*
G36*
X141928707Y-103047597D02*
X142005836Y-103055193D01*
X142137787Y-103095220D01*
X142203763Y-103115233D01*
X142365307Y-103201581D01*
X142386171Y-103212733D01*
X142505705Y-103310832D01*
X142526075Y-103324443D01*
X142548714Y-103333820D01*
X142572747Y-103338601D01*
X142597252Y-103338601D01*
X142621285Y-103333821D01*
X142643924Y-103324443D01*
X142664295Y-103310832D01*
X142783829Y-103212733D01*
X142804693Y-103201581D01*
X142966237Y-103115233D01*
X143032213Y-103095220D01*
X143164164Y-103055193D01*
X143241293Y-103047597D01*
X143318420Y-103040000D01*
X143421580Y-103040000D01*
X143498707Y-103047597D01*
X143575836Y-103055193D01*
X143707787Y-103095220D01*
X143773763Y-103115233D01*
X143956172Y-103212733D01*
X144116054Y-103343946D01*
X144247267Y-103503828D01*
X144344767Y-103686237D01*
X144344767Y-103686238D01*
X144404807Y-103884164D01*
X144425080Y-104090000D01*
X144404807Y-104295836D01*
X144387183Y-104353934D01*
X144344767Y-104493763D01*
X144247267Y-104676172D01*
X144116054Y-104836054D01*
X143956172Y-104967267D01*
X143773763Y-105064767D01*
X143707787Y-105084780D01*
X143575836Y-105124807D01*
X143498707Y-105132403D01*
X143421580Y-105140000D01*
X143318420Y-105140000D01*
X143241293Y-105132404D01*
X143164164Y-105124807D01*
X143032213Y-105084780D01*
X142966237Y-105064767D01*
X142783831Y-104967268D01*
X142783829Y-104967267D01*
X142664295Y-104869168D01*
X142643925Y-104855557D01*
X142621286Y-104846180D01*
X142597253Y-104841399D01*
X142572748Y-104841399D01*
X142548715Y-104846179D01*
X142526076Y-104855557D01*
X142505705Y-104869168D01*
X142386171Y-104967267D01*
X142386169Y-104967268D01*
X142203763Y-105064767D01*
X142137787Y-105084780D01*
X142005836Y-105124807D01*
X141928707Y-105132403D01*
X141851580Y-105140000D01*
X141748420Y-105140000D01*
X141671293Y-105132404D01*
X141594164Y-105124807D01*
X141462213Y-105084780D01*
X141396237Y-105064767D01*
X141213828Y-104967267D01*
X141053946Y-104836054D01*
X140922733Y-104676172D01*
X140825233Y-104493763D01*
X140782817Y-104353934D01*
X140765193Y-104295836D01*
X140744920Y-104090000D01*
X140765193Y-103884164D01*
X140825233Y-103686238D01*
X140825233Y-103686237D01*
X140922733Y-103503828D01*
X141053946Y-103343946D01*
X141213828Y-103212733D01*
X141396237Y-103115233D01*
X141462213Y-103095220D01*
X141594164Y-103055193D01*
X141671293Y-103047597D01*
X141748420Y-103040000D01*
X141851580Y-103040000D01*
X141928707Y-103047597D01*
X141928707Y-103047597D01*
G37*
G36*
X141925888Y-100504470D02*
X142106274Y-100540350D01*
X142297362Y-100619502D01*
X142469336Y-100734411D01*
X142496612Y-100761687D01*
X142515554Y-100777233D01*
X142537165Y-100788784D01*
X142560614Y-100795897D01*
X142585000Y-100798299D01*
X142609386Y-100795897D01*
X142632835Y-100788784D01*
X142654446Y-100777233D01*
X142673388Y-100761687D01*
X142700664Y-100734411D01*
X142872638Y-100619502D01*
X143063726Y-100540350D01*
X143244112Y-100504470D01*
X143266583Y-100500000D01*
X143473417Y-100500000D01*
X143495888Y-100504470D01*
X143676274Y-100540350D01*
X143867362Y-100619502D01*
X144039336Y-100734411D01*
X144185589Y-100880664D01*
X144300498Y-101052638D01*
X144379650Y-101243726D01*
X144420000Y-101446584D01*
X144420000Y-101653416D01*
X144379650Y-101856274D01*
X144300498Y-102047362D01*
X144185589Y-102219336D01*
X144039336Y-102365589D01*
X143867362Y-102480498D01*
X143676274Y-102559650D01*
X143495888Y-102595530D01*
X143473417Y-102600000D01*
X143266583Y-102600000D01*
X143244112Y-102595530D01*
X143063726Y-102559650D01*
X142872638Y-102480498D01*
X142700664Y-102365589D01*
X142673388Y-102338313D01*
X142654446Y-102322767D01*
X142632835Y-102311216D01*
X142609386Y-102304103D01*
X142585000Y-102301701D01*
X142560614Y-102304103D01*
X142537165Y-102311216D01*
X142515554Y-102322767D01*
X142496612Y-102338313D01*
X142469336Y-102365589D01*
X142297362Y-102480498D01*
X142106274Y-102559650D01*
X141925888Y-102595530D01*
X141903417Y-102600000D01*
X141696583Y-102600000D01*
X141674112Y-102595530D01*
X141493726Y-102559650D01*
X141302638Y-102480498D01*
X141130664Y-102365589D01*
X140984411Y-102219336D01*
X140869502Y-102047362D01*
X140790350Y-101856274D01*
X140750000Y-101653416D01*
X140750000Y-101446584D01*
X140790350Y-101243726D01*
X140869502Y-101052638D01*
X140984411Y-100880664D01*
X141130664Y-100734411D01*
X141302638Y-100619502D01*
X141493726Y-100540350D01*
X141674112Y-100504470D01*
X141696583Y-100500000D01*
X141903417Y-100500000D01*
X141925888Y-100504470D01*
X141925888Y-100504470D01*
G37*
G36*
X136818707Y-98957597D02*
X136895836Y-98965193D01*
X137027787Y-99005220D01*
X137093763Y-99025233D01*
X137276172Y-99122733D01*
X137436054Y-99253946D01*
X137567267Y-99413828D01*
X137664767Y-99596237D01*
X137664767Y-99596238D01*
X137724807Y-99794164D01*
X137745080Y-100000000D01*
X137724807Y-100205836D01*
X137684780Y-100337787D01*
X137664767Y-100403763D01*
X137567267Y-100586172D01*
X137477378Y-100695701D01*
X137463764Y-100716075D01*
X137454387Y-100738714D01*
X137449606Y-100762747D01*
X137449606Y-100787252D01*
X137454386Y-100811285D01*
X137463764Y-100833924D01*
X137477378Y-100854299D01*
X137567267Y-100963828D01*
X137664767Y-101146237D01*
X137664767Y-101146238D01*
X137724807Y-101344164D01*
X137745080Y-101550000D01*
X137724807Y-101755836D01*
X137684780Y-101887787D01*
X137664767Y-101953763D01*
X137567267Y-102136172D01*
X137436054Y-102296054D01*
X137276172Y-102427267D01*
X137093763Y-102524767D01*
X137027787Y-102544780D01*
X136895836Y-102584807D01*
X136818707Y-102592403D01*
X136741580Y-102600000D01*
X136638420Y-102600000D01*
X136561293Y-102592403D01*
X136484164Y-102584807D01*
X136352213Y-102544780D01*
X136286237Y-102524767D01*
X136103828Y-102427267D01*
X135943946Y-102296054D01*
X135812733Y-102136172D01*
X135715233Y-101953763D01*
X135695220Y-101887787D01*
X135655193Y-101755836D01*
X135634920Y-101550000D01*
X135655193Y-101344164D01*
X135715233Y-101146238D01*
X135715233Y-101146237D01*
X135812733Y-100963828D01*
X135902622Y-100854299D01*
X135916236Y-100833925D01*
X135925613Y-100811286D01*
X135930394Y-100787253D01*
X135930394Y-100762748D01*
X135925614Y-100738715D01*
X135916236Y-100716076D01*
X135902622Y-100695701D01*
X135812733Y-100586172D01*
X135715233Y-100403763D01*
X135695220Y-100337787D01*
X135655193Y-100205836D01*
X135634920Y-100000000D01*
X135655193Y-99794164D01*
X135715233Y-99596238D01*
X135715233Y-99596237D01*
X135812733Y-99413828D01*
X135943946Y-99253946D01*
X136103828Y-99122733D01*
X136286237Y-99025233D01*
X136352213Y-99005220D01*
X136484164Y-98965193D01*
X136561293Y-98957596D01*
X136638420Y-98950000D01*
X136741580Y-98950000D01*
X136818707Y-98957597D01*
X136818707Y-98957597D01*
G37*
G36*
X134278707Y-98957597D02*
X134355836Y-98965193D01*
X134487787Y-99005220D01*
X134553763Y-99025233D01*
X134736172Y-99122733D01*
X134896054Y-99253946D01*
X135027267Y-99413828D01*
X135124767Y-99596237D01*
X135124767Y-99596238D01*
X135184807Y-99794164D01*
X135205080Y-100000000D01*
X135184807Y-100205836D01*
X135144780Y-100337787D01*
X135124767Y-100403763D01*
X135027267Y-100586172D01*
X134937378Y-100695701D01*
X134923764Y-100716075D01*
X134914387Y-100738714D01*
X134909606Y-100762747D01*
X134909606Y-100787252D01*
X134914386Y-100811285D01*
X134923764Y-100833924D01*
X134937378Y-100854299D01*
X135027267Y-100963828D01*
X135124767Y-101146237D01*
X135124767Y-101146238D01*
X135184807Y-101344164D01*
X135205080Y-101550000D01*
X135184807Y-101755836D01*
X135144780Y-101887787D01*
X135124767Y-101953763D01*
X135027267Y-102136172D01*
X134896054Y-102296054D01*
X134736172Y-102427267D01*
X134553763Y-102524767D01*
X134487787Y-102544780D01*
X134355836Y-102584807D01*
X134278707Y-102592403D01*
X134201580Y-102600000D01*
X134098420Y-102600000D01*
X134021293Y-102592403D01*
X133944164Y-102584807D01*
X133812213Y-102544780D01*
X133746237Y-102524767D01*
X133563828Y-102427267D01*
X133403946Y-102296054D01*
X133272733Y-102136172D01*
X133175233Y-101953763D01*
X133155220Y-101887787D01*
X133115193Y-101755836D01*
X133094920Y-101550000D01*
X133115193Y-101344164D01*
X133175233Y-101146238D01*
X133175233Y-101146237D01*
X133272733Y-100963828D01*
X133362622Y-100854299D01*
X133376236Y-100833925D01*
X133385613Y-100811286D01*
X133390394Y-100787253D01*
X133390394Y-100762748D01*
X133385614Y-100738715D01*
X133376236Y-100716076D01*
X133362622Y-100695701D01*
X133272733Y-100586172D01*
X133175233Y-100403763D01*
X133155220Y-100337787D01*
X133115193Y-100205836D01*
X133094920Y-100000000D01*
X133115193Y-99794164D01*
X133175233Y-99596238D01*
X133175233Y-99596237D01*
X133272733Y-99413828D01*
X133403946Y-99253946D01*
X133563828Y-99122733D01*
X133746237Y-99025233D01*
X133812213Y-99005220D01*
X133944164Y-98965193D01*
X134021293Y-98957596D01*
X134098420Y-98950000D01*
X134201580Y-98950000D01*
X134278707Y-98957597D01*
X134278707Y-98957597D01*
G37*
G36*
X131735888Y-98954470D02*
X131916274Y-98990350D01*
X132107362Y-99069502D01*
X132279336Y-99184411D01*
X132425589Y-99330664D01*
X132540498Y-99502638D01*
X132619650Y-99693726D01*
X132660000Y-99896584D01*
X132660000Y-100103416D01*
X132619650Y-100306274D01*
X132540498Y-100497362D01*
X132425589Y-100669336D01*
X132408313Y-100686612D01*
X132392767Y-100705554D01*
X132381216Y-100727165D01*
X132374103Y-100750614D01*
X132371701Y-100775000D01*
X132374103Y-100799386D01*
X132381216Y-100822835D01*
X132392767Y-100844446D01*
X132408313Y-100863388D01*
X132425589Y-100880664D01*
X132540498Y-101052638D01*
X132619650Y-101243726D01*
X132660000Y-101446584D01*
X132660000Y-101653416D01*
X132619650Y-101856274D01*
X132540498Y-102047362D01*
X132425589Y-102219336D01*
X132279336Y-102365589D01*
X132107362Y-102480498D01*
X131916274Y-102559650D01*
X131735888Y-102595530D01*
X131713417Y-102600000D01*
X131506583Y-102600000D01*
X131484112Y-102595530D01*
X131303726Y-102559650D01*
X131112638Y-102480498D01*
X130940664Y-102365589D01*
X130794411Y-102219336D01*
X130679502Y-102047362D01*
X130600350Y-101856274D01*
X130560000Y-101653416D01*
X130560000Y-101446584D01*
X130600350Y-101243726D01*
X130679502Y-101052638D01*
X130794411Y-100880664D01*
X130811687Y-100863388D01*
X130827233Y-100844446D01*
X130838784Y-100822835D01*
X130845897Y-100799386D01*
X130848299Y-100775000D01*
X130845897Y-100750614D01*
X130838784Y-100727165D01*
X130827233Y-100705554D01*
X130811687Y-100686612D01*
X130794411Y-100669336D01*
X130679502Y-100497362D01*
X130600350Y-100306274D01*
X130560000Y-100103416D01*
X130560000Y-99896584D01*
X130600350Y-99693726D01*
X130679502Y-99502638D01*
X130794411Y-99330664D01*
X130940664Y-99184411D01*
X131112638Y-99069502D01*
X131303726Y-98990350D01*
X131484112Y-98954470D01*
X131506583Y-98950000D01*
X131713417Y-98950000D01*
X131735888Y-98954470D01*
X131735888Y-98954470D01*
G37*
G36*
X125135888Y-100504470D02*
X125316274Y-100540350D01*
X125507362Y-100619502D01*
X125679336Y-100734411D01*
X125691612Y-100746687D01*
X125710554Y-100762233D01*
X125732165Y-100773784D01*
X125755614Y-100780897D01*
X125780000Y-100783299D01*
X125804386Y-100780897D01*
X125827835Y-100773784D01*
X125849446Y-100762233D01*
X125868388Y-100746687D01*
X125880664Y-100734411D01*
X126052638Y-100619502D01*
X126243726Y-100540350D01*
X126424112Y-100504470D01*
X126446583Y-100500000D01*
X126653417Y-100500000D01*
X126675888Y-100504470D01*
X126856274Y-100540350D01*
X127047362Y-100619502D01*
X127219336Y-100734411D01*
X127365589Y-100880664D01*
X127480498Y-101052638D01*
X127559650Y-101243726D01*
X127600000Y-101446584D01*
X127600000Y-101653416D01*
X127559650Y-101856274D01*
X127480498Y-102047362D01*
X127365589Y-102219336D01*
X127219336Y-102365589D01*
X127047362Y-102480498D01*
X126856274Y-102559650D01*
X126675888Y-102595530D01*
X126653417Y-102600000D01*
X126446583Y-102600000D01*
X126424112Y-102595530D01*
X126243726Y-102559650D01*
X126052638Y-102480498D01*
X125880664Y-102365589D01*
X125868388Y-102353313D01*
X125849446Y-102337767D01*
X125827835Y-102326216D01*
X125804386Y-102319103D01*
X125780000Y-102316701D01*
X125755614Y-102319103D01*
X125732165Y-102326216D01*
X125710554Y-102337767D01*
X125691612Y-102353313D01*
X125679336Y-102365589D01*
X125507362Y-102480498D01*
X125316274Y-102559650D01*
X125135888Y-102595530D01*
X125113417Y-102600000D01*
X124906583Y-102600000D01*
X124884112Y-102595530D01*
X124703726Y-102559650D01*
X124512638Y-102480498D01*
X124340664Y-102365589D01*
X124194411Y-102219336D01*
X124079502Y-102047362D01*
X124000350Y-101856274D01*
X123960000Y-101653416D01*
X123960000Y-101446584D01*
X124000350Y-101243726D01*
X124079502Y-101052638D01*
X124194411Y-100880664D01*
X124340664Y-100734411D01*
X124512638Y-100619502D01*
X124703726Y-100540350D01*
X124884112Y-100504470D01*
X124906583Y-100500000D01*
X125113417Y-100500000D01*
X125135888Y-100504470D01*
X125135888Y-100504470D01*
G37*
M02*
