M48
;DRILL file {KiCad 5.0.2-bee76a0~70~ubuntu18.04.1} date Tue 18 Dec 2018 09:45:56 AM PST
;FORMAT={-:-/ absolute / inch / decimal}
FMAT,2
INCH,TZ
T1C0.0118
T2C0.0197
T3C0.0217
T4C0.0236
T5C0.0394
%
G90
G05
T1
X4.9988Y-5.145
X5.0392Y-5.2686
X5.0689Y-4.0906
X5.072Y-4.9781
X5.0748Y-4.6476
X5.0753Y-5.011
X5.0768Y-5.0333
X5.0787Y-4.0217
X5.0807Y-5.2957
X5.0827Y-4.7126
X5.0866Y-4.4705
X5.0866Y-4.5866
X5.0886Y-4.5317
X5.0932Y-4.3661
X5.0932Y-5.1735
X5.1024Y-4.0217
X5.1085Y-4.6476
X5.1126Y-4.7382
X5.1146Y-4.9114
X5.1274Y-4.6831
X5.1382Y-4.9421
X5.1386Y-4.8898
X5.1398Y-4.6043
X5.1417Y-5.1752
X5.1454Y-5.2672
X5.1495Y-4.9707
X5.1504Y-4.7374
X5.1587Y-4.5676
X5.1651Y-4.934
X5.1681Y-5.175
X5.1827Y-5.2808
X5.1908Y-4.3457
X5.1937Y-4.8818
X5.1949Y-5.2087
X5.206Y-5.0089
X5.2075Y-4.9014
X5.2218Y-5.1718
X5.2447Y-4.9717
X5.2451Y-5.1464
X5.2461Y-5.2894
X5.2461Y-5.3898
X5.252Y-5.0217
X5.2539Y-5.4606
X5.2638Y-4.3799
X5.2657Y-5.2185
X5.2697Y-4.3406
X5.274Y-4.9717
X5.2888Y-5.2126
X5.2899Y-5.0841
X5.2933Y-4.3799
X5.2978Y-4.8654
X5.3012Y-5.4606
X5.3013Y-5.125
X5.3091Y-5.4035
X5.3108Y-5.1778
X5.311Y-4.8209
X5.3138Y-4.3406
X5.3164Y-4.9717
X5.3257Y-4.7744
X5.3268Y-4.8652
X5.3327Y-4.2913
X5.3327Y-4.3622
X5.3337Y-4.7958
X5.3384Y-4.9775
X5.3396Y-4.8445
X5.3425Y-5.5335
X5.3445Y-4.3937
X5.3543Y-5.0236
X5.3819Y-4.9252
X5.3898Y-4.8524
X5.3937Y-4.248
X5.3957Y-5.1988
X5.4055Y-5.5335
X5.42Y-4.3386
X5.4212Y-5.0902
X5.4252Y-4.2303
X5.4272Y-4.939
X5.4291Y-4.5728
X5.439Y-5.0768
X5.4488Y-5.5236
X5.4521Y-4.9072
X5.456Y-4.6557
X5.4622Y-4.7773
X5.4654Y-5.058
X5.4806Y-4.6523
X5.4831Y-4.2701
X5.4841Y-4.7421
X5.4882Y-5.4567
X5.4961Y-4.813
X5.498Y-4.0492
X5.5Y-4.5748
X5.502Y-4.1831
X5.5039Y-5.1791
X5.5083Y-4.9266
X5.511Y-4.7424
X5.517Y-4.9489
X5.5191Y-5.0512
X5.5236Y-4.9055
X5.5295Y-5.2303
X5.5709Y-5.4921
T2
X5.1815Y-4.1108
X5.1815Y-4.1608
X5.2315Y-4.1108
X5.2315Y-4.1608
X5.2815Y-4.1108
X5.2815Y-4.1608
X5.3315Y-4.1108
X5.3315Y-4.1608
X5.3815Y-4.1108
X5.3815Y-4.1608
T5
X4.9217Y-3.998
X4.9217Y-4.098
X4.9217Y-4.198
X4.9217Y-4.298
X4.9217Y-4.398
X4.9217Y-4.498
X4.9217Y-4.598
X4.9217Y-4.698
X4.9217Y-4.798
X4.9217Y-4.898
X4.9217Y-4.998
X4.9217Y-5.098
X4.9217Y-5.198
X4.9217Y-5.298
X4.9217Y-5.398
X5.1815Y-3.937
X5.2815Y-3.937
X5.3815Y-3.937
X4.9823Y-3.998
X4.9823Y-4.098
X4.9823Y-4.198
X4.9823Y-4.298
X4.9823Y-4.398
X4.9823Y-4.498
X4.9823Y-4.598
X4.9823Y-4.698
X4.9823Y-4.798
X4.9823Y-4.898
X4.9823Y-4.998
X4.9823Y-5.098
X4.9823Y-5.198
X4.9823Y-5.298
X4.9823Y-5.398
X5.1815Y-3.998
X5.2815Y-3.998
X5.3815Y-3.998
X5.6445Y-3.998
X5.6445Y-4.098
X5.6445Y-4.198
X5.6445Y-4.298
X5.6445Y-4.398
X5.6445Y-4.498
X5.6445Y-4.598
X5.6445Y-4.698
X5.6445Y-4.798
X5.6445Y-4.898
X5.6445Y-4.998
X5.6445Y-5.098
X5.6445Y-5.198
X5.6445Y-5.298
X5.6445Y-5.398
X5.5827Y-3.998
X5.5827Y-4.098
X5.5827Y-4.198
X5.5827Y-4.298
X5.5827Y-4.398
X5.5827Y-4.498
X5.5827Y-4.598
X5.5827Y-4.698
X5.5827Y-4.798
X5.5827Y-4.898
X5.5827Y-4.998
X5.5827Y-5.098
X5.5827Y-5.198
X5.5827Y-5.298
X5.5827Y-5.398
T3
X5.1772Y-5.5689G85X5.189Y-5.5689
G05
X5.374Y-5.5689G85X5.3858Y-5.5689
G05
T4
X5.1437Y-5.6644G85X5.1437Y-5.686
G05
X5.4193Y-5.6644G85X5.4193Y-5.686
G05
T0
M30
