  0
SECTION
  2
HEADER
  9
$ANGBASE
  50
0.0
  9
$ANGDIR
  70
  1
  9
$MEASUREMENT
  70
0
  0
ENDSEC
  0
SECTION
  2
TABLES
  0
TABLE
  2
LTYPE
  70
1
  0
LTYPE
  2
CONTINUOUS
  70
0
  3
Solid line
  72
65
  73
0
  40
0.0
  0
ENDTAB
  0
TABLE
  2
STYLE
  70
4
  0
STYLE
  2
KICAD
  70
0
  40
0
  41
1
  42
1
  50
0
  71
0
  3
isocp.shx
  0
STYLE
  2
KICADB
  70
0
  40
0
  41
1
  42
1
  50
0
  71
0
  3
isocp.shx
  0
STYLE
  2
KICADI
  70
0
  40
0
  41
1
  42
1
  50
15
  71
0
  3
isocp.shx
  0
STYLE
  2
KICADBI
  70
0
  40
0
  41
1
  42
1
  50
15
  71
0
  3
isocp.shx
  0
ENDTAB
  0
TABLE
  2
LAYER
  70
30
  0
LAYER
  2
BLACK
  70
0
  62
7
  6
CONTINUOUS
  0
LAYER
  2
GRAY1
  70
0
  62
251
  6
CONTINUOUS
  0
LAYER
  2
GRAY2
  70
0
  62
8
  6
CONTINUOUS
  0
LAYER
  2
GRAY3
  70
0
  62
9
  6
CONTINUOUS
  0
LAYER
  2
WHITE
  70
0
  62
7
  6
CONTINUOUS
  0
LAYER
  2
LYELLOW
  70
0
  62
51
  6
CONTINUOUS
  0
LAYER
  2
BLUE1
  70
0
  62
178
  6
CONTINUOUS
  0
LAYER
  2
GREEN1
  70
0
  62
98
  6
CONTINUOUS
  0
LAYER
  2
CYAN1
  70
0
  62
138
  6
CONTINUOUS
  0
LAYER
  2
RED1
  70
0
  62
18
  6
CONTINUOUS
  0
LAYER
  2
MAGENTA1
  70
0
  62
228
  6
CONTINUOUS
  0
LAYER
  2
BROWN1
  70
0
  62
58
  6
CONTINUOUS
  0
LAYER
  2
BLUE2
  70
0
  62
5
  6
CONTINUOUS
  0
LAYER
  2
GREEN2
  70
0
  62
3
  6
CONTINUOUS
  0
LAYER
  2
CYAN2
  70
0
  62
4
  6
CONTINUOUS
  0
LAYER
  2
RED2
  70
0
  62
1
  6
CONTINUOUS
  0
LAYER
  2
MAGENTA2
  70
0
  62
6
  6
CONTINUOUS
  0
LAYER
  2
BROWN2
  70
0
  62
54
  6
CONTINUOUS
  0
LAYER
  2
BLUE3
  70
0
  62
171
  6
CONTINUOUS
  0
LAYER
  2
GREEN3
  70
0
  62
91
  6
CONTINUOUS
  0
LAYER
  2
CYAN3
  70
0
  62
131
  6
CONTINUOUS
  0
LAYER
  2
RED3
  70
0
  62
11
  6
CONTINUOUS
  0
LAYER
  2
MAGENTA3
  70
0
  62
221
  6
CONTINUOUS
  0
LAYER
  2
YELLOW3
  70
0
  62
2
  6
CONTINUOUS
  0
LAYER
  2
BLUE4
  70
0
  62
5
  6
CONTINUOUS
  0
LAYER
  2
GREEN4
  70
0
  62
3
  6
CONTINUOUS
  0
LAYER
  2
CYAN4
  70
0
  62
4
  6
CONTINUOUS
  0
LAYER
  2
RED4
  70
0
  62
1
  6
CONTINUOUS
  0
LAYER
  2
MAGENTA4
  70
0
  62
6
  6
CONTINUOUS
  0
LAYER
  2
YELLOW4
  70
0
  62
2
  6
CONTINUOUS
  0
ENDTAB
  0
ENDSEC
  0
SECTION
  2
ENTITIES
0
LINE
8
Black
10
138
20
-143.265
11
138.186
21
-143.421
0
LINE
8
Black
10
138.186
20
-143.421
11
138.308
21
-143.632
0
LINE
8
Black
10
138.308
20
-143.632
11
138.35
21
-143.871
0
LINE
8
Black
10
138.35
20
-143.871
11
138.35
21
-144.429
0
LINE
8
Black
10
138.35
20
-144.429
11
138.308
21
-144.668
0
LINE
8
Black
10
138.308
20
-144.668
11
138.186
21
-144.879
0
LINE
8
Black
10
138.186
20
-144.879
11
138
21
-145.035
0
LINE
8
Black
10
138
20
-145.035
11
137.772
21
-145.118
0
LINE
8
Black
10
137.772
20
-145.118
11
137.528
21
-145.118
0
LINE
8
Black
10
137.528
20
-145.118
11
137.3
21
-145.035
0
LINE
8
Black
10
137.3
20
-145.035
11
137.114
21
-144.879
0
LINE
8
Black
10
137.114
20
-144.879
11
136.992
21
-144.668
0
LINE
8
Black
10
136.992
20
-144.668
11
136.95
21
-144.429
0
LINE
8
Black
10
136.95
20
-144.429
11
136.95
21
-143.871
0
LINE
8
Black
10
136.95
20
-143.871
11
136.992
21
-143.632
0
LINE
8
Black
10
136.992
20
-143.632
11
137.114
21
-143.421
0
LINE
8
Black
10
137.114
20
-143.421
11
137.3
21
-143.265
0
LINE
8
Black
10
137.3
20
-143.265
11
137.528
21
-143.182
0
LINE
8
Black
10
137.528
20
-143.182
11
137.772
21
-143.182
0
LINE
8
Black
10
137.772
20
-143.182
11
138
21
-143.265
0
LINE
8
Black
10
131
20
-143.265
11
131.186
21
-143.421
0
LINE
8
Black
10
131.186
20
-143.421
11
131.308
21
-143.632
0
LINE
8
Black
10
131.308
20
-143.632
11
131.35
21
-143.871
0
LINE
8
Black
10
131.35
20
-143.871
11
131.35
21
-144.429
0
LINE
8
Black
10
131.35
20
-144.429
11
131.308
21
-144.668
0
LINE
8
Black
10
131.308
20
-144.668
11
131.186
21
-144.879
0
LINE
8
Black
10
131.186
20
-144.879
11
131
21
-145.035
0
LINE
8
Black
10
131
20
-145.035
11
130.772
21
-145.118
0
LINE
8
Black
10
130.772
20
-145.118
11
130.528
21
-145.118
0
LINE
8
Black
10
130.528
20
-145.118
11
130.3
21
-145.035
0
LINE
8
Black
10
130.3
20
-145.035
11
130.114
21
-144.879
0
LINE
8
Black
10
130.114
20
-144.879
11
129.992
21
-144.668
0
LINE
8
Black
10
129.992
20
-144.668
11
129.95
21
-144.429
0
LINE
8
Black
10
129.95
20
-144.429
11
129.95
21
-143.871
0
LINE
8
Black
10
129.95
20
-143.871
11
129.992
21
-143.632
0
LINE
8
Black
10
129.992
20
-143.632
11
130.114
21
-143.421
0
LINE
8
Black
10
130.114
20
-143.421
11
130.3
21
-143.265
0
LINE
8
Black
10
130.3
20
-143.265
11
130.528
21
-143.182
0
LINE
8
Black
10
130.528
20
-143.182
11
130.772
21
-143.182
0
LINE
8
Black
10
130.772
20
-143.182
11
131
21
-143.265
0
LINE
8
Black
10
140.225
20
-144.5
11
139.075
21
-144.5
0
LINE
8
Black
10
139.075
20
-144.5
11
139.075
21
-143.3
0
LINE
8
Black
10
139.075
20
-143.3
11
140.225
21
-143.3
0
LINE
8
Black
10
140.225
20
-143.3
11
140.225
21
-144.5
0
LINE
8
Black
10
142
20
-144.35
11
140.7
21
-144.35
0
LINE
8
Black
10
140.7
20
-144.35
11
140.7
21
-143.45
0
LINE
8
Black
10
140.7
20
-143.45
11
142
21
-143.45
0
LINE
8
Black
10
142
20
-143.45
11
142
21
-144.35
0
LINE
8
Black
10
140.225
20
-143
11
139.075
21
-143
0
LINE
8
Black
10
139.075
20
-143
11
139.075
21
-141.8
0
LINE
8
Black
10
139.075
20
-141.8
11
140.225
21
-141.8
0
LINE
8
Black
10
140.225
20
-141.8
11
140.225
21
-143
0
LINE
8
Black
10
142
20
-142.85
11
140.7
21
-142.85
0
LINE
8
Black
10
140.7
20
-142.85
11
140.7
21
-141.95
0
LINE
8
Black
10
140.7
20
-141.95
11
142
21
-141.95
0
LINE
8
Black
10
142
20
-141.95
11
142
21
-142.85
0
LINE
8
Black
10
129.55
20
-142.35
11
128.25
21
-142.35
0
LINE
8
Black
10
128.25
20
-142.35
11
128.25
21
-139.45
0
LINE
8
Black
10
128.25
20
-139.45
11
129.55
21
-139.45
0
LINE
8
Black
10
129.55
20
-139.45
11
129.55
21
-142.35
0
LINE
8
Black
10
126.65
20
-142.35
11
125.35
21
-142.35
0
LINE
8
Black
10
125.35
20
-142.35
11
125.35
21
-139.45
0
LINE
8
Black
10
125.35
20
-139.45
11
126.65
21
-139.45
0
LINE
8
Black
10
126.65
20
-139.45
11
126.65
21
-142.35
0
LINE
8
Black
10
133.15
20
-142.225
11
132.55
21
-142.225
0
LINE
8
Black
10
132.55
20
-142.225
11
132.55
21
-140.675
0
LINE
8
Black
10
132.55
20
-140.675
11
133.15
21
-140.675
0
LINE
8
Black
10
133.15
20
-140.675
11
133.15
21
-142.225
0
LINE
8
Black
10
135.75
20
-142.225
11
135.15
21
-142.225
0
LINE
8
Black
10
135.15
20
-142.225
11
135.15
21
-140.675
0
LINE
8
Black
10
135.15
20
-140.675
11
135.75
21
-140.675
0
LINE
8
Black
10
135.75
20
-140.675
11
135.75
21
-142.225
0
LINE
8
Black
10
135.1
20
-142.225
11
134.5
21
-142.225
0
LINE
8
Black
10
134.5
20
-142.225
11
134.5
21
-140.675
0
LINE
8
Black
10
134.5
20
-140.675
11
135.1
21
-140.675
0
LINE
8
Black
10
135.1
20
-140.675
11
135.1
21
-142.225
0
LINE
8
Black
10
134.45
20
-142.225
11
133.85
21
-142.225
0
LINE
8
Black
10
133.85
20
-142.225
11
133.85
21
-140.675
0
LINE
8
Black
10
133.85
20
-140.675
11
134.45
21
-140.675
0
LINE
8
Black
10
134.45
20
-140.675
11
134.45
21
-142.225
0
LINE
8
Black
10
133.8
20
-142.225
11
133.2
21
-142.225
0
LINE
8
Black
10
133.2
20
-142.225
11
133.2
21
-140.675
0
LINE
8
Black
10
133.2
20
-140.675
11
133.8
21
-140.675
0
LINE
8
Black
10
133.8
20
-140.675
11
133.8
21
-142.225
0
LINE
8
Black
10
132.034
20
-140.816
11
132.237
21
-140.933
0
LINE
8
Black
10
132.237
20
-140.933
11
132.388
21
-141.112
0
LINE
8
Black
10
132.388
20
-141.112
11
132.468
21
-141.333
0
LINE
8
Black
10
132.468
20
-141.333
11
132.468
21
-141.567
0
LINE
8
Black
10
132.468
20
-141.567
11
132.388
21
-141.787
0
LINE
8
Black
10
132.388
20
-141.787
11
132.237
21
-141.967
0
LINE
8
Black
10
132.237
20
-141.967
11
132.034
21
-142.084
0
LINE
8
Black
10
132.034
20
-142.084
11
131.803
21
-142.125
0
LINE
8
Black
10
131.803
20
-142.125
11
131.497
21
-142.125
0
LINE
8
Black
10
131.497
20
-142.125
11
131.266
21
-142.084
0
LINE
8
Black
10
131.266
20
-142.084
11
131.063
21
-141.967
0
LINE
8
Black
10
131.063
20
-141.967
11
130.912
21
-141.787
0
LINE
8
Black
10
130.912
20
-141.787
11
130.832
21
-141.567
0
LINE
8
Black
10
130.832
20
-141.567
11
130.832
21
-141.333
0
LINE
8
Black
10
130.832
20
-141.333
11
130.912
21
-141.112
0
LINE
8
Black
10
130.912
20
-141.112
11
131.063
21
-140.933
0
LINE
8
Black
10
131.063
20
-140.933
11
131.266
21
-140.816
0
LINE
8
Black
10
131.266
20
-140.816
11
131.497
21
-140.775
0
LINE
8
Black
10
131.497
20
-140.775
11
131.803
21
-140.775
0
LINE
8
Black
10
131.803
20
-140.775
11
132.034
21
-140.816
0
LINE
8
Black
10
137.034
20
-140.816
11
137.237
21
-140.933
0
LINE
8
Black
10
137.237
20
-140.933
11
137.388
21
-141.112
0
LINE
8
Black
10
137.388
20
-141.112
11
137.468
21
-141.333
0
LINE
8
Black
10
137.468
20
-141.333
11
137.468
21
-141.567
0
LINE
8
Black
10
137.468
20
-141.567
11
137.388
21
-141.787
0
LINE
8
Black
10
137.388
20
-141.787
11
137.237
21
-141.967
0
LINE
8
Black
10
137.237
20
-141.967
11
137.034
21
-142.084
0
LINE
8
Black
10
137.034
20
-142.084
11
136.803
21
-142.125
0
LINE
8
Black
10
136.803
20
-142.125
11
136.497
21
-142.125
0
LINE
8
Black
10
136.497
20
-142.125
11
136.266
21
-142.084
0
LINE
8
Black
10
136.266
20
-142.084
11
136.063
21
-141.967
0
LINE
8
Black
10
136.063
20
-141.967
11
135.912
21
-141.787
0
LINE
8
Black
10
135.912
20
-141.787
11
135.832
21
-141.567
0
LINE
8
Black
10
135.832
20
-141.567
11
135.832
21
-141.333
0
LINE
8
Black
10
135.832
20
-141.333
11
135.912
21
-141.112
0
LINE
8
Black
10
135.912
20
-141.112
11
136.063
21
-140.933
0
LINE
8
Black
10
136.063
20
-140.933
11
136.266
21
-140.816
0
LINE
8
Black
10
136.266
20
-140.816
11
136.497
21
-140.775
0
LINE
8
Black
10
136.497
20
-140.775
11
136.803
21
-140.775
0
LINE
8
Black
10
136.803
20
-140.775
11
137.034
21
-140.816
0
LINE
8
Black
10
139.05
20
-141.5
11
137.75
21
-141.5
0
LINE
8
Black
10
137.75
20
-141.5
11
137.75
21
-140.6
0
LINE
8
Black
10
137.75
20
-140.6
11
139.05
21
-140.6
0
LINE
8
Black
10
139.05
20
-140.6
11
139.05
21
-141.5
0
LINE
8
Black
10
140.95
20
-141.45
11
139.35
21
-141.45
0
LINE
8
Black
10
139.35
20
-141.45
11
139.35
21
-139.85
0
LINE
8
Black
10
139.35
20
-139.85
11
140.95
21
-139.85
0
LINE
8
Black
10
140.95
20
-139.85
11
140.95
21
-141.45
0
LINE
8
Black
10
143.05
20
-141.45
11
141.45
21
-141.45
0
LINE
8
Black
10
141.45
20
-141.45
11
141.45
21
-139.85
0
LINE
8
Black
10
141.45
20
-139.85
11
143.05
21
-139.85
0
LINE
8
Black
10
143.05
20
-139.85
11
143.05
21
-141.45
0
LINE
8
Black
10
132.4
20
-140.2
11
131.5
21
-140.2
0
LINE
8
Black
10
131.5
20
-140.2
11
131.5
21
-138.9
0
LINE
8
Black
10
131.5
20
-138.9
11
132.4
21
-138.9
0
LINE
8
Black
10
132.4
20
-138.9
11
132.4
21
-140.2
0
LINE
8
Black
10
133.9
20
-140.2
11
133
21
-140.2
0
LINE
8
Black
10
133
20
-140.2
11
133
21
-138.9
0
LINE
8
Black
10
133
20
-138.9
11
133.9
21
-138.9
0
LINE
8
Black
10
133.9
20
-138.9
11
133.9
21
-140.2
0
LINE
8
Black
10
135.1
20
-140.2
11
134.2
21
-140.2
0
LINE
8
Black
10
134.2
20
-140.2
11
134.2
21
-138.9
0
LINE
8
Black
10
134.2
20
-138.9
11
135.1
21
-138.9
0
LINE
8
Black
10
135.1
20
-138.9
11
135.1
21
-140.2
0
LINE
8
Black
10
136.6
20
-140.2
11
135.7
21
-140.2
0
LINE
8
Black
10
135.7
20
-140.2
11
135.7
21
-138.9
0
LINE
8
Black
10
135.7
20
-138.9
11
136.6
21
-138.9
0
LINE
8
Black
10
136.6
20
-138.9
11
136.6
21
-140.2
0
LINE
8
Black
10
139.05
20
-140
11
137.75
21
-140
0
LINE
8
Black
10
137.75
20
-140
11
137.75
21
-139.1
0
LINE
8
Black
10
137.75
20
-139.1
11
139.05
21
-139.1
0
LINE
8
Black
10
139.05
20
-139.1
11
139.05
21
-140
0
LINE
8
Black
10
130.45
20
-138.655
11
129.65
21
-138.655
0
LINE
8
Black
10
129.65
20
-138.655
11
129.65
21
-137.745
0
LINE
8
Black
10
129.65
20
-137.745
11
130.45
21
-137.745
0
LINE
8
Black
10
130.45
20
-137.745
11
130.45
21
-138.655
0
LINE
8
Black
10
134.656
20
-138.451
11
133.749
21
-138.451
0
LINE
8
Black
10
133.749
20
-138.451
11
133.749
21
-137.289
0
LINE
8
Black
10
133.749
20
-137.289
11
134.656
21
-137.289
0
LINE
8
Black
10
134.656
20
-137.289
11
134.656
21
-138.451
0
LINE
8
Black
10
132.751
20
-138.451
11
131.844
21
-138.451
0
LINE
8
Black
10
131.844
20
-138.451
11
131.844
21
-137.289
0
LINE
8
Black
10
131.844
20
-137.289
11
132.751
21
-137.289
0
LINE
8
Black
10
132.751
20
-137.289
11
132.751
21
-138.451
0
LINE
8
Black
10
133.704
20
-138.451
11
132.796
21
-138.451
0
LINE
8
Black
10
132.796
20
-138.451
11
132.796
21
-137.289
0
LINE
8
Black
10
132.796
20
-137.289
11
133.704
21
-137.289
0
LINE
8
Black
10
133.704
20
-137.289
11
133.704
21
-138.451
0
LINE
8
Black
10
136.225
20
-138.35
11
135.075
21
-138.35
0
LINE
8
Black
10
135.075
20
-138.35
11
135.075
21
-137.15
0
LINE
8
Black
10
135.075
20
-137.15
11
136.225
21
-137.15
0
LINE
8
Black
10
136.225
20
-137.15
11
136.225
21
-138.35
0
LINE
8
Black
10
142.321
20
-136.111
11
142.641
21
-136.295
0
LINE
8
Black
10
142.641
20
-136.295
11
142.878
21
-136.578
0
LINE
8
Black
10
142.878
20
-136.578
11
143.004
21
-136.925
0
LINE
8
Black
10
143.004
20
-136.925
11
143.004
21
-137.295
0
LINE
8
Black
10
143.004
20
-137.295
11
142.878
21
-137.642
0
LINE
8
Black
10
142.878
20
-137.642
11
142.641
21
-137.925
0
LINE
8
Black
10
142.641
20
-137.925
11
142.321
21
-138.109
0
LINE
8
Black
10
142.321
20
-138.109
11
141.957
21
-138.174
0
LINE
8
Black
10
141.957
20
-138.174
11
141.643
21
-138.174
0
LINE
8
Black
10
141.643
20
-138.174
11
141.279
21
-138.109
0
LINE
8
Black
10
141.279
20
-138.109
11
140.959
21
-137.925
0
LINE
8
Black
10
140.959
20
-137.925
11
140.722
21
-137.642
0
LINE
8
Black
10
140.722
20
-137.642
11
140.596
21
-137.295
0
LINE
8
Black
10
140.596
20
-137.295
11
140.596
21
-136.925
0
LINE
8
Black
10
140.596
20
-136.925
11
140.722
21
-136.578
0
LINE
8
Black
10
140.722
20
-136.578
11
140.959
21
-136.295
0
LINE
8
Black
10
140.959
20
-136.295
11
141.279
21
-136.111
0
LINE
8
Black
10
141.279
20
-136.111
11
141.643
21
-136.046
0
LINE
8
Black
10
141.643
20
-136.046
11
141.957
21
-136.046
0
LINE
8
Black
10
141.957
20
-136.046
11
142.321
21
-136.111
0
LINE
8
Black
10
127.071
20
-136.111
11
127.391
21
-136.295
0
LINE
8
Black
10
127.391
20
-136.295
11
127.628
21
-136.578
0
LINE
8
Black
10
127.628
20
-136.578
11
127.754
21
-136.925
0
LINE
8
Black
10
127.754
20
-136.925
11
127.754
21
-137.295
0
LINE
8
Black
10
127.754
20
-137.295
11
127.628
21
-137.642
0
LINE
8
Black
10
127.628
20
-137.642
11
127.391
21
-137.925
0
LINE
8
Black
10
127.391
20
-137.925
11
127.071
21
-138.109
0
LINE
8
Black
10
127.071
20
-138.109
11
126.707
21
-138.174
0
LINE
8
Black
10
126.707
20
-138.174
11
126.393
21
-138.174
0
LINE
8
Black
10
126.393
20
-138.174
11
126.029
21
-138.109
0
LINE
8
Black
10
126.029
20
-138.109
11
125.709
21
-137.925
0
LINE
8
Black
10
125.709
20
-137.925
11
125.472
21
-137.642
0
LINE
8
Black
10
125.472
20
-137.642
11
125.346
21
-137.295
0
LINE
8
Black
10
125.346
20
-137.295
11
125.346
21
-136.925
0
LINE
8
Black
10
125.346
20
-136.925
11
125.472
21
-136.578
0
LINE
8
Black
10
125.472
20
-136.578
11
125.709
21
-136.295
0
LINE
8
Black
10
125.709
20
-136.295
11
126.029
21
-136.111
0
LINE
8
Black
10
126.029
20
-136.111
11
126.393
21
-136.046
0
LINE
8
Black
10
126.393
20
-136.046
11
126.707
21
-136.046
0
LINE
8
Black
10
126.707
20
-136.046
11
127.071
21
-136.111
0
LINE
8
Black
10
138.461
20
-138.155
11
137.661
21
-138.155
0
LINE
8
Black
10
137.661
20
-138.155
11
137.661
21
-137.245
0
LINE
8
Black
10
137.661
20
-137.245
11
138.461
21
-137.245
0
LINE
8
Black
10
138.461
20
-137.245
11
138.461
21
-138.155
0
LINE
8
Black
10
130.95
20
-137.355
11
130.15
21
-137.355
0
LINE
8
Black
10
130.15
20
-137.355
11
130.15
21
-136.445
0
LINE
8
Black
10
130.15
20
-136.445
11
130.95
21
-136.445
0
LINE
8
Black
10
130.95
20
-136.445
11
130.95
21
-137.355
0
LINE
8
Black
10
129.95
20
-137.355
11
129.15
21
-137.355
0
LINE
8
Black
10
129.15
20
-137.355
11
129.15
21
-136.445
0
LINE
8
Black
10
129.15
20
-136.445
11
129.95
21
-136.445
0
LINE
8
Black
10
129.95
20
-136.445
11
129.95
21
-137.355
0
LINE
8
Black
10
138.961
20
-136.855
11
138.161
21
-136.855
0
LINE
8
Black
10
138.161
20
-136.855
11
138.161
21
-135.945
0
LINE
8
Black
10
138.161
20
-135.945
11
138.961
21
-135.945
0
LINE
8
Black
10
138.961
20
-135.945
11
138.961
21
-136.855
0
LINE
8
Black
10
137.961
20
-136.855
11
137.161
21
-136.855
0
LINE
8
Black
10
137.161
20
-136.855
11
137.161
21
-135.945
0
LINE
8
Black
10
137.161
20
-135.945
11
137.961
21
-135.945
0
LINE
8
Black
10
137.961
20
-135.945
11
137.961
21
-136.855
0
LINE
8
Black
10
136.225
20
-136.85
11
135.075
21
-136.85
0
LINE
8
Black
10
135.075
20
-136.85
11
135.075
21
-135.65
0
LINE
8
Black
10
135.075
20
-135.65
11
136.225
21
-135.65
0
LINE
8
Black
10
136.225
20
-135.65
11
136.225
21
-136.85
0
LINE
8
Black
10
134.656
20
-135.911
11
133.749
21
-135.911
0
LINE
8
Black
10
133.749
20
-135.911
11
133.749
21
-134.749
0
LINE
8
Black
10
133.749
20
-134.749
11
134.656
21
-134.749
0
LINE
8
Black
10
134.656
20
-134.749
11
134.656
21
-135.911
0
LINE
8
Black
10
132.751
20
-135.911
11
131.844
21
-135.911
0
LINE
8
Black
10
131.844
20
-135.911
11
131.844
21
-134.749
0
LINE
8
Black
10
131.844
20
-134.749
11
132.751
21
-134.749
0
LINE
8
Black
10
132.751
20
-134.749
11
132.751
21
-135.911
0
LINE
8
Black
10
131
20
-135.65
11
130.1
21
-135.65
0
LINE
8
Black
10
130.1
20
-135.65
11
130.1
21
-134.35
0
LINE
8
Black
10
130.1
20
-134.35
11
131
21
-134.35
0
LINE
8
Black
10
131
20
-134.35
11
131
21
-135.65
0
LINE
8
Black
10
129.5
20
-135.65
11
128.6
21
-135.65
0
LINE
8
Black
10
128.6
20
-135.65
11
128.6
21
-134.35
0
LINE
8
Black
10
128.6
20
-134.35
11
129.5
21
-134.35
0
LINE
8
Black
10
129.5
20
-134.35
11
129.5
21
-135.65
0
LINE
8
Black
10
127.071
20
-133.571
11
127.391
21
-133.755
0
LINE
8
Black
10
127.391
20
-133.755
11
127.628
21
-134.038
0
LINE
8
Black
10
127.628
20
-134.038
11
127.754
21
-134.385
0
LINE
8
Black
10
127.754
20
-134.385
11
127.754
21
-134.755
0
LINE
8
Black
10
127.754
20
-134.755
11
127.628
21
-135.102
0
LINE
8
Black
10
127.628
20
-135.102
11
127.391
21
-135.385
0
LINE
8
Black
10
127.391
20
-135.385
11
127.071
21
-135.569
0
LINE
8
Black
10
127.071
20
-135.569
11
126.707
21
-135.634
0
LINE
8
Black
10
126.707
20
-135.634
11
126.393
21
-135.634
0
LINE
8
Black
10
126.393
20
-135.634
11
126.029
21
-135.569
0
LINE
8
Black
10
126.029
20
-135.569
11
125.709
21
-135.385
0
LINE
8
Black
10
125.709
20
-135.385
11
125.472
21
-135.102
0
LINE
8
Black
10
125.472
20
-135.102
11
125.346
21
-134.755
0
LINE
8
Black
10
125.346
20
-134.755
11
125.346
21
-134.385
0
LINE
8
Black
10
125.346
20
-134.385
11
125.472
21
-134.038
0
LINE
8
Black
10
125.472
20
-134.038
11
125.709
21
-133.755
0
LINE
8
Black
10
125.709
20
-133.755
11
126.029
21
-133.571
0
LINE
8
Black
10
126.029
20
-133.571
11
126.393
21
-133.506
0
LINE
8
Black
10
126.393
20
-133.506
11
126.707
21
-133.506
0
LINE
8
Black
10
126.707
20
-133.506
11
127.071
21
-133.571
0
LINE
8
Black
10
142.321
20
-133.571
11
142.641
21
-133.755
0
LINE
8
Black
10
142.641
20
-133.755
11
142.878
21
-134.038
0
LINE
8
Black
10
142.878
20
-134.038
11
143.004
21
-134.385
0
LINE
8
Black
10
143.004
20
-134.385
11
143.004
21
-134.755
0
LINE
8
Black
10
143.004
20
-134.755
11
142.878
21
-135.102
0
LINE
8
Black
10
142.878
20
-135.102
11
142.641
21
-135.385
0
LINE
8
Black
10
142.641
20
-135.385
11
142.321
21
-135.569
0
LINE
8
Black
10
142.321
20
-135.569
11
141.957
21
-135.634
0
LINE
8
Black
10
141.957
20
-135.634
11
141.643
21
-135.634
0
LINE
8
Black
10
141.643
20
-135.634
11
141.279
21
-135.569
0
LINE
8
Black
10
141.279
20
-135.569
11
140.959
21
-135.385
0
LINE
8
Black
10
140.959
20
-135.385
11
140.722
21
-135.102
0
LINE
8
Black
10
140.722
20
-135.102
11
140.596
21
-134.755
0
LINE
8
Black
10
140.596
20
-134.755
11
140.596
21
-134.385
0
LINE
8
Black
10
140.596
20
-134.385
11
140.722
21
-134.038
0
LINE
8
Black
10
140.722
20
-134.038
11
140.959
21
-133.755
0
LINE
8
Black
10
140.959
20
-133.755
11
141.279
21
-133.571
0
LINE
8
Black
10
141.279
20
-133.571
11
141.643
21
-133.506
0
LINE
8
Black
10
141.643
20
-133.506
11
141.957
21
-133.506
0
LINE
8
Black
10
141.957
20
-133.506
11
142.321
21
-133.571
0
LINE
8
Black
10
139.65
20
-135.2
11
138.75
21
-135.2
0
LINE
8
Black
10
138.75
20
-135.2
11
138.75
21
-133.9
0
LINE
8
Black
10
138.75
20
-133.9
11
139.65
21
-133.9
0
LINE
8
Black
10
139.65
20
-133.9
11
139.65
21
-135.2
0
LINE
8
Black
10
138.15
20
-135.2
11
137.25
21
-135.2
0
LINE
8
Black
10
137.25
20
-135.2
11
137.25
21
-133.9
0
LINE
8
Black
10
137.25
20
-133.9
11
138.15
21
-133.9
0
LINE
8
Black
10
138.15
20
-133.9
11
138.15
21
-135.2
0
LINE
8
Black
10
136.05
20
-134.65
11
134.75
21
-134.65
0
LINE
8
Black
10
134.75
20
-134.65
11
134.75
21
-133.75
0
LINE
8
Black
10
134.75
20
-133.75
11
136.05
21
-133.75
0
LINE
8
Black
10
136.05
20
-133.75
11
136.05
21
-134.65
0
LINE
8
Black
10
132.9
20
-133.975
11
131.7
21
-133.975
0
LINE
8
Black
10
131.7
20
-133.975
11
131.7
21
-132.825
0
LINE
8
Black
10
131.7
20
-132.825
11
132.9
21
-132.825
0
LINE
8
Black
10
132.9
20
-132.825
11
132.9
21
-133.975
0
LINE
8
Black
10
134.4
20
-133.975
11
133.2
21
-133.975
0
LINE
8
Black
10
133.2
20
-133.975
11
133.2
21
-132.825
0
LINE
8
Black
10
133.2
20
-132.825
11
134.4
21
-132.825
0
LINE
8
Black
10
134.4
20
-132.825
11
134.4
21
-133.975
0
LINE
8
Black
10
131.2
20
-133.325
11
130
21
-133.325
0
LINE
8
Black
10
130
20
-133.325
11
130
21
-132.175
0
LINE
8
Black
10
130
20
-132.175
11
131.2
21
-132.175
0
LINE
8
Black
10
131.2
20
-132.175
11
131.2
21
-133.325
0
LINE
8
Black
10
129.7
20
-133.325
11
128.5
21
-133.325
0
LINE
8
Black
10
128.5
20
-133.325
11
128.5
21
-132.175
0
LINE
8
Black
10
128.5
20
-132.175
11
129.7
21
-132.175
0
LINE
8
Black
10
129.7
20
-132.175
11
129.7
21
-133.325
0
LINE
8
Black
10
136.05
20
-133.15
11
134.75
21
-133.15
0
LINE
8
Black
10
134.75
20
-133.15
11
134.75
21
-132.25
0
LINE
8
Black
10
134.75
20
-132.25
11
136.05
21
-132.25
0
LINE
8
Black
10
136.05
20
-132.25
11
136.05
21
-133.15
0
LINE
8
Black
10
137.103
20
-131.717
11
137.194
21
-131.769
0
LINE
8
Black
10
137.194
20
-131.769
11
137.261
21
-131.849
0
LINE
8
Black
10
137.261
20
-131.849
11
137.297
21
-131.948
0
LINE
8
Black
10
137.297
20
-131.948
11
137.297
21
-132.052
0
LINE
8
Black
10
137.297
20
-132.052
11
137.261
21
-132.151
0
LINE
8
Black
10
137.261
20
-132.151
11
137.224
21
-132.195
0
LINE
8
Black
10
137.224
20
-132.195
11
137.8
21
-132.195
0
LINE
8
Black
10
137.8
20
-132.195
11
137.8
21
-133.105
0
LINE
8
Black
10
137.8
20
-133.105
11
137
21
-133.105
0
LINE
8
Black
10
137
20
-133.105
11
137
21
-132.301
0
LINE
8
Black
10
137
20
-132.301
11
136.897
21
-132.283
0
LINE
8
Black
10
136.897
20
-132.283
11
136.806
21
-132.231
0
LINE
8
Black
10
136.806
20
-132.231
11
136.739
21
-132.151
0
LINE
8
Black
10
136.739
20
-132.151
11
136.703
21
-132.052
0
LINE
8
Black
10
136.703
20
-132.052
11
136.703
21
-131.948
0
LINE
8
Black
10
136.703
20
-131.948
11
136.739
21
-131.849
0
LINE
8
Black
10
136.739
20
-131.849
11
136.806
21
-131.769
0
LINE
8
Black
10
136.806
20
-131.769
11
136.897
21
-131.717
0
LINE
8
Black
10
136.897
20
-131.717
11
137
21
-131.699
0
LINE
8
Black
10
137
20
-131.699
11
137.103
21
-131.717
0
LINE
8
Black
10
138.8
20
-133.105
11
138
21
-133.105
0
LINE
8
Black
10
138
20
-133.105
11
138
21
-132.195
0
LINE
8
Black
10
138
20
-132.195
11
138.8
21
-132.195
0
LINE
8
Black
10
138.8
20
-132.195
11
138.8
21
-133.105
0
LINE
8
Black
10
142.321
20
-131.031
11
142.641
21
-131.215
0
LINE
8
Black
10
142.641
20
-131.215
11
142.878
21
-131.498
0
LINE
8
Black
10
142.878
20
-131.498
11
143.004
21
-131.845
0
LINE
8
Black
10
143.004
20
-131.845
11
143.004
21
-132.215
0
LINE
8
Black
10
143.004
20
-132.215
11
142.878
21
-132.562
0
LINE
8
Black
10
142.878
20
-132.562
11
142.641
21
-132.845
0
LINE
8
Black
10
142.641
20
-132.845
11
142.321
21
-133.029
0
LINE
8
Black
10
142.321
20
-133.029
11
141.957
21
-133.094
0
LINE
8
Black
10
141.957
20
-133.094
11
141.643
21
-133.094
0
LINE
8
Black
10
141.643
20
-133.094
11
141.279
21
-133.029
0
LINE
8
Black
10
141.279
20
-133.029
11
140.959
21
-132.845
0
LINE
8
Black
10
140.959
20
-132.845
11
140.722
21
-132.562
0
LINE
8
Black
10
140.722
20
-132.562
11
140.596
21
-132.215
0
LINE
8
Black
10
140.596
20
-132.215
11
140.596
21
-131.845
0
LINE
8
Black
10
140.596
20
-131.845
11
140.722
21
-131.498
0
LINE
8
Black
10
140.722
20
-131.498
11
140.959
21
-131.215
0
LINE
8
Black
10
140.959
20
-131.215
11
141.279
21
-131.031
0
LINE
8
Black
10
141.279
20
-131.031
11
141.643
21
-130.966
0
LINE
8
Black
10
141.643
20
-130.966
11
141.957
21
-130.966
0
LINE
8
Black
10
141.957
20
-130.966
11
142.321
21
-131.031
0
LINE
8
Black
10
127.071
20
-131.031
11
127.391
21
-131.215
0
LINE
8
Black
10
127.391
20
-131.215
11
127.628
21
-131.498
0
LINE
8
Black
10
127.628
20
-131.498
11
127.754
21
-131.845
0
LINE
8
Black
10
127.754
20
-131.845
11
127.754
21
-132.215
0
LINE
8
Black
10
127.754
20
-132.215
11
127.628
21
-132.562
0
LINE
8
Black
10
127.628
20
-132.562
11
127.391
21
-132.845
0
LINE
8
Black
10
127.391
20
-132.845
11
127.071
21
-133.029
0
LINE
8
Black
10
127.071
20
-133.029
11
126.707
21
-133.094
0
LINE
8
Black
10
126.707
20
-133.094
11
126.393
21
-133.094
0
LINE
8
Black
10
126.393
20
-133.094
11
126.029
21
-133.029
0
LINE
8
Black
10
126.029
20
-133.029
11
125.709
21
-132.845
0
LINE
8
Black
10
125.709
20
-132.845
11
125.472
21
-132.562
0
LINE
8
Black
10
125.472
20
-132.562
11
125.346
21
-132.215
0
LINE
8
Black
10
125.346
20
-132.215
11
125.346
21
-131.845
0
LINE
8
Black
10
125.346
20
-131.845
11
125.472
21
-131.498
0
LINE
8
Black
10
125.472
20
-131.498
11
125.709
21
-131.215
0
LINE
8
Black
10
125.709
20
-131.215
11
126.029
21
-131.031
0
LINE
8
Black
10
126.029
20
-131.031
11
126.393
21
-130.966
0
LINE
8
Black
10
126.393
20
-130.966
11
126.707
21
-130.966
0
LINE
8
Black
10
126.707
20
-130.966
11
127.071
21
-131.031
0
LINE
8
Black
10
138.3
20
-131.805
11
137.5
21
-131.805
0
LINE
8
Black
10
137.5
20
-131.805
11
137.5
21
-130.895
0
LINE
8
Black
10
137.5
20
-130.895
11
138.3
21
-130.895
0
LINE
8
Black
10
138.3
20
-130.895
11
138.3
21
-131.805
0
LINE
8
Black
10
139.775
20
-131.35
11
138.625
21
-131.35
0
LINE
8
Black
10
138.625
20
-131.35
11
138.625
21
-130.15
0
LINE
8
Black
10
138.625
20
-130.15
11
139.775
21
-130.15
0
LINE
8
Black
10
139.775
20
-130.15
11
139.775
21
-131.35
0
LINE
8
Black
10
131.2
20
-131.025
11
130
21
-131.025
0
LINE
8
Black
10
130
20
-131.025
11
130
21
-129.875
0
LINE
8
Black
10
130
20
-129.875
11
131.2
21
-129.875
0
LINE
8
Black
10
131.2
20
-129.875
11
131.2
21
-131.025
0
LINE
8
Black
10
129.7
20
-131.025
11
128.5
21
-131.025
0
LINE
8
Black
10
128.5
20
-131.025
11
128.5
21
-129.875
0
LINE
8
Black
10
128.5
20
-129.875
11
129.7
21
-129.875
0
LINE
8
Black
10
129.7
20
-129.875
11
129.7
21
-131.025
0
LINE
8
Black
10
129.854
20
-125.654
11
130.208
21
-126.008
0
LINE
8
Black
10
130.208
20
-126.008
11
130.561
21
-126.361
0
LINE
8
Black
10
130.561
20
-126.361
11
130.915
21
-126.715
0
LINE
8
Black
10
130.915
20
-126.715
11
131.269
21
-127.068
0
LINE
8
Black
10
131.269
20
-127.068
11
131.622
21
-127.422
0
LINE
8
Black
10
131.622
20
-127.422
11
131.976
21
-127.775
0
LINE
8
Black
10
131.976
20
-127.775
11
132.329
21
-128.129
0
LINE
8
Black
10
132.329
20
-128.129
11
132.683
21
-128.483
0
LINE
8
Black
10
132.683
20
-128.483
11
133.036
21
-128.836
0
LINE
8
Black
10
133.036
20
-128.836
11
133.39
21
-129.19
0
LINE
8
Black
10
133.39
20
-129.19
11
133.849
21
-129.649
0
LINE
8
Black
10
133.849
20
-129.649
11
132.647
21
-130.851
0
LINE
8
Black
10
132.647
20
-130.851
11
132.188
21
-130.392
0
LINE
8
Black
10
132.188
20
-130.392
11
131.834
21
-130.038
0
LINE
8
Black
10
131.834
20
-130.038
11
131.481
21
-129.685
0
LINE
8
Black
10
131.481
20
-129.685
11
131.127
21
-129.331
0
LINE
8
Black
10
131.127
20
-129.331
11
130.774
21
-128.977
0
LINE
8
Black
10
130.774
20
-128.977
11
130.42
21
-128.624
0
LINE
8
Black
10
130.42
20
-128.624
11
130.066
21
-128.27
0
LINE
8
Black
10
130.066
20
-128.27
11
129.713
21
-127.917
0
LINE
8
Black
10
129.713
20
-127.917
11
129.359
21
-127.563
0
LINE
8
Black
10
129.359
20
-127.563
11
129.006
21
-127.21
0
LINE
8
Black
10
129.006
20
-127.21
11
128.652
21
-126.856
0
LINE
8
Black
10
128.652
20
-126.856
11
128.299
21
-126.503
0
LINE
8
Black
10
128.299
20
-126.503
11
129.501
21
-125.301
0
LINE
8
Black
10
129.501
20
-125.301
11
129.854
21
-125.654
0
LINE
8
Black
10
140.001
20
-126.503
11
139.542
21
-126.962
0
LINE
8
Black
10
139.542
20
-126.962
11
139.188
21
-127.316
0
LINE
8
Black
10
139.188
20
-127.316
11
138.835
21
-127.669
0
LINE
8
Black
10
138.835
20
-127.669
11
138.481
21
-128.023
0
LINE
8
Black
10
138.481
20
-128.023
11
138.127
21
-128.376
0
LINE
8
Black
10
138.127
20
-128.376
11
137.774
21
-128.73
0
LINE
8
Black
10
137.774
20
-128.73
11
137.42
21
-129.084
0
LINE
8
Black
10
137.42
20
-129.084
11
137.067
21
-129.437
0
LINE
8
Black
10
137.067
20
-129.437
11
136.713
21
-129.791
0
LINE
8
Black
10
136.713
20
-129.791
11
136.36
21
-130.144
0
LINE
8
Black
10
136.36
20
-130.144
11
136.006
21
-130.498
0
LINE
8
Black
10
136.006
20
-130.498
11
135.653
21
-130.851
0
LINE
8
Black
10
135.653
20
-130.851
11
134.451
21
-129.649
0
LINE
8
Black
10
134.451
20
-129.649
11
134.91
21
-129.19
0
LINE
8
Black
10
134.91
20
-129.19
11
135.264
21
-128.836
0
LINE
8
Black
10
135.264
20
-128.836
11
135.617
21
-128.483
0
LINE
8
Black
10
135.617
20
-128.483
11
135.971
21
-128.129
0
LINE
8
Black
10
135.971
20
-128.129
11
136.324
21
-127.775
0
LINE
8
Black
10
136.324
20
-127.775
11
136.678
21
-127.422
0
LINE
8
Black
10
136.678
20
-127.422
11
137.031
21
-127.068
0
LINE
8
Black
10
137.031
20
-127.068
11
137.385
21
-126.715
0
LINE
8
Black
10
137.385
20
-126.715
11
137.739
21
-126.361
0
LINE
8
Black
10
137.739
20
-126.361
11
138.092
21
-126.008
0
LINE
8
Black
10
138.092
20
-126.008
11
138.446
21
-125.654
0
LINE
8
Black
10
138.446
20
-125.654
11
138.799
21
-125.301
0
LINE
8
Black
10
138.799
20
-125.301
11
140.001
21
-126.503
0
LINE
8
Black
10
127.071
20
-128.491
11
127.391
21
-128.675
0
LINE
8
Black
10
127.391
20
-128.675
11
127.628
21
-128.958
0
LINE
8
Black
10
127.628
20
-128.958
11
127.754
21
-129.305
0
LINE
8
Black
10
127.754
20
-129.305
11
127.754
21
-129.675
0
LINE
8
Black
10
127.754
20
-129.675
11
127.628
21
-130.022
0
LINE
8
Black
10
127.628
20
-130.022
11
127.391
21
-130.305
0
LINE
8
Black
10
127.391
20
-130.305
11
127.071
21
-130.489
0
LINE
8
Black
10
127.071
20
-130.489
11
126.707
21
-130.554
0
LINE
8
Black
10
126.707
20
-130.554
11
126.393
21
-130.554
0
LINE
8
Black
10
126.393
20
-130.554
11
126.029
21
-130.489
0
LINE
8
Black
10
126.029
20
-130.489
11
125.709
21
-130.305
0
LINE
8
Black
10
125.709
20
-130.305
11
125.472
21
-130.022
0
LINE
8
Black
10
125.472
20
-130.022
11
125.346
21
-129.675
0
LINE
8
Black
10
125.346
20
-129.675
11
125.346
21
-129.305
0
LINE
8
Black
10
125.346
20
-129.305
11
125.472
21
-128.958
0
LINE
8
Black
10
125.472
20
-128.958
11
125.709
21
-128.675
0
LINE
8
Black
10
125.709
20
-128.675
11
126.029
21
-128.491
0
LINE
8
Black
10
126.029
20
-128.491
11
126.393
21
-128.426
0
LINE
8
Black
10
126.393
20
-128.426
11
126.707
21
-128.426
0
LINE
8
Black
10
126.707
20
-128.426
11
127.071
21
-128.491
0
LINE
8
Black
10
142.321
20
-128.491
11
142.641
21
-128.675
0
LINE
8
Black
10
142.641
20
-128.675
11
142.878
21
-128.958
0
LINE
8
Black
10
142.878
20
-128.958
11
143.004
21
-129.305
0
LINE
8
Black
10
143.004
20
-129.305
11
143.004
21
-129.675
0
LINE
8
Black
10
143.004
20
-129.675
11
142.878
21
-130.022
0
LINE
8
Black
10
142.878
20
-130.022
11
142.641
21
-130.305
0
LINE
8
Black
10
142.641
20
-130.305
11
142.321
21
-130.489
0
LINE
8
Black
10
142.321
20
-130.489
11
141.957
21
-130.554
0
LINE
8
Black
10
141.957
20
-130.554
11
141.643
21
-130.554
0
LINE
8
Black
10
141.643
20
-130.554
11
141.279
21
-130.489
0
LINE
8
Black
10
141.279
20
-130.489
11
140.959
21
-130.305
0
LINE
8
Black
10
140.959
20
-130.305
11
140.722
21
-130.022
0
LINE
8
Black
10
140.722
20
-130.022
11
140.596
21
-129.675
0
LINE
8
Black
10
140.596
20
-129.675
11
140.596
21
-129.305
0
LINE
8
Black
10
140.596
20
-129.305
11
140.722
21
-128.958
0
LINE
8
Black
10
140.722
20
-128.958
11
140.959
21
-128.675
0
LINE
8
Black
10
140.959
20
-128.675
11
141.279
21
-128.491
0
LINE
8
Black
10
141.279
20
-128.491
11
141.643
21
-128.426
0
LINE
8
Black
10
141.643
20
-128.426
11
141.957
21
-128.426
0
LINE
8
Black
10
141.957
20
-128.426
11
142.321
21
-128.491
0
LINE
8
Black
10
139.775
20
-129.85
11
138.625
21
-129.85
0
LINE
8
Black
10
138.625
20
-129.85
11
138.625
21
-128.65
0
LINE
8
Black
10
138.625
20
-128.65
11
139.775
21
-128.65
0
LINE
8
Black
10
139.775
20
-128.65
11
139.775
21
-129.85
0
LINE
8
Black
10
127.071
20
-125.951
11
127.391
21
-126.135
0
LINE
8
Black
10
127.391
20
-126.135
11
127.628
21
-126.418
0
LINE
8
Black
10
127.628
20
-126.418
11
127.754
21
-126.765
0
LINE
8
Black
10
127.754
20
-126.765
11
127.754
21
-127.135
0
LINE
8
Black
10
127.754
20
-127.135
11
127.628
21
-127.482
0
LINE
8
Black
10
127.628
20
-127.482
11
127.391
21
-127.765
0
LINE
8
Black
10
127.391
20
-127.765
11
127.071
21
-127.949
0
LINE
8
Black
10
127.071
20
-127.949
11
126.707
21
-128.014
0
LINE
8
Black
10
126.707
20
-128.014
11
126.393
21
-128.014
0
LINE
8
Black
10
126.393
20
-128.014
11
126.029
21
-127.949
0
LINE
8
Black
10
126.029
20
-127.949
11
125.709
21
-127.765
0
LINE
8
Black
10
125.709
20
-127.765
11
125.472
21
-127.482
0
LINE
8
Black
10
125.472
20
-127.482
11
125.346
21
-127.135
0
LINE
8
Black
10
125.346
20
-127.135
11
125.346
21
-126.765
0
LINE
8
Black
10
125.346
20
-126.765
11
125.472
21
-126.418
0
LINE
8
Black
10
125.472
20
-126.418
11
125.709
21
-126.135
0
LINE
8
Black
10
125.709
20
-126.135
11
126.029
21
-125.951
0
LINE
8
Black
10
126.029
20
-125.951
11
126.393
21
-125.886
0
LINE
8
Black
10
126.393
20
-125.886
11
126.707
21
-125.886
0
LINE
8
Black
10
126.707
20
-125.886
11
127.071
21
-125.951
0
LINE
8
Black
10
142.321
20
-125.951
11
142.641
21
-126.135
0
LINE
8
Black
10
142.641
20
-126.135
11
142.878
21
-126.418
0
LINE
8
Black
10
142.878
20
-126.418
11
143.004
21
-126.765
0
LINE
8
Black
10
143.004
20
-126.765
11
143.004
21
-127.135
0
LINE
8
Black
10
143.004
20
-127.135
11
142.878
21
-127.482
0
LINE
8
Black
10
142.878
20
-127.482
11
142.641
21
-127.765
0
LINE
8
Black
10
142.641
20
-127.765
11
142.321
21
-127.949
0
LINE
8
Black
10
142.321
20
-127.949
11
141.957
21
-128.014
0
LINE
8
Black
10
141.957
20
-128.014
11
141.643
21
-128.014
0
LINE
8
Black
10
141.643
20
-128.014
11
141.279
21
-127.949
0
LINE
8
Black
10
141.279
20
-127.949
11
140.959
21
-127.765
0
LINE
8
Black
10
140.959
20
-127.765
11
140.722
21
-127.482
0
LINE
8
Black
10
140.722
20
-127.482
11
140.596
21
-127.135
0
LINE
8
Black
10
140.596
20
-127.135
11
140.596
21
-126.765
0
LINE
8
Black
10
140.596
20
-126.765
11
140.722
21
-126.418
0
LINE
8
Black
10
140.722
20
-126.418
11
140.959
21
-126.135
0
LINE
8
Black
10
140.959
20
-126.135
11
141.279
21
-125.951
0
LINE
8
Black
10
141.279
20
-125.951
11
141.643
21
-125.886
0
LINE
8
Black
10
141.643
20
-125.886
11
141.957
21
-125.886
0
LINE
8
Black
10
141.957
20
-125.886
11
142.321
21
-125.951
0
LINE
8
Black
10
127.071
20
-123.411
11
127.391
21
-123.595
0
LINE
8
Black
10
127.391
20
-123.595
11
127.628
21
-123.878
0
LINE
8
Black
10
127.628
20
-123.878
11
127.754
21
-124.225
0
LINE
8
Black
10
127.754
20
-124.225
11
127.754
21
-124.595
0
LINE
8
Black
10
127.754
20
-124.595
11
127.628
21
-124.942
0
LINE
8
Black
10
127.628
20
-124.942
11
127.391
21
-125.225
0
LINE
8
Black
10
127.391
20
-125.225
11
127.071
21
-125.409
0
LINE
8
Black
10
127.071
20
-125.409
11
126.707
21
-125.474
0
LINE
8
Black
10
126.707
20
-125.474
11
126.393
21
-125.474
0
LINE
8
Black
10
126.393
20
-125.474
11
126.029
21
-125.409
0
LINE
8
Black
10
126.029
20
-125.409
11
125.709
21
-125.225
0
LINE
8
Black
10
125.709
20
-125.225
11
125.472
21
-124.942
0
LINE
8
Black
10
125.472
20
-124.942
11
125.346
21
-124.595
0
LINE
8
Black
10
125.346
20
-124.595
11
125.346
21
-124.225
0
LINE
8
Black
10
125.346
20
-124.225
11
125.472
21
-123.878
0
LINE
8
Black
10
125.472
20
-123.878
11
125.709
21
-123.595
0
LINE
8
Black
10
125.709
20
-123.595
11
126.029
21
-123.411
0
LINE
8
Black
10
126.029
20
-123.411
11
126.393
21
-123.346
0
LINE
8
Black
10
126.393
20
-123.346
11
126.707
21
-123.346
0
LINE
8
Black
10
126.707
20
-123.346
11
127.071
21
-123.411
0
LINE
8
Black
10
142.321
20
-123.411
11
142.641
21
-123.595
0
LINE
8
Black
10
142.641
20
-123.595
11
142.878
21
-123.878
0
LINE
8
Black
10
142.878
20
-123.878
11
143.004
21
-124.225
0
LINE
8
Black
10
143.004
20
-124.225
11
143.004
21
-124.595
0
LINE
8
Black
10
143.004
20
-124.595
11
142.878
21
-124.942
0
LINE
8
Black
10
142.878
20
-124.942
11
142.641
21
-125.225
0
LINE
8
Black
10
142.641
20
-125.225
11
142.321
21
-125.409
0
LINE
8
Black
10
142.321
20
-125.409
11
141.957
21
-125.474
0
LINE
8
Black
10
141.957
20
-125.474
11
141.643
21
-125.474
0
LINE
8
Black
10
141.643
20
-125.474
11
141.279
21
-125.409
0
LINE
8
Black
10
141.279
20
-125.409
11
140.959
21
-125.225
0
LINE
8
Black
10
140.959
20
-125.225
11
140.722
21
-124.942
0
LINE
8
Black
10
140.722
20
-124.942
11
140.596
21
-124.595
0
LINE
8
Black
10
140.596
20
-124.595
11
140.596
21
-124.225
0
LINE
8
Black
10
140.596
20
-124.225
11
140.722
21
-123.878
0
LINE
8
Black
10
140.722
20
-123.878
11
140.959
21
-123.595
0
LINE
8
Black
10
140.959
20
-123.595
11
141.279
21
-123.411
0
LINE
8
Black
10
141.279
20
-123.411
11
141.643
21
-123.346
0
LINE
8
Black
10
141.643
20
-123.346
11
141.957
21
-123.346
0
LINE
8
Black
10
141.957
20
-123.346
11
142.321
21
-123.411
0
LINE
8
Black
10
136.006
20
-119.502
11
136.36
21
-119.856
0
LINE
8
Black
10
136.36
20
-119.856
11
136.713
21
-120.209
0
LINE
8
Black
10
136.713
20
-120.209
11
137.067
21
-120.563
0
LINE
8
Black
10
137.067
20
-120.563
11
137.42
21
-120.916
0
LINE
8
Black
10
137.42
20
-120.916
11
137.774
21
-121.27
0
LINE
8
Black
10
137.774
20
-121.27
11
138.127
21
-121.624
0
LINE
8
Black
10
138.127
20
-121.624
11
138.481
21
-121.977
0
LINE
8
Black
10
138.481
20
-121.977
11
138.835
21
-122.331
0
LINE
8
Black
10
138.835
20
-122.331
11
139.188
21
-122.684
0
LINE
8
Black
10
139.188
20
-122.684
11
139.542
21
-123.038
0
LINE
8
Black
10
139.542
20
-123.038
11
140.001
21
-123.497
0
LINE
8
Black
10
140.001
20
-123.497
11
138.799
21
-124.699
0
LINE
8
Black
10
138.799
20
-124.699
11
138.34
21
-124.24
0
LINE
8
Black
10
138.34
20
-124.24
11
137.986
21
-123.886
0
LINE
8
Black
10
137.986
20
-123.886
11
137.633
21
-123.533
0
LINE
8
Black
10
137.633
20
-123.533
11
137.279
21
-123.179
0
LINE
8
Black
10
137.279
20
-123.179
11
136.925
21
-122.826
0
LINE
8
Black
10
136.925
20
-122.826
11
136.572
21
-122.472
0
LINE
8
Black
10
136.572
20
-122.472
11
136.218
21
-122.119
0
LINE
8
Black
10
136.218
20
-122.119
11
135.865
21
-121.765
0
LINE
8
Black
10
135.865
20
-121.765
11
135.511
21
-121.411
0
LINE
8
Black
10
135.511
20
-121.411
11
135.158
21
-121.058
0
LINE
8
Black
10
135.158
20
-121.058
11
134.804
21
-120.704
0
LINE
8
Black
10
134.804
20
-120.704
11
134.451
21
-120.351
0
LINE
8
Black
10
134.451
20
-120.351
11
135.653
21
-119.149
0
LINE
8
Black
10
135.653
20
-119.149
11
136.006
21
-119.502
0
LINE
8
Black
10
133.849
20
-120.351
11
133.39
21
-120.81
0
LINE
8
Black
10
133.39
20
-120.81
11
133.036
21
-121.164
0
LINE
8
Black
10
133.036
20
-121.164
11
132.683
21
-121.517
0
LINE
8
Black
10
132.683
20
-121.517
11
132.329
21
-121.871
0
LINE
8
Black
10
132.329
20
-121.871
11
131.976
21
-122.225
0
LINE
8
Black
10
131.976
20
-122.225
11
131.622
21
-122.578
0
LINE
8
Black
10
131.622
20
-122.578
11
131.269
21
-122.932
0
LINE
8
Black
10
131.269
20
-122.932
11
130.915
21
-123.285
0
LINE
8
Black
10
130.915
20
-123.285
11
130.561
21
-123.639
0
LINE
8
Black
10
130.561
20
-123.639
11
130.208
21
-123.992
0
LINE
8
Black
10
130.208
20
-123.992
11
129.854
21
-124.346
0
LINE
8
Black
10
129.854
20
-124.346
11
129.501
21
-124.699
0
LINE
8
Black
10
129.501
20
-124.699
11
128.299
21
-123.497
0
LINE
8
Black
10
128.299
20
-123.497
11
128.758
21
-123.038
0
LINE
8
Black
10
128.758
20
-123.038
11
129.112
21
-122.684
0
LINE
8
Black
10
129.112
20
-122.684
11
129.465
21
-122.331
0
LINE
8
Black
10
129.465
20
-122.331
11
129.819
21
-121.977
0
LINE
8
Black
10
129.819
20
-121.977
11
130.173
21
-121.624
0
LINE
8
Black
10
130.173
20
-121.624
11
130.526
21
-121.27
0
LINE
8
Black
10
130.526
20
-121.27
11
130.88
21
-120.916
0
LINE
8
Black
10
130.88
20
-120.916
11
131.233
21
-120.563
0
LINE
8
Black
10
131.233
20
-120.563
11
131.587
21
-120.209
0
LINE
8
Black
10
131.587
20
-120.209
11
131.94
21
-119.856
0
LINE
8
Black
10
131.94
20
-119.856
11
132.294
21
-119.502
0
LINE
8
Black
10
132.294
20
-119.502
11
132.647
21
-119.149
0
LINE
8
Black
10
132.647
20
-119.149
11
133.849
21
-120.351
0
LINE
8
Black
10
142.321
20
-120.871
11
142.641
21
-121.055
0
LINE
8
Black
10
142.641
20
-121.055
11
142.878
21
-121.338
0
LINE
8
Black
10
142.878
20
-121.338
11
143.004
21
-121.685
0
LINE
8
Black
10
143.004
20
-121.685
11
143.004
21
-122.055
0
LINE
8
Black
10
143.004
20
-122.055
11
142.878
21
-122.402
0
LINE
8
Black
10
142.878
20
-122.402
11
142.641
21
-122.685
0
LINE
8
Black
10
142.641
20
-122.685
11
142.321
21
-122.869
0
LINE
8
Black
10
142.321
20
-122.869
11
141.957
21
-122.934
0
LINE
8
Black
10
141.957
20
-122.934
11
141.643
21
-122.934
0
LINE
8
Black
10
141.643
20
-122.934
11
141.279
21
-122.869
0
LINE
8
Black
10
141.279
20
-122.869
11
140.959
21
-122.685
0
LINE
8
Black
10
140.959
20
-122.685
11
140.722
21
-122.402
0
LINE
8
Black
10
140.722
20
-122.402
11
140.596
21
-122.055
0
LINE
8
Black
10
140.596
20
-122.055
11
140.596
21
-121.685
0
LINE
8
Black
10
140.596
20
-121.685
11
140.722
21
-121.338
0
LINE
8
Black
10
140.722
20
-121.338
11
140.959
21
-121.055
0
LINE
8
Black
10
140.959
20
-121.055
11
141.279
21
-120.871
0
LINE
8
Black
10
141.279
20
-120.871
11
141.643
21
-120.806
0
LINE
8
Black
10
141.643
20
-120.806
11
141.957
21
-120.806
0
LINE
8
Black
10
141.957
20
-120.806
11
142.321
21
-120.871
0
LINE
8
Black
10
127.071
20
-120.871
11
127.391
21
-121.055
0
LINE
8
Black
10
127.391
20
-121.055
11
127.628
21
-121.338
0
LINE
8
Black
10
127.628
20
-121.338
11
127.754
21
-121.685
0
LINE
8
Black
10
127.754
20
-121.685
11
127.754
21
-122.055
0
LINE
8
Black
10
127.754
20
-122.055
11
127.628
21
-122.402
0
LINE
8
Black
10
127.628
20
-122.402
11
127.391
21
-122.685
0
LINE
8
Black
10
127.391
20
-122.685
11
127.071
21
-122.869
0
LINE
8
Black
10
127.071
20
-122.869
11
126.707
21
-122.934
0
LINE
8
Black
10
126.707
20
-122.934
11
126.393
21
-122.934
0
LINE
8
Black
10
126.393
20
-122.934
11
126.029
21
-122.869
0
LINE
8
Black
10
126.029
20
-122.869
11
125.709
21
-122.685
0
LINE
8
Black
10
125.709
20
-122.685
11
125.472
21
-122.402
0
LINE
8
Black
10
125.472
20
-122.402
11
125.346
21
-122.055
0
LINE
8
Black
10
125.346
20
-122.055
11
125.346
21
-121.685
0
LINE
8
Black
10
125.346
20
-121.685
11
125.472
21
-121.338
0
LINE
8
Black
10
125.472
20
-121.338
11
125.709
21
-121.055
0
LINE
8
Black
10
125.709
20
-121.055
11
126.029
21
-120.871
0
LINE
8
Black
10
126.029
20
-120.871
11
126.393
21
-120.806
0
LINE
8
Black
10
126.393
20
-120.806
11
126.707
21
-120.806
0
LINE
8
Black
10
126.707
20
-120.806
11
127.071
21
-120.871
0
LINE
8
Black
10
129.675
20
-121.05
11
128.525
21
-121.05
0
LINE
8
Black
10
128.525
20
-121.05
11
128.525
21
-119.85
0
LINE
8
Black
10
128.525
20
-119.85
11
129.675
21
-119.85
0
LINE
8
Black
10
129.675
20
-119.85
11
129.675
21
-121.05
0
LINE
8
Black
10
142.321
20
-118.331
11
142.641
21
-118.515
0
LINE
8
Black
10
142.641
20
-118.515
11
142.878
21
-118.798
0
LINE
8
Black
10
142.878
20
-118.798
11
143.004
21
-119.145
0
LINE
8
Black
10
143.004
20
-119.145
11
143.004
21
-119.515
0
LINE
8
Black
10
143.004
20
-119.515
11
142.878
21
-119.862
0
LINE
8
Black
10
142.878
20
-119.862
11
142.641
21
-120.145
0
LINE
8
Black
10
142.641
20
-120.145
11
142.321
21
-120.329
0
LINE
8
Black
10
142.321
20
-120.329
11
141.957
21
-120.394
0
LINE
8
Black
10
141.957
20
-120.394
11
141.643
21
-120.394
0
LINE
8
Black
10
141.643
20
-120.394
11
141.279
21
-120.329
0
LINE
8
Black
10
141.279
20
-120.329
11
140.959
21
-120.145
0
LINE
8
Black
10
140.959
20
-120.145
11
140.722
21
-119.862
0
LINE
8
Black
10
140.722
20
-119.862
11
140.596
21
-119.515
0
LINE
8
Black
10
140.596
20
-119.515
11
140.596
21
-119.145
0
LINE
8
Black
10
140.596
20
-119.145
11
140.722
21
-118.798
0
LINE
8
Black
10
140.722
20
-118.798
11
140.959
21
-118.515
0
LINE
8
Black
10
140.959
20
-118.515
11
141.279
21
-118.331
0
LINE
8
Black
10
141.279
20
-118.331
11
141.643
21
-118.266
0
LINE
8
Black
10
141.643
20
-118.266
11
141.957
21
-118.266
0
LINE
8
Black
10
141.957
20
-118.266
11
142.321
21
-118.331
0
LINE
8
Black
10
127.071
20
-118.331
11
127.391
21
-118.515
0
LINE
8
Black
10
127.391
20
-118.515
11
127.628
21
-118.798
0
LINE
8
Black
10
127.628
20
-118.798
11
127.754
21
-119.145
0
LINE
8
Black
10
127.754
20
-119.145
11
127.754
21
-119.515
0
LINE
8
Black
10
127.754
20
-119.515
11
127.628
21
-119.862
0
LINE
8
Black
10
127.628
20
-119.862
11
127.391
21
-120.145
0
LINE
8
Black
10
127.391
20
-120.145
11
127.071
21
-120.329
0
LINE
8
Black
10
127.071
20
-120.329
11
126.707
21
-120.394
0
LINE
8
Black
10
126.707
20
-120.394
11
126.393
21
-120.394
0
LINE
8
Black
10
126.393
20
-120.394
11
126.029
21
-120.329
0
LINE
8
Black
10
126.029
20
-120.329
11
125.709
21
-120.145
0
LINE
8
Black
10
125.709
20
-120.145
11
125.472
21
-119.862
0
LINE
8
Black
10
125.472
20
-119.862
11
125.346
21
-119.515
0
LINE
8
Black
10
125.346
20
-119.515
11
125.346
21
-119.145
0
LINE
8
Black
10
125.346
20
-119.145
11
125.472
21
-118.798
0
LINE
8
Black
10
125.472
20
-118.798
11
125.709
21
-118.515
0
LINE
8
Black
10
125.709
20
-118.515
11
126.029
21
-118.331
0
LINE
8
Black
10
126.029
20
-118.331
11
126.393
21
-118.266
0
LINE
8
Black
10
126.393
20
-118.266
11
126.707
21
-118.266
0
LINE
8
Black
10
126.707
20
-118.266
11
127.071
21
-118.331
0
LINE
8
Black
10
138.4
20
-120.075
11
137.2
21
-120.075
0
LINE
8
Black
10
137.2
20
-120.075
11
137.2
21
-118.925
0
LINE
8
Black
10
137.2
20
-118.925
11
138.4
21
-118.925
0
LINE
8
Black
10
138.4
20
-118.925
11
138.4
21
-120.075
0
LINE
8
Black
10
139.9
20
-120.075
11
138.7
21
-120.075
0
LINE
8
Black
10
138.7
20
-120.075
11
138.7
21
-118.925
0
LINE
8
Black
10
138.7
20
-118.925
11
139.9
21
-118.925
0
LINE
8
Black
10
139.9
20
-118.925
11
139.9
21
-120.075
0
LINE
8
Black
10
132.66
20
-118.717
11
131.599
21
-119.777
0
LINE
8
Black
10
131.599
20
-119.777
11
129.973
21
-118.151
0
LINE
8
Black
10
129.973
20
-118.151
11
131.033
21
-117.09
0
LINE
8
Black
10
131.033
20
-117.09
11
132.66
21
-118.717
0
LINE
8
Black
10
129.675
20
-119.55
11
128.525
21
-119.55
0
LINE
8
Black
10
128.525
20
-119.55
11
128.525
21
-118.35
0
LINE
8
Black
10
128.525
20
-118.35
11
129.675
21
-118.35
0
LINE
8
Black
10
129.675
20
-118.35
11
129.675
21
-119.55
0
LINE
8
Black
10
134.427
20
-116.949
11
133.367
21
-118.01
0
LINE
8
Black
10
133.367
20
-118.01
11
131.74
21
-116.383
0
LINE
8
Black
10
131.74
20
-116.383
11
132.801
21
-115.323
0
LINE
8
Black
10
132.801
20
-115.323
11
134.427
21
-116.949
0
LINE
8
Black
10
136.025
20
-117.95
11
134.875
21
-117.95
0
LINE
8
Black
10
134.875
20
-117.95
11
134.875
21
-116.75
0
LINE
8
Black
10
134.875
20
-116.75
11
136.025
21
-116.75
0
LINE
8
Black
10
136.025
20
-116.75
11
136.025
21
-117.95
0
LINE
8
Black
10
127.071
20
-115.791
11
127.391
21
-115.975
0
LINE
8
Black
10
127.391
20
-115.975
11
127.628
21
-116.258
0
LINE
8
Black
10
127.628
20
-116.258
11
127.754
21
-116.605
0
LINE
8
Black
10
127.754
20
-116.605
11
127.754
21
-116.975
0
LINE
8
Black
10
127.754
20
-116.975
11
127.628
21
-117.322
0
LINE
8
Black
10
127.628
20
-117.322
11
127.391
21
-117.605
0
LINE
8
Black
10
127.391
20
-117.605
11
127.071
21
-117.789
0
LINE
8
Black
10
127.071
20
-117.789
11
126.707
21
-117.854
0
LINE
8
Black
10
126.707
20
-117.854
11
126.393
21
-117.854
0
LINE
8
Black
10
126.393
20
-117.854
11
126.029
21
-117.789
0
LINE
8
Black
10
126.029
20
-117.789
11
125.709
21
-117.605
0
LINE
8
Black
10
125.709
20
-117.605
11
125.472
21
-117.322
0
LINE
8
Black
10
125.472
20
-117.322
11
125.346
21
-116.975
0
LINE
8
Black
10
125.346
20
-116.975
11
125.346
21
-116.605
0
LINE
8
Black
10
125.346
20
-116.605
11
125.472
21
-116.258
0
LINE
8
Black
10
125.472
20
-116.258
11
125.709
21
-115.975
0
LINE
8
Black
10
125.709
20
-115.975
11
126.029
21
-115.791
0
LINE
8
Black
10
126.029
20
-115.791
11
126.393
21
-115.726
0
LINE
8
Black
10
126.393
20
-115.726
11
126.707
21
-115.726
0
LINE
8
Black
10
126.707
20
-115.726
11
127.071
21
-115.791
0
LINE
8
Black
10
142.321
20
-115.791
11
142.641
21
-115.975
0
LINE
8
Black
10
142.641
20
-115.975
11
142.878
21
-116.258
0
LINE
8
Black
10
142.878
20
-116.258
11
143.004
21
-116.605
0
LINE
8
Black
10
143.004
20
-116.605
11
143.004
21
-116.975
0
LINE
8
Black
10
143.004
20
-116.975
11
142.878
21
-117.322
0
LINE
8
Black
10
142.878
20
-117.322
11
142.641
21
-117.605
0
LINE
8
Black
10
142.641
20
-117.605
11
142.321
21
-117.789
0
LINE
8
Black
10
142.321
20
-117.789
11
141.957
21
-117.854
0
LINE
8
Black
10
141.957
20
-117.854
11
141.643
21
-117.854
0
LINE
8
Black
10
141.643
20
-117.854
11
141.279
21
-117.789
0
LINE
8
Black
10
141.279
20
-117.789
11
140.959
21
-117.605
0
LINE
8
Black
10
140.959
20
-117.605
11
140.722
21
-117.322
0
LINE
8
Black
10
140.722
20
-117.322
11
140.596
21
-116.975
0
LINE
8
Black
10
140.596
20
-116.975
11
140.596
21
-116.605
0
LINE
8
Black
10
140.596
20
-116.605
11
140.722
21
-116.258
0
LINE
8
Black
10
140.722
20
-116.258
11
140.959
21
-115.975
0
LINE
8
Black
10
140.959
20
-115.975
11
141.279
21
-115.791
0
LINE
8
Black
10
141.279
20
-115.791
11
141.643
21
-115.726
0
LINE
8
Black
10
141.643
20
-115.726
11
141.957
21
-115.726
0
LINE
8
Black
10
141.957
20
-115.726
11
142.321
21
-115.791
0
LINE
8
Black
10
138.15
20
-117.75
11
137.25
21
-117.75
0
LINE
8
Black
10
137.25
20
-117.75
11
137.25
21
-116.45
0
LINE
8
Black
10
137.25
20
-116.45
11
138.15
21
-116.45
0
LINE
8
Black
10
138.15
20
-116.45
11
138.15
21
-117.75
0
LINE
8
Black
10
139.65
20
-117.75
11
138.75
21
-117.75
0
LINE
8
Black
10
138.75
20
-117.75
11
138.75
21
-116.45
0
LINE
8
Black
10
138.75
20
-116.45
11
139.65
21
-116.45
0
LINE
8
Black
10
139.65
20
-116.45
11
139.65
21
-117.75
0
LINE
8
Black
10
129.9
20
-116.2
11
129.256
21
-116.2
0
LINE
8
Black
10
129.256
20
-116.2
11
129.353
21
-116.217
0
LINE
8
Black
10
129.353
20
-116.217
11
129.444
21
-116.269
0
LINE
8
Black
10
129.444
20
-116.269
11
129.511
21
-116.349
0
LINE
8
Black
10
129.511
20
-116.349
11
129.547
21
-116.448
0
LINE
8
Black
10
129.547
20
-116.448
11
129.547
21
-116.552
0
LINE
8
Black
10
129.547
20
-116.552
11
129.511
21
-116.651
0
LINE
8
Black
10
129.511
20
-116.651
11
129.444
21
-116.731
0
LINE
8
Black
10
129.444
20
-116.731
11
129.353
21
-116.783
0
LINE
8
Black
10
129.353
20
-116.783
11
129.256
21
-116.8
0
LINE
8
Black
10
129.256
20
-116.8
11
129.9
21
-116.8
0
LINE
8
Black
10
129.9
20
-116.8
11
129.9
21
-117.7
0
LINE
8
Black
10
129.9
20
-117.7
11
128.6
21
-117.7
0
LINE
8
Black
10
128.6
20
-117.7
11
128.6
21
-116.8
0
LINE
8
Black
10
128.6
20
-116.8
11
129.244
21
-116.8
0
LINE
8
Black
10
129.244
20
-116.8
11
129.147
21
-116.783
0
LINE
8
Black
10
129.147
20
-116.783
11
129.056
21
-116.731
0
LINE
8
Black
10
129.056
20
-116.731
11
128.989
21
-116.651
0
LINE
8
Black
10
128.989
20
-116.651
11
128.953
21
-116.552
0
LINE
8
Black
10
128.953
20
-116.552
11
128.953
21
-116.448
0
LINE
8
Black
10
128.953
20
-116.448
11
128.989
21
-116.349
0
LINE
8
Black
10
128.989
20
-116.349
11
129.056
21
-116.269
0
LINE
8
Black
10
129.056
20
-116.269
11
129.147
21
-116.217
0
LINE
8
Black
10
129.147
20
-116.217
11
129.244
21
-116.2
0
LINE
8
Black
10
129.244
20
-116.2
11
128.6
21
-116.2
0
LINE
8
Black
10
128.6
20
-116.2
11
128.6
21
-115.3
0
LINE
8
Black
10
128.6
20
-115.3
11
129.9
21
-115.3
0
LINE
8
Black
10
129.9
20
-115.3
11
129.9
21
-116.2
0
LINE
8
Black
10
136.025
20
-116.45
11
134.875
21
-116.45
0
LINE
8
Black
10
134.875
20
-116.45
11
134.875
21
-115.25
0
LINE
8
Black
10
134.875
20
-115.25
11
136.025
21
-115.25
0
LINE
8
Black
10
136.025
20
-115.25
11
136.025
21
-116.45
0
LINE
8
Black
10
138.4
20
-115.85
11
137.5
21
-115.85
0
LINE
8
Black
10
137.5
20
-115.85
11
137.5
21
-114.55
0
LINE
8
Black
10
137.5
20
-114.55
11
138.4
21
-114.55
0
LINE
8
Black
10
138.4
20
-114.55
11
138.4
21
-115.85
0
LINE
8
Black
10
139.9
20
-115.85
11
139
21
-115.85
0
LINE
8
Black
10
139
20
-115.85
11
139
21
-114.55
0
LINE
8
Black
10
139
20
-114.55
11
139.9
21
-114.55
0
LINE
8
Black
10
139.9
20
-114.55
11
139.9
21
-115.85
0
LINE
8
Black
10
127.071
20
-113.251
11
127.391
21
-113.435
0
LINE
8
Black
10
127.391
20
-113.435
11
127.628
21
-113.718
0
LINE
8
Black
10
127.628
20
-113.718
11
127.754
21
-114.065
0
LINE
8
Black
10
127.754
20
-114.065
11
127.754
21
-114.435
0
LINE
8
Black
10
127.754
20
-114.435
11
127.628
21
-114.782
0
LINE
8
Black
10
127.628
20
-114.782
11
127.391
21
-115.065
0
LINE
8
Black
10
127.391
20
-115.065
11
127.071
21
-115.249
0
LINE
8
Black
10
127.071
20
-115.249
11
126.707
21
-115.314
0
LINE
8
Black
10
126.707
20
-115.314
11
126.393
21
-115.314
0
LINE
8
Black
10
126.393
20
-115.314
11
126.029
21
-115.249
0
LINE
8
Black
10
126.029
20
-115.249
11
125.709
21
-115.065
0
LINE
8
Black
10
125.709
20
-115.065
11
125.472
21
-114.782
0
LINE
8
Black
10
125.472
20
-114.782
11
125.346
21
-114.435
0
LINE
8
Black
10
125.346
20
-114.435
11
125.346
21
-114.065
0
LINE
8
Black
10
125.346
20
-114.065
11
125.472
21
-113.718
0
LINE
8
Black
10
125.472
20
-113.718
11
125.709
21
-113.435
0
LINE
8
Black
10
125.709
20
-113.435
11
126.029
21
-113.251
0
LINE
8
Black
10
126.029
20
-113.251
11
126.393
21
-113.186
0
LINE
8
Black
10
126.393
20
-113.186
11
126.707
21
-113.186
0
LINE
8
Black
10
126.707
20
-113.186
11
127.071
21
-113.251
0
LINE
8
Black
10
142.321
20
-113.251
11
142.641
21
-113.435
0
LINE
8
Black
10
142.641
20
-113.435
11
142.878
21
-113.718
0
LINE
8
Black
10
142.878
20
-113.718
11
143.004
21
-114.065
0
LINE
8
Black
10
143.004
20
-114.065
11
143.004
21
-114.435
0
LINE
8
Black
10
143.004
20
-114.435
11
142.878
21
-114.782
0
LINE
8
Black
10
142.878
20
-114.782
11
142.641
21
-115.065
0
LINE
8
Black
10
142.641
20
-115.065
11
142.321
21
-115.249
0
LINE
8
Black
10
142.321
20
-115.249
11
141.957
21
-115.314
0
LINE
8
Black
10
141.957
20
-115.314
11
141.643
21
-115.314
0
LINE
8
Black
10
141.643
20
-115.314
11
141.279
21
-115.249
0
LINE
8
Black
10
141.279
20
-115.249
11
140.959
21
-115.065
0
LINE
8
Black
10
140.959
20
-115.065
11
140.722
21
-114.782
0
LINE
8
Black
10
140.722
20
-114.782
11
140.596
21
-114.435
0
LINE
8
Black
10
140.596
20
-114.435
11
140.596
21
-114.065
0
LINE
8
Black
10
140.596
20
-114.065
11
140.722
21
-113.718
0
LINE
8
Black
10
140.722
20
-113.718
11
140.959
21
-113.435
0
LINE
8
Black
10
140.959
20
-113.435
11
141.279
21
-113.251
0
LINE
8
Black
10
141.279
20
-113.251
11
141.643
21
-113.186
0
LINE
8
Black
10
141.643
20
-113.186
11
141.957
21
-113.186
0
LINE
8
Black
10
141.957
20
-113.186
11
142.321
21
-113.251
0
LINE
8
Black
10
131.3
20
-114.925
11
130.1
21
-114.925
0
LINE
8
Black
10
130.1
20
-114.925
11
130.1
21
-113.775
0
LINE
8
Black
10
130.1
20
-113.775
11
131.3
21
-113.775
0
LINE
8
Black
10
131.3
20
-113.775
11
131.3
21
-114.925
0
LINE
8
Black
10
132.8
20
-114.925
11
131.6
21
-114.925
0
LINE
8
Black
10
131.6
20
-114.925
11
131.6
21
-113.775
0
LINE
8
Black
10
131.6
20
-113.775
11
132.8
21
-113.775
0
LINE
8
Black
10
132.8
20
-113.775
11
132.8
21
-114.925
0
LINE
8
Black
10
129.8
20
-114.925
11
128.6
21
-114.925
0
LINE
8
Black
10
128.6
20
-114.925
11
128.6
21
-113.775
0
LINE
8
Black
10
128.6
20
-113.775
11
129.8
21
-113.775
0
LINE
8
Black
10
129.8
20
-113.775
11
129.8
21
-114.925
0
LINE
8
Black
10
134.3
20
-114.925
11
133.1
21
-114.925
0
LINE
8
Black
10
133.1
20
-114.925
11
133.1
21
-113.775
0
LINE
8
Black
10
133.1
20
-113.775
11
134.3
21
-113.775
0
LINE
8
Black
10
134.3
20
-113.775
11
134.3
21
-114.925
0
LINE
8
Black
10
135.775
20
-114.8
11
134.625
21
-114.8
0
LINE
8
Black
10
134.625
20
-114.8
11
134.625
21
-113.6
0
LINE
8
Black
10
134.625
20
-113.6
11
135.775
21
-113.6
0
LINE
8
Black
10
135.775
20
-113.6
11
135.775
21
-114.8
0
LINE
8
Black
10
137.25
20
-114.305
11
136.45
21
-114.305
0
LINE
8
Black
10
136.45
20
-114.305
11
136.45
21
-113.395
0
LINE
8
Black
10
136.45
20
-113.395
11
137.25
21
-113.395
0
LINE
8
Black
10
137.25
20
-113.395
11
137.25
21
-114.305
0
LINE
8
Black
10
139.75
20
-114.3
11
138.15
21
-114.3
0
LINE
8
Black
10
138.15
20
-114.3
11
138.15
21
-112.7
0
LINE
8
Black
10
138.15
20
-112.7
11
139.75
21
-112.7
0
LINE
8
Black
10
139.75
20
-112.7
11
139.75
21
-114.3
0
LINE
8
Black
10
129.55
20
-113.35
11
128.65
21
-113.35
0
LINE
8
Black
10
128.65
20
-113.35
11
128.65
21
-112.05
0
LINE
8
Black
10
128.65
20
-112.05
11
129.55
21
-112.05
0
LINE
8
Black
10
129.55
20
-112.05
11
129.55
21
-113.35
0
LINE
8
Black
10
132.5
20
-113.35
11
131.6
21
-113.35
0
LINE
8
Black
10
131.6
20
-113.35
11
131.6
21
-112.05
0
LINE
8
Black
10
131.6
20
-112.05
11
132.5
21
-112.05
0
LINE
8
Black
10
132.5
20
-112.05
11
132.5
21
-113.35
0
LINE
8
Black
10
131.05
20
-113.35
11
130.15
21
-113.35
0
LINE
8
Black
10
130.15
20
-113.35
11
130.15
21
-112.05
0
LINE
8
Black
10
130.15
20
-112.05
11
131.05
21
-112.05
0
LINE
8
Black
10
131.05
20
-112.05
11
131.05
21
-113.35
0
LINE
8
Black
10
134
20
-113.35
11
133.1
21
-113.35
0
LINE
8
Black
10
133.1
20
-113.35
11
133.1
21
-112.05
0
LINE
8
Black
10
133.1
20
-112.05
11
134
21
-112.05
0
LINE
8
Black
10
134
20
-112.05
11
134
21
-113.35
0
LINE
8
Black
10
135.775
20
-113.3
11
134.625
21
-113.3
0
LINE
8
Black
10
134.625
20
-113.3
11
134.625
21
-112.1
0
LINE
8
Black
10
134.625
20
-112.1
11
135.775
21
-112.1
0
LINE
8
Black
10
135.775
20
-112.1
11
135.775
21
-113.3
0
LINE
8
Black
10
136.75
20
-113.005
11
135.95
21
-113.005
0
LINE
8
Black
10
135.95
20
-113.005
11
135.95
21
-112.095
0
LINE
8
Black
10
135.95
20
-112.095
11
136.75
21
-112.095
0
LINE
8
Black
10
136.75
20
-112.095
11
136.75
21
-113.005
0
LINE
8
Black
10
137.75
20
-113.005
11
136.95
21
-113.005
0
LINE
8
Black
10
136.95
20
-113.005
11
136.95
21
-112.095
0
LINE
8
Black
10
136.95
20
-112.095
11
137.75
21
-112.095
0
LINE
8
Black
10
137.75
20
-112.095
11
137.75
21
-113.005
0
LINE
8
Black
10
142.321
20
-110.711
11
142.641
21
-110.895
0
LINE
8
Black
10
142.641
20
-110.895
11
142.878
21
-111.178
0
LINE
8
Black
10
142.878
20
-111.178
11
143.004
21
-111.525
0
LINE
8
Black
10
143.004
20
-111.525
11
143.004
21
-111.895
0
LINE
8
Black
10
143.004
20
-111.895
11
142.878
21
-112.242
0
LINE
8
Black
10
142.878
20
-112.242
11
142.641
21
-112.525
0
LINE
8
Black
10
142.641
20
-112.525
11
142.321
21
-112.709
0
LINE
8
Black
10
142.321
20
-112.709
11
141.957
21
-112.774
0
LINE
8
Black
10
141.957
20
-112.774
11
141.643
21
-112.774
0
LINE
8
Black
10
141.643
20
-112.774
11
141.279
21
-112.709
0
LINE
8
Black
10
141.279
20
-112.709
11
140.959
21
-112.525
0
LINE
8
Black
10
140.959
20
-112.525
11
140.722
21
-112.242
0
LINE
8
Black
10
140.722
20
-112.242
11
140.596
21
-111.895
0
LINE
8
Black
10
140.596
20
-111.895
11
140.596
21
-111.525
0
LINE
8
Black
10
140.596
20
-111.525
11
140.722
21
-111.178
0
LINE
8
Black
10
140.722
20
-111.178
11
140.959
21
-110.895
0
LINE
8
Black
10
140.959
20
-110.895
11
141.279
21
-110.711
0
LINE
8
Black
10
141.279
20
-110.711
11
141.643
21
-110.646
0
LINE
8
Black
10
141.643
20
-110.646
11
141.957
21
-110.646
0
LINE
8
Black
10
141.957
20
-110.646
11
142.321
21
-110.711
0
LINE
8
Black
10
127.071
20
-110.711
11
127.391
21
-110.895
0
LINE
8
Black
10
127.391
20
-110.895
11
127.628
21
-111.178
0
LINE
8
Black
10
127.628
20
-111.178
11
127.754
21
-111.525
0
LINE
8
Black
10
127.754
20
-111.525
11
127.754
21
-111.895
0
LINE
8
Black
10
127.754
20
-111.895
11
127.628
21
-112.242
0
LINE
8
Black
10
127.628
20
-112.242
11
127.391
21
-112.525
0
LINE
8
Black
10
127.391
20
-112.525
11
127.071
21
-112.709
0
LINE
8
Black
10
127.071
20
-112.709
11
126.707
21
-112.774
0
LINE
8
Black
10
126.707
20
-112.774
11
126.393
21
-112.774
0
LINE
8
Black
10
126.393
20
-112.774
11
126.029
21
-112.709
0
LINE
8
Black
10
126.029
20
-112.709
11
125.709
21
-112.525
0
LINE
8
Black
10
125.709
20
-112.525
11
125.472
21
-112.242
0
LINE
8
Black
10
125.472
20
-112.242
11
125.346
21
-111.895
0
LINE
8
Black
10
125.346
20
-111.895
11
125.346
21
-111.525
0
LINE
8
Black
10
125.346
20
-111.525
11
125.472
21
-111.178
0
LINE
8
Black
10
125.472
20
-111.178
11
125.709
21
-110.895
0
LINE
8
Black
10
125.709
20
-110.895
11
126.029
21
-110.711
0
LINE
8
Black
10
126.029
20
-110.711
11
126.393
21
-110.646
0
LINE
8
Black
10
126.393
20
-110.646
11
126.707
21
-110.646
0
LINE
8
Black
10
126.707
20
-110.646
11
127.071
21
-110.711
0
LINE
8
Black
10
139.75
20
-112.2
11
138.15
21
-112.2
0
LINE
8
Black
10
138.15
20
-112.2
11
138.15
21
-110.6
0
LINE
8
Black
10
138.15
20
-110.6
11
139.75
21
-110.6
0
LINE
8
Black
10
139.75
20
-110.6
11
139.75
21
-112.2
0
LINE
8
Black
10
130.15
20
-110.45
11
128.55
21
-110.45
0
LINE
8
Black
10
128.55
20
-110.45
11
128.55
21
-108.85
0
LINE
8
Black
10
128.55
20
-108.85
11
130.15
21
-108.85
0
LINE
8
Black
10
130.15
20
-108.85
11
130.15
21
-110.45
0
LINE
8
Black
10
139.75
20
-110.3
11
138.15
21
-110.3
0
LINE
8
Black
10
138.15
20
-110.3
11
138.15
21
-108.7
0
LINE
8
Black
10
138.15
20
-108.7
11
139.75
21
-108.7
0
LINE
8
Black
10
139.75
20
-108.7
11
139.75
21
-110.3
0
LINE
8
Black
10
142.321
20
-108.171
11
142.641
21
-108.355
0
LINE
8
Black
10
142.641
20
-108.355
11
142.878
21
-108.638
0
LINE
8
Black
10
142.878
20
-108.638
11
143.004
21
-108.985
0
LINE
8
Black
10
143.004
20
-108.985
11
143.004
21
-109.355
0
LINE
8
Black
10
143.004
20
-109.355
11
142.878
21
-109.702
0
LINE
8
Black
10
142.878
20
-109.702
11
142.641
21
-109.985
0
LINE
8
Black
10
142.641
20
-109.985
11
142.321
21
-110.169
0
LINE
8
Black
10
142.321
20
-110.169
11
141.957
21
-110.234
0
LINE
8
Black
10
141.957
20
-110.234
11
141.643
21
-110.234
0
LINE
8
Black
10
141.643
20
-110.234
11
141.279
21
-110.169
0
LINE
8
Black
10
141.279
20
-110.169
11
140.959
21
-109.985
0
LINE
8
Black
10
140.959
20
-109.985
11
140.722
21
-109.702
0
LINE
8
Black
10
140.722
20
-109.702
11
140.596
21
-109.355
0
LINE
8
Black
10
140.596
20
-109.355
11
140.596
21
-108.985
0
LINE
8
Black
10
140.596
20
-108.985
11
140.722
21
-108.638
0
LINE
8
Black
10
140.722
20
-108.638
11
140.959
21
-108.355
0
LINE
8
Black
10
140.959
20
-108.355
11
141.279
21
-108.171
0
LINE
8
Black
10
141.279
20
-108.171
11
141.643
21
-108.106
0
LINE
8
Black
10
141.643
20
-108.106
11
141.957
21
-108.106
0
LINE
8
Black
10
141.957
20
-108.106
11
142.321
21
-108.171
0
LINE
8
Black
10
127.071
20
-108.171
11
127.391
21
-108.355
0
LINE
8
Black
10
127.391
20
-108.355
11
127.628
21
-108.638
0
LINE
8
Black
10
127.628
20
-108.638
11
127.754
21
-108.985
0
LINE
8
Black
10
127.754
20
-108.985
11
127.754
21
-109.355
0
LINE
8
Black
10
127.754
20
-109.355
11
127.628
21
-109.702
0
LINE
8
Black
10
127.628
20
-109.702
11
127.391
21
-109.985
0
LINE
8
Black
10
127.391
20
-109.985
11
127.071
21
-110.169
0
LINE
8
Black
10
127.071
20
-110.169
11
126.707
21
-110.234
0
LINE
8
Black
10
126.707
20
-110.234
11
126.393
21
-110.234
0
LINE
8
Black
10
126.393
20
-110.234
11
126.029
21
-110.169
0
LINE
8
Black
10
126.029
20
-110.169
11
125.709
21
-109.985
0
LINE
8
Black
10
125.709
20
-109.985
11
125.472
21
-109.702
0
LINE
8
Black
10
125.472
20
-109.702
11
125.346
21
-109.355
0
LINE
8
Black
10
125.346
20
-109.355
11
125.346
21
-108.985
0
LINE
8
Black
10
125.346
20
-108.985
11
125.472
21
-108.638
0
LINE
8
Black
10
125.472
20
-108.638
11
125.709
21
-108.355
0
LINE
8
Black
10
125.709
20
-108.355
11
126.029
21
-108.171
0
LINE
8
Black
10
126.029
20
-108.171
11
126.393
21
-108.106
0
LINE
8
Black
10
126.393
20
-108.106
11
126.707
21
-108.106
0
LINE
8
Black
10
126.707
20
-108.106
11
127.071
21
-108.171
0
LINE
8
Black
10
137.95
20
-110
11
135.75
21
-110
0
LINE
8
Black
10
135.75
20
-110
11
135.75
21
-108
0
LINE
8
Black
10
135.75
20
-108
11
137.95
21
-108
0
LINE
8
Black
10
137.95
20
-108
11
137.95
21
-110
0
LINE
8
Black
10
132.55
20
-110
11
130.35
21
-110
0
LINE
8
Black
10
130.35
20
-110
11
130.35
21
-108
0
LINE
8
Black
10
130.35
20
-108
11
132.55
21
-108
0
LINE
8
Black
10
132.55
20
-108
11
132.55
21
-110
0
LINE
8
Black
10
130.15
20
-108.35
11
128.55
21
-108.35
0
LINE
8
Black
10
128.55
20
-108.35
11
128.55
21
-106.75
0
LINE
8
Black
10
128.55
20
-106.75
11
130.15
21
-106.75
0
LINE
8
Black
10
130.15
20
-106.75
11
130.15
21
-108.35
0
LINE
8
Black
10
139.75
20
-108.2
11
138.15
21
-108.2
0
LINE
8
Black
10
138.15
20
-108.2
11
138.15
21
-106.6
0
LINE
8
Black
10
138.15
20
-106.6
11
139.75
21
-106.6
0
LINE
8
Black
10
139.75
20
-106.6
11
139.75
21
-108.2
0
LINE
8
Black
10
142.321
20
-105.631
11
142.641
21
-105.815
0
LINE
8
Black
10
142.641
20
-105.815
11
142.878
21
-106.098
0
LINE
8
Black
10
142.878
20
-106.098
11
143.004
21
-106.445
0
LINE
8
Black
10
143.004
20
-106.445
11
143.004
21
-106.815
0
LINE
8
Black
10
143.004
20
-106.815
11
142.878
21
-107.162
0
LINE
8
Black
10
142.878
20
-107.162
11
142.641
21
-107.445
0
LINE
8
Black
10
142.641
20
-107.445
11
142.321
21
-107.629
0
LINE
8
Black
10
142.321
20
-107.629
11
141.957
21
-107.694
0
LINE
8
Black
10
141.957
20
-107.694
11
141.643
21
-107.694
0
LINE
8
Black
10
141.643
20
-107.694
11
141.279
21
-107.629
0
LINE
8
Black
10
141.279
20
-107.629
11
140.959
21
-107.445
0
LINE
8
Black
10
140.959
20
-107.445
11
140.722
21
-107.162
0
LINE
8
Black
10
140.722
20
-107.162
11
140.596
21
-106.815
0
LINE
8
Black
10
140.596
20
-106.815
11
140.596
21
-106.445
0
LINE
8
Black
10
140.596
20
-106.445
11
140.722
21
-106.098
0
LINE
8
Black
10
140.722
20
-106.098
11
140.959
21
-105.815
0
LINE
8
Black
10
140.959
20
-105.815
11
141.279
21
-105.631
0
LINE
8
Black
10
141.279
20
-105.631
11
141.643
21
-105.566
0
LINE
8
Black
10
141.643
20
-105.566
11
141.957
21
-105.566
0
LINE
8
Black
10
141.957
20
-105.566
11
142.321
21
-105.631
0
LINE
8
Black
10
127.071
20
-105.631
11
127.391
21
-105.815
0
LINE
8
Black
10
127.391
20
-105.815
11
127.628
21
-106.098
0
LINE
8
Black
10
127.628
20
-106.098
11
127.754
21
-106.445
0
LINE
8
Black
10
127.754
20
-106.445
11
127.754
21
-106.815
0
LINE
8
Black
10
127.754
20
-106.815
11
127.628
21
-107.162
0
LINE
8
Black
10
127.628
20
-107.162
11
127.391
21
-107.445
0
LINE
8
Black
10
127.391
20
-107.445
11
127.071
21
-107.629
0
LINE
8
Black
10
127.071
20
-107.629
11
126.707
21
-107.694
0
LINE
8
Black
10
126.707
20
-107.694
11
126.393
21
-107.694
0
LINE
8
Black
10
126.393
20
-107.694
11
126.029
21
-107.629
0
LINE
8
Black
10
126.029
20
-107.629
11
125.709
21
-107.445
0
LINE
8
Black
10
125.709
20
-107.445
11
125.472
21
-107.162
0
LINE
8
Black
10
125.472
20
-107.162
11
125.346
21
-106.815
0
LINE
8
Black
10
125.346
20
-106.815
11
125.346
21
-106.445
0
LINE
8
Black
10
125.346
20
-106.445
11
125.472
21
-106.098
0
LINE
8
Black
10
125.472
20
-106.098
11
125.709
21
-105.815
0
LINE
8
Black
10
125.709
20
-105.815
11
126.029
21
-105.631
0
LINE
8
Black
10
126.029
20
-105.631
11
126.393
21
-105.566
0
LINE
8
Black
10
126.393
20
-105.566
11
126.707
21
-105.566
0
LINE
8
Black
10
126.707
20
-105.566
11
127.071
21
-105.631
0
LINE
8
Black
10
136.903
20
-105.1
11
137.09
21
-105.208
0
LINE
8
Black
10
137.09
20
-105.208
11
137.229
21
-105.374
0
LINE
8
Black
10
137.229
20
-105.374
11
137.303
21
-105.577
0
LINE
8
Black
10
137.303
20
-105.577
11
137.303
21
-105.793
0
LINE
8
Black
10
137.303
20
-105.793
11
137.229
21
-105.996
0
LINE
8
Black
10
137.229
20
-105.996
11
137.09
21
-106.162
0
LINE
8
Black
10
137.09
20
-106.162
11
136.903
21
-106.27
0
LINE
8
Black
10
136.903
20
-106.27
11
136.69
21
-106.307
0
LINE
8
Black
10
136.69
20
-106.307
11
136.477
21
-106.27
0
LINE
8
Black
10
136.477
20
-106.27
11
136.29
21
-106.162
0
LINE
8
Black
10
136.29
20
-106.162
11
136.151
21
-105.996
0
LINE
8
Black
10
136.151
20
-105.996
11
136.077
21
-105.793
0
LINE
8
Black
10
136.077
20
-105.793
11
136.077
21
-105.577
0
LINE
8
Black
10
136.077
20
-105.577
11
136.151
21
-105.374
0
LINE
8
Black
10
136.151
20
-105.374
11
136.29
21
-105.208
0
LINE
8
Black
10
136.29
20
-105.208
11
136.477
21
-105.1
0
LINE
8
Black
10
136.477
20
-105.1
11
136.69
21
-105.063
0
LINE
8
Black
10
136.69
20
-105.063
11
136.903
21
-105.1
0
LINE
8
Black
10
135.633
20
-105.1
11
135.82
21
-105.208
0
LINE
8
Black
10
135.82
20
-105.208
11
135.959
21
-105.374
0
LINE
8
Black
10
135.959
20
-105.374
11
136.033
21
-105.577
0
LINE
8
Black
10
136.033
20
-105.577
11
136.033
21
-105.793
0
LINE
8
Black
10
136.033
20
-105.793
11
135.959
21
-105.996
0
LINE
8
Black
10
135.959
20
-105.996
11
135.82
21
-106.162
0
LINE
8
Black
10
135.82
20
-106.162
11
135.633
21
-106.27
0
LINE
8
Black
10
135.633
20
-106.27
11
135.42
21
-106.307
0
LINE
8
Black
10
135.42
20
-106.307
11
135.207
21
-106.27
0
LINE
8
Black
10
135.207
20
-106.27
11
135.02
21
-106.162
0
LINE
8
Black
10
135.02
20
-106.162
11
134.881
21
-105.996
0
LINE
8
Black
10
134.881
20
-105.996
11
134.807
21
-105.793
0
LINE
8
Black
10
134.807
20
-105.793
11
134.807
21
-105.577
0
LINE
8
Black
10
134.807
20
-105.577
11
134.881
21
-105.374
0
LINE
8
Black
10
134.881
20
-105.374
11
135.02
21
-105.208
0
LINE
8
Black
10
135.02
20
-105.208
11
135.207
21
-105.1
0
LINE
8
Black
10
135.207
20
-105.1
11
135.42
21
-105.063
0
LINE
8
Black
10
135.42
20
-105.063
11
135.633
21
-105.1
0
LINE
8
Black
10
134.363
20
-105.1
11
134.55
21
-105.208
0
LINE
8
Black
10
134.55
20
-105.208
11
134.689
21
-105.374
0
LINE
8
Black
10
134.689
20
-105.374
11
134.763
21
-105.577
0
LINE
8
Black
10
134.763
20
-105.577
11
134.763
21
-105.793
0
LINE
8
Black
10
134.763
20
-105.793
11
134.689
21
-105.996
0
LINE
8
Black
10
134.689
20
-105.996
11
134.55
21
-106.162
0
LINE
8
Black
10
134.55
20
-106.162
11
134.363
21
-106.27
0
LINE
8
Black
10
134.363
20
-106.27
11
134.15
21
-106.307
0
LINE
8
Black
10
134.15
20
-106.307
11
133.937
21
-106.27
0
LINE
8
Black
10
133.937
20
-106.27
11
133.75
21
-106.162
0
LINE
8
Black
10
133.75
20
-106.162
11
133.611
21
-105.996
0
LINE
8
Black
10
133.611
20
-105.996
11
133.537
21
-105.793
0
LINE
8
Black
10
133.537
20
-105.793
11
133.537
21
-105.577
0
LINE
8
Black
10
133.537
20
-105.577
11
133.611
21
-105.374
0
LINE
8
Black
10
133.611
20
-105.374
11
133.75
21
-105.208
0
LINE
8
Black
10
133.75
20
-105.208
11
133.937
21
-105.1
0
LINE
8
Black
10
133.937
20
-105.1
11
134.15
21
-105.063
0
LINE
8
Black
10
134.15
20
-105.063
11
134.363
21
-105.1
0
LINE
8
Black
10
133.093
20
-105.1
11
133.28
21
-105.208
0
LINE
8
Black
10
133.28
20
-105.208
11
133.419
21
-105.374
0
LINE
8
Black
10
133.419
20
-105.374
11
133.493
21
-105.577
0
LINE
8
Black
10
133.493
20
-105.577
11
133.493
21
-105.793
0
LINE
8
Black
10
133.493
20
-105.793
11
133.419
21
-105.996
0
LINE
8
Black
10
133.419
20
-105.996
11
133.28
21
-106.162
0
LINE
8
Black
10
133.28
20
-106.162
11
133.093
21
-106.27
0
LINE
8
Black
10
133.093
20
-106.27
11
132.88
21
-106.307
0
LINE
8
Black
10
132.88
20
-106.307
11
132.667
21
-106.27
0
LINE
8
Black
10
132.667
20
-106.27
11
132.48
21
-106.162
0
LINE
8
Black
10
132.48
20
-106.162
11
132.341
21
-105.996
0
LINE
8
Black
10
132.341
20
-105.996
11
132.267
21
-105.793
0
LINE
8
Black
10
132.267
20
-105.793
11
132.267
21
-105.577
0
LINE
8
Black
10
132.267
20
-105.577
11
132.341
21
-105.374
0
LINE
8
Black
10
132.341
20
-105.374
11
132.48
21
-105.208
0
LINE
8
Black
10
132.48
20
-105.208
11
132.667
21
-105.1
0
LINE
8
Black
10
132.667
20
-105.1
11
132.88
21
-105.063
0
LINE
8
Black
10
132.88
20
-105.063
11
133.093
21
-105.1
0
LINE
8
Black
10
131.823
20
-105.1
11
132.01
21
-105.208
0
LINE
8
Black
10
132.01
20
-105.208
11
132.149
21
-105.374
0
LINE
8
Black
10
132.149
20
-105.374
11
132.223
21
-105.577
0
LINE
8
Black
10
132.223
20
-105.577
11
132.223
21
-105.793
0
LINE
8
Black
10
132.223
20
-105.793
11
132.149
21
-105.996
0
LINE
8
Black
10
132.149
20
-105.996
11
132.01
21
-106.162
0
LINE
8
Black
10
132.01
20
-106.162
11
131.823
21
-106.27
0
LINE
8
Black
10
131.823
20
-106.27
11
131.61
21
-106.307
0
LINE
8
Black
10
131.61
20
-106.307
11
131.397
21
-106.27
0
LINE
8
Black
10
131.397
20
-106.27
11
131.21
21
-106.162
0
LINE
8
Black
10
131.21
20
-106.162
11
131.071
21
-105.996
0
LINE
8
Black
10
131.071
20
-105.996
11
130.997
21
-105.793
0
LINE
8
Black
10
130.997
20
-105.793
11
130.997
21
-105.577
0
LINE
8
Black
10
130.997
20
-105.577
11
131.071
21
-105.374
0
LINE
8
Black
10
131.071
20
-105.374
11
131.21
21
-105.208
0
LINE
8
Black
10
131.21
20
-105.208
11
131.397
21
-105.1
0
LINE
8
Black
10
131.397
20
-105.1
11
131.61
21
-105.063
0
LINE
8
Black
10
131.61
20
-105.063
11
131.823
21
-105.1
0
LINE
8
Black
10
130.25
20
-105.85
11
128.95
21
-105.85
0
LINE
8
Black
10
128.95
20
-105.85
11
128.95
21
-104.95
0
LINE
8
Black
10
128.95
20
-104.95
11
130.25
21
-104.95
0
LINE
8
Black
10
130.25
20
-104.95
11
130.25
21
-105.85
0
LINE
8
Black
10
139.4
20
-105.85
11
138.1
21
-105.85
0
LINE
8
Black
10
138.1
20
-105.85
11
138.1
21
-104.95
0
LINE
8
Black
10
138.1
20
-104.95
11
139.4
21
-104.95
0
LINE
8
Black
10
139.4
20
-104.95
11
139.4
21
-105.85
0
LINE
8
Black
10
142.321
20
-103.091
11
142.641
21
-103.275
0
LINE
8
Black
10
142.641
20
-103.275
11
142.878
21
-103.558
0
LINE
8
Black
10
142.878
20
-103.558
11
143.004
21
-103.905
0
LINE
8
Black
10
143.004
20
-103.905
11
143.004
21
-104.275
0
LINE
8
Black
10
143.004
20
-104.275
11
142.878
21
-104.622
0
LINE
8
Black
10
142.878
20
-104.622
11
142.641
21
-104.905
0
LINE
8
Black
10
142.641
20
-104.905
11
142.321
21
-105.089
0
LINE
8
Black
10
142.321
20
-105.089
11
141.957
21
-105.154
0
LINE
8
Black
10
141.957
20
-105.154
11
141.643
21
-105.154
0
LINE
8
Black
10
141.643
20
-105.154
11
141.279
21
-105.089
0
LINE
8
Black
10
141.279
20
-105.089
11
140.959
21
-104.905
0
LINE
8
Black
10
140.959
20
-104.905
11
140.722
21
-104.622
0
LINE
8
Black
10
140.722
20
-104.622
11
140.596
21
-104.275
0
LINE
8
Black
10
140.596
20
-104.275
11
140.596
21
-103.905
0
LINE
8
Black
10
140.596
20
-103.905
11
140.722
21
-103.558
0
LINE
8
Black
10
140.722
20
-103.558
11
140.959
21
-103.275
0
LINE
8
Black
10
140.959
20
-103.275
11
141.279
21
-103.091
0
LINE
8
Black
10
141.279
20
-103.091
11
141.643
21
-103.026
0
LINE
8
Black
10
141.643
20
-103.026
11
141.957
21
-103.026
0
LINE
8
Black
10
141.957
20
-103.026
11
142.321
21
-103.091
0
LINE
8
Black
10
127.071
20
-103.091
11
127.391
21
-103.275
0
LINE
8
Black
10
127.391
20
-103.275
11
127.628
21
-103.558
0
LINE
8
Black
10
127.628
20
-103.558
11
127.754
21
-103.905
0
LINE
8
Black
10
127.754
20
-103.905
11
127.754
21
-104.275
0
LINE
8
Black
10
127.754
20
-104.275
11
127.628
21
-104.622
0
LINE
8
Black
10
127.628
20
-104.622
11
127.391
21
-104.905
0
LINE
8
Black
10
127.391
20
-104.905
11
127.071
21
-105.089
0
LINE
8
Black
10
127.071
20
-105.089
11
126.707
21
-105.154
0
LINE
8
Black
10
126.707
20
-105.154
11
126.393
21
-105.154
0
LINE
8
Black
10
126.393
20
-105.154
11
126.029
21
-105.089
0
LINE
8
Black
10
126.029
20
-105.089
11
125.709
21
-104.905
0
LINE
8
Black
10
125.709
20
-104.905
11
125.472
21
-104.622
0
LINE
8
Black
10
125.472
20
-104.622
11
125.346
21
-104.275
0
LINE
8
Black
10
125.346
20
-104.275
11
125.346
21
-103.905
0
LINE
8
Black
10
125.346
20
-103.905
11
125.472
21
-103.558
0
LINE
8
Black
10
125.472
20
-103.558
11
125.709
21
-103.275
0
LINE
8
Black
10
125.709
20
-103.275
11
126.029
21
-103.091
0
LINE
8
Black
10
126.029
20
-103.091
11
126.393
21
-103.026
0
LINE
8
Black
10
126.393
20
-103.026
11
126.707
21
-103.026
0
LINE
8
Black
10
126.707
20
-103.026
11
127.071
21
-103.091
0
LINE
8
Black
10
131.823
20
-103.83
11
132.01
21
-103.938
0
LINE
8
Black
10
132.01
20
-103.938
11
132.149
21
-104.104
0
LINE
8
Black
10
132.149
20
-104.104
11
132.223
21
-104.307
0
LINE
8
Black
10
132.223
20
-104.307
11
132.223
21
-104.523
0
LINE
8
Black
10
132.223
20
-104.523
11
132.149
21
-104.726
0
LINE
8
Black
10
132.149
20
-104.726
11
132.01
21
-104.892
0
LINE
8
Black
10
132.01
20
-104.892
11
131.823
21
-105
0
LINE
8
Black
10
131.823
20
-105
11
131.61
21
-105.037
0
LINE
8
Black
10
131.61
20
-105.037
11
131.397
21
-105
0
LINE
8
Black
10
131.397
20
-105
11
131.21
21
-104.892
0
LINE
8
Black
10
131.21
20
-104.892
11
131.071
21
-104.726
0
LINE
8
Black
10
131.071
20
-104.726
11
130.997
21
-104.523
0
LINE
8
Black
10
130.997
20
-104.523
11
130.997
21
-104.307
0
LINE
8
Black
10
130.997
20
-104.307
11
131.071
21
-104.104
0
LINE
8
Black
10
131.071
20
-104.104
11
131.21
21
-103.938
0
LINE
8
Black
10
131.21
20
-103.938
11
131.397
21
-103.83
0
LINE
8
Black
10
131.397
20
-103.83
11
131.61
21
-103.793
0
LINE
8
Black
10
131.61
20
-103.793
11
131.823
21
-103.83
0
LINE
8
Black
10
133.093
20
-103.83
11
133.28
21
-103.938
0
LINE
8
Black
10
133.28
20
-103.938
11
133.419
21
-104.104
0
LINE
8
Black
10
133.419
20
-104.104
11
133.493
21
-104.307
0
LINE
8
Black
10
133.493
20
-104.307
11
133.493
21
-104.523
0
LINE
8
Black
10
133.493
20
-104.523
11
133.419
21
-104.726
0
LINE
8
Black
10
133.419
20
-104.726
11
133.28
21
-104.892
0
LINE
8
Black
10
133.28
20
-104.892
11
133.093
21
-105
0
LINE
8
Black
10
133.093
20
-105
11
132.88
21
-105.037
0
LINE
8
Black
10
132.88
20
-105.037
11
132.667
21
-105
0
LINE
8
Black
10
132.667
20
-105
11
132.48
21
-104.892
0
LINE
8
Black
10
132.48
20
-104.892
11
132.341
21
-104.726
0
LINE
8
Black
10
132.341
20
-104.726
11
132.267
21
-104.523
0
LINE
8
Black
10
132.267
20
-104.523
11
132.267
21
-104.307
0
LINE
8
Black
10
132.267
20
-104.307
11
132.341
21
-104.104
0
LINE
8
Black
10
132.341
20
-104.104
11
132.48
21
-103.938
0
LINE
8
Black
10
132.48
20
-103.938
11
132.667
21
-103.83
0
LINE
8
Black
10
132.667
20
-103.83
11
132.88
21
-103.793
0
LINE
8
Black
10
132.88
20
-103.793
11
133.093
21
-103.83
0
LINE
8
Black
10
134.363
20
-103.83
11
134.55
21
-103.938
0
LINE
8
Black
10
134.55
20
-103.938
11
134.689
21
-104.104
0
LINE
8
Black
10
134.689
20
-104.104
11
134.763
21
-104.307
0
LINE
8
Black
10
134.763
20
-104.307
11
134.763
21
-104.523
0
LINE
8
Black
10
134.763
20
-104.523
11
134.689
21
-104.726
0
LINE
8
Black
10
134.689
20
-104.726
11
134.55
21
-104.892
0
LINE
8
Black
10
134.55
20
-104.892
11
134.363
21
-105
0
LINE
8
Black
10
134.363
20
-105
11
134.15
21
-105.037
0
LINE
8
Black
10
134.15
20
-105.037
11
133.937
21
-105
0
LINE
8
Black
10
133.937
20
-105
11
133.75
21
-104.892
0
LINE
8
Black
10
133.75
20
-104.892
11
133.611
21
-104.726
0
LINE
8
Black
10
133.611
20
-104.726
11
133.537
21
-104.523
0
LINE
8
Black
10
133.537
20
-104.523
11
133.537
21
-104.307
0
LINE
8
Black
10
133.537
20
-104.307
11
133.611
21
-104.104
0
LINE
8
Black
10
133.611
20
-104.104
11
133.75
21
-103.938
0
LINE
8
Black
10
133.75
20
-103.938
11
133.937
21
-103.83
0
LINE
8
Black
10
133.937
20
-103.83
11
134.15
21
-103.793
0
LINE
8
Black
10
134.15
20
-103.793
11
134.363
21
-103.83
0
LINE
8
Black
10
135.633
20
-103.83
11
135.82
21
-103.938
0
LINE
8
Black
10
135.82
20
-103.938
11
135.959
21
-104.104
0
LINE
8
Black
10
135.959
20
-104.104
11
136.033
21
-104.307
0
LINE
8
Black
10
136.033
20
-104.307
11
136.033
21
-104.523
0
LINE
8
Black
10
136.033
20
-104.523
11
135.959
21
-104.726
0
LINE
8
Black
10
135.959
20
-104.726
11
135.82
21
-104.892
0
LINE
8
Black
10
135.82
20
-104.892
11
135.633
21
-105
0
LINE
8
Black
10
135.633
20
-105
11
135.42
21
-105.037
0
LINE
8
Black
10
135.42
20
-105.037
11
135.207
21
-105
0
LINE
8
Black
10
135.207
20
-105
11
135.02
21
-104.892
0
LINE
8
Black
10
135.02
20
-104.892
11
134.881
21
-104.726
0
LINE
8
Black
10
134.881
20
-104.726
11
134.807
21
-104.523
0
LINE
8
Black
10
134.807
20
-104.523
11
134.807
21
-104.307
0
LINE
8
Black
10
134.807
20
-104.307
11
134.881
21
-104.104
0
LINE
8
Black
10
134.881
20
-104.104
11
135.02
21
-103.938
0
LINE
8
Black
10
135.02
20
-103.938
11
135.207
21
-103.83
0
LINE
8
Black
10
135.207
20
-103.83
11
135.42
21
-103.793
0
LINE
8
Black
10
135.42
20
-103.793
11
135.633
21
-103.83
0
LINE
8
Black
10
136.903
20
-103.83
11
137.09
21
-103.938
0
LINE
8
Black
10
137.09
20
-103.938
11
137.229
21
-104.104
0
LINE
8
Black
10
137.229
20
-104.104
11
137.303
21
-104.307
0
LINE
8
Black
10
137.303
20
-104.307
11
137.303
21
-104.523
0
LINE
8
Black
10
137.303
20
-104.523
11
137.229
21
-104.726
0
LINE
8
Black
10
137.229
20
-104.726
11
137.09
21
-104.892
0
LINE
8
Black
10
137.09
20
-104.892
11
136.903
21
-105
0
LINE
8
Black
10
136.903
20
-105
11
136.69
21
-105.037
0
LINE
8
Black
10
136.69
20
-105.037
11
136.477
21
-105
0
LINE
8
Black
10
136.477
20
-105
11
136.29
21
-104.892
0
LINE
8
Black
10
136.29
20
-104.892
11
136.151
21
-104.726
0
LINE
8
Black
10
136.151
20
-104.726
11
136.077
21
-104.523
0
LINE
8
Black
10
136.077
20
-104.523
11
136.077
21
-104.307
0
LINE
8
Black
10
136.077
20
-104.307
11
136.151
21
-104.104
0
LINE
8
Black
10
136.151
20
-104.104
11
136.29
21
-103.938
0
LINE
8
Black
10
136.29
20
-103.938
11
136.477
21
-103.83
0
LINE
8
Black
10
136.477
20
-103.83
11
136.69
21
-103.793
0
LINE
8
Black
10
136.69
20
-103.793
11
136.903
21
-103.83
0
LINE
8
Black
10
139.4
20
-104.35
11
138.1
21
-104.35
0
LINE
8
Black
10
138.1
20
-104.35
11
138.1
21
-103.45
0
LINE
8
Black
10
138.1
20
-103.45
11
139.4
21
-103.45
0
LINE
8
Black
10
139.4
20
-103.45
11
139.4
21
-104.35
0
LINE
8
Black
10
130.25
20
-104.35
11
128.95
21
-104.35
0
LINE
8
Black
10
128.95
20
-104.35
11
128.95
21
-103.45
0
LINE
8
Black
10
128.95
20
-103.45
11
130.25
21
-103.45
0
LINE
8
Black
10
130.25
20
-103.45
11
130.25
21
-104.35
0
LINE
8
Black
10
139.753
20
-102.617
11
139.844
21
-102.669
0
LINE
8
Black
10
139.844
20
-102.669
11
139.911
21
-102.749
0
LINE
8
Black
10
139.911
20
-102.749
11
139.947
21
-102.848
0
LINE
8
Black
10
139.947
20
-102.848
11
139.947
21
-102.952
0
LINE
8
Black
10
139.947
20
-102.952
11
139.911
21
-103.051
0
LINE
8
Black
10
139.911
20
-103.051
11
139.844
21
-103.131
0
LINE
8
Black
10
139.844
20
-103.131
11
139.753
21
-103.183
0
LINE
8
Black
10
139.753
20
-103.183
11
139.65
21
-103.201
0
LINE
8
Black
10
139.65
20
-103.201
11
139.547
21
-103.183
0
LINE
8
Black
10
139.547
20
-103.183
11
139.456
21
-103.131
0
LINE
8
Black
10
139.456
20
-103.131
11
139.389
21
-103.051
0
LINE
8
Black
10
139.389
20
-103.051
11
139.353
21
-102.952
0
LINE
8
Black
10
139.353
20
-102.952
11
139.353
21
-102.848
0
LINE
8
Black
10
139.353
20
-102.848
11
139.389
21
-102.749
0
LINE
8
Black
10
139.389
20
-102.749
11
139.456
21
-102.669
0
LINE
8
Black
10
139.456
20
-102.669
11
139.547
21
-102.617
0
LINE
8
Black
10
139.547
20
-102.617
11
139.65
21
-102.599
0
LINE
8
Black
10
139.65
20
-102.599
11
139.753
21
-102.617
0
LINE
8
Black
10
134.682
20
-100.472
11
134.965
21
-100.709
0
LINE
8
Black
10
134.965
20
-100.709
11
135.149
21
-101.029
0
LINE
8
Black
10
135.149
20
-101.029
11
135.214
21
-101.393
0
LINE
8
Black
10
135.214
20
-101.393
11
135.214
21
-101.707
0
LINE
8
Black
10
135.214
20
-101.707
11
135.149
21
-102.071
0
LINE
8
Black
10
135.149
20
-102.071
11
134.965
21
-102.391
0
LINE
8
Black
10
134.965
20
-102.391
11
134.682
21
-102.628
0
LINE
8
Black
10
134.682
20
-102.628
11
134.335
21
-102.754
0
LINE
8
Black
10
134.335
20
-102.754
11
133.965
21
-102.754
0
LINE
8
Black
10
133.965
20
-102.754
11
133.618
21
-102.628
0
LINE
8
Black
10
133.618
20
-102.628
11
133.335
21
-102.391
0
LINE
8
Black
10
133.335
20
-102.391
11
133.151
21
-102.071
0
LINE
8
Black
10
133.151
20
-102.071
11
133.086
21
-101.707
0
LINE
8
Black
10
133.086
20
-101.707
11
133.086
21
-101.393
0
LINE
8
Black
10
133.086
20
-101.393
11
133.151
21
-101.029
0
LINE
8
Black
10
133.151
20
-101.029
11
133.335
21
-100.709
0
LINE
8
Black
10
133.335
20
-100.709
11
133.618
21
-100.472
0
LINE
8
Black
10
133.618
20
-100.472
11
133.965
21
-100.346
0
LINE
8
Black
10
133.965
20
-100.346
11
134.335
21
-100.346
0
LINE
8
Black
10
134.335
20
-100.346
11
134.682
21
-100.472
0
LINE
8
Black
10
132.142
20
-100.472
11
132.425
21
-100.709
0
LINE
8
Black
10
132.425
20
-100.709
11
132.609
21
-101.029
0
LINE
8
Black
10
132.609
20
-101.029
11
132.674
21
-101.393
0
LINE
8
Black
10
132.674
20
-101.393
11
132.674
21
-101.707
0
LINE
8
Black
10
132.674
20
-101.707
11
132.609
21
-102.071
0
LINE
8
Black
10
132.609
20
-102.071
11
132.425
21
-102.391
0
LINE
8
Black
10
132.425
20
-102.391
11
132.142
21
-102.628
0
LINE
8
Black
10
132.142
20
-102.628
11
131.795
21
-102.754
0
LINE
8
Black
10
131.795
20
-102.754
11
131.425
21
-102.754
0
LINE
8
Black
10
131.425
20
-102.754
11
131.078
21
-102.628
0
LINE
8
Black
10
131.078
20
-102.628
11
130.795
21
-102.391
0
LINE
8
Black
10
130.795
20
-102.391
11
130.611
21
-102.071
0
LINE
8
Black
10
130.611
20
-102.071
11
130.546
21
-101.707
0
LINE
8
Black
10
130.546
20
-101.707
11
130.546
21
-101.393
0
LINE
8
Black
10
130.546
20
-101.393
11
130.611
21
-101.029
0
LINE
8
Black
10
130.611
20
-101.029
11
130.795
21
-100.709
0
LINE
8
Black
10
130.795
20
-100.709
11
131.078
21
-100.472
0
LINE
8
Black
10
131.078
20
-100.472
11
131.425
21
-100.346
0
LINE
8
Black
10
131.425
20
-100.346
11
131.795
21
-100.346
0
LINE
8
Black
10
131.795
20
-100.346
11
132.142
21
-100.472
0
LINE
8
Black
10
137.222
20
-100.472
11
137.505
21
-100.709
0
LINE
8
Black
10
137.505
20
-100.709
11
137.689
21
-101.029
0
LINE
8
Black
10
137.689
20
-101.029
11
137.754
21
-101.393
0
LINE
8
Black
10
137.754
20
-101.393
11
137.754
21
-101.707
0
LINE
8
Black
10
137.754
20
-101.707
11
137.689
21
-102.071
0
LINE
8
Black
10
137.689
20
-102.071
11
137.505
21
-102.391
0
LINE
8
Black
10
137.505
20
-102.391
11
137.222
21
-102.628
0
LINE
8
Black
10
137.222
20
-102.628
11
136.875
21
-102.754
0
LINE
8
Black
10
136.875
20
-102.754
11
136.505
21
-102.754
0
LINE
8
Black
10
136.505
20
-102.754
11
136.158
21
-102.628
0
LINE
8
Black
10
136.158
20
-102.628
11
135.875
21
-102.391
0
LINE
8
Black
10
135.875
20
-102.391
11
135.691
21
-102.071
0
LINE
8
Black
10
135.691
20
-102.071
11
135.626
21
-101.707
0
LINE
8
Black
10
135.626
20
-101.707
11
135.626
21
-101.393
0
LINE
8
Black
10
135.626
20
-101.393
11
135.691
21
-101.029
0
LINE
8
Black
10
135.691
20
-101.029
11
135.875
21
-100.709
0
LINE
8
Black
10
135.875
20
-100.709
11
136.158
21
-100.472
0
LINE
8
Black
10
136.158
20
-100.472
11
136.505
21
-100.346
0
LINE
8
Black
10
136.505
20
-100.346
11
136.875
21
-100.346
0
LINE
8
Black
10
136.875
20
-100.346
11
137.222
21
-100.472
0
LINE
8
Black
10
142.314
20
-100.563
11
142.63
21
-100.746
0
LINE
8
Black
10
142.63
20
-100.746
11
142.864
21
-101.025
0
LINE
8
Black
10
142.864
20
-101.025
11
142.989
21
-101.368
0
LINE
8
Black
10
142.989
20
-101.368
11
142.989
21
-101.732
0
LINE
8
Black
10
142.989
20
-101.732
11
142.864
21
-102.075
0
LINE
8
Black
10
142.864
20
-102.075
11
142.63
21
-102.354
0
LINE
8
Black
10
142.63
20
-102.354
11
142.314
21
-102.537
0
LINE
8
Black
10
142.314
20
-102.537
11
141.955
21
-102.6
0
LINE
8
Black
10
141.955
20
-102.6
11
141.645
21
-102.6
0
LINE
8
Black
10
141.645
20
-102.6
11
141.286
21
-102.537
0
LINE
8
Black
10
141.286
20
-102.537
11
140.97
21
-102.354
0
LINE
8
Black
10
140.97
20
-102.354
11
140.736
21
-102.075
0
LINE
8
Black
10
140.736
20
-102.075
11
140.611
21
-101.732
0
LINE
8
Black
10
140.611
20
-101.732
11
140.611
21
-101.368
0
LINE
8
Black
10
140.611
20
-101.368
11
140.736
21
-101.025
0
LINE
8
Black
10
140.736
20
-101.025
11
140.97
21
-100.746
0
LINE
8
Black
10
140.97
20
-100.746
11
141.286
21
-100.563
0
LINE
8
Black
10
141.286
20
-100.563
11
141.645
21
-100.5
0
LINE
8
Black
10
141.645
20
-100.5
11
141.955
21
-100.5
0
LINE
8
Black
10
141.955
20
-100.5
11
142.314
21
-100.563
0
LINE
8
Black
10
127.064
20
-100.563
11
127.38
21
-100.746
0
LINE
8
Black
10
127.38
20
-100.746
11
127.614
21
-101.025
0
LINE
8
Black
10
127.614
20
-101.025
11
127.739
21
-101.368
0
LINE
8
Black
10
127.739
20
-101.368
11
127.739
21
-101.732
0
LINE
8
Black
10
127.739
20
-101.732
11
127.614
21
-102.075
0
LINE
8
Black
10
127.614
20
-102.075
11
127.38
21
-102.354
0
LINE
8
Black
10
127.38
20
-102.354
11
127.064
21
-102.537
0
LINE
8
Black
10
127.064
20
-102.537
11
126.705
21
-102.6
0
LINE
8
Black
10
126.705
20
-102.6
11
126.395
21
-102.6
0
LINE
8
Black
10
126.395
20
-102.6
11
126.036
21
-102.537
0
LINE
8
Black
10
126.036
20
-102.537
11
125.72
21
-102.354
0
LINE
8
Black
10
125.72
20
-102.354
11
125.486
21
-102.075
0
LINE
8
Black
10
125.486
20
-102.075
11
125.361
21
-101.732
0
LINE
8
Black
10
125.361
20
-101.732
11
125.361
21
-101.368
0
LINE
8
Black
10
125.361
20
-101.368
11
125.486
21
-101.025
0
LINE
8
Black
10
125.486
20
-101.025
11
125.72
21
-100.746
0
LINE
8
Black
10
125.72
20
-100.746
11
126.036
21
-100.563
0
LINE
8
Black
10
126.036
20
-100.563
11
126.395
21
-100.5
0
LINE
8
Black
10
126.395
20
-100.5
11
126.705
21
-100.5
0
LINE
8
Black
10
126.705
20
-100.5
11
127.064
21
-100.563
  0
ENDSEC
  0
EOF
