G04 #@! TF.GenerationSoftware,KiCad,Pcbnew,5.1.6-c6e7f7d~86~ubuntu18.04.1*
G04 #@! TF.CreationDate,2020-06-07T15:31:20-07:00*
G04 #@! TF.ProjectId,Empyrean,456d7079-7265-4616-9e2e-6b696361645f,A*
G04 #@! TF.SameCoordinates,Original*
G04 #@! TF.FileFunction,Legend,Top*
G04 #@! TF.FilePolarity,Positive*
%FSLAX46Y46*%
G04 Gerber Fmt 4.6, Leading zero omitted, Abs format (unit mm)*
G04 Created by KiCad (PCBNEW 5.1.6-c6e7f7d~86~ubuntu18.04.1) date 2020-06-07 15:31:20*
%MOMM*%
%LPD*%
G01*
G04 APERTURE LIST*
%ADD10C,0.100000*%
%ADD11C,0.120000*%
%ADD12C,0.119380*%
%ADD13C,0.150000*%
%ADD14C,0.127000*%
%ADD15C,0.002540*%
G04 APERTURE END LIST*
D10*
X130716666Y-102650000D02*
X130016666Y-102650000D01*
X130516666Y-102416666D01*
X130016666Y-102183333D01*
X130716666Y-102183333D01*
X130016666Y-101716666D02*
X130016666Y-101583333D01*
X130050000Y-101516666D01*
X130116666Y-101450000D01*
X130250000Y-101416666D01*
X130483333Y-101416666D01*
X130616666Y-101450000D01*
X130683333Y-101516666D01*
X130716666Y-101583333D01*
X130716666Y-101716666D01*
X130683333Y-101783333D01*
X130616666Y-101850000D01*
X130483333Y-101883333D01*
X130250000Y-101883333D01*
X130116666Y-101850000D01*
X130050000Y-101783333D01*
X130016666Y-101716666D01*
X130683333Y-101150000D02*
X130716666Y-101050000D01*
X130716666Y-100883333D01*
X130683333Y-100816666D01*
X130650000Y-100783333D01*
X130583333Y-100750000D01*
X130516666Y-100750000D01*
X130450000Y-100783333D01*
X130416666Y-100816666D01*
X130383333Y-100883333D01*
X130350000Y-101016666D01*
X130316666Y-101083333D01*
X130283333Y-101116666D01*
X130216666Y-101150000D01*
X130150000Y-101150000D01*
X130083333Y-101116666D01*
X130050000Y-101083333D01*
X130016666Y-101016666D01*
X130016666Y-100850000D01*
X130050000Y-100750000D01*
X130716666Y-100450000D02*
X130016666Y-100450000D01*
X133216666Y-102700000D02*
X132516666Y-102700000D01*
X133016666Y-102466666D01*
X132516666Y-102233333D01*
X133216666Y-102233333D01*
X133216666Y-101900000D02*
X132516666Y-101900000D01*
X133183333Y-101600000D02*
X133216666Y-101500000D01*
X133216666Y-101333333D01*
X133183333Y-101266666D01*
X133150000Y-101233333D01*
X133083333Y-101200000D01*
X133016666Y-101200000D01*
X132950000Y-101233333D01*
X132916666Y-101266666D01*
X132883333Y-101333333D01*
X132850000Y-101466666D01*
X132816666Y-101533333D01*
X132783333Y-101566666D01*
X132716666Y-101600000D01*
X132650000Y-101600000D01*
X132583333Y-101566666D01*
X132550000Y-101533333D01*
X132516666Y-101466666D01*
X132516666Y-101300000D01*
X132550000Y-101200000D01*
X132516666Y-100766666D02*
X132516666Y-100633333D01*
X132550000Y-100566666D01*
X132616666Y-100500000D01*
X132750000Y-100466666D01*
X132983333Y-100466666D01*
X133116666Y-100500000D01*
X133183333Y-100566666D01*
X133216666Y-100633333D01*
X133216666Y-100766666D01*
X133183333Y-100833333D01*
X133116666Y-100900000D01*
X132983333Y-100933333D01*
X132750000Y-100933333D01*
X132616666Y-100900000D01*
X132550000Y-100833333D01*
X132516666Y-100766666D01*
X135733333Y-102500000D02*
X135766666Y-102400000D01*
X135766666Y-102233333D01*
X135733333Y-102166666D01*
X135700000Y-102133333D01*
X135633333Y-102100000D01*
X135566666Y-102100000D01*
X135500000Y-102133333D01*
X135466666Y-102166666D01*
X135433333Y-102233333D01*
X135400000Y-102366666D01*
X135366666Y-102433333D01*
X135333333Y-102466666D01*
X135266666Y-102500000D01*
X135200000Y-102500000D01*
X135133333Y-102466666D01*
X135100000Y-102433333D01*
X135066666Y-102366666D01*
X135066666Y-102200000D01*
X135100000Y-102100000D01*
X135700000Y-101400000D02*
X135733333Y-101433333D01*
X135766666Y-101533333D01*
X135766666Y-101600000D01*
X135733333Y-101700000D01*
X135666666Y-101766666D01*
X135600000Y-101800000D01*
X135466666Y-101833333D01*
X135366666Y-101833333D01*
X135233333Y-101800000D01*
X135166666Y-101766666D01*
X135100000Y-101700000D01*
X135066666Y-101600000D01*
X135066666Y-101533333D01*
X135100000Y-101433333D01*
X135133333Y-101400000D01*
X135766666Y-101100000D02*
X135066666Y-101100000D01*
X135766666Y-100700000D02*
X135366666Y-101000000D01*
X135066666Y-100700000D02*
X135466666Y-101100000D01*
X141400000Y-139621428D02*
X141400000Y-139021428D01*
X141628571Y-139021428D01*
X141685714Y-139050000D01*
X141714285Y-139078571D01*
X141742857Y-139135714D01*
X141742857Y-139221428D01*
X141714285Y-139278571D01*
X141685714Y-139307142D01*
X141628571Y-139335714D01*
X141400000Y-139335714D01*
X141942857Y-139021428D02*
X142085714Y-139621428D01*
X142200000Y-139192857D01*
X142314285Y-139621428D01*
X142457142Y-139021428D01*
X143028571Y-139621428D02*
X142828571Y-139335714D01*
X142685714Y-139621428D02*
X142685714Y-139021428D01*
X142914285Y-139021428D01*
X142971428Y-139050000D01*
X143000000Y-139078571D01*
X143028571Y-139135714D01*
X143028571Y-139221428D01*
X143000000Y-139278571D01*
X142971428Y-139307142D01*
X142914285Y-139335714D01*
X142685714Y-139335714D01*
X140666666Y-137516666D02*
X139966666Y-137516666D01*
X139966666Y-137350000D01*
X140000000Y-137250000D01*
X140066666Y-137183333D01*
X140133333Y-137150000D01*
X140266666Y-137116666D01*
X140366666Y-137116666D01*
X140500000Y-137150000D01*
X140566666Y-137183333D01*
X140633333Y-137250000D01*
X140666666Y-137350000D01*
X140666666Y-137516666D01*
X140033333Y-136850000D02*
X140000000Y-136816666D01*
X139966666Y-136750000D01*
X139966666Y-136583333D01*
X140000000Y-136516666D01*
X140033333Y-136483333D01*
X140100000Y-136450000D01*
X140166666Y-136450000D01*
X140266666Y-136483333D01*
X140666666Y-136883333D01*
X140666666Y-136450000D01*
X140666666Y-135066666D02*
X139966666Y-135066666D01*
X139966666Y-134900000D01*
X140000000Y-134800000D01*
X140066666Y-134733333D01*
X140133333Y-134700000D01*
X140266666Y-134666666D01*
X140366666Y-134666666D01*
X140500000Y-134700000D01*
X140566666Y-134733333D01*
X140633333Y-134800000D01*
X140666666Y-134900000D01*
X140666666Y-135066666D01*
X139966666Y-134433333D02*
X139966666Y-134000000D01*
X140233333Y-134233333D01*
X140233333Y-134133333D01*
X140266666Y-134066666D01*
X140300000Y-134033333D01*
X140366666Y-134000000D01*
X140533333Y-134000000D01*
X140600000Y-134033333D01*
X140633333Y-134066666D01*
X140666666Y-134133333D01*
X140666666Y-134333333D01*
X140633333Y-134400000D01*
X140600000Y-134433333D01*
X140666666Y-132566666D02*
X139966666Y-132566666D01*
X139966666Y-132400000D01*
X140000000Y-132300000D01*
X140066666Y-132233333D01*
X140133333Y-132200000D01*
X140266666Y-132166666D01*
X140366666Y-132166666D01*
X140500000Y-132200000D01*
X140566666Y-132233333D01*
X140633333Y-132300000D01*
X140666666Y-132400000D01*
X140666666Y-132566666D01*
X140200000Y-131566666D02*
X140666666Y-131566666D01*
X139933333Y-131733333D02*
X140433333Y-131900000D01*
X140433333Y-131466666D01*
X140666666Y-130016666D02*
X139966666Y-130016666D01*
X139966666Y-129850000D01*
X140000000Y-129750000D01*
X140066666Y-129683333D01*
X140133333Y-129650000D01*
X140266666Y-129616666D01*
X140366666Y-129616666D01*
X140500000Y-129650000D01*
X140566666Y-129683333D01*
X140633333Y-129750000D01*
X140666666Y-129850000D01*
X140666666Y-130016666D01*
X139966666Y-128983333D02*
X139966666Y-129316666D01*
X140300000Y-129350000D01*
X140266666Y-129316666D01*
X140233333Y-129250000D01*
X140233333Y-129083333D01*
X140266666Y-129016666D01*
X140300000Y-128983333D01*
X140366666Y-128950000D01*
X140533333Y-128950000D01*
X140600000Y-128983333D01*
X140633333Y-129016666D01*
X140666666Y-129083333D01*
X140666666Y-129250000D01*
X140633333Y-129316666D01*
X140600000Y-129350000D01*
X140666666Y-127466666D02*
X139966666Y-127466666D01*
X139966666Y-127300000D01*
X140000000Y-127200000D01*
X140066666Y-127133333D01*
X140133333Y-127100000D01*
X140266666Y-127066666D01*
X140366666Y-127066666D01*
X140500000Y-127100000D01*
X140566666Y-127133333D01*
X140633333Y-127200000D01*
X140666666Y-127300000D01*
X140666666Y-127466666D01*
X139966666Y-126466666D02*
X139966666Y-126600000D01*
X140000000Y-126666666D01*
X140033333Y-126700000D01*
X140133333Y-126766666D01*
X140266666Y-126800000D01*
X140533333Y-126800000D01*
X140600000Y-126766666D01*
X140633333Y-126733333D01*
X140666666Y-126666666D01*
X140666666Y-126533333D01*
X140633333Y-126466666D01*
X140600000Y-126433333D01*
X140533333Y-126400000D01*
X140366666Y-126400000D01*
X140300000Y-126433333D01*
X140266666Y-126466666D01*
X140233333Y-126533333D01*
X140233333Y-126666666D01*
X140266666Y-126733333D01*
X140300000Y-126766666D01*
X140366666Y-126800000D01*
X140666666Y-124966666D02*
X139966666Y-124966666D01*
X139966666Y-124800000D01*
X140000000Y-124700000D01*
X140066666Y-124633333D01*
X140133333Y-124600000D01*
X140266666Y-124566666D01*
X140366666Y-124566666D01*
X140500000Y-124600000D01*
X140566666Y-124633333D01*
X140633333Y-124700000D01*
X140666666Y-124800000D01*
X140666666Y-124966666D01*
X139966666Y-124333333D02*
X139966666Y-123866666D01*
X140666666Y-124166666D01*
X140666666Y-122466666D02*
X139966666Y-122466666D01*
X139966666Y-122300000D01*
X140000000Y-122200000D01*
X140066666Y-122133333D01*
X140133333Y-122100000D01*
X140266666Y-122066666D01*
X140366666Y-122066666D01*
X140500000Y-122100000D01*
X140566666Y-122133333D01*
X140633333Y-122200000D01*
X140666666Y-122300000D01*
X140666666Y-122466666D01*
X140266666Y-121666666D02*
X140233333Y-121733333D01*
X140200000Y-121766666D01*
X140133333Y-121800000D01*
X140100000Y-121800000D01*
X140033333Y-121766666D01*
X140000000Y-121733333D01*
X139966666Y-121666666D01*
X139966666Y-121533333D01*
X140000000Y-121466666D01*
X140033333Y-121433333D01*
X140100000Y-121400000D01*
X140133333Y-121400000D01*
X140200000Y-121433333D01*
X140233333Y-121466666D01*
X140266666Y-121533333D01*
X140266666Y-121666666D01*
X140300000Y-121733333D01*
X140333333Y-121766666D01*
X140400000Y-121800000D01*
X140533333Y-121800000D01*
X140600000Y-121766666D01*
X140633333Y-121733333D01*
X140666666Y-121666666D01*
X140666666Y-121533333D01*
X140633333Y-121466666D01*
X140600000Y-121433333D01*
X140533333Y-121400000D01*
X140400000Y-121400000D01*
X140333333Y-121433333D01*
X140300000Y-121466666D01*
X140266666Y-121533333D01*
X140666666Y-119816666D02*
X139966666Y-119816666D01*
X139966666Y-119650000D01*
X140000000Y-119550000D01*
X140066666Y-119483333D01*
X140133333Y-119450000D01*
X140266666Y-119416666D01*
X140366666Y-119416666D01*
X140500000Y-119450000D01*
X140566666Y-119483333D01*
X140633333Y-119550000D01*
X140666666Y-119650000D01*
X140666666Y-119816666D01*
X140666666Y-119083333D02*
X140666666Y-118950000D01*
X140633333Y-118883333D01*
X140600000Y-118850000D01*
X140500000Y-118783333D01*
X140366666Y-118750000D01*
X140100000Y-118750000D01*
X140033333Y-118783333D01*
X140000000Y-118816666D01*
X139966666Y-118883333D01*
X139966666Y-119016666D01*
X140000000Y-119083333D01*
X140033333Y-119116666D01*
X140100000Y-119150000D01*
X140266666Y-119150000D01*
X140333333Y-119116666D01*
X140366666Y-119083333D01*
X140400000Y-119016666D01*
X140400000Y-118883333D01*
X140366666Y-118816666D01*
X140333333Y-118783333D01*
X140266666Y-118750000D01*
X140666666Y-117650000D02*
X139966666Y-117650000D01*
X139966666Y-117483333D01*
X140000000Y-117383333D01*
X140066666Y-117316666D01*
X140133333Y-117283333D01*
X140266666Y-117250000D01*
X140366666Y-117250000D01*
X140500000Y-117283333D01*
X140566666Y-117316666D01*
X140633333Y-117383333D01*
X140666666Y-117483333D01*
X140666666Y-117650000D01*
X140666666Y-116583333D02*
X140666666Y-116983333D01*
X140666666Y-116783333D02*
X139966666Y-116783333D01*
X140066666Y-116850000D01*
X140133333Y-116916666D01*
X140166666Y-116983333D01*
X139966666Y-116150000D02*
X139966666Y-116083333D01*
X140000000Y-116016666D01*
X140033333Y-115983333D01*
X140100000Y-115950000D01*
X140233333Y-115916666D01*
X140400000Y-115916666D01*
X140533333Y-115950000D01*
X140600000Y-115983333D01*
X140633333Y-116016666D01*
X140666666Y-116083333D01*
X140666666Y-116150000D01*
X140633333Y-116216666D01*
X140600000Y-116250000D01*
X140533333Y-116283333D01*
X140400000Y-116316666D01*
X140233333Y-116316666D01*
X140100000Y-116283333D01*
X140033333Y-116250000D01*
X140000000Y-116216666D01*
X139966666Y-116150000D01*
X140666666Y-115100000D02*
X139966666Y-115100000D01*
X139966666Y-114933333D01*
X140000000Y-114833333D01*
X140066666Y-114766666D01*
X140133333Y-114733333D01*
X140266666Y-114700000D01*
X140366666Y-114700000D01*
X140500000Y-114733333D01*
X140566666Y-114766666D01*
X140633333Y-114833333D01*
X140666666Y-114933333D01*
X140666666Y-115100000D01*
X140666666Y-114033333D02*
X140666666Y-114433333D01*
X140666666Y-114233333D02*
X139966666Y-114233333D01*
X140066666Y-114300000D01*
X140133333Y-114366666D01*
X140166666Y-114433333D01*
X140666666Y-113366666D02*
X140666666Y-113766666D01*
X140666666Y-113566666D02*
X139966666Y-113566666D01*
X140066666Y-113633333D01*
X140133333Y-113700000D01*
X140166666Y-113766666D01*
X140666666Y-112550000D02*
X139966666Y-112550000D01*
X139966666Y-112383333D01*
X140000000Y-112283333D01*
X140066666Y-112216666D01*
X140133333Y-112183333D01*
X140266666Y-112150000D01*
X140366666Y-112150000D01*
X140500000Y-112183333D01*
X140566666Y-112216666D01*
X140633333Y-112283333D01*
X140666666Y-112383333D01*
X140666666Y-112550000D01*
X140666666Y-111483333D02*
X140666666Y-111883333D01*
X140666666Y-111683333D02*
X139966666Y-111683333D01*
X140066666Y-111750000D01*
X140133333Y-111816666D01*
X140166666Y-111883333D01*
X140033333Y-111216666D02*
X140000000Y-111183333D01*
X139966666Y-111116666D01*
X139966666Y-110950000D01*
X140000000Y-110883333D01*
X140033333Y-110850000D01*
X140100000Y-110816666D01*
X140166666Y-110816666D01*
X140266666Y-110850000D01*
X140666666Y-111250000D01*
X140666666Y-110816666D01*
X140666666Y-110000000D02*
X139966666Y-110000000D01*
X139966666Y-109833333D01*
X140000000Y-109733333D01*
X140066666Y-109666666D01*
X140133333Y-109633333D01*
X140266666Y-109600000D01*
X140366666Y-109600000D01*
X140500000Y-109633333D01*
X140566666Y-109666666D01*
X140633333Y-109733333D01*
X140666666Y-109833333D01*
X140666666Y-110000000D01*
X140666666Y-108933333D02*
X140666666Y-109333333D01*
X140666666Y-109133333D02*
X139966666Y-109133333D01*
X140066666Y-109200000D01*
X140133333Y-109266666D01*
X140166666Y-109333333D01*
X139966666Y-108700000D02*
X139966666Y-108266666D01*
X140233333Y-108500000D01*
X140233333Y-108400000D01*
X140266666Y-108333333D01*
X140300000Y-108300000D01*
X140366666Y-108266666D01*
X140533333Y-108266666D01*
X140600000Y-108300000D01*
X140633333Y-108333333D01*
X140666666Y-108400000D01*
X140666666Y-108600000D01*
X140633333Y-108666666D01*
X140600000Y-108700000D01*
X140666666Y-106983333D02*
X140333333Y-107216666D01*
X140666666Y-107383333D02*
X139966666Y-107383333D01*
X139966666Y-107116666D01*
X140000000Y-107050000D01*
X140033333Y-107016666D01*
X140100000Y-106983333D01*
X140200000Y-106983333D01*
X140266666Y-107016666D01*
X140300000Y-107050000D01*
X140333333Y-107116666D01*
X140333333Y-107383333D01*
X140633333Y-106716666D02*
X140666666Y-106616666D01*
X140666666Y-106450000D01*
X140633333Y-106383333D01*
X140600000Y-106350000D01*
X140533333Y-106316666D01*
X140466666Y-106316666D01*
X140400000Y-106350000D01*
X140366666Y-106383333D01*
X140333333Y-106450000D01*
X140300000Y-106583333D01*
X140266666Y-106650000D01*
X140233333Y-106683333D01*
X140166666Y-106716666D01*
X140100000Y-106716666D01*
X140033333Y-106683333D01*
X140000000Y-106650000D01*
X139966666Y-106583333D01*
X139966666Y-106416666D01*
X140000000Y-106316666D01*
X139966666Y-106116666D02*
X139966666Y-105716666D01*
X140666666Y-105916666D02*
X139966666Y-105916666D01*
X140000000Y-104583333D02*
X139966666Y-104650000D01*
X139966666Y-104750000D01*
X140000000Y-104850000D01*
X140066666Y-104916666D01*
X140133333Y-104950000D01*
X140266666Y-104983333D01*
X140366666Y-104983333D01*
X140500000Y-104950000D01*
X140566666Y-104916666D01*
X140633333Y-104850000D01*
X140666666Y-104750000D01*
X140666666Y-104683333D01*
X140633333Y-104583333D01*
X140600000Y-104550000D01*
X140366666Y-104550000D01*
X140366666Y-104683333D01*
X140666666Y-104250000D02*
X139966666Y-104250000D01*
X140666666Y-103850000D01*
X139966666Y-103850000D01*
X140666666Y-103516666D02*
X139966666Y-103516666D01*
X139966666Y-103350000D01*
X140000000Y-103250000D01*
X140066666Y-103183333D01*
X140133333Y-103150000D01*
X140266666Y-103116666D01*
X140366666Y-103116666D01*
X140500000Y-103150000D01*
X140566666Y-103183333D01*
X140633333Y-103250000D01*
X140666666Y-103350000D01*
X140666666Y-103516666D01*
X127716666Y-100716666D02*
X127683333Y-100816666D01*
X127683333Y-100983333D01*
X127716666Y-101050000D01*
X127750000Y-101083333D01*
X127816666Y-101116666D01*
X127883333Y-101116666D01*
X127950000Y-101083333D01*
X127983333Y-101050000D01*
X128016666Y-100983333D01*
X128050000Y-100850000D01*
X128083333Y-100783333D01*
X128116666Y-100750000D01*
X128183333Y-100716666D01*
X128250000Y-100716666D01*
X128316666Y-100750000D01*
X128350000Y-100783333D01*
X128383333Y-100850000D01*
X128383333Y-101016666D01*
X128350000Y-101116666D01*
X127750000Y-101816666D02*
X127716666Y-101783333D01*
X127683333Y-101683333D01*
X127683333Y-101616666D01*
X127716666Y-101516666D01*
X127783333Y-101450000D01*
X127850000Y-101416666D01*
X127983333Y-101383333D01*
X128083333Y-101383333D01*
X128216666Y-101416666D01*
X128283333Y-101450000D01*
X128350000Y-101516666D01*
X128383333Y-101616666D01*
X128383333Y-101683333D01*
X128350000Y-101783333D01*
X128316666Y-101816666D01*
X127683333Y-102450000D02*
X127683333Y-102116666D01*
X128383333Y-102116666D01*
X127716666Y-103300000D02*
X127683333Y-103400000D01*
X127683333Y-103566666D01*
X127716666Y-103633333D01*
X127750000Y-103666666D01*
X127816666Y-103700000D01*
X127883333Y-103700000D01*
X127950000Y-103666666D01*
X127983333Y-103633333D01*
X128016666Y-103566666D01*
X128050000Y-103433333D01*
X128083333Y-103366666D01*
X128116666Y-103333333D01*
X128183333Y-103300000D01*
X128250000Y-103300000D01*
X128316666Y-103333333D01*
X128350000Y-103366666D01*
X128383333Y-103433333D01*
X128383333Y-103600000D01*
X128350000Y-103700000D01*
X127683333Y-104000000D02*
X128383333Y-104000000D01*
X128383333Y-104166666D01*
X128350000Y-104266666D01*
X128283333Y-104333333D01*
X128216666Y-104366666D01*
X128083333Y-104400000D01*
X127983333Y-104400000D01*
X127850000Y-104366666D01*
X127783333Y-104333333D01*
X127716666Y-104266666D01*
X127683333Y-104166666D01*
X127683333Y-104000000D01*
X127883333Y-104666666D02*
X127883333Y-105000000D01*
X127683333Y-104600000D02*
X128383333Y-104833333D01*
X127683333Y-105066666D01*
X128383333Y-105366666D02*
X127683333Y-105600000D01*
X128383333Y-105833333D01*
X128383333Y-106066666D02*
X127816666Y-106066666D01*
X127750000Y-106100000D01*
X127716666Y-106133333D01*
X127683333Y-106200000D01*
X127683333Y-106333333D01*
X127716666Y-106400000D01*
X127750000Y-106433333D01*
X127816666Y-106466666D01*
X128383333Y-106466666D01*
X127716666Y-106766666D02*
X127683333Y-106866666D01*
X127683333Y-107033333D01*
X127716666Y-107100000D01*
X127750000Y-107133333D01*
X127816666Y-107166666D01*
X127883333Y-107166666D01*
X127950000Y-107133333D01*
X127983333Y-107100000D01*
X128016666Y-107033333D01*
X128050000Y-106900000D01*
X128083333Y-106833333D01*
X128116666Y-106800000D01*
X128183333Y-106766666D01*
X128250000Y-106766666D01*
X128316666Y-106800000D01*
X128350000Y-106833333D01*
X128383333Y-106900000D01*
X128383333Y-107066666D01*
X128350000Y-107166666D01*
X128050000Y-107700000D02*
X128016666Y-107800000D01*
X127983333Y-107833333D01*
X127916666Y-107866666D01*
X127816666Y-107866666D01*
X127750000Y-107833333D01*
X127716666Y-107800000D01*
X127683333Y-107733333D01*
X127683333Y-107466666D01*
X128383333Y-107466666D01*
X128383333Y-107700000D01*
X128350000Y-107766666D01*
X128316666Y-107800000D01*
X128250000Y-107833333D01*
X128183333Y-107833333D01*
X128116666Y-107800000D01*
X128083333Y-107766666D01*
X128050000Y-107700000D01*
X128050000Y-107466666D01*
X128383333Y-108383333D02*
X127683333Y-108616666D01*
X128383333Y-108850000D01*
X127683333Y-109083333D02*
X128383333Y-109083333D01*
X127683333Y-109416666D02*
X128383333Y-109416666D01*
X127683333Y-109816666D01*
X128383333Y-109816666D01*
X128383333Y-110716666D02*
X128383333Y-111150000D01*
X128116666Y-110916666D01*
X128116666Y-111016666D01*
X128083333Y-111083333D01*
X128050000Y-111116666D01*
X127983333Y-111150000D01*
X127816666Y-111150000D01*
X127750000Y-111116666D01*
X127716666Y-111083333D01*
X127683333Y-111016666D01*
X127683333Y-110816666D01*
X127716666Y-110750000D01*
X127750000Y-110716666D01*
X127750000Y-111450000D02*
X127716666Y-111483333D01*
X127683333Y-111450000D01*
X127716666Y-111416666D01*
X127750000Y-111450000D01*
X127683333Y-111450000D01*
X128383333Y-111716666D02*
X128383333Y-112150000D01*
X128116666Y-111916666D01*
X128116666Y-112016666D01*
X128083333Y-112083333D01*
X128050000Y-112116666D01*
X127983333Y-112150000D01*
X127816666Y-112150000D01*
X127750000Y-112116666D01*
X127716666Y-112083333D01*
X127683333Y-112016666D01*
X127683333Y-111816666D01*
X127716666Y-111750000D01*
X127750000Y-111716666D01*
X128383333Y-112350000D02*
X127683333Y-112583333D01*
X128383333Y-112816666D01*
X128350000Y-113866666D02*
X128383333Y-113800000D01*
X128383333Y-113700000D01*
X128350000Y-113600000D01*
X128283333Y-113533333D01*
X128216666Y-113500000D01*
X128083333Y-113466666D01*
X127983333Y-113466666D01*
X127850000Y-113500000D01*
X127783333Y-113533333D01*
X127716666Y-113600000D01*
X127683333Y-113700000D01*
X127683333Y-113766666D01*
X127716666Y-113866666D01*
X127750000Y-113900000D01*
X127983333Y-113900000D01*
X127983333Y-113766666D01*
X127683333Y-114200000D02*
X128383333Y-114200000D01*
X127683333Y-114600000D01*
X128383333Y-114600000D01*
X127683333Y-114933333D02*
X128383333Y-114933333D01*
X128383333Y-115100000D01*
X128350000Y-115200000D01*
X128283333Y-115266666D01*
X128216666Y-115300000D01*
X128083333Y-115333333D01*
X127983333Y-115333333D01*
X127850000Y-115300000D01*
X127783333Y-115266666D01*
X127716666Y-115200000D01*
X127683333Y-115100000D01*
X127683333Y-114933333D01*
X127883333Y-115766666D02*
X127883333Y-116100000D01*
X127683333Y-115700000D02*
X128383333Y-115933333D01*
X127683333Y-116166666D01*
X127683333Y-116800000D02*
X128016666Y-116566666D01*
X127683333Y-116400000D02*
X128383333Y-116400000D01*
X128383333Y-116666666D01*
X128350000Y-116733333D01*
X128316666Y-116766666D01*
X128250000Y-116800000D01*
X128150000Y-116800000D01*
X128083333Y-116766666D01*
X128050000Y-116733333D01*
X128016666Y-116666666D01*
X128016666Y-116400000D01*
X128050000Y-117100000D02*
X128050000Y-117333333D01*
X127683333Y-117433333D02*
X127683333Y-117100000D01*
X128383333Y-117100000D01*
X128383333Y-117433333D01*
X128050000Y-117966666D02*
X128050000Y-117733333D01*
X127683333Y-117733333D02*
X128383333Y-117733333D01*
X128383333Y-118066666D01*
X127883333Y-118900000D02*
X127883333Y-119233333D01*
X127683333Y-118833333D02*
X128383333Y-119066666D01*
X127683333Y-119300000D01*
X128383333Y-119666666D02*
X128383333Y-119733333D01*
X128350000Y-119800000D01*
X128316666Y-119833333D01*
X128250000Y-119866666D01*
X128116666Y-119900000D01*
X127950000Y-119900000D01*
X127816666Y-119866666D01*
X127750000Y-119833333D01*
X127716666Y-119800000D01*
X127683333Y-119733333D01*
X127683333Y-119666666D01*
X127716666Y-119600000D01*
X127750000Y-119566666D01*
X127816666Y-119533333D01*
X127950000Y-119500000D01*
X128116666Y-119500000D01*
X128250000Y-119533333D01*
X128316666Y-119566666D01*
X128350000Y-119600000D01*
X128383333Y-119666666D01*
X127883333Y-121400000D02*
X127883333Y-121733333D01*
X127683333Y-121333333D02*
X128383333Y-121566666D01*
X127683333Y-121800000D01*
X127683333Y-122400000D02*
X127683333Y-122000000D01*
X127683333Y-122200000D02*
X128383333Y-122200000D01*
X128283333Y-122133333D01*
X128216666Y-122066666D01*
X128183333Y-122000000D01*
X127883333Y-124050000D02*
X127883333Y-124383333D01*
X127683333Y-123983333D02*
X128383333Y-124216666D01*
X127683333Y-124450000D01*
X128316666Y-124650000D02*
X128350000Y-124683333D01*
X128383333Y-124750000D01*
X128383333Y-124916666D01*
X128350000Y-124983333D01*
X128316666Y-125016666D01*
X128250000Y-125050000D01*
X128183333Y-125050000D01*
X128083333Y-125016666D01*
X127683333Y-124616666D01*
X127683333Y-125050000D01*
X127883333Y-126550000D02*
X127883333Y-126883333D01*
X127683333Y-126483333D02*
X128383333Y-126716666D01*
X127683333Y-126950000D01*
X128383333Y-127116666D02*
X128383333Y-127550000D01*
X128116666Y-127316666D01*
X128116666Y-127416666D01*
X128083333Y-127483333D01*
X128050000Y-127516666D01*
X127983333Y-127550000D01*
X127816666Y-127550000D01*
X127750000Y-127516666D01*
X127716666Y-127483333D01*
X127683333Y-127416666D01*
X127683333Y-127216666D01*
X127716666Y-127150000D01*
X127750000Y-127116666D01*
X127883333Y-129050000D02*
X127883333Y-129383333D01*
X127683333Y-128983333D02*
X128383333Y-129216666D01*
X127683333Y-129450000D01*
X128150000Y-129983333D02*
X127683333Y-129983333D01*
X128416666Y-129816666D02*
X127916666Y-129650000D01*
X127916666Y-130083333D01*
X127883333Y-131550000D02*
X127883333Y-131883333D01*
X127683333Y-131483333D02*
X128383333Y-131716666D01*
X127683333Y-131950000D01*
X128383333Y-132516666D02*
X128383333Y-132183333D01*
X128050000Y-132150000D01*
X128083333Y-132183333D01*
X128116666Y-132250000D01*
X128116666Y-132416666D01*
X128083333Y-132483333D01*
X128050000Y-132516666D01*
X127983333Y-132550000D01*
X127816666Y-132550000D01*
X127750000Y-132516666D01*
X127716666Y-132483333D01*
X127683333Y-132416666D01*
X127683333Y-132250000D01*
X127716666Y-132183333D01*
X127750000Y-132150000D01*
X127683333Y-133983333D02*
X128383333Y-133983333D01*
X128383333Y-134150000D01*
X128350000Y-134250000D01*
X128283333Y-134316666D01*
X128216666Y-134350000D01*
X128083333Y-134383333D01*
X127983333Y-134383333D01*
X127850000Y-134350000D01*
X127783333Y-134316666D01*
X127716666Y-134250000D01*
X127683333Y-134150000D01*
X127683333Y-133983333D01*
X128383333Y-134816666D02*
X128383333Y-134883333D01*
X128350000Y-134950000D01*
X128316666Y-134983333D01*
X128250000Y-135016666D01*
X128116666Y-135050000D01*
X127950000Y-135050000D01*
X127816666Y-135016666D01*
X127750000Y-134983333D01*
X127716666Y-134950000D01*
X127683333Y-134883333D01*
X127683333Y-134816666D01*
X127716666Y-134750000D01*
X127750000Y-134716666D01*
X127816666Y-134683333D01*
X127950000Y-134650000D01*
X128116666Y-134650000D01*
X128250000Y-134683333D01*
X128316666Y-134716666D01*
X128350000Y-134750000D01*
X128383333Y-134816666D01*
X139966666Y-102583333D02*
X139966666Y-102150000D01*
X140233333Y-102383333D01*
X140233333Y-102283333D01*
X140266666Y-102216666D01*
X140300000Y-102183333D01*
X140366666Y-102150000D01*
X140533333Y-102150000D01*
X140600000Y-102183333D01*
X140633333Y-102216666D01*
X140666666Y-102283333D01*
X140666666Y-102483333D01*
X140633333Y-102550000D01*
X140600000Y-102583333D01*
X140600000Y-101850000D02*
X140633333Y-101816666D01*
X140666666Y-101850000D01*
X140633333Y-101883333D01*
X140600000Y-101850000D01*
X140666666Y-101850000D01*
X139966666Y-101583333D02*
X139966666Y-101150000D01*
X140233333Y-101383333D01*
X140233333Y-101283333D01*
X140266666Y-101216666D01*
X140300000Y-101183333D01*
X140366666Y-101150000D01*
X140533333Y-101150000D01*
X140600000Y-101183333D01*
X140633333Y-101216666D01*
X140666666Y-101283333D01*
X140666666Y-101483333D01*
X140633333Y-101550000D01*
X140600000Y-101583333D01*
X139966666Y-100950000D02*
X140666666Y-100716666D01*
X139966666Y-100483333D01*
D11*
X127683333Y-136533333D02*
X128383333Y-136533333D01*
X128383333Y-136700000D01*
X128350000Y-136800000D01*
X128283333Y-136866666D01*
X128216666Y-136900000D01*
X128083333Y-136933333D01*
X127983333Y-136933333D01*
X127850000Y-136900000D01*
X127783333Y-136866666D01*
X127716666Y-136800000D01*
X127683333Y-136700000D01*
X127683333Y-136533333D01*
X127683333Y-137600000D02*
X127683333Y-137200000D01*
X127683333Y-137400000D02*
X128383333Y-137400000D01*
X128283333Y-137333333D01*
X128216666Y-137266666D01*
X128183333Y-137200000D01*
D12*
X136050000Y-113500000D02*
X136050000Y-112900000D01*
X137650000Y-113500000D02*
X136050000Y-113500000D01*
X137650000Y-112900000D02*
X137650000Y-113500000D01*
X136050000Y-112900000D02*
X137650000Y-112900000D01*
D13*
X129700000Y-108600000D02*
X129350000Y-108950000D01*
X129000000Y-108600000D02*
X129700000Y-108600000D01*
X129350000Y-108950000D02*
X129000000Y-108600000D01*
X129350000Y-108600000D02*
X129350000Y-108250000D01*
X129000000Y-108950000D02*
X129700000Y-108950000D01*
X129250000Y-108700000D02*
X129400000Y-108850000D01*
X129500000Y-108700000D02*
X129250000Y-108700000D01*
X128600000Y-110200000D02*
X128600000Y-107500000D01*
X130100000Y-110200000D02*
X130100000Y-107500000D01*
X139300000Y-108450000D02*
X138950000Y-108800000D01*
X138600000Y-108450000D02*
X139300000Y-108450000D01*
X138950000Y-108800000D02*
X138600000Y-108450000D01*
X138950000Y-108450000D02*
X138950000Y-108100000D01*
X138600000Y-108800000D02*
X139300000Y-108800000D01*
X138850000Y-108550000D02*
X139000000Y-108700000D01*
X139100000Y-108550000D02*
X138850000Y-108550000D01*
X138200000Y-110050000D02*
X138200000Y-107350000D01*
X139700000Y-110050000D02*
X139700000Y-107350000D01*
X138600000Y-112450000D02*
X138950000Y-112100000D01*
X139300000Y-112450000D02*
X138600000Y-112450000D01*
X138950000Y-112100000D02*
X139300000Y-112450000D01*
X138950000Y-112450000D02*
X138950000Y-112800000D01*
X139300000Y-112100000D02*
X138600000Y-112100000D01*
X139050000Y-112350000D02*
X138900000Y-112200000D01*
X138800000Y-112350000D02*
X139050000Y-112350000D01*
X139700000Y-110850000D02*
X139700000Y-113550000D01*
X138200000Y-110850000D02*
X138200000Y-113550000D01*
X141200000Y-140300000D02*
X141550000Y-140650000D01*
X141200000Y-141000000D02*
X141200000Y-140300000D01*
X141550000Y-140650000D02*
X141200000Y-141000000D01*
X141200000Y-140650000D02*
X140850000Y-140650000D01*
X141550000Y-141000000D02*
X141550000Y-140300000D01*
X141300000Y-140750000D02*
X141450000Y-140600000D01*
X141300000Y-140500000D02*
X141300000Y-140750000D01*
X142800000Y-141400000D02*
X140100000Y-141400000D01*
X142800000Y-139900000D02*
X140100000Y-139900000D01*
D14*
X131726000Y-135711000D02*
X134774000Y-135711000D01*
X131726000Y-137489000D02*
X131726000Y-135711000D01*
X134774000Y-137489000D02*
X131726000Y-137489000D01*
X134774000Y-135711000D02*
X134774000Y-137489000D01*
D15*
G36*
X138781660Y-137406040D02*
G01*
X138822300Y-137406040D01*
X138949300Y-137403500D01*
X139033120Y-137398420D01*
X139063600Y-137390800D01*
X139058520Y-137370480D01*
X139040740Y-137299360D01*
X139007720Y-137179980D01*
X138967080Y-137025040D01*
X138916280Y-136839620D01*
X138817220Y-136478940D01*
X138763880Y-136288440D01*
X138720700Y-136120800D01*
X138685140Y-135991260D01*
X138662280Y-135902360D01*
X138654660Y-135866800D01*
X138654660Y-135864260D01*
X138682600Y-135823620D01*
X138741020Y-135742340D01*
X138827380Y-135630580D01*
X138934060Y-135495960D01*
X139055980Y-135343560D01*
X139457300Y-134848260D01*
X138944220Y-134848260D01*
X138522580Y-135389280D01*
X138466700Y-135457860D01*
X138349860Y-135607720D01*
X138248260Y-135737260D01*
X138166980Y-135838860D01*
X138116180Y-135902360D01*
X138095860Y-135925220D01*
X138098400Y-135909980D01*
X138111100Y-135838860D01*
X138133960Y-135719480D01*
X138164440Y-135559460D01*
X138202540Y-135361340D01*
X138245720Y-135137820D01*
X138293980Y-134893980D01*
X138327000Y-134721260D01*
X138375260Y-134487580D01*
X138415900Y-134279300D01*
X138448920Y-134101500D01*
X138474320Y-133964340D01*
X138492100Y-133875440D01*
X138497180Y-133837340D01*
X138497180Y-133829720D01*
X138484480Y-133819560D01*
X138446380Y-133814480D01*
X138370180Y-133814480D01*
X138243180Y-133814480D01*
X137989180Y-133819560D01*
X137963780Y-133944020D01*
X137935840Y-134060860D01*
X137895200Y-134144680D01*
X137836780Y-134213260D01*
X137796140Y-134248820D01*
X137725020Y-134286920D01*
X137636120Y-134297080D01*
X137631040Y-134297080D01*
X137559920Y-134286920D01*
X137501500Y-134248820D01*
X137491340Y-134238660D01*
X137453240Y-134190400D01*
X137438000Y-134131980D01*
X137445620Y-134040540D01*
X137468480Y-133905920D01*
X137488800Y-133814480D01*
X137504040Y-133738280D01*
X137509120Y-133707800D01*
X137524360Y-133705260D01*
X137590400Y-133705260D01*
X137664060Y-133702720D01*
X137664060Y-133276000D01*
X137613260Y-133270920D01*
X137595480Y-133263300D01*
X137592940Y-133250600D01*
X137598020Y-133235360D01*
X137613260Y-133169320D01*
X137633580Y-133075340D01*
X137643740Y-133034700D01*
X137671680Y-132935640D01*
X137699620Y-132867060D01*
X137707240Y-132854360D01*
X137778360Y-132775620D01*
X137874880Y-132727360D01*
X137979020Y-132712120D01*
X138067920Y-132732440D01*
X138131420Y-132793400D01*
X138133960Y-132798480D01*
X138151740Y-132887380D01*
X138146660Y-133011840D01*
X138123800Y-133151540D01*
X138095860Y-133268380D01*
X137841860Y-133273460D01*
X137758040Y-133276000D01*
X137664060Y-133276000D01*
X137664060Y-133702720D01*
X137702160Y-133702720D01*
X137846940Y-133702720D01*
X138019660Y-133700180D01*
X138527660Y-133700180D01*
X138537820Y-133664620D01*
X138540360Y-133657000D01*
X138563220Y-133550320D01*
X138588620Y-133410620D01*
X138616560Y-133258220D01*
X138644500Y-133105820D01*
X138664820Y-132971200D01*
X138680060Y-132864520D01*
X138687680Y-132806100D01*
X138685140Y-132775620D01*
X138649580Y-132595280D01*
X138560680Y-132437800D01*
X138433680Y-132310800D01*
X138273660Y-132234600D01*
X138255880Y-132229520D01*
X138136500Y-132211740D01*
X137996800Y-132211740D01*
X137872340Y-132226980D01*
X137752960Y-132262540D01*
X137570080Y-132364140D01*
X137402440Y-132506380D01*
X137265280Y-132674020D01*
X137171300Y-132854360D01*
X137163680Y-132877220D01*
X137143360Y-132966120D01*
X137115420Y-133095660D01*
X137079860Y-133253140D01*
X137044300Y-133428400D01*
X137008740Y-133608740D01*
X136975720Y-133781460D01*
X136947780Y-133931320D01*
X136927460Y-134048160D01*
X136917300Y-134119280D01*
X136917300Y-134220880D01*
X136937620Y-134385980D01*
X136988420Y-134523140D01*
X137008740Y-134556160D01*
X137125580Y-134685700D01*
X137283060Y-134777140D01*
X137465940Y-134822860D01*
X137661520Y-134817780D01*
X137684380Y-134815240D01*
X137755500Y-134805080D01*
X137785980Y-134805080D01*
X137785980Y-134812700D01*
X137775820Y-134873660D01*
X137752960Y-134985420D01*
X137722480Y-135140360D01*
X137684380Y-135338480D01*
X137641200Y-135567080D01*
X137590400Y-135821080D01*
X137506580Y-136237640D01*
X137453240Y-136501800D01*
X137404980Y-136745640D01*
X137364340Y-136959000D01*
X137328780Y-137139340D01*
X137303380Y-137273960D01*
X137288140Y-137362860D01*
X137285600Y-137393340D01*
X137288140Y-137395880D01*
X137333860Y-137400960D01*
X137422760Y-137403500D01*
X137542140Y-137406040D01*
X137646280Y-137406040D01*
X137730100Y-137403500D01*
X137773280Y-137398420D01*
X137793600Y-137388260D01*
X137798680Y-137370480D01*
X137803760Y-137345080D01*
X137821540Y-137266340D01*
X137841860Y-137152040D01*
X137869800Y-137014880D01*
X137877420Y-136974240D01*
X137912980Y-136811680D01*
X137940920Y-136710080D01*
X137961240Y-136661820D01*
X137971400Y-136651660D01*
X138047600Y-136565300D01*
X138126340Y-136476400D01*
X138200000Y-136400200D01*
X138250800Y-136346860D01*
X138271120Y-136326540D01*
X138276200Y-136341780D01*
X138291440Y-136407820D01*
X138314300Y-136519580D01*
X138344780Y-136664360D01*
X138377800Y-136832000D01*
X138403200Y-136948840D01*
X138436220Y-137106320D01*
X138461620Y-137238400D01*
X138481940Y-137329840D01*
X138489560Y-137370480D01*
X138492100Y-137373020D01*
X138497180Y-137388260D01*
X138517500Y-137398420D01*
X138563220Y-137403500D01*
X138647040Y-137406040D01*
X138781660Y-137406040D01*
G37*
X138781660Y-137406040D02*
X138822300Y-137406040D01*
X138949300Y-137403500D01*
X139033120Y-137398420D01*
X139063600Y-137390800D01*
X139058520Y-137370480D01*
X139040740Y-137299360D01*
X139007720Y-137179980D01*
X138967080Y-137025040D01*
X138916280Y-136839620D01*
X138817220Y-136478940D01*
X138763880Y-136288440D01*
X138720700Y-136120800D01*
X138685140Y-135991260D01*
X138662280Y-135902360D01*
X138654660Y-135866800D01*
X138654660Y-135864260D01*
X138682600Y-135823620D01*
X138741020Y-135742340D01*
X138827380Y-135630580D01*
X138934060Y-135495960D01*
X139055980Y-135343560D01*
X139457300Y-134848260D01*
X138944220Y-134848260D01*
X138522580Y-135389280D01*
X138466700Y-135457860D01*
X138349860Y-135607720D01*
X138248260Y-135737260D01*
X138166980Y-135838860D01*
X138116180Y-135902360D01*
X138095860Y-135925220D01*
X138098400Y-135909980D01*
X138111100Y-135838860D01*
X138133960Y-135719480D01*
X138164440Y-135559460D01*
X138202540Y-135361340D01*
X138245720Y-135137820D01*
X138293980Y-134893980D01*
X138327000Y-134721260D01*
X138375260Y-134487580D01*
X138415900Y-134279300D01*
X138448920Y-134101500D01*
X138474320Y-133964340D01*
X138492100Y-133875440D01*
X138497180Y-133837340D01*
X138497180Y-133829720D01*
X138484480Y-133819560D01*
X138446380Y-133814480D01*
X138370180Y-133814480D01*
X138243180Y-133814480D01*
X137989180Y-133819560D01*
X137963780Y-133944020D01*
X137935840Y-134060860D01*
X137895200Y-134144680D01*
X137836780Y-134213260D01*
X137796140Y-134248820D01*
X137725020Y-134286920D01*
X137636120Y-134297080D01*
X137631040Y-134297080D01*
X137559920Y-134286920D01*
X137501500Y-134248820D01*
X137491340Y-134238660D01*
X137453240Y-134190400D01*
X137438000Y-134131980D01*
X137445620Y-134040540D01*
X137468480Y-133905920D01*
X137488800Y-133814480D01*
X137504040Y-133738280D01*
X137509120Y-133707800D01*
X137524360Y-133705260D01*
X137590400Y-133705260D01*
X137664060Y-133702720D01*
X137664060Y-133276000D01*
X137613260Y-133270920D01*
X137595480Y-133263300D01*
X137592940Y-133250600D01*
X137598020Y-133235360D01*
X137613260Y-133169320D01*
X137633580Y-133075340D01*
X137643740Y-133034700D01*
X137671680Y-132935640D01*
X137699620Y-132867060D01*
X137707240Y-132854360D01*
X137778360Y-132775620D01*
X137874880Y-132727360D01*
X137979020Y-132712120D01*
X138067920Y-132732440D01*
X138131420Y-132793400D01*
X138133960Y-132798480D01*
X138151740Y-132887380D01*
X138146660Y-133011840D01*
X138123800Y-133151540D01*
X138095860Y-133268380D01*
X137841860Y-133273460D01*
X137758040Y-133276000D01*
X137664060Y-133276000D01*
X137664060Y-133702720D01*
X137702160Y-133702720D01*
X137846940Y-133702720D01*
X138019660Y-133700180D01*
X138527660Y-133700180D01*
X138537820Y-133664620D01*
X138540360Y-133657000D01*
X138563220Y-133550320D01*
X138588620Y-133410620D01*
X138616560Y-133258220D01*
X138644500Y-133105820D01*
X138664820Y-132971200D01*
X138680060Y-132864520D01*
X138687680Y-132806100D01*
X138685140Y-132775620D01*
X138649580Y-132595280D01*
X138560680Y-132437800D01*
X138433680Y-132310800D01*
X138273660Y-132234600D01*
X138255880Y-132229520D01*
X138136500Y-132211740D01*
X137996800Y-132211740D01*
X137872340Y-132226980D01*
X137752960Y-132262540D01*
X137570080Y-132364140D01*
X137402440Y-132506380D01*
X137265280Y-132674020D01*
X137171300Y-132854360D01*
X137163680Y-132877220D01*
X137143360Y-132966120D01*
X137115420Y-133095660D01*
X137079860Y-133253140D01*
X137044300Y-133428400D01*
X137008740Y-133608740D01*
X136975720Y-133781460D01*
X136947780Y-133931320D01*
X136927460Y-134048160D01*
X136917300Y-134119280D01*
X136917300Y-134220880D01*
X136937620Y-134385980D01*
X136988420Y-134523140D01*
X137008740Y-134556160D01*
X137125580Y-134685700D01*
X137283060Y-134777140D01*
X137465940Y-134822860D01*
X137661520Y-134817780D01*
X137684380Y-134815240D01*
X137755500Y-134805080D01*
X137785980Y-134805080D01*
X137785980Y-134812700D01*
X137775820Y-134873660D01*
X137752960Y-134985420D01*
X137722480Y-135140360D01*
X137684380Y-135338480D01*
X137641200Y-135567080D01*
X137590400Y-135821080D01*
X137506580Y-136237640D01*
X137453240Y-136501800D01*
X137404980Y-136745640D01*
X137364340Y-136959000D01*
X137328780Y-137139340D01*
X137303380Y-137273960D01*
X137288140Y-137362860D01*
X137285600Y-137393340D01*
X137288140Y-137395880D01*
X137333860Y-137400960D01*
X137422760Y-137403500D01*
X137542140Y-137406040D01*
X137646280Y-137406040D01*
X137730100Y-137403500D01*
X137773280Y-137398420D01*
X137793600Y-137388260D01*
X137798680Y-137370480D01*
X137803760Y-137345080D01*
X137821540Y-137266340D01*
X137841860Y-137152040D01*
X137869800Y-137014880D01*
X137877420Y-136974240D01*
X137912980Y-136811680D01*
X137940920Y-136710080D01*
X137961240Y-136661820D01*
X137971400Y-136651660D01*
X138047600Y-136565300D01*
X138126340Y-136476400D01*
X138200000Y-136400200D01*
X138250800Y-136346860D01*
X138271120Y-136326540D01*
X138276200Y-136341780D01*
X138291440Y-136407820D01*
X138314300Y-136519580D01*
X138344780Y-136664360D01*
X138377800Y-136832000D01*
X138403200Y-136948840D01*
X138436220Y-137106320D01*
X138461620Y-137238400D01*
X138481940Y-137329840D01*
X138489560Y-137370480D01*
X138492100Y-137373020D01*
X138497180Y-137388260D01*
X138517500Y-137398420D01*
X138563220Y-137403500D01*
X138647040Y-137406040D01*
X138781660Y-137406040D01*
D13*
X137830278Y-103050000D02*
G75*
G03*
X137830278Y-103050000I-180278J0D01*
G01*
X137350000Y-103350000D02*
X137350000Y-106750000D01*
X130950000Y-103350000D02*
X137350000Y-103350000D01*
X130950000Y-106750000D02*
X130950000Y-103350000D01*
X137350000Y-106750000D02*
X130950000Y-106750000D01*
X139050000Y-143500000D02*
X139050000Y-142800000D01*
X140250000Y-142800000D02*
X140250000Y-143500000D01*
X128500000Y-120050000D02*
X128500000Y-119350000D01*
X129700000Y-119350000D02*
X129700000Y-120050000D01*
X130200000Y-133350000D02*
X129500000Y-133350000D01*
X129500000Y-132150000D02*
X130200000Y-132150000D01*
X132600000Y-113750000D02*
X133300000Y-113750000D01*
X133300000Y-114950000D02*
X132600000Y-114950000D01*
X129600000Y-113750000D02*
X130300000Y-113750000D01*
X130300000Y-114950000D02*
X129600000Y-114950000D01*
X135050000Y-137350000D02*
X135050000Y-136650000D01*
X136250000Y-136650000D02*
X136250000Y-137350000D01*
X133400000Y-134000000D02*
X132700000Y-134000000D01*
X132700000Y-132800000D02*
X133400000Y-132800000D01*
X136050000Y-116250000D02*
X136050000Y-116950000D01*
X134850000Y-116950000D02*
X134850000Y-116250000D01*
X138200000Y-118900000D02*
X138900000Y-118900000D01*
X138900000Y-120100000D02*
X138200000Y-120100000D01*
X130200000Y-131050000D02*
X129500000Y-131050000D01*
X129500000Y-129850000D02*
X130200000Y-129850000D01*
X134600000Y-113800000D02*
X134600000Y-113100000D01*
X135800000Y-113100000D02*
X135800000Y-113800000D01*
X128450000Y-142375000D02*
X126450000Y-142375000D01*
X126450000Y-139425000D02*
X128450000Y-139425000D01*
X129925000Y-116000000D02*
X129925000Y-117000000D01*
X128575000Y-117000000D02*
X128575000Y-116000000D01*
X130275000Y-104150000D02*
X130275000Y-105150000D01*
X128925000Y-105150000D02*
X128925000Y-104150000D01*
X142025000Y-142650000D02*
X142025000Y-143650000D01*
X140675000Y-143650000D02*
X140675000Y-142650000D01*
X137950000Y-116425000D02*
X138950000Y-116425000D01*
X138950000Y-117775000D02*
X137950000Y-117775000D01*
X139425000Y-104150000D02*
X139425000Y-105150000D01*
X138075000Y-105150000D02*
X138075000Y-104150000D01*
X138200000Y-114525000D02*
X139200000Y-114525000D01*
X139200000Y-115875000D02*
X138200000Y-115875000D01*
X139075000Y-139800000D02*
X139075000Y-140800000D01*
X137725000Y-140800000D02*
X137725000Y-139800000D01*
X133300000Y-113375000D02*
X132300000Y-113375000D01*
X132300000Y-112025000D02*
X133300000Y-112025000D01*
X129350000Y-112025000D02*
X130350000Y-112025000D01*
X130350000Y-113375000D02*
X129350000Y-113375000D01*
X131050000Y-107100000D02*
X137250000Y-107100000D01*
X131050000Y-110900000D02*
X137250000Y-110900000D01*
X137250000Y-107100000D02*
X137250000Y-108000000D01*
X131050000Y-108000000D02*
X131050000Y-107100000D01*
X131050000Y-110900000D02*
X131050000Y-110000000D01*
X137250000Y-110900000D02*
X137250000Y-110000000D01*
X134900000Y-138875000D02*
X135900000Y-138875000D01*
X135900000Y-140225000D02*
X134900000Y-140225000D01*
X133200000Y-140225000D02*
X132200000Y-140225000D01*
X132200000Y-138875000D02*
X133200000Y-138875000D01*
X134533452Y-116913604D02*
X131563604Y-119883452D01*
X132836396Y-115216548D02*
X129866548Y-118186396D01*
X129866548Y-118186396D02*
X131563604Y-119883452D01*
X132836396Y-115216548D02*
X134533452Y-116913604D01*
X133778769Y-120244707D02*
X132806497Y-119272435D01*
X139276524Y-125000000D02*
X138905293Y-124628769D01*
X134150000Y-130126524D02*
X133778769Y-129755293D01*
X129023476Y-125000000D02*
X129394707Y-125371231D01*
X134150000Y-119873476D02*
X134521231Y-120244707D01*
X129023476Y-125000000D02*
X129394707Y-124628769D01*
X134150000Y-130126524D02*
X134521231Y-129755293D01*
X139276524Y-125000000D02*
X138905293Y-125371231D01*
X134150000Y-119873476D02*
X133778769Y-120244707D01*
X134450000Y-119343146D02*
G75*
G03*
X134450000Y-119343146I-300000J0D01*
G01*
D11*
X138600000Y-130350000D02*
X138600000Y-129650000D01*
X139800000Y-129650000D02*
X139800000Y-130350000D01*
D10*
X129370000Y-135941428D02*
X129370000Y-136370000D01*
X129341428Y-136455714D01*
X129284285Y-136512857D01*
X129198571Y-136541428D01*
X129141428Y-136541428D01*
X129655714Y-136541428D02*
X129655714Y-135941428D01*
X129884285Y-135941428D01*
X129941428Y-135970000D01*
X129970000Y-135998571D01*
X129998571Y-136055714D01*
X129998571Y-136141428D01*
X129970000Y-136198571D01*
X129941428Y-136227142D01*
X129884285Y-136255714D01*
X129655714Y-136255714D01*
X130570000Y-136541428D02*
X130227142Y-136541428D01*
X130398571Y-136541428D02*
X130398571Y-135941428D01*
X130341428Y-136027142D01*
X130284285Y-136084285D01*
X130227142Y-136112857D01*
X136892857Y-112178571D02*
X136835714Y-112150000D01*
X136778571Y-112092857D01*
X136692857Y-112007142D01*
X136635714Y-111978571D01*
X136578571Y-111978571D01*
X136607142Y-112121428D02*
X136550000Y-112092857D01*
X136492857Y-112035714D01*
X136464285Y-111921428D01*
X136464285Y-111721428D01*
X136492857Y-111607142D01*
X136550000Y-111550000D01*
X136607142Y-111521428D01*
X136721428Y-111521428D01*
X136778571Y-111550000D01*
X136835714Y-111607142D01*
X136864285Y-111721428D01*
X136864285Y-111921428D01*
X136835714Y-112035714D01*
X136778571Y-112092857D01*
X136721428Y-112121428D01*
X136607142Y-112121428D01*
X137435714Y-112121428D02*
X137092857Y-112121428D01*
X137264285Y-112121428D02*
X137264285Y-111521428D01*
X137207142Y-111607142D01*
X137150000Y-111664285D01*
X137092857Y-111692857D01*
X127371428Y-109042857D02*
X126771428Y-109042857D01*
X126771428Y-108900000D01*
X126800000Y-108814285D01*
X126857142Y-108757142D01*
X126914285Y-108728571D01*
X127028571Y-108700000D01*
X127114285Y-108700000D01*
X127228571Y-108728571D01*
X127285714Y-108757142D01*
X127342857Y-108814285D01*
X127371428Y-108900000D01*
X127371428Y-109042857D01*
X127371428Y-108128571D02*
X127371428Y-108471428D01*
X127371428Y-108300000D02*
X126771428Y-108300000D01*
X126857142Y-108357142D01*
X126914285Y-108414285D01*
X126942857Y-108471428D01*
X137171428Y-108892857D02*
X136571428Y-108892857D01*
X136571428Y-108750000D01*
X136600000Y-108664285D01*
X136657142Y-108607142D01*
X136714285Y-108578571D01*
X136828571Y-108550000D01*
X136914285Y-108550000D01*
X137028571Y-108578571D01*
X137085714Y-108607142D01*
X137142857Y-108664285D01*
X137171428Y-108750000D01*
X137171428Y-108892857D01*
X136628571Y-108321428D02*
X136600000Y-108292857D01*
X136571428Y-108235714D01*
X136571428Y-108092857D01*
X136600000Y-108035714D01*
X136628571Y-108007142D01*
X136685714Y-107978571D01*
X136742857Y-107978571D01*
X136828571Y-108007142D01*
X137171428Y-108350000D01*
X137171428Y-107978571D01*
X137628571Y-113507142D02*
X138228571Y-113507142D01*
X138228571Y-113650000D01*
X138200000Y-113735714D01*
X138142857Y-113792857D01*
X138085714Y-113821428D01*
X137971428Y-113850000D01*
X137885714Y-113850000D01*
X137771428Y-113821428D01*
X137714285Y-113792857D01*
X137657142Y-113735714D01*
X137628571Y-113650000D01*
X137628571Y-113507142D01*
X138228571Y-114050000D02*
X138228571Y-114421428D01*
X138000000Y-114221428D01*
X138000000Y-114307142D01*
X137971428Y-114364285D01*
X137942857Y-114392857D01*
X137885714Y-114421428D01*
X137742857Y-114421428D01*
X137685714Y-114392857D01*
X137657142Y-114364285D01*
X137628571Y-114307142D01*
X137628571Y-114135714D01*
X137657142Y-114078571D01*
X137685714Y-114050000D01*
X140171428Y-142392857D02*
X139571428Y-142392857D01*
X139571428Y-142250000D01*
X139600000Y-142164285D01*
X139657142Y-142107142D01*
X139714285Y-142078571D01*
X139828571Y-142050000D01*
X139914285Y-142050000D01*
X140028571Y-142078571D01*
X140085714Y-142107142D01*
X140142857Y-142164285D01*
X140171428Y-142250000D01*
X140171428Y-142392857D01*
X139771428Y-141535714D02*
X140171428Y-141535714D01*
X139542857Y-141678571D02*
X139971428Y-141821428D01*
X139971428Y-141450000D01*
X131571428Y-137057142D02*
X132057142Y-137057142D01*
X132114285Y-137028571D01*
X132142857Y-137000000D01*
X132171428Y-136942857D01*
X132171428Y-136828571D01*
X132142857Y-136771428D01*
X132114285Y-136742857D01*
X132057142Y-136714285D01*
X131571428Y-136714285D01*
X132171428Y-136114285D02*
X132171428Y-136457142D01*
X132171428Y-136285714D02*
X131571428Y-136285714D01*
X131657142Y-136342857D01*
X131714285Y-136400000D01*
X131742857Y-136457142D01*
X131750000Y-143121428D02*
X131750000Y-143550000D01*
X131721428Y-143635714D01*
X131664285Y-143692857D01*
X131578571Y-143721428D01*
X131521428Y-143721428D01*
X132350000Y-143721428D02*
X132007142Y-143721428D01*
X132178571Y-143721428D02*
X132178571Y-143121428D01*
X132121428Y-143207142D01*
X132064285Y-143264285D01*
X132007142Y-143292857D01*
X137600000Y-106371428D02*
X137600000Y-106800000D01*
X137571428Y-106885714D01*
X137514285Y-106942857D01*
X137428571Y-106971428D01*
X137371428Y-106971428D01*
X137857142Y-106428571D02*
X137885714Y-106400000D01*
X137942857Y-106371428D01*
X138085714Y-106371428D01*
X138142857Y-106400000D01*
X138171428Y-106428571D01*
X138200000Y-106485714D01*
X138200000Y-106542857D01*
X138171428Y-106628571D01*
X137828571Y-106971428D01*
X138200000Y-106971428D01*
X139550000Y-145314285D02*
X139521428Y-145342857D01*
X139435714Y-145371428D01*
X139378571Y-145371428D01*
X139292857Y-145342857D01*
X139235714Y-145285714D01*
X139207142Y-145228571D01*
X139178571Y-145114285D01*
X139178571Y-145028571D01*
X139207142Y-144914285D01*
X139235714Y-144857142D01*
X139292857Y-144800000D01*
X139378571Y-144771428D01*
X139435714Y-144771428D01*
X139521428Y-144800000D01*
X139550000Y-144828571D01*
X140121428Y-145371428D02*
X139778571Y-145371428D01*
X139950000Y-145371428D02*
X139950000Y-144771428D01*
X139892857Y-144857142D01*
X139835714Y-144914285D01*
X139778571Y-144942857D01*
X129000000Y-121714285D02*
X128971428Y-121742857D01*
X128885714Y-121771428D01*
X128828571Y-121771428D01*
X128742857Y-121742857D01*
X128685714Y-121685714D01*
X128657142Y-121628571D01*
X128628571Y-121514285D01*
X128628571Y-121428571D01*
X128657142Y-121314285D01*
X128685714Y-121257142D01*
X128742857Y-121200000D01*
X128828571Y-121171428D01*
X128885714Y-121171428D01*
X128971428Y-121200000D01*
X129000000Y-121228571D01*
X129228571Y-121228571D02*
X129257142Y-121200000D01*
X129314285Y-121171428D01*
X129457142Y-121171428D01*
X129514285Y-121200000D01*
X129542857Y-121228571D01*
X129571428Y-121285714D01*
X129571428Y-121342857D01*
X129542857Y-121428571D01*
X129200000Y-121771428D01*
X129571428Y-121771428D01*
X129750000Y-131914285D02*
X129721428Y-131942857D01*
X129635714Y-131971428D01*
X129578571Y-131971428D01*
X129492857Y-131942857D01*
X129435714Y-131885714D01*
X129407142Y-131828571D01*
X129378571Y-131714285D01*
X129378571Y-131628571D01*
X129407142Y-131514285D01*
X129435714Y-131457142D01*
X129492857Y-131400000D01*
X129578571Y-131371428D01*
X129635714Y-131371428D01*
X129721428Y-131400000D01*
X129750000Y-131428571D01*
X129950000Y-131371428D02*
X130321428Y-131371428D01*
X130121428Y-131600000D01*
X130207142Y-131600000D01*
X130264285Y-131628571D01*
X130292857Y-131657142D01*
X130321428Y-131714285D01*
X130321428Y-131857142D01*
X130292857Y-131914285D01*
X130264285Y-131942857D01*
X130207142Y-131971428D01*
X130035714Y-131971428D01*
X129978571Y-131942857D01*
X129950000Y-131914285D01*
X133950000Y-115764285D02*
X133921428Y-115792857D01*
X133835714Y-115821428D01*
X133778571Y-115821428D01*
X133692857Y-115792857D01*
X133635714Y-115735714D01*
X133607142Y-115678571D01*
X133578571Y-115564285D01*
X133578571Y-115478571D01*
X133607142Y-115364285D01*
X133635714Y-115307142D01*
X133692857Y-115250000D01*
X133778571Y-115221428D01*
X133835714Y-115221428D01*
X133921428Y-115250000D01*
X133950000Y-115278571D01*
X134464285Y-115421428D02*
X134464285Y-115821428D01*
X134321428Y-115192857D02*
X134178571Y-115621428D01*
X134550000Y-115621428D01*
X130750000Y-115764285D02*
X130721428Y-115792857D01*
X130635714Y-115821428D01*
X130578571Y-115821428D01*
X130492857Y-115792857D01*
X130435714Y-115735714D01*
X130407142Y-115678571D01*
X130378571Y-115564285D01*
X130378571Y-115478571D01*
X130407142Y-115364285D01*
X130435714Y-115307142D01*
X130492857Y-115250000D01*
X130578571Y-115221428D01*
X130635714Y-115221428D01*
X130721428Y-115250000D01*
X130750000Y-115278571D01*
X131292857Y-115221428D02*
X131007142Y-115221428D01*
X130978571Y-115507142D01*
X131007142Y-115478571D01*
X131064285Y-115450000D01*
X131207142Y-115450000D01*
X131264285Y-115478571D01*
X131292857Y-115507142D01*
X131321428Y-115564285D01*
X131321428Y-115707142D01*
X131292857Y-115764285D01*
X131264285Y-115792857D01*
X131207142Y-115821428D01*
X131064285Y-115821428D01*
X131007142Y-115792857D01*
X130978571Y-115764285D01*
X135550000Y-135514285D02*
X135521428Y-135542857D01*
X135435714Y-135571428D01*
X135378571Y-135571428D01*
X135292857Y-135542857D01*
X135235714Y-135485714D01*
X135207142Y-135428571D01*
X135178571Y-135314285D01*
X135178571Y-135228571D01*
X135207142Y-135114285D01*
X135235714Y-135057142D01*
X135292857Y-135000000D01*
X135378571Y-134971428D01*
X135435714Y-134971428D01*
X135521428Y-135000000D01*
X135550000Y-135028571D01*
X136064285Y-134971428D02*
X135950000Y-134971428D01*
X135892857Y-135000000D01*
X135864285Y-135028571D01*
X135807142Y-135114285D01*
X135778571Y-135228571D01*
X135778571Y-135457142D01*
X135807142Y-135514285D01*
X135835714Y-135542857D01*
X135892857Y-135571428D01*
X136007142Y-135571428D01*
X136064285Y-135542857D01*
X136092857Y-135514285D01*
X136121428Y-135457142D01*
X136121428Y-135314285D01*
X136092857Y-135257142D01*
X136064285Y-135228571D01*
X136007142Y-135200000D01*
X135892857Y-135200000D01*
X135835714Y-135228571D01*
X135807142Y-135257142D01*
X135778571Y-135314285D01*
X132950000Y-132564285D02*
X132921428Y-132592857D01*
X132835714Y-132621428D01*
X132778571Y-132621428D01*
X132692857Y-132592857D01*
X132635714Y-132535714D01*
X132607142Y-132478571D01*
X132578571Y-132364285D01*
X132578571Y-132278571D01*
X132607142Y-132164285D01*
X132635714Y-132107142D01*
X132692857Y-132050000D01*
X132778571Y-132021428D01*
X132835714Y-132021428D01*
X132921428Y-132050000D01*
X132950000Y-132078571D01*
X133150000Y-132021428D02*
X133550000Y-132021428D01*
X133292857Y-132621428D01*
X134850000Y-118714285D02*
X134821428Y-118742857D01*
X134735714Y-118771428D01*
X134678571Y-118771428D01*
X134592857Y-118742857D01*
X134535714Y-118685714D01*
X134507142Y-118628571D01*
X134478571Y-118514285D01*
X134478571Y-118428571D01*
X134507142Y-118314285D01*
X134535714Y-118257142D01*
X134592857Y-118200000D01*
X134678571Y-118171428D01*
X134735714Y-118171428D01*
X134821428Y-118200000D01*
X134850000Y-118228571D01*
X135192857Y-118428571D02*
X135135714Y-118400000D01*
X135107142Y-118371428D01*
X135078571Y-118314285D01*
X135078571Y-118285714D01*
X135107142Y-118228571D01*
X135135714Y-118200000D01*
X135192857Y-118171428D01*
X135307142Y-118171428D01*
X135364285Y-118200000D01*
X135392857Y-118228571D01*
X135421428Y-118285714D01*
X135421428Y-118314285D01*
X135392857Y-118371428D01*
X135364285Y-118400000D01*
X135307142Y-118428571D01*
X135192857Y-118428571D01*
X135135714Y-118457142D01*
X135107142Y-118485714D01*
X135078571Y-118542857D01*
X135078571Y-118657142D01*
X135107142Y-118714285D01*
X135135714Y-118742857D01*
X135192857Y-118771428D01*
X135307142Y-118771428D01*
X135364285Y-118742857D01*
X135392857Y-118714285D01*
X135421428Y-118657142D01*
X135421428Y-118542857D01*
X135392857Y-118485714D01*
X135364285Y-118457142D01*
X135307142Y-118428571D01*
X138450000Y-120864285D02*
X138421428Y-120892857D01*
X138335714Y-120921428D01*
X138278571Y-120921428D01*
X138192857Y-120892857D01*
X138135714Y-120835714D01*
X138107142Y-120778571D01*
X138078571Y-120664285D01*
X138078571Y-120578571D01*
X138107142Y-120464285D01*
X138135714Y-120407142D01*
X138192857Y-120350000D01*
X138278571Y-120321428D01*
X138335714Y-120321428D01*
X138421428Y-120350000D01*
X138450000Y-120378571D01*
X138735714Y-120921428D02*
X138850000Y-120921428D01*
X138907142Y-120892857D01*
X138935714Y-120864285D01*
X138992857Y-120778571D01*
X139021428Y-120664285D01*
X139021428Y-120435714D01*
X138992857Y-120378571D01*
X138964285Y-120350000D01*
X138907142Y-120321428D01*
X138792857Y-120321428D01*
X138735714Y-120350000D01*
X138707142Y-120378571D01*
X138678571Y-120435714D01*
X138678571Y-120578571D01*
X138707142Y-120635714D01*
X138735714Y-120664285D01*
X138792857Y-120692857D01*
X138907142Y-120692857D01*
X138964285Y-120664285D01*
X138992857Y-120635714D01*
X139021428Y-120578571D01*
X129464285Y-129614285D02*
X129435714Y-129642857D01*
X129350000Y-129671428D01*
X129292857Y-129671428D01*
X129207142Y-129642857D01*
X129150000Y-129585714D01*
X129121428Y-129528571D01*
X129092857Y-129414285D01*
X129092857Y-129328571D01*
X129121428Y-129214285D01*
X129150000Y-129157142D01*
X129207142Y-129100000D01*
X129292857Y-129071428D01*
X129350000Y-129071428D01*
X129435714Y-129100000D01*
X129464285Y-129128571D01*
X130035714Y-129671428D02*
X129692857Y-129671428D01*
X129864285Y-129671428D02*
X129864285Y-129071428D01*
X129807142Y-129157142D01*
X129750000Y-129214285D01*
X129692857Y-129242857D01*
X130407142Y-129071428D02*
X130464285Y-129071428D01*
X130521428Y-129100000D01*
X130550000Y-129128571D01*
X130578571Y-129185714D01*
X130607142Y-129300000D01*
X130607142Y-129442857D01*
X130578571Y-129557142D01*
X130550000Y-129614285D01*
X130521428Y-129642857D01*
X130464285Y-129671428D01*
X130407142Y-129671428D01*
X130350000Y-129642857D01*
X130321428Y-129614285D01*
X130292857Y-129557142D01*
X130264285Y-129442857D01*
X130264285Y-129300000D01*
X130292857Y-129185714D01*
X130321428Y-129128571D01*
X130350000Y-129100000D01*
X130407142Y-129071428D01*
X135064285Y-111814285D02*
X135035714Y-111842857D01*
X134950000Y-111871428D01*
X134892857Y-111871428D01*
X134807142Y-111842857D01*
X134750000Y-111785714D01*
X134721428Y-111728571D01*
X134692857Y-111614285D01*
X134692857Y-111528571D01*
X134721428Y-111414285D01*
X134750000Y-111357142D01*
X134807142Y-111300000D01*
X134892857Y-111271428D01*
X134950000Y-111271428D01*
X135035714Y-111300000D01*
X135064285Y-111328571D01*
X135635714Y-111871428D02*
X135292857Y-111871428D01*
X135464285Y-111871428D02*
X135464285Y-111271428D01*
X135407142Y-111357142D01*
X135350000Y-111414285D01*
X135292857Y-111442857D01*
X136207142Y-111871428D02*
X135864285Y-111871428D01*
X136035714Y-111871428D02*
X136035714Y-111271428D01*
X135978571Y-111357142D01*
X135921428Y-111414285D01*
X135864285Y-111442857D01*
X129950000Y-142157142D02*
X129750000Y-142157142D01*
X129750000Y-142471428D02*
X129750000Y-141871428D01*
X130035714Y-141871428D01*
X130578571Y-142471428D02*
X130235714Y-142471428D01*
X130407142Y-142471428D02*
X130407142Y-141871428D01*
X130350000Y-141957142D01*
X130292857Y-142014285D01*
X130235714Y-142042857D01*
X130450000Y-116821428D02*
X130164285Y-116821428D01*
X130164285Y-116221428D01*
X130964285Y-116821428D02*
X130621428Y-116821428D01*
X130792857Y-116821428D02*
X130792857Y-116221428D01*
X130735714Y-116307142D01*
X130678571Y-116364285D01*
X130621428Y-116392857D01*
X129500000Y-103271428D02*
X129300000Y-102985714D01*
X129157142Y-103271428D02*
X129157142Y-102671428D01*
X129385714Y-102671428D01*
X129442857Y-102700000D01*
X129471428Y-102728571D01*
X129500000Y-102785714D01*
X129500000Y-102871428D01*
X129471428Y-102928571D01*
X129442857Y-102957142D01*
X129385714Y-102985714D01*
X129157142Y-102985714D01*
X130071428Y-103271428D02*
X129728571Y-103271428D01*
X129900000Y-103271428D02*
X129900000Y-102671428D01*
X129842857Y-102757142D01*
X129785714Y-102814285D01*
X129728571Y-102842857D01*
X141250000Y-145371428D02*
X141050000Y-145085714D01*
X140907142Y-145371428D02*
X140907142Y-144771428D01*
X141135714Y-144771428D01*
X141192857Y-144800000D01*
X141221428Y-144828571D01*
X141250000Y-144885714D01*
X141250000Y-144971428D01*
X141221428Y-145028571D01*
X141192857Y-145057142D01*
X141135714Y-145085714D01*
X140907142Y-145085714D01*
X141478571Y-144828571D02*
X141507142Y-144800000D01*
X141564285Y-144771428D01*
X141707142Y-144771428D01*
X141764285Y-144800000D01*
X141792857Y-144828571D01*
X141821428Y-144885714D01*
X141821428Y-144942857D01*
X141792857Y-145028571D01*
X141450000Y-145371428D01*
X141821428Y-145371428D01*
X137700000Y-118621428D02*
X137500000Y-118335714D01*
X137357142Y-118621428D02*
X137357142Y-118021428D01*
X137585714Y-118021428D01*
X137642857Y-118050000D01*
X137671428Y-118078571D01*
X137700000Y-118135714D01*
X137700000Y-118221428D01*
X137671428Y-118278571D01*
X137642857Y-118307142D01*
X137585714Y-118335714D01*
X137357142Y-118335714D01*
X138214285Y-118221428D02*
X138214285Y-118621428D01*
X138071428Y-117992857D02*
X137928571Y-118421428D01*
X138300000Y-118421428D01*
X138650000Y-103271428D02*
X138450000Y-102985714D01*
X138307142Y-103271428D02*
X138307142Y-102671428D01*
X138535714Y-102671428D01*
X138592857Y-102700000D01*
X138621428Y-102728571D01*
X138650000Y-102785714D01*
X138650000Y-102871428D01*
X138621428Y-102928571D01*
X138592857Y-102957142D01*
X138535714Y-102985714D01*
X138307142Y-102985714D01*
X138850000Y-102671428D02*
X139221428Y-102671428D01*
X139021428Y-102900000D01*
X139107142Y-102900000D01*
X139164285Y-102928571D01*
X139192857Y-102957142D01*
X139221428Y-103014285D01*
X139221428Y-103157142D01*
X139192857Y-103214285D01*
X139164285Y-103242857D01*
X139107142Y-103271428D01*
X138935714Y-103271428D01*
X138878571Y-103242857D01*
X138850000Y-103214285D01*
X136800000Y-115771428D02*
X136600000Y-115485714D01*
X136457142Y-115771428D02*
X136457142Y-115171428D01*
X136685714Y-115171428D01*
X136742857Y-115200000D01*
X136771428Y-115228571D01*
X136800000Y-115285714D01*
X136800000Y-115371428D01*
X136771428Y-115428571D01*
X136742857Y-115457142D01*
X136685714Y-115485714D01*
X136457142Y-115485714D01*
X137342857Y-115171428D02*
X137057142Y-115171428D01*
X137028571Y-115457142D01*
X137057142Y-115428571D01*
X137114285Y-115400000D01*
X137257142Y-115400000D01*
X137314285Y-115428571D01*
X137342857Y-115457142D01*
X137371428Y-115514285D01*
X137371428Y-115657142D01*
X137342857Y-115714285D01*
X137314285Y-115742857D01*
X137257142Y-115771428D01*
X137114285Y-115771428D01*
X137057142Y-115742857D01*
X137028571Y-115714285D01*
X138250000Y-142321428D02*
X138050000Y-142035714D01*
X137907142Y-142321428D02*
X137907142Y-141721428D01*
X138135714Y-141721428D01*
X138192857Y-141750000D01*
X138221428Y-141778571D01*
X138250000Y-141835714D01*
X138250000Y-141921428D01*
X138221428Y-141978571D01*
X138192857Y-142007142D01*
X138135714Y-142035714D01*
X137907142Y-142035714D01*
X138764285Y-141721428D02*
X138650000Y-141721428D01*
X138592857Y-141750000D01*
X138564285Y-141778571D01*
X138507142Y-141864285D01*
X138478571Y-141978571D01*
X138478571Y-142207142D01*
X138507142Y-142264285D01*
X138535714Y-142292857D01*
X138592857Y-142321428D01*
X138707142Y-142321428D01*
X138764285Y-142292857D01*
X138792857Y-142264285D01*
X138821428Y-142207142D01*
X138821428Y-142064285D01*
X138792857Y-142007142D01*
X138764285Y-141978571D01*
X138707142Y-141950000D01*
X138592857Y-141950000D01*
X138535714Y-141978571D01*
X138507142Y-142007142D01*
X138478571Y-142064285D01*
X132700000Y-111771428D02*
X132500000Y-111485714D01*
X132357142Y-111771428D02*
X132357142Y-111171428D01*
X132585714Y-111171428D01*
X132642857Y-111200000D01*
X132671428Y-111228571D01*
X132700000Y-111285714D01*
X132700000Y-111371428D01*
X132671428Y-111428571D01*
X132642857Y-111457142D01*
X132585714Y-111485714D01*
X132357142Y-111485714D01*
X132900000Y-111171428D02*
X133300000Y-111171428D01*
X133042857Y-111771428D01*
X129750000Y-111771428D02*
X129550000Y-111485714D01*
X129407142Y-111771428D02*
X129407142Y-111171428D01*
X129635714Y-111171428D01*
X129692857Y-111200000D01*
X129721428Y-111228571D01*
X129750000Y-111285714D01*
X129750000Y-111371428D01*
X129721428Y-111428571D01*
X129692857Y-111457142D01*
X129635714Y-111485714D01*
X129407142Y-111485714D01*
X130092857Y-111428571D02*
X130035714Y-111400000D01*
X130007142Y-111371428D01*
X129978571Y-111314285D01*
X129978571Y-111285714D01*
X130007142Y-111228571D01*
X130035714Y-111200000D01*
X130092857Y-111171428D01*
X130207142Y-111171428D01*
X130264285Y-111200000D01*
X130292857Y-111228571D01*
X130321428Y-111285714D01*
X130321428Y-111314285D01*
X130292857Y-111371428D01*
X130264285Y-111400000D01*
X130207142Y-111428571D01*
X130092857Y-111428571D01*
X130035714Y-111457142D01*
X130007142Y-111485714D01*
X129978571Y-111542857D01*
X129978571Y-111657142D01*
X130007142Y-111714285D01*
X130035714Y-111742857D01*
X130092857Y-111771428D01*
X130207142Y-111771428D01*
X130264285Y-111742857D01*
X130292857Y-111714285D01*
X130321428Y-111657142D01*
X130321428Y-111542857D01*
X130292857Y-111485714D01*
X130264285Y-111457142D01*
X130207142Y-111428571D01*
X129992857Y-110942857D02*
X130078571Y-110971428D01*
X130221428Y-110971428D01*
X130278571Y-110942857D01*
X130307142Y-110914285D01*
X130335714Y-110857142D01*
X130335714Y-110800000D01*
X130307142Y-110742857D01*
X130278571Y-110714285D01*
X130221428Y-110685714D01*
X130107142Y-110657142D01*
X130050000Y-110628571D01*
X130021428Y-110600000D01*
X129992857Y-110542857D01*
X129992857Y-110485714D01*
X130021428Y-110428571D01*
X130050000Y-110400000D01*
X130107142Y-110371428D01*
X130250000Y-110371428D01*
X130335714Y-110400000D01*
X130907142Y-110971428D02*
X130564285Y-110971428D01*
X130735714Y-110971428D02*
X130735714Y-110371428D01*
X130678571Y-110457142D01*
X130621428Y-110514285D01*
X130564285Y-110542857D01*
X136721428Y-140285714D02*
X137321428Y-140085714D01*
X136721428Y-139885714D01*
X137321428Y-139342857D02*
X137035714Y-139542857D01*
X137321428Y-139685714D02*
X136721428Y-139685714D01*
X136721428Y-139457142D01*
X136750000Y-139400000D01*
X136778571Y-139371428D01*
X136835714Y-139342857D01*
X136921428Y-139342857D01*
X136978571Y-139371428D01*
X137007142Y-139400000D01*
X137035714Y-139457142D01*
X137035714Y-139685714D01*
X137321428Y-138771428D02*
X137321428Y-139114285D01*
X137321428Y-138942857D02*
X136721428Y-138942857D01*
X136807142Y-139000000D01*
X136864285Y-139057142D01*
X136892857Y-139114285D01*
X130821428Y-140335714D02*
X131421428Y-140135714D01*
X130821428Y-139935714D01*
X131421428Y-139392857D02*
X131135714Y-139592857D01*
X131421428Y-139735714D02*
X130821428Y-139735714D01*
X130821428Y-139507142D01*
X130850000Y-139450000D01*
X130878571Y-139421428D01*
X130935714Y-139392857D01*
X131021428Y-139392857D01*
X131078571Y-139421428D01*
X131107142Y-139450000D01*
X131135714Y-139507142D01*
X131135714Y-139735714D01*
X130878571Y-139164285D02*
X130850000Y-139135714D01*
X130821428Y-139078571D01*
X130821428Y-138935714D01*
X130850000Y-138878571D01*
X130878571Y-138850000D01*
X130935714Y-138821428D01*
X130992857Y-138821428D01*
X131078571Y-138850000D01*
X131421428Y-139192857D01*
X131421428Y-138821428D01*
X130388883Y-119074213D02*
X130247461Y-119781319D01*
X130671725Y-119357055D02*
X129964619Y-119498477D01*
X130631319Y-120165177D02*
X130388883Y-119922741D01*
X130510101Y-120043959D02*
X130934365Y-119619695D01*
X130833350Y-119639898D01*
X130752538Y-119639898D01*
X130691928Y-119619695D01*
X133759086Y-130144416D02*
X133415634Y-130487867D01*
X133395431Y-130548477D01*
X133395431Y-130588883D01*
X133415634Y-130649492D01*
X133496446Y-130730304D01*
X133557055Y-130750507D01*
X133597461Y-130750507D01*
X133658071Y-130730304D01*
X134001522Y-130386852D01*
X134142944Y-130609086D02*
X134183350Y-130609086D01*
X134243959Y-130629289D01*
X134344974Y-130730304D01*
X134365177Y-130790913D01*
X134365177Y-130831319D01*
X134344974Y-130891928D01*
X134304568Y-130932335D01*
X134223756Y-130972741D01*
X133738883Y-130972741D01*
X134001522Y-131235380D01*
X137314285Y-130214285D02*
X137285714Y-130242857D01*
X137200000Y-130271428D01*
X137142857Y-130271428D01*
X137057142Y-130242857D01*
X137000000Y-130185714D01*
X136971428Y-130128571D01*
X136942857Y-130014285D01*
X136942857Y-129928571D01*
X136971428Y-129814285D01*
X137000000Y-129757142D01*
X137057142Y-129700000D01*
X137142857Y-129671428D01*
X137200000Y-129671428D01*
X137285714Y-129700000D01*
X137314285Y-129728571D01*
X137885714Y-130271428D02*
X137542857Y-130271428D01*
X137714285Y-130271428D02*
X137714285Y-129671428D01*
X137657142Y-129757142D01*
X137600000Y-129814285D01*
X137542857Y-129842857D01*
X138114285Y-129728571D02*
X138142857Y-129700000D01*
X138200000Y-129671428D01*
X138342857Y-129671428D01*
X138400000Y-129700000D01*
X138428571Y-129728571D01*
X138457142Y-129785714D01*
X138457142Y-129842857D01*
X138428571Y-129928571D01*
X138085714Y-130271428D01*
X138457142Y-130271428D01*
M02*
