G04 #@! TF.FileFunction,Soldermask,Top*
%FSLAX46Y46*%
G04 Gerber Fmt 4.6, Leading zero omitted, Abs format (unit mm)*
G04 Created by KiCad (PCBNEW 4.0.3+e1-6302~38~ubuntu16.04.1-stable) date Sat Aug 13 15:25:40 2016*
%MOMM*%
%LPD*%
G01*
G04 APERTURE LIST*
%ADD10C,0.100000*%
%ADD11R,1.150000X1.200000*%
%ADD12R,1.200000X1.150000*%
%ADD13R,1.600000X1.600000*%
%ADD14R,1.300000X2.900000*%
%ADD15R,0.600000X1.550000*%
%ADD16O,1.650000X1.350000*%
%ADD17O,1.400000X1.950000*%
%ADD18O,2.127200X2.432000*%
%ADD19O,2.400000X2.100000*%
%ADD20O,2.432000X2.127200*%
%ADD21R,1.300000X0.900000*%
%ADD22R,1.314400X1.314400*%
%ADD23R,0.900000X1.300000*%
%ADD24R,2.200000X2.000000*%
%ADD25R,0.908000X1.162000*%
%ADD26C,0.600000*%
%ADD27C,1.240000*%
G04 APERTURE END LIST*
D10*
D11*
X139650000Y-142400000D03*
X139650000Y-143900000D03*
X129100000Y-118950000D03*
X129100000Y-120450000D03*
D12*
X129100000Y-132750000D03*
X130600000Y-132750000D03*
X133700000Y-114350000D03*
X132200000Y-114350000D03*
X130700000Y-114350000D03*
X129200000Y-114350000D03*
D11*
X135650000Y-136250000D03*
X135650000Y-137750000D03*
D12*
X132300000Y-133400000D03*
X133800000Y-133400000D03*
D11*
X135450000Y-117350000D03*
X135450000Y-115850000D03*
D12*
X139300000Y-119500000D03*
X137800000Y-119500000D03*
X129100000Y-130450000D03*
X130600000Y-130450000D03*
D11*
X139250000Y-129250000D03*
X139250000Y-130750000D03*
D13*
X129350000Y-107550000D03*
X129350000Y-109650000D03*
X138950000Y-107400000D03*
X138950000Y-109500000D03*
X138950000Y-113500000D03*
X138950000Y-111400000D03*
X140150000Y-140650000D03*
X142250000Y-140650000D03*
D14*
X128900000Y-140900000D03*
X126000000Y-140900000D03*
D15*
X132850000Y-141450000D03*
X133500000Y-141450000D03*
X134150000Y-141450000D03*
X134800000Y-141450000D03*
X135450000Y-141450000D03*
D16*
X136650000Y-141450000D03*
X131650000Y-141450000D03*
D17*
X137650000Y-144150000D03*
X130650000Y-144150000D03*
D18*
X131610000Y-101550000D03*
X134150000Y-101550000D03*
X136690000Y-101550000D03*
D19*
X126550000Y-101550000D03*
D20*
X126550000Y-104090000D03*
X126550000Y-106630000D03*
X126550000Y-109170000D03*
X126550000Y-111710000D03*
X126550000Y-114250000D03*
X126550000Y-116790000D03*
X126550000Y-119330000D03*
X126550000Y-121870000D03*
X126550000Y-124410000D03*
X126550000Y-126950000D03*
X126550000Y-129490000D03*
X126550000Y-132030000D03*
X126550000Y-134570000D03*
X126550000Y-137110000D03*
D19*
X141800000Y-101550000D03*
D20*
X141800000Y-104090000D03*
X141800000Y-106630000D03*
X141800000Y-109170000D03*
X141800000Y-111710000D03*
X141800000Y-114250000D03*
X141800000Y-116790000D03*
X141800000Y-119330000D03*
X141800000Y-121870000D03*
X141800000Y-124410000D03*
X141800000Y-126950000D03*
X141800000Y-129490000D03*
X141800000Y-132030000D03*
X141800000Y-134570000D03*
X141800000Y-137110000D03*
D21*
X129250000Y-115750000D03*
X129250000Y-117250000D03*
D22*
X135261000Y-112484000D03*
X137039000Y-112484000D03*
X136150000Y-114516000D03*
X137172000Y-136034000D03*
X138950000Y-136034000D03*
X138061000Y-138066000D03*
X129161000Y-136534000D03*
X130939000Y-136534000D03*
X130050000Y-138566000D03*
X138789000Y-133016000D03*
X137011000Y-133016000D03*
X137900000Y-130984000D03*
D21*
X129600000Y-103900000D03*
X129600000Y-105400000D03*
X141350000Y-142400000D03*
X141350000Y-143900000D03*
D23*
X137700000Y-117100000D03*
X139200000Y-117100000D03*
D21*
X138750000Y-103900000D03*
X138750000Y-105400000D03*
X135400000Y-132700000D03*
X135400000Y-134200000D03*
D23*
X137950000Y-115200000D03*
X139450000Y-115200000D03*
X137700000Y-134550000D03*
X139200000Y-134550000D03*
X129050000Y-135000000D03*
X130550000Y-135000000D03*
D21*
X138400000Y-139550000D03*
X138400000Y-141050000D03*
D23*
X133550000Y-112700000D03*
X132050000Y-112700000D03*
X129100000Y-112700000D03*
X130600000Y-112700000D03*
D24*
X131450000Y-109000000D03*
X136850000Y-109000000D03*
D25*
X132297500Y-137870000D03*
X134202500Y-137870000D03*
X132297500Y-135330000D03*
X133250000Y-137870000D03*
X134202500Y-135330000D03*
D23*
X134650000Y-139550000D03*
X136150000Y-139550000D03*
X133450000Y-139550000D03*
X131950000Y-139550000D03*
D10*
G36*
X132801040Y-115322614D02*
X134427386Y-116948960D01*
X133366726Y-118009620D01*
X131740380Y-116383274D01*
X132801040Y-115322614D01*
X132801040Y-115322614D01*
G37*
G36*
X131033274Y-117090380D02*
X132659620Y-118716726D01*
X131598960Y-119777386D01*
X129972614Y-118151040D01*
X131033274Y-117090380D01*
X131033274Y-117090380D01*
G37*
G36*
X132187779Y-119608311D02*
X132647398Y-119148692D01*
X133849479Y-120350773D01*
X133389860Y-120810392D01*
X132187779Y-119608311D01*
X132187779Y-119608311D01*
G37*
G36*
X131834226Y-119961864D02*
X132293845Y-119502245D01*
X133495926Y-120704326D01*
X133036307Y-121163945D01*
X131834226Y-119961864D01*
X131834226Y-119961864D01*
G37*
G36*
X131480672Y-120315418D02*
X131940291Y-119855799D01*
X133142372Y-121057880D01*
X132682753Y-121517499D01*
X131480672Y-120315418D01*
X131480672Y-120315418D01*
G37*
G36*
X131127119Y-120668971D02*
X131586738Y-120209352D01*
X132788819Y-121411433D01*
X132329200Y-121871052D01*
X131127119Y-120668971D01*
X131127119Y-120668971D01*
G37*
G36*
X130773566Y-121022524D02*
X131233185Y-120562905D01*
X132435266Y-121764986D01*
X131975647Y-122224605D01*
X130773566Y-121022524D01*
X130773566Y-121022524D01*
G37*
G36*
X130420012Y-121376078D02*
X130879631Y-120916459D01*
X132081712Y-122118540D01*
X131622093Y-122578159D01*
X130420012Y-121376078D01*
X130420012Y-121376078D01*
G37*
G36*
X130066459Y-121729631D02*
X130526078Y-121270012D01*
X131728159Y-122472093D01*
X131268540Y-122931712D01*
X130066459Y-121729631D01*
X130066459Y-121729631D01*
G37*
G36*
X129712905Y-122083185D02*
X130172524Y-121623566D01*
X131374605Y-122825647D01*
X130914986Y-123285266D01*
X129712905Y-122083185D01*
X129712905Y-122083185D01*
G37*
G36*
X129359352Y-122436738D02*
X129818971Y-121977119D01*
X131021052Y-123179200D01*
X130561433Y-123638819D01*
X129359352Y-122436738D01*
X129359352Y-122436738D01*
G37*
G36*
X129005799Y-122790291D02*
X129465418Y-122330672D01*
X130667499Y-123532753D01*
X130207880Y-123992372D01*
X129005799Y-122790291D01*
X129005799Y-122790291D01*
G37*
G36*
X128652245Y-123143845D02*
X129111864Y-122684226D01*
X130313945Y-123886307D01*
X129854326Y-124345926D01*
X128652245Y-123143845D01*
X128652245Y-123143845D01*
G37*
G36*
X128298692Y-123497398D02*
X128758311Y-123037779D01*
X129960392Y-124239860D01*
X129500773Y-124699479D01*
X128298692Y-123497398D01*
X128298692Y-123497398D01*
G37*
G36*
X128758311Y-126962221D02*
X128298692Y-126502602D01*
X129500773Y-125300521D01*
X129960392Y-125760140D01*
X128758311Y-126962221D01*
X128758311Y-126962221D01*
G37*
G36*
X129111864Y-127315774D02*
X128652245Y-126856155D01*
X129854326Y-125654074D01*
X130313945Y-126113693D01*
X129111864Y-127315774D01*
X129111864Y-127315774D01*
G37*
G36*
X129465418Y-127669328D02*
X129005799Y-127209709D01*
X130207880Y-126007628D01*
X130667499Y-126467247D01*
X129465418Y-127669328D01*
X129465418Y-127669328D01*
G37*
G36*
X129818971Y-128022881D02*
X129359352Y-127563262D01*
X130561433Y-126361181D01*
X131021052Y-126820800D01*
X129818971Y-128022881D01*
X129818971Y-128022881D01*
G37*
G36*
X130172524Y-128376434D02*
X129712905Y-127916815D01*
X130914986Y-126714734D01*
X131374605Y-127174353D01*
X130172524Y-128376434D01*
X130172524Y-128376434D01*
G37*
G36*
X130526078Y-128729988D02*
X130066459Y-128270369D01*
X131268540Y-127068288D01*
X131728159Y-127527907D01*
X130526078Y-128729988D01*
X130526078Y-128729988D01*
G37*
G36*
X130879631Y-129083541D02*
X130420012Y-128623922D01*
X131622093Y-127421841D01*
X132081712Y-127881460D01*
X130879631Y-129083541D01*
X130879631Y-129083541D01*
G37*
G36*
X131233185Y-129437095D02*
X130773566Y-128977476D01*
X131975647Y-127775395D01*
X132435266Y-128235014D01*
X131233185Y-129437095D01*
X131233185Y-129437095D01*
G37*
G36*
X131586738Y-129790648D02*
X131127119Y-129331029D01*
X132329200Y-128128948D01*
X132788819Y-128588567D01*
X131586738Y-129790648D01*
X131586738Y-129790648D01*
G37*
G36*
X131940291Y-130144201D02*
X131480672Y-129684582D01*
X132682753Y-128482501D01*
X133142372Y-128942120D01*
X131940291Y-130144201D01*
X131940291Y-130144201D01*
G37*
G36*
X132293845Y-130497755D02*
X131834226Y-130038136D01*
X133036307Y-128836055D01*
X133495926Y-129295674D01*
X132293845Y-130497755D01*
X132293845Y-130497755D01*
G37*
G36*
X132647398Y-130851308D02*
X132187779Y-130391689D01*
X133389860Y-129189608D01*
X133849479Y-129649227D01*
X132647398Y-130851308D01*
X132647398Y-130851308D01*
G37*
G36*
X134450521Y-129649227D02*
X134910140Y-129189608D01*
X136112221Y-130391689D01*
X135652602Y-130851308D01*
X134450521Y-129649227D01*
X134450521Y-129649227D01*
G37*
G36*
X134804074Y-129295674D02*
X135263693Y-128836055D01*
X136465774Y-130038136D01*
X136006155Y-130497755D01*
X134804074Y-129295674D01*
X134804074Y-129295674D01*
G37*
G36*
X135157628Y-128942120D02*
X135617247Y-128482501D01*
X136819328Y-129684582D01*
X136359709Y-130144201D01*
X135157628Y-128942120D01*
X135157628Y-128942120D01*
G37*
G36*
X135511181Y-128588567D02*
X135970800Y-128128948D01*
X137172881Y-129331029D01*
X136713262Y-129790648D01*
X135511181Y-128588567D01*
X135511181Y-128588567D01*
G37*
G36*
X135864734Y-128235014D02*
X136324353Y-127775395D01*
X137526434Y-128977476D01*
X137066815Y-129437095D01*
X135864734Y-128235014D01*
X135864734Y-128235014D01*
G37*
G36*
X136218288Y-127881460D02*
X136677907Y-127421841D01*
X137879988Y-128623922D01*
X137420369Y-129083541D01*
X136218288Y-127881460D01*
X136218288Y-127881460D01*
G37*
G36*
X136571841Y-127527907D02*
X137031460Y-127068288D01*
X138233541Y-128270369D01*
X137773922Y-128729988D01*
X136571841Y-127527907D01*
X136571841Y-127527907D01*
G37*
G36*
X136925395Y-127174353D02*
X137385014Y-126714734D01*
X138587095Y-127916815D01*
X138127476Y-128376434D01*
X136925395Y-127174353D01*
X136925395Y-127174353D01*
G37*
G36*
X137278948Y-126820800D02*
X137738567Y-126361181D01*
X138940648Y-127563262D01*
X138481029Y-128022881D01*
X137278948Y-126820800D01*
X137278948Y-126820800D01*
G37*
G36*
X137632501Y-126467247D02*
X138092120Y-126007628D01*
X139294201Y-127209709D01*
X138834582Y-127669328D01*
X137632501Y-126467247D01*
X137632501Y-126467247D01*
G37*
G36*
X137986055Y-126113693D02*
X138445674Y-125654074D01*
X139647755Y-126856155D01*
X139188136Y-127315774D01*
X137986055Y-126113693D01*
X137986055Y-126113693D01*
G37*
G36*
X138339608Y-125760140D02*
X138799227Y-125300521D01*
X140001308Y-126502602D01*
X139541689Y-126962221D01*
X138339608Y-125760140D01*
X138339608Y-125760140D01*
G37*
G36*
X138799227Y-124699479D02*
X138339608Y-124239860D01*
X139541689Y-123037779D01*
X140001308Y-123497398D01*
X138799227Y-124699479D01*
X138799227Y-124699479D01*
G37*
G36*
X138445674Y-124345926D02*
X137986055Y-123886307D01*
X139188136Y-122684226D01*
X139647755Y-123143845D01*
X138445674Y-124345926D01*
X138445674Y-124345926D01*
G37*
G36*
X138092120Y-123992372D02*
X137632501Y-123532753D01*
X138834582Y-122330672D01*
X139294201Y-122790291D01*
X138092120Y-123992372D01*
X138092120Y-123992372D01*
G37*
G36*
X137738567Y-123638819D02*
X137278948Y-123179200D01*
X138481029Y-121977119D01*
X138940648Y-122436738D01*
X137738567Y-123638819D01*
X137738567Y-123638819D01*
G37*
G36*
X137385014Y-123285266D02*
X136925395Y-122825647D01*
X138127476Y-121623566D01*
X138587095Y-122083185D01*
X137385014Y-123285266D01*
X137385014Y-123285266D01*
G37*
G36*
X137031460Y-122931712D02*
X136571841Y-122472093D01*
X137773922Y-121270012D01*
X138233541Y-121729631D01*
X137031460Y-122931712D01*
X137031460Y-122931712D01*
G37*
G36*
X136677907Y-122578159D02*
X136218288Y-122118540D01*
X137420369Y-120916459D01*
X137879988Y-121376078D01*
X136677907Y-122578159D01*
X136677907Y-122578159D01*
G37*
G36*
X136324353Y-122224605D02*
X135864734Y-121764986D01*
X137066815Y-120562905D01*
X137526434Y-121022524D01*
X136324353Y-122224605D01*
X136324353Y-122224605D01*
G37*
G36*
X135970800Y-121871052D02*
X135511181Y-121411433D01*
X136713262Y-120209352D01*
X137172881Y-120668971D01*
X135970800Y-121871052D01*
X135970800Y-121871052D01*
G37*
G36*
X135617247Y-121517499D02*
X135157628Y-121057880D01*
X136359709Y-119855799D01*
X136819328Y-120315418D01*
X135617247Y-121517499D01*
X135617247Y-121517499D01*
G37*
G36*
X135263693Y-121163945D02*
X134804074Y-120704326D01*
X136006155Y-119502245D01*
X136465774Y-119961864D01*
X135263693Y-121163945D01*
X135263693Y-121163945D01*
G37*
G36*
X134910140Y-120810392D02*
X134450521Y-120350773D01*
X135652602Y-119148692D01*
X136112221Y-119608311D01*
X134910140Y-120810392D01*
X134910140Y-120810392D01*
G37*
D26*
X137000000Y-132000000D03*
D27*
X136690000Y-104415000D03*
X136690000Y-105685000D03*
X135420000Y-104415000D03*
X135420000Y-105685000D03*
X134150000Y-104415000D03*
X134150000Y-105685000D03*
X132880000Y-104415000D03*
X132880000Y-105685000D03*
X131610000Y-104415000D03*
X131610000Y-105685000D03*
D26*
X129250000Y-116500000D03*
M02*
