  0
SECTION
  2
HEADER
  9
$ANGBASE
  50
0.0
  9
$ANGDIR
  70
  1
  9
$MEASUREMENT
  70
0
  0
ENDSEC
  0
SECTION
  2
TABLES
  0
TABLE
  2
LTYPE
  70
1
  0
LTYPE
  2
CONTINUOUS
  70
0
  3
Solid line
  72
65
  73
0
  40
0.0
  0
ENDTAB
  0
TABLE
  2
STYLE
  70
4
  0
STYLE
  2
KICAD
  70
0
  40
0
  41
1
  42
1
  50
0
  71
0
  3
isocp.shx
  0
STYLE
  2
KICADB
  70
0
  40
0
  41
1
  42
1
  50
0
  71
0
  3
isocp.shx
  0
STYLE
  2
KICADI
  70
0
  40
0
  41
1
  42
1
  50
15
  71
0
  3
isocp.shx
  0
STYLE
  2
KICADBI
  70
0
  40
0
  41
1
  42
1
  50
15
  71
0
  3
isocp.shx
  0
ENDTAB
  0
TABLE
  2
LAYER
  70
30
  0
LAYER
  2
BLACK
  70
0
  62
7
  6
CONTINUOUS
  0
LAYER
  2
GRAY1
  70
0
  62
251
  6
CONTINUOUS
  0
LAYER
  2
GRAY2
  70
0
  62
8
  6
CONTINUOUS
  0
LAYER
  2
GRAY3
  70
0
  62
9
  6
CONTINUOUS
  0
LAYER
  2
WHITE
  70
0
  62
7
  6
CONTINUOUS
  0
LAYER
  2
LYELLOW
  70
0
  62
51
  6
CONTINUOUS
  0
LAYER
  2
BLUE1
  70
0
  62
178
  6
CONTINUOUS
  0
LAYER
  2
GREEN1
  70
0
  62
98
  6
CONTINUOUS
  0
LAYER
  2
CYAN1
  70
0
  62
138
  6
CONTINUOUS
  0
LAYER
  2
RED1
  70
0
  62
18
  6
CONTINUOUS
  0
LAYER
  2
MAGENTA1
  70
0
  62
228
  6
CONTINUOUS
  0
LAYER
  2
BROWN1
  70
0
  62
58
  6
CONTINUOUS
  0
LAYER
  2
BLUE2
  70
0
  62
5
  6
CONTINUOUS
  0
LAYER
  2
GREEN2
  70
0
  62
3
  6
CONTINUOUS
  0
LAYER
  2
CYAN2
  70
0
  62
4
  6
CONTINUOUS
  0
LAYER
  2
RED2
  70
0
  62
1
  6
CONTINUOUS
  0
LAYER
  2
MAGENTA2
  70
0
  62
6
  6
CONTINUOUS
  0
LAYER
  2
BROWN2
  70
0
  62
54
  6
CONTINUOUS
  0
LAYER
  2
BLUE3
  70
0
  62
171
  6
CONTINUOUS
  0
LAYER
  2
GREEN3
  70
0
  62
91
  6
CONTINUOUS
  0
LAYER
  2
CYAN3
  70
0
  62
131
  6
CONTINUOUS
  0
LAYER
  2
RED3
  70
0
  62
11
  6
CONTINUOUS
  0
LAYER
  2
MAGENTA3
  70
0
  62
221
  6
CONTINUOUS
  0
LAYER
  2
YELLOW3
  70
0
  62
2
  6
CONTINUOUS
  0
LAYER
  2
BLUE4
  70
0
  62
5
  6
CONTINUOUS
  0
LAYER
  2
GREEN4
  70
0
  62
3
  6
CONTINUOUS
  0
LAYER
  2
CYAN4
  70
0
  62
4
  6
CONTINUOUS
  0
LAYER
  2
RED4
  70
0
  62
1
  6
CONTINUOUS
  0
LAYER
  2
MAGENTA4
  70
0
  62
6
  6
CONTINUOUS
  0
LAYER
  2
YELLOW4
  70
0
  62
2
  6
CONTINUOUS
  0
ENDTAB
  0
ENDSEC
  0
SECTION
  2
ENTITIES
0
LINE
8
Black
10
140.025
20
-144.3
11
139.275
21
-144.3
0
LINE
8
Black
10
139.275
20
-144.3
11
139.275
21
-143.5
0
LINE
8
Black
10
139.275
20
-143.5
11
140.025
21
-143.5
0
LINE
8
Black
10
140.025
20
-143.5
11
140.025
21
-144.3
0
LINE
8
Black
10
141.8
20
-144.15
11
140.9
21
-144.15
0
LINE
8
Black
10
140.9
20
-144.15
11
140.9
21
-143.65
0
LINE
8
Black
10
140.9
20
-143.65
11
141.8
21
-143.65
0
LINE
8
Black
10
141.8
20
-143.65
11
141.8
21
-144.15
0
LINE
8
Black
10
140.025
20
-142.8
11
139.275
21
-142.8
0
LINE
8
Black
10
139.275
20
-142.8
11
139.275
21
-142
0
LINE
8
Black
10
139.275
20
-142
11
140.025
21
-142
0
LINE
8
Black
10
140.025
20
-142
11
140.025
21
-142.8
0
LINE
8
Black
10
141.8
20
-142.65
11
140.9
21
-142.65
0
LINE
8
Black
10
140.9
20
-142.65
11
140.9
21
-142.15
0
LINE
8
Black
10
140.9
20
-142.15
11
141.8
21
-142.15
0
LINE
8
Black
10
141.8
20
-142.15
11
141.8
21
-142.65
0
LINE
8
Black
10
129.35
20
-142.15
11
128.45
21
-142.15
0
LINE
8
Black
10
128.45
20
-142.15
11
128.45
21
-139.65
0
LINE
8
Black
10
128.45
20
-139.65
11
129.35
21
-139.65
0
LINE
8
Black
10
129.35
20
-139.65
11
129.35
21
-142.15
0
LINE
8
Black
10
126.45
20
-142.15
11
125.55
21
-142.15
0
LINE
8
Black
10
125.55
20
-142.15
11
125.55
21
-139.65
0
LINE
8
Black
10
125.55
20
-139.65
11
126.45
21
-139.65
0
LINE
8
Black
10
126.45
20
-139.65
11
126.45
21
-142.15
0
LINE
8
Black
10
135.65
20
-142.125
11
135.25
21
-142.125
0
LINE
8
Black
10
135.25
20
-142.125
11
135.25
21
-140.775
0
LINE
8
Black
10
135.25
20
-140.775
11
135.65
21
-140.775
0
LINE
8
Black
10
135.65
20
-140.775
11
135.65
21
-142.125
0
LINE
8
Black
10
133.05
20
-142.125
11
132.65
21
-142.125
0
LINE
8
Black
10
132.65
20
-142.125
11
132.65
21
-140.775
0
LINE
8
Black
10
132.65
20
-140.775
11
133.05
21
-140.775
0
LINE
8
Black
10
133.05
20
-140.775
11
133.05
21
-142.125
0
LINE
8
Black
10
133.7
20
-142.125
11
133.3
21
-142.125
0
LINE
8
Black
10
133.3
20
-142.125
11
133.3
21
-140.775
0
LINE
8
Black
10
133.3
20
-140.775
11
133.7
21
-140.775
0
LINE
8
Black
10
133.7
20
-140.775
11
133.7
21
-142.125
0
LINE
8
Black
10
134.35
20
-142.125
11
133.95
21
-142.125
0
LINE
8
Black
10
133.95
20
-142.125
11
133.95
21
-140.775
0
LINE
8
Black
10
133.95
20
-140.775
11
134.35
21
-140.775
0
LINE
8
Black
10
134.35
20
-140.775
11
134.35
21
-142.125
0
LINE
8
Black
10
135
20
-142.125
11
134.6
21
-142.125
0
LINE
8
Black
10
134.6
20
-142.125
11
134.6
21
-140.775
0
LINE
8
Black
10
134.6
20
-140.775
11
135
21
-140.775
0
LINE
8
Black
10
135
20
-140.775
11
135
21
-142.125
0
LINE
8
Black
10
138.85
20
-141.3
11
137.95
21
-141.3
0
LINE
8
Black
10
137.95
20
-141.3
11
137.95
21
-140.8
0
LINE
8
Black
10
137.95
20
-140.8
11
138.85
21
-140.8
0
LINE
8
Black
10
138.85
20
-140.8
11
138.85
21
-141.3
0
LINE
8
Black
10
142.85
20
-141.25
11
141.65
21
-141.25
0
LINE
8
Black
10
141.65
20
-141.25
11
141.65
21
-140.05
0
LINE
8
Black
10
141.65
20
-140.05
11
142.85
21
-140.05
0
LINE
8
Black
10
142.85
20
-140.05
11
142.85
21
-141.25
0
LINE
8
Black
10
140.75
20
-141.25
11
139.55
21
-141.25
0
LINE
8
Black
10
139.55
20
-141.25
11
139.55
21
-140.05
0
LINE
8
Black
10
139.55
20
-140.05
11
140.75
21
-140.05
0
LINE
8
Black
10
140.75
20
-140.05
11
140.75
21
-141.25
0
LINE
8
Black
10
134.9
20
-140
11
134.4
21
-140
0
LINE
8
Black
10
134.4
20
-140
11
134.4
21
-139.1
0
LINE
8
Black
10
134.4
20
-139.1
11
134.9
21
-139.1
0
LINE
8
Black
10
134.9
20
-139.1
11
134.9
21
-140
0
LINE
8
Black
10
136.4
20
-140
11
135.9
21
-140
0
LINE
8
Black
10
135.9
20
-140
11
135.9
21
-139.1
0
LINE
8
Black
10
135.9
20
-139.1
11
136.4
21
-139.1
0
LINE
8
Black
10
136.4
20
-139.1
11
136.4
21
-140
0
LINE
8
Black
10
133.7
20
-140
11
133.2
21
-140
0
LINE
8
Black
10
133.2
20
-140
11
133.2
21
-139.1
0
LINE
8
Black
10
133.2
20
-139.1
11
133.7
21
-139.1
0
LINE
8
Black
10
133.7
20
-139.1
11
133.7
21
-140
0
LINE
8
Black
10
132.2
20
-140
11
131.7
21
-140
0
LINE
8
Black
10
131.7
20
-140
11
131.7
21
-139.1
0
LINE
8
Black
10
131.7
20
-139.1
11
132.2
21
-139.1
0
LINE
8
Black
10
132.2
20
-139.1
11
132.2
21
-140
0
LINE
8
Black
10
138.85
20
-139.8
11
137.95
21
-139.8
0
LINE
8
Black
10
137.95
20
-139.8
11
137.95
21
-139.3
0
LINE
8
Black
10
137.95
20
-139.3
11
138.85
21
-139.3
0
LINE
8
Black
10
138.85
20
-139.3
11
138.85
21
-139.8
0
LINE
8
Black
10
130.25
20
-138.455
11
129.85
21
-138.455
0
LINE
8
Black
10
129.85
20
-138.455
11
129.85
21
-137.945
0
LINE
8
Black
10
129.85
20
-137.945
11
130.25
21
-137.945
0
LINE
8
Black
10
130.25
20
-137.945
11
130.25
21
-138.455
0
LINE
8
Black
10
133.504
20
-138.251
11
132.996
21
-138.251
0
LINE
8
Black
10
132.996
20
-138.251
11
132.996
21
-137.489
0
LINE
8
Black
10
132.996
20
-137.489
11
133.504
21
-137.489
0
LINE
8
Black
10
133.504
20
-137.489
11
133.504
21
-138.251
0
LINE
8
Black
10
134.457
20
-138.251
11
133.948
21
-138.251
0
LINE
8
Black
10
133.948
20
-138.251
11
133.948
21
-137.489
0
LINE
8
Black
10
133.948
20
-137.489
11
134.457
21
-137.489
0
LINE
8
Black
10
134.457
20
-137.489
11
134.457
21
-138.251
0
LINE
8
Black
10
132.552
20
-138.251
11
132.043
21
-138.251
0
LINE
8
Black
10
132.043
20
-138.251
11
132.043
21
-137.489
0
LINE
8
Black
10
132.043
20
-137.489
11
132.552
21
-137.489
0
LINE
8
Black
10
132.552
20
-137.489
11
132.552
21
-138.251
0
LINE
8
Black
10
136.025
20
-138.15
11
135.275
21
-138.15
0
LINE
8
Black
10
135.275
20
-138.15
11
135.275
21
-137.35
0
LINE
8
Black
10
135.275
20
-137.35
11
136.025
21
-137.35
0
LINE
8
Black
10
136.025
20
-137.35
11
136.025
21
-138.15
0
LINE
8
Black
10
138.261
20
-137.955
11
137.861
21
-137.955
0
LINE
8
Black
10
137.861
20
-137.955
11
137.861
21
-137.445
0
LINE
8
Black
10
137.861
20
-137.445
11
138.261
21
-137.445
0
LINE
8
Black
10
138.261
20
-137.445
11
138.261
21
-137.955
0
LINE
8
Black
10
130.75
20
-137.155
11
130.35
21
-137.155
0
LINE
8
Black
10
130.35
20
-137.155
11
130.35
21
-136.645
0
LINE
8
Black
10
130.35
20
-136.645
11
130.75
21
-136.645
0
LINE
8
Black
10
130.75
20
-136.645
11
130.75
21
-137.155
0
LINE
8
Black
10
129.75
20
-137.155
11
129.35
21
-137.155
0
LINE
8
Black
10
129.35
20
-137.155
11
129.35
21
-136.645
0
LINE
8
Black
10
129.35
20
-136.645
11
129.75
21
-136.645
0
LINE
8
Black
10
129.75
20
-136.645
11
129.75
21
-137.155
0
LINE
8
Black
10
137.761
20
-136.655
11
137.361
21
-136.655
0
LINE
8
Black
10
137.361
20
-136.655
11
137.361
21
-136.145
0
LINE
8
Black
10
137.361
20
-136.145
11
137.761
21
-136.145
0
LINE
8
Black
10
137.761
20
-136.145
11
137.761
21
-136.655
0
LINE
8
Black
10
138.761
20
-136.655
11
138.361
21
-136.655
0
LINE
8
Black
10
138.361
20
-136.655
11
138.361
21
-136.145
0
LINE
8
Black
10
138.361
20
-136.145
11
138.761
21
-136.145
0
LINE
8
Black
10
138.761
20
-136.145
11
138.761
21
-136.655
0
LINE
8
Black
10
136.025
20
-136.65
11
135.275
21
-136.65
0
LINE
8
Black
10
135.275
20
-136.65
11
135.275
21
-135.85
0
LINE
8
Black
10
135.275
20
-135.85
11
136.025
21
-135.85
0
LINE
8
Black
10
136.025
20
-135.85
11
136.025
21
-136.65
0
LINE
8
Black
10
134.457
20
-135.711
11
133.948
21
-135.711
0
LINE
8
Black
10
133.948
20
-135.711
11
133.948
21
-134.949
0
LINE
8
Black
10
133.948
20
-134.949
11
134.457
21
-134.949
0
LINE
8
Black
10
134.457
20
-134.949
11
134.457
21
-135.711
0
LINE
8
Black
10
132.552
20
-135.711
11
132.043
21
-135.711
0
LINE
8
Black
10
132.043
20
-135.711
11
132.043
21
-134.949
0
LINE
8
Black
10
132.043
20
-134.949
11
132.552
21
-134.949
0
LINE
8
Black
10
132.552
20
-134.949
11
132.552
21
-135.711
0
LINE
8
Black
10
129.3
20
-135.45
11
128.8
21
-135.45
0
LINE
8
Black
10
128.8
20
-135.45
11
128.8
21
-134.55
0
LINE
8
Black
10
128.8
20
-134.55
11
129.3
21
-134.55
0
LINE
8
Black
10
129.3
20
-134.55
11
129.3
21
-135.45
0
LINE
8
Black
10
130.8
20
-135.45
11
130.3
21
-135.45
0
LINE
8
Black
10
130.3
20
-135.45
11
130.3
21
-134.55
0
LINE
8
Black
10
130.3
20
-134.55
11
130.8
21
-134.55
0
LINE
8
Black
10
130.8
20
-134.55
11
130.8
21
-135.45
0
LINE
8
Black
10
139.45
20
-135
11
138.95
21
-135
0
LINE
8
Black
10
138.95
20
-135
11
138.95
21
-134.1
0
LINE
8
Black
10
138.95
20
-134.1
11
139.45
21
-134.1
0
LINE
8
Black
10
139.45
20
-134.1
11
139.45
21
-135
0
LINE
8
Black
10
137.95
20
-135
11
137.45
21
-135
0
LINE
8
Black
10
137.45
20
-135
11
137.45
21
-134.1
0
LINE
8
Black
10
137.45
20
-134.1
11
137.95
21
-134.1
0
LINE
8
Black
10
137.95
20
-134.1
11
137.95
21
-135
0
LINE
8
Black
10
135.85
20
-134.45
11
134.95
21
-134.45
0
LINE
8
Black
10
134.95
20
-134.45
11
134.95
21
-133.95
0
LINE
8
Black
10
134.95
20
-133.95
11
135.85
21
-133.95
0
LINE
8
Black
10
135.85
20
-133.95
11
135.85
21
-134.45
0
LINE
8
Black
10
132.7
20
-133.775
11
131.9
21
-133.775
0
LINE
8
Black
10
131.9
20
-133.775
11
131.9
21
-133.025
0
LINE
8
Black
10
131.9
20
-133.025
11
132.7
21
-133.025
0
LINE
8
Black
10
132.7
20
-133.025
11
132.7
21
-133.775
0
LINE
8
Black
10
134.2
20
-133.775
11
133.4
21
-133.775
0
LINE
8
Black
10
133.4
20
-133.775
11
133.4
21
-133.025
0
LINE
8
Black
10
133.4
20
-133.025
11
134.2
21
-133.025
0
LINE
8
Black
10
134.2
20
-133.025
11
134.2
21
-133.775
0
LINE
8
Black
10
131
20
-133.125
11
130.2
21
-133.125
0
LINE
8
Black
10
130.2
20
-133.125
11
130.2
21
-132.375
0
LINE
8
Black
10
130.2
20
-132.375
11
131
21
-132.375
0
LINE
8
Black
10
131
20
-132.375
11
131
21
-133.125
0
LINE
8
Black
10
129.5
20
-133.125
11
128.7
21
-133.125
0
LINE
8
Black
10
128.7
20
-133.125
11
128.7
21
-132.375
0
LINE
8
Black
10
128.7
20
-132.375
11
129.5
21
-132.375
0
LINE
8
Black
10
129.5
20
-132.375
11
129.5
21
-133.125
0
LINE
8
Black
10
135.85
20
-132.95
11
134.95
21
-132.95
0
LINE
8
Black
10
134.95
20
-132.95
11
134.95
21
-132.45
0
LINE
8
Black
10
134.95
20
-132.45
11
135.85
21
-132.45
0
LINE
8
Black
10
135.85
20
-132.45
11
135.85
21
-132.95
0
LINE
8
Black
10
138.6
20
-132.905
11
138.2
21
-132.905
0
LINE
8
Black
10
138.2
20
-132.905
11
138.2
21
-132.395
0
LINE
8
Black
10
138.2
20
-132.395
11
138.6
21
-132.395
0
LINE
8
Black
10
138.6
20
-132.395
11
138.6
21
-132.905
0
LINE
8
Black
10
137.6
20
-132.905
11
137.2
21
-132.905
0
LINE
8
Black
10
137.2
20
-132.905
11
137.2
21
-132.395
0
LINE
8
Black
10
137.2
20
-132.395
11
137.6
21
-132.395
0
LINE
8
Black
10
137.6
20
-132.395
11
137.6
21
-132.905
0
LINE
8
Black
10
138.1
20
-131.605
11
137.7
21
-131.605
0
LINE
8
Black
10
137.7
20
-131.605
11
137.7
21
-131.095
0
LINE
8
Black
10
137.7
20
-131.095
11
138.1
21
-131.095
0
LINE
8
Black
10
138.1
20
-131.095
11
138.1
21
-131.605
0
LINE
8
Black
10
139.575
20
-131.15
11
138.825
21
-131.15
0
LINE
8
Black
10
138.825
20
-131.15
11
138.825
21
-130.35
0
LINE
8
Black
10
138.825
20
-130.35
11
139.575
21
-130.35
0
LINE
8
Black
10
139.575
20
-130.35
11
139.575
21
-131.15
0
LINE
8
Black
10
131
20
-130.825
11
130.2
21
-130.825
0
LINE
8
Black
10
130.2
20
-130.825
11
130.2
21
-130.075
0
LINE
8
Black
10
130.2
20
-130.075
11
131
21
-130.075
0
LINE
8
Black
10
131
20
-130.075
11
131
21
-130.825
0
LINE
8
Black
10
129.5
20
-130.825
11
128.7
21
-130.825
0
LINE
8
Black
10
128.7
20
-130.825
11
128.7
21
-130.075
0
LINE
8
Black
10
128.7
20
-130.075
11
129.5
21
-130.075
0
LINE
8
Black
10
129.5
20
-130.075
11
129.5
21
-130.825
0
LINE
8
Black
10
135.829
20
-130.392
11
135.653
21
-130.568
0
LINE
8
Black
10
135.653
20
-130.568
11
134.733
21
-129.649
0
LINE
8
Black
10
134.733
20
-129.649
11
134.91
21
-129.472
0
LINE
8
Black
10
134.91
20
-129.472
11
135.829
21
-130.392
0
LINE
8
Black
10
133.567
20
-129.649
11
132.647
21
-130.568
0
LINE
8
Black
10
132.647
20
-130.568
11
132.471
21
-130.392
0
LINE
8
Black
10
132.471
20
-130.392
11
133.39
21
-129.472
0
LINE
8
Black
10
133.39
20
-129.472
11
133.567
21
-129.649
0
LINE
8
Black
10
136.183
20
-130.038
11
136.006
21
-130.215
0
LINE
8
Black
10
136.006
20
-130.215
11
135.087
21
-129.296
0
LINE
8
Black
10
135.087
20
-129.296
11
135.264
21
-129.119
0
LINE
8
Black
10
135.264
20
-129.119
11
136.183
21
-130.038
0
LINE
8
Black
10
133.213
20
-129.296
11
132.294
21
-130.215
0
LINE
8
Black
10
132.294
20
-130.215
11
132.117
21
-130.038
0
LINE
8
Black
10
132.117
20
-130.038
11
133.036
21
-129.119
0
LINE
8
Black
10
133.036
20
-129.119
11
133.213
21
-129.296
0
LINE
8
Black
10
136.536
20
-129.685
11
136.36
21
-129.861
0
LINE
8
Black
10
136.36
20
-129.861
11
135.44
21
-128.942
0
LINE
8
Black
10
135.44
20
-128.942
11
135.617
21
-128.765
0
LINE
8
Black
10
135.617
20
-128.765
11
136.536
21
-129.685
0
LINE
8
Black
10
132.86
20
-128.942
11
131.94
21
-129.861
0
LINE
8
Black
10
131.94
20
-129.861
11
131.764
21
-129.685
0
LINE
8
Black
10
131.764
20
-129.685
11
132.683
21
-128.765
0
LINE
8
Black
10
132.683
20
-128.765
11
132.86
21
-128.942
0
LINE
8
Black
10
139.575
20
-129.65
11
138.825
21
-129.65
0
LINE
8
Black
10
138.825
20
-129.65
11
138.825
21
-128.85
0
LINE
8
Black
10
138.825
20
-128.85
11
139.575
21
-128.85
0
LINE
8
Black
10
139.575
20
-128.85
11
139.575
21
-129.65
0
LINE
8
Black
10
136.89
20
-129.331
11
136.713
21
-129.508
0
LINE
8
Black
10
136.713
20
-129.508
11
135.794
21
-128.589
0
LINE
8
Black
10
135.794
20
-128.589
11
135.971
21
-128.412
0
LINE
8
Black
10
135.971
20
-128.412
11
136.89
21
-129.331
0
LINE
8
Black
10
132.506
20
-128.589
11
131.587
21
-129.508
0
LINE
8
Black
10
131.587
20
-129.508
11
131.41
21
-129.331
0
LINE
8
Black
10
131.41
20
-129.331
11
132.329
21
-128.412
0
LINE
8
Black
10
132.329
20
-128.412
11
132.506
21
-128.589
0
LINE
8
Black
10
137.244
20
-128.977
11
137.067
21
-129.154
0
LINE
8
Black
10
137.067
20
-129.154
11
136.148
21
-128.235
0
LINE
8
Black
10
136.148
20
-128.235
11
136.324
21
-128.058
0
LINE
8
Black
10
136.324
20
-128.058
11
137.244
21
-128.977
0
LINE
8
Black
10
132.152
20
-128.235
11
131.233
21
-129.154
0
LINE
8
Black
10
131.233
20
-129.154
11
131.056
21
-128.977
0
LINE
8
Black
10
131.056
20
-128.977
11
131.976
21
-128.058
0
LINE
8
Black
10
131.976
20
-128.058
11
132.152
21
-128.235
0
LINE
8
Black
10
137.597
20
-128.624
11
137.42
21
-128.801
0
LINE
8
Black
10
137.42
20
-128.801
11
136.501
21
-127.881
0
LINE
8
Black
10
136.501
20
-127.881
11
136.678
21
-127.705
0
LINE
8
Black
10
136.678
20
-127.705
11
137.597
21
-128.624
0
LINE
8
Black
10
131.799
20
-127.881
11
130.88
21
-128.801
0
LINE
8
Black
10
130.88
20
-128.801
11
130.703
21
-128.624
0
LINE
8
Black
10
130.703
20
-128.624
11
131.622
21
-127.705
0
LINE
8
Black
10
131.622
20
-127.705
11
131.799
21
-127.881
0
LINE
8
Black
10
131.445
20
-127.528
11
130.526
21
-128.447
0
LINE
8
Black
10
130.526
20
-128.447
11
130.349
21
-128.27
0
LINE
8
Black
10
130.349
20
-128.27
11
131.269
21
-127.351
0
LINE
8
Black
10
131.269
20
-127.351
11
131.445
21
-127.528
0
LINE
8
Black
10
137.951
20
-128.27
11
137.774
21
-128.447
0
LINE
8
Black
10
137.774
20
-128.447
11
136.855
21
-127.528
0
LINE
8
Black
10
136.855
20
-127.528
11
137.031
21
-127.351
0
LINE
8
Black
10
137.031
20
-127.351
11
137.951
21
-128.27
0
LINE
8
Black
10
138.304
20
-127.917
11
138.127
21
-128.094
0
LINE
8
Black
10
138.127
20
-128.094
11
137.208
21
-127.174
0
LINE
8
Black
10
137.208
20
-127.174
11
137.385
21
-126.998
0
LINE
8
Black
10
137.385
20
-126.998
11
138.304
21
-127.917
0
LINE
8
Black
10
131.092
20
-127.174
11
130.173
21
-128.094
0
LINE
8
Black
10
130.173
20
-128.094
11
129.996
21
-127.917
0
LINE
8
Black
10
129.996
20
-127.917
11
130.915
21
-126.998
0
LINE
8
Black
10
130.915
20
-126.998
11
131.092
21
-127.174
0
LINE
8
Black
10
138.658
20
-127.563
11
138.481
21
-127.74
0
LINE
8
Black
10
138.481
20
-127.74
11
137.562
21
-126.821
0
LINE
8
Black
10
137.562
20
-126.821
11
137.739
21
-126.644
0
LINE
8
Black
10
137.739
20
-126.644
11
138.658
21
-127.563
0
LINE
8
Black
10
130.738
20
-126.821
11
129.819
21
-127.74
0
LINE
8
Black
10
129.819
20
-127.74
11
129.642
21
-127.563
0
LINE
8
Black
10
129.642
20
-127.563
11
130.561
21
-126.644
0
LINE
8
Black
10
130.561
20
-126.644
11
130.738
21
-126.821
0
LINE
8
Black
10
139.011
20
-127.21
11
138.835
21
-127.386
0
LINE
8
Black
10
138.835
20
-127.386
11
137.915
21
-126.467
0
LINE
8
Black
10
137.915
20
-126.467
11
138.092
21
-126.29
0
LINE
8
Black
10
138.092
20
-126.29
11
139.011
21
-127.21
0
LINE
8
Black
10
130.385
20
-126.467
11
129.465
21
-127.386
0
LINE
8
Black
10
129.465
20
-127.386
11
129.289
21
-127.21
0
LINE
8
Black
10
129.289
20
-127.21
11
130.208
21
-126.29
0
LINE
8
Black
10
130.208
20
-126.29
11
130.385
21
-126.467
0
LINE
8
Black
10
139.365
20
-126.856
11
139.188
21
-127.033
0
LINE
8
Black
10
139.188
20
-127.033
11
138.269
21
-126.114
0
LINE
8
Black
10
138.269
20
-126.114
11
138.446
21
-125.937
0
LINE
8
Black
10
138.446
20
-125.937
11
139.365
21
-126.856
0
LINE
8
Black
10
130.031
20
-126.114
11
129.112
21
-127.033
0
LINE
8
Black
10
129.112
20
-127.033
11
128.935
21
-126.856
0
LINE
8
Black
10
128.935
20
-126.856
11
129.854
21
-125.937
0
LINE
8
Black
10
129.854
20
-125.937
11
130.031
21
-126.114
0
LINE
8
Black
10
139.718
20
-126.503
11
139.542
21
-126.679
0
LINE
8
Black
10
139.542
20
-126.679
11
138.622
21
-125.76
0
LINE
8
Black
10
138.622
20
-125.76
11
138.799
21
-125.583
0
LINE
8
Black
10
138.799
20
-125.583
11
139.718
21
-126.503
0
LINE
8
Black
10
129.678
20
-125.76
11
128.758
21
-126.679
0
LINE
8
Black
10
128.758
20
-126.679
11
128.582
21
-126.503
0
LINE
8
Black
10
128.582
20
-126.503
11
129.501
21
-125.583
0
LINE
8
Black
10
129.501
20
-125.583
11
129.678
21
-125.76
0
LINE
8
Black
10
139.718
20
-123.497
11
138.799
21
-124.417
0
LINE
8
Black
10
138.799
20
-124.417
11
138.622
21
-124.24
0
LINE
8
Black
10
138.622
20
-124.24
11
139.542
21
-123.321
0
LINE
8
Black
10
139.542
20
-123.321
11
139.718
21
-123.497
0
LINE
8
Black
10
129.678
20
-124.24
11
129.501
21
-124.417
0
LINE
8
Black
10
129.501
20
-124.417
11
128.582
21
-123.497
0
LINE
8
Black
10
128.582
20
-123.497
11
128.758
21
-123.321
0
LINE
8
Black
10
128.758
20
-123.321
11
129.678
21
-124.24
0
LINE
8
Black
10
139.365
20
-123.144
11
138.446
21
-124.063
0
LINE
8
Black
10
138.446
20
-124.063
11
138.269
21
-123.886
0
LINE
8
Black
10
138.269
20
-123.886
11
139.188
21
-122.967
0
LINE
8
Black
10
139.188
20
-122.967
11
139.365
21
-123.144
0
LINE
8
Black
10
130.031
20
-123.886
11
129.854
21
-124.063
0
LINE
8
Black
10
129.854
20
-124.063
11
128.935
21
-123.144
0
LINE
8
Black
10
128.935
20
-123.144
11
129.112
21
-122.967
0
LINE
8
Black
10
129.112
20
-122.967
11
130.031
21
-123.886
0
LINE
8
Black
10
130.385
20
-123.533
11
130.208
21
-123.71
0
LINE
8
Black
10
130.208
20
-123.71
11
129.289
21
-122.79
0
LINE
8
Black
10
129.289
20
-122.79
11
129.465
21
-122.614
0
LINE
8
Black
10
129.465
20
-122.614
11
130.385
21
-123.533
0
LINE
8
Black
10
139.011
20
-122.79
11
138.092
21
-123.71
0
LINE
8
Black
10
138.092
20
-123.71
11
137.915
21
-123.533
0
LINE
8
Black
10
137.915
20
-123.533
11
138.835
21
-122.614
0
LINE
8
Black
10
138.835
20
-122.614
11
139.011
21
-122.79
0
LINE
8
Black
10
130.738
20
-123.179
11
130.561
21
-123.356
0
LINE
8
Black
10
130.561
20
-123.356
11
129.642
21
-122.437
0
LINE
8
Black
10
129.642
20
-122.437
11
129.819
21
-122.26
0
LINE
8
Black
10
129.819
20
-122.26
11
130.738
21
-123.179
0
LINE
8
Black
10
138.658
20
-122.437
11
137.739
21
-123.356
0
LINE
8
Black
10
137.739
20
-123.356
11
137.562
21
-123.179
0
LINE
8
Black
10
137.562
20
-123.179
11
138.481
21
-122.26
0
LINE
8
Black
10
138.481
20
-122.26
11
138.658
21
-122.437
0
LINE
8
Black
10
131.092
20
-122.826
11
130.915
21
-123.002
0
LINE
8
Black
10
130.915
20
-123.002
11
129.996
21
-122.083
0
LINE
8
Black
10
129.996
20
-122.083
11
130.173
21
-121.906
0
LINE
8
Black
10
130.173
20
-121.906
11
131.092
21
-122.826
0
LINE
8
Black
10
138.304
20
-122.083
11
137.385
21
-123.002
0
LINE
8
Black
10
137.385
20
-123.002
11
137.208
21
-122.826
0
LINE
8
Black
10
137.208
20
-122.826
11
138.127
21
-121.906
0
LINE
8
Black
10
138.127
20
-121.906
11
138.304
21
-122.083
0
LINE
8
Black
10
131.445
20
-122.472
11
131.269
21
-122.649
0
LINE
8
Black
10
131.269
20
-122.649
11
130.349
21
-121.73
0
LINE
8
Black
10
130.349
20
-121.73
11
130.526
21
-121.553
0
LINE
8
Black
10
130.526
20
-121.553
11
131.445
21
-122.472
0
LINE
8
Black
10
137.951
20
-121.73
11
137.031
21
-122.649
0
LINE
8
Black
10
137.031
20
-122.649
11
136.855
21
-122.472
0
LINE
8
Black
10
136.855
20
-122.472
11
137.774
21
-121.553
0
LINE
8
Black
10
137.774
20
-121.553
11
137.951
21
-121.73
0
LINE
8
Black
10
131.799
20
-122.119
11
131.622
21
-122.295
0
LINE
8
Black
10
131.622
20
-122.295
11
130.703
21
-121.376
0
LINE
8
Black
10
130.703
20
-121.376
11
130.88
21
-121.199
0
LINE
8
Black
10
130.88
20
-121.199
11
131.799
21
-122.119
0
LINE
8
Black
10
137.597
20
-121.376
11
136.678
21
-122.295
0
LINE
8
Black
10
136.678
20
-122.295
11
136.501
21
-122.119
0
LINE
8
Black
10
136.501
20
-122.119
11
137.42
21
-121.199
0
LINE
8
Black
10
137.42
20
-121.199
11
137.597
21
-121.376
0
LINE
8
Black
10
132.152
20
-121.765
11
131.976
21
-121.942
0
LINE
8
Black
10
131.976
20
-121.942
11
131.056
21
-121.023
0
LINE
8
Black
10
131.056
20
-121.023
11
131.233
21
-120.846
0
LINE
8
Black
10
131.233
20
-120.846
11
132.152
21
-121.765
0
LINE
8
Black
10
137.244
20
-121.023
11
136.324
21
-121.942
0
LINE
8
Black
10
136.324
20
-121.942
11
136.148
21
-121.765
0
LINE
8
Black
10
136.148
20
-121.765
11
137.067
21
-120.846
0
LINE
8
Black
10
137.067
20
-120.846
11
137.244
21
-121.023
0
LINE
8
Black
10
136.89
20
-120.669
11
135.971
21
-121.588
0
LINE
8
Black
10
135.971
20
-121.588
11
135.794
21
-121.411
0
LINE
8
Black
10
135.794
20
-121.411
11
136.713
21
-120.492
0
LINE
8
Black
10
136.713
20
-120.492
11
136.89
21
-120.669
0
LINE
8
Black
10
132.506
20
-121.411
11
132.329
21
-121.588
0
LINE
8
Black
10
132.329
20
-121.588
11
131.41
21
-120.669
0
LINE
8
Black
10
131.41
20
-120.669
11
131.587
21
-120.492
0
LINE
8
Black
10
131.587
20
-120.492
11
132.506
21
-121.411
0
LINE
8
Black
10
136.536
20
-120.315
11
135.617
21
-121.235
0
LINE
8
Black
10
135.617
20
-121.235
11
135.44
21
-121.058
0
LINE
8
Black
10
135.44
20
-121.058
11
136.36
21
-120.139
0
LINE
8
Black
10
136.36
20
-120.139
11
136.536
21
-120.315
0
LINE
8
Black
10
132.86
20
-121.058
11
132.683
21
-121.235
0
LINE
8
Black
10
132.683
20
-121.235
11
131.764
21
-120.315
0
LINE
8
Black
10
131.764
20
-120.315
11
131.94
21
-120.139
0
LINE
8
Black
10
131.94
20
-120.139
11
132.86
21
-121.058
0
LINE
8
Black
10
136.183
20
-119.962
11
135.264
21
-120.881
0
LINE
8
Black
10
135.264
20
-120.881
11
135.087
21
-120.704
0
LINE
8
Black
10
135.087
20
-120.704
11
136.006
21
-119.785
0
LINE
8
Black
10
136.006
20
-119.785
11
136.183
21
-119.962
0
LINE
8
Black
10
133.213
20
-120.704
11
133.036
21
-120.881
0
LINE
8
Black
10
133.036
20
-120.881
11
132.117
21
-119.962
0
LINE
8
Black
10
132.117
20
-119.962
11
132.294
21
-119.785
0
LINE
8
Black
10
132.294
20
-119.785
11
133.213
21
-120.704
0
LINE
8
Black
10
129.475
20
-120.85
11
128.725
21
-120.85
0
LINE
8
Black
10
128.725
20
-120.85
11
128.725
21
-120.05
0
LINE
8
Black
10
128.725
20
-120.05
11
129.475
21
-120.05
0
LINE
8
Black
10
129.475
20
-120.05
11
129.475
21
-120.85
0
LINE
8
Black
10
133.567
20
-120.351
11
133.39
21
-120.528
0
LINE
8
Black
10
133.39
20
-120.528
11
132.471
21
-119.608
0
LINE
8
Black
10
132.471
20
-119.608
11
132.647
21
-119.432
0
LINE
8
Black
10
132.647
20
-119.432
11
133.567
21
-120.351
0
LINE
8
Black
10
135.829
20
-119.608
11
134.91
21
-120.528
0
LINE
8
Black
10
134.91
20
-120.528
11
134.733
21
-120.351
0
LINE
8
Black
10
134.733
20
-120.351
11
135.653
21
-119.432
0
LINE
8
Black
10
135.653
20
-119.432
11
135.829
21
-119.608
0
LINE
8
Black
10
138.2
20
-119.875
11
137.4
21
-119.875
0
LINE
8
Black
10
137.4
20
-119.875
11
137.4
21
-119.125
0
LINE
8
Black
10
137.4
20
-119.125
11
138.2
21
-119.125
0
LINE
8
Black
10
138.2
20
-119.125
11
138.2
21
-119.875
0
LINE
8
Black
10
139.7
20
-119.875
11
138.9
21
-119.875
0
LINE
8
Black
10
138.9
20
-119.875
11
138.9
21
-119.125
0
LINE
8
Black
10
138.9
20
-119.125
11
139.7
21
-119.125
0
LINE
8
Black
10
139.7
20
-119.125
11
139.7
21
-119.875
0
LINE
8
Black
10
132.377
20
-118.717
11
131.599
21
-119.495
0
LINE
8
Black
10
131.599
20
-119.495
11
130.255
21
-118.151
0
LINE
8
Black
10
130.255
20
-118.151
11
131.033
21
-117.373
0
LINE
8
Black
10
131.033
20
-117.373
11
132.377
21
-118.717
0
LINE
8
Black
10
129.475
20
-119.35
11
128.725
21
-119.35
0
LINE
8
Black
10
128.725
20
-119.35
11
128.725
21
-118.55
0
LINE
8
Black
10
128.725
20
-118.55
11
129.475
21
-118.55
0
LINE
8
Black
10
129.475
20
-118.55
11
129.475
21
-119.35
0
LINE
8
Black
10
135.825
20
-117.75
11
135.075
21
-117.75
0
LINE
8
Black
10
135.075
20
-117.75
11
135.075
21
-116.95
0
LINE
8
Black
10
135.075
20
-116.95
11
135.825
21
-116.95
0
LINE
8
Black
10
135.825
20
-116.95
11
135.825
21
-117.75
0
LINE
8
Black
10
134.145
20
-116.949
11
133.367
21
-117.727
0
LINE
8
Black
10
133.367
20
-117.727
11
132.023
21
-116.383
0
LINE
8
Black
10
132.023
20
-116.383
11
132.801
21
-115.605
0
LINE
8
Black
10
132.801
20
-115.605
11
134.145
21
-116.949
0
LINE
8
Black
10
137.95
20
-117.55
11
137.45
21
-117.55
0
LINE
8
Black
10
137.45
20
-117.55
11
137.45
21
-116.65
0
LINE
8
Black
10
137.45
20
-116.65
11
137.95
21
-116.65
0
LINE
8
Black
10
137.95
20
-116.65
11
137.95
21
-117.55
0
LINE
8
Black
10
139.45
20
-117.55
11
138.95
21
-117.55
0
LINE
8
Black
10
138.95
20
-117.55
11
138.95
21
-116.65
0
LINE
8
Black
10
138.95
20
-116.65
11
139.45
21
-116.65
0
LINE
8
Black
10
139.45
20
-116.65
11
139.45
21
-117.55
0
LINE
8
Black
10
129.7
20
-117.5
11
128.8
21
-117.5
0
LINE
8
Black
10
128.8
20
-117.5
11
128.8
21
-117
0
LINE
8
Black
10
128.8
20
-117
11
129.7
21
-117
0
LINE
8
Black
10
129.7
20
-117
11
129.7
21
-117.5
0
LINE
8
Black
10
135.825
20
-116.25
11
135.075
21
-116.25
0
LINE
8
Black
10
135.075
20
-116.25
11
135.075
21
-115.45
0
LINE
8
Black
10
135.075
20
-115.45
11
135.825
21
-115.45
0
LINE
8
Black
10
135.825
20
-115.45
11
135.825
21
-116.25
0
LINE
8
Black
10
129.7
20
-116
11
128.8
21
-116
0
LINE
8
Black
10
128.8
20
-116
11
128.8
21
-115.5
0
LINE
8
Black
10
128.8
20
-115.5
11
129.7
21
-115.5
0
LINE
8
Black
10
129.7
20
-115.5
11
129.7
21
-116
0
LINE
8
Black
10
139.7
20
-115.65
11
139.2
21
-115.65
0
LINE
8
Black
10
139.2
20
-115.65
11
139.2
21
-114.75
0
LINE
8
Black
10
139.2
20
-114.75
11
139.7
21
-114.75
0
LINE
8
Black
10
139.7
20
-114.75
11
139.7
21
-115.65
0
LINE
8
Black
10
138.2
20
-115.65
11
137.7
21
-115.65
0
LINE
8
Black
10
137.7
20
-115.65
11
137.7
21
-114.75
0
LINE
8
Black
10
137.7
20
-114.75
11
138.2
21
-114.75
0
LINE
8
Black
10
138.2
20
-114.75
11
138.2
21
-115.65
0
LINE
8
Black
10
134.1
20
-114.725
11
133.3
21
-114.725
0
LINE
8
Black
10
133.3
20
-114.725
11
133.3
21
-113.975
0
LINE
8
Black
10
133.3
20
-113.975
11
134.1
21
-113.975
0
LINE
8
Black
10
134.1
20
-113.975
11
134.1
21
-114.725
0
LINE
8
Black
10
131.1
20
-114.725
11
130.3
21
-114.725
0
LINE
8
Black
10
130.3
20
-114.725
11
130.3
21
-113.975
0
LINE
8
Black
10
130.3
20
-113.975
11
131.1
21
-113.975
0
LINE
8
Black
10
131.1
20
-113.975
11
131.1
21
-114.725
0
LINE
8
Black
10
129.6
20
-114.725
11
128.8
21
-114.725
0
LINE
8
Black
10
128.8
20
-114.725
11
128.8
21
-113.975
0
LINE
8
Black
10
128.8
20
-113.975
11
129.6
21
-113.975
0
LINE
8
Black
10
129.6
20
-113.975
11
129.6
21
-114.725
0
LINE
8
Black
10
132.6
20
-114.725
11
131.8
21
-114.725
0
LINE
8
Black
10
131.8
20
-114.725
11
131.8
21
-113.975
0
LINE
8
Black
10
131.8
20
-113.975
11
132.6
21
-113.975
0
LINE
8
Black
10
132.6
20
-113.975
11
132.6
21
-114.725
0
LINE
8
Black
10
135.575
20
-114.6
11
134.825
21
-114.6
0
LINE
8
Black
10
134.825
20
-114.6
11
134.825
21
-113.8
0
LINE
8
Black
10
134.825
20
-113.8
11
135.575
21
-113.8
0
LINE
8
Black
10
135.575
20
-113.8
11
135.575
21
-114.6
0
LINE
8
Black
10
137.05
20
-114.105
11
136.65
21
-114.105
0
LINE
8
Black
10
136.65
20
-114.105
11
136.65
21
-113.595
0
LINE
8
Black
10
136.65
20
-113.595
11
137.05
21
-113.595
0
LINE
8
Black
10
137.05
20
-113.595
11
137.05
21
-114.105
0
LINE
8
Black
10
139.55
20
-114.1
11
138.35
21
-114.1
0
LINE
8
Black
10
138.35
20
-114.1
11
138.35
21
-112.9
0
LINE
8
Black
10
138.35
20
-112.9
11
139.55
21
-112.9
0
LINE
8
Black
10
139.55
20
-112.9
11
139.55
21
-114.1
0
LINE
8
Black
10
133.8
20
-113.15
11
133.3
21
-113.15
0
LINE
8
Black
10
133.3
20
-113.15
11
133.3
21
-112.25
0
LINE
8
Black
10
133.3
20
-112.25
11
133.8
21
-112.25
0
LINE
8
Black
10
133.8
20
-112.25
11
133.8
21
-113.15
0
LINE
8
Black
10
132.3
20
-113.15
11
131.8
21
-113.15
0
LINE
8
Black
10
131.8
20
-113.15
11
131.8
21
-112.25
0
LINE
8
Black
10
131.8
20
-112.25
11
132.3
21
-112.25
0
LINE
8
Black
10
132.3
20
-112.25
11
132.3
21
-113.15
0
LINE
8
Black
10
129.35
20
-113.15
11
128.85
21
-113.15
0
LINE
8
Black
10
128.85
20
-113.15
11
128.85
21
-112.25
0
LINE
8
Black
10
128.85
20
-112.25
11
129.35
21
-112.25
0
LINE
8
Black
10
129.35
20
-112.25
11
129.35
21
-113.15
0
LINE
8
Black
10
130.85
20
-113.15
11
130.35
21
-113.15
0
LINE
8
Black
10
130.35
20
-113.15
11
130.35
21
-112.25
0
LINE
8
Black
10
130.35
20
-112.25
11
130.85
21
-112.25
0
LINE
8
Black
10
130.85
20
-112.25
11
130.85
21
-113.15
0
LINE
8
Black
10
135.575
20
-113.1
11
134.825
21
-113.1
0
LINE
8
Black
10
134.825
20
-113.1
11
134.825
21
-112.3
0
LINE
8
Black
10
134.825
20
-112.3
11
135.575
21
-112.3
0
LINE
8
Black
10
135.575
20
-112.3
11
135.575
21
-113.1
0
LINE
8
Black
10
136.55
20
-112.805
11
136.15
21
-112.805
0
LINE
8
Black
10
136.15
20
-112.805
11
136.15
21
-112.295
0
LINE
8
Black
10
136.15
20
-112.295
11
136.55
21
-112.295
0
LINE
8
Black
10
136.55
20
-112.295
11
136.55
21
-112.805
0
LINE
8
Black
10
137.55
20
-112.805
11
137.15
21
-112.805
0
LINE
8
Black
10
137.15
20
-112.805
11
137.15
21
-112.295
0
LINE
8
Black
10
137.15
20
-112.295
11
137.55
21
-112.295
0
LINE
8
Black
10
137.55
20
-112.295
11
137.55
21
-112.805
0
LINE
8
Black
10
139.55
20
-112
11
138.35
21
-112
0
LINE
8
Black
10
138.35
20
-112
11
138.35
21
-110.8
0
LINE
8
Black
10
138.35
20
-110.8
11
139.55
21
-110.8
0
LINE
8
Black
10
139.55
20
-110.8
11
139.55
21
-112
0
LINE
8
Black
10
129.95
20
-110.25
11
128.75
21
-110.25
0
LINE
8
Black
10
128.75
20
-110.25
11
128.75
21
-109.05
0
LINE
8
Black
10
128.75
20
-109.05
11
129.95
21
-109.05
0
LINE
8
Black
10
129.95
20
-109.05
11
129.95
21
-110.25
0
LINE
8
Black
10
139.55
20
-110.1
11
138.35
21
-110.1
0
LINE
8
Black
10
138.35
20
-110.1
11
138.35
21
-108.9
0
LINE
8
Black
10
138.35
20
-108.9
11
139.55
21
-108.9
0
LINE
8
Black
10
139.55
20
-108.9
11
139.55
21
-110.1
0
LINE
8
Black
10
137.75
20
-109.8
11
135.95
21
-109.8
0
LINE
8
Black
10
135.95
20
-109.8
11
135.95
21
-108.2
0
LINE
8
Black
10
135.95
20
-108.2
11
137.75
21
-108.2
0
LINE
8
Black
10
137.75
20
-108.2
11
137.75
21
-109.8
0
LINE
8
Black
10
132.35
20
-109.8
11
130.55
21
-109.8
0
LINE
8
Black
10
130.55
20
-109.8
11
130.55
21
-108.2
0
LINE
8
Black
10
130.55
20
-108.2
11
132.35
21
-108.2
0
LINE
8
Black
10
132.35
20
-108.2
11
132.35
21
-109.8
0
LINE
8
Black
10
129.95
20
-108.15
11
128.75
21
-108.15
0
LINE
8
Black
10
128.75
20
-108.15
11
128.75
21
-106.95
0
LINE
8
Black
10
128.75
20
-106.95
11
129.95
21
-106.95
0
LINE
8
Black
10
129.95
20
-106.95
11
129.95
21
-108.15
0
LINE
8
Black
10
139.55
20
-108
11
138.35
21
-108
0
LINE
8
Black
10
138.35
20
-108
11
138.35
21
-106.8
0
LINE
8
Black
10
138.35
20
-106.8
11
139.55
21
-106.8
0
LINE
8
Black
10
139.55
20
-106.8
11
139.55
21
-108
0
LINE
8
Black
10
130.05
20
-105.65
11
129.15
21
-105.65
0
LINE
8
Black
10
129.15
20
-105.65
11
129.15
21
-105.15
0
LINE
8
Black
10
129.15
20
-105.15
11
130.05
21
-105.15
0
LINE
8
Black
10
130.05
20
-105.15
11
130.05
21
-105.65
0
LINE
8
Black
10
139.2
20
-105.65
11
138.3
21
-105.65
0
LINE
8
Black
10
138.3
20
-105.65
11
138.3
21
-105.15
0
LINE
8
Black
10
138.3
20
-105.15
11
139.2
21
-105.15
0
LINE
8
Black
10
139.2
20
-105.15
11
139.2
21
-105.65
0
LINE
8
Black
10
130.05
20
-104.15
11
129.15
21
-104.15
0
LINE
8
Black
10
129.15
20
-104.15
11
129.15
21
-103.65
0
LINE
8
Black
10
129.15
20
-103.65
11
130.05
21
-103.65
0
LINE
8
Black
10
130.05
20
-103.65
11
130.05
21
-104.15
0
LINE
8
Black
10
139.2
20
-104.15
11
138.3
21
-104.15
0
LINE
8
Black
10
138.3
20
-104.15
11
138.3
21
-103.65
0
LINE
8
Black
10
138.3
20
-103.65
11
139.2
21
-103.65
0
LINE
8
Black
10
139.2
20
-103.65
11
139.2
21
-104.15
  0
ENDSEC
  0
EOF
