  0
SECTION
  2
HEADER
  9
$ANGBASE
  50
0.0
  9
$ANGDIR
  70
  1
  9
$MEASUREMENT
  70
0
  0
ENDSEC
  0
SECTION
  2
TABLES
  0
TABLE
  2
LTYPE
  70
1
  0
LTYPE
  2
CONTINUOUS
  70
0
  3
Solid line
  72
65
  73
0
  40
0.0
  0
ENDTAB
  0
TABLE
  2
STYLE
  70
4
  0
STYLE
  2
KICAD
  70
0
  40
0
  41
1
  42
1
  50
0
  71
0
  3
isocp.shx
  0
STYLE
  2
KICADB
  70
0
  40
0
  41
1
  42
1
  50
0
  71
0
  3
isocp.shx
  0
STYLE
  2
KICADI
  70
0
  40
0
  41
1
  42
1
  50
15
  71
0
  3
isocp.shx
  0
STYLE
  2
KICADBI
  70
0
  40
0
  41
1
  42
1
  50
15
  71
0
  3
isocp.shx
  0
ENDTAB
  0
TABLE
  2
LAYER
  70
30
  0
LAYER
  2
BLACK
  70
0
  62
7
  6
CONTINUOUS
  0
LAYER
  2
GRAY1
  70
0
  62
251
  6
CONTINUOUS
  0
LAYER
  2
GRAY2
  70
0
  62
8
  6
CONTINUOUS
  0
LAYER
  2
GRAY3
  70
0
  62
9
  6
CONTINUOUS
  0
LAYER
  2
WHITE
  70
0
  62
7
  6
CONTINUOUS
  0
LAYER
  2
LYELLOW
  70
0
  62
51
  6
CONTINUOUS
  0
LAYER
  2
BLUE1
  70
0
  62
178
  6
CONTINUOUS
  0
LAYER
  2
GREEN1
  70
0
  62
98
  6
CONTINUOUS
  0
LAYER
  2
CYAN1
  70
0
  62
138
  6
CONTINUOUS
  0
LAYER
  2
RED1
  70
0
  62
18
  6
CONTINUOUS
  0
LAYER
  2
MAGENTA1
  70
0
  62
228
  6
CONTINUOUS
  0
LAYER
  2
BROWN1
  70
0
  62
58
  6
CONTINUOUS
  0
LAYER
  2
BLUE2
  70
0
  62
5
  6
CONTINUOUS
  0
LAYER
  2
GREEN2
  70
0
  62
3
  6
CONTINUOUS
  0
LAYER
  2
CYAN2
  70
0
  62
4
  6
CONTINUOUS
  0
LAYER
  2
RED2
  70
0
  62
1
  6
CONTINUOUS
  0
LAYER
  2
MAGENTA2
  70
0
  62
6
  6
CONTINUOUS
  0
LAYER
  2
BROWN2
  70
0
  62
54
  6
CONTINUOUS
  0
LAYER
  2
BLUE3
  70
0
  62
171
  6
CONTINUOUS
  0
LAYER
  2
GREEN3
  70
0
  62
91
  6
CONTINUOUS
  0
LAYER
  2
CYAN3
  70
0
  62
131
  6
CONTINUOUS
  0
LAYER
  2
RED3
  70
0
  62
11
  6
CONTINUOUS
  0
LAYER
  2
MAGENTA3
  70
0
  62
221
  6
CONTINUOUS
  0
LAYER
  2
YELLOW3
  70
0
  62
2
  6
CONTINUOUS
  0
LAYER
  2
BLUE4
  70
0
  62
5
  6
CONTINUOUS
  0
LAYER
  2
GREEN4
  70
0
  62
3
  6
CONTINUOUS
  0
LAYER
  2
CYAN4
  70
0
  62
4
  6
CONTINUOUS
  0
LAYER
  2
RED4
  70
0
  62
1
  6
CONTINUOUS
  0
LAYER
  2
MAGENTA4
  70
0
  62
6
  6
CONTINUOUS
  0
LAYER
  2
YELLOW4
  70
0
  62
2
  6
CONTINUOUS
  0
ENDTAB
  0
ENDSEC
  0
SECTION
  2
ENTITIES
0
LINE
8
Black
10
143.306
20
-99.9261
11
143.313
21
-99.9261
0
LINE
8
Black
10
143.313
20
-99.9261
11
143.319
21
-99.9284
0
LINE
8
Black
10
143.319
20
-99.9284
11
143.326
21
-99.9295
0
LINE
8
Black
10
143.326
20
-99.9295
11
143.331
21
-99.9328
0
LINE
8
Black
10
143.331
20
-99.9328
11
143.338
21
-99.935
0
LINE
8
Black
10
143.338
20
-99.935
11
143.343
21
-99.9393
0
LINE
8
Black
10
143.343
20
-99.9393
11
143.348
21
-99.9425
0
LINE
8
Black
10
143.348
20
-99.9425
11
143.352
21
-99.9476
0
LINE
8
Black
10
143.352
20
-99.9476
11
143.357
21
-99.9518
0
LINE
8
Black
10
143.357
20
-99.9518
11
143.361
21
-99.9575
0
LINE
8
Black
10
143.361
20
-99.9575
11
143.365
21
-99.9625
0
LINE
8
Black
10
143.365
20
-99.9625
11
143.367
21
-99.9687
0
LINE
8
Black
10
143.367
20
-99.9687
11
143.37
21
-99.9743
0
LINE
8
Black
10
143.37
20
-99.9743
11
143.372
21
-99.9808
0
LINE
8
Black
10
143.372
20
-99.9808
11
143.374
21
-99.987
0
LINE
8
Black
10
143.374
20
-99.987
11
143.374
21
-99.9935
0
LINE
8
Black
10
143.374
20
-99.9935
11
143.375
21
-100
0
LINE
8
Black
10
143.375
20
-100
11
143.375
21
-145.6
0
LINE
8
Black
10
143.375
20
-145.6
11
143.374
21
-145.606
0
LINE
8
Black
10
143.374
20
-145.606
11
143.374
21
-145.613
0
LINE
8
Black
10
143.374
20
-145.613
11
143.372
21
-145.619
0
LINE
8
Black
10
143.372
20
-145.619
11
143.37
21
-145.626
0
LINE
8
Black
10
143.37
20
-145.626
11
143.367
21
-145.631
0
LINE
8
Black
10
143.367
20
-145.631
11
143.365
21
-145.637
0
LINE
8
Black
10
143.365
20
-145.637
11
143.361
21
-145.643
0
LINE
8
Black
10
143.361
20
-145.643
11
143.357
21
-145.648
0
LINE
8
Black
10
143.357
20
-145.648
11
143.352
21
-145.652
0
LINE
8
Black
10
143.352
20
-145.652
11
143.348
21
-145.657
0
LINE
8
Black
10
143.348
20
-145.657
11
143.343
21
-145.661
0
LINE
8
Black
10
143.343
20
-145.661
11
143.338
21
-145.665
0
LINE
8
Black
10
143.338
20
-145.665
11
143.331
21
-145.667
0
LINE
8
Black
10
143.331
20
-145.667
11
143.326
21
-145.67
0
LINE
8
Black
10
143.326
20
-145.67
11
143.319
21
-145.672
0
LINE
8
Black
10
143.319
20
-145.672
11
143.313
21
-145.674
0
LINE
8
Black
10
143.313
20
-145.674
11
143.306
21
-145.674
0
LINE
8
Black
10
143.306
20
-145.674
11
143.3
21
-145.675
0
LINE
8
Black
10
143.3
20
-145.675
11
125
21
-145.675
0
LINE
8
Black
10
125
20
-145.675
11
124.994
21
-145.674
0
LINE
8
Black
10
124.994
20
-145.674
11
124.987
21
-145.674
0
LINE
8
Black
10
124.987
20
-145.674
11
124.981
21
-145.672
0
LINE
8
Black
10
124.981
20
-145.672
11
124.974
21
-145.67
0
LINE
8
Black
10
124.974
20
-145.67
11
124.969
21
-145.667
0
LINE
8
Black
10
124.969
20
-145.667
11
124.962
21
-145.665
0
LINE
8
Black
10
124.962
20
-145.665
11
124.957
21
-145.661
0
LINE
8
Black
10
124.957
20
-145.661
11
124.952
21
-145.657
0
LINE
8
Black
10
124.952
20
-145.657
11
124.948
21
-145.652
0
LINE
8
Black
10
124.948
20
-145.652
11
124.943
21
-145.648
0
LINE
8
Black
10
124.943
20
-145.648
11
124.939
21
-145.643
0
LINE
8
Black
10
124.939
20
-145.643
11
124.935
21
-145.637
0
LINE
8
Black
10
124.935
20
-145.637
11
124.933
21
-145.631
0
LINE
8
Black
10
124.933
20
-145.631
11
124.93
21
-145.626
0
LINE
8
Black
10
124.93
20
-145.626
11
124.928
21
-145.619
0
LINE
8
Black
10
124.928
20
-145.619
11
124.926
21
-145.613
0
LINE
8
Black
10
124.926
20
-145.613
11
124.926
21
-145.606
0
LINE
8
Black
10
124.926
20
-145.606
11
124.925
21
-145.6
0
LINE
8
Black
10
124.925
20
-145.6
11
124.925
21
-100
0
LINE
8
Black
10
124.925
20
-100
11
124.926
21
-99.9935
0
LINE
8
Black
10
124.926
20
-99.9935
11
124.926
21
-99.987
0
LINE
8
Black
10
124.926
20
-99.987
11
124.928
21
-99.9808
0
LINE
8
Black
10
124.928
20
-99.9808
11
124.93
21
-99.9743
0
LINE
8
Black
10
124.93
20
-99.9743
11
124.933
21
-99.9687
0
LINE
8
Black
10
124.933
20
-99.9687
11
124.935
21
-99.9625
0
LINE
8
Black
10
124.935
20
-99.9625
11
124.939
21
-99.9575
0
LINE
8
Black
10
124.939
20
-99.9575
11
124.943
21
-99.9518
0
LINE
8
Black
10
124.943
20
-99.9518
11
124.948
21
-99.9476
0
LINE
8
Black
10
124.948
20
-99.9476
11
124.952
21
-99.9425
0
LINE
8
Black
10
124.952
20
-99.9425
11
124.957
21
-99.9393
0
LINE
8
Black
10
124.957
20
-99.9393
11
124.962
21
-99.935
0
LINE
8
Black
10
124.962
20
-99.935
11
124.969
21
-99.9328
0
LINE
8
Black
10
124.969
20
-99.9328
11
124.974
21
-99.9295
0
LINE
8
Black
10
124.974
20
-99.9295
11
124.981
21
-99.9284
0
LINE
8
Black
10
124.981
20
-99.9284
11
124.987
21
-99.9261
0
LINE
8
Black
10
124.987
20
-99.9261
11
124.994
21
-99.9261
0
LINE
8
Black
10
124.994
20
-99.9261
11
125
21
-99.925
0
LINE
8
Black
10
125
20
-99.925
11
143.3
21
-99.925
0
LINE
8
Black
10
143.3
20
-99.925
11
143.306
21
-99.9261
0
LINE
8
Black
10
125.075
20
-100.075
11
125.075
21
-145.525
0
LINE
8
Black
10
125.075
20
-145.525
11
143.225
21
-145.525
0
LINE
8
Black
10
143.225
20
-145.525
11
143.225
21
-100.075
0
LINE
8
Black
10
143.225
20
-100.075
11
125.075
21
-100.075
  0
ENDSEC
  0
EOF
