G04 #@! TF.GenerationSoftware,KiCad,Pcbnew,5.0.2-bee76a0~70~ubuntu18.04.1*
G04 #@! TF.CreationDate,2018-12-18T09:47:30-08:00*
G04 #@! TF.ProjectId,Empyrean,456d7079-7265-4616-9e2e-6b696361645f,A*
G04 #@! TF.SameCoordinates,Original*
G04 #@! TF.FileFunction,Copper,L1,Top*
G04 #@! TF.FilePolarity,Positive*
%FSLAX46Y46*%
G04 Gerber Fmt 4.6, Leading zero omitted, Abs format (unit mm)*
G04 Created by KiCad (PCBNEW 5.0.2-bee76a0~70~ubuntu18.04.1) date Tue 18 Dec 2018 09:47:30 AM PST*
%MOMM*%
%LPD*%
G01*
G04 APERTURE LIST*
G04 #@! TA.AperFunction,ComponentPad*
%ADD10C,1.000000*%
G04 #@! TD*
G04 #@! TA.AperFunction,ComponentPad*
%ADD11O,1.700000X1.700000*%
G04 #@! TD*
G04 #@! TA.AperFunction,ComponentPad*
%ADD12C,1.700000*%
G04 #@! TD*
G04 #@! TA.AperFunction,SMDPad,CuDef*
%ADD13R,0.750000X0.800000*%
G04 #@! TD*
G04 #@! TA.AperFunction,SMDPad,CuDef*
%ADD14R,0.800000X0.750000*%
G04 #@! TD*
G04 #@! TA.AperFunction,SMDPad,CuDef*
%ADD15R,1.200000X1.200000*%
G04 #@! TD*
G04 #@! TA.AperFunction,SMDPad,CuDef*
%ADD16R,0.900000X2.500000*%
G04 #@! TD*
G04 #@! TA.AperFunction,SMDPad,CuDef*
%ADD17R,0.400000X1.350000*%
G04 #@! TD*
G04 #@! TA.AperFunction,ComponentPad*
%ADD18O,1.450000X1.150000*%
G04 #@! TD*
G04 #@! TA.AperFunction,ComponentPad*
%ADD19O,1.200000X1.750000*%
G04 #@! TD*
G04 #@! TA.AperFunction,SMDPad,CuDef*
%ADD20R,0.900000X0.500000*%
G04 #@! TD*
G04 #@! TA.AperFunction,SMDPad,CuDef*
%ADD21R,0.500000X0.900000*%
G04 #@! TD*
G04 #@! TA.AperFunction,SMDPad,CuDef*
%ADD22R,1.800000X1.600000*%
G04 #@! TD*
G04 #@! TA.AperFunction,SMDPad,CuDef*
%ADD23R,0.508000X0.762000*%
G04 #@! TD*
G04 #@! TA.AperFunction,SMDPad,CuDef*
%ADD24C,1.100000*%
G04 #@! TD*
G04 #@! TA.AperFunction,Conductor*
%ADD25C,0.100000*%
G04 #@! TD*
G04 #@! TA.AperFunction,SMDPad,CuDef*
%ADD26C,0.250000*%
G04 #@! TD*
G04 #@! TA.AperFunction,SMDPad,CuDef*
%ADD27R,0.400000X0.510000*%
G04 #@! TD*
G04 #@! TA.AperFunction,SMDPad,CuDef*
%ADD28C,0.500000*%
G04 #@! TD*
G04 #@! TA.AperFunction,SMDPad,CuDef*
%ADD29R,0.300000X2.000000*%
G04 #@! TD*
G04 #@! TA.AperFunction,SMDPad,CuDef*
%ADD30R,1.000000X0.500000*%
G04 #@! TD*
G04 #@! TA.AperFunction,ViaPad*
%ADD31C,0.400000*%
G04 #@! TD*
G04 #@! TA.AperFunction,Conductor*
%ADD32C,0.200000*%
G04 #@! TD*
G04 #@! TA.AperFunction,Conductor*
%ADD33C,0.250000*%
G04 #@! TD*
G04 #@! TA.AperFunction,Conductor*
%ADD34C,0.180000*%
G04 #@! TD*
G04 APERTURE END LIST*
D10*
G04 #@! TO.P,J2,10*
G04 #@! TO.N,RESET*
X131610000Y-105685000D03*
G04 #@! TO.P,J2,9*
G04 #@! TO.N,GND*
X131610000Y-104415000D03*
G04 #@! TO.P,J2,8*
G04 #@! TO.N,Net-(J2-Pad8)*
X132880000Y-105685000D03*
G04 #@! TO.P,J2,7*
G04 #@! TO.N,Net-(J2-Pad7)*
X132880000Y-104415000D03*
G04 #@! TO.P,J2,6*
G04 #@! TO.N,Net-(J2-Pad6)*
X134150000Y-105685000D03*
G04 #@! TO.P,J2,5*
G04 #@! TO.N,GND*
X134150000Y-104415000D03*
G04 #@! TO.P,J2,4*
G04 #@! TO.N,SWDCLK*
X135420000Y-105685000D03*
G04 #@! TO.P,J2,3*
G04 #@! TO.N,GND*
X135420000Y-104415000D03*
G04 #@! TO.P,J2,2*
G04 #@! TO.N,SWDIO*
X136690000Y-105685000D03*
G04 #@! TO.P,J2,1*
G04 #@! TO.N,+3.3V*
X136690000Y-104415000D03*
G04 #@! TD*
D11*
G04 #@! TO.P,J3,3*
G04 #@! TO.N,SPI_SCK*
X136690000Y-101550000D03*
G04 #@! TO.P,J3,2*
G04 #@! TO.N,SPI_MISO*
X134150000Y-101550000D03*
D12*
G04 #@! TO.P,J3,1*
G04 #@! TO.N,SPI_MOSI*
X131610000Y-101550000D03*
G04 #@! TD*
D11*
G04 #@! TO.P,REF\002A\002A,15*
G04 #@! TO.N,N/C*
X125010000Y-137110000D03*
G04 #@! TO.P,REF\002A\002A,14*
X125010000Y-134570000D03*
G04 #@! TO.P,REF\002A\002A,13*
X125010000Y-132030000D03*
G04 #@! TO.P,REF\002A\002A,12*
X125010000Y-129490000D03*
G04 #@! TO.P,REF\002A\002A,11*
X125010000Y-126950000D03*
G04 #@! TO.P,REF\002A\002A,10*
X125010000Y-124410000D03*
G04 #@! TO.P,REF\002A\002A,9*
X125010000Y-121870000D03*
G04 #@! TO.P,REF\002A\002A,8*
X125010000Y-119330000D03*
G04 #@! TO.P,REF\002A\002A,7*
X125010000Y-116790000D03*
G04 #@! TO.P,REF\002A\002A,6*
X125010000Y-114250000D03*
G04 #@! TO.P,REF\002A\002A,5*
X125010000Y-111710000D03*
G04 #@! TO.P,REF\002A\002A,4*
X125010000Y-109170000D03*
G04 #@! TO.P,REF\002A\002A,3*
X125010000Y-106630000D03*
G04 #@! TO.P,REF\002A\002A,2*
X125010000Y-104090000D03*
D12*
G04 #@! TO.P,REF\002A\002A,1*
X125010000Y-101550000D03*
G04 #@! TD*
G04 #@! TO.P,REF\002A\002A,1*
G04 #@! TO.N,N/C*
X143370000Y-101550000D03*
D11*
G04 #@! TO.P,REF\002A\002A,2*
X143370000Y-104090000D03*
G04 #@! TO.P,REF\002A\002A,3*
X143370000Y-106630000D03*
G04 #@! TO.P,REF\002A\002A,4*
X143370000Y-109170000D03*
G04 #@! TO.P,REF\002A\002A,5*
X143370000Y-111710000D03*
G04 #@! TO.P,REF\002A\002A,6*
X143370000Y-114250000D03*
G04 #@! TO.P,REF\002A\002A,7*
X143370000Y-116790000D03*
G04 #@! TO.P,REF\002A\002A,8*
X143370000Y-119330000D03*
G04 #@! TO.P,REF\002A\002A,9*
X143370000Y-121870000D03*
G04 #@! TO.P,REF\002A\002A,10*
X143370000Y-124410000D03*
G04 #@! TO.P,REF\002A\002A,11*
X143370000Y-126950000D03*
G04 #@! TO.P,REF\002A\002A,12*
X143370000Y-129490000D03*
G04 #@! TO.P,REF\002A\002A,13*
X143370000Y-132030000D03*
G04 #@! TO.P,REF\002A\002A,14*
X143370000Y-134570000D03*
G04 #@! TO.P,REF\002A\002A,15*
X143370000Y-137110000D03*
G04 #@! TD*
D12*
G04 #@! TO.P,J5,1*
G04 #@! TO.N,+3.3V*
X141800000Y-101550000D03*
D11*
G04 #@! TO.P,J5,2*
G04 #@! TO.N,GND*
X141800000Y-104090000D03*
G04 #@! TO.P,J5,3*
G04 #@! TO.N,RESET*
X141800000Y-106630000D03*
G04 #@! TO.P,J5,4*
G04 #@! TO.N,D13*
X141800000Y-109170000D03*
G04 #@! TO.P,J5,5*
G04 #@! TO.N,D12*
X141800000Y-111710000D03*
G04 #@! TO.P,J5,6*
G04 #@! TO.N,D11*
X141800000Y-114250000D03*
G04 #@! TO.P,J5,7*
G04 #@! TO.N,D10*
X141800000Y-116790000D03*
G04 #@! TO.P,J5,8*
G04 #@! TO.N,D9*
X141800000Y-119330000D03*
G04 #@! TO.P,J5,9*
G04 #@! TO.N,D8*
X141800000Y-121870000D03*
G04 #@! TO.P,J5,10*
G04 #@! TO.N,D7*
X141800000Y-124410000D03*
G04 #@! TO.P,J5,11*
G04 #@! TO.N,D6*
X141800000Y-126950000D03*
G04 #@! TO.P,J5,12*
G04 #@! TO.N,D5*
X141800000Y-129490000D03*
G04 #@! TO.P,J5,13*
G04 #@! TO.N,D4*
X141800000Y-132030000D03*
G04 #@! TO.P,J5,14*
G04 #@! TO.N,D3*
X141800000Y-134570000D03*
G04 #@! TO.P,J5,15*
G04 #@! TO.N,D2*
X141800000Y-137110000D03*
G04 #@! TD*
D12*
G04 #@! TO.P,J4,1*
G04 #@! TO.N,SCL*
X126550000Y-101550000D03*
D11*
G04 #@! TO.P,J4,2*
G04 #@! TO.N,SDA*
X126550000Y-104090000D03*
G04 #@! TO.P,J4,3*
G04 #@! TO.N,VUSB*
X126550000Y-106630000D03*
G04 #@! TO.P,J4,4*
G04 #@! TO.N,VIN*
X126550000Y-109170000D03*
G04 #@! TO.P,J4,5*
G04 #@! TO.N,+3.3V*
X126550000Y-111710000D03*
G04 #@! TO.P,J4,6*
G04 #@! TO.N,GND*
X126550000Y-114250000D03*
G04 #@! TO.P,J4,7*
G04 #@! TO.N,AREF*
X126550000Y-116790000D03*
G04 #@! TO.P,J4,8*
G04 #@! TO.N,A0*
X126550000Y-119330000D03*
G04 #@! TO.P,J4,9*
G04 #@! TO.N,A1*
X126550000Y-121870000D03*
G04 #@! TO.P,J4,10*
G04 #@! TO.N,A2*
X126550000Y-124410000D03*
G04 #@! TO.P,J4,11*
G04 #@! TO.N,A3*
X126550000Y-126950000D03*
G04 #@! TO.P,J4,12*
G04 #@! TO.N,A4*
X126550000Y-129490000D03*
G04 #@! TO.P,J4,13*
G04 #@! TO.N,A5*
X126550000Y-132030000D03*
G04 #@! TO.P,J4,14*
G04 #@! TO.N,D0/UART_RX*
X126550000Y-134570000D03*
G04 #@! TO.P,J4,15*
G04 #@! TO.N,D1/UART_TX*
X126550000Y-137110000D03*
G04 #@! TD*
D13*
G04 #@! TO.P,C1,1*
G04 #@! TO.N,GND*
X139650000Y-142400000D03*
G04 #@! TO.P,C1,2*
G04 #@! TO.N,Net-(C1-Pad2)*
X139650000Y-143900000D03*
G04 #@! TD*
G04 #@! TO.P,C2,1*
G04 #@! TO.N,Net-(C2-Pad1)*
X129100000Y-118950000D03*
G04 #@! TO.P,C2,2*
G04 #@! TO.N,GND*
X129100000Y-120450000D03*
G04 #@! TD*
D14*
G04 #@! TO.P,C3,1*
G04 #@! TO.N,VIN*
X129100000Y-132750000D03*
G04 #@! TO.P,C3,2*
G04 #@! TO.N,GND*
X130600000Y-132750000D03*
G04 #@! TD*
G04 #@! TO.P,C4,1*
G04 #@! TO.N,Net-(C4-Pad1)*
X133700000Y-114350000D03*
G04 #@! TO.P,C4,2*
G04 #@! TO.N,GND*
X132200000Y-114350000D03*
G04 #@! TD*
G04 #@! TO.P,C5,1*
G04 #@! TO.N,Net-(C5-Pad1)*
X130700000Y-114350000D03*
G04 #@! TO.P,C5,2*
G04 #@! TO.N,GND*
X129200000Y-114350000D03*
G04 #@! TD*
D13*
G04 #@! TO.P,C6,1*
G04 #@! TO.N,Net-(C6-Pad1)*
X135650000Y-136250000D03*
G04 #@! TO.P,C6,2*
G04 #@! TO.N,GND*
X135650000Y-137750000D03*
G04 #@! TD*
D14*
G04 #@! TO.P,C7,1*
G04 #@! TO.N,+3.3V*
X132300000Y-133400000D03*
G04 #@! TO.P,C7,2*
G04 #@! TO.N,GND*
X133800000Y-133400000D03*
G04 #@! TD*
D13*
G04 #@! TO.P,C8,1*
G04 #@! TO.N,+3.3V*
X135450000Y-117350000D03*
G04 #@! TO.P,C8,2*
G04 #@! TO.N,GND*
X135450000Y-115850000D03*
G04 #@! TD*
D14*
G04 #@! TO.P,C9,1*
G04 #@! TO.N,GND*
X139300000Y-119500000D03*
G04 #@! TO.P,C9,2*
G04 #@! TO.N,Net-(C9-Pad2)*
X137800000Y-119500000D03*
G04 #@! TD*
G04 #@! TO.P,C10,1*
G04 #@! TO.N,+3.3V*
X129100000Y-130450000D03*
G04 #@! TO.P,C10,2*
G04 #@! TO.N,GND*
X130600000Y-130450000D03*
G04 #@! TD*
D13*
G04 #@! TO.P,C11,1*
G04 #@! TO.N,RESET*
X135200000Y-112700000D03*
G04 #@! TO.P,C11,2*
G04 #@! TO.N,GND*
X135200000Y-114200000D03*
G04 #@! TD*
D15*
G04 #@! TO.P,D1,1*
G04 #@! TO.N,Net-(D1-Pad1)*
X129350000Y-107550000D03*
G04 #@! TO.P,D1,2*
G04 #@! TO.N,TX_LED*
X129350000Y-109650000D03*
G04 #@! TD*
G04 #@! TO.P,D2,1*
G04 #@! TO.N,Net-(D2-Pad1)*
X138950000Y-107400000D03*
G04 #@! TO.P,D2,2*
G04 #@! TO.N,RX_LED*
X138950000Y-109500000D03*
G04 #@! TD*
G04 #@! TO.P,D3,1*
G04 #@! TO.N,Net-(D3-Pad1)*
X138950000Y-113500000D03*
G04 #@! TO.P,D3,2*
G04 #@! TO.N,Net-(D3-Pad2)*
X138950000Y-111400000D03*
G04 #@! TD*
G04 #@! TO.P,D4,1*
G04 #@! TO.N,Net-(D4-Pad1)*
X140150000Y-140650000D03*
G04 #@! TO.P,D4,2*
G04 #@! TO.N,GND*
X142250000Y-140650000D03*
G04 #@! TD*
D16*
G04 #@! TO.P,F1,1*
G04 #@! TO.N,Net-(F1-Pad1)*
X128900000Y-140900000D03*
G04 #@! TO.P,F1,2*
G04 #@! TO.N,VIN*
X126000000Y-140900000D03*
G04 #@! TD*
D17*
G04 #@! TO.P,J1,1*
G04 #@! TO.N,VUSB*
X132850000Y-141450000D03*
G04 #@! TO.P,J1,2*
G04 #@! TO.N,DM*
X133500000Y-141450000D03*
G04 #@! TO.P,J1,3*
G04 #@! TO.N,DP*
X134150000Y-141450000D03*
G04 #@! TO.P,J1,4*
G04 #@! TO.N,Net-(J1-Pad4)*
X134800000Y-141450000D03*
G04 #@! TO.P,J1,5*
G04 #@! TO.N,GND*
X135450000Y-141450000D03*
D18*
G04 #@! TO.P,J1,6*
G04 #@! TO.N,Net-(C1-Pad2)*
X136650000Y-141450000D03*
X131650000Y-141450000D03*
D19*
X137650000Y-144150000D03*
X130650000Y-144150000D03*
G04 #@! TD*
D20*
G04 #@! TO.P,L1,1*
G04 #@! TO.N,+3.3V*
X129250000Y-115750000D03*
G04 #@! TO.P,L1,2*
G04 #@! TO.N,Net-(C2-Pad1)*
X129250000Y-117250000D03*
G04 #@! TD*
G04 #@! TO.P,R1,1*
G04 #@! TO.N,+3.3V*
X129600000Y-103900000D03*
G04 #@! TO.P,R1,2*
G04 #@! TO.N,Net-(D1-Pad1)*
X129600000Y-105400000D03*
G04 #@! TD*
G04 #@! TO.P,R2,1*
G04 #@! TO.N,GND*
X141350000Y-142400000D03*
G04 #@! TO.P,R2,2*
G04 #@! TO.N,Net-(C1-Pad2)*
X141350000Y-143900000D03*
G04 #@! TD*
D21*
G04 #@! TO.P,R3,1*
G04 #@! TO.N,USB_HOST_EN*
X137700000Y-117100000D03*
G04 #@! TO.P,R3,2*
G04 #@! TO.N,Net-(J1-Pad4)*
X139200000Y-117100000D03*
G04 #@! TD*
D20*
G04 #@! TO.P,R4,1*
G04 #@! TO.N,+3.3V*
X138750000Y-103900000D03*
G04 #@! TO.P,R4,2*
G04 #@! TO.N,Net-(D2-Pad1)*
X138750000Y-105400000D03*
G04 #@! TD*
D21*
G04 #@! TO.P,R6,1*
G04 #@! TO.N,+3.3V*
X137950000Y-115200000D03*
G04 #@! TO.P,R6,2*
G04 #@! TO.N,Net-(D3-Pad1)*
X139450000Y-115200000D03*
G04 #@! TD*
D20*
G04 #@! TO.P,R9,1*
G04 #@! TO.N,Net-(JP2-Pad2)*
X138400000Y-139550000D03*
G04 #@! TO.P,R9,2*
G04 #@! TO.N,Net-(D4-Pad1)*
X138400000Y-141050000D03*
G04 #@! TD*
D21*
G04 #@! TO.P,R10,1*
G04 #@! TO.N,+3.3V*
X133550000Y-112700000D03*
G04 #@! TO.P,R10,2*
G04 #@! TO.N,RESET*
X132050000Y-112700000D03*
G04 #@! TD*
G04 #@! TO.P,R11,1*
G04 #@! TO.N,Net-(R11-Pad1)*
X129100000Y-112700000D03*
G04 #@! TO.P,R11,2*
G04 #@! TO.N,RESET*
X130600000Y-112700000D03*
G04 #@! TD*
D22*
G04 #@! TO.P,S1,1*
G04 #@! TO.N,Net-(R11-Pad1)*
X131450000Y-109000000D03*
G04 #@! TO.P,S1,2*
G04 #@! TO.N,GND*
X136850000Y-109000000D03*
G04 #@! TD*
D23*
G04 #@! TO.P,U1,1*
G04 #@! TO.N,VIN*
X132297500Y-137870000D03*
G04 #@! TO.P,U1,3*
X134202500Y-137870000D03*
G04 #@! TO.P,U1,5*
G04 #@! TO.N,+3.3V*
X132297500Y-135330000D03*
G04 #@! TO.P,U1,2*
G04 #@! TO.N,GND*
X133250000Y-137870000D03*
G04 #@! TO.P,U1,4*
G04 #@! TO.N,Net-(C6-Pad1)*
X134202500Y-135330000D03*
G04 #@! TD*
D21*
G04 #@! TO.P,VR1,1*
G04 #@! TO.N,DP*
X134650000Y-139550000D03*
G04 #@! TO.P,VR1,2*
G04 #@! TO.N,Net-(C1-Pad2)*
X136150000Y-139550000D03*
G04 #@! TD*
G04 #@! TO.P,VR2,1*
G04 #@! TO.N,DM*
X133450000Y-139550000D03*
G04 #@! TO.P,VR2,2*
G04 #@! TO.N,Net-(C1-Pad2)*
X131950000Y-139550000D03*
G04 #@! TD*
D24*
G04 #@! TO.P,X1,1*
G04 #@! TO.N,Net-(C4-Pad1)*
X133083883Y-116666117D03*
D25*
G04 #@! TD*
G04 #@! TO.N,Net-(C4-Pad1)*
G04 #@! TO.C,X1*
G36*
X132801040Y-115605457D02*
X134144543Y-116948960D01*
X133366726Y-117726777D01*
X132023223Y-116383274D01*
X132801040Y-115605457D01*
X132801040Y-115605457D01*
G37*
D24*
G04 #@! TO.P,X1,2*
G04 #@! TO.N,Net-(C5-Pad1)*
X131316117Y-118433883D03*
D25*
G04 #@! TD*
G04 #@! TO.N,Net-(C5-Pad1)*
G04 #@! TO.C,X1*
G36*
X131033274Y-117373223D02*
X132376777Y-118716726D01*
X131598960Y-119494543D01*
X130255457Y-118151040D01*
X131033274Y-117373223D01*
X131033274Y-117373223D01*
G37*
D26*
G04 #@! TO.P,U2,1*
G04 #@! TO.N,Net-(C4-Pad1)*
X133018629Y-119979542D03*
D25*
G04 #@! TD*
G04 #@! TO.N,Net-(C4-Pad1)*
G04 #@! TO.C,U2*
G36*
X132470621Y-119608311D02*
X132647398Y-119431534D01*
X133566637Y-120350773D01*
X133389860Y-120527550D01*
X132470621Y-119608311D01*
X132470621Y-119608311D01*
G37*
D26*
G04 #@! TO.P,U2,2*
G04 #@! TO.N,Net-(C5-Pad1)*
X132665076Y-120333095D03*
D25*
G04 #@! TD*
G04 #@! TO.N,Net-(C5-Pad1)*
G04 #@! TO.C,U2*
G36*
X132117068Y-119961864D02*
X132293845Y-119785087D01*
X133213084Y-120704326D01*
X133036307Y-120881103D01*
X132117068Y-119961864D01*
X132117068Y-119961864D01*
G37*
D26*
G04 #@! TO.P,U2,3*
G04 #@! TO.N,A0*
X132311522Y-120686649D03*
D25*
G04 #@! TD*
G04 #@! TO.N,A0*
G04 #@! TO.C,U2*
G36*
X131763514Y-120315418D02*
X131940291Y-120138641D01*
X132859530Y-121057880D01*
X132682753Y-121234657D01*
X131763514Y-120315418D01*
X131763514Y-120315418D01*
G37*
D26*
G04 #@! TO.P,U2,4*
G04 #@! TO.N,AREF*
X131957969Y-121040202D03*
D25*
G04 #@! TD*
G04 #@! TO.N,AREF*
G04 #@! TO.C,U2*
G36*
X131409961Y-120668971D02*
X131586738Y-120492194D01*
X132505977Y-121411433D01*
X132329200Y-121588210D01*
X131409961Y-120668971D01*
X131409961Y-120668971D01*
G37*
D26*
G04 #@! TO.P,U2,5*
G04 #@! TO.N,GND*
X131604416Y-121393755D03*
D25*
G04 #@! TD*
G04 #@! TO.N,GND*
G04 #@! TO.C,U2*
G36*
X131056408Y-121022524D02*
X131233185Y-120845747D01*
X132152424Y-121764986D01*
X131975647Y-121941763D01*
X131056408Y-121022524D01*
X131056408Y-121022524D01*
G37*
D26*
G04 #@! TO.P,U2,6*
G04 #@! TO.N,Net-(C2-Pad1)*
X131250862Y-121747309D03*
D25*
G04 #@! TD*
G04 #@! TO.N,Net-(C2-Pad1)*
G04 #@! TO.C,U2*
G36*
X130702854Y-121376078D02*
X130879631Y-121199301D01*
X131798870Y-122118540D01*
X131622093Y-122295317D01*
X130702854Y-121376078D01*
X130702854Y-121376078D01*
G37*
D26*
G04 #@! TO.P,U2,7*
G04 #@! TO.N,A1*
X130897309Y-122100862D03*
D25*
G04 #@! TD*
G04 #@! TO.N,A1*
G04 #@! TO.C,U2*
G36*
X130349301Y-121729631D02*
X130526078Y-121552854D01*
X131445317Y-122472093D01*
X131268540Y-122648870D01*
X130349301Y-121729631D01*
X130349301Y-121729631D01*
G37*
D26*
G04 #@! TO.P,U2,8*
G04 #@! TO.N,A2*
X130543755Y-122454416D03*
D25*
G04 #@! TD*
G04 #@! TO.N,A2*
G04 #@! TO.C,U2*
G36*
X129995747Y-122083185D02*
X130172524Y-121906408D01*
X131091763Y-122825647D01*
X130914986Y-123002424D01*
X129995747Y-122083185D01*
X129995747Y-122083185D01*
G37*
D26*
G04 #@! TO.P,U2,9*
G04 #@! TO.N,A3*
X130190202Y-122807969D03*
D25*
G04 #@! TD*
G04 #@! TO.N,A3*
G04 #@! TO.C,U2*
G36*
X129642194Y-122436738D02*
X129818971Y-122259961D01*
X130738210Y-123179200D01*
X130561433Y-123355977D01*
X129642194Y-122436738D01*
X129642194Y-122436738D01*
G37*
D26*
G04 #@! TO.P,U2,10*
G04 #@! TO.N,A4*
X129836649Y-123161522D03*
D25*
G04 #@! TD*
G04 #@! TO.N,A4*
G04 #@! TO.C,U2*
G36*
X129288641Y-122790291D02*
X129465418Y-122613514D01*
X130384657Y-123532753D01*
X130207880Y-123709530D01*
X129288641Y-122790291D01*
X129288641Y-122790291D01*
G37*
D26*
G04 #@! TO.P,U2,11*
G04 #@! TO.N,D8*
X129483095Y-123515076D03*
D25*
G04 #@! TD*
G04 #@! TO.N,D8*
G04 #@! TO.C,U2*
G36*
X128935087Y-123143845D02*
X129111864Y-122967068D01*
X130031103Y-123886307D01*
X129854326Y-124063084D01*
X128935087Y-123143845D01*
X128935087Y-123143845D01*
G37*
D26*
G04 #@! TO.P,U2,12*
G04 #@! TO.N,D9*
X129129542Y-123868629D03*
D25*
G04 #@! TD*
G04 #@! TO.N,D9*
G04 #@! TO.C,U2*
G36*
X128581534Y-123497398D02*
X128758311Y-123320621D01*
X129677550Y-124239860D01*
X129500773Y-124416637D01*
X128581534Y-123497398D01*
X128581534Y-123497398D01*
G37*
D26*
G04 #@! TO.P,U2,13*
G04 #@! TO.N,D4*
X129129542Y-126131371D03*
D25*
G04 #@! TD*
G04 #@! TO.N,D4*
G04 #@! TO.C,U2*
G36*
X128758311Y-126679379D02*
X128581534Y-126502602D01*
X129500773Y-125583363D01*
X129677550Y-125760140D01*
X128758311Y-126679379D01*
X128758311Y-126679379D01*
G37*
D26*
G04 #@! TO.P,U2,14*
G04 #@! TO.N,D3*
X129483095Y-126484924D03*
D25*
G04 #@! TD*
G04 #@! TO.N,D3*
G04 #@! TO.C,U2*
G36*
X129111864Y-127032932D02*
X128935087Y-126856155D01*
X129854326Y-125936916D01*
X130031103Y-126113693D01*
X129111864Y-127032932D01*
X129111864Y-127032932D01*
G37*
D26*
G04 #@! TO.P,U2,15*
G04 #@! TO.N,D1/UART_TX*
X129836649Y-126838478D03*
D25*
G04 #@! TD*
G04 #@! TO.N,D1/UART_TX*
G04 #@! TO.C,U2*
G36*
X129465418Y-127386486D02*
X129288641Y-127209709D01*
X130207880Y-126290470D01*
X130384657Y-126467247D01*
X129465418Y-127386486D01*
X129465418Y-127386486D01*
G37*
D26*
G04 #@! TO.P,U2,16*
G04 #@! TO.N,D0/UART_RX*
X130190202Y-127192031D03*
D25*
G04 #@! TD*
G04 #@! TO.N,D0/UART_RX*
G04 #@! TO.C,U2*
G36*
X129818971Y-127740039D02*
X129642194Y-127563262D01*
X130561433Y-126644023D01*
X130738210Y-126820800D01*
X129818971Y-127740039D01*
X129818971Y-127740039D01*
G37*
D26*
G04 #@! TO.P,U2,17*
G04 #@! TO.N,+3.3V*
X130543755Y-127545584D03*
D25*
G04 #@! TD*
G04 #@! TO.N,+3.3V*
G04 #@! TO.C,U2*
G36*
X130172524Y-128093592D02*
X129995747Y-127916815D01*
X130914986Y-126997576D01*
X131091763Y-127174353D01*
X130172524Y-128093592D01*
X130172524Y-128093592D01*
G37*
D26*
G04 #@! TO.P,U2,18*
G04 #@! TO.N,GND*
X130897309Y-127899138D03*
D25*
G04 #@! TD*
G04 #@! TO.N,GND*
G04 #@! TO.C,U2*
G36*
X130526078Y-128447146D02*
X130349301Y-128270369D01*
X131268540Y-127351130D01*
X131445317Y-127527907D01*
X130526078Y-128447146D01*
X130526078Y-128447146D01*
G37*
D26*
G04 #@! TO.P,U2,19*
G04 #@! TO.N,SPI_MOSI*
X131250862Y-128252691D03*
D25*
G04 #@! TD*
G04 #@! TO.N,SPI_MOSI*
G04 #@! TO.C,U2*
G36*
X130879631Y-128800699D02*
X130702854Y-128623922D01*
X131622093Y-127704683D01*
X131798870Y-127881460D01*
X130879631Y-128800699D01*
X130879631Y-128800699D01*
G37*
D26*
G04 #@! TO.P,U2,20*
G04 #@! TO.N,SPI_SCK*
X131604416Y-128606245D03*
D25*
G04 #@! TD*
G04 #@! TO.N,SPI_SCK*
G04 #@! TO.C,U2*
G36*
X131233185Y-129154253D02*
X131056408Y-128977476D01*
X131975647Y-128058237D01*
X132152424Y-128235014D01*
X131233185Y-129154253D01*
X131233185Y-129154253D01*
G37*
D26*
G04 #@! TO.P,U2,21*
G04 #@! TO.N,SPI_MISO*
X131957969Y-128959798D03*
D25*
G04 #@! TD*
G04 #@! TO.N,SPI_MISO*
G04 #@! TO.C,U2*
G36*
X131586738Y-129507806D02*
X131409961Y-129331029D01*
X132329200Y-128411790D01*
X132505977Y-128588567D01*
X131586738Y-129507806D01*
X131586738Y-129507806D01*
G37*
D26*
G04 #@! TO.P,U2,22*
G04 #@! TO.N,Net-(U2-Pad22)*
X132311522Y-129313351D03*
D25*
G04 #@! TD*
G04 #@! TO.N,Net-(U2-Pad22)*
G04 #@! TO.C,U2*
G36*
X131940291Y-129861359D02*
X131763514Y-129684582D01*
X132682753Y-128765343D01*
X132859530Y-128942120D01*
X131940291Y-129861359D01*
X131940291Y-129861359D01*
G37*
D26*
G04 #@! TO.P,U2,23*
G04 #@! TO.N,D2*
X132665076Y-129666905D03*
D25*
G04 #@! TD*
G04 #@! TO.N,D2*
G04 #@! TO.C,U2*
G36*
X132293845Y-130214913D02*
X132117068Y-130038136D01*
X133036307Y-129118897D01*
X133213084Y-129295674D01*
X132293845Y-130214913D01*
X132293845Y-130214913D01*
G37*
D26*
G04 #@! TO.P,U2,24*
G04 #@! TO.N,D5*
X133018629Y-130020458D03*
D25*
G04 #@! TD*
G04 #@! TO.N,D5*
G04 #@! TO.C,U2*
G36*
X132647398Y-130568466D02*
X132470621Y-130391689D01*
X133389860Y-129472450D01*
X133566637Y-129649227D01*
X132647398Y-130568466D01*
X132647398Y-130568466D01*
G37*
D26*
G04 #@! TO.P,U2,25*
G04 #@! TO.N,D11*
X135281371Y-130020458D03*
D25*
G04 #@! TD*
G04 #@! TO.N,D11*
G04 #@! TO.C,U2*
G36*
X134733363Y-129649227D02*
X134910140Y-129472450D01*
X135829379Y-130391689D01*
X135652602Y-130568466D01*
X134733363Y-129649227D01*
X134733363Y-129649227D01*
G37*
D26*
G04 #@! TO.P,U2,26*
G04 #@! TO.N,D13*
X135634924Y-129666905D03*
D25*
G04 #@! TD*
G04 #@! TO.N,D13*
G04 #@! TO.C,U2*
G36*
X135086916Y-129295674D02*
X135263693Y-129118897D01*
X136182932Y-130038136D01*
X136006155Y-130214913D01*
X135086916Y-129295674D01*
X135086916Y-129295674D01*
G37*
D26*
G04 #@! TO.P,U2,27*
G04 #@! TO.N,D10*
X135988478Y-129313351D03*
D25*
G04 #@! TD*
G04 #@! TO.N,D10*
G04 #@! TO.C,U2*
G36*
X135440470Y-128942120D02*
X135617247Y-128765343D01*
X136536486Y-129684582D01*
X136359709Y-129861359D01*
X135440470Y-128942120D01*
X135440470Y-128942120D01*
G37*
D26*
G04 #@! TO.P,U2,28*
G04 #@! TO.N,D12*
X136342031Y-128959798D03*
D25*
G04 #@! TD*
G04 #@! TO.N,D12*
G04 #@! TO.C,U2*
G36*
X135794023Y-128588567D02*
X135970800Y-128411790D01*
X136890039Y-129331029D01*
X136713262Y-129507806D01*
X135794023Y-128588567D01*
X135794023Y-128588567D01*
G37*
D26*
G04 #@! TO.P,U2,29*
G04 #@! TO.N,D6*
X136695584Y-128606245D03*
D25*
G04 #@! TD*
G04 #@! TO.N,D6*
G04 #@! TO.C,U2*
G36*
X136147576Y-128235014D02*
X136324353Y-128058237D01*
X137243592Y-128977476D01*
X137066815Y-129154253D01*
X136147576Y-128235014D01*
X136147576Y-128235014D01*
G37*
D26*
G04 #@! TO.P,U2,30*
G04 #@! TO.N,D7*
X137049138Y-128252691D03*
D25*
G04 #@! TD*
G04 #@! TO.N,D7*
G04 #@! TO.C,U2*
G36*
X136501130Y-127881460D02*
X136677907Y-127704683D01*
X137597146Y-128623922D01*
X137420369Y-128800699D01*
X136501130Y-127881460D01*
X136501130Y-127881460D01*
G37*
D26*
G04 #@! TO.P,U2,31*
G04 #@! TO.N,SDA*
X137402691Y-127899138D03*
D25*
G04 #@! TD*
G04 #@! TO.N,SDA*
G04 #@! TO.C,U2*
G36*
X136854683Y-127527907D02*
X137031460Y-127351130D01*
X137950699Y-128270369D01*
X137773922Y-128447146D01*
X136854683Y-127527907D01*
X136854683Y-127527907D01*
G37*
D26*
G04 #@! TO.P,U2,32*
G04 #@! TO.N,SCL*
X137756245Y-127545584D03*
D25*
G04 #@! TD*
G04 #@! TO.N,SCL*
G04 #@! TO.C,U2*
G36*
X137208237Y-127174353D02*
X137385014Y-126997576D01*
X138304253Y-127916815D01*
X138127476Y-128093592D01*
X137208237Y-127174353D01*
X137208237Y-127174353D01*
G37*
D26*
G04 #@! TO.P,U2,33*
G04 #@! TO.N,DM*
X138109798Y-127192031D03*
D25*
G04 #@! TD*
G04 #@! TO.N,DM*
G04 #@! TO.C,U2*
G36*
X137561790Y-126820800D02*
X137738567Y-126644023D01*
X138657806Y-127563262D01*
X138481029Y-127740039D01*
X137561790Y-126820800D01*
X137561790Y-126820800D01*
G37*
D26*
G04 #@! TO.P,U2,34*
G04 #@! TO.N,DP*
X138463351Y-126838478D03*
D25*
G04 #@! TD*
G04 #@! TO.N,DP*
G04 #@! TO.C,U2*
G36*
X137915343Y-126467247D02*
X138092120Y-126290470D01*
X139011359Y-127209709D01*
X138834582Y-127386486D01*
X137915343Y-126467247D01*
X137915343Y-126467247D01*
G37*
D26*
G04 #@! TO.P,U2,35*
G04 #@! TO.N,GND*
X138816905Y-126484924D03*
D25*
G04 #@! TD*
G04 #@! TO.N,GND*
G04 #@! TO.C,U2*
G36*
X138268897Y-126113693D02*
X138445674Y-125936916D01*
X139364913Y-126856155D01*
X139188136Y-127032932D01*
X138268897Y-126113693D01*
X138268897Y-126113693D01*
G37*
D26*
G04 #@! TO.P,U2,36*
G04 #@! TO.N,+3.3V*
X139170458Y-126131371D03*
D25*
G04 #@! TD*
G04 #@! TO.N,+3.3V*
G04 #@! TO.C,U2*
G36*
X138622450Y-125760140D02*
X138799227Y-125583363D01*
X139718466Y-126502602D01*
X139541689Y-126679379D01*
X138622450Y-125760140D01*
X138622450Y-125760140D01*
G37*
D26*
G04 #@! TO.P,U2,37*
G04 #@! TO.N,Net-(U2-Pad37)*
X139170458Y-123868629D03*
D25*
G04 #@! TD*
G04 #@! TO.N,Net-(U2-Pad37)*
G04 #@! TO.C,U2*
G36*
X138799227Y-124416637D02*
X138622450Y-124239860D01*
X139541689Y-123320621D01*
X139718466Y-123497398D01*
X138799227Y-124416637D01*
X138799227Y-124416637D01*
G37*
D26*
G04 #@! TO.P,U2,38*
G04 #@! TO.N,Net-(U2-Pad38)*
X138816905Y-123515076D03*
D25*
G04 #@! TD*
G04 #@! TO.N,Net-(U2-Pad38)*
G04 #@! TO.C,U2*
G36*
X138445674Y-124063084D02*
X138268897Y-123886307D01*
X139188136Y-122967068D01*
X139364913Y-123143845D01*
X138445674Y-124063084D01*
X138445674Y-124063084D01*
G37*
D26*
G04 #@! TO.P,U2,39*
G04 #@! TO.N,TX_LED*
X138463351Y-123161522D03*
D25*
G04 #@! TD*
G04 #@! TO.N,TX_LED*
G04 #@! TO.C,U2*
G36*
X138092120Y-123709530D02*
X137915343Y-123532753D01*
X138834582Y-122613514D01*
X139011359Y-122790291D01*
X138092120Y-123709530D01*
X138092120Y-123709530D01*
G37*
D26*
G04 #@! TO.P,U2,40*
G04 #@! TO.N,RESET*
X138109798Y-122807969D03*
D25*
G04 #@! TD*
G04 #@! TO.N,RESET*
G04 #@! TO.C,U2*
G36*
X137738567Y-123355977D02*
X137561790Y-123179200D01*
X138481029Y-122259961D01*
X138657806Y-122436738D01*
X137738567Y-123355977D01*
X137738567Y-123355977D01*
G37*
D26*
G04 #@! TO.P,U2,41*
G04 #@! TO.N,USB_HOST_EN*
X137756245Y-122454416D03*
D25*
G04 #@! TD*
G04 #@! TO.N,USB_HOST_EN*
G04 #@! TO.C,U2*
G36*
X137385014Y-123002424D02*
X137208237Y-122825647D01*
X138127476Y-121906408D01*
X138304253Y-122083185D01*
X137385014Y-123002424D01*
X137385014Y-123002424D01*
G37*
D26*
G04 #@! TO.P,U2,42*
G04 #@! TO.N,GND*
X137402691Y-122100862D03*
D25*
G04 #@! TD*
G04 #@! TO.N,GND*
G04 #@! TO.C,U2*
G36*
X137031460Y-122648870D02*
X136854683Y-122472093D01*
X137773922Y-121552854D01*
X137950699Y-121729631D01*
X137031460Y-122648870D01*
X137031460Y-122648870D01*
G37*
D26*
G04 #@! TO.P,U2,43*
G04 #@! TO.N,Net-(C9-Pad2)*
X137049138Y-121747309D03*
D25*
G04 #@! TD*
G04 #@! TO.N,Net-(C9-Pad2)*
G04 #@! TO.C,U2*
G36*
X136677907Y-122295317D02*
X136501130Y-122118540D01*
X137420369Y-121199301D01*
X137597146Y-121376078D01*
X136677907Y-122295317D01*
X136677907Y-122295317D01*
G37*
D26*
G04 #@! TO.P,U2,44*
G04 #@! TO.N,+3.3V*
X136695584Y-121393755D03*
D25*
G04 #@! TD*
G04 #@! TO.N,+3.3V*
G04 #@! TO.C,U2*
G36*
X136324353Y-121941763D02*
X136147576Y-121764986D01*
X137066815Y-120845747D01*
X137243592Y-121022524D01*
X136324353Y-121941763D01*
X136324353Y-121941763D01*
G37*
D26*
G04 #@! TO.P,U2,45*
G04 #@! TO.N,SWDCLK*
X136342031Y-121040202D03*
D25*
G04 #@! TD*
G04 #@! TO.N,SWDCLK*
G04 #@! TO.C,U2*
G36*
X135970800Y-121588210D02*
X135794023Y-121411433D01*
X136713262Y-120492194D01*
X136890039Y-120668971D01*
X135970800Y-121588210D01*
X135970800Y-121588210D01*
G37*
D26*
G04 #@! TO.P,U2,46*
G04 #@! TO.N,SWDIO*
X135988478Y-120686649D03*
D25*
G04 #@! TD*
G04 #@! TO.N,SWDIO*
G04 #@! TO.C,U2*
G36*
X135617247Y-121234657D02*
X135440470Y-121057880D01*
X136359709Y-120138641D01*
X136536486Y-120315418D01*
X135617247Y-121234657D01*
X135617247Y-121234657D01*
G37*
D26*
G04 #@! TO.P,U2,47*
G04 #@! TO.N,A5*
X135634924Y-120333095D03*
D25*
G04 #@! TD*
G04 #@! TO.N,A5*
G04 #@! TO.C,U2*
G36*
X135263693Y-120881103D02*
X135086916Y-120704326D01*
X136006155Y-119785087D01*
X136182932Y-119961864D01*
X135263693Y-120881103D01*
X135263693Y-120881103D01*
G37*
D26*
G04 #@! TO.P,U2,48*
G04 #@! TO.N,RX_LED*
X135281371Y-119979542D03*
D25*
G04 #@! TD*
G04 #@! TO.N,RX_LED*
G04 #@! TO.C,U2*
G36*
X134910140Y-120527550D02*
X134733363Y-120350773D01*
X135652602Y-119431534D01*
X135829379Y-119608311D01*
X134910140Y-120527550D01*
X134910140Y-120527550D01*
G37*
D13*
G04 #@! TO.P,C12,1*
G04 #@! TO.N,+3.3V*
X139200000Y-129250000D03*
G04 #@! TO.P,C12,2*
G04 #@! TO.N,GND*
X139200000Y-130750000D03*
G04 #@! TD*
D27*
G04 #@! TO.P,Q1,1*
G04 #@! TO.N,GND*
X136350000Y-112550000D03*
G04 #@! TO.P,Q1,2*
G04 #@! TO.N,D13*
X137350000Y-112550000D03*
G04 #@! TO.P,Q1,3*
G04 #@! TO.N,Net-(D3-Pad2)*
X136850000Y-113850000D03*
G04 #@! TD*
D28*
G04 #@! TO.P,JP1,2*
G04 #@! TO.N,Net-(F1-Pad1)*
X129170000Y-137790000D03*
D25*
G04 #@! TD*
G04 #@! TO.N,Net-(F1-Pad1)*
G04 #@! TO.C,JP1*
G36*
X129420000Y-136790000D02*
X129420000Y-138790000D01*
X128920000Y-138290000D01*
X128920000Y-137290000D01*
X129420000Y-136790000D01*
X129420000Y-136790000D01*
G37*
D28*
G04 #@! TO.P,JP1,1*
G04 #@! TO.N,VUSB*
X130570000Y-137790000D03*
D25*
G04 #@! TD*
G04 #@! TO.N,VUSB*
G04 #@! TO.C,JP1*
G36*
X130820000Y-137290000D02*
X130820000Y-138290000D01*
X130320000Y-138790000D01*
X130320000Y-136790000D01*
X130820000Y-137290000D01*
X130820000Y-137290000D01*
G37*
D29*
G04 #@! TO.P,JP1,1*
G04 #@! TO.N,VUSB*
X130190000Y-137790000D03*
G04 #@! TO.P,JP1,2*
G04 #@! TO.N,Net-(F1-Pad1)*
X129550000Y-137790000D03*
D30*
G04 #@! TO.P,JP1,*
G04 #@! TO.N,*
X129870000Y-137790000D03*
G04 #@! TD*
D11*
G04 #@! TO.P,REF\002A\002A,3*
G04 #@! TO.N,N/C*
X136690000Y-100000000D03*
G04 #@! TO.P,REF\002A\002A,2*
X134150000Y-100000000D03*
D12*
G04 #@! TO.P,REF\002A\002A,1*
X131610000Y-100000000D03*
G04 #@! TD*
D31*
G04 #@! TO.N,GND*
X131639979Y-134132906D03*
X129200000Y-113550000D03*
X130550000Y-116950000D03*
X130821080Y-120328912D03*
X138739979Y-121344249D03*
X139295985Y-120448104D03*
X139600000Y-122250000D03*
X137850000Y-125450000D03*
X133750000Y-132550000D03*
X133250000Y-134350000D03*
X130600000Y-131450000D03*
X131950000Y-132300000D03*
X137300000Y-140550000D03*
X135700000Y-140550000D03*
X134850000Y-137250000D03*
X133250000Y-136900000D03*
X135450000Y-109000000D03*
X135450000Y-110800000D03*
X139270000Y-108460000D03*
X137668000Y-110200000D03*
X129100000Y-119700000D03*
X137000000Y-107900000D03*
X140450000Y-132850000D03*
X137050000Y-132050000D03*
X139650000Y-102850000D03*
X129200000Y-116500000D03*
G04 #@! TO.N,VIN*
X127994947Y-133822658D03*
G04 #@! TO.N,+3.3V*
X141500000Y-139500000D03*
X130694258Y-133786249D03*
X131030010Y-116016057D03*
X134335592Y-132400977D03*
X128750000Y-103900000D03*
X129250000Y-115105002D03*
X136900000Y-123250000D03*
X136700000Y-125100000D03*
X139400000Y-138600000D03*
X129366053Y-110900000D03*
X129366053Y-131407517D03*
G04 #@! TO.N,TX_LED*
X131846605Y-110380352D03*
X134563544Y-123581042D03*
G04 #@! TO.N,RX_LED*
X134900000Y-122450000D03*
X139750000Y-106250000D03*
G04 #@! TO.N,DM*
X133450000Y-138700000D03*
X138150000Y-128950000D03*
G04 #@! TO.N,DP*
X138822218Y-128473682D03*
X134650000Y-138700000D03*
G04 #@! TO.N,Net-(J1-Pad4)*
X139979398Y-120458066D03*
X139800000Y-131549990D03*
X137900000Y-116150000D03*
X140300000Y-124600000D03*
G04 #@! TO.N,SWDIO*
X135272367Y-121270430D03*
G04 #@! TO.N,SWDCLK*
X135475583Y-121813666D03*
G04 #@! TO.N,RESET*
X135300000Y-123575022D03*
X135750001Y-111600000D03*
G04 #@! TO.N,SPI_MOSI*
X132233461Y-127224937D03*
G04 #@! TO.N,SPI_MISO*
X133401569Y-127551569D03*
G04 #@! TO.N,SPI_SCK*
X133215190Y-126280010D03*
G04 #@! TO.N,SCL*
X130509706Y-125529536D03*
X129600000Y-102150000D03*
G04 #@! TO.N,SDA*
X130798124Y-126255381D03*
X129000000Y-102150000D03*
G04 #@! TO.N,AREF*
X129756077Y-118050000D03*
X128900000Y-118050000D03*
G04 #@! TO.N,A0*
X129861068Y-120350009D03*
X130235011Y-118950000D03*
G04 #@! TO.N,A5*
X131193607Y-125324473D03*
X133226007Y-130718112D03*
G04 #@! TO.N,D0/UART_RX*
X126970635Y-130683848D03*
G04 #@! TO.N,D1/UART_TX*
X128950010Y-127845532D03*
G04 #@! TO.N,D13*
X133850000Y-110249980D03*
X134969990Y-110250000D03*
X133700000Y-111250000D03*
X133960171Y-126280010D03*
G04 #@! TO.N,D12*
X134450000Y-111250000D03*
X135595967Y-126429614D03*
X137800000Y-107450000D03*
G04 #@! TO.N,D11*
X139700000Y-116200000D03*
X134362771Y-129137228D03*
G04 #@! TO.N,D10*
X135035581Y-126280010D03*
X139208312Y-118169425D03*
G04 #@! TO.N,D9*
X135626686Y-123050012D03*
X131919467Y-123998304D03*
X138583437Y-118254464D03*
X129910043Y-124750000D03*
G04 #@! TO.N,D8*
X138482116Y-124642874D03*
X132269990Y-124495839D03*
X130520898Y-124201442D03*
G04 #@! TO.N,D7*
X137698201Y-129290734D03*
X139910918Y-125136394D03*
G04 #@! TO.N,D6*
X136000000Y-127600000D03*
X140132201Y-125701134D03*
G04 #@! TO.N,D5*
X134652921Y-130175333D03*
X140186181Y-128301332D03*
G04 #@! TO.N,D4*
X134894193Y-131515355D03*
X132633618Y-131363604D03*
X128830010Y-126443867D03*
G04 #@! TO.N,D3*
X128913296Y-127279917D03*
G04 #@! TO.N,D2*
X131269990Y-131444067D03*
G04 #@! TO.N,Net-(JP2-Pad2)*
X138400000Y-140300000D03*
G04 #@! TO.N,VUSB*
X129050000Y-134510000D03*
G04 #@! TD*
D32*
G04 #@! TO.N,GND*
X131682319Y-134132906D02*
X131639979Y-134132906D01*
X131899410Y-134349997D02*
X131682319Y-134132906D01*
X131899413Y-134350000D02*
X131899410Y-134349997D01*
X133250000Y-134350000D02*
X131899413Y-134350000D01*
X129200000Y-114350000D02*
X129200000Y-113550000D01*
X130550000Y-116950000D02*
X130550000Y-115650000D01*
X130550000Y-115650000D02*
X130950000Y-115250000D01*
X130950000Y-115250000D02*
X131950000Y-115250000D01*
X131950000Y-115250000D02*
X132200000Y-115000000D01*
X132200000Y-115000000D02*
X132200000Y-114350000D01*
X130821080Y-120610419D02*
X130821080Y-120328912D01*
X131604416Y-121393755D02*
X130821080Y-120610419D01*
X138457137Y-121344249D02*
X138739979Y-121344249D01*
X138159304Y-121344249D02*
X138457137Y-121344249D01*
X137402691Y-122100862D02*
X138159304Y-121344249D01*
X139300000Y-119500000D02*
X139300000Y-120444089D01*
X139300000Y-120444089D02*
X139295985Y-120448104D01*
X139600000Y-120752119D02*
X139295985Y-120448104D01*
X139600000Y-122250000D02*
X139600000Y-120752119D01*
X138816905Y-126416905D02*
X137850000Y-125450000D01*
X138816905Y-126484924D02*
X138816905Y-126416905D01*
X133800000Y-133400000D02*
X133800000Y-132600000D01*
X133800000Y-132600000D02*
X133750000Y-132550000D01*
X133800000Y-133400000D02*
X133800000Y-133800000D01*
X133800000Y-133800000D02*
X133250000Y-134350000D01*
X133800000Y-133400000D02*
X133775000Y-133400000D01*
X130600000Y-130450000D02*
X130600000Y-131450000D01*
X131500001Y-132499999D02*
X131250000Y-132750000D01*
X131250000Y-132750000D02*
X130600000Y-132750000D01*
X131950000Y-132300000D02*
X131750001Y-132499999D01*
X131750001Y-132499999D02*
X131500001Y-132499999D01*
X135450000Y-141450000D02*
X135450000Y-140800000D01*
X135450000Y-140800000D02*
X135700000Y-140550000D01*
X134850000Y-137650000D02*
X134950000Y-137750000D01*
X134950000Y-137750000D02*
X135650000Y-137750000D01*
X134850000Y-137250000D02*
X134850000Y-137650000D01*
X133250000Y-137870000D02*
X133250000Y-136900000D01*
X135450000Y-109000000D02*
X136850000Y-109000000D01*
G04 #@! TO.N,Net-(C1-Pad2)*
X138850000Y-143900000D02*
X138600000Y-144150000D01*
X138600000Y-144150000D02*
X137650000Y-144150000D01*
X139650000Y-143900000D02*
X138850000Y-143900000D01*
X136500000Y-140550000D02*
X136525000Y-140550000D01*
X136525000Y-140550000D02*
X136650000Y-140675000D01*
X136650000Y-140675000D02*
X136650000Y-141450000D01*
X136150000Y-139550000D02*
X136150000Y-140200000D01*
X136150000Y-140200000D02*
X136500000Y-140550000D01*
X131650000Y-141450000D02*
X131650000Y-140675000D01*
X131650000Y-140675000D02*
X131950000Y-140375000D01*
X131950000Y-140375000D02*
X131950000Y-139550000D01*
D33*
X141350000Y-143900000D02*
X139650000Y-143900000D01*
D32*
G04 #@! TO.N,Net-(C2-Pad1)*
X129100000Y-119147820D02*
X129100000Y-118950000D01*
X130112567Y-119869999D02*
X129822179Y-119869999D01*
X131250862Y-121747309D02*
X130341078Y-120837525D01*
X130341078Y-120837525D02*
X130341078Y-120098510D01*
X130341078Y-120098510D02*
X130112567Y-119869999D01*
X129822179Y-119869999D02*
X129100000Y-119147820D01*
X129276067Y-118773933D02*
X129100000Y-118950000D01*
X129276067Y-117726067D02*
X129276067Y-118773933D01*
X129250000Y-117700000D02*
X129276067Y-117726067D01*
X129250000Y-117250000D02*
X129250000Y-117700000D01*
G04 #@! TO.N,VIN*
X132297500Y-137870000D02*
X132297500Y-136552500D01*
X134202500Y-136752500D02*
X134202500Y-137870000D01*
X133850000Y-136400000D02*
X134202500Y-136752500D01*
X132450000Y-136400000D02*
X133850000Y-136400000D01*
X132297500Y-136552500D02*
X132450000Y-136400000D01*
X129100000Y-132750000D02*
X129125000Y-132750000D01*
X128589990Y-134417701D02*
X128194946Y-134022657D01*
X128277789Y-133822658D02*
X127994947Y-133822658D01*
X129075000Y-132750000D02*
X128002342Y-133822658D01*
X128002342Y-133822658D02*
X127994947Y-133822658D01*
X128194946Y-134022657D02*
X127994947Y-133822658D01*
X126000000Y-139450000D02*
X128589990Y-136860010D01*
X126000000Y-140900000D02*
X126000000Y-139450000D01*
X128589990Y-136860010D02*
X128589990Y-134417701D01*
X132297500Y-136552500D02*
X129567658Y-133822658D01*
X129567658Y-133822658D02*
X128277789Y-133822658D01*
X129100000Y-132750000D02*
X129075000Y-132750000D01*
G04 #@! TO.N,Net-(C4-Pad1)*
X133083883Y-116666117D02*
X133700000Y-116050000D01*
X133700000Y-116050000D02*
X133700000Y-114350000D01*
X134000000Y-118000000D02*
X134000000Y-117582234D01*
X134000000Y-117582234D02*
X133083883Y-116666117D01*
X133018629Y-118981371D02*
X134000000Y-118000000D01*
X133018629Y-119979542D02*
X133018629Y-118981371D01*
G04 #@! TO.N,Net-(C5-Pad1)*
X130675000Y-114350000D02*
X130700000Y-114350000D01*
X131316117Y-118433883D02*
X130019998Y-117137764D01*
X130019998Y-117137764D02*
X130019998Y-115005002D01*
X130019998Y-115005002D02*
X130675000Y-114350000D01*
X132665076Y-120333095D02*
X131316117Y-118984136D01*
X131316117Y-118984136D02*
X131316117Y-118433883D01*
D33*
G04 #@! TO.N,Net-(C6-Pad1)*
X134200000Y-136150000D02*
X134300000Y-136250000D01*
X134300000Y-136250000D02*
X135650000Y-136250000D01*
X134200000Y-135459500D02*
X134200000Y-136150000D01*
X134202500Y-135330000D02*
X134202500Y-135457000D01*
X134202500Y-135457000D02*
X134200000Y-135459500D01*
D32*
G04 #@! TO.N,+3.3V*
X139400000Y-138600000D02*
X139400000Y-138500000D01*
X139400000Y-138600000D02*
X139400000Y-138900000D01*
X140000000Y-139500000D02*
X141500000Y-139500000D01*
X139400000Y-138900000D02*
X140000000Y-139500000D01*
X131080507Y-133400000D02*
X130894257Y-133586250D01*
X132300000Y-133400000D02*
X131080507Y-133400000D01*
X131700000Y-133400000D02*
X132300000Y-133400000D01*
X131843500Y-135330000D02*
X131159977Y-134646477D01*
X132297500Y-135330000D02*
X131843500Y-135330000D01*
X131662481Y-133400000D02*
X131700000Y-133400000D01*
X131159977Y-134646477D02*
X131159977Y-133902504D01*
X131159977Y-133902504D02*
X131662481Y-133400000D01*
X130894257Y-133586250D02*
X130694258Y-133786249D01*
X132880001Y-114949001D02*
X131812945Y-116016057D01*
X132880001Y-113569999D02*
X132880001Y-114949001D01*
X133550000Y-112900000D02*
X132880001Y-113569999D01*
X131812945Y-116016057D02*
X131312852Y-116016057D01*
X133550000Y-112700000D02*
X133550000Y-112900000D01*
X131312852Y-116016057D02*
X131030010Y-116016057D01*
X139170458Y-126131371D02*
X138380002Y-125340915D01*
X137489596Y-125100000D02*
X136982842Y-125100000D01*
X137619598Y-124969998D02*
X137489596Y-125100000D01*
X138380002Y-125219598D02*
X138130402Y-124969998D01*
X138380002Y-125340915D02*
X138380002Y-125219598D01*
X138130402Y-124969998D02*
X137619598Y-124969998D01*
X136982842Y-125100000D02*
X136700000Y-125100000D01*
X134634615Y-132700000D02*
X134535591Y-132600976D01*
X134750000Y-132700000D02*
X134634615Y-132700000D01*
X132300000Y-132825000D02*
X133129688Y-131995312D01*
X132300000Y-133400000D02*
X132300000Y-132825000D01*
X134535591Y-132600976D02*
X134335592Y-132400977D01*
X133929927Y-131995312D02*
X134135593Y-132200978D01*
X134135593Y-132200978D02*
X134335592Y-132400977D01*
X133129688Y-131995312D02*
X133929927Y-131995312D01*
X134750000Y-132700000D02*
X134719998Y-132669998D01*
X132325000Y-133400000D02*
X132300000Y-133400000D01*
X129600000Y-103900000D02*
X128750000Y-103900000D01*
D33*
X130543755Y-127555236D02*
X130543755Y-127545584D01*
X129100000Y-128998991D02*
X130543755Y-127555236D01*
X129100000Y-130450000D02*
X129100000Y-128998991D01*
D32*
X129250000Y-115105002D02*
X129250000Y-115750000D01*
X136900000Y-123250000D02*
X136900000Y-122967158D01*
X136900000Y-122967158D02*
X136165255Y-122232413D01*
X136165255Y-122232413D02*
X136165255Y-121924084D01*
X136165255Y-121924084D02*
X136695584Y-121393755D01*
D33*
X129600000Y-103900000D02*
X130300000Y-103900000D01*
X130300000Y-103900000D02*
X130850000Y-103350000D01*
X130850000Y-103350000D02*
X136550000Y-103350000D01*
X136550000Y-103350000D02*
X136690000Y-103490000D01*
X136690000Y-103490000D02*
X136690000Y-104415000D01*
D32*
X136615263Y-119265263D02*
X135450000Y-118100000D01*
X135450000Y-118100000D02*
X135450000Y-117350000D01*
X137225913Y-120863426D02*
X137225913Y-120200001D01*
X137225913Y-120200001D02*
X136615263Y-119589351D01*
X136615263Y-119589351D02*
X136615263Y-119265263D01*
X128250000Y-112000000D02*
X127960000Y-111710000D01*
X127960000Y-111710000D02*
X126550000Y-111710000D01*
X128250000Y-115450000D02*
X128250000Y-112000000D01*
X129250000Y-115750000D02*
X128550000Y-115750000D01*
X128550000Y-115750000D02*
X128250000Y-115450000D01*
X134500000Y-117050000D02*
X134800000Y-117350000D01*
X134800000Y-117350000D02*
X135450000Y-117350000D01*
X134500000Y-113150000D02*
X134500000Y-117050000D01*
X133550000Y-112700000D02*
X134050000Y-112700000D01*
X134050000Y-112700000D02*
X134500000Y-113150000D01*
X136650000Y-116850000D02*
X136150000Y-117350000D01*
X136150000Y-117350000D02*
X135450000Y-117350000D01*
X136650000Y-116000000D02*
X136650000Y-116850000D01*
X137950000Y-115200000D02*
X137450000Y-115200000D01*
X137450000Y-115200000D02*
X136650000Y-116000000D01*
X137225913Y-120863426D02*
X136695584Y-121393755D01*
D33*
X136690000Y-104415000D02*
X137467817Y-104415000D01*
X137467817Y-104415000D02*
X137982817Y-103900000D01*
X137982817Y-103900000D02*
X138750000Y-103900000D01*
X138750000Y-102850000D02*
X140050000Y-101550000D01*
X140050000Y-101550000D02*
X141800000Y-101550000D01*
X138750000Y-103900000D02*
X138750000Y-102850000D01*
D32*
X128770000Y-110900000D02*
X129083211Y-110900000D01*
X129166054Y-131207518D02*
X129366053Y-131407517D01*
X129100000Y-130450000D02*
X129100000Y-131141464D01*
X127960000Y-111710000D02*
X128770000Y-110900000D01*
X129083211Y-110900000D02*
X129366053Y-110900000D01*
X129100000Y-131141464D02*
X129166054Y-131207518D01*
X137615598Y-129850000D02*
X138650000Y-129850000D01*
X139700787Y-126661700D02*
X139170458Y-126131371D01*
X139284284Y-129215716D02*
X139284284Y-127388967D01*
X139284284Y-127388967D02*
X139700787Y-126972464D01*
X138650000Y-129850000D02*
X139284284Y-129215716D01*
X135400000Y-132700000D02*
X135400000Y-132065598D01*
X134750000Y-132700000D02*
X135400000Y-132700000D01*
X135400000Y-132065598D02*
X137615598Y-129850000D01*
X139700787Y-126972464D02*
X139700787Y-126661700D01*
D33*
G04 #@! TO.N,Net-(C9-Pad2)*
X137800000Y-119500000D02*
X137800000Y-120996447D01*
X137800000Y-120996447D02*
X137049138Y-121747309D01*
G04 #@! TO.N,Net-(D1-Pad1)*
X129600000Y-105400000D02*
X129600000Y-107300000D01*
X129600000Y-107300000D02*
X129350000Y-107550000D01*
D32*
G04 #@! TO.N,TX_LED*
X129350000Y-109650000D02*
X130080352Y-110380352D01*
X130080352Y-110380352D02*
X131563763Y-110380352D01*
X131563763Y-110380352D02*
X131846605Y-110380352D01*
X137045679Y-124147537D02*
X135130039Y-124147537D01*
X135130039Y-124147537D02*
X134563544Y-123581042D01*
X138463351Y-123161522D02*
X137477336Y-124147537D01*
X137477336Y-124147537D02*
X137045679Y-124147537D01*
D33*
G04 #@! TO.N,Net-(D2-Pad1)*
X138750000Y-105400000D02*
X138750000Y-107200000D01*
X138750000Y-107200000D02*
X138950000Y-107400000D01*
X138750000Y-107350000D02*
X138950000Y-107550000D01*
D32*
G04 #@! TO.N,RX_LED*
X134751042Y-121971507D02*
X134751042Y-122301042D01*
X134751042Y-122301042D02*
X134900000Y-122450000D01*
X134751042Y-120509871D02*
X134751042Y-121971507D01*
X135281371Y-119979542D02*
X134751042Y-120509871D01*
X140000000Y-109400000D02*
X139900000Y-109500000D01*
X139900000Y-109500000D02*
X138950000Y-109500000D01*
X140000000Y-106500000D02*
X140000000Y-109400000D01*
X139750000Y-106250000D02*
X140000000Y-106500000D01*
G04 #@! TO.N,Net-(D3-Pad1)*
X138950000Y-115150000D02*
X139000000Y-115200000D01*
X139000000Y-115200000D02*
X139450000Y-115200000D01*
X138950000Y-113500000D02*
X138950000Y-115150000D01*
G04 #@! TO.N,Net-(D3-Pad2)*
X137900000Y-111600000D02*
X137900000Y-113550000D01*
X138950000Y-111400000D02*
X138100000Y-111400000D01*
X137900000Y-111600000D02*
X138100000Y-111400000D01*
X137600000Y-113850000D02*
X136850000Y-113850000D01*
X137900000Y-113550000D02*
X137600000Y-113850000D01*
G04 #@! TO.N,Net-(D4-Pad1)*
X138400000Y-141050000D02*
X139750000Y-141050000D01*
X139750000Y-141050000D02*
X140150000Y-140650000D01*
G04 #@! TO.N,Net-(F1-Pad1)*
X128900000Y-140900000D02*
X128900000Y-138860000D01*
X128900000Y-138860000D02*
X128570000Y-138530000D01*
X128570000Y-138530000D02*
X128570000Y-138000000D01*
X128780000Y-137790000D02*
X129089999Y-137790000D01*
X128570000Y-138000000D02*
X128780000Y-137790000D01*
G04 #@! TO.N,DM*
X133450000Y-139550000D02*
X133450000Y-138700000D01*
X133450000Y-139550000D02*
X133450000Y-141400000D01*
X133450000Y-141400000D02*
X133500000Y-141450000D01*
X138150000Y-128667158D02*
X138150000Y-128950000D01*
X138564263Y-128052800D02*
X138150000Y-128467063D01*
X138150000Y-128467063D02*
X138150000Y-128667158D01*
X138564263Y-127646496D02*
X138564263Y-128052800D01*
X138109798Y-127192031D02*
X138564263Y-127646496D01*
G04 #@! TO.N,DP*
X134650000Y-139550000D02*
X134650000Y-138700000D01*
X134150000Y-139750000D02*
X134350000Y-139550000D01*
X134350000Y-139550000D02*
X134650000Y-139550000D01*
X134150000Y-141450000D02*
X134150000Y-139750000D01*
X138924273Y-127299400D02*
X138924273Y-128371627D01*
X138924273Y-128371627D02*
X138822218Y-128473682D01*
X138463351Y-126838478D02*
X138924273Y-127299400D01*
G04 #@! TO.N,Net-(J1-Pad4)*
X139200000Y-116900000D02*
X138450000Y-116150000D01*
X139200000Y-117100000D02*
X139200000Y-116900000D01*
X138450000Y-116150000D02*
X137900000Y-116150000D01*
X134800000Y-140575000D02*
X134800000Y-141450000D01*
X139800000Y-137000000D02*
X138369999Y-138430001D01*
X139800000Y-131549990D02*
X139800000Y-137000000D01*
X138369999Y-138430001D02*
X136065997Y-138430001D01*
X135180001Y-140194999D02*
X134800000Y-140575000D01*
X136065997Y-138430001D02*
X135180001Y-139315997D01*
X135180001Y-139315997D02*
X135180001Y-140194999D01*
X140300000Y-124317158D02*
X140300000Y-124600000D01*
X139979398Y-120458066D02*
X140450000Y-120928668D01*
X140450000Y-124167158D02*
X140300000Y-124317158D01*
X140450000Y-120928668D02*
X140450000Y-124167158D01*
G04 #@! TO.N,SWDIO*
X135988478Y-120686649D02*
X135404697Y-121270430D01*
X135404697Y-121270430D02*
X135272367Y-121270430D01*
G04 #@! TO.N,SWDCLK*
X136342031Y-121040202D02*
X135568567Y-121813666D01*
X135568567Y-121813666D02*
X135475583Y-121813666D01*
G04 #@! TO.N,RESET*
X137187766Y-123730001D02*
X135737821Y-123730001D01*
X135737821Y-123730001D02*
X135582842Y-123575022D01*
X135582842Y-123575022D02*
X135300000Y-123575022D01*
X138109798Y-122807969D02*
X137187766Y-123730001D01*
X132950000Y-108200000D02*
X131610000Y-106860000D01*
X131610000Y-106860000D02*
X131610000Y-105685000D01*
X132950000Y-111100000D02*
X132950000Y-108200000D01*
X132050000Y-112700000D02*
X132050000Y-112000000D01*
X132050000Y-112000000D02*
X132950000Y-111100000D01*
X137550000Y-106850000D02*
X132775000Y-106850000D01*
X132775000Y-106850000D02*
X131610000Y-105685000D01*
X137750000Y-106650000D02*
X137550000Y-106850000D01*
X137750000Y-105000000D02*
X137750000Y-106650000D01*
X138050000Y-104700000D02*
X137750000Y-105000000D01*
X139717600Y-104700000D02*
X138050000Y-104700000D01*
X141800000Y-106630000D02*
X141647600Y-106630000D01*
X141647600Y-106630000D02*
X139717600Y-104700000D01*
X130600000Y-112700000D02*
X132050000Y-112700000D01*
X135200000Y-112700000D02*
X135200000Y-112100000D01*
X135700000Y-111600000D02*
X135750001Y-111600000D01*
X135200000Y-112100000D02*
X135700000Y-111600000D01*
G04 #@! TO.N,SPI_MOSI*
X132233461Y-127270092D02*
X132233461Y-127224937D01*
X131250862Y-128252691D02*
X132233461Y-127270092D01*
G04 #@! TO.N,SPI_MISO*
X131957969Y-128959798D02*
X131957969Y-128942031D01*
X131957969Y-128942031D02*
X133400000Y-127500000D01*
G04 #@! TO.N,SPI_SCK*
X131604416Y-128606245D02*
X133215190Y-126995471D01*
X133215190Y-126562852D02*
X133215190Y-126280010D01*
X133215190Y-126995471D02*
X133215190Y-126562852D01*
G04 #@! TO.N,SCL*
X130709705Y-125729535D02*
X130509706Y-125529536D01*
X130888265Y-125729535D02*
X130709705Y-125729535D01*
X130963205Y-125804475D02*
X130888265Y-125729535D01*
X131424009Y-125804475D02*
X130963205Y-125804475D01*
X131808494Y-125419990D02*
X131424009Y-125804475D01*
X136069990Y-125419990D02*
X131808494Y-125419990D01*
X137225916Y-126575916D02*
X136069990Y-125419990D01*
X137225916Y-127015255D02*
X137225916Y-126575916D01*
X137756245Y-127545584D02*
X137225916Y-127015255D01*
X129600000Y-102150000D02*
X129600000Y-101867158D01*
X129600000Y-101867158D02*
X129282842Y-101550000D01*
X129282842Y-101550000D02*
X127750000Y-101550000D01*
X127750000Y-101550000D02*
X126550000Y-101550000D01*
G04 #@! TO.N,SDA*
X132194619Y-126255381D02*
X131080966Y-126255381D01*
X137402691Y-127899138D02*
X136872362Y-127368809D01*
X136872362Y-127368809D02*
X136618809Y-127368809D01*
X136618809Y-127368809D02*
X136150000Y-126900000D01*
X136150000Y-126900000D02*
X136150000Y-126300000D01*
X131080966Y-126255381D02*
X130798124Y-126255381D01*
X132650000Y-125800000D02*
X132194619Y-126255381D01*
X136150000Y-126300000D02*
X135650000Y-125800000D01*
X135650000Y-125800000D02*
X132650000Y-125800000D01*
X128250000Y-103950000D02*
X128110000Y-104090000D01*
X128110000Y-104090000D02*
X126550000Y-104090000D01*
X128250000Y-102900000D02*
X128250000Y-103950000D01*
X129000000Y-102150000D02*
X128250000Y-102900000D01*
G04 #@! TO.N,AREF*
X131325569Y-120154563D02*
X130610994Y-119439988D01*
X129755001Y-118333918D02*
X129756077Y-118332842D01*
X129755001Y-119265405D02*
X129755001Y-118333918D01*
X129929584Y-119439988D02*
X129755001Y-119265405D01*
X130610994Y-119439988D02*
X129929584Y-119439988D01*
X131325569Y-120407802D02*
X131325569Y-120154563D01*
X129756077Y-118332842D02*
X129756077Y-118050000D01*
X131957969Y-121040202D02*
X131325569Y-120407802D01*
X128517179Y-118014677D02*
X128800021Y-118014677D01*
X126550000Y-116790000D02*
X126702400Y-116790000D01*
X126702400Y-116790000D02*
X127927077Y-118014677D01*
X127927077Y-118014677D02*
X128517179Y-118014677D01*
G04 #@! TO.N,A0*
X129861068Y-120632851D02*
X129861068Y-120350009D01*
X128502401Y-121130001D02*
X129699001Y-121130001D01*
X129699001Y-121130001D02*
X129861068Y-120967934D01*
X129861068Y-120967934D02*
X129861068Y-120632851D01*
X130658422Y-118950000D02*
X130517853Y-118950000D01*
X131781193Y-120156320D02*
X131781193Y-120072771D01*
X132311522Y-120686649D02*
X131781193Y-120156320D01*
X126702400Y-119330000D02*
X128502401Y-121130001D01*
X131781193Y-120072771D02*
X130658422Y-118950000D01*
X130517853Y-118950000D02*
X130235011Y-118950000D01*
X126550000Y-119330000D02*
X126702400Y-119330000D01*
G04 #@! TO.N,A1*
X127766000Y-121870000D02*
X128125988Y-121510012D01*
X130306459Y-121510012D02*
X130366980Y-121570533D01*
X128125988Y-121510012D02*
X130306459Y-121510012D01*
X126550000Y-121870000D02*
X127766000Y-121870000D01*
X130366980Y-121570533D02*
X130897309Y-122100862D01*
G04 #@! TO.N,A2*
X130013426Y-121924087D02*
X130543755Y-122454416D01*
X129979362Y-121890023D02*
X130013426Y-121924087D01*
X126550000Y-124410000D02*
X129069977Y-121890023D01*
X129069977Y-121890023D02*
X129979362Y-121890023D01*
X126702400Y-124410000D02*
X126550000Y-124410000D01*
G04 #@! TO.N,A3*
X128100000Y-123519297D02*
X128100000Y-125552400D01*
X128100000Y-125552400D02*
X126702400Y-126950000D01*
X126702400Y-126950000D02*
X126550000Y-126950000D01*
X130190202Y-122807969D02*
X129659873Y-122277640D01*
X129659873Y-122277640D02*
X129341657Y-122277640D01*
X129341657Y-122277640D02*
X128100000Y-123519297D01*
G04 #@! TO.N,A4*
X130695794Y-123691851D02*
X130366978Y-123691851D01*
X130130402Y-125230002D02*
X130588170Y-124772234D01*
X128015963Y-126298874D02*
X129084835Y-125230002D01*
X129084835Y-125230002D02*
X130130402Y-125230002D01*
X130660508Y-124772234D02*
X131000899Y-124431843D01*
X128015963Y-128176437D02*
X128015963Y-126298874D01*
X126702400Y-129490000D02*
X128015963Y-128176437D01*
X130366978Y-123691851D02*
X129836649Y-123161522D01*
X126550000Y-129490000D02*
X126702400Y-129490000D01*
X131000899Y-124431843D02*
X131000899Y-123996956D01*
X131000899Y-123996956D02*
X130695794Y-123691851D01*
X130588170Y-124772234D02*
X130660508Y-124772234D01*
G04 #@! TO.N,A5*
X127766000Y-132030000D02*
X126550000Y-132030000D01*
X132777674Y-130883603D02*
X132403217Y-130883603D01*
X132153617Y-131282309D02*
X131405926Y-132030000D01*
X132403217Y-130883603D02*
X132153617Y-131133203D01*
X133226007Y-130718112D02*
X132943165Y-130718112D01*
X131405926Y-132030000D02*
X127766000Y-132030000D01*
X132943165Y-130718112D02*
X132777674Y-130883603D01*
X132153617Y-131133203D02*
X132153617Y-131282309D01*
X135634924Y-120333095D02*
X136165253Y-119802766D01*
X136165253Y-119802766D02*
X136165253Y-119484550D01*
X136165253Y-119484550D02*
X135787227Y-119106524D01*
X135787227Y-119106524D02*
X135517977Y-119106524D01*
X135517977Y-119106524D02*
X131393606Y-123230895D01*
X131393606Y-123230895D02*
X131393606Y-125124474D01*
X131393606Y-125124474D02*
X131193607Y-125324473D01*
G04 #@! TO.N,D0/UART_RX*
X128570890Y-128955329D02*
X128570890Y-129366435D01*
X130190202Y-127336017D02*
X128570890Y-128955329D01*
X130190202Y-127192031D02*
X130190202Y-127336017D01*
X128570890Y-129366435D02*
X127253477Y-130683848D01*
X127253477Y-130683848D02*
X126970635Y-130683848D01*
G04 #@! TO.N,D1/UART_TX*
X129373297Y-127640935D02*
X129168700Y-127845532D01*
X129373297Y-127301830D02*
X129373297Y-127640935D01*
X129168700Y-127845532D02*
X128950010Y-127845532D01*
X129836649Y-126838478D02*
X129373297Y-127301830D01*
G04 #@! TO.N,D13*
X141800000Y-109170000D02*
X141330000Y-109170000D01*
X141330000Y-109170000D02*
X140000000Y-110500000D01*
X137950000Y-110500000D02*
X136905202Y-111544798D01*
X140000000Y-110500000D02*
X137950000Y-110500000D01*
X137350000Y-112550000D02*
X137350000Y-111989596D01*
X135610404Y-110250000D02*
X135252832Y-110250000D01*
X137039000Y-111678596D02*
X136905202Y-111544798D01*
X136905202Y-111544798D02*
X135610404Y-110250000D01*
X135252832Y-110250000D02*
X134969990Y-110250000D01*
X137350000Y-111989596D02*
X137039000Y-111678596D01*
X133700000Y-111250000D02*
X133700000Y-110399980D01*
X133700000Y-110399980D02*
X133850000Y-110249980D01*
X133960171Y-127992152D02*
X133960171Y-126562852D01*
X135634924Y-129666905D02*
X133960171Y-127992152D01*
X133960171Y-126562852D02*
X133960171Y-126280010D01*
X133849997Y-110249983D02*
X133850000Y-110249980D01*
X141647600Y-109170000D02*
X141800000Y-109170000D01*
G04 #@! TO.N,D12*
X134450000Y-109114998D02*
X134450000Y-111250000D01*
X136342031Y-128959798D02*
X135474999Y-128092766D01*
X135474999Y-128092766D02*
X135474999Y-126833424D01*
X135595967Y-126712456D02*
X135595967Y-126429614D01*
X135474999Y-126833424D02*
X135595967Y-126712456D01*
X134450000Y-109114998D02*
X136114998Y-107450000D01*
X136114998Y-107450000D02*
X137800000Y-107450000D01*
G04 #@! TO.N,D11*
X139700000Y-116200000D02*
X141650000Y-114250000D01*
X141650000Y-114250000D02*
X141800000Y-114250000D01*
X135281371Y-130020458D02*
X135246001Y-130020458D01*
X135246001Y-130020458D02*
X134362771Y-129137228D01*
G04 #@! TO.N,D10*
X135035581Y-128360454D02*
X135035581Y-126562852D01*
X135035581Y-126562852D02*
X135035581Y-126280010D01*
X135988478Y-129313351D02*
X135035581Y-128360454D01*
X139900000Y-117250000D02*
X140360000Y-116790000D01*
X140360000Y-116790000D02*
X141800000Y-116790000D01*
X139900000Y-117760579D02*
X139900000Y-117250000D01*
X139208312Y-118169425D02*
X139491154Y-118169425D01*
X139491154Y-118169425D02*
X139900000Y-117760579D01*
G04 #@! TO.N,D9*
X132867759Y-123050012D02*
X135626686Y-123050012D01*
X131919467Y-123998304D02*
X132867759Y-123050012D01*
X140300000Y-119300000D02*
X140330000Y-119330000D01*
X140330000Y-119330000D02*
X141800000Y-119330000D01*
X140300000Y-119139998D02*
X140300000Y-119300000D01*
X139046412Y-118750000D02*
X139910002Y-118750000D01*
X139910002Y-118750000D02*
X140300000Y-119139998D01*
X138583437Y-118254464D02*
X138583437Y-118287025D01*
X138583437Y-118287025D02*
X139046412Y-118750000D01*
X129129542Y-123868629D02*
X129910043Y-124649130D01*
X129910043Y-124649130D02*
X129910043Y-124750000D01*
G04 #@! TO.N,D8*
X138429229Y-124589987D02*
X138482116Y-124642874D01*
X132676991Y-124619998D02*
X137432182Y-124619998D01*
X132552832Y-124495839D02*
X132676991Y-124619998D01*
X132269990Y-124495839D02*
X132552832Y-124495839D01*
X137462193Y-124589987D02*
X138429229Y-124589987D01*
X137432182Y-124619998D02*
X137462193Y-124589987D01*
X130238056Y-124201442D02*
X130520898Y-124201442D01*
X130169461Y-124201442D02*
X130238056Y-124201442D01*
X129483095Y-123515076D02*
X130169461Y-124201442D01*
G04 #@! TO.N,D7*
X137049138Y-128252691D02*
X137579467Y-128783020D01*
X137579467Y-129172000D02*
X137689999Y-129282532D01*
X137579467Y-128783020D02*
X137579467Y-129172000D01*
X137689999Y-129282532D02*
X137698201Y-129290734D01*
X140193760Y-125136394D02*
X139910918Y-125136394D01*
X141800000Y-124410000D02*
X140950001Y-125259999D01*
X140950001Y-125259999D02*
X140317365Y-125259999D01*
X140317365Y-125259999D02*
X140193760Y-125136394D01*
G04 #@! TO.N,D6*
X136000000Y-127910661D02*
X136000000Y-127600000D01*
X136695584Y-128606245D02*
X136000000Y-127910661D01*
X140551134Y-125701134D02*
X140415043Y-125701134D01*
X140415043Y-125701134D02*
X140132201Y-125701134D01*
X141800000Y-126950000D02*
X140551134Y-125701134D01*
G04 #@! TO.N,D5*
X134498046Y-130020458D02*
X134652921Y-130175333D01*
X133018629Y-130020458D02*
X134498046Y-130020458D01*
X141800000Y-129490000D02*
X140611332Y-128301332D01*
X140469023Y-128301332D02*
X140186181Y-128301332D01*
X140611332Y-128301332D02*
X140469023Y-128301332D01*
G04 #@! TO.N,D4*
X132633618Y-131363604D02*
X134742442Y-131363604D01*
X134742442Y-131363604D02*
X134894193Y-131515355D01*
X141647600Y-132030000D02*
X141800000Y-132030000D01*
X129129542Y-126131371D02*
X128852765Y-126131371D01*
X128852765Y-126131371D02*
X128830010Y-126154126D01*
X128830010Y-126154126D02*
X128830010Y-126161025D01*
X128830010Y-126161025D02*
X128830010Y-126443867D01*
G04 #@! TO.N,D3*
X128913296Y-127054723D02*
X128913296Y-127279917D01*
X129483095Y-126484924D02*
X128913296Y-127054723D01*
G04 #@! TO.N,D2*
X132665076Y-129666905D02*
X131269990Y-131061991D01*
X131269990Y-131161225D02*
X131269990Y-131444067D01*
X131269990Y-131061991D02*
X131269990Y-131161225D01*
G04 #@! TO.N,USB_HOST_EN*
X139030402Y-121830002D02*
X138380659Y-121830002D01*
X138380659Y-121830002D02*
X137756245Y-122454416D01*
X139219989Y-121640415D02*
X139030402Y-121830002D01*
X139219989Y-121059585D02*
X139219989Y-121640415D01*
X137150000Y-118500000D02*
X137400000Y-118750000D01*
X138525001Y-120364597D02*
X139219989Y-121059585D01*
X137250000Y-117100000D02*
X137150000Y-117200000D01*
X137150000Y-117200000D02*
X137150000Y-118500000D01*
X138525001Y-118864999D02*
X138525001Y-120364597D01*
X137400000Y-118750000D02*
X138410002Y-118750000D01*
X137700000Y-117100000D02*
X137250000Y-117100000D01*
X138410002Y-118750000D02*
X138525001Y-118864999D01*
G04 #@! TO.N,Net-(R11-Pad1)*
X131550000Y-109000000D02*
X131450000Y-109000000D01*
X132550000Y-110850000D02*
X132550000Y-110000000D01*
X129100000Y-112700000D02*
X129100000Y-112500000D01*
X131700000Y-111700000D02*
X132550000Y-110850000D01*
X132550000Y-110000000D02*
X131550000Y-109000000D01*
X129900000Y-111700000D02*
X131700000Y-111700000D01*
X129100000Y-112500000D02*
X129900000Y-111700000D01*
G04 #@! TO.N,Net-(JP2-Pad2)*
X138400000Y-140300000D02*
X138400000Y-139550000D01*
G04 #@! TO.N,VUSB*
X132850000Y-141450000D02*
X132850000Y-139245998D01*
X126702400Y-106630000D02*
X126550000Y-106630000D01*
X132135003Y-138531001D02*
X131771001Y-138531001D01*
X132850000Y-139245998D02*
X132135003Y-138531001D01*
X131030000Y-137790000D02*
X130650001Y-137790000D01*
X131771001Y-138531001D02*
X131030000Y-137790000D01*
X131030000Y-136820000D02*
X130800000Y-136590000D01*
X131030000Y-137790000D02*
X131030000Y-136820000D01*
X130800000Y-136260000D02*
X129050000Y-134510000D01*
X130800000Y-136590000D02*
X130800000Y-136260000D01*
G04 #@! TD*
G04 #@! TO.N,Net-(C1-Pad2)*
G36*
X130700516Y-141145903D02*
X130659799Y-141291614D01*
X130715398Y-141425000D01*
X131625000Y-141425000D01*
X131625000Y-141405000D01*
X131675000Y-141405000D01*
X131675000Y-141425000D01*
X131695000Y-141425000D01*
X131695000Y-141475000D01*
X131675000Y-141475000D01*
X131675000Y-142305000D01*
X131825000Y-142305000D01*
X131991322Y-142283694D01*
X132150291Y-142230350D01*
X132295799Y-142147017D01*
X132368646Y-142083581D01*
X132368646Y-142125000D01*
X132374052Y-142179889D01*
X132390063Y-142232670D01*
X132416063Y-142281312D01*
X132451053Y-142323947D01*
X132493688Y-142358937D01*
X132542330Y-142384937D01*
X132595111Y-142400948D01*
X132650000Y-142406354D01*
X133050000Y-142406354D01*
X133104889Y-142400948D01*
X133157670Y-142384937D01*
X133175000Y-142375674D01*
X133192330Y-142384937D01*
X133245111Y-142400948D01*
X133300000Y-142406354D01*
X133700000Y-142406354D01*
X133754889Y-142400948D01*
X133807670Y-142384937D01*
X133825000Y-142375674D01*
X133842330Y-142384937D01*
X133895111Y-142400948D01*
X133950000Y-142406354D01*
X134350000Y-142406354D01*
X134404889Y-142400948D01*
X134457670Y-142384937D01*
X134475000Y-142375674D01*
X134492330Y-142384937D01*
X134545111Y-142400948D01*
X134600000Y-142406354D01*
X135000000Y-142406354D01*
X135054889Y-142400948D01*
X135107670Y-142384937D01*
X135125000Y-142375674D01*
X135142330Y-142384937D01*
X135195111Y-142400948D01*
X135250000Y-142406354D01*
X135650000Y-142406354D01*
X135704889Y-142400948D01*
X135757670Y-142384937D01*
X135806312Y-142358937D01*
X135848947Y-142323947D01*
X135883937Y-142281312D01*
X135909937Y-142232670D01*
X135925948Y-142179889D01*
X135931354Y-142125000D01*
X135931354Y-142083581D01*
X136004201Y-142147017D01*
X136149709Y-142230350D01*
X136308678Y-142283694D01*
X136475000Y-142305000D01*
X136625000Y-142305000D01*
X136625000Y-141475000D01*
X136675000Y-141475000D01*
X136675000Y-142305000D01*
X136825000Y-142305000D01*
X136991322Y-142283694D01*
X137150291Y-142230350D01*
X137295799Y-142147017D01*
X137422254Y-142036898D01*
X137524796Y-141904225D01*
X137599484Y-141754097D01*
X137640201Y-141608386D01*
X137584602Y-141475000D01*
X136675000Y-141475000D01*
X136625000Y-141475000D01*
X136605000Y-141475000D01*
X136605000Y-141425000D01*
X136625000Y-141425000D01*
X136625000Y-141405000D01*
X136675000Y-141405000D01*
X136675000Y-141425000D01*
X137584602Y-141425000D01*
X137640201Y-141291614D01*
X137599484Y-141145903D01*
X137576647Y-141100000D01*
X137668646Y-141100000D01*
X137668646Y-141300000D01*
X137674052Y-141354889D01*
X137690063Y-141407670D01*
X137700000Y-141426261D01*
X137700000Y-143000000D01*
X137701921Y-143019509D01*
X137707612Y-143038268D01*
X137713763Y-143049776D01*
X137675000Y-143065386D01*
X137675000Y-144125000D01*
X137695000Y-144125000D01*
X137695000Y-144175000D01*
X137675000Y-144175000D01*
X137675000Y-144195000D01*
X137625000Y-144195000D01*
X137625000Y-144175000D01*
X136770000Y-144175000D01*
X136770000Y-144450000D01*
X136791786Y-144621199D01*
X136846553Y-144784858D01*
X136932196Y-144934688D01*
X137045424Y-145064931D01*
X137181885Y-145170582D01*
X137331159Y-145245000D01*
X130968841Y-145245000D01*
X131118115Y-145170582D01*
X131254576Y-145064931D01*
X131367804Y-144934688D01*
X131453447Y-144784858D01*
X131508214Y-144621199D01*
X131530000Y-144450000D01*
X131530000Y-144175000D01*
X130675000Y-144175000D01*
X130675000Y-144195000D01*
X130625000Y-144195000D01*
X130625000Y-144175000D01*
X130605000Y-144175000D01*
X130605000Y-144125000D01*
X130625000Y-144125000D01*
X130625000Y-143065386D01*
X130675000Y-143065386D01*
X130675000Y-144125000D01*
X131530000Y-144125000D01*
X131530000Y-143850000D01*
X136770000Y-143850000D01*
X136770000Y-144125000D01*
X137625000Y-144125000D01*
X137625000Y-143065386D01*
X137487701Y-143010096D01*
X137336336Y-143052419D01*
X137181885Y-143129418D01*
X137045424Y-143235069D01*
X136932196Y-143365312D01*
X136846553Y-143515142D01*
X136791786Y-143678801D01*
X136770000Y-143850000D01*
X131530000Y-143850000D01*
X131508214Y-143678801D01*
X131453447Y-143515142D01*
X131367804Y-143365312D01*
X131254576Y-143235069D01*
X131118115Y-143129418D01*
X130963664Y-143052419D01*
X130812299Y-143010096D01*
X130675000Y-143065386D01*
X130625000Y-143065386D01*
X130586237Y-143049776D01*
X130592388Y-143038268D01*
X130598079Y-143019509D01*
X130600000Y-143000000D01*
X130600000Y-141608386D01*
X130659799Y-141608386D01*
X130700516Y-141754097D01*
X130775204Y-141904225D01*
X130877746Y-142036898D01*
X131004201Y-142147017D01*
X131149709Y-142230350D01*
X131308678Y-142283694D01*
X131475000Y-142305000D01*
X131625000Y-142305000D01*
X131625000Y-141475000D01*
X130715398Y-141475000D01*
X130659799Y-141608386D01*
X130600000Y-141608386D01*
X130600000Y-141100000D01*
X130723353Y-141100000D01*
X130700516Y-141145903D01*
X130700516Y-141145903D01*
G37*
X130700516Y-141145903D02*
X130659799Y-141291614D01*
X130715398Y-141425000D01*
X131625000Y-141425000D01*
X131625000Y-141405000D01*
X131675000Y-141405000D01*
X131675000Y-141425000D01*
X131695000Y-141425000D01*
X131695000Y-141475000D01*
X131675000Y-141475000D01*
X131675000Y-142305000D01*
X131825000Y-142305000D01*
X131991322Y-142283694D01*
X132150291Y-142230350D01*
X132295799Y-142147017D01*
X132368646Y-142083581D01*
X132368646Y-142125000D01*
X132374052Y-142179889D01*
X132390063Y-142232670D01*
X132416063Y-142281312D01*
X132451053Y-142323947D01*
X132493688Y-142358937D01*
X132542330Y-142384937D01*
X132595111Y-142400948D01*
X132650000Y-142406354D01*
X133050000Y-142406354D01*
X133104889Y-142400948D01*
X133157670Y-142384937D01*
X133175000Y-142375674D01*
X133192330Y-142384937D01*
X133245111Y-142400948D01*
X133300000Y-142406354D01*
X133700000Y-142406354D01*
X133754889Y-142400948D01*
X133807670Y-142384937D01*
X133825000Y-142375674D01*
X133842330Y-142384937D01*
X133895111Y-142400948D01*
X133950000Y-142406354D01*
X134350000Y-142406354D01*
X134404889Y-142400948D01*
X134457670Y-142384937D01*
X134475000Y-142375674D01*
X134492330Y-142384937D01*
X134545111Y-142400948D01*
X134600000Y-142406354D01*
X135000000Y-142406354D01*
X135054889Y-142400948D01*
X135107670Y-142384937D01*
X135125000Y-142375674D01*
X135142330Y-142384937D01*
X135195111Y-142400948D01*
X135250000Y-142406354D01*
X135650000Y-142406354D01*
X135704889Y-142400948D01*
X135757670Y-142384937D01*
X135806312Y-142358937D01*
X135848947Y-142323947D01*
X135883937Y-142281312D01*
X135909937Y-142232670D01*
X135925948Y-142179889D01*
X135931354Y-142125000D01*
X135931354Y-142083581D01*
X136004201Y-142147017D01*
X136149709Y-142230350D01*
X136308678Y-142283694D01*
X136475000Y-142305000D01*
X136625000Y-142305000D01*
X136625000Y-141475000D01*
X136675000Y-141475000D01*
X136675000Y-142305000D01*
X136825000Y-142305000D01*
X136991322Y-142283694D01*
X137150291Y-142230350D01*
X137295799Y-142147017D01*
X137422254Y-142036898D01*
X137524796Y-141904225D01*
X137599484Y-141754097D01*
X137640201Y-141608386D01*
X137584602Y-141475000D01*
X136675000Y-141475000D01*
X136625000Y-141475000D01*
X136605000Y-141475000D01*
X136605000Y-141425000D01*
X136625000Y-141425000D01*
X136625000Y-141405000D01*
X136675000Y-141405000D01*
X136675000Y-141425000D01*
X137584602Y-141425000D01*
X137640201Y-141291614D01*
X137599484Y-141145903D01*
X137576647Y-141100000D01*
X137668646Y-141100000D01*
X137668646Y-141300000D01*
X137674052Y-141354889D01*
X137690063Y-141407670D01*
X137700000Y-141426261D01*
X137700000Y-143000000D01*
X137701921Y-143019509D01*
X137707612Y-143038268D01*
X137713763Y-143049776D01*
X137675000Y-143065386D01*
X137675000Y-144125000D01*
X137695000Y-144125000D01*
X137695000Y-144175000D01*
X137675000Y-144175000D01*
X137675000Y-144195000D01*
X137625000Y-144195000D01*
X137625000Y-144175000D01*
X136770000Y-144175000D01*
X136770000Y-144450000D01*
X136791786Y-144621199D01*
X136846553Y-144784858D01*
X136932196Y-144934688D01*
X137045424Y-145064931D01*
X137181885Y-145170582D01*
X137331159Y-145245000D01*
X130968841Y-145245000D01*
X131118115Y-145170582D01*
X131254576Y-145064931D01*
X131367804Y-144934688D01*
X131453447Y-144784858D01*
X131508214Y-144621199D01*
X131530000Y-144450000D01*
X131530000Y-144175000D01*
X130675000Y-144175000D01*
X130675000Y-144195000D01*
X130625000Y-144195000D01*
X130625000Y-144175000D01*
X130605000Y-144175000D01*
X130605000Y-144125000D01*
X130625000Y-144125000D01*
X130625000Y-143065386D01*
X130675000Y-143065386D01*
X130675000Y-144125000D01*
X131530000Y-144125000D01*
X131530000Y-143850000D01*
X136770000Y-143850000D01*
X136770000Y-144125000D01*
X137625000Y-144125000D01*
X137625000Y-143065386D01*
X137487701Y-143010096D01*
X137336336Y-143052419D01*
X137181885Y-143129418D01*
X137045424Y-143235069D01*
X136932196Y-143365312D01*
X136846553Y-143515142D01*
X136791786Y-143678801D01*
X136770000Y-143850000D01*
X131530000Y-143850000D01*
X131508214Y-143678801D01*
X131453447Y-143515142D01*
X131367804Y-143365312D01*
X131254576Y-143235069D01*
X131118115Y-143129418D01*
X130963664Y-143052419D01*
X130812299Y-143010096D01*
X130675000Y-143065386D01*
X130625000Y-143065386D01*
X130586237Y-143049776D01*
X130592388Y-143038268D01*
X130598079Y-143019509D01*
X130600000Y-143000000D01*
X130600000Y-141608386D01*
X130659799Y-141608386D01*
X130700516Y-141754097D01*
X130775204Y-141904225D01*
X130877746Y-142036898D01*
X131004201Y-142147017D01*
X131149709Y-142230350D01*
X131308678Y-142283694D01*
X131475000Y-142305000D01*
X131625000Y-142305000D01*
X131625000Y-141475000D01*
X130715398Y-141475000D01*
X130659799Y-141608386D01*
X130600000Y-141608386D01*
X130600000Y-141100000D01*
X130723353Y-141100000D01*
X130700516Y-141145903D01*
D34*
G04 #@! TO.N,GND*
G36*
X139970308Y-119436563D02*
X140047666Y-119552335D01*
X140065648Y-119564350D01*
X140077665Y-119582335D01*
X140193437Y-119659692D01*
X140295532Y-119680000D01*
X140295537Y-119680000D01*
X140329999Y-119686855D01*
X140364462Y-119680000D01*
X140748069Y-119680000D01*
X140763823Y-119759199D01*
X141006944Y-120123056D01*
X141370801Y-120366177D01*
X141691661Y-120430000D01*
X141908339Y-120430000D01*
X142229199Y-120366177D01*
X142585000Y-120128439D01*
X142940801Y-120366177D01*
X142975000Y-120372980D01*
X142975000Y-120827020D01*
X142940801Y-120833823D01*
X142585000Y-121071561D01*
X142229199Y-120833823D01*
X141908339Y-120770000D01*
X141691661Y-120770000D01*
X141370801Y-120833823D01*
X141006944Y-121076944D01*
X140800000Y-121386658D01*
X140800000Y-120963132D01*
X140806855Y-120928668D01*
X140800000Y-120894204D01*
X140800000Y-120894200D01*
X140779692Y-120792105D01*
X140764530Y-120769414D01*
X140721860Y-120705553D01*
X140721856Y-120705549D01*
X140702334Y-120676333D01*
X140673118Y-120656812D01*
X140429398Y-120413092D01*
X140429398Y-120368555D01*
X140360890Y-120203161D01*
X140234303Y-120076574D01*
X140068909Y-120008066D01*
X139915481Y-120008066D01*
X139950000Y-119924728D01*
X139950000Y-119582500D01*
X139887500Y-119520000D01*
X139320000Y-119520000D01*
X139320000Y-120062500D01*
X139382500Y-120125000D01*
X139676067Y-120125000D01*
X139597906Y-120203161D01*
X139529398Y-120368555D01*
X139529398Y-120547577D01*
X139597906Y-120712971D01*
X139724493Y-120839558D01*
X139889887Y-120908066D01*
X139934424Y-120908066D01*
X140100000Y-121073643D01*
X140100001Y-124022184D01*
X140076887Y-124045298D01*
X140047665Y-124064824D01*
X139970308Y-124180596D01*
X139950000Y-124282691D01*
X139950000Y-124282694D01*
X139943145Y-124317158D01*
X139943692Y-124319911D01*
X139918508Y-124345095D01*
X139850000Y-124510489D01*
X139850000Y-124686394D01*
X139821407Y-124686394D01*
X139656013Y-124754902D01*
X139529426Y-124881489D01*
X139460918Y-125046883D01*
X139460918Y-125225905D01*
X139529426Y-125391299D01*
X139656013Y-125517886D01*
X139711507Y-125540872D01*
X139682201Y-125611623D01*
X139682201Y-125790645D01*
X139750709Y-125956039D01*
X139877296Y-126082626D01*
X140042690Y-126151134D01*
X140221712Y-126151134D01*
X140387106Y-126082626D01*
X140412379Y-126057353D01*
X140808686Y-126453659D01*
X140763823Y-126520801D01*
X140678450Y-126950000D01*
X140763823Y-127379199D01*
X141006944Y-127743056D01*
X141370801Y-127986177D01*
X141691661Y-128050000D01*
X141908339Y-128050000D01*
X142229199Y-127986177D01*
X142585000Y-127748439D01*
X142940801Y-127986177D01*
X142975001Y-127992980D01*
X142975001Y-128447020D01*
X142940801Y-128453823D01*
X142585000Y-128691561D01*
X142229199Y-128453823D01*
X141908339Y-128390000D01*
X141691661Y-128390000D01*
X141370801Y-128453823D01*
X141303659Y-128498686D01*
X140883194Y-128078221D01*
X140863667Y-128048997D01*
X140747895Y-127971640D01*
X140645800Y-127951332D01*
X140645796Y-127951332D01*
X140611332Y-127944477D01*
X140576868Y-127951332D01*
X140472578Y-127951332D01*
X140441086Y-127919840D01*
X140275692Y-127851332D01*
X140096670Y-127851332D01*
X139931276Y-127919840D01*
X139804689Y-128046427D01*
X139736181Y-128211821D01*
X139736181Y-128390843D01*
X139804689Y-128556237D01*
X139931276Y-128682824D01*
X140096670Y-128751332D01*
X140275692Y-128751332D01*
X140441086Y-128682824D01*
X140469468Y-128654442D01*
X140808686Y-128993659D01*
X140763823Y-129060801D01*
X140678450Y-129490000D01*
X140763823Y-129919199D01*
X141006944Y-130283056D01*
X141370801Y-130526177D01*
X141691661Y-130590000D01*
X141908339Y-130590000D01*
X142229199Y-130526177D01*
X142585000Y-130288439D01*
X142940801Y-130526177D01*
X142975001Y-130532980D01*
X142975001Y-130987020D01*
X142940801Y-130993823D01*
X142585000Y-131231561D01*
X142229199Y-130993823D01*
X141908339Y-130930000D01*
X141691661Y-130930000D01*
X141370801Y-130993823D01*
X141006944Y-131236944D01*
X140763823Y-131600801D01*
X140678450Y-132030000D01*
X140763823Y-132459199D01*
X141006944Y-132823056D01*
X141370801Y-133066177D01*
X141691661Y-133130000D01*
X141908339Y-133130000D01*
X142229199Y-133066177D01*
X142585000Y-132828439D01*
X142940801Y-133066177D01*
X142975001Y-133072980D01*
X142975001Y-133527020D01*
X142940801Y-133533823D01*
X142585000Y-133771561D01*
X142229199Y-133533823D01*
X141908339Y-133470000D01*
X141691661Y-133470000D01*
X141370801Y-133533823D01*
X141006944Y-133776944D01*
X140763823Y-134140801D01*
X140678450Y-134570000D01*
X140763823Y-134999199D01*
X141006944Y-135363056D01*
X141370801Y-135606177D01*
X141691661Y-135670000D01*
X141908339Y-135670000D01*
X142229199Y-135606177D01*
X142585000Y-135368439D01*
X142940801Y-135606177D01*
X142975001Y-135612980D01*
X142975001Y-136067020D01*
X142940801Y-136073823D01*
X142585000Y-136311561D01*
X142229199Y-136073823D01*
X141908339Y-136010000D01*
X141691661Y-136010000D01*
X141370801Y-136073823D01*
X141006944Y-136316944D01*
X140763823Y-136680801D01*
X140678450Y-137110000D01*
X140763823Y-137539199D01*
X141006944Y-137903056D01*
X141370801Y-138146177D01*
X141691661Y-138210000D01*
X141908339Y-138210000D01*
X142229199Y-138146177D01*
X142585000Y-137908439D01*
X142940801Y-138146177D01*
X142975001Y-138152980D01*
X142975001Y-139831179D01*
X142899728Y-139800000D01*
X142332500Y-139800000D01*
X142270000Y-139862500D01*
X142270000Y-140630000D01*
X142290000Y-140630000D01*
X142290000Y-140670000D01*
X142270000Y-140670000D01*
X142270000Y-141437500D01*
X142332500Y-141500000D01*
X142899728Y-141500000D01*
X142975001Y-141468821D01*
X142975001Y-145275000D01*
X138690000Y-145275000D01*
X138690000Y-144488954D01*
X138736563Y-144479692D01*
X138852335Y-144402335D01*
X138871861Y-144373112D01*
X138994974Y-144250000D01*
X139020103Y-144250000D01*
X139020103Y-144300000D01*
X139039506Y-144397545D01*
X139094761Y-144480239D01*
X139177455Y-144535494D01*
X139275000Y-144554897D01*
X140025000Y-144554897D01*
X140122545Y-144535494D01*
X140205239Y-144480239D01*
X140260494Y-144397545D01*
X140279897Y-144300000D01*
X140279897Y-144275000D01*
X140682851Y-144275000D01*
X140719761Y-144330239D01*
X140802455Y-144385494D01*
X140900000Y-144404897D01*
X141800000Y-144404897D01*
X141897545Y-144385494D01*
X141980239Y-144330239D01*
X142035494Y-144247545D01*
X142054897Y-144150000D01*
X142054897Y-143650000D01*
X142035494Y-143552455D01*
X141980239Y-143469761D01*
X141897545Y-143414506D01*
X141800000Y-143395103D01*
X140900000Y-143395103D01*
X140802455Y-143414506D01*
X140719761Y-143469761D01*
X140682851Y-143525000D01*
X140279897Y-143525000D01*
X140279897Y-143500000D01*
X140260494Y-143402455D01*
X140205239Y-143319761D01*
X140122545Y-143264506D01*
X140025000Y-143245103D01*
X139275000Y-143245103D01*
X139177455Y-143264506D01*
X139094761Y-143319761D01*
X139039506Y-143402455D01*
X139020103Y-143500000D01*
X139020103Y-143550000D01*
X138884462Y-143550000D01*
X138849999Y-143543145D01*
X138815536Y-143550000D01*
X138815532Y-143550000D01*
X138713437Y-143570308D01*
X138690000Y-143585968D01*
X138690000Y-142482500D01*
X139025000Y-142482500D01*
X139025000Y-142849728D01*
X139063060Y-142941614D01*
X139133386Y-143011940D01*
X139225272Y-143050000D01*
X139567500Y-143050000D01*
X139630000Y-142987500D01*
X139630000Y-142420000D01*
X139670000Y-142420000D01*
X139670000Y-142987500D01*
X139732500Y-143050000D01*
X140074728Y-143050000D01*
X140166614Y-143011940D01*
X140236940Y-142941614D01*
X140275000Y-142849728D01*
X140275000Y-142482500D01*
X140650000Y-142482500D01*
X140650000Y-142699728D01*
X140688060Y-142791614D01*
X140758386Y-142861940D01*
X140850272Y-142900000D01*
X141267500Y-142900000D01*
X141330000Y-142837500D01*
X141330000Y-142420000D01*
X141370000Y-142420000D01*
X141370000Y-142837500D01*
X141432500Y-142900000D01*
X141849728Y-142900000D01*
X141941614Y-142861940D01*
X142011940Y-142791614D01*
X142050000Y-142699728D01*
X142050000Y-142482500D01*
X141987500Y-142420000D01*
X141370000Y-142420000D01*
X141330000Y-142420000D01*
X140712500Y-142420000D01*
X140650000Y-142482500D01*
X140275000Y-142482500D01*
X140212500Y-142420000D01*
X139670000Y-142420000D01*
X139630000Y-142420000D01*
X139087500Y-142420000D01*
X139025000Y-142482500D01*
X138690000Y-142482500D01*
X138690000Y-141950272D01*
X139025000Y-141950272D01*
X139025000Y-142317500D01*
X139087500Y-142380000D01*
X139630000Y-142380000D01*
X139630000Y-141812500D01*
X139670000Y-141812500D01*
X139670000Y-142380000D01*
X140212500Y-142380000D01*
X140275000Y-142317500D01*
X140275000Y-142100272D01*
X140650000Y-142100272D01*
X140650000Y-142317500D01*
X140712500Y-142380000D01*
X141330000Y-142380000D01*
X141330000Y-141962500D01*
X141370000Y-141962500D01*
X141370000Y-142380000D01*
X141987500Y-142380000D01*
X142050000Y-142317500D01*
X142050000Y-142100272D01*
X142011940Y-142008386D01*
X141941614Y-141938060D01*
X141849728Y-141900000D01*
X141432500Y-141900000D01*
X141370000Y-141962500D01*
X141330000Y-141962500D01*
X141267500Y-141900000D01*
X140850272Y-141900000D01*
X140758386Y-141938060D01*
X140688060Y-142008386D01*
X140650000Y-142100272D01*
X140275000Y-142100272D01*
X140275000Y-141950272D01*
X140236940Y-141858386D01*
X140166614Y-141788060D01*
X140074728Y-141750000D01*
X139732500Y-141750000D01*
X139670000Y-141812500D01*
X139630000Y-141812500D01*
X139567500Y-141750000D01*
X139225272Y-141750000D01*
X139133386Y-141788060D01*
X139063060Y-141858386D01*
X139025000Y-141950272D01*
X138690000Y-141950272D01*
X138690000Y-141554897D01*
X138850000Y-141554897D01*
X138947545Y-141535494D01*
X139030239Y-141480239D01*
X139083854Y-141400000D01*
X139349556Y-141400000D01*
X139369761Y-141430239D01*
X139452455Y-141485494D01*
X139550000Y-141504897D01*
X140750000Y-141504897D01*
X140847545Y-141485494D01*
X140930239Y-141430239D01*
X140985494Y-141347545D01*
X141004897Y-141250000D01*
X141004897Y-140732500D01*
X141400000Y-140732500D01*
X141400000Y-141299728D01*
X141438060Y-141391614D01*
X141508386Y-141461940D01*
X141600272Y-141500000D01*
X142167500Y-141500000D01*
X142230000Y-141437500D01*
X142230000Y-140670000D01*
X141462500Y-140670000D01*
X141400000Y-140732500D01*
X141004897Y-140732500D01*
X141004897Y-140050000D01*
X140985494Y-139952455D01*
X140930239Y-139869761D01*
X140900665Y-139850000D01*
X141213603Y-139850000D01*
X141245095Y-139881492D01*
X141410489Y-139950000D01*
X141420823Y-139950000D01*
X141400000Y-140000272D01*
X141400000Y-140567500D01*
X141462500Y-140630000D01*
X142230000Y-140630000D01*
X142230000Y-139862500D01*
X142167500Y-139800000D01*
X141836397Y-139800000D01*
X141881492Y-139754905D01*
X141950000Y-139589511D01*
X141950000Y-139410489D01*
X141881492Y-139245095D01*
X141754905Y-139118508D01*
X141589511Y-139050000D01*
X141410489Y-139050000D01*
X141245095Y-139118508D01*
X141213603Y-139150000D01*
X140144974Y-139150000D01*
X139801522Y-138806549D01*
X139850000Y-138689511D01*
X139850000Y-138510489D01*
X139781492Y-138345095D01*
X139654905Y-138218508D01*
X139489511Y-138150000D01*
X139434468Y-138150000D01*
X139400000Y-138143144D01*
X139365533Y-138150000D01*
X139310489Y-138150000D01*
X139145095Y-138218508D01*
X139018508Y-138345095D01*
X138950000Y-138510489D01*
X138950000Y-138689511D01*
X139018508Y-138854905D01*
X139046539Y-138882936D01*
X139043145Y-138900000D01*
X139050000Y-138934464D01*
X139050000Y-138934468D01*
X139070308Y-139036563D01*
X139147666Y-139152335D01*
X139176887Y-139171860D01*
X139728140Y-139723114D01*
X139747665Y-139752335D01*
X139811671Y-139795103D01*
X139550000Y-139795103D01*
X139452455Y-139814506D01*
X139369761Y-139869761D01*
X139314506Y-139952455D01*
X139295103Y-140050000D01*
X139295103Y-140700000D01*
X139083854Y-140700000D01*
X139030239Y-140619761D01*
X138947545Y-140564506D01*
X138850000Y-140545103D01*
X138785552Y-140545103D01*
X138850000Y-140389511D01*
X138850000Y-140210489D01*
X138785552Y-140054897D01*
X138850000Y-140054897D01*
X138947545Y-140035494D01*
X139030239Y-139980239D01*
X139085494Y-139897545D01*
X139104897Y-139800000D01*
X139104897Y-139300000D01*
X139085494Y-139202455D01*
X139030239Y-139119761D01*
X138947545Y-139064506D01*
X138850000Y-139045103D01*
X137950000Y-139045103D01*
X137852455Y-139064506D01*
X137769761Y-139119761D01*
X137714506Y-139202455D01*
X137695103Y-139300000D01*
X137695103Y-139800000D01*
X137714506Y-139897545D01*
X137769761Y-139980239D01*
X137852455Y-140035494D01*
X137950000Y-140054897D01*
X138014448Y-140054897D01*
X137950000Y-140210489D01*
X137950000Y-140389511D01*
X138014448Y-140545103D01*
X137950000Y-140545103D01*
X137852455Y-140564506D01*
X137769761Y-140619761D01*
X137714506Y-140702455D01*
X137713005Y-140710000D01*
X137177471Y-140710000D01*
X137121899Y-140672868D01*
X137001674Y-140648954D01*
X137000000Y-140640536D01*
X137000000Y-140640532D01*
X136979692Y-140538437D01*
X136952298Y-140497440D01*
X136921860Y-140451886D01*
X136921858Y-140451884D01*
X136902334Y-140422665D01*
X136873115Y-140403141D01*
X136796861Y-140326888D01*
X136777335Y-140297665D01*
X136672773Y-140227798D01*
X136598253Y-140153279D01*
X136635494Y-140097545D01*
X136654897Y-140000000D01*
X136654897Y-139100000D01*
X136635494Y-139002455D01*
X136580239Y-138919761D01*
X136497545Y-138864506D01*
X136400000Y-138845103D01*
X136145870Y-138845103D01*
X136210972Y-138780001D01*
X138335535Y-138780001D01*
X138369999Y-138786856D01*
X138404463Y-138780001D01*
X138404467Y-138780001D01*
X138506562Y-138759693D01*
X138622334Y-138682336D01*
X138641861Y-138653112D01*
X140023117Y-137271858D01*
X140052335Y-137252335D01*
X140071858Y-137223117D01*
X140071860Y-137223115D01*
X140129692Y-137136563D01*
X140138584Y-137091859D01*
X140150000Y-137034468D01*
X140150000Y-137034464D01*
X140156855Y-137000000D01*
X140150000Y-136965536D01*
X140150000Y-131836387D01*
X140181492Y-131804895D01*
X140250000Y-131639501D01*
X140250000Y-131460479D01*
X140181492Y-131295085D01*
X140054905Y-131168498D01*
X139889511Y-131099990D01*
X139825000Y-131099990D01*
X139825000Y-130832500D01*
X139762500Y-130770000D01*
X139220000Y-130770000D01*
X139220000Y-131337500D01*
X139282500Y-131400000D01*
X139375051Y-131400000D01*
X139350000Y-131460479D01*
X139350000Y-131639501D01*
X139418508Y-131804895D01*
X139450000Y-131836387D01*
X139450001Y-136855024D01*
X138225026Y-138080001D01*
X136275000Y-138080001D01*
X136275000Y-137832500D01*
X136212500Y-137770000D01*
X135670000Y-137770000D01*
X135670000Y-137790000D01*
X135630000Y-137790000D01*
X135630000Y-137770000D01*
X135087500Y-137770000D01*
X135025000Y-137832500D01*
X135025000Y-138199728D01*
X135063060Y-138291614D01*
X135133386Y-138361940D01*
X135225272Y-138400000D01*
X135567500Y-138400000D01*
X135629998Y-138337502D01*
X135629998Y-138371025D01*
X135080649Y-138920375D01*
X135080239Y-138919761D01*
X135053461Y-138901868D01*
X135100000Y-138789511D01*
X135100000Y-138610489D01*
X135031492Y-138445095D01*
X134904905Y-138318508D01*
X134739511Y-138250000D01*
X134711397Y-138250000D01*
X134711397Y-137489000D01*
X134691994Y-137391455D01*
X134636739Y-137308761D01*
X134624035Y-137300272D01*
X135025000Y-137300272D01*
X135025000Y-137667500D01*
X135087500Y-137730000D01*
X135630000Y-137730000D01*
X135630000Y-137162500D01*
X135670000Y-137162500D01*
X135670000Y-137730000D01*
X136212500Y-137730000D01*
X136275000Y-137667500D01*
X136275000Y-137300272D01*
X136236940Y-137208386D01*
X136166614Y-137138060D01*
X136074728Y-137100000D01*
X135732500Y-137100000D01*
X135670000Y-137162500D01*
X135630000Y-137162500D01*
X135567500Y-137100000D01*
X135225272Y-137100000D01*
X135133386Y-137138060D01*
X135063060Y-137208386D01*
X135025000Y-137300272D01*
X134624035Y-137300272D01*
X134554045Y-137253506D01*
X134552500Y-137253199D01*
X134552500Y-136786962D01*
X134559355Y-136752499D01*
X134552500Y-136718036D01*
X134552500Y-136718032D01*
X134533995Y-136625000D01*
X135020103Y-136625000D01*
X135020103Y-136650000D01*
X135039506Y-136747545D01*
X135094761Y-136830239D01*
X135177455Y-136885494D01*
X135275000Y-136904897D01*
X136025000Y-136904897D01*
X136122545Y-136885494D01*
X136205239Y-136830239D01*
X136260494Y-136747545D01*
X136279897Y-136650000D01*
X136279897Y-135850000D01*
X136260494Y-135752455D01*
X136205239Y-135669761D01*
X136122545Y-135614506D01*
X136025000Y-135595103D01*
X135275000Y-135595103D01*
X135177455Y-135614506D01*
X135094761Y-135669761D01*
X135039506Y-135752455D01*
X135020103Y-135850000D01*
X135020103Y-135875000D01*
X134647590Y-135875000D01*
X134691994Y-135808545D01*
X134711397Y-135711000D01*
X134711397Y-134949000D01*
X134691994Y-134851455D01*
X134636739Y-134768761D01*
X134554045Y-134713506D01*
X134456500Y-134694103D01*
X133948500Y-134694103D01*
X133850955Y-134713506D01*
X133768261Y-134768761D01*
X133713006Y-134851455D01*
X133693603Y-134949000D01*
X133693603Y-135711000D01*
X133713006Y-135808545D01*
X133768261Y-135891239D01*
X133825001Y-135929152D01*
X133825001Y-136048117D01*
X133815536Y-136050000D01*
X132484464Y-136050000D01*
X132450000Y-136043145D01*
X132415536Y-136050000D01*
X132415532Y-136050000D01*
X132313437Y-136070308D01*
X132311546Y-136071571D01*
X132205872Y-135965897D01*
X132551500Y-135965897D01*
X132649045Y-135946494D01*
X132731739Y-135891239D01*
X132786994Y-135808545D01*
X132806397Y-135711000D01*
X132806397Y-134949000D01*
X132786994Y-134851455D01*
X132731739Y-134768761D01*
X132649045Y-134713506D01*
X132551500Y-134694103D01*
X132043500Y-134694103D01*
X131945955Y-134713506D01*
X131863261Y-134768761D01*
X131828804Y-134820329D01*
X131509977Y-134501504D01*
X131509977Y-134047477D01*
X131672679Y-133884776D01*
X131719761Y-133955239D01*
X131802455Y-134010494D01*
X131900000Y-134029897D01*
X132700000Y-134029897D01*
X132797545Y-134010494D01*
X132880239Y-133955239D01*
X132935494Y-133872545D01*
X132954897Y-133775000D01*
X132954897Y-133482500D01*
X133150000Y-133482500D01*
X133150000Y-133824728D01*
X133188060Y-133916614D01*
X133258386Y-133986940D01*
X133350272Y-134025000D01*
X133717500Y-134025000D01*
X133780000Y-133962500D01*
X133780000Y-133420000D01*
X133820000Y-133420000D01*
X133820000Y-133962500D01*
X133882500Y-134025000D01*
X134249728Y-134025000D01*
X134341614Y-133986940D01*
X134411940Y-133916614D01*
X134450000Y-133824728D01*
X134450000Y-133482500D01*
X134387500Y-133420000D01*
X133820000Y-133420000D01*
X133780000Y-133420000D01*
X133212500Y-133420000D01*
X133150000Y-133482500D01*
X132954897Y-133482500D01*
X132954897Y-133025000D01*
X132945006Y-132975272D01*
X133150000Y-132975272D01*
X133150000Y-133317500D01*
X133212500Y-133380000D01*
X133780000Y-133380000D01*
X133780000Y-132837500D01*
X133717500Y-132775000D01*
X133350272Y-132775000D01*
X133258386Y-132813060D01*
X133188060Y-132883386D01*
X133150000Y-132975272D01*
X132945006Y-132975272D01*
X132935494Y-132927455D01*
X132880239Y-132844761D01*
X132817280Y-132802693D01*
X133274662Y-132345312D01*
X133784954Y-132345312D01*
X133885592Y-132445951D01*
X133885592Y-132490488D01*
X133954100Y-132655882D01*
X134073218Y-132775000D01*
X133882500Y-132775000D01*
X133820000Y-132837500D01*
X133820000Y-133380000D01*
X134387500Y-133380000D01*
X134450000Y-133317500D01*
X134450000Y-132997584D01*
X134498052Y-133029692D01*
X134600147Y-133050000D01*
X134600151Y-133050000D01*
X134634614Y-133056855D01*
X134669078Y-133050000D01*
X134715537Y-133050000D01*
X134749999Y-133056855D01*
X134784462Y-133050000D01*
X135365532Y-133050000D01*
X135400000Y-133056856D01*
X135434467Y-133050000D01*
X135434468Y-133050000D01*
X135536563Y-133029692D01*
X135652335Y-132952335D01*
X135729692Y-132836563D01*
X135756856Y-132700000D01*
X135750000Y-132665532D01*
X135750000Y-132210571D01*
X137128072Y-130832500D01*
X138575000Y-130832500D01*
X138575000Y-131199728D01*
X138613060Y-131291614D01*
X138683386Y-131361940D01*
X138775272Y-131400000D01*
X139117500Y-131400000D01*
X139180000Y-131337500D01*
X139180000Y-130770000D01*
X138637500Y-130770000D01*
X138575000Y-130832500D01*
X137128072Y-130832500D01*
X137760573Y-130200000D01*
X138615536Y-130200000D01*
X138620466Y-130200980D01*
X138613060Y-130208386D01*
X138575000Y-130300272D01*
X138575000Y-130667500D01*
X138637500Y-130730000D01*
X139180000Y-130730000D01*
X139180000Y-130162500D01*
X139220000Y-130162500D01*
X139220000Y-130730000D01*
X139762500Y-130730000D01*
X139825000Y-130667500D01*
X139825000Y-130300272D01*
X139786940Y-130208386D01*
X139716614Y-130138060D01*
X139624728Y-130100000D01*
X139282500Y-130100000D01*
X139220000Y-130162500D01*
X139180000Y-130162500D01*
X139117500Y-130100000D01*
X138903895Y-130100000D01*
X138921862Y-130073111D01*
X139090076Y-129904897D01*
X139575000Y-129904897D01*
X139672545Y-129885494D01*
X139755239Y-129830239D01*
X139810494Y-129747545D01*
X139829897Y-129650000D01*
X139829897Y-128850000D01*
X139810494Y-128752455D01*
X139755239Y-128669761D01*
X139672545Y-128614506D01*
X139634284Y-128606895D01*
X139634284Y-127533940D01*
X139923903Y-127244322D01*
X139953121Y-127224799D01*
X139975017Y-127192031D01*
X139992900Y-127165267D01*
X140030479Y-127109027D01*
X140050787Y-127006932D01*
X140050787Y-127006927D01*
X140057642Y-126972465D01*
X140050787Y-126938002D01*
X140050787Y-126696162D01*
X140057642Y-126661699D01*
X140050787Y-126627236D01*
X140050787Y-126627232D01*
X140030479Y-126525137D01*
X139987666Y-126461063D01*
X139972646Y-126438584D01*
X139972645Y-126438583D01*
X139955535Y-126412977D01*
X139953960Y-126405057D01*
X139898705Y-126322363D01*
X138979466Y-125403124D01*
X138896772Y-125347869D01*
X138878244Y-125344184D01*
X138732685Y-125198625D01*
X138730002Y-125185134D01*
X138730002Y-125185131D01*
X138714373Y-125106560D01*
X138709694Y-125083035D01*
X138684914Y-125045949D01*
X138737021Y-125024366D01*
X138863608Y-124897779D01*
X138932116Y-124732385D01*
X138932116Y-124628515D01*
X138979466Y-124596876D01*
X139898705Y-123677637D01*
X139953960Y-123594943D01*
X139973363Y-123497398D01*
X139953960Y-123399853D01*
X139898705Y-123317159D01*
X139721928Y-123140382D01*
X139639234Y-123085127D01*
X139606849Y-123078685D01*
X139600407Y-123046300D01*
X139545152Y-122963606D01*
X139368375Y-122786829D01*
X139285681Y-122731574D01*
X139253295Y-122725132D01*
X139246853Y-122692746D01*
X139191598Y-122610052D01*
X139014821Y-122433275D01*
X138932127Y-122378020D01*
X138899742Y-122371578D01*
X138893300Y-122339193D01*
X138838045Y-122256499D01*
X138761548Y-122180002D01*
X138995938Y-122180002D01*
X139030402Y-122186857D01*
X139064866Y-122180002D01*
X139064870Y-122180002D01*
X139166965Y-122159694D01*
X139282737Y-122082337D01*
X139302264Y-122053114D01*
X139443102Y-121912275D01*
X139472324Y-121892750D01*
X139549681Y-121776978D01*
X139569989Y-121674883D01*
X139569989Y-121674879D01*
X139576844Y-121640415D01*
X139569989Y-121605951D01*
X139569989Y-121094047D01*
X139576844Y-121059584D01*
X139569989Y-121025121D01*
X139569989Y-121025117D01*
X139549681Y-120923022D01*
X139530422Y-120894200D01*
X139491848Y-120836469D01*
X139491845Y-120836466D01*
X139472323Y-120807250D01*
X139443108Y-120787729D01*
X138875001Y-120219624D01*
X138875001Y-120125000D01*
X139217500Y-120125000D01*
X139280000Y-120062500D01*
X139280000Y-119520000D01*
X139260000Y-119520000D01*
X139260000Y-119480000D01*
X139280000Y-119480000D01*
X139280000Y-119460000D01*
X139320000Y-119460000D01*
X139320000Y-119480000D01*
X139887500Y-119480000D01*
X139950000Y-119417500D01*
X139950000Y-119334468D01*
X139970308Y-119436563D01*
X139970308Y-119436563D01*
G37*
X139970308Y-119436563D02*
X140047666Y-119552335D01*
X140065648Y-119564350D01*
X140077665Y-119582335D01*
X140193437Y-119659692D01*
X140295532Y-119680000D01*
X140295537Y-119680000D01*
X140329999Y-119686855D01*
X140364462Y-119680000D01*
X140748069Y-119680000D01*
X140763823Y-119759199D01*
X141006944Y-120123056D01*
X141370801Y-120366177D01*
X141691661Y-120430000D01*
X141908339Y-120430000D01*
X142229199Y-120366177D01*
X142585000Y-120128439D01*
X142940801Y-120366177D01*
X142975000Y-120372980D01*
X142975000Y-120827020D01*
X142940801Y-120833823D01*
X142585000Y-121071561D01*
X142229199Y-120833823D01*
X141908339Y-120770000D01*
X141691661Y-120770000D01*
X141370801Y-120833823D01*
X141006944Y-121076944D01*
X140800000Y-121386658D01*
X140800000Y-120963132D01*
X140806855Y-120928668D01*
X140800000Y-120894204D01*
X140800000Y-120894200D01*
X140779692Y-120792105D01*
X140764530Y-120769414D01*
X140721860Y-120705553D01*
X140721856Y-120705549D01*
X140702334Y-120676333D01*
X140673118Y-120656812D01*
X140429398Y-120413092D01*
X140429398Y-120368555D01*
X140360890Y-120203161D01*
X140234303Y-120076574D01*
X140068909Y-120008066D01*
X139915481Y-120008066D01*
X139950000Y-119924728D01*
X139950000Y-119582500D01*
X139887500Y-119520000D01*
X139320000Y-119520000D01*
X139320000Y-120062500D01*
X139382500Y-120125000D01*
X139676067Y-120125000D01*
X139597906Y-120203161D01*
X139529398Y-120368555D01*
X139529398Y-120547577D01*
X139597906Y-120712971D01*
X139724493Y-120839558D01*
X139889887Y-120908066D01*
X139934424Y-120908066D01*
X140100000Y-121073643D01*
X140100001Y-124022184D01*
X140076887Y-124045298D01*
X140047665Y-124064824D01*
X139970308Y-124180596D01*
X139950000Y-124282691D01*
X139950000Y-124282694D01*
X139943145Y-124317158D01*
X139943692Y-124319911D01*
X139918508Y-124345095D01*
X139850000Y-124510489D01*
X139850000Y-124686394D01*
X139821407Y-124686394D01*
X139656013Y-124754902D01*
X139529426Y-124881489D01*
X139460918Y-125046883D01*
X139460918Y-125225905D01*
X139529426Y-125391299D01*
X139656013Y-125517886D01*
X139711507Y-125540872D01*
X139682201Y-125611623D01*
X139682201Y-125790645D01*
X139750709Y-125956039D01*
X139877296Y-126082626D01*
X140042690Y-126151134D01*
X140221712Y-126151134D01*
X140387106Y-126082626D01*
X140412379Y-126057353D01*
X140808686Y-126453659D01*
X140763823Y-126520801D01*
X140678450Y-126950000D01*
X140763823Y-127379199D01*
X141006944Y-127743056D01*
X141370801Y-127986177D01*
X141691661Y-128050000D01*
X141908339Y-128050000D01*
X142229199Y-127986177D01*
X142585000Y-127748439D01*
X142940801Y-127986177D01*
X142975001Y-127992980D01*
X142975001Y-128447020D01*
X142940801Y-128453823D01*
X142585000Y-128691561D01*
X142229199Y-128453823D01*
X141908339Y-128390000D01*
X141691661Y-128390000D01*
X141370801Y-128453823D01*
X141303659Y-128498686D01*
X140883194Y-128078221D01*
X140863667Y-128048997D01*
X140747895Y-127971640D01*
X140645800Y-127951332D01*
X140645796Y-127951332D01*
X140611332Y-127944477D01*
X140576868Y-127951332D01*
X140472578Y-127951332D01*
X140441086Y-127919840D01*
X140275692Y-127851332D01*
X140096670Y-127851332D01*
X139931276Y-127919840D01*
X139804689Y-128046427D01*
X139736181Y-128211821D01*
X139736181Y-128390843D01*
X139804689Y-128556237D01*
X139931276Y-128682824D01*
X140096670Y-128751332D01*
X140275692Y-128751332D01*
X140441086Y-128682824D01*
X140469468Y-128654442D01*
X140808686Y-128993659D01*
X140763823Y-129060801D01*
X140678450Y-129490000D01*
X140763823Y-129919199D01*
X141006944Y-130283056D01*
X141370801Y-130526177D01*
X141691661Y-130590000D01*
X141908339Y-130590000D01*
X142229199Y-130526177D01*
X142585000Y-130288439D01*
X142940801Y-130526177D01*
X142975001Y-130532980D01*
X142975001Y-130987020D01*
X142940801Y-130993823D01*
X142585000Y-131231561D01*
X142229199Y-130993823D01*
X141908339Y-130930000D01*
X141691661Y-130930000D01*
X141370801Y-130993823D01*
X141006944Y-131236944D01*
X140763823Y-131600801D01*
X140678450Y-132030000D01*
X140763823Y-132459199D01*
X141006944Y-132823056D01*
X141370801Y-133066177D01*
X141691661Y-133130000D01*
X141908339Y-133130000D01*
X142229199Y-133066177D01*
X142585000Y-132828439D01*
X142940801Y-133066177D01*
X142975001Y-133072980D01*
X142975001Y-133527020D01*
X142940801Y-133533823D01*
X142585000Y-133771561D01*
X142229199Y-133533823D01*
X141908339Y-133470000D01*
X141691661Y-133470000D01*
X141370801Y-133533823D01*
X141006944Y-133776944D01*
X140763823Y-134140801D01*
X140678450Y-134570000D01*
X140763823Y-134999199D01*
X141006944Y-135363056D01*
X141370801Y-135606177D01*
X141691661Y-135670000D01*
X141908339Y-135670000D01*
X142229199Y-135606177D01*
X142585000Y-135368439D01*
X142940801Y-135606177D01*
X142975001Y-135612980D01*
X142975001Y-136067020D01*
X142940801Y-136073823D01*
X142585000Y-136311561D01*
X142229199Y-136073823D01*
X141908339Y-136010000D01*
X141691661Y-136010000D01*
X141370801Y-136073823D01*
X141006944Y-136316944D01*
X140763823Y-136680801D01*
X140678450Y-137110000D01*
X140763823Y-137539199D01*
X141006944Y-137903056D01*
X141370801Y-138146177D01*
X141691661Y-138210000D01*
X141908339Y-138210000D01*
X142229199Y-138146177D01*
X142585000Y-137908439D01*
X142940801Y-138146177D01*
X142975001Y-138152980D01*
X142975001Y-139831179D01*
X142899728Y-139800000D01*
X142332500Y-139800000D01*
X142270000Y-139862500D01*
X142270000Y-140630000D01*
X142290000Y-140630000D01*
X142290000Y-140670000D01*
X142270000Y-140670000D01*
X142270000Y-141437500D01*
X142332500Y-141500000D01*
X142899728Y-141500000D01*
X142975001Y-141468821D01*
X142975001Y-145275000D01*
X138690000Y-145275000D01*
X138690000Y-144488954D01*
X138736563Y-144479692D01*
X138852335Y-144402335D01*
X138871861Y-144373112D01*
X138994974Y-144250000D01*
X139020103Y-144250000D01*
X139020103Y-144300000D01*
X139039506Y-144397545D01*
X139094761Y-144480239D01*
X139177455Y-144535494D01*
X139275000Y-144554897D01*
X140025000Y-144554897D01*
X140122545Y-144535494D01*
X140205239Y-144480239D01*
X140260494Y-144397545D01*
X140279897Y-144300000D01*
X140279897Y-144275000D01*
X140682851Y-144275000D01*
X140719761Y-144330239D01*
X140802455Y-144385494D01*
X140900000Y-144404897D01*
X141800000Y-144404897D01*
X141897545Y-144385494D01*
X141980239Y-144330239D01*
X142035494Y-144247545D01*
X142054897Y-144150000D01*
X142054897Y-143650000D01*
X142035494Y-143552455D01*
X141980239Y-143469761D01*
X141897545Y-143414506D01*
X141800000Y-143395103D01*
X140900000Y-143395103D01*
X140802455Y-143414506D01*
X140719761Y-143469761D01*
X140682851Y-143525000D01*
X140279897Y-143525000D01*
X140279897Y-143500000D01*
X140260494Y-143402455D01*
X140205239Y-143319761D01*
X140122545Y-143264506D01*
X140025000Y-143245103D01*
X139275000Y-143245103D01*
X139177455Y-143264506D01*
X139094761Y-143319761D01*
X139039506Y-143402455D01*
X139020103Y-143500000D01*
X139020103Y-143550000D01*
X138884462Y-143550000D01*
X138849999Y-143543145D01*
X138815536Y-143550000D01*
X138815532Y-143550000D01*
X138713437Y-143570308D01*
X138690000Y-143585968D01*
X138690000Y-142482500D01*
X139025000Y-142482500D01*
X139025000Y-142849728D01*
X139063060Y-142941614D01*
X139133386Y-143011940D01*
X139225272Y-143050000D01*
X139567500Y-143050000D01*
X139630000Y-142987500D01*
X139630000Y-142420000D01*
X139670000Y-142420000D01*
X139670000Y-142987500D01*
X139732500Y-143050000D01*
X140074728Y-143050000D01*
X140166614Y-143011940D01*
X140236940Y-142941614D01*
X140275000Y-142849728D01*
X140275000Y-142482500D01*
X140650000Y-142482500D01*
X140650000Y-142699728D01*
X140688060Y-142791614D01*
X140758386Y-142861940D01*
X140850272Y-142900000D01*
X141267500Y-142900000D01*
X141330000Y-142837500D01*
X141330000Y-142420000D01*
X141370000Y-142420000D01*
X141370000Y-142837500D01*
X141432500Y-142900000D01*
X141849728Y-142900000D01*
X141941614Y-142861940D01*
X142011940Y-142791614D01*
X142050000Y-142699728D01*
X142050000Y-142482500D01*
X141987500Y-142420000D01*
X141370000Y-142420000D01*
X141330000Y-142420000D01*
X140712500Y-142420000D01*
X140650000Y-142482500D01*
X140275000Y-142482500D01*
X140212500Y-142420000D01*
X139670000Y-142420000D01*
X139630000Y-142420000D01*
X139087500Y-142420000D01*
X139025000Y-142482500D01*
X138690000Y-142482500D01*
X138690000Y-141950272D01*
X139025000Y-141950272D01*
X139025000Y-142317500D01*
X139087500Y-142380000D01*
X139630000Y-142380000D01*
X139630000Y-141812500D01*
X139670000Y-141812500D01*
X139670000Y-142380000D01*
X140212500Y-142380000D01*
X140275000Y-142317500D01*
X140275000Y-142100272D01*
X140650000Y-142100272D01*
X140650000Y-142317500D01*
X140712500Y-142380000D01*
X141330000Y-142380000D01*
X141330000Y-141962500D01*
X141370000Y-141962500D01*
X141370000Y-142380000D01*
X141987500Y-142380000D01*
X142050000Y-142317500D01*
X142050000Y-142100272D01*
X142011940Y-142008386D01*
X141941614Y-141938060D01*
X141849728Y-141900000D01*
X141432500Y-141900000D01*
X141370000Y-141962500D01*
X141330000Y-141962500D01*
X141267500Y-141900000D01*
X140850272Y-141900000D01*
X140758386Y-141938060D01*
X140688060Y-142008386D01*
X140650000Y-142100272D01*
X140275000Y-142100272D01*
X140275000Y-141950272D01*
X140236940Y-141858386D01*
X140166614Y-141788060D01*
X140074728Y-141750000D01*
X139732500Y-141750000D01*
X139670000Y-141812500D01*
X139630000Y-141812500D01*
X139567500Y-141750000D01*
X139225272Y-141750000D01*
X139133386Y-141788060D01*
X139063060Y-141858386D01*
X139025000Y-141950272D01*
X138690000Y-141950272D01*
X138690000Y-141554897D01*
X138850000Y-141554897D01*
X138947545Y-141535494D01*
X139030239Y-141480239D01*
X139083854Y-141400000D01*
X139349556Y-141400000D01*
X139369761Y-141430239D01*
X139452455Y-141485494D01*
X139550000Y-141504897D01*
X140750000Y-141504897D01*
X140847545Y-141485494D01*
X140930239Y-141430239D01*
X140985494Y-141347545D01*
X141004897Y-141250000D01*
X141004897Y-140732500D01*
X141400000Y-140732500D01*
X141400000Y-141299728D01*
X141438060Y-141391614D01*
X141508386Y-141461940D01*
X141600272Y-141500000D01*
X142167500Y-141500000D01*
X142230000Y-141437500D01*
X142230000Y-140670000D01*
X141462500Y-140670000D01*
X141400000Y-140732500D01*
X141004897Y-140732500D01*
X141004897Y-140050000D01*
X140985494Y-139952455D01*
X140930239Y-139869761D01*
X140900665Y-139850000D01*
X141213603Y-139850000D01*
X141245095Y-139881492D01*
X141410489Y-139950000D01*
X141420823Y-139950000D01*
X141400000Y-140000272D01*
X141400000Y-140567500D01*
X141462500Y-140630000D01*
X142230000Y-140630000D01*
X142230000Y-139862500D01*
X142167500Y-139800000D01*
X141836397Y-139800000D01*
X141881492Y-139754905D01*
X141950000Y-139589511D01*
X141950000Y-139410489D01*
X141881492Y-139245095D01*
X141754905Y-139118508D01*
X141589511Y-139050000D01*
X141410489Y-139050000D01*
X141245095Y-139118508D01*
X141213603Y-139150000D01*
X140144974Y-139150000D01*
X139801522Y-138806549D01*
X139850000Y-138689511D01*
X139850000Y-138510489D01*
X139781492Y-138345095D01*
X139654905Y-138218508D01*
X139489511Y-138150000D01*
X139434468Y-138150000D01*
X139400000Y-138143144D01*
X139365533Y-138150000D01*
X139310489Y-138150000D01*
X139145095Y-138218508D01*
X139018508Y-138345095D01*
X138950000Y-138510489D01*
X138950000Y-138689511D01*
X139018508Y-138854905D01*
X139046539Y-138882936D01*
X139043145Y-138900000D01*
X139050000Y-138934464D01*
X139050000Y-138934468D01*
X139070308Y-139036563D01*
X139147666Y-139152335D01*
X139176887Y-139171860D01*
X139728140Y-139723114D01*
X139747665Y-139752335D01*
X139811671Y-139795103D01*
X139550000Y-139795103D01*
X139452455Y-139814506D01*
X139369761Y-139869761D01*
X139314506Y-139952455D01*
X139295103Y-140050000D01*
X139295103Y-140700000D01*
X139083854Y-140700000D01*
X139030239Y-140619761D01*
X138947545Y-140564506D01*
X138850000Y-140545103D01*
X138785552Y-140545103D01*
X138850000Y-140389511D01*
X138850000Y-140210489D01*
X138785552Y-140054897D01*
X138850000Y-140054897D01*
X138947545Y-140035494D01*
X139030239Y-139980239D01*
X139085494Y-139897545D01*
X139104897Y-139800000D01*
X139104897Y-139300000D01*
X139085494Y-139202455D01*
X139030239Y-139119761D01*
X138947545Y-139064506D01*
X138850000Y-139045103D01*
X137950000Y-139045103D01*
X137852455Y-139064506D01*
X137769761Y-139119761D01*
X137714506Y-139202455D01*
X137695103Y-139300000D01*
X137695103Y-139800000D01*
X137714506Y-139897545D01*
X137769761Y-139980239D01*
X137852455Y-140035494D01*
X137950000Y-140054897D01*
X138014448Y-140054897D01*
X137950000Y-140210489D01*
X137950000Y-140389511D01*
X138014448Y-140545103D01*
X137950000Y-140545103D01*
X137852455Y-140564506D01*
X137769761Y-140619761D01*
X137714506Y-140702455D01*
X137713005Y-140710000D01*
X137177471Y-140710000D01*
X137121899Y-140672868D01*
X137001674Y-140648954D01*
X137000000Y-140640536D01*
X137000000Y-140640532D01*
X136979692Y-140538437D01*
X136952298Y-140497440D01*
X136921860Y-140451886D01*
X136921858Y-140451884D01*
X136902334Y-140422665D01*
X136873115Y-140403141D01*
X136796861Y-140326888D01*
X136777335Y-140297665D01*
X136672773Y-140227798D01*
X136598253Y-140153279D01*
X136635494Y-140097545D01*
X136654897Y-140000000D01*
X136654897Y-139100000D01*
X136635494Y-139002455D01*
X136580239Y-138919761D01*
X136497545Y-138864506D01*
X136400000Y-138845103D01*
X136145870Y-138845103D01*
X136210972Y-138780001D01*
X138335535Y-138780001D01*
X138369999Y-138786856D01*
X138404463Y-138780001D01*
X138404467Y-138780001D01*
X138506562Y-138759693D01*
X138622334Y-138682336D01*
X138641861Y-138653112D01*
X140023117Y-137271858D01*
X140052335Y-137252335D01*
X140071858Y-137223117D01*
X140071860Y-137223115D01*
X140129692Y-137136563D01*
X140138584Y-137091859D01*
X140150000Y-137034468D01*
X140150000Y-137034464D01*
X140156855Y-137000000D01*
X140150000Y-136965536D01*
X140150000Y-131836387D01*
X140181492Y-131804895D01*
X140250000Y-131639501D01*
X140250000Y-131460479D01*
X140181492Y-131295085D01*
X140054905Y-131168498D01*
X139889511Y-131099990D01*
X139825000Y-131099990D01*
X139825000Y-130832500D01*
X139762500Y-130770000D01*
X139220000Y-130770000D01*
X139220000Y-131337500D01*
X139282500Y-131400000D01*
X139375051Y-131400000D01*
X139350000Y-131460479D01*
X139350000Y-131639501D01*
X139418508Y-131804895D01*
X139450000Y-131836387D01*
X139450001Y-136855024D01*
X138225026Y-138080001D01*
X136275000Y-138080001D01*
X136275000Y-137832500D01*
X136212500Y-137770000D01*
X135670000Y-137770000D01*
X135670000Y-137790000D01*
X135630000Y-137790000D01*
X135630000Y-137770000D01*
X135087500Y-137770000D01*
X135025000Y-137832500D01*
X135025000Y-138199728D01*
X135063060Y-138291614D01*
X135133386Y-138361940D01*
X135225272Y-138400000D01*
X135567500Y-138400000D01*
X135629998Y-138337502D01*
X135629998Y-138371025D01*
X135080649Y-138920375D01*
X135080239Y-138919761D01*
X135053461Y-138901868D01*
X135100000Y-138789511D01*
X135100000Y-138610489D01*
X135031492Y-138445095D01*
X134904905Y-138318508D01*
X134739511Y-138250000D01*
X134711397Y-138250000D01*
X134711397Y-137489000D01*
X134691994Y-137391455D01*
X134636739Y-137308761D01*
X134624035Y-137300272D01*
X135025000Y-137300272D01*
X135025000Y-137667500D01*
X135087500Y-137730000D01*
X135630000Y-137730000D01*
X135630000Y-137162500D01*
X135670000Y-137162500D01*
X135670000Y-137730000D01*
X136212500Y-137730000D01*
X136275000Y-137667500D01*
X136275000Y-137300272D01*
X136236940Y-137208386D01*
X136166614Y-137138060D01*
X136074728Y-137100000D01*
X135732500Y-137100000D01*
X135670000Y-137162500D01*
X135630000Y-137162500D01*
X135567500Y-137100000D01*
X135225272Y-137100000D01*
X135133386Y-137138060D01*
X135063060Y-137208386D01*
X135025000Y-137300272D01*
X134624035Y-137300272D01*
X134554045Y-137253506D01*
X134552500Y-137253199D01*
X134552500Y-136786962D01*
X134559355Y-136752499D01*
X134552500Y-136718036D01*
X134552500Y-136718032D01*
X134533995Y-136625000D01*
X135020103Y-136625000D01*
X135020103Y-136650000D01*
X135039506Y-136747545D01*
X135094761Y-136830239D01*
X135177455Y-136885494D01*
X135275000Y-136904897D01*
X136025000Y-136904897D01*
X136122545Y-136885494D01*
X136205239Y-136830239D01*
X136260494Y-136747545D01*
X136279897Y-136650000D01*
X136279897Y-135850000D01*
X136260494Y-135752455D01*
X136205239Y-135669761D01*
X136122545Y-135614506D01*
X136025000Y-135595103D01*
X135275000Y-135595103D01*
X135177455Y-135614506D01*
X135094761Y-135669761D01*
X135039506Y-135752455D01*
X135020103Y-135850000D01*
X135020103Y-135875000D01*
X134647590Y-135875000D01*
X134691994Y-135808545D01*
X134711397Y-135711000D01*
X134711397Y-134949000D01*
X134691994Y-134851455D01*
X134636739Y-134768761D01*
X134554045Y-134713506D01*
X134456500Y-134694103D01*
X133948500Y-134694103D01*
X133850955Y-134713506D01*
X133768261Y-134768761D01*
X133713006Y-134851455D01*
X133693603Y-134949000D01*
X133693603Y-135711000D01*
X133713006Y-135808545D01*
X133768261Y-135891239D01*
X133825001Y-135929152D01*
X133825001Y-136048117D01*
X133815536Y-136050000D01*
X132484464Y-136050000D01*
X132450000Y-136043145D01*
X132415536Y-136050000D01*
X132415532Y-136050000D01*
X132313437Y-136070308D01*
X132311546Y-136071571D01*
X132205872Y-135965897D01*
X132551500Y-135965897D01*
X132649045Y-135946494D01*
X132731739Y-135891239D01*
X132786994Y-135808545D01*
X132806397Y-135711000D01*
X132806397Y-134949000D01*
X132786994Y-134851455D01*
X132731739Y-134768761D01*
X132649045Y-134713506D01*
X132551500Y-134694103D01*
X132043500Y-134694103D01*
X131945955Y-134713506D01*
X131863261Y-134768761D01*
X131828804Y-134820329D01*
X131509977Y-134501504D01*
X131509977Y-134047477D01*
X131672679Y-133884776D01*
X131719761Y-133955239D01*
X131802455Y-134010494D01*
X131900000Y-134029897D01*
X132700000Y-134029897D01*
X132797545Y-134010494D01*
X132880239Y-133955239D01*
X132935494Y-133872545D01*
X132954897Y-133775000D01*
X132954897Y-133482500D01*
X133150000Y-133482500D01*
X133150000Y-133824728D01*
X133188060Y-133916614D01*
X133258386Y-133986940D01*
X133350272Y-134025000D01*
X133717500Y-134025000D01*
X133780000Y-133962500D01*
X133780000Y-133420000D01*
X133820000Y-133420000D01*
X133820000Y-133962500D01*
X133882500Y-134025000D01*
X134249728Y-134025000D01*
X134341614Y-133986940D01*
X134411940Y-133916614D01*
X134450000Y-133824728D01*
X134450000Y-133482500D01*
X134387500Y-133420000D01*
X133820000Y-133420000D01*
X133780000Y-133420000D01*
X133212500Y-133420000D01*
X133150000Y-133482500D01*
X132954897Y-133482500D01*
X132954897Y-133025000D01*
X132945006Y-132975272D01*
X133150000Y-132975272D01*
X133150000Y-133317500D01*
X133212500Y-133380000D01*
X133780000Y-133380000D01*
X133780000Y-132837500D01*
X133717500Y-132775000D01*
X133350272Y-132775000D01*
X133258386Y-132813060D01*
X133188060Y-132883386D01*
X133150000Y-132975272D01*
X132945006Y-132975272D01*
X132935494Y-132927455D01*
X132880239Y-132844761D01*
X132817280Y-132802693D01*
X133274662Y-132345312D01*
X133784954Y-132345312D01*
X133885592Y-132445951D01*
X133885592Y-132490488D01*
X133954100Y-132655882D01*
X134073218Y-132775000D01*
X133882500Y-132775000D01*
X133820000Y-132837500D01*
X133820000Y-133380000D01*
X134387500Y-133380000D01*
X134450000Y-133317500D01*
X134450000Y-132997584D01*
X134498052Y-133029692D01*
X134600147Y-133050000D01*
X134600151Y-133050000D01*
X134634614Y-133056855D01*
X134669078Y-133050000D01*
X134715537Y-133050000D01*
X134749999Y-133056855D01*
X134784462Y-133050000D01*
X135365532Y-133050000D01*
X135400000Y-133056856D01*
X135434467Y-133050000D01*
X135434468Y-133050000D01*
X135536563Y-133029692D01*
X135652335Y-132952335D01*
X135729692Y-132836563D01*
X135756856Y-132700000D01*
X135750000Y-132665532D01*
X135750000Y-132210571D01*
X137128072Y-130832500D01*
X138575000Y-130832500D01*
X138575000Y-131199728D01*
X138613060Y-131291614D01*
X138683386Y-131361940D01*
X138775272Y-131400000D01*
X139117500Y-131400000D01*
X139180000Y-131337500D01*
X139180000Y-130770000D01*
X138637500Y-130770000D01*
X138575000Y-130832500D01*
X137128072Y-130832500D01*
X137760573Y-130200000D01*
X138615536Y-130200000D01*
X138620466Y-130200980D01*
X138613060Y-130208386D01*
X138575000Y-130300272D01*
X138575000Y-130667500D01*
X138637500Y-130730000D01*
X139180000Y-130730000D01*
X139180000Y-130162500D01*
X139220000Y-130162500D01*
X139220000Y-130730000D01*
X139762500Y-130730000D01*
X139825000Y-130667500D01*
X139825000Y-130300272D01*
X139786940Y-130208386D01*
X139716614Y-130138060D01*
X139624728Y-130100000D01*
X139282500Y-130100000D01*
X139220000Y-130162500D01*
X139180000Y-130162500D01*
X139117500Y-130100000D01*
X138903895Y-130100000D01*
X138921862Y-130073111D01*
X139090076Y-129904897D01*
X139575000Y-129904897D01*
X139672545Y-129885494D01*
X139755239Y-129830239D01*
X139810494Y-129747545D01*
X139829897Y-129650000D01*
X139829897Y-128850000D01*
X139810494Y-128752455D01*
X139755239Y-128669761D01*
X139672545Y-128614506D01*
X139634284Y-128606895D01*
X139634284Y-127533940D01*
X139923903Y-127244322D01*
X139953121Y-127224799D01*
X139975017Y-127192031D01*
X139992900Y-127165267D01*
X140030479Y-127109027D01*
X140050787Y-127006932D01*
X140050787Y-127006927D01*
X140057642Y-126972465D01*
X140050787Y-126938002D01*
X140050787Y-126696162D01*
X140057642Y-126661699D01*
X140050787Y-126627236D01*
X140050787Y-126627232D01*
X140030479Y-126525137D01*
X139987666Y-126461063D01*
X139972646Y-126438584D01*
X139972645Y-126438583D01*
X139955535Y-126412977D01*
X139953960Y-126405057D01*
X139898705Y-126322363D01*
X138979466Y-125403124D01*
X138896772Y-125347869D01*
X138878244Y-125344184D01*
X138732685Y-125198625D01*
X138730002Y-125185134D01*
X138730002Y-125185131D01*
X138714373Y-125106560D01*
X138709694Y-125083035D01*
X138684914Y-125045949D01*
X138737021Y-125024366D01*
X138863608Y-124897779D01*
X138932116Y-124732385D01*
X138932116Y-124628515D01*
X138979466Y-124596876D01*
X139898705Y-123677637D01*
X139953960Y-123594943D01*
X139973363Y-123497398D01*
X139953960Y-123399853D01*
X139898705Y-123317159D01*
X139721928Y-123140382D01*
X139639234Y-123085127D01*
X139606849Y-123078685D01*
X139600407Y-123046300D01*
X139545152Y-122963606D01*
X139368375Y-122786829D01*
X139285681Y-122731574D01*
X139253295Y-122725132D01*
X139246853Y-122692746D01*
X139191598Y-122610052D01*
X139014821Y-122433275D01*
X138932127Y-122378020D01*
X138899742Y-122371578D01*
X138893300Y-122339193D01*
X138838045Y-122256499D01*
X138761548Y-122180002D01*
X138995938Y-122180002D01*
X139030402Y-122186857D01*
X139064866Y-122180002D01*
X139064870Y-122180002D01*
X139166965Y-122159694D01*
X139282737Y-122082337D01*
X139302264Y-122053114D01*
X139443102Y-121912275D01*
X139472324Y-121892750D01*
X139549681Y-121776978D01*
X139569989Y-121674883D01*
X139569989Y-121674879D01*
X139576844Y-121640415D01*
X139569989Y-121605951D01*
X139569989Y-121094047D01*
X139576844Y-121059584D01*
X139569989Y-121025121D01*
X139569989Y-121025117D01*
X139549681Y-120923022D01*
X139530422Y-120894200D01*
X139491848Y-120836469D01*
X139491845Y-120836466D01*
X139472323Y-120807250D01*
X139443108Y-120787729D01*
X138875001Y-120219624D01*
X138875001Y-120125000D01*
X139217500Y-120125000D01*
X139280000Y-120062500D01*
X139280000Y-119520000D01*
X139260000Y-119520000D01*
X139260000Y-119480000D01*
X139280000Y-119480000D01*
X139280000Y-119460000D01*
X139320000Y-119460000D01*
X139320000Y-119480000D01*
X139887500Y-119480000D01*
X139950000Y-119417500D01*
X139950000Y-119334468D01*
X139970308Y-119436563D01*
G36*
X135645103Y-140000000D02*
X135664506Y-140097545D01*
X135719761Y-140180239D01*
X135799860Y-140233760D01*
X135820308Y-140336562D01*
X135848091Y-140378141D01*
X135897666Y-140452335D01*
X135926886Y-140471860D01*
X136148004Y-140692978D01*
X136122529Y-140710000D01*
X135893674Y-140710000D01*
X135861940Y-140633386D01*
X135791614Y-140563060D01*
X135699728Y-140525000D01*
X135532500Y-140525000D01*
X135470000Y-140587500D01*
X135470000Y-140710000D01*
X135430000Y-140710000D01*
X135430000Y-140587500D01*
X135367500Y-140525000D01*
X135344975Y-140525000D01*
X135403117Y-140466857D01*
X135432336Y-140447334D01*
X135451859Y-140418116D01*
X135451861Y-140418114D01*
X135509693Y-140331562D01*
X135510623Y-140326885D01*
X135530001Y-140229467D01*
X135530001Y-140229463D01*
X135536856Y-140194999D01*
X135530001Y-140160535D01*
X135530001Y-139460970D01*
X135645103Y-139345869D01*
X135645103Y-140000000D01*
X135645103Y-140000000D01*
G37*
X135645103Y-140000000D02*
X135664506Y-140097545D01*
X135719761Y-140180239D01*
X135799860Y-140233760D01*
X135820308Y-140336562D01*
X135848091Y-140378141D01*
X135897666Y-140452335D01*
X135926886Y-140471860D01*
X136148004Y-140692978D01*
X136122529Y-140710000D01*
X135893674Y-140710000D01*
X135861940Y-140633386D01*
X135791614Y-140563060D01*
X135699728Y-140525000D01*
X135532500Y-140525000D01*
X135470000Y-140587500D01*
X135470000Y-140710000D01*
X135430000Y-140710000D01*
X135430000Y-140587500D01*
X135367500Y-140525000D01*
X135344975Y-140525000D01*
X135403117Y-140466857D01*
X135432336Y-140447334D01*
X135451859Y-140418116D01*
X135451861Y-140418114D01*
X135509693Y-140331562D01*
X135510623Y-140326885D01*
X135530001Y-140229467D01*
X135530001Y-140229463D01*
X135536856Y-140194999D01*
X135530001Y-140160535D01*
X135530001Y-139460970D01*
X135645103Y-139345869D01*
X135645103Y-140000000D01*
G36*
X133852500Y-136897475D02*
X133852500Y-137253199D01*
X133850955Y-137253506D01*
X133768261Y-137308761D01*
X133726086Y-137371880D01*
X133715940Y-137347386D01*
X133645614Y-137277060D01*
X133553728Y-137239000D01*
X133332500Y-137239000D01*
X133270000Y-137301500D01*
X133270000Y-137850000D01*
X133290000Y-137850000D01*
X133290000Y-137890000D01*
X133270000Y-137890000D01*
X133270000Y-137910000D01*
X133230000Y-137910000D01*
X133230000Y-137890000D01*
X133210000Y-137890000D01*
X133210000Y-137850000D01*
X133230000Y-137850000D01*
X133230000Y-137301500D01*
X133167500Y-137239000D01*
X132946272Y-137239000D01*
X132854386Y-137277060D01*
X132784060Y-137347386D01*
X132773914Y-137371880D01*
X132731739Y-137308761D01*
X132649045Y-137253506D01*
X132647500Y-137253199D01*
X132647500Y-136750000D01*
X133705026Y-136750000D01*
X133852500Y-136897475D01*
X133852500Y-136897475D01*
G37*
X133852500Y-136897475D02*
X133852500Y-137253199D01*
X133850955Y-137253506D01*
X133768261Y-137308761D01*
X133726086Y-137371880D01*
X133715940Y-137347386D01*
X133645614Y-137277060D01*
X133553728Y-137239000D01*
X133332500Y-137239000D01*
X133270000Y-137301500D01*
X133270000Y-137850000D01*
X133290000Y-137850000D01*
X133290000Y-137890000D01*
X133270000Y-137890000D01*
X133270000Y-137910000D01*
X133230000Y-137910000D01*
X133230000Y-137890000D01*
X133210000Y-137890000D01*
X133210000Y-137850000D01*
X133230000Y-137850000D01*
X133230000Y-137301500D01*
X133167500Y-137239000D01*
X132946272Y-137239000D01*
X132854386Y-137277060D01*
X132784060Y-137347386D01*
X132773914Y-137371880D01*
X132731739Y-137308761D01*
X132649045Y-137253506D01*
X132647500Y-137253199D01*
X132647500Y-136750000D01*
X133705026Y-136750000D01*
X133852500Y-136897475D01*
G36*
X132378713Y-131745096D02*
X132544107Y-131813604D01*
X132723129Y-131813604D01*
X132871121Y-131752304D01*
X132857828Y-131772198D01*
X132076887Y-132553140D01*
X132047666Y-132572665D01*
X132028141Y-132601886D01*
X131970308Y-132688438D01*
X131954064Y-132770103D01*
X131900000Y-132770103D01*
X131802455Y-132789506D01*
X131719761Y-132844761D01*
X131664506Y-132927455D01*
X131645103Y-133025000D01*
X131645103Y-133046602D01*
X131628017Y-133050000D01*
X131250000Y-133050000D01*
X131250000Y-132832500D01*
X131187500Y-132770000D01*
X130620000Y-132770000D01*
X130620000Y-132790000D01*
X130580000Y-132790000D01*
X130580000Y-132770000D01*
X130012500Y-132770000D01*
X129950000Y-132832500D01*
X129950000Y-133174728D01*
X129988060Y-133266614D01*
X130058386Y-133336940D01*
X130150272Y-133375000D01*
X130511193Y-133375000D01*
X130439353Y-133404757D01*
X130312766Y-133531344D01*
X130244258Y-133696738D01*
X130244258Y-133875760D01*
X130312766Y-134041154D01*
X130439353Y-134167741D01*
X130604747Y-134236249D01*
X130783769Y-134236249D01*
X130809978Y-134225393D01*
X130809977Y-134570003D01*
X129839520Y-133599547D01*
X129819993Y-133570323D01*
X129704221Y-133492966D01*
X129602126Y-133472658D01*
X129602122Y-133472658D01*
X129567658Y-133465803D01*
X129533194Y-133472658D01*
X128847316Y-133472658D01*
X128940077Y-133379897D01*
X129500000Y-133379897D01*
X129597545Y-133360494D01*
X129680239Y-133305239D01*
X129735494Y-133222545D01*
X129754897Y-133125000D01*
X129754897Y-132380000D01*
X129950000Y-132380000D01*
X129950000Y-132667500D01*
X130012500Y-132730000D01*
X130580000Y-132730000D01*
X130580000Y-132710000D01*
X130620000Y-132710000D01*
X130620000Y-132730000D01*
X131187500Y-132730000D01*
X131250000Y-132667500D01*
X131250000Y-132380000D01*
X131371462Y-132380000D01*
X131405926Y-132386855D01*
X131440390Y-132380000D01*
X131440394Y-132380000D01*
X131542489Y-132359692D01*
X131658261Y-132282335D01*
X131677788Y-132253111D01*
X132282259Y-131648642D01*
X132378713Y-131745096D01*
X132378713Y-131745096D01*
G37*
X132378713Y-131745096D02*
X132544107Y-131813604D01*
X132723129Y-131813604D01*
X132871121Y-131752304D01*
X132857828Y-131772198D01*
X132076887Y-132553140D01*
X132047666Y-132572665D01*
X132028141Y-132601886D01*
X131970308Y-132688438D01*
X131954064Y-132770103D01*
X131900000Y-132770103D01*
X131802455Y-132789506D01*
X131719761Y-132844761D01*
X131664506Y-132927455D01*
X131645103Y-133025000D01*
X131645103Y-133046602D01*
X131628017Y-133050000D01*
X131250000Y-133050000D01*
X131250000Y-132832500D01*
X131187500Y-132770000D01*
X130620000Y-132770000D01*
X130620000Y-132790000D01*
X130580000Y-132790000D01*
X130580000Y-132770000D01*
X130012500Y-132770000D01*
X129950000Y-132832500D01*
X129950000Y-133174728D01*
X129988060Y-133266614D01*
X130058386Y-133336940D01*
X130150272Y-133375000D01*
X130511193Y-133375000D01*
X130439353Y-133404757D01*
X130312766Y-133531344D01*
X130244258Y-133696738D01*
X130244258Y-133875760D01*
X130312766Y-134041154D01*
X130439353Y-134167741D01*
X130604747Y-134236249D01*
X130783769Y-134236249D01*
X130809978Y-134225393D01*
X130809977Y-134570003D01*
X129839520Y-133599547D01*
X129819993Y-133570323D01*
X129704221Y-133492966D01*
X129602126Y-133472658D01*
X129602122Y-133472658D01*
X129567658Y-133465803D01*
X129533194Y-133472658D01*
X128847316Y-133472658D01*
X128940077Y-133379897D01*
X129500000Y-133379897D01*
X129597545Y-133360494D01*
X129680239Y-133305239D01*
X129735494Y-133222545D01*
X129754897Y-133125000D01*
X129754897Y-132380000D01*
X129950000Y-132380000D01*
X129950000Y-132667500D01*
X130012500Y-132730000D01*
X130580000Y-132730000D01*
X130580000Y-132710000D01*
X130620000Y-132710000D01*
X130620000Y-132730000D01*
X131187500Y-132730000D01*
X131250000Y-132667500D01*
X131250000Y-132380000D01*
X131371462Y-132380000D01*
X131405926Y-132386855D01*
X131440390Y-132380000D01*
X131440394Y-132380000D01*
X131542489Y-132359692D01*
X131658261Y-132282335D01*
X131677788Y-132253111D01*
X132282259Y-131648642D01*
X132378713Y-131745096D01*
G36*
X132765190Y-126190499D02*
X132765190Y-126369521D01*
X132833698Y-126534915D01*
X132865190Y-126566407D01*
X132865190Y-126850496D01*
X132653234Y-127062452D01*
X132614953Y-126970032D01*
X132488366Y-126843445D01*
X132322972Y-126774937D01*
X132143950Y-126774937D01*
X131978556Y-126843445D01*
X131851969Y-126970032D01*
X131783461Y-127135426D01*
X131783461Y-127225117D01*
X131639771Y-127368808D01*
X131592041Y-127321078D01*
X131503653Y-127321078D01*
X130925593Y-127899138D01*
X130939736Y-127913281D01*
X130911452Y-127941565D01*
X130897309Y-127927422D01*
X130319249Y-128505482D01*
X130319249Y-128593870D01*
X130384464Y-128659085D01*
X130461281Y-128690904D01*
X130467360Y-128721467D01*
X130522615Y-128804161D01*
X130699392Y-128980938D01*
X130782086Y-129036193D01*
X130814472Y-129042635D01*
X130820914Y-129075021D01*
X130876169Y-129157715D01*
X131052946Y-129334492D01*
X131135640Y-129389747D01*
X131168025Y-129396189D01*
X131174467Y-129428574D01*
X131229722Y-129511268D01*
X131406499Y-129688045D01*
X131489193Y-129743300D01*
X131521578Y-129749742D01*
X131528020Y-129782127D01*
X131583275Y-129864821D01*
X131760052Y-130041598D01*
X131781247Y-130055760D01*
X131250000Y-130587008D01*
X131250000Y-130532500D01*
X131187500Y-130470000D01*
X130620000Y-130470000D01*
X130620000Y-131012500D01*
X130682500Y-131075000D01*
X130915723Y-131075000D01*
X130919990Y-131096455D01*
X130919990Y-131157670D01*
X130888498Y-131189162D01*
X130819990Y-131354556D01*
X130819990Y-131533578D01*
X130880640Y-131680000D01*
X129729967Y-131680000D01*
X129747545Y-131662422D01*
X129816053Y-131497028D01*
X129816053Y-131318006D01*
X129747545Y-131152612D01*
X129632243Y-131037310D01*
X129680239Y-131005239D01*
X129735494Y-130922545D01*
X129754897Y-130825000D01*
X129754897Y-130532500D01*
X129950000Y-130532500D01*
X129950000Y-130874728D01*
X129988060Y-130966614D01*
X130058386Y-131036940D01*
X130150272Y-131075000D01*
X130517500Y-131075000D01*
X130580000Y-131012500D01*
X130580000Y-130470000D01*
X130012500Y-130470000D01*
X129950000Y-130532500D01*
X129754897Y-130532500D01*
X129754897Y-130075000D01*
X129745006Y-130025272D01*
X129950000Y-130025272D01*
X129950000Y-130367500D01*
X130012500Y-130430000D01*
X130580000Y-130430000D01*
X130580000Y-129887500D01*
X130620000Y-129887500D01*
X130620000Y-130430000D01*
X131187500Y-130430000D01*
X131250000Y-130367500D01*
X131250000Y-130025272D01*
X131211940Y-129933386D01*
X131141614Y-129863060D01*
X131049728Y-129825000D01*
X130682500Y-129825000D01*
X130620000Y-129887500D01*
X130580000Y-129887500D01*
X130517500Y-129825000D01*
X130150272Y-129825000D01*
X130058386Y-129863060D01*
X129988060Y-129933386D01*
X129950000Y-130025272D01*
X129745006Y-130025272D01*
X129735494Y-129977455D01*
X129680239Y-129894761D01*
X129597545Y-129839506D01*
X129500000Y-129820103D01*
X129475000Y-129820103D01*
X129475000Y-129154320D01*
X130177350Y-128451971D01*
X130202577Y-128477198D01*
X130290965Y-128477198D01*
X130869025Y-127899138D01*
X130854883Y-127884996D01*
X130883167Y-127856712D01*
X130897309Y-127870854D01*
X131475369Y-127292794D01*
X131475369Y-127204406D01*
X131410154Y-127139191D01*
X131333337Y-127107372D01*
X131327257Y-127076808D01*
X131272002Y-126994114D01*
X131095225Y-126817337D01*
X131012531Y-126762082D01*
X130980146Y-126755640D01*
X130973704Y-126723255D01*
X130945692Y-126681333D01*
X131053029Y-126636873D01*
X131084521Y-126605381D01*
X132160155Y-126605381D01*
X132194619Y-126612236D01*
X132229083Y-126605381D01*
X132229087Y-126605381D01*
X132331182Y-126585073D01*
X132446954Y-126507716D01*
X132466481Y-126478492D01*
X132772767Y-126172207D01*
X132765190Y-126190499D01*
X132765190Y-126190499D01*
G37*
X132765190Y-126190499D02*
X132765190Y-126369521D01*
X132833698Y-126534915D01*
X132865190Y-126566407D01*
X132865190Y-126850496D01*
X132653234Y-127062452D01*
X132614953Y-126970032D01*
X132488366Y-126843445D01*
X132322972Y-126774937D01*
X132143950Y-126774937D01*
X131978556Y-126843445D01*
X131851969Y-126970032D01*
X131783461Y-127135426D01*
X131783461Y-127225117D01*
X131639771Y-127368808D01*
X131592041Y-127321078D01*
X131503653Y-127321078D01*
X130925593Y-127899138D01*
X130939736Y-127913281D01*
X130911452Y-127941565D01*
X130897309Y-127927422D01*
X130319249Y-128505482D01*
X130319249Y-128593870D01*
X130384464Y-128659085D01*
X130461281Y-128690904D01*
X130467360Y-128721467D01*
X130522615Y-128804161D01*
X130699392Y-128980938D01*
X130782086Y-129036193D01*
X130814472Y-129042635D01*
X130820914Y-129075021D01*
X130876169Y-129157715D01*
X131052946Y-129334492D01*
X131135640Y-129389747D01*
X131168025Y-129396189D01*
X131174467Y-129428574D01*
X131229722Y-129511268D01*
X131406499Y-129688045D01*
X131489193Y-129743300D01*
X131521578Y-129749742D01*
X131528020Y-129782127D01*
X131583275Y-129864821D01*
X131760052Y-130041598D01*
X131781247Y-130055760D01*
X131250000Y-130587008D01*
X131250000Y-130532500D01*
X131187500Y-130470000D01*
X130620000Y-130470000D01*
X130620000Y-131012500D01*
X130682500Y-131075000D01*
X130915723Y-131075000D01*
X130919990Y-131096455D01*
X130919990Y-131157670D01*
X130888498Y-131189162D01*
X130819990Y-131354556D01*
X130819990Y-131533578D01*
X130880640Y-131680000D01*
X129729967Y-131680000D01*
X129747545Y-131662422D01*
X129816053Y-131497028D01*
X129816053Y-131318006D01*
X129747545Y-131152612D01*
X129632243Y-131037310D01*
X129680239Y-131005239D01*
X129735494Y-130922545D01*
X129754897Y-130825000D01*
X129754897Y-130532500D01*
X129950000Y-130532500D01*
X129950000Y-130874728D01*
X129988060Y-130966614D01*
X130058386Y-131036940D01*
X130150272Y-131075000D01*
X130517500Y-131075000D01*
X130580000Y-131012500D01*
X130580000Y-130470000D01*
X130012500Y-130470000D01*
X129950000Y-130532500D01*
X129754897Y-130532500D01*
X129754897Y-130075000D01*
X129745006Y-130025272D01*
X129950000Y-130025272D01*
X129950000Y-130367500D01*
X130012500Y-130430000D01*
X130580000Y-130430000D01*
X130580000Y-129887500D01*
X130620000Y-129887500D01*
X130620000Y-130430000D01*
X131187500Y-130430000D01*
X131250000Y-130367500D01*
X131250000Y-130025272D01*
X131211940Y-129933386D01*
X131141614Y-129863060D01*
X131049728Y-129825000D01*
X130682500Y-129825000D01*
X130620000Y-129887500D01*
X130580000Y-129887500D01*
X130517500Y-129825000D01*
X130150272Y-129825000D01*
X130058386Y-129863060D01*
X129988060Y-129933386D01*
X129950000Y-130025272D01*
X129745006Y-130025272D01*
X129735494Y-129977455D01*
X129680239Y-129894761D01*
X129597545Y-129839506D01*
X129500000Y-129820103D01*
X129475000Y-129820103D01*
X129475000Y-129154320D01*
X130177350Y-128451971D01*
X130202577Y-128477198D01*
X130290965Y-128477198D01*
X130869025Y-127899138D01*
X130854883Y-127884996D01*
X130883167Y-127856712D01*
X130897309Y-127870854D01*
X131475369Y-127292794D01*
X131475369Y-127204406D01*
X131410154Y-127139191D01*
X131333337Y-127107372D01*
X131327257Y-127076808D01*
X131272002Y-126994114D01*
X131095225Y-126817337D01*
X131012531Y-126762082D01*
X130980146Y-126755640D01*
X130973704Y-126723255D01*
X130945692Y-126681333D01*
X131053029Y-126636873D01*
X131084521Y-126605381D01*
X132160155Y-126605381D01*
X132194619Y-126612236D01*
X132229083Y-126605381D01*
X132229087Y-126605381D01*
X132331182Y-126585073D01*
X132446954Y-126507716D01*
X132466481Y-126478492D01*
X132772767Y-126172207D01*
X132765190Y-126190499D01*
G36*
X138027319Y-125361889D02*
X138030002Y-125375379D01*
X138030002Y-125375382D01*
X138050310Y-125477477D01*
X138127667Y-125593249D01*
X138156888Y-125612775D01*
X138286575Y-125742462D01*
X138238845Y-125790192D01*
X138238845Y-125878580D01*
X138816905Y-126456640D01*
X138831048Y-126442498D01*
X138859332Y-126470782D01*
X138845189Y-126484924D01*
X138859332Y-126499067D01*
X138831048Y-126527351D01*
X138816905Y-126513208D01*
X138802763Y-126527351D01*
X138774479Y-126499067D01*
X138788621Y-126484924D01*
X138210561Y-125906864D01*
X138122173Y-125906864D01*
X138056958Y-125972079D01*
X138025139Y-126048896D01*
X137994575Y-126054976D01*
X137911881Y-126110231D01*
X137735104Y-126287008D01*
X137679849Y-126369702D01*
X137673407Y-126402087D01*
X137641022Y-126408529D01*
X137560217Y-126462522D01*
X137555608Y-126439353D01*
X137478251Y-126323581D01*
X137449030Y-126304056D01*
X136694973Y-125550000D01*
X136789511Y-125550000D01*
X136954905Y-125481492D01*
X136986397Y-125450000D01*
X137455132Y-125450000D01*
X137489596Y-125456855D01*
X137524060Y-125450000D01*
X137524064Y-125450000D01*
X137626159Y-125429692D01*
X137741931Y-125352335D01*
X137761457Y-125323112D01*
X137764571Y-125319998D01*
X137985428Y-125319998D01*
X138027319Y-125361889D01*
X138027319Y-125361889D01*
G37*
X138027319Y-125361889D02*
X138030002Y-125375379D01*
X138030002Y-125375382D01*
X138050310Y-125477477D01*
X138127667Y-125593249D01*
X138156888Y-125612775D01*
X138286575Y-125742462D01*
X138238845Y-125790192D01*
X138238845Y-125878580D01*
X138816905Y-126456640D01*
X138831048Y-126442498D01*
X138859332Y-126470782D01*
X138845189Y-126484924D01*
X138859332Y-126499067D01*
X138831048Y-126527351D01*
X138816905Y-126513208D01*
X138802763Y-126527351D01*
X138774479Y-126499067D01*
X138788621Y-126484924D01*
X138210561Y-125906864D01*
X138122173Y-125906864D01*
X138056958Y-125972079D01*
X138025139Y-126048896D01*
X137994575Y-126054976D01*
X137911881Y-126110231D01*
X137735104Y-126287008D01*
X137679849Y-126369702D01*
X137673407Y-126402087D01*
X137641022Y-126408529D01*
X137560217Y-126462522D01*
X137555608Y-126439353D01*
X137478251Y-126323581D01*
X137449030Y-126304056D01*
X136694973Y-125550000D01*
X136789511Y-125550000D01*
X136954905Y-125481492D01*
X136986397Y-125450000D01*
X137455132Y-125450000D01*
X137489596Y-125456855D01*
X137524060Y-125450000D01*
X137524064Y-125450000D01*
X137626159Y-125429692D01*
X137741931Y-125352335D01*
X137761457Y-125323112D01*
X137764571Y-125319998D01*
X137985428Y-125319998D01*
X138027319Y-125361889D01*
G36*
X138195309Y-120501159D02*
X138251618Y-120585430D01*
X138272667Y-120616932D01*
X138301888Y-120636457D01*
X138869989Y-121204560D01*
X138869990Y-121480002D01*
X138415123Y-121480002D01*
X138380659Y-121473147D01*
X138346195Y-121480002D01*
X138346191Y-121480002D01*
X138244096Y-121500310D01*
X138157544Y-121558142D01*
X138157542Y-121558144D01*
X138142689Y-121568068D01*
X138097423Y-121522802D01*
X138009035Y-121522802D01*
X137430975Y-122100862D01*
X137445118Y-122115005D01*
X137416834Y-122143289D01*
X137402691Y-122129146D01*
X137388549Y-122143289D01*
X137360265Y-122115005D01*
X137374407Y-122100862D01*
X137360265Y-122086720D01*
X137388549Y-122058436D01*
X137402691Y-122072578D01*
X137980751Y-121494518D01*
X137980751Y-121406130D01*
X137950699Y-121376078D01*
X138039055Y-121287723D01*
X138070359Y-121266806D01*
X138091276Y-121235502D01*
X138091279Y-121235499D01*
X138153241Y-121142766D01*
X138153241Y-121142765D01*
X138153242Y-121142764D01*
X138175000Y-121033378D01*
X138175000Y-121033374D01*
X138182345Y-120996448D01*
X138175000Y-120959522D01*
X138175000Y-120399055D01*
X138195309Y-120501159D01*
X138195309Y-120501159D01*
G37*
X138195309Y-120501159D02*
X138251618Y-120585430D01*
X138272667Y-120616932D01*
X138301888Y-120636457D01*
X138869989Y-121204560D01*
X138869990Y-121480002D01*
X138415123Y-121480002D01*
X138380659Y-121473147D01*
X138346195Y-121480002D01*
X138346191Y-121480002D01*
X138244096Y-121500310D01*
X138157544Y-121558142D01*
X138157542Y-121558144D01*
X138142689Y-121568068D01*
X138097423Y-121522802D01*
X138009035Y-121522802D01*
X137430975Y-122100862D01*
X137445118Y-122115005D01*
X137416834Y-122143289D01*
X137402691Y-122129146D01*
X137388549Y-122143289D01*
X137360265Y-122115005D01*
X137374407Y-122100862D01*
X137360265Y-122086720D01*
X137388549Y-122058436D01*
X137402691Y-122072578D01*
X137980751Y-121494518D01*
X137980751Y-121406130D01*
X137950699Y-121376078D01*
X138039055Y-121287723D01*
X138070359Y-121266806D01*
X138091276Y-121235502D01*
X138091279Y-121235499D01*
X138153241Y-121142766D01*
X138153241Y-121142765D01*
X138153242Y-121142764D01*
X138175000Y-121033378D01*
X138175000Y-121033374D01*
X138182345Y-120996448D01*
X138175000Y-120959522D01*
X138175000Y-120399055D01*
X138195309Y-120501159D01*
G36*
X130975569Y-120299538D02*
X130975569Y-120373338D01*
X130968714Y-120407802D01*
X130975569Y-120442266D01*
X130975569Y-120442269D01*
X130995877Y-120544364D01*
X131070033Y-120655346D01*
X131026356Y-120699023D01*
X131026356Y-120787411D01*
X131604416Y-121365471D01*
X131618559Y-121351329D01*
X131646843Y-121379613D01*
X131632700Y-121393755D01*
X131646843Y-121407898D01*
X131618559Y-121436182D01*
X131604416Y-121422039D01*
X131590274Y-121436182D01*
X131561990Y-121407898D01*
X131576132Y-121393755D01*
X130998072Y-120815695D01*
X130909684Y-120815695D01*
X130861953Y-120863426D01*
X130691078Y-120692552D01*
X130691078Y-120132972D01*
X130697933Y-120098509D01*
X130691078Y-120064046D01*
X130691078Y-120064042D01*
X130678912Y-120002880D01*
X130975569Y-120299538D01*
X130975569Y-120299538D01*
G37*
X130975569Y-120299538D02*
X130975569Y-120373338D01*
X130968714Y-120407802D01*
X130975569Y-120442266D01*
X130975569Y-120442269D01*
X130995877Y-120544364D01*
X131070033Y-120655346D01*
X131026356Y-120699023D01*
X131026356Y-120787411D01*
X131604416Y-121365471D01*
X131618559Y-121351329D01*
X131646843Y-121379613D01*
X131632700Y-121393755D01*
X131646843Y-121407898D01*
X131618559Y-121436182D01*
X131604416Y-121422039D01*
X131590274Y-121436182D01*
X131561990Y-121407898D01*
X131576132Y-121393755D01*
X130998072Y-120815695D01*
X130909684Y-120815695D01*
X130861953Y-120863426D01*
X130691078Y-120692552D01*
X130691078Y-120132972D01*
X130697933Y-120098509D01*
X130691078Y-120064046D01*
X130691078Y-120064042D01*
X130678912Y-120002880D01*
X130975569Y-120299538D01*
G36*
X126120801Y-117826177D02*
X126441661Y-117890000D01*
X126658339Y-117890000D01*
X126979199Y-117826177D01*
X127137698Y-117720272D01*
X127655219Y-118237794D01*
X127674742Y-118267012D01*
X127703960Y-118286535D01*
X127703962Y-118286537D01*
X127773263Y-118332842D01*
X127790514Y-118344369D01*
X127892609Y-118364677D01*
X127892613Y-118364677D01*
X127927077Y-118371532D01*
X127961541Y-118364677D01*
X128552370Y-118364677D01*
X128544761Y-118369761D01*
X128489506Y-118452455D01*
X128470103Y-118550000D01*
X128470103Y-119350000D01*
X128489506Y-119447545D01*
X128544761Y-119530239D01*
X128627455Y-119585494D01*
X128725000Y-119604897D01*
X129062103Y-119604897D01*
X129257206Y-119800000D01*
X129182500Y-119800000D01*
X129120000Y-119862500D01*
X129120000Y-120430000D01*
X129140000Y-120430000D01*
X129140000Y-120470000D01*
X129120000Y-120470000D01*
X129120000Y-120490000D01*
X129080000Y-120490000D01*
X129080000Y-120470000D01*
X128537500Y-120470000D01*
X128475000Y-120532500D01*
X128475000Y-120607625D01*
X127867647Y-120000272D01*
X128475000Y-120000272D01*
X128475000Y-120367500D01*
X128537500Y-120430000D01*
X129080000Y-120430000D01*
X129080000Y-119862500D01*
X129017500Y-119800000D01*
X128675272Y-119800000D01*
X128583386Y-119838060D01*
X128513060Y-119908386D01*
X128475000Y-120000272D01*
X127867647Y-120000272D01*
X127592879Y-119725505D01*
X127671550Y-119330000D01*
X127586177Y-118900801D01*
X127343056Y-118536944D01*
X126979199Y-118293823D01*
X126658339Y-118230000D01*
X126441661Y-118230000D01*
X126120801Y-118293823D01*
X125780000Y-118521539D01*
X125439199Y-118293823D01*
X125325000Y-118271107D01*
X125325000Y-117848893D01*
X125439199Y-117826177D01*
X125780000Y-117598461D01*
X126120801Y-117826177D01*
X126120801Y-117826177D01*
G37*
X126120801Y-117826177D02*
X126441661Y-117890000D01*
X126658339Y-117890000D01*
X126979199Y-117826177D01*
X127137698Y-117720272D01*
X127655219Y-118237794D01*
X127674742Y-118267012D01*
X127703960Y-118286535D01*
X127703962Y-118286537D01*
X127773263Y-118332842D01*
X127790514Y-118344369D01*
X127892609Y-118364677D01*
X127892613Y-118364677D01*
X127927077Y-118371532D01*
X127961541Y-118364677D01*
X128552370Y-118364677D01*
X128544761Y-118369761D01*
X128489506Y-118452455D01*
X128470103Y-118550000D01*
X128470103Y-119350000D01*
X128489506Y-119447545D01*
X128544761Y-119530239D01*
X128627455Y-119585494D01*
X128725000Y-119604897D01*
X129062103Y-119604897D01*
X129257206Y-119800000D01*
X129182500Y-119800000D01*
X129120000Y-119862500D01*
X129120000Y-120430000D01*
X129140000Y-120430000D01*
X129140000Y-120470000D01*
X129120000Y-120470000D01*
X129120000Y-120490000D01*
X129080000Y-120490000D01*
X129080000Y-120470000D01*
X128537500Y-120470000D01*
X128475000Y-120532500D01*
X128475000Y-120607625D01*
X127867647Y-120000272D01*
X128475000Y-120000272D01*
X128475000Y-120367500D01*
X128537500Y-120430000D01*
X129080000Y-120430000D01*
X129080000Y-119862500D01*
X129017500Y-119800000D01*
X128675272Y-119800000D01*
X128583386Y-119838060D01*
X128513060Y-119908386D01*
X128475000Y-120000272D01*
X127867647Y-120000272D01*
X127592879Y-119725505D01*
X127671550Y-119330000D01*
X127586177Y-118900801D01*
X127343056Y-118536944D01*
X126979199Y-118293823D01*
X126658339Y-118230000D01*
X126441661Y-118230000D01*
X126120801Y-118293823D01*
X125780000Y-118521539D01*
X125439199Y-118293823D01*
X125325000Y-118271107D01*
X125325000Y-117848893D01*
X125439199Y-117826177D01*
X125780000Y-117598461D01*
X126120801Y-117826177D01*
G36*
X136633344Y-111767915D02*
X136652867Y-111797133D01*
X136682084Y-111816655D01*
X136682087Y-111816658D01*
X136682093Y-111816662D01*
X136767141Y-111901710D01*
X136976013Y-112110583D01*
X136969761Y-112114761D01*
X136914506Y-112197455D01*
X136895103Y-112295000D01*
X136895103Y-112805000D01*
X136914506Y-112902545D01*
X136969761Y-112985239D01*
X137052455Y-113040494D01*
X137150000Y-113059897D01*
X137550001Y-113059897D01*
X137550001Y-113405025D01*
X137455027Y-113500000D01*
X137286000Y-113500000D01*
X137285494Y-113497455D01*
X137230239Y-113414761D01*
X137147545Y-113359506D01*
X137050000Y-113340103D01*
X136650000Y-113340103D01*
X136552455Y-113359506D01*
X136469761Y-113414761D01*
X136414506Y-113497455D01*
X136395103Y-113595000D01*
X136395103Y-114105000D01*
X136414506Y-114202545D01*
X136469761Y-114285239D01*
X136552455Y-114340494D01*
X136650000Y-114359897D01*
X137050000Y-114359897D01*
X137147545Y-114340494D01*
X137230239Y-114285239D01*
X137285494Y-114202545D01*
X137286000Y-114200000D01*
X137565536Y-114200000D01*
X137600000Y-114206855D01*
X137634464Y-114200000D01*
X137634468Y-114200000D01*
X137736563Y-114179692D01*
X137852335Y-114102335D01*
X137871862Y-114073111D01*
X138095103Y-113849871D01*
X138095103Y-114100000D01*
X138114506Y-114197545D01*
X138169761Y-114280239D01*
X138252455Y-114335494D01*
X138350000Y-114354897D01*
X138600001Y-114354897D01*
X138600001Y-115115532D01*
X138593145Y-115150000D01*
X138620308Y-115286562D01*
X138633201Y-115305857D01*
X138697666Y-115402335D01*
X138726886Y-115421859D01*
X138728139Y-115423112D01*
X138747665Y-115452335D01*
X138863437Y-115529692D01*
X138945103Y-115545936D01*
X138945103Y-115650000D01*
X138964506Y-115747545D01*
X139019761Y-115830239D01*
X139102455Y-115885494D01*
X139200000Y-115904897D01*
X139358706Y-115904897D01*
X139318508Y-115945095D01*
X139250000Y-116110489D01*
X139250000Y-116289511D01*
X139293737Y-116395103D01*
X139190077Y-116395103D01*
X138721862Y-115926889D01*
X138702335Y-115897665D01*
X138586563Y-115820308D01*
X138484468Y-115800000D01*
X138484464Y-115800000D01*
X138450000Y-115793145D01*
X138415536Y-115800000D01*
X138400444Y-115800000D01*
X138435494Y-115747545D01*
X138454897Y-115650000D01*
X138454897Y-114750000D01*
X138435494Y-114652455D01*
X138380239Y-114569761D01*
X138297545Y-114514506D01*
X138200000Y-114495103D01*
X137700000Y-114495103D01*
X137602455Y-114514506D01*
X137519761Y-114569761D01*
X137464506Y-114652455D01*
X137445103Y-114750000D01*
X137445103Y-114844119D01*
X137415536Y-114850000D01*
X137415532Y-114850000D01*
X137322833Y-114868439D01*
X137313437Y-114870308D01*
X137226885Y-114928140D01*
X137226883Y-114928142D01*
X137197665Y-114947665D01*
X137178142Y-114976883D01*
X136426886Y-115728140D01*
X136397665Y-115747666D01*
X136320308Y-115863438D01*
X136300000Y-115965533D01*
X136300000Y-115965536D01*
X136293145Y-116000000D01*
X136300000Y-116034464D01*
X136300001Y-116705025D01*
X136075771Y-116929256D01*
X136060494Y-116852455D01*
X136005239Y-116769761D01*
X135922545Y-116714506D01*
X135825000Y-116695103D01*
X135075000Y-116695103D01*
X134977455Y-116714506D01*
X134894761Y-116769761D01*
X134850000Y-116836750D01*
X134850000Y-116360084D01*
X134863060Y-116391614D01*
X134933386Y-116461940D01*
X135025272Y-116500000D01*
X135367500Y-116500000D01*
X135430000Y-116437500D01*
X135430000Y-115870000D01*
X135470000Y-115870000D01*
X135470000Y-116437500D01*
X135532500Y-116500000D01*
X135874728Y-116500000D01*
X135966614Y-116461940D01*
X136036940Y-116391614D01*
X136075000Y-116299728D01*
X136075000Y-115932500D01*
X136012500Y-115870000D01*
X135470000Y-115870000D01*
X135430000Y-115870000D01*
X135410000Y-115870000D01*
X135410000Y-115830000D01*
X135430000Y-115830000D01*
X135430000Y-115262500D01*
X135470000Y-115262500D01*
X135470000Y-115830000D01*
X136012500Y-115830000D01*
X136075000Y-115767500D01*
X136075000Y-115400272D01*
X136036940Y-115308386D01*
X135966614Y-115238060D01*
X135874728Y-115200000D01*
X135532500Y-115200000D01*
X135470000Y-115262500D01*
X135430000Y-115262500D01*
X135367500Y-115200000D01*
X135025272Y-115200000D01*
X134933386Y-115238060D01*
X134863060Y-115308386D01*
X134850000Y-115339916D01*
X134850000Y-114850000D01*
X135117500Y-114850000D01*
X135180000Y-114787500D01*
X135180000Y-114220000D01*
X135220000Y-114220000D01*
X135220000Y-114787500D01*
X135282500Y-114850000D01*
X135624728Y-114850000D01*
X135716614Y-114811940D01*
X135786940Y-114741614D01*
X135825000Y-114649728D01*
X135825000Y-114282500D01*
X135762500Y-114220000D01*
X135220000Y-114220000D01*
X135180000Y-114220000D01*
X135160000Y-114220000D01*
X135160000Y-114180000D01*
X135180000Y-114180000D01*
X135180000Y-113612500D01*
X135220000Y-113612500D01*
X135220000Y-114180000D01*
X135762500Y-114180000D01*
X135825000Y-114117500D01*
X135825000Y-113750272D01*
X135786940Y-113658386D01*
X135716614Y-113588060D01*
X135624728Y-113550000D01*
X135282500Y-113550000D01*
X135220000Y-113612500D01*
X135180000Y-113612500D01*
X135117500Y-113550000D01*
X134850000Y-113550000D01*
X134850000Y-113354897D01*
X135575000Y-113354897D01*
X135672545Y-113335494D01*
X135755239Y-113280239D01*
X135810494Y-113197545D01*
X135829897Y-113100000D01*
X135829897Y-112632500D01*
X135900000Y-112632500D01*
X135900000Y-112854728D01*
X135938060Y-112946614D01*
X136008386Y-113016940D01*
X136100272Y-113055000D01*
X136267500Y-113055000D01*
X136330000Y-112992500D01*
X136330000Y-112570000D01*
X136370000Y-112570000D01*
X136370000Y-112992500D01*
X136432500Y-113055000D01*
X136599728Y-113055000D01*
X136691614Y-113016940D01*
X136761940Y-112946614D01*
X136800000Y-112854728D01*
X136800000Y-112632500D01*
X136737500Y-112570000D01*
X136370000Y-112570000D01*
X136330000Y-112570000D01*
X135962500Y-112570000D01*
X135900000Y-112632500D01*
X135829897Y-112632500D01*
X135829897Y-112300000D01*
X135819011Y-112245272D01*
X135900000Y-112245272D01*
X135900000Y-112467500D01*
X135962500Y-112530000D01*
X136330000Y-112530000D01*
X136330000Y-112107500D01*
X136370000Y-112107500D01*
X136370000Y-112530000D01*
X136737500Y-112530000D01*
X136800000Y-112467500D01*
X136800000Y-112245272D01*
X136761940Y-112153386D01*
X136691614Y-112083060D01*
X136599728Y-112045000D01*
X136432500Y-112045000D01*
X136370000Y-112107500D01*
X136330000Y-112107500D01*
X136267500Y-112045000D01*
X136100272Y-112045000D01*
X136008386Y-112083060D01*
X135938060Y-112153386D01*
X135900000Y-112245272D01*
X135819011Y-112245272D01*
X135810494Y-112202455D01*
X135755239Y-112119761D01*
X135707267Y-112087707D01*
X135744974Y-112050000D01*
X135839512Y-112050000D01*
X136004906Y-111981492D01*
X136131493Y-111854905D01*
X136200001Y-111689511D01*
X136200001Y-111510489D01*
X136131493Y-111345095D01*
X136004906Y-111218508D01*
X135839512Y-111150000D01*
X135660490Y-111150000D01*
X135495096Y-111218508D01*
X135368509Y-111345095D01*
X135303865Y-111501161D01*
X134976886Y-111828140D01*
X134947666Y-111847665D01*
X134928141Y-111876886D01*
X134870308Y-111963438D01*
X134854064Y-112045103D01*
X134825000Y-112045103D01*
X134727455Y-112064506D01*
X134644761Y-112119761D01*
X134589506Y-112202455D01*
X134570103Y-112300000D01*
X134570103Y-112725129D01*
X134321862Y-112476889D01*
X134302335Y-112447665D01*
X134186563Y-112370308D01*
X134084468Y-112350000D01*
X134084464Y-112350000D01*
X134054897Y-112344119D01*
X134054897Y-112250000D01*
X134035494Y-112152455D01*
X133980239Y-112069761D01*
X133897545Y-112014506D01*
X133800000Y-111995103D01*
X133300000Y-111995103D01*
X133202455Y-112014506D01*
X133119761Y-112069761D01*
X133064506Y-112152455D01*
X133045103Y-112250000D01*
X133045103Y-112909923D01*
X132656887Y-113298139D01*
X132627666Y-113317665D01*
X132550309Y-113433437D01*
X132530001Y-113535532D01*
X132530001Y-113535535D01*
X132523146Y-113569999D01*
X132530001Y-113604463D01*
X132530001Y-113725000D01*
X132282500Y-113725000D01*
X132220000Y-113787500D01*
X132220000Y-114330000D01*
X132240000Y-114330000D01*
X132240000Y-114370000D01*
X132220000Y-114370000D01*
X132220000Y-114912500D01*
X132282500Y-114975000D01*
X132359028Y-114975000D01*
X131667972Y-115666057D01*
X131316407Y-115666057D01*
X131284915Y-115634565D01*
X131119521Y-115566057D01*
X130940499Y-115566057D01*
X130775105Y-115634565D01*
X130648518Y-115761152D01*
X130580010Y-115926546D01*
X130580010Y-116105568D01*
X130648518Y-116270962D01*
X130775105Y-116397549D01*
X130940499Y-116466057D01*
X131119521Y-116466057D01*
X131284915Y-116397549D01*
X131316407Y-116366057D01*
X131771751Y-116366057D01*
X131768326Y-116383274D01*
X131787729Y-116480819D01*
X131842984Y-116563513D01*
X133186487Y-117907016D01*
X133269181Y-117962271D01*
X133366726Y-117981674D01*
X133464271Y-117962271D01*
X133546965Y-117907016D01*
X133650000Y-117803981D01*
X133650000Y-117855026D01*
X132795516Y-118709511D01*
X132766295Y-118729036D01*
X132746770Y-118758257D01*
X132688937Y-118844809D01*
X132661774Y-118981371D01*
X132668630Y-119015839D01*
X132668630Y-119180860D01*
X132647398Y-119176637D01*
X132549853Y-119196040D01*
X132467159Y-119251295D01*
X132290382Y-119428072D01*
X132276220Y-119449266D01*
X132140468Y-119313513D01*
X132557016Y-118896965D01*
X132612271Y-118814271D01*
X132631674Y-118716726D01*
X132612271Y-118619181D01*
X132557016Y-118536487D01*
X131213513Y-117192984D01*
X131130819Y-117137729D01*
X131033274Y-117118326D01*
X130935729Y-117137729D01*
X130853035Y-117192984D01*
X130711613Y-117334406D01*
X130369998Y-116992791D01*
X130369998Y-115149975D01*
X130540077Y-114979897D01*
X131100000Y-114979897D01*
X131197545Y-114960494D01*
X131280239Y-114905239D01*
X131335494Y-114822545D01*
X131354897Y-114725000D01*
X131354897Y-114432500D01*
X131550000Y-114432500D01*
X131550000Y-114774728D01*
X131588060Y-114866614D01*
X131658386Y-114936940D01*
X131750272Y-114975000D01*
X132117500Y-114975000D01*
X132180000Y-114912500D01*
X132180000Y-114370000D01*
X131612500Y-114370000D01*
X131550000Y-114432500D01*
X131354897Y-114432500D01*
X131354897Y-113975000D01*
X131345006Y-113925272D01*
X131550000Y-113925272D01*
X131550000Y-114267500D01*
X131612500Y-114330000D01*
X132180000Y-114330000D01*
X132180000Y-113787500D01*
X132117500Y-113725000D01*
X131750272Y-113725000D01*
X131658386Y-113763060D01*
X131588060Y-113833386D01*
X131550000Y-113925272D01*
X131345006Y-113925272D01*
X131335494Y-113877455D01*
X131280239Y-113794761D01*
X131197545Y-113739506D01*
X131100000Y-113720103D01*
X130300000Y-113720103D01*
X130202455Y-113739506D01*
X130119761Y-113794761D01*
X130064506Y-113877455D01*
X130045103Y-113975000D01*
X130045103Y-114484923D01*
X129850000Y-114680027D01*
X129850000Y-114432500D01*
X129787500Y-114370000D01*
X129220000Y-114370000D01*
X129220000Y-114390000D01*
X129180000Y-114390000D01*
X129180000Y-114370000D01*
X129160000Y-114370000D01*
X129160000Y-114330000D01*
X129180000Y-114330000D01*
X129180000Y-113787500D01*
X129220000Y-113787500D01*
X129220000Y-114330000D01*
X129787500Y-114330000D01*
X129850000Y-114267500D01*
X129850000Y-113925272D01*
X129811940Y-113833386D01*
X129741614Y-113763060D01*
X129649728Y-113725000D01*
X129282500Y-113725000D01*
X129220000Y-113787500D01*
X129180000Y-113787500D01*
X129117500Y-113725000D01*
X128750272Y-113725000D01*
X128658386Y-113763060D01*
X128600000Y-113821446D01*
X128600000Y-113174619D01*
X128614506Y-113247545D01*
X128669761Y-113330239D01*
X128752455Y-113385494D01*
X128850000Y-113404897D01*
X129350000Y-113404897D01*
X129447545Y-113385494D01*
X129530239Y-113330239D01*
X129585494Y-113247545D01*
X129604897Y-113150000D01*
X129604897Y-112490077D01*
X130044975Y-112050000D01*
X130199335Y-112050000D01*
X130169761Y-112069761D01*
X130114506Y-112152455D01*
X130095103Y-112250000D01*
X130095103Y-113150000D01*
X130114506Y-113247545D01*
X130169761Y-113330239D01*
X130252455Y-113385494D01*
X130350000Y-113404897D01*
X130850000Y-113404897D01*
X130947545Y-113385494D01*
X131030239Y-113330239D01*
X131085494Y-113247545D01*
X131104897Y-113150000D01*
X131104897Y-113050000D01*
X131545103Y-113050000D01*
X131545103Y-113150000D01*
X131564506Y-113247545D01*
X131619761Y-113330239D01*
X131702455Y-113385494D01*
X131800000Y-113404897D01*
X132300000Y-113404897D01*
X132397545Y-113385494D01*
X132480239Y-113330239D01*
X132535494Y-113247545D01*
X132554897Y-113150000D01*
X132554897Y-112250000D01*
X132535494Y-112152455D01*
X132480239Y-112069761D01*
X132477226Y-112067748D01*
X133173116Y-111371858D01*
X133202334Y-111352335D01*
X133222816Y-111321683D01*
X133250000Y-111280999D01*
X133250000Y-111339511D01*
X133318508Y-111504905D01*
X133445095Y-111631492D01*
X133610489Y-111700000D01*
X133789511Y-111700000D01*
X133954905Y-111631492D01*
X134075000Y-111511397D01*
X134195095Y-111631492D01*
X134360489Y-111700000D01*
X134539511Y-111700000D01*
X134704905Y-111631492D01*
X134831492Y-111504905D01*
X134900000Y-111339511D01*
X134900000Y-111160489D01*
X134831492Y-110995095D01*
X134800000Y-110963603D01*
X134800000Y-110666665D01*
X134880479Y-110700000D01*
X135059501Y-110700000D01*
X135224895Y-110631492D01*
X135256387Y-110600000D01*
X135465431Y-110600000D01*
X136633344Y-111767915D01*
X136633344Y-111767915D01*
G37*
X136633344Y-111767915D02*
X136652867Y-111797133D01*
X136682084Y-111816655D01*
X136682087Y-111816658D01*
X136682093Y-111816662D01*
X136767141Y-111901710D01*
X136976013Y-112110583D01*
X136969761Y-112114761D01*
X136914506Y-112197455D01*
X136895103Y-112295000D01*
X136895103Y-112805000D01*
X136914506Y-112902545D01*
X136969761Y-112985239D01*
X137052455Y-113040494D01*
X137150000Y-113059897D01*
X137550001Y-113059897D01*
X137550001Y-113405025D01*
X137455027Y-113500000D01*
X137286000Y-113500000D01*
X137285494Y-113497455D01*
X137230239Y-113414761D01*
X137147545Y-113359506D01*
X137050000Y-113340103D01*
X136650000Y-113340103D01*
X136552455Y-113359506D01*
X136469761Y-113414761D01*
X136414506Y-113497455D01*
X136395103Y-113595000D01*
X136395103Y-114105000D01*
X136414506Y-114202545D01*
X136469761Y-114285239D01*
X136552455Y-114340494D01*
X136650000Y-114359897D01*
X137050000Y-114359897D01*
X137147545Y-114340494D01*
X137230239Y-114285239D01*
X137285494Y-114202545D01*
X137286000Y-114200000D01*
X137565536Y-114200000D01*
X137600000Y-114206855D01*
X137634464Y-114200000D01*
X137634468Y-114200000D01*
X137736563Y-114179692D01*
X137852335Y-114102335D01*
X137871862Y-114073111D01*
X138095103Y-113849871D01*
X138095103Y-114100000D01*
X138114506Y-114197545D01*
X138169761Y-114280239D01*
X138252455Y-114335494D01*
X138350000Y-114354897D01*
X138600001Y-114354897D01*
X138600001Y-115115532D01*
X138593145Y-115150000D01*
X138620308Y-115286562D01*
X138633201Y-115305857D01*
X138697666Y-115402335D01*
X138726886Y-115421859D01*
X138728139Y-115423112D01*
X138747665Y-115452335D01*
X138863437Y-115529692D01*
X138945103Y-115545936D01*
X138945103Y-115650000D01*
X138964506Y-115747545D01*
X139019761Y-115830239D01*
X139102455Y-115885494D01*
X139200000Y-115904897D01*
X139358706Y-115904897D01*
X139318508Y-115945095D01*
X139250000Y-116110489D01*
X139250000Y-116289511D01*
X139293737Y-116395103D01*
X139190077Y-116395103D01*
X138721862Y-115926889D01*
X138702335Y-115897665D01*
X138586563Y-115820308D01*
X138484468Y-115800000D01*
X138484464Y-115800000D01*
X138450000Y-115793145D01*
X138415536Y-115800000D01*
X138400444Y-115800000D01*
X138435494Y-115747545D01*
X138454897Y-115650000D01*
X138454897Y-114750000D01*
X138435494Y-114652455D01*
X138380239Y-114569761D01*
X138297545Y-114514506D01*
X138200000Y-114495103D01*
X137700000Y-114495103D01*
X137602455Y-114514506D01*
X137519761Y-114569761D01*
X137464506Y-114652455D01*
X137445103Y-114750000D01*
X137445103Y-114844119D01*
X137415536Y-114850000D01*
X137415532Y-114850000D01*
X137322833Y-114868439D01*
X137313437Y-114870308D01*
X137226885Y-114928140D01*
X137226883Y-114928142D01*
X137197665Y-114947665D01*
X137178142Y-114976883D01*
X136426886Y-115728140D01*
X136397665Y-115747666D01*
X136320308Y-115863438D01*
X136300000Y-115965533D01*
X136300000Y-115965536D01*
X136293145Y-116000000D01*
X136300000Y-116034464D01*
X136300001Y-116705025D01*
X136075771Y-116929256D01*
X136060494Y-116852455D01*
X136005239Y-116769761D01*
X135922545Y-116714506D01*
X135825000Y-116695103D01*
X135075000Y-116695103D01*
X134977455Y-116714506D01*
X134894761Y-116769761D01*
X134850000Y-116836750D01*
X134850000Y-116360084D01*
X134863060Y-116391614D01*
X134933386Y-116461940D01*
X135025272Y-116500000D01*
X135367500Y-116500000D01*
X135430000Y-116437500D01*
X135430000Y-115870000D01*
X135470000Y-115870000D01*
X135470000Y-116437500D01*
X135532500Y-116500000D01*
X135874728Y-116500000D01*
X135966614Y-116461940D01*
X136036940Y-116391614D01*
X136075000Y-116299728D01*
X136075000Y-115932500D01*
X136012500Y-115870000D01*
X135470000Y-115870000D01*
X135430000Y-115870000D01*
X135410000Y-115870000D01*
X135410000Y-115830000D01*
X135430000Y-115830000D01*
X135430000Y-115262500D01*
X135470000Y-115262500D01*
X135470000Y-115830000D01*
X136012500Y-115830000D01*
X136075000Y-115767500D01*
X136075000Y-115400272D01*
X136036940Y-115308386D01*
X135966614Y-115238060D01*
X135874728Y-115200000D01*
X135532500Y-115200000D01*
X135470000Y-115262500D01*
X135430000Y-115262500D01*
X135367500Y-115200000D01*
X135025272Y-115200000D01*
X134933386Y-115238060D01*
X134863060Y-115308386D01*
X134850000Y-115339916D01*
X134850000Y-114850000D01*
X135117500Y-114850000D01*
X135180000Y-114787500D01*
X135180000Y-114220000D01*
X135220000Y-114220000D01*
X135220000Y-114787500D01*
X135282500Y-114850000D01*
X135624728Y-114850000D01*
X135716614Y-114811940D01*
X135786940Y-114741614D01*
X135825000Y-114649728D01*
X135825000Y-114282500D01*
X135762500Y-114220000D01*
X135220000Y-114220000D01*
X135180000Y-114220000D01*
X135160000Y-114220000D01*
X135160000Y-114180000D01*
X135180000Y-114180000D01*
X135180000Y-113612500D01*
X135220000Y-113612500D01*
X135220000Y-114180000D01*
X135762500Y-114180000D01*
X135825000Y-114117500D01*
X135825000Y-113750272D01*
X135786940Y-113658386D01*
X135716614Y-113588060D01*
X135624728Y-113550000D01*
X135282500Y-113550000D01*
X135220000Y-113612500D01*
X135180000Y-113612500D01*
X135117500Y-113550000D01*
X134850000Y-113550000D01*
X134850000Y-113354897D01*
X135575000Y-113354897D01*
X135672545Y-113335494D01*
X135755239Y-113280239D01*
X135810494Y-113197545D01*
X135829897Y-113100000D01*
X135829897Y-112632500D01*
X135900000Y-112632500D01*
X135900000Y-112854728D01*
X135938060Y-112946614D01*
X136008386Y-113016940D01*
X136100272Y-113055000D01*
X136267500Y-113055000D01*
X136330000Y-112992500D01*
X136330000Y-112570000D01*
X136370000Y-112570000D01*
X136370000Y-112992500D01*
X136432500Y-113055000D01*
X136599728Y-113055000D01*
X136691614Y-113016940D01*
X136761940Y-112946614D01*
X136800000Y-112854728D01*
X136800000Y-112632500D01*
X136737500Y-112570000D01*
X136370000Y-112570000D01*
X136330000Y-112570000D01*
X135962500Y-112570000D01*
X135900000Y-112632500D01*
X135829897Y-112632500D01*
X135829897Y-112300000D01*
X135819011Y-112245272D01*
X135900000Y-112245272D01*
X135900000Y-112467500D01*
X135962500Y-112530000D01*
X136330000Y-112530000D01*
X136330000Y-112107500D01*
X136370000Y-112107500D01*
X136370000Y-112530000D01*
X136737500Y-112530000D01*
X136800000Y-112467500D01*
X136800000Y-112245272D01*
X136761940Y-112153386D01*
X136691614Y-112083060D01*
X136599728Y-112045000D01*
X136432500Y-112045000D01*
X136370000Y-112107500D01*
X136330000Y-112107500D01*
X136267500Y-112045000D01*
X136100272Y-112045000D01*
X136008386Y-112083060D01*
X135938060Y-112153386D01*
X135900000Y-112245272D01*
X135819011Y-112245272D01*
X135810494Y-112202455D01*
X135755239Y-112119761D01*
X135707267Y-112087707D01*
X135744974Y-112050000D01*
X135839512Y-112050000D01*
X136004906Y-111981492D01*
X136131493Y-111854905D01*
X136200001Y-111689511D01*
X136200001Y-111510489D01*
X136131493Y-111345095D01*
X136004906Y-111218508D01*
X135839512Y-111150000D01*
X135660490Y-111150000D01*
X135495096Y-111218508D01*
X135368509Y-111345095D01*
X135303865Y-111501161D01*
X134976886Y-111828140D01*
X134947666Y-111847665D01*
X134928141Y-111876886D01*
X134870308Y-111963438D01*
X134854064Y-112045103D01*
X134825000Y-112045103D01*
X134727455Y-112064506D01*
X134644761Y-112119761D01*
X134589506Y-112202455D01*
X134570103Y-112300000D01*
X134570103Y-112725129D01*
X134321862Y-112476889D01*
X134302335Y-112447665D01*
X134186563Y-112370308D01*
X134084468Y-112350000D01*
X134084464Y-112350000D01*
X134054897Y-112344119D01*
X134054897Y-112250000D01*
X134035494Y-112152455D01*
X133980239Y-112069761D01*
X133897545Y-112014506D01*
X133800000Y-111995103D01*
X133300000Y-111995103D01*
X133202455Y-112014506D01*
X133119761Y-112069761D01*
X133064506Y-112152455D01*
X133045103Y-112250000D01*
X133045103Y-112909923D01*
X132656887Y-113298139D01*
X132627666Y-113317665D01*
X132550309Y-113433437D01*
X132530001Y-113535532D01*
X132530001Y-113535535D01*
X132523146Y-113569999D01*
X132530001Y-113604463D01*
X132530001Y-113725000D01*
X132282500Y-113725000D01*
X132220000Y-113787500D01*
X132220000Y-114330000D01*
X132240000Y-114330000D01*
X132240000Y-114370000D01*
X132220000Y-114370000D01*
X132220000Y-114912500D01*
X132282500Y-114975000D01*
X132359028Y-114975000D01*
X131667972Y-115666057D01*
X131316407Y-115666057D01*
X131284915Y-115634565D01*
X131119521Y-115566057D01*
X130940499Y-115566057D01*
X130775105Y-115634565D01*
X130648518Y-115761152D01*
X130580010Y-115926546D01*
X130580010Y-116105568D01*
X130648518Y-116270962D01*
X130775105Y-116397549D01*
X130940499Y-116466057D01*
X131119521Y-116466057D01*
X131284915Y-116397549D01*
X131316407Y-116366057D01*
X131771751Y-116366057D01*
X131768326Y-116383274D01*
X131787729Y-116480819D01*
X131842984Y-116563513D01*
X133186487Y-117907016D01*
X133269181Y-117962271D01*
X133366726Y-117981674D01*
X133464271Y-117962271D01*
X133546965Y-117907016D01*
X133650000Y-117803981D01*
X133650000Y-117855026D01*
X132795516Y-118709511D01*
X132766295Y-118729036D01*
X132746770Y-118758257D01*
X132688937Y-118844809D01*
X132661774Y-118981371D01*
X132668630Y-119015839D01*
X132668630Y-119180860D01*
X132647398Y-119176637D01*
X132549853Y-119196040D01*
X132467159Y-119251295D01*
X132290382Y-119428072D01*
X132276220Y-119449266D01*
X132140468Y-119313513D01*
X132557016Y-118896965D01*
X132612271Y-118814271D01*
X132631674Y-118716726D01*
X132612271Y-118619181D01*
X132557016Y-118536487D01*
X131213513Y-117192984D01*
X131130819Y-117137729D01*
X131033274Y-117118326D01*
X130935729Y-117137729D01*
X130853035Y-117192984D01*
X130711613Y-117334406D01*
X130369998Y-116992791D01*
X130369998Y-115149975D01*
X130540077Y-114979897D01*
X131100000Y-114979897D01*
X131197545Y-114960494D01*
X131280239Y-114905239D01*
X131335494Y-114822545D01*
X131354897Y-114725000D01*
X131354897Y-114432500D01*
X131550000Y-114432500D01*
X131550000Y-114774728D01*
X131588060Y-114866614D01*
X131658386Y-114936940D01*
X131750272Y-114975000D01*
X132117500Y-114975000D01*
X132180000Y-114912500D01*
X132180000Y-114370000D01*
X131612500Y-114370000D01*
X131550000Y-114432500D01*
X131354897Y-114432500D01*
X131354897Y-113975000D01*
X131345006Y-113925272D01*
X131550000Y-113925272D01*
X131550000Y-114267500D01*
X131612500Y-114330000D01*
X132180000Y-114330000D01*
X132180000Y-113787500D01*
X132117500Y-113725000D01*
X131750272Y-113725000D01*
X131658386Y-113763060D01*
X131588060Y-113833386D01*
X131550000Y-113925272D01*
X131345006Y-113925272D01*
X131335494Y-113877455D01*
X131280239Y-113794761D01*
X131197545Y-113739506D01*
X131100000Y-113720103D01*
X130300000Y-113720103D01*
X130202455Y-113739506D01*
X130119761Y-113794761D01*
X130064506Y-113877455D01*
X130045103Y-113975000D01*
X130045103Y-114484923D01*
X129850000Y-114680027D01*
X129850000Y-114432500D01*
X129787500Y-114370000D01*
X129220000Y-114370000D01*
X129220000Y-114390000D01*
X129180000Y-114390000D01*
X129180000Y-114370000D01*
X129160000Y-114370000D01*
X129160000Y-114330000D01*
X129180000Y-114330000D01*
X129180000Y-113787500D01*
X129220000Y-113787500D01*
X129220000Y-114330000D01*
X129787500Y-114330000D01*
X129850000Y-114267500D01*
X129850000Y-113925272D01*
X129811940Y-113833386D01*
X129741614Y-113763060D01*
X129649728Y-113725000D01*
X129282500Y-113725000D01*
X129220000Y-113787500D01*
X129180000Y-113787500D01*
X129117500Y-113725000D01*
X128750272Y-113725000D01*
X128658386Y-113763060D01*
X128600000Y-113821446D01*
X128600000Y-113174619D01*
X128614506Y-113247545D01*
X128669761Y-113330239D01*
X128752455Y-113385494D01*
X128850000Y-113404897D01*
X129350000Y-113404897D01*
X129447545Y-113385494D01*
X129530239Y-113330239D01*
X129585494Y-113247545D01*
X129604897Y-113150000D01*
X129604897Y-112490077D01*
X130044975Y-112050000D01*
X130199335Y-112050000D01*
X130169761Y-112069761D01*
X130114506Y-112152455D01*
X130095103Y-112250000D01*
X130095103Y-113150000D01*
X130114506Y-113247545D01*
X130169761Y-113330239D01*
X130252455Y-113385494D01*
X130350000Y-113404897D01*
X130850000Y-113404897D01*
X130947545Y-113385494D01*
X131030239Y-113330239D01*
X131085494Y-113247545D01*
X131104897Y-113150000D01*
X131104897Y-113050000D01*
X131545103Y-113050000D01*
X131545103Y-113150000D01*
X131564506Y-113247545D01*
X131619761Y-113330239D01*
X131702455Y-113385494D01*
X131800000Y-113404897D01*
X132300000Y-113404897D01*
X132397545Y-113385494D01*
X132480239Y-113330239D01*
X132535494Y-113247545D01*
X132554897Y-113150000D01*
X132554897Y-112250000D01*
X132535494Y-112152455D01*
X132480239Y-112069761D01*
X132477226Y-112067748D01*
X133173116Y-111371858D01*
X133202334Y-111352335D01*
X133222816Y-111321683D01*
X133250000Y-111280999D01*
X133250000Y-111339511D01*
X133318508Y-111504905D01*
X133445095Y-111631492D01*
X133610489Y-111700000D01*
X133789511Y-111700000D01*
X133954905Y-111631492D01*
X134075000Y-111511397D01*
X134195095Y-111631492D01*
X134360489Y-111700000D01*
X134539511Y-111700000D01*
X134704905Y-111631492D01*
X134831492Y-111504905D01*
X134900000Y-111339511D01*
X134900000Y-111160489D01*
X134831492Y-110995095D01*
X134800000Y-110963603D01*
X134800000Y-110666665D01*
X134880479Y-110700000D01*
X135059501Y-110700000D01*
X135224895Y-110631492D01*
X135256387Y-110600000D01*
X135465431Y-110600000D01*
X136633344Y-111767915D01*
G36*
X127900001Y-112144975D02*
X127900000Y-115415536D01*
X127893145Y-115450000D01*
X127900000Y-115484464D01*
X127900000Y-115484467D01*
X127920308Y-115586562D01*
X127997665Y-115702334D01*
X128026886Y-115721859D01*
X128278140Y-115973114D01*
X128297665Y-116002335D01*
X128413437Y-116079692D01*
X128515532Y-116100000D01*
X128515535Y-116100000D01*
X128549999Y-116106855D01*
X128568295Y-116103216D01*
X128619761Y-116180239D01*
X128702455Y-116235494D01*
X128800000Y-116254897D01*
X129669998Y-116254897D01*
X129669998Y-116745103D01*
X128800000Y-116745103D01*
X128702455Y-116764506D01*
X128619761Y-116819761D01*
X128564506Y-116902455D01*
X128545103Y-117000000D01*
X128545103Y-117500000D01*
X128564506Y-117597545D01*
X128609363Y-117664677D01*
X128072052Y-117664677D01*
X127592879Y-117185505D01*
X127671550Y-116790000D01*
X127586177Y-116360801D01*
X127343056Y-115996944D01*
X126979199Y-115753823D01*
X126658339Y-115690000D01*
X126441661Y-115690000D01*
X126120801Y-115753823D01*
X125780000Y-115981539D01*
X125439199Y-115753823D01*
X125325000Y-115731107D01*
X125325000Y-115308893D01*
X125439199Y-115286177D01*
X125803056Y-115043056D01*
X125808993Y-115034170D01*
X125958292Y-115177301D01*
X126358196Y-115333151D01*
X126530000Y-115287320D01*
X126530000Y-114270000D01*
X126570000Y-114270000D01*
X126570000Y-115287320D01*
X126741804Y-115333151D01*
X127141708Y-115177301D01*
X127451530Y-114880278D01*
X127624102Y-114487300D01*
X127633149Y-114441803D01*
X127587307Y-114270000D01*
X126570000Y-114270000D01*
X126530000Y-114270000D01*
X126510000Y-114270000D01*
X126510000Y-114230000D01*
X126530000Y-114230000D01*
X126530000Y-113212680D01*
X126570000Y-113212680D01*
X126570000Y-114230000D01*
X127587307Y-114230000D01*
X127633149Y-114058197D01*
X127624102Y-114012700D01*
X127451530Y-113619722D01*
X127141708Y-113322699D01*
X126741804Y-113166849D01*
X126570000Y-113212680D01*
X126530000Y-113212680D01*
X126358196Y-113166849D01*
X125958292Y-113322699D01*
X125808993Y-113465830D01*
X125803056Y-113456944D01*
X125439199Y-113213823D01*
X125325000Y-113191107D01*
X125325000Y-112768893D01*
X125439199Y-112746177D01*
X125780000Y-112518461D01*
X126120801Y-112746177D01*
X126441661Y-112810000D01*
X126658339Y-112810000D01*
X126979199Y-112746177D01*
X127343056Y-112503056D01*
X127586177Y-112139199D01*
X127601931Y-112060000D01*
X127815027Y-112060000D01*
X127900001Y-112144975D01*
X127900001Y-112144975D01*
G37*
X127900001Y-112144975D02*
X127900000Y-115415536D01*
X127893145Y-115450000D01*
X127900000Y-115484464D01*
X127900000Y-115484467D01*
X127920308Y-115586562D01*
X127997665Y-115702334D01*
X128026886Y-115721859D01*
X128278140Y-115973114D01*
X128297665Y-116002335D01*
X128413437Y-116079692D01*
X128515532Y-116100000D01*
X128515535Y-116100000D01*
X128549999Y-116106855D01*
X128568295Y-116103216D01*
X128619761Y-116180239D01*
X128702455Y-116235494D01*
X128800000Y-116254897D01*
X129669998Y-116254897D01*
X129669998Y-116745103D01*
X128800000Y-116745103D01*
X128702455Y-116764506D01*
X128619761Y-116819761D01*
X128564506Y-116902455D01*
X128545103Y-117000000D01*
X128545103Y-117500000D01*
X128564506Y-117597545D01*
X128609363Y-117664677D01*
X128072052Y-117664677D01*
X127592879Y-117185505D01*
X127671550Y-116790000D01*
X127586177Y-116360801D01*
X127343056Y-115996944D01*
X126979199Y-115753823D01*
X126658339Y-115690000D01*
X126441661Y-115690000D01*
X126120801Y-115753823D01*
X125780000Y-115981539D01*
X125439199Y-115753823D01*
X125325000Y-115731107D01*
X125325000Y-115308893D01*
X125439199Y-115286177D01*
X125803056Y-115043056D01*
X125808993Y-115034170D01*
X125958292Y-115177301D01*
X126358196Y-115333151D01*
X126530000Y-115287320D01*
X126530000Y-114270000D01*
X126570000Y-114270000D01*
X126570000Y-115287320D01*
X126741804Y-115333151D01*
X127141708Y-115177301D01*
X127451530Y-114880278D01*
X127624102Y-114487300D01*
X127633149Y-114441803D01*
X127587307Y-114270000D01*
X126570000Y-114270000D01*
X126530000Y-114270000D01*
X126510000Y-114270000D01*
X126510000Y-114230000D01*
X126530000Y-114230000D01*
X126530000Y-113212680D01*
X126570000Y-113212680D01*
X126570000Y-114230000D01*
X127587307Y-114230000D01*
X127633149Y-114058197D01*
X127624102Y-114012700D01*
X127451530Y-113619722D01*
X127141708Y-113322699D01*
X126741804Y-113166849D01*
X126570000Y-113212680D01*
X126530000Y-113212680D01*
X126358196Y-113166849D01*
X125958292Y-113322699D01*
X125808993Y-113465830D01*
X125803056Y-113456944D01*
X125439199Y-113213823D01*
X125325000Y-113191107D01*
X125325000Y-112768893D01*
X125439199Y-112746177D01*
X125780000Y-112518461D01*
X126120801Y-112746177D01*
X126441661Y-112810000D01*
X126658339Y-112810000D01*
X126979199Y-112746177D01*
X127343056Y-112503056D01*
X127586177Y-112139199D01*
X127601931Y-112060000D01*
X127815027Y-112060000D01*
X127900001Y-112144975D01*
G36*
X131193532Y-103773665D02*
X131176859Y-103784807D01*
X131127818Y-103904534D01*
X131610000Y-104386716D01*
X132092182Y-103904534D01*
X132043141Y-103784807D01*
X131903946Y-103725000D01*
X132585963Y-103725000D01*
X132455159Y-103779181D01*
X132245115Y-103989225D01*
X132240193Y-103981859D01*
X132120466Y-103932818D01*
X131638284Y-104415000D01*
X132120466Y-104897182D01*
X132240193Y-104848141D01*
X132243974Y-104839341D01*
X132244181Y-104839841D01*
X132454340Y-105050000D01*
X132245000Y-105259340D01*
X132035775Y-105050115D01*
X132043141Y-105045193D01*
X132092182Y-104925466D01*
X131610000Y-104443284D01*
X131127818Y-104925466D01*
X131176859Y-105045193D01*
X131185659Y-105048974D01*
X131185159Y-105049181D01*
X130974181Y-105260159D01*
X130860000Y-105535816D01*
X130860000Y-105834184D01*
X130974181Y-106109841D01*
X131185159Y-106320819D01*
X131260000Y-106351819D01*
X131260000Y-106825536D01*
X131253145Y-106860000D01*
X131260000Y-106894464D01*
X131260000Y-106894467D01*
X131280308Y-106996562D01*
X131357665Y-107112334D01*
X131386887Y-107131860D01*
X132200129Y-107945103D01*
X130550000Y-107945103D01*
X130452455Y-107964506D01*
X130369761Y-108019761D01*
X130314506Y-108102455D01*
X130295103Y-108200000D01*
X130295103Y-109800000D01*
X130314506Y-109897545D01*
X130369761Y-109980239D01*
X130444760Y-110030352D01*
X130225327Y-110030352D01*
X130204897Y-110009922D01*
X130204897Y-109050000D01*
X130185494Y-108952455D01*
X130130239Y-108869761D01*
X130047545Y-108814506D01*
X129950000Y-108795103D01*
X128750000Y-108795103D01*
X128652455Y-108814506D01*
X128569761Y-108869761D01*
X128514506Y-108952455D01*
X128495103Y-109050000D01*
X128495103Y-110250000D01*
X128514506Y-110347545D01*
X128569761Y-110430239D01*
X128652455Y-110485494D01*
X128750000Y-110504897D01*
X129144008Y-110504897D01*
X129111148Y-110518508D01*
X129079656Y-110550000D01*
X128804464Y-110550000D01*
X128770000Y-110543145D01*
X128735536Y-110550000D01*
X128735532Y-110550000D01*
X128633437Y-110570308D01*
X128517665Y-110647665D01*
X128498140Y-110676886D01*
X127815027Y-111360000D01*
X127601931Y-111360000D01*
X127586177Y-111280801D01*
X127343056Y-110916944D01*
X126979199Y-110673823D01*
X126658339Y-110610000D01*
X126441661Y-110610000D01*
X126120801Y-110673823D01*
X125780000Y-110901539D01*
X125439199Y-110673823D01*
X125325000Y-110651107D01*
X125325000Y-110228893D01*
X125439199Y-110206177D01*
X125780000Y-109978461D01*
X126120801Y-110206177D01*
X126441661Y-110270000D01*
X126658339Y-110270000D01*
X126979199Y-110206177D01*
X127343056Y-109963056D01*
X127586177Y-109599199D01*
X127671550Y-109170000D01*
X127586177Y-108740801D01*
X127343056Y-108376944D01*
X126979199Y-108133823D01*
X126658339Y-108070000D01*
X126441661Y-108070000D01*
X126120801Y-108133823D01*
X125780000Y-108361539D01*
X125439199Y-108133823D01*
X125325000Y-108111107D01*
X125325000Y-107688893D01*
X125439199Y-107666177D01*
X125780000Y-107438461D01*
X126120801Y-107666177D01*
X126441661Y-107730000D01*
X126658339Y-107730000D01*
X126979199Y-107666177D01*
X127343056Y-107423056D01*
X127586177Y-107059199D01*
X127607898Y-106950000D01*
X128495103Y-106950000D01*
X128495103Y-108150000D01*
X128514506Y-108247545D01*
X128569761Y-108330239D01*
X128652455Y-108385494D01*
X128750000Y-108404897D01*
X129950000Y-108404897D01*
X130047545Y-108385494D01*
X130130239Y-108330239D01*
X130185494Y-108247545D01*
X130204897Y-108150000D01*
X130204897Y-106950000D01*
X130185494Y-106852455D01*
X130130239Y-106769761D01*
X130047545Y-106714506D01*
X129975000Y-106700076D01*
X129975000Y-105904897D01*
X130050000Y-105904897D01*
X130147545Y-105885494D01*
X130230239Y-105830239D01*
X130285494Y-105747545D01*
X130304897Y-105650000D01*
X130304897Y-105150000D01*
X130285494Y-105052455D01*
X130230239Y-104969761D01*
X130147545Y-104914506D01*
X130050000Y-104895103D01*
X129150000Y-104895103D01*
X129052455Y-104914506D01*
X128969761Y-104969761D01*
X128914506Y-105052455D01*
X128895103Y-105150000D01*
X128895103Y-105650000D01*
X128914506Y-105747545D01*
X128969761Y-105830239D01*
X129052455Y-105885494D01*
X129150000Y-105904897D01*
X129225000Y-105904897D01*
X129225001Y-106695103D01*
X128750000Y-106695103D01*
X128652455Y-106714506D01*
X128569761Y-106769761D01*
X128514506Y-106852455D01*
X128495103Y-106950000D01*
X127607898Y-106950000D01*
X127671550Y-106630000D01*
X127586177Y-106200801D01*
X127343056Y-105836944D01*
X126979199Y-105593823D01*
X126658339Y-105530000D01*
X126441661Y-105530000D01*
X126120801Y-105593823D01*
X125780000Y-105821539D01*
X125439199Y-105593823D01*
X125325000Y-105571107D01*
X125325000Y-105148893D01*
X125439199Y-105126177D01*
X125780000Y-104898461D01*
X126120801Y-105126177D01*
X126441661Y-105190000D01*
X126658339Y-105190000D01*
X126979199Y-105126177D01*
X127343056Y-104883056D01*
X127562697Y-104554338D01*
X130858109Y-104554338D01*
X130968665Y-104831468D01*
X130979807Y-104848141D01*
X131099534Y-104897182D01*
X131581716Y-104415000D01*
X131099534Y-103932818D01*
X130979807Y-103981859D01*
X130862021Y-104255994D01*
X130858109Y-104554338D01*
X127562697Y-104554338D01*
X127586177Y-104519199D01*
X127601931Y-104440000D01*
X128075536Y-104440000D01*
X128110000Y-104446855D01*
X128144464Y-104440000D01*
X128144468Y-104440000D01*
X128246563Y-104419692D01*
X128362335Y-104342335D01*
X128381862Y-104313112D01*
X128454288Y-104240685D01*
X128495095Y-104281492D01*
X128660489Y-104350000D01*
X128839511Y-104350000D01*
X128951868Y-104303461D01*
X128969761Y-104330239D01*
X129052455Y-104385494D01*
X129150000Y-104404897D01*
X130050000Y-104404897D01*
X130147545Y-104385494D01*
X130230239Y-104330239D01*
X130266671Y-104275716D01*
X130300000Y-104282345D01*
X130336926Y-104275000D01*
X130336931Y-104275000D01*
X130446317Y-104253242D01*
X130570359Y-104170359D01*
X130591279Y-104139050D01*
X131005330Y-103725000D01*
X131315520Y-103725000D01*
X131193532Y-103773665D01*
X131193532Y-103773665D01*
G37*
X131193532Y-103773665D02*
X131176859Y-103784807D01*
X131127818Y-103904534D01*
X131610000Y-104386716D01*
X132092182Y-103904534D01*
X132043141Y-103784807D01*
X131903946Y-103725000D01*
X132585963Y-103725000D01*
X132455159Y-103779181D01*
X132245115Y-103989225D01*
X132240193Y-103981859D01*
X132120466Y-103932818D01*
X131638284Y-104415000D01*
X132120466Y-104897182D01*
X132240193Y-104848141D01*
X132243974Y-104839341D01*
X132244181Y-104839841D01*
X132454340Y-105050000D01*
X132245000Y-105259340D01*
X132035775Y-105050115D01*
X132043141Y-105045193D01*
X132092182Y-104925466D01*
X131610000Y-104443284D01*
X131127818Y-104925466D01*
X131176859Y-105045193D01*
X131185659Y-105048974D01*
X131185159Y-105049181D01*
X130974181Y-105260159D01*
X130860000Y-105535816D01*
X130860000Y-105834184D01*
X130974181Y-106109841D01*
X131185159Y-106320819D01*
X131260000Y-106351819D01*
X131260000Y-106825536D01*
X131253145Y-106860000D01*
X131260000Y-106894464D01*
X131260000Y-106894467D01*
X131280308Y-106996562D01*
X131357665Y-107112334D01*
X131386887Y-107131860D01*
X132200129Y-107945103D01*
X130550000Y-107945103D01*
X130452455Y-107964506D01*
X130369761Y-108019761D01*
X130314506Y-108102455D01*
X130295103Y-108200000D01*
X130295103Y-109800000D01*
X130314506Y-109897545D01*
X130369761Y-109980239D01*
X130444760Y-110030352D01*
X130225327Y-110030352D01*
X130204897Y-110009922D01*
X130204897Y-109050000D01*
X130185494Y-108952455D01*
X130130239Y-108869761D01*
X130047545Y-108814506D01*
X129950000Y-108795103D01*
X128750000Y-108795103D01*
X128652455Y-108814506D01*
X128569761Y-108869761D01*
X128514506Y-108952455D01*
X128495103Y-109050000D01*
X128495103Y-110250000D01*
X128514506Y-110347545D01*
X128569761Y-110430239D01*
X128652455Y-110485494D01*
X128750000Y-110504897D01*
X129144008Y-110504897D01*
X129111148Y-110518508D01*
X129079656Y-110550000D01*
X128804464Y-110550000D01*
X128770000Y-110543145D01*
X128735536Y-110550000D01*
X128735532Y-110550000D01*
X128633437Y-110570308D01*
X128517665Y-110647665D01*
X128498140Y-110676886D01*
X127815027Y-111360000D01*
X127601931Y-111360000D01*
X127586177Y-111280801D01*
X127343056Y-110916944D01*
X126979199Y-110673823D01*
X126658339Y-110610000D01*
X126441661Y-110610000D01*
X126120801Y-110673823D01*
X125780000Y-110901539D01*
X125439199Y-110673823D01*
X125325000Y-110651107D01*
X125325000Y-110228893D01*
X125439199Y-110206177D01*
X125780000Y-109978461D01*
X126120801Y-110206177D01*
X126441661Y-110270000D01*
X126658339Y-110270000D01*
X126979199Y-110206177D01*
X127343056Y-109963056D01*
X127586177Y-109599199D01*
X127671550Y-109170000D01*
X127586177Y-108740801D01*
X127343056Y-108376944D01*
X126979199Y-108133823D01*
X126658339Y-108070000D01*
X126441661Y-108070000D01*
X126120801Y-108133823D01*
X125780000Y-108361539D01*
X125439199Y-108133823D01*
X125325000Y-108111107D01*
X125325000Y-107688893D01*
X125439199Y-107666177D01*
X125780000Y-107438461D01*
X126120801Y-107666177D01*
X126441661Y-107730000D01*
X126658339Y-107730000D01*
X126979199Y-107666177D01*
X127343056Y-107423056D01*
X127586177Y-107059199D01*
X127607898Y-106950000D01*
X128495103Y-106950000D01*
X128495103Y-108150000D01*
X128514506Y-108247545D01*
X128569761Y-108330239D01*
X128652455Y-108385494D01*
X128750000Y-108404897D01*
X129950000Y-108404897D01*
X130047545Y-108385494D01*
X130130239Y-108330239D01*
X130185494Y-108247545D01*
X130204897Y-108150000D01*
X130204897Y-106950000D01*
X130185494Y-106852455D01*
X130130239Y-106769761D01*
X130047545Y-106714506D01*
X129975000Y-106700076D01*
X129975000Y-105904897D01*
X130050000Y-105904897D01*
X130147545Y-105885494D01*
X130230239Y-105830239D01*
X130285494Y-105747545D01*
X130304897Y-105650000D01*
X130304897Y-105150000D01*
X130285494Y-105052455D01*
X130230239Y-104969761D01*
X130147545Y-104914506D01*
X130050000Y-104895103D01*
X129150000Y-104895103D01*
X129052455Y-104914506D01*
X128969761Y-104969761D01*
X128914506Y-105052455D01*
X128895103Y-105150000D01*
X128895103Y-105650000D01*
X128914506Y-105747545D01*
X128969761Y-105830239D01*
X129052455Y-105885494D01*
X129150000Y-105904897D01*
X129225000Y-105904897D01*
X129225001Y-106695103D01*
X128750000Y-106695103D01*
X128652455Y-106714506D01*
X128569761Y-106769761D01*
X128514506Y-106852455D01*
X128495103Y-106950000D01*
X127607898Y-106950000D01*
X127671550Y-106630000D01*
X127586177Y-106200801D01*
X127343056Y-105836944D01*
X126979199Y-105593823D01*
X126658339Y-105530000D01*
X126441661Y-105530000D01*
X126120801Y-105593823D01*
X125780000Y-105821539D01*
X125439199Y-105593823D01*
X125325000Y-105571107D01*
X125325000Y-105148893D01*
X125439199Y-105126177D01*
X125780000Y-104898461D01*
X126120801Y-105126177D01*
X126441661Y-105190000D01*
X126658339Y-105190000D01*
X126979199Y-105126177D01*
X127343056Y-104883056D01*
X127562697Y-104554338D01*
X130858109Y-104554338D01*
X130968665Y-104831468D01*
X130979807Y-104848141D01*
X131099534Y-104897182D01*
X131581716Y-104415000D01*
X131099534Y-103932818D01*
X130979807Y-103981859D01*
X130862021Y-104255994D01*
X130858109Y-104554338D01*
X127562697Y-104554338D01*
X127586177Y-104519199D01*
X127601931Y-104440000D01*
X128075536Y-104440000D01*
X128110000Y-104446855D01*
X128144464Y-104440000D01*
X128144468Y-104440000D01*
X128246563Y-104419692D01*
X128362335Y-104342335D01*
X128381862Y-104313112D01*
X128454288Y-104240685D01*
X128495095Y-104281492D01*
X128660489Y-104350000D01*
X128839511Y-104350000D01*
X128951868Y-104303461D01*
X128969761Y-104330239D01*
X129052455Y-104385494D01*
X129150000Y-104404897D01*
X130050000Y-104404897D01*
X130147545Y-104385494D01*
X130230239Y-104330239D01*
X130266671Y-104275716D01*
X130300000Y-104282345D01*
X130336926Y-104275000D01*
X130336931Y-104275000D01*
X130446317Y-104253242D01*
X130570359Y-104170359D01*
X130591279Y-104139050D01*
X131005330Y-103725000D01*
X131315520Y-103725000D01*
X131193532Y-103773665D01*
G36*
X138095103Y-108000000D02*
X138114506Y-108097545D01*
X138169761Y-108180239D01*
X138252455Y-108235494D01*
X138350000Y-108254897D01*
X139550000Y-108254897D01*
X139647545Y-108235494D01*
X139650001Y-108233853D01*
X139650001Y-108666147D01*
X139647545Y-108664506D01*
X139550000Y-108645103D01*
X138350000Y-108645103D01*
X138252455Y-108664506D01*
X138169761Y-108719761D01*
X138114506Y-108802455D01*
X138095103Y-108900000D01*
X138095103Y-110100000D01*
X138105049Y-110150000D01*
X137984464Y-110150000D01*
X137950000Y-110143145D01*
X137915536Y-110150000D01*
X137915532Y-110150000D01*
X137813437Y-110170308D01*
X137726885Y-110228140D01*
X137726883Y-110228142D01*
X137697665Y-110247665D01*
X137678142Y-110276883D01*
X136905203Y-111049824D01*
X135905377Y-110050000D01*
X136767500Y-110050000D01*
X136830000Y-109987500D01*
X136830000Y-109020000D01*
X136870000Y-109020000D01*
X136870000Y-109987500D01*
X136932500Y-110050000D01*
X137799728Y-110050000D01*
X137891614Y-110011940D01*
X137961940Y-109941614D01*
X138000000Y-109849728D01*
X138000000Y-109082500D01*
X137937500Y-109020000D01*
X136870000Y-109020000D01*
X136830000Y-109020000D01*
X135762500Y-109020000D01*
X135700000Y-109082500D01*
X135700000Y-109849728D01*
X135727643Y-109916464D01*
X135644872Y-109900000D01*
X135644868Y-109900000D01*
X135610404Y-109893145D01*
X135575940Y-109900000D01*
X135256387Y-109900000D01*
X135224895Y-109868508D01*
X135059501Y-109800000D01*
X134880479Y-109800000D01*
X134800000Y-109833335D01*
X134800000Y-109259971D01*
X135700000Y-108359972D01*
X135700000Y-108917500D01*
X135762500Y-108980000D01*
X136830000Y-108980000D01*
X136830000Y-108012500D01*
X136870000Y-108012500D01*
X136870000Y-108980000D01*
X137937500Y-108980000D01*
X138000000Y-108917500D01*
X138000000Y-108150272D01*
X137961940Y-108058386D01*
X137891614Y-107988060D01*
X137799728Y-107950000D01*
X136932500Y-107950000D01*
X136870000Y-108012500D01*
X136830000Y-108012500D01*
X136767500Y-107950000D01*
X136109973Y-107950000D01*
X136259973Y-107800000D01*
X137513603Y-107800000D01*
X137545095Y-107831492D01*
X137710489Y-107900000D01*
X137889511Y-107900000D01*
X138054905Y-107831492D01*
X138095103Y-107791294D01*
X138095103Y-108000000D01*
X138095103Y-108000000D01*
G37*
X138095103Y-108000000D02*
X138114506Y-108097545D01*
X138169761Y-108180239D01*
X138252455Y-108235494D01*
X138350000Y-108254897D01*
X139550000Y-108254897D01*
X139647545Y-108235494D01*
X139650001Y-108233853D01*
X139650001Y-108666147D01*
X139647545Y-108664506D01*
X139550000Y-108645103D01*
X138350000Y-108645103D01*
X138252455Y-108664506D01*
X138169761Y-108719761D01*
X138114506Y-108802455D01*
X138095103Y-108900000D01*
X138095103Y-110100000D01*
X138105049Y-110150000D01*
X137984464Y-110150000D01*
X137950000Y-110143145D01*
X137915536Y-110150000D01*
X137915532Y-110150000D01*
X137813437Y-110170308D01*
X137726885Y-110228140D01*
X137726883Y-110228142D01*
X137697665Y-110247665D01*
X137678142Y-110276883D01*
X136905203Y-111049824D01*
X135905377Y-110050000D01*
X136767500Y-110050000D01*
X136830000Y-109987500D01*
X136830000Y-109020000D01*
X136870000Y-109020000D01*
X136870000Y-109987500D01*
X136932500Y-110050000D01*
X137799728Y-110050000D01*
X137891614Y-110011940D01*
X137961940Y-109941614D01*
X138000000Y-109849728D01*
X138000000Y-109082500D01*
X137937500Y-109020000D01*
X136870000Y-109020000D01*
X136830000Y-109020000D01*
X135762500Y-109020000D01*
X135700000Y-109082500D01*
X135700000Y-109849728D01*
X135727643Y-109916464D01*
X135644872Y-109900000D01*
X135644868Y-109900000D01*
X135610404Y-109893145D01*
X135575940Y-109900000D01*
X135256387Y-109900000D01*
X135224895Y-109868508D01*
X135059501Y-109800000D01*
X134880479Y-109800000D01*
X134800000Y-109833335D01*
X134800000Y-109259971D01*
X135700000Y-108359972D01*
X135700000Y-108917500D01*
X135762500Y-108980000D01*
X136830000Y-108980000D01*
X136830000Y-108012500D01*
X136870000Y-108012500D01*
X136870000Y-108980000D01*
X137937500Y-108980000D01*
X138000000Y-108917500D01*
X138000000Y-108150272D01*
X137961940Y-108058386D01*
X137891614Y-107988060D01*
X137799728Y-107950000D01*
X136932500Y-107950000D01*
X136870000Y-108012500D01*
X136830000Y-108012500D01*
X136767500Y-107950000D01*
X136109973Y-107950000D01*
X136259973Y-107800000D01*
X137513603Y-107800000D01*
X137545095Y-107831492D01*
X137710489Y-107900000D01*
X137889511Y-107900000D01*
X138054905Y-107831492D01*
X138095103Y-107791294D01*
X138095103Y-108000000D01*
G36*
X140867465Y-102173100D02*
X141176900Y-102482535D01*
X141581196Y-102650000D01*
X142018804Y-102650000D01*
X142423100Y-102482535D01*
X142585000Y-102320635D01*
X142746900Y-102482535D01*
X142975000Y-102577017D01*
X142975000Y-103047020D01*
X142940801Y-103053823D01*
X142576944Y-103296944D01*
X142559293Y-103323361D01*
X142391708Y-103162699D01*
X141991804Y-103006849D01*
X141820000Y-103052680D01*
X141820000Y-104070000D01*
X141840000Y-104070000D01*
X141840000Y-104110000D01*
X141820000Y-104110000D01*
X141820000Y-105127320D01*
X141991804Y-105173151D01*
X142391708Y-105017301D01*
X142559293Y-104856639D01*
X142576944Y-104883056D01*
X142940801Y-105126177D01*
X142975000Y-105132980D01*
X142975000Y-105587020D01*
X142940801Y-105593823D01*
X142585000Y-105831561D01*
X142229199Y-105593823D01*
X141908339Y-105530000D01*
X141691661Y-105530000D01*
X141370801Y-105593823D01*
X141212302Y-105699728D01*
X139989462Y-104476889D01*
X139969935Y-104447665D01*
X139854163Y-104370308D01*
X139752068Y-104350000D01*
X139752064Y-104350000D01*
X139717600Y-104343145D01*
X139683136Y-104350000D01*
X139350665Y-104350000D01*
X139380239Y-104330239D01*
X139412603Y-104281803D01*
X140716851Y-104281803D01*
X140725898Y-104327300D01*
X140898470Y-104720278D01*
X141208292Y-105017301D01*
X141608196Y-105173151D01*
X141780000Y-105127320D01*
X141780000Y-104110000D01*
X140762693Y-104110000D01*
X140716851Y-104281803D01*
X139412603Y-104281803D01*
X139435494Y-104247545D01*
X139454897Y-104150000D01*
X139454897Y-103898197D01*
X140716851Y-103898197D01*
X140762693Y-104070000D01*
X141780000Y-104070000D01*
X141780000Y-103052680D01*
X141608196Y-103006849D01*
X141208292Y-103162699D01*
X140898470Y-103459722D01*
X140725898Y-103852700D01*
X140716851Y-103898197D01*
X139454897Y-103898197D01*
X139454897Y-103650000D01*
X139435494Y-103552455D01*
X139380239Y-103469761D01*
X139297545Y-103414506D01*
X139200000Y-103395103D01*
X139125000Y-103395103D01*
X139125000Y-103005329D01*
X140205330Y-101925000D01*
X140764699Y-101925000D01*
X140867465Y-102173100D01*
X140867465Y-102173100D01*
G37*
X140867465Y-102173100D02*
X141176900Y-102482535D01*
X141581196Y-102650000D01*
X142018804Y-102650000D01*
X142423100Y-102482535D01*
X142585000Y-102320635D01*
X142746900Y-102482535D01*
X142975000Y-102577017D01*
X142975000Y-103047020D01*
X142940801Y-103053823D01*
X142576944Y-103296944D01*
X142559293Y-103323361D01*
X142391708Y-103162699D01*
X141991804Y-103006849D01*
X141820000Y-103052680D01*
X141820000Y-104070000D01*
X141840000Y-104070000D01*
X141840000Y-104110000D01*
X141820000Y-104110000D01*
X141820000Y-105127320D01*
X141991804Y-105173151D01*
X142391708Y-105017301D01*
X142559293Y-104856639D01*
X142576944Y-104883056D01*
X142940801Y-105126177D01*
X142975000Y-105132980D01*
X142975000Y-105587020D01*
X142940801Y-105593823D01*
X142585000Y-105831561D01*
X142229199Y-105593823D01*
X141908339Y-105530000D01*
X141691661Y-105530000D01*
X141370801Y-105593823D01*
X141212302Y-105699728D01*
X139989462Y-104476889D01*
X139969935Y-104447665D01*
X139854163Y-104370308D01*
X139752068Y-104350000D01*
X139752064Y-104350000D01*
X139717600Y-104343145D01*
X139683136Y-104350000D01*
X139350665Y-104350000D01*
X139380239Y-104330239D01*
X139412603Y-104281803D01*
X140716851Y-104281803D01*
X140725898Y-104327300D01*
X140898470Y-104720278D01*
X141208292Y-105017301D01*
X141608196Y-105173151D01*
X141780000Y-105127320D01*
X141780000Y-104110000D01*
X140762693Y-104110000D01*
X140716851Y-104281803D01*
X139412603Y-104281803D01*
X139435494Y-104247545D01*
X139454897Y-104150000D01*
X139454897Y-103898197D01*
X140716851Y-103898197D01*
X140762693Y-104070000D01*
X141780000Y-104070000D01*
X141780000Y-103052680D01*
X141608196Y-103006849D01*
X141208292Y-103162699D01*
X140898470Y-103459722D01*
X140725898Y-103852700D01*
X140716851Y-103898197D01*
X139454897Y-103898197D01*
X139454897Y-103650000D01*
X139435494Y-103552455D01*
X139380239Y-103469761D01*
X139297545Y-103414506D01*
X139200000Y-103395103D01*
X139125000Y-103395103D01*
X139125000Y-103005329D01*
X140205330Y-101925000D01*
X140764699Y-101925000D01*
X140867465Y-102173100D01*
G36*
X133733532Y-103773665D02*
X133716859Y-103784807D01*
X133667818Y-103904534D01*
X134150000Y-104386716D01*
X134632182Y-103904534D01*
X134583141Y-103784807D01*
X134443946Y-103725000D01*
X135125520Y-103725000D01*
X135003532Y-103773665D01*
X134986859Y-103784807D01*
X134937818Y-103904534D01*
X135420000Y-104386716D01*
X135902182Y-103904534D01*
X135853141Y-103784807D01*
X135713946Y-103725000D01*
X136315000Y-103725000D01*
X136315000Y-103758536D01*
X136265159Y-103779181D01*
X136055115Y-103989225D01*
X136050193Y-103981859D01*
X135930466Y-103932818D01*
X135448284Y-104415000D01*
X135930466Y-104897182D01*
X136050193Y-104848141D01*
X136053974Y-104839341D01*
X136054181Y-104839841D01*
X136264340Y-105050000D01*
X136055000Y-105259340D01*
X135845775Y-105050115D01*
X135853141Y-105045193D01*
X135902182Y-104925466D01*
X135420000Y-104443284D01*
X134937818Y-104925466D01*
X134986859Y-105045193D01*
X134995659Y-105048974D01*
X134995159Y-105049181D01*
X134785000Y-105259340D01*
X134575775Y-105050115D01*
X134583141Y-105045193D01*
X134632182Y-104925466D01*
X134150000Y-104443284D01*
X133667818Y-104925466D01*
X133716859Y-105045193D01*
X133725659Y-105048974D01*
X133725159Y-105049181D01*
X133515000Y-105259340D01*
X133305660Y-105050000D01*
X133514885Y-104840775D01*
X133519807Y-104848141D01*
X133639534Y-104897182D01*
X134121716Y-104415000D01*
X134178284Y-104415000D01*
X134660466Y-104897182D01*
X134780193Y-104848141D01*
X134783955Y-104839385D01*
X134789807Y-104848141D01*
X134909534Y-104897182D01*
X135391716Y-104415000D01*
X134909534Y-103932818D01*
X134789807Y-103981859D01*
X134786045Y-103990615D01*
X134780193Y-103981859D01*
X134660466Y-103932818D01*
X134178284Y-104415000D01*
X134121716Y-104415000D01*
X133639534Y-103932818D01*
X133519807Y-103981859D01*
X133516026Y-103990659D01*
X133515819Y-103990159D01*
X133304841Y-103779181D01*
X133174037Y-103725000D01*
X133855520Y-103725000D01*
X133733532Y-103773665D01*
X133733532Y-103773665D01*
G37*
X133733532Y-103773665D02*
X133716859Y-103784807D01*
X133667818Y-103904534D01*
X134150000Y-104386716D01*
X134632182Y-103904534D01*
X134583141Y-103784807D01*
X134443946Y-103725000D01*
X135125520Y-103725000D01*
X135003532Y-103773665D01*
X134986859Y-103784807D01*
X134937818Y-103904534D01*
X135420000Y-104386716D01*
X135902182Y-103904534D01*
X135853141Y-103784807D01*
X135713946Y-103725000D01*
X136315000Y-103725000D01*
X136315000Y-103758536D01*
X136265159Y-103779181D01*
X136055115Y-103989225D01*
X136050193Y-103981859D01*
X135930466Y-103932818D01*
X135448284Y-104415000D01*
X135930466Y-104897182D01*
X136050193Y-104848141D01*
X136053974Y-104839341D01*
X136054181Y-104839841D01*
X136264340Y-105050000D01*
X136055000Y-105259340D01*
X135845775Y-105050115D01*
X135853141Y-105045193D01*
X135902182Y-104925466D01*
X135420000Y-104443284D01*
X134937818Y-104925466D01*
X134986859Y-105045193D01*
X134995659Y-105048974D01*
X134995159Y-105049181D01*
X134785000Y-105259340D01*
X134575775Y-105050115D01*
X134583141Y-105045193D01*
X134632182Y-104925466D01*
X134150000Y-104443284D01*
X133667818Y-104925466D01*
X133716859Y-105045193D01*
X133725659Y-105048974D01*
X133725159Y-105049181D01*
X133515000Y-105259340D01*
X133305660Y-105050000D01*
X133514885Y-104840775D01*
X133519807Y-104848141D01*
X133639534Y-104897182D01*
X134121716Y-104415000D01*
X134178284Y-104415000D01*
X134660466Y-104897182D01*
X134780193Y-104848141D01*
X134783955Y-104839385D01*
X134789807Y-104848141D01*
X134909534Y-104897182D01*
X135391716Y-104415000D01*
X134909534Y-103932818D01*
X134789807Y-103981859D01*
X134786045Y-103990615D01*
X134780193Y-103981859D01*
X134660466Y-103932818D01*
X134178284Y-104415000D01*
X134121716Y-104415000D01*
X133639534Y-103932818D01*
X133519807Y-103981859D01*
X133516026Y-103990659D01*
X133515819Y-103990159D01*
X133304841Y-103779181D01*
X133174037Y-103725000D01*
X133855520Y-103725000D01*
X133733532Y-103773665D01*
G04 #@! TD*
M02*
